G04*
G04 #@! TF.GenerationSoftware,Altium Limited,Altium Designer,25.7.1 (20)*
G04*
G04 Layer_Physical_Order=2*
G04 Layer_Color=32768*
%FSLAX25Y25*%
%MOIN*%
G70*
G04*
G04 #@! TF.SameCoordinates,69DFDAC3-22A4-47A1-A04F-D62CACA854CE*
G04*
G04*
G04 #@! TF.FilePolarity,Negative*
G04*
G01*
G75*
%ADD144C,0.04000*%
%ADD145C,0.07937*%
%ADD146C,0.07898*%
%ADD147C,0.08016*%
%ADD148C,0.07543*%
%ADD149C,0.08200*%
%ADD150C,0.09118*%
%ADD151C,0.16992*%
%ADD152C,0.06795*%
%ADD153R,0.07937X0.15811*%
%ADD154C,0.08331*%
%ADD155C,0.13843*%
%ADD156C,0.07740*%
%ADD157C,0.05181*%
%ADD158C,0.06800*%
D144*
X0Y13780D02*
G03*
X13780Y0I13780J0D01*
G01*
X381496Y0D02*
G03*
X395276Y13780I0J13780D01*
G01*
X13780Y393701D02*
G03*
X-0Y379921I-0J-13780D01*
G01*
X395275D02*
Y412795D01*
X389075Y418996D02*
X395275Y412795D01*
X283760Y418996D02*
X389075D01*
X13780Y0D02*
X381496Y0D01*
X283760Y393701D02*
Y418996D01*
X13780Y393701D02*
X283760D01*
X-0Y379921D02*
X0Y13780D01*
X395275Y379921D02*
X395276Y13780D01*
D145*
X61417Y382677D02*
D03*
X303740Y266732D02*
D03*
X342126Y225590D02*
D03*
X96285Y280930D02*
D03*
D146*
X106102Y309646D02*
D03*
Y327362D02*
D03*
X240945Y362205D02*
D03*
X223228D02*
D03*
X205270Y100833D02*
D03*
X192743Y113361D02*
D03*
D147*
X386311Y62063D02*
D03*
X267984Y52063D02*
D03*
Y22063D02*
D03*
Y72063D02*
D03*
Y82063D02*
D03*
Y92063D02*
D03*
Y102063D02*
D03*
Y112063D02*
D03*
Y122063D02*
D03*
Y42063D02*
D03*
Y32063D02*
D03*
X378346Y180787D02*
D03*
X368347D02*
D03*
Y170787D02*
D03*
Y200787D02*
D03*
X378346Y200787D02*
D03*
Y170787D02*
D03*
X378346Y210787D02*
D03*
X368347Y210787D02*
D03*
X386311Y122063D02*
D03*
Y112063D02*
D03*
Y102063D02*
D03*
Y92063D02*
D03*
Y72063D02*
D03*
Y52063D02*
D03*
Y22063D02*
D03*
Y32063D02*
D03*
Y42063D02*
D03*
D148*
X259035Y220768D02*
D03*
X14409Y67716D02*
D03*
X66142Y347835D02*
D03*
X58268D02*
D03*
X259035Y191240D02*
D03*
Y201083D02*
D03*
X259035Y181398D02*
D03*
Y230610D02*
D03*
X329035Y220768D02*
D03*
Y210925D02*
D03*
X329035Y201083D02*
D03*
X66142Y337992D02*
D03*
X34409Y67716D02*
D03*
D149*
X370079Y238189D02*
D03*
X183721Y256713D02*
D03*
X236476Y275354D02*
D03*
X360079Y238189D02*
D03*
X107638Y342126D02*
D03*
X183721Y266713D02*
D03*
X226476Y275354D02*
D03*
X315197Y379429D02*
D03*
X305197D02*
D03*
X172283Y293701D02*
D03*
X140886D02*
D03*
X240551Y187795D02*
D03*
Y197795D02*
D03*
X182283Y293701D02*
D03*
X87638Y342126D02*
D03*
X97638D02*
D03*
X192283Y293701D02*
D03*
X380079Y238189D02*
D03*
X240551Y224410D02*
D03*
Y214409D02*
D03*
X130886Y293701D02*
D03*
X150886D02*
D03*
D150*
X45315Y176185D02*
D03*
Y199807D02*
D03*
X66969Y241146D02*
D03*
X55158D02*
D03*
X45315Y187996D02*
D03*
X76811Y211618D02*
D03*
Y187996D02*
D03*
Y223429D02*
D03*
Y199807D02*
D03*
X66969Y217524D02*
D03*
Y252957D02*
D03*
X76811Y270673D02*
D03*
Y258862D02*
D03*
Y235240D02*
D03*
X45315Y211618D02*
D03*
X66969Y264768D02*
D03*
X55158Y252957D02*
D03*
X45315Y270673D02*
D03*
Y258862D02*
D03*
X55158Y205713D02*
D03*
Y217524D02*
D03*
X45315Y235240D02*
D03*
Y247051D02*
D03*
X55158Y229335D02*
D03*
X45315Y223429D02*
D03*
X66969Y182091D02*
D03*
X76811Y176185D02*
D03*
D151*
X19724Y299217D02*
D03*
Y147642D02*
D03*
X13638Y14331D02*
D03*
X380035Y136835D02*
D03*
Y379331D02*
D03*
X13638D02*
D03*
D152*
X82913Y111024D02*
D03*
X92913D02*
D03*
X102913D02*
D03*
D153*
X35827Y101181D02*
D03*
D154*
X274606Y286417D02*
D03*
D155*
X264035Y248110D02*
D03*
X324035D02*
D03*
X324036Y163110D02*
D03*
X264035Y163110D02*
D03*
D156*
X375374Y346280D02*
D03*
Y319508D02*
D03*
D157*
X162598Y136221D02*
D03*
X141831Y163287D02*
D03*
X152559Y181102D02*
D03*
X210630Y90158D02*
D03*
X233573Y253652D02*
D03*
X126870Y262500D02*
D03*
X194882Y249185D02*
D03*
X156575Y215079D02*
D03*
X184646Y172835D02*
D03*
X160906Y218976D02*
D03*
X189055Y176299D02*
D03*
X148268Y207087D02*
D03*
X176378Y163779D02*
D03*
X126870Y268110D02*
D03*
X194882Y254697D02*
D03*
X152677Y210984D02*
D03*
X179823Y169390D02*
D03*
X288976Y104724D02*
D03*
X289075Y92126D02*
D03*
X339764Y337795D02*
D03*
X224114Y327682D02*
D03*
X182008Y324508D02*
D03*
X240059Y165650D02*
D03*
X249272Y245702D02*
D03*
X252264Y282185D02*
D03*
X338189Y356398D02*
D03*
X224114Y343086D02*
D03*
X364961Y371654D02*
D03*
X340354Y325000D02*
D03*
X135531Y373622D02*
D03*
X88189Y366142D02*
D03*
X322835Y335433D02*
D03*
X224213Y319980D02*
D03*
X152165Y332087D02*
D03*
X156496Y326673D02*
D03*
X130020Y324508D02*
D03*
X193149D02*
D03*
X231496Y158268D02*
D03*
X259154Y291142D02*
D03*
X285827Y256988D02*
D03*
X165748Y327756D02*
D03*
X151870Y337795D02*
D03*
X205610Y325689D02*
D03*
X218504Y304331D02*
D03*
X160138Y375984D02*
D03*
X198721Y324508D02*
D03*
X235236Y144193D02*
D03*
X290453Y260138D02*
D03*
X262894Y294882D02*
D03*
X337795Y348031D02*
D03*
X224114Y335384D02*
D03*
X224311Y350787D02*
D03*
X323228Y326772D02*
D03*
X224016Y312598D02*
D03*
X256046Y286642D02*
D03*
X280217Y256594D02*
D03*
X235728Y161811D02*
D03*
X187578Y324508D02*
D03*
X177591Y214141D02*
D03*
X293799Y269291D02*
D03*
X194095Y153150D02*
D03*
X161713Y173425D02*
D03*
X214075Y185236D02*
D03*
X206890Y183366D02*
D03*
X95669Y311024D02*
D03*
X97244Y350000D02*
D03*
X146457Y270709D02*
D03*
X202592Y178904D02*
D03*
X347227Y165337D02*
D03*
X198031Y160236D02*
D03*
X160118Y225197D02*
D03*
X154528Y150591D02*
D03*
X151850Y202480D02*
D03*
X162402Y187992D02*
D03*
D158*
X212598Y52362D02*
D03*
X155503Y382753D02*
D03*
M02*
