M48
;Layer_Color=9474304
;FILE_FORMAT=4:4
METRIC,TZ
;TYPE=PLATED
T01F00S00C0.3000
T02F00S00C0.7100
T03F00S00C0.7112
T04F00S00C0.9000
T05F00S00C0.9900
T06F00S00C1.0000
T08F00S00C1.0200
T09F00S00C1.0668
T10F00S00C1.1000
T11F00S00C1.3000
T12F00S00C2.3000
T13F00S00C2.5000
T14F00S00C3.3000
;TYPE=NON_PLATED
T15F00S00C0.9500
T16F00S00C3.3000
%
T01
X40000Y85000
Y117500
X160000Y150000
X190000Y160000
Y185000
Y210000
X188763Y233763
X213763Y208763
X214063Y183125
X215000Y160000
X240000
Y181960
Y210000
X152500Y182500
X368000Y162000
X370000Y210000
X376000Y230000
X393000
X410000
X364000Y242000
X302000Y64000
X276000Y61000
X424700Y169600
X465000Y170000
X469000Y205000
X452000
X435000
X422000Y218000
X486000Y205000
X503000
X520000
X537000
X554000
X571000
X588000
X605000
X622000
X636000Y191000
X649000Y178000
Y161000
Y144000
Y127000
Y110000
Y93000
X661000Y81000
Y64000
Y47000
X627100Y106600
X730000Y90000
X790000
Y210000
X730000
X535000Y229000
X520000Y170000
X820000Y150000
X880000
X910000Y90000
X850000
X820000Y30000
X880000
X940000
X970000Y90000
X910000Y210000
X880000Y270000
X820000
X940000
X932000Y314000
X867088Y347088
X881956Y419956
X850000Y450000
X860000Y617500
X796024Y570000
X797500Y510000
X740976Y510000
X712500Y535000
X705000Y587500
X700000Y630000
X640000
X560500Y529750
X545000Y480000
X526000Y469000
X514584Y454416
X480200Y447800
X469000Y439000
X456750Y430250
X448000Y416000
X503000Y407000
X493000Y389000
X497500Y320000
X460000Y270000
X580000
X640000
X610000Y330000
X578000Y369000
X564000Y410000
X606000Y421000
X640000Y390000
X741053Y389760
X738274Y450000
X796024
X790000Y330000
X730000
X760000Y270000
X462000Y529000
X451082Y543918
X456500Y596000
X487500Y602500
X420000
X406700Y572000
X408700Y556200
X397700Y546300
X387800Y535900
X376600Y526000
X385700Y514300
X387500Y460000
X399750Y470750
X412500Y477500
X410750Y440500
X345918Y439718
X360250Y414750
X392500Y382500
X390000Y360000
X413000Y346000
X370000Y330000
X340000Y317000
X323000
X306000
X289000
X272000
X255000
X238000
X221000
X186000
X169000
X152000
X135000
X118000
X67000
X50000
X33000
X32500Y425000
X60000Y457500
X40000Y510000
X27500Y575000
X60000
X40000Y630000
X313250Y627250
X355750Y633830
X382500Y630000
X340500Y364750
X320000Y352500
X255000
X280000Y390000
X220000
X352000Y305000
X364000Y293000
Y276000
Y259000
X340000Y270000
X324000Y250000
X400000Y270000
X16000Y317000
X27500Y665000
X60000Y680000
X27500Y715000
X87500Y745000
X157500Y717500
X200000Y740000
X243000Y713000
X245000Y684000
X322250Y681000
Y666750
X356500Y665250
X372000Y687600
X406750Y760250
X393304Y822696
X379000Y822750
X366750Y843250
X349000Y887000
X348750Y902250
X306555Y884370
X268000Y905000
X247000Y889000
X224000Y930000
X271750Y954250
X285000Y846250
X293843Y764497
Y745014
X292250Y726500
X330000Y789500
X243000Y790000
X394000Y920000
X457000Y917000
Y897000
Y877000
X452500Y849750
X444250Y805500
X427000Y805000
X415000Y742000
X430000Y683000
X504000Y695750
X518100Y675500
X518100Y661500
X515750Y722500
X520000Y750000
X465000Y766500
X540000Y811000
X567250Y812500
Y830625
Y848750
Y866875
X522000Y890500
X670000Y930000
X730000
X733000Y957250
X778500Y944500
X760000Y750000
X785000Y727500
X700000Y750000
X640000
X633000Y719000
X614000Y675000
X616750Y657000
X702500Y680000
X822500Y735000
X879000Y743000
X878250Y721750
X917000Y735000
X930250Y860000
X863000Y858000
X858000Y884000
X859000Y905250
X815375Y874125
X820000Y852000
X821000Y830000
X864500Y825500
X927000Y944000
X817250Y959500
T02
X210600Y282000
X236000
X261400
T03
X540000Y133000
T04
X36600Y172000
X87400
X835750Y485750
X835750Y510750
X835750Y535750
Y560750
X657950
Y535750
X657950Y510750
Y485750
X657950Y460750
Y585750
X168000Y858500
X148000
Y883500
X168000
T05
X521386Y256117
X489566Y287936
X535528Y333898
X567348Y302078
X269500Y786500
Y831500
X204500
Y786500
X500500Y933500
Y978500
X565500
Y933500
T06
X869000Y573000
X261000Y725000
X156000Y972000
X95000Y971000
X739000Y654000
T08
X700680Y56040
Y81440
Y106840
Y132240
X700680Y157640
X700680Y183040
Y208440
Y233840
X981230Y233840
Y208440
Y183040
Y157640
Y132240
Y106840
Y81440
Y56040
Y259240
Y284640
Y310040
X961000Y433800
Y459200
Y484600
X935600
Y459200
Y433800
Y510000
Y535400
X961000Y535400
X961000Y510000
X700680Y310040
Y284640
Y259240
T09
X914600Y605000
X940000
X965400
X611000Y595400
Y570000
Y544600
Y502400
Y477000
Y451600
X383250Y746000
X357850
X332450
X273400Y869000
X248000
X222600
X437600Y746000
X463000
X488400
X466650Y702850
Y677450
Y652050
X545000Y734000
X570400
X595800
X608600Y969000
X634000
X659400
T10
X702500Y728250
Y933250
T11
X115100Y447510
Y477510
Y507510
Y537510
Y567510
Y597510
Y627510
X140100Y642510
X170100
Y612510
X140100
Y582510
Y552510
X170100
Y582510
X195100Y597510
Y567510
Y537510
Y507510
Y477510
Y447510
X170100Y462510
Y492510
Y522510
X140100
Y492510
Y462510
X195100Y627510
Y657510
Y687510
X170100Y672510
X140100
X115100Y657510
Y687510
T12
X121000Y810800
Y931200
T13
X823050Y414300
X823050Y630200
X670650
Y414300
T14
X34640Y36400
X965290Y347560
X34640Y963500
X965290
T15
X953450Y811550
Y879550
T16
X50100Y375010
Y760010
M30
