G04*
G04 #@! TF.GenerationSoftware,Altium Limited,Altium Designer,25.7.1 (20)*
G04*
G04 Layer_Physical_Order=4*
G04 Layer_Color=16711680*
%FSLAX44Y44*%
%MOMM*%
G71*
G04*
G04 #@! TF.SameCoordinates,E610F868-73EF-4846-AD65-6CABB719E0C8*
G04*
G04*
G04 #@! TF.FilePolarity,Positive*
G04*
G01*
G75*
%ADD10C,0.2000*%
%ADD12C,0.4000*%
G04:AMPARAMS|DCode=23|XSize=1mm|YSize=1.7mm|CornerRadius=0.125mm|HoleSize=0mm|Usage=FLASHONLY|Rotation=270.000|XOffset=0mm|YOffset=0mm|HoleType=Round|Shape=RoundedRectangle|*
%AMROUNDEDRECTD23*
21,1,1.0000,1.4500,0,0,270.0*
21,1,0.7500,1.7000,0,0,270.0*
1,1,0.2500,-0.7250,-0.3750*
1,1,0.2500,-0.7250,0.3750*
1,1,0.2500,0.7250,0.3750*
1,1,0.2500,0.7250,-0.3750*
%
%ADD23ROUNDEDRECTD23*%
G04:AMPARAMS|DCode=26|XSize=1.4mm|YSize=1.7mm|CornerRadius=0.175mm|HoleSize=0mm|Usage=FLASHONLY|Rotation=180.000|XOffset=0mm|YOffset=0mm|HoleType=Round|Shape=RoundedRectangle|*
%AMROUNDEDRECTD26*
21,1,1.4000,1.3500,0,0,180.0*
21,1,1.0500,1.7000,0,0,180.0*
1,1,0.3500,-0.5250,0.6750*
1,1,0.3500,0.5250,0.6750*
1,1,0.3500,0.5250,-0.6750*
1,1,0.3500,-0.5250,-0.6750*
%
%ADD26ROUNDEDRECTD26*%
G04:AMPARAMS|DCode=27|XSize=1mm|YSize=1.7mm|CornerRadius=0.125mm|HoleSize=0mm|Usage=FLASHONLY|Rotation=180.000|XOffset=0mm|YOffset=0mm|HoleType=Round|Shape=RoundedRectangle|*
%AMROUNDEDRECTD27*
21,1,1.0000,1.4500,0,0,180.0*
21,1,0.7500,1.7000,0,0,180.0*
1,1,0.2500,-0.3750,0.7250*
1,1,0.2500,0.3750,0.7250*
1,1,0.2500,0.3750,-0.7250*
1,1,0.2500,-0.3750,-0.7250*
%
%ADD27ROUNDEDRECTD27*%
G04:AMPARAMS|DCode=34|XSize=1.4mm|YSize=1.7mm|CornerRadius=0.175mm|HoleSize=0mm|Usage=FLASHONLY|Rotation=270.000|XOffset=0mm|YOffset=0mm|HoleType=Round|Shape=RoundedRectangle|*
%AMROUNDEDRECTD34*
21,1,1.4000,1.3500,0,0,270.0*
21,1,1.0500,1.7000,0,0,270.0*
1,1,0.3500,-0.6750,-0.5250*
1,1,0.3500,-0.6750,0.5250*
1,1,0.3500,0.6750,0.5250*
1,1,0.3500,0.6750,-0.5250*
%
%ADD34ROUNDEDRECTD34*%
G04:AMPARAMS|DCode=35|XSize=1.4mm|YSize=1.7mm|CornerRadius=0.175mm|HoleSize=0mm|Usage=FLASHONLY|Rotation=225.000|XOffset=0mm|YOffset=0mm|HoleType=Round|Shape=RoundedRectangle|*
%AMROUNDEDRECTD35*
21,1,1.4000,1.3500,0,0,225.0*
21,1,1.0500,1.7000,0,0,225.0*
1,1,0.3500,-0.8485,0.1061*
1,1,0.3500,-0.1061,0.8485*
1,1,0.3500,0.8485,-0.1061*
1,1,0.3500,0.1061,-0.8485*
%
%ADD35ROUNDEDRECTD35*%
G04:AMPARAMS|DCode=43|XSize=1mm|YSize=1.7mm|CornerRadius=0.125mm|HoleSize=0mm|Usage=FLASHONLY|Rotation=225.000|XOffset=0mm|YOffset=0mm|HoleType=Round|Shape=RoundedRectangle|*
%AMROUNDEDRECTD43*
21,1,1.0000,1.4500,0,0,225.0*
21,1,0.7500,1.7000,0,0,225.0*
1,1,0.2500,-0.7778,0.2475*
1,1,0.2500,-0.2475,0.7778*
1,1,0.2500,0.7778,-0.2475*
1,1,0.2500,0.2475,-0.7778*
%
%ADD43ROUNDEDRECTD43*%
%ADD81C,1.4500*%
%ADD98C,1.3700*%
%ADD102R,0.6000X0.6000*%
%ADD105C,0.2500*%
%ADD106C,1.0000*%
%ADD107C,0.3000*%
%ADD109C,0.6000*%
%ADD110C,1.2000*%
%ADD113C,0.5000*%
%ADD115C,0.3177*%
%ADD117C,1.5748*%
%ADD118R,1.4080X1.4080*%
%ADD119C,1.8000*%
%ADD120C,1.2180*%
%ADD121C,1.9500*%
%ADD122C,1.4980*%
%ADD123R,1.4980X1.4980*%
%ADD124P,2.1185X4X270.0*%
%ADD125C,1.3500*%
%ADD126C,3.3000*%
%ADD127R,1.9500X1.9500*%
%ADD128R,1.2180X1.2180*%
%ADD129O,2.5400X1.2000*%
%ADD130O,4.5000X2.2500*%
%ADD131O,2.5000X5.0000*%
%ADD132C,3.3160*%
%ADD133C,1.4080*%
%ADD134R,1.3700X1.3700*%
%ADD135C,4.0000*%
%ADD136R,2.5400X1.2000*%
%ADD137C,0.9500*%
%ADD138O,2.2500X4.5000*%
%ADD139C,0.7000*%
%ADD140C,1.2700*%
%ADD156R,1.4000X0.6200*%
%ADD157R,0.5900X1.2400*%
G04:AMPARAMS|DCode=158|XSize=1.4mm|YSize=1.7mm|CornerRadius=0.175mm|HoleSize=0mm|Usage=FLASHONLY|Rotation=315.000|XOffset=0mm|YOffset=0mm|HoleType=Round|Shape=RoundedRectangle|*
%AMROUNDEDRECTD158*
21,1,1.4000,1.3500,0,0,315.0*
21,1,1.0500,1.7000,0,0,315.0*
1,1,0.3500,-0.1061,-0.8485*
1,1,0.3500,-0.8485,-0.1061*
1,1,0.3500,0.1061,0.8485*
1,1,0.3500,0.8485,0.1061*
%
%ADD158ROUNDEDRECTD158*%
%ADD159R,2.4000X1.1000*%
G04:AMPARAMS|DCode=160|XSize=5.5mm|YSize=2mm|CornerRadius=0mm|HoleSize=0mm|Usage=FLASHONLY|Rotation=45.000|XOffset=0mm|YOffset=0mm|HoleType=Round|Shape=Rectangle|*
%AMROTATEDRECTD160*
4,1,4,-1.2374,-2.6517,-2.6517,-1.2374,1.2374,2.6517,2.6517,1.2374,-1.2374,-2.6517,0.0*
%
%ADD160ROTATEDRECTD160*%

%ADD161C,0.2032*%
%ADD162C,0.8000*%
%ADD163C,0.3180*%
G36*
X127100Y633200D02*
Y598200D01*
X130900Y594400D01*
X147400D01*
X152100Y589700D01*
Y514600D01*
X147000Y509500D01*
X133300D01*
X127700Y515100D01*
X128000Y515400D01*
Y552400D01*
X124400Y556000D01*
X86329D01*
X85702Y556629D01*
X85900Y640659D01*
X86000Y640700D01*
X119600D01*
X127100Y633200D01*
D02*
G37*
G36*
X234000Y850000D02*
X180000D01*
Y836000D01*
X159000D01*
Y868000D01*
X188000D01*
Y880000D01*
X234000D01*
Y850000D01*
D02*
G37*
D10*
X269500Y831500D02*
X327250D01*
X349000Y853250D02*
Y887000D01*
X327250Y831500D02*
X349000Y853250D01*
X339972Y678524D02*
X379011D01*
X341836Y674024D02*
X377763D01*
X385288Y666500D01*
X337573Y676125D02*
X339972Y678524D01*
X327125Y671625D02*
X339437D01*
X341836Y674024D01*
X327125Y676125D02*
X337573D01*
X479000Y666000D02*
X513600D01*
X478253Y671000D02*
X487571D01*
X186878Y426172D02*
X188121Y424929D01*
X320897Y681000D02*
X323422D01*
Y679828D02*
Y681000D01*
X309495Y677250D02*
X317147D01*
X301945Y684800D02*
X309495Y677250D01*
X300250Y684800D02*
X301945D01*
X487571Y671000D02*
X487571Y671000D01*
X513600D01*
X518100Y675500D01*
X522600Y671000D02*
X533863D01*
X518100Y675500D02*
X522600Y671000D01*
X533863D02*
X535559Y672696D01*
Y674358D01*
X317147Y677250D02*
X320897Y681000D01*
X535559Y674358D02*
X541271Y680070D01*
X542500D01*
X298510Y684800D02*
X300250D01*
X290710Y677000D02*
X298510Y684800D01*
X269000Y677000D02*
X282105D01*
X282105Y677000D02*
X290710D01*
X282105Y677000D02*
X282105Y677000D01*
X188121Y414857D02*
Y424929D01*
Y414857D02*
X205493D01*
X245000Y454364D02*
Y653000D01*
X269000Y677000D01*
X205493Y414857D02*
X245000Y454364D01*
X323422Y679828D02*
X327125Y676125D01*
X192650Y449960D02*
X195100Y447510D01*
X180016Y427344D02*
Y430036D01*
X181187Y426172D02*
X186878D01*
X180016Y427344D02*
X181187Y426172D01*
X180016Y430036D02*
X180232Y430252D01*
Y447720D01*
X182472Y449960D01*
X192650D01*
X168500Y422300D02*
X170450Y420350D01*
X168500Y422300D02*
Y425550D01*
X300250Y663300D02*
X301344D01*
X307287Y669243D01*
Y670276D01*
X309761Y672750D01*
X316250D01*
X518100Y661500D02*
X522600Y666000D01*
X513600D02*
X518100Y661500D01*
X535559Y662642D02*
X541271Y656930D01*
X542500D01*
X533863Y666000D02*
X535559Y664304D01*
Y662642D02*
Y664304D01*
X316250Y672750D02*
X322250Y666750D01*
X522600Y666000D02*
X533863D01*
X292750Y669706D02*
Y670335D01*
X299021Y663300D02*
X300250D01*
X299021D02*
Y663435D01*
X290586Y672500D02*
X292750Y670335D01*
Y669706D02*
X299021Y663435D01*
X280241Y672500D02*
X280241Y672500D01*
X290586D01*
X270864Y672500D02*
X280241D01*
X170450Y420350D02*
X176264D01*
X186257Y410357D01*
X170450Y420350D02*
Y420350D01*
X186257Y410357D02*
X207357D01*
X249500Y651136D02*
X270864Y672500D01*
X249500Y452500D02*
Y651136D01*
X207357Y410357D02*
X249500Y452500D01*
X322250Y666750D02*
X327125Y671625D01*
X168500Y425550D02*
X169122Y426172D01*
X174812D02*
X175984Y427344D01*
X169122Y426172D02*
X174812D01*
X170100Y458472D02*
X175984Y452588D01*
Y427344D02*
Y452588D01*
X170100Y458472D02*
Y462510D01*
X528000Y441000D02*
X561000D01*
X629000Y373000D01*
X514584Y454416D02*
X528000Y441000D01*
X835000Y373000D02*
X881956Y419956D01*
X629000Y373000D02*
X835000D01*
X914500Y438100D02*
X935600Y459200D01*
X914500Y420500D02*
Y438100D01*
X844000Y350000D02*
X914500Y420500D01*
X560000Y350000D02*
X844000D01*
X503000Y407000D02*
X560000Y350000D01*
X372000Y687600D02*
X404600D01*
X354930Y696070D02*
X363400Y687600D01*
X372000D01*
X354930Y696070D02*
Y714100D01*
X404600Y687600D02*
X463000Y746000D01*
X412500Y461500D02*
Y477500D01*
X399000Y448000D02*
X412500Y461500D01*
X614000Y949000D02*
X634000Y969000D01*
X497000Y901000D02*
X545000Y949000D01*
X614000D01*
X544317Y279118D02*
Y283390D01*
X489566Y287936D02*
X502502Y275000D01*
X544317Y279118D02*
X562718Y260718D01*
X440064Y287936D02*
X489566D01*
X374000Y354000D02*
X440064Y287936D01*
X374000Y354000D02*
Y387000D01*
X521386Y256117D02*
X544317Y279048D01*
X374000Y387000D02*
X399000Y412000D01*
X502502Y275000D02*
X519215Y258287D01*
X521386Y256117D01*
X399000Y412000D02*
Y448000D01*
X269500Y786500D02*
Y831500D01*
X481000Y901000D02*
X497000D01*
X457000Y877000D02*
X481000Y901000D01*
X349000Y887000D02*
X367430D01*
X369000Y885430D01*
D12*
X409274Y774326D02*
X437600Y746000D01*
X409274Y774326D02*
Y833274D01*
X910000Y944000D02*
X927000D01*
X409274Y833274D02*
X439000Y863000D01*
X911000Y945087D02*
Y960000D01*
X896000Y975000D02*
X911000Y960000D01*
X696000Y975000D02*
X896000D01*
X629000Y908000D02*
X696000Y975000D01*
X539500Y908000D02*
X629000D01*
X522000Y890500D02*
X539500Y908000D01*
X494500Y863000D02*
X522000Y890500D01*
X348750Y902250D02*
X392750D01*
X330660D02*
X348750D01*
X412000Y863000D02*
X439000D01*
X494500D01*
X402000Y873000D02*
X412000Y863000D01*
X392750Y902250D02*
X402000Y893000D01*
Y873000D02*
Y893000D01*
X355750Y633830D02*
X356125Y634205D01*
Y664875D01*
X356500Y665250D01*
X436000Y889570D02*
X437742Y891312D01*
X450500D01*
X456188Y897000D01*
X457000D01*
D23*
X816250Y769750D02*
D03*
Y788750D02*
D03*
D26*
X247570Y908000D02*
D03*
X329650Y901240D02*
D03*
X223430Y908000D02*
D03*
X329180Y867500D02*
D03*
X200570Y908000D02*
D03*
X270430D02*
D03*
X332070Y714100D02*
D03*
X306790Y901240D02*
D03*
X306320Y867500D02*
D03*
X354930Y714100D02*
D03*
D27*
X910000Y944000D02*
D03*
X891000D02*
D03*
D34*
X300250Y640440D02*
D03*
Y707660D02*
D03*
X369000Y862570D02*
D03*
X542500Y634070D02*
D03*
X568600Y647170D02*
D03*
X594500Y647270D02*
D03*
X436000Y889570D02*
D03*
X542500Y702930D02*
D03*
X300250Y684800D02*
D03*
X542500Y680070D02*
D03*
X300250Y663300D02*
D03*
X542500Y656930D02*
D03*
X436000Y912430D02*
D03*
X594500Y670130D02*
D03*
X568600Y670030D02*
D03*
X369000Y885430D02*
D03*
D35*
X362082Y455882D02*
D03*
X459918Y323918D02*
D03*
X355582Y412682D02*
D03*
X438918Y344918D02*
D03*
X339418Y396518D02*
D03*
X345918Y439718D02*
D03*
X429582Y386832D02*
D03*
X476082Y340082D02*
D03*
X455082Y361082D02*
D03*
X413418Y370668D02*
D03*
D43*
X549282Y247283D02*
D03*
X338317Y469217D02*
D03*
X562718Y260718D02*
D03*
X324883Y455783D02*
D03*
D81*
X702500Y933250D02*
D03*
Y728250D02*
D03*
D98*
X981230Y157640D02*
D03*
X700680Y132240D02*
D03*
X700680Y157640D02*
D03*
X981230Y208440D02*
D03*
X935600Y484600D02*
D03*
X961000D02*
D03*
Y459200D02*
D03*
X935600D02*
D03*
Y433800D02*
D03*
Y510000D02*
D03*
X961000Y510000D02*
D03*
X961000Y535400D02*
D03*
X935600Y535400D02*
D03*
X700680Y81440D02*
D03*
Y106840D02*
D03*
X981230Y310040D02*
D03*
Y284640D02*
D03*
Y259240D02*
D03*
Y233840D02*
D03*
Y183040D02*
D03*
Y132240D02*
D03*
Y81440D02*
D03*
Y106840D02*
D03*
X700680Y310040D02*
D03*
Y284640D02*
D03*
Y259240D02*
D03*
Y233840D02*
D03*
Y208440D02*
D03*
Y183040D02*
D03*
D102*
X168000Y842000D02*
D03*
Y820000D02*
D03*
X148500Y921500D02*
D03*
X168250Y921750D02*
D03*
Y899750D02*
D03*
X148500Y899500D02*
D03*
D105*
X293843Y763279D02*
Y764497D01*
Y763279D02*
X297101Y760022D01*
Y759424D02*
Y760022D01*
Y749489D02*
Y750086D01*
X299250Y752235D01*
X293843Y746231D02*
X297101Y749489D01*
Y759424D02*
X299250Y757275D01*
X305397D01*
X293843Y745014D02*
Y746231D01*
X299250Y752235D02*
X307485D01*
X318750Y763500D01*
X305397Y757275D02*
X316662Y768540D01*
X335480D01*
X318750Y763500D02*
X337568D01*
X389825Y815757D01*
X335480Y768540D02*
X383643Y816703D01*
X379000Y822750D02*
X383643Y818107D01*
X389825Y818200D02*
X393304Y821679D01*
X389825Y815757D02*
Y818200D01*
X383643Y816703D02*
Y818107D01*
X393304Y821679D02*
Y822696D01*
X324883Y455783D02*
Y459143D01*
X319000Y465025D02*
Y491700D01*
Y465025D02*
X324883Y459143D01*
X306800Y503900D02*
X319000Y491700D01*
X306800Y503900D02*
Y503900D01*
X815000Y873750D02*
X815375Y874125D01*
X839625D01*
X840000Y874500D01*
X830500Y841500D02*
X840000D01*
X816000Y918000D02*
X829500D01*
X840000Y907500D01*
X816000Y918000D02*
X842000Y944000D01*
X658500Y918000D02*
X816000D01*
X842000Y944000D02*
X891000D01*
X634500Y894000D02*
X658500Y918000D01*
X524750Y849750D02*
X569000Y894000D01*
X634500D01*
X452500Y849750D02*
X524750D01*
X415510Y431490D02*
Y435007D01*
X410750Y439768D02*
Y440500D01*
Y439768D02*
X415510Y435007D01*
Y431490D02*
X458000Y389000D01*
X445750Y419468D02*
X448000Y417218D01*
X392961Y525139D02*
X445750Y472350D01*
X448000Y416000D02*
Y417218D01*
X445750Y419468D02*
Y472350D01*
X397300Y535900D02*
X456750Y476450D01*
Y430250D02*
Y476450D01*
X576000Y570000D02*
X611000D01*
X545000Y539000D02*
X576000Y570000D01*
X545000Y480000D02*
Y539000D01*
X526000Y463000D02*
X531000Y458000D01*
X559000D01*
X526000Y463000D02*
Y469000D01*
X559000Y458000D02*
X569000Y468000D01*
Y518000D01*
X596770Y545770D01*
X609830D02*
X611000Y544600D01*
X596770Y545770D02*
X609830D01*
X387800Y535900D02*
X397300D01*
X386349Y583450D02*
X395251D01*
X373975Y571075D02*
X386349Y583450D01*
X395251D02*
X406700Y572000D01*
Y572000D02*
Y572000D01*
X469000Y439000D02*
Y477900D01*
X401461Y545439D02*
X469000Y477900D01*
X398561Y545439D02*
X401461D01*
X397700Y546300D02*
X398561Y545439D01*
X338317Y469217D02*
X340617D01*
X385700Y514300D01*
X480200Y447800D02*
Y484700D01*
X408700Y556200D02*
X480200Y484700D01*
X377461Y525139D02*
X392961D01*
X376600Y526000D02*
X377461Y525139D01*
X458000Y389000D02*
X493000D01*
X321136Y455783D02*
X324883D01*
X308336Y442982D02*
X321136Y455783D01*
X307418Y442982D02*
X308336D01*
X455887Y917000D02*
X457000D01*
X451317Y912430D02*
X455887Y917000D01*
X436000Y912430D02*
X451317D01*
X148000Y883500D02*
X148250Y883750D01*
Y899250D01*
X148500Y899500D01*
X168125Y883625D02*
Y899625D01*
X168000Y883500D02*
X168125Y883625D01*
Y899625D02*
X168250Y899750D01*
D106*
X306320Y867500D02*
X306555Y867735D01*
Y901005D01*
X306790Y901240D01*
X329415Y901005D02*
X330660Y902250D01*
X329415Y867735D02*
Y901005D01*
X329180Y867500D02*
X329415Y867735D01*
X247000Y889000D02*
Y907430D01*
X243000Y713000D02*
Y790000D01*
X91000Y710000D02*
X188000Y807000D01*
X91000Y441700D02*
X203000Y329700D01*
X91000Y441700D02*
Y710000D01*
X188000Y807000D02*
X215000D01*
X273400Y867445D02*
Y869000D01*
X270526Y864571D02*
X273400Y867445D01*
X270526Y862526D02*
Y864571D01*
X215000Y807000D02*
X270526Y862526D01*
X203000Y290190D02*
Y329700D01*
Y290190D02*
X210600Y282590D01*
Y282000D02*
Y282590D01*
X540000Y133000D02*
X648000Y25000D01*
X914600Y590600D02*
Y605000D01*
Y590600D02*
X932500Y572700D01*
X965000D01*
X756000Y25000D02*
X852800Y121800D01*
Y285100D01*
X648000Y25000D02*
X756000D01*
X210600Y282000D02*
X211017Y281583D01*
X359600Y133000D02*
X540000D01*
X322350Y170250D02*
X359600Y133000D01*
X322350Y170250D02*
Y172650D01*
X255000Y240000D02*
X322350Y172650D01*
X227500Y240000D02*
X255000D01*
X211017Y256483D02*
Y281583D01*
Y256483D02*
X227500Y240000D01*
X983000Y415300D02*
Y554700D01*
X852800Y285100D02*
X983000Y415300D01*
X965000Y572700D02*
X983000Y554700D01*
X224000Y908570D02*
Y930000D01*
X223430Y908000D02*
X224000Y908570D01*
X375000Y432100D02*
Y442964D01*
X362082Y455882D02*
X375000Y442964D01*
X670000Y162920D02*
Y191000D01*
Y162920D02*
X700680Y132240D01*
X553311Y243254D02*
X553311D01*
X438918Y344918D02*
X459918Y323918D01*
X562565Y234000D02*
X627000D01*
X670000Y191000D01*
X553311Y243254D02*
X562565Y234000D01*
X535000Y229000D02*
X551283Y245282D01*
X546808Y249757D02*
X549282Y247283D01*
X551283Y245282D01*
X553311Y243254D01*
X358950Y416050D02*
X375000Y432100D01*
X292250Y715660D02*
X296750Y711160D01*
Y709660D02*
Y711160D01*
X300250Y640440D02*
X301750D01*
X292250Y715660D02*
Y726500D01*
X434918Y560082D02*
X456500Y581664D01*
Y596000D01*
X542500Y634070D02*
X544500Y636070D01*
X556000D01*
X567100Y647170D02*
X568600D01*
X556000Y636070D02*
X567100Y647170D01*
X568600D02*
X568650Y647220D01*
X594450D02*
X594500Y647270D01*
X568650Y647220D02*
X594450D01*
X542500Y702930D02*
X543000D01*
X545000Y704930D01*
Y734000D01*
X614905Y675000D02*
X642155Y702250D01*
X876750D02*
X940000Y639000D01*
X642155Y702250D02*
X876750D01*
X940000Y605000D02*
Y639000D01*
X568650Y670080D02*
X597621D01*
X611130Y672130D02*
X614000Y675000D01*
X598000Y672130D02*
X611130D01*
X614000Y675000D02*
X614905D01*
X598000Y670459D02*
Y672130D01*
X597621Y670080D02*
X598000Y670459D01*
X568600Y670030D02*
X568650Y670080D01*
D107*
X864570Y806570D02*
Y825430D01*
Y825570D02*
Y840430D01*
X864500Y825500D02*
X864570Y825430D01*
X864500Y825500D02*
X864570Y825570D01*
X827750Y769750D02*
X864570Y806570D01*
X852500Y852500D02*
X864570Y840430D01*
X840000Y852500D02*
X852500D01*
X816250Y769750D02*
X827750D01*
X413000Y346000D02*
X413011Y345989D01*
X437846D01*
X438835Y345000D01*
X362082Y455882D02*
X367625D01*
X371743Y460000D02*
X387500D01*
X367625Y455882D02*
X371743Y460000D01*
X412262Y371824D02*
X413418Y370668D01*
X403176Y371824D02*
X412262D01*
X392500Y382500D02*
X403176Y371824D01*
X686500Y664000D02*
X702500Y680000D01*
X561000Y575000D02*
X650000Y664000D01*
X686500D01*
X487468Y575000D02*
X561000D01*
X456385Y543918D02*
X487468Y575000D01*
X451082Y543918D02*
X456385D01*
D109*
X313059Y627441D02*
Y629131D01*
X301750Y640440D02*
X313059Y629131D01*
Y627441D02*
X313250Y627250D01*
X148750Y921750D02*
X176000D01*
X148500Y921500D02*
X148750Y921750D01*
X178000Y395000D02*
X183000Y390000D01*
X220000D01*
X178000Y395000D02*
Y404450D01*
X124005Y813805D02*
X146580D01*
X121000Y810800D02*
X124005Y813805D01*
X152775Y820000D02*
X168000D01*
X146580Y813805D02*
X152775Y820000D01*
X303750Y709660D02*
X308190Y714100D01*
X296750Y709660D02*
X303750D01*
X176000Y921750D02*
X188085Y909665D01*
X198905D01*
X124188Y928012D02*
X141988D01*
X148500Y921500D01*
X121000Y931200D02*
X124188Y928012D01*
X198905Y909665D02*
X200570Y908000D01*
X308190Y714100D02*
X332070D01*
X598500Y651270D02*
X610749D01*
X594500Y647270D02*
X598500Y651270D01*
X610749D02*
X616479Y657000D01*
X616750D01*
D110*
X366750Y861570D02*
X367750Y862570D01*
X366750Y843250D02*
Y861570D01*
X367750Y862570D02*
X369000D01*
D113*
X860000Y759800D02*
X943500D01*
X950000D01*
X943500Y921300D02*
X950000D01*
X930250Y908050D02*
X943500Y921300D01*
X860000Y921300D02*
X943500D01*
X930250Y773050D02*
X943500Y759800D01*
X930250Y860000D02*
Y908050D01*
Y773050D02*
Y860000D01*
D115*
X637517Y875250D02*
G03*
X633389Y871122I0J-4128D01*
G01*
X629260Y866853D02*
G03*
X633389Y870982I0J4128D01*
G01*
X625132Y876786D02*
G03*
X621003Y880914I-4128J0D01*
G01*
X625132Y870982D02*
G03*
X629260Y866853I4128J0D01*
G01*
X608618Y876786D02*
G03*
X604489Y880914I-4128J0D01*
G01*
X604489D02*
G03*
X600361Y876786I0J-4128D01*
G01*
X621003Y880914D02*
G03*
X616875Y876786I0J-4128D01*
G01*
X592104Y871122D02*
G03*
X587975Y875250I-4128J0D01*
G01*
X596232Y866853D02*
G03*
X600361Y870982I0J4128D01*
G01*
X608618D02*
G03*
X612746Y866853I4128J0D01*
G01*
X592104Y870982D02*
G03*
X596232Y866853I4128J0D01*
G01*
X612746D02*
G03*
X616875Y870982I0J4128D01*
G01*
X666402Y834750D02*
G03*
X662273Y830621I0J-4128D01*
G01*
X637502Y834755D02*
G03*
X633374Y838884I-4128J0D01*
G01*
X633374D02*
G03*
X629245Y834755I0J-4128D01*
G01*
X654016Y834750D02*
G03*
X649888Y838879I-4128J0D01*
G01*
X649888D02*
G03*
X645759Y834750I0J-4128D01*
G01*
X654016Y830621D02*
G03*
X658145Y826493I4128J0D01*
G01*
X658145D02*
G03*
X662273Y830621I0J4128D01*
G01*
X641631Y826084D02*
G03*
X645759Y830213I0J4128D01*
G01*
X637502D02*
G03*
X641631Y826084I4128J0D01*
G01*
X620988Y834755D02*
G03*
X616860Y838884I-4128J0D01*
G01*
X616860D02*
G03*
X612731Y834755I0J-4128D01*
G01*
X604474Y830621D02*
G03*
X600346Y834750I-4128J0D01*
G01*
X608603Y825804D02*
G03*
X612731Y829932I0J4128D01*
G01*
X620988D02*
G03*
X625117Y825804I4128J0D01*
G01*
X604474Y829932D02*
G03*
X608603Y825804I4128J0D01*
G01*
X625117D02*
G03*
X629245Y829932I0J4128D01*
G01*
X750997Y836975D02*
G03*
X755125Y832846I4128J0D01*
G01*
X750997Y837372D02*
G03*
X746868Y841500I-4128J0D01*
G01*
X755125Y832846D02*
G03*
X759254Y836975I0J4128D01*
G01*
X767511D02*
G03*
X771639Y832846I4128J0D01*
G01*
X763382Y845510D02*
G03*
X759254Y841381I0J-4128D01*
G01*
X767511D02*
G03*
X763382Y845510I-4128J0D01*
G01*
X771639Y832846D02*
G03*
X775768Y836975I0J4128D01*
G01*
X784025Y837250D02*
G03*
X788153Y833121I4128J0D01*
G01*
X788153D02*
G03*
X792282Y837250I0J4128D01*
G01*
X800539Y837371D02*
G03*
X804667Y833243I4128J0D01*
G01*
X804667D02*
G03*
X808796Y837371I0J4128D01*
G01*
X796410Y845510D02*
G03*
X792282Y841381I0J-4128D01*
G01*
X779896Y845510D02*
G03*
X775768Y841381I0J-4128D01*
G01*
X784025D02*
G03*
X779896Y845510I-4128J0D01*
G01*
X812924Y841500D02*
G03*
X808796Y837372I0J-4128D01*
G01*
X800539Y841381D02*
G03*
X796410Y845510I-4128J0D01*
G01*
X652474Y794905D02*
G03*
X648346Y799033I-4128J0D01*
G01*
X652474Y793628D02*
G03*
X656603Y789500I4128J0D01*
G01*
X648346Y799033D02*
G03*
X644217Y794905I0J-4128D01*
G01*
X640089Y789500D02*
G03*
X644217Y793628I0J4128D01*
G01*
X771502Y885723D02*
G03*
X767374Y889852I-4128J0D01*
G01*
X767374D02*
G03*
X763245Y885723I0J-4128D01*
G01*
X783888Y884000D02*
G03*
X779759Y879872I0J-4128D01*
G01*
X775631Y875495D02*
G03*
X779759Y879624I0J4128D01*
G01*
X759117Y875495D02*
G03*
X763245Y879624I0J4128D01*
G01*
X771502D02*
G03*
X775631Y875495I4128J0D01*
G01*
X754988Y885723D02*
G03*
X750860Y889852I-4128J0D01*
G01*
X750860D02*
G03*
X746731Y885723I0J-4128D01*
G01*
X738474Y879872D02*
G03*
X734346Y884000I-4128J0D01*
G01*
X738474Y879624D02*
G03*
X742603Y875495I4128J0D01*
G01*
X742603D02*
G03*
X746731Y879624I0J4128D01*
G01*
X754988D02*
G03*
X759117Y875495I4128J0D01*
G01*
X851500Y896500D02*
X859000Y904000D01*
X840000Y896500D02*
X851500D01*
X687387Y903138D02*
X828090D01*
X833216Y898011D01*
X666750Y882500D02*
X687387Y903138D01*
X838488Y898011D02*
X840000Y896500D01*
X833216Y898011D02*
X838488D01*
X637517Y875250D02*
X659500D01*
X666750Y882500D01*
X633389Y870982D02*
Y871122D01*
X629260Y866853D02*
X629260D01*
X621003Y880914D02*
X621003D01*
X616875Y870982D02*
Y876786D01*
X625132Y870982D02*
Y876786D01*
X604489Y880914D02*
X604489D01*
X608618Y870982D02*
Y876786D01*
X600361Y870982D02*
Y876786D01*
X575625Y875250D02*
X578130D01*
X587975D01*
X567250Y866875D02*
X575625Y875250D01*
X592104Y870982D02*
Y871122D01*
X612746Y866853D02*
X612746D01*
X596232D02*
X596232D01*
X862311Y858000D02*
X863000D01*
X856811Y863500D02*
X862311Y858000D01*
X719000Y863500D02*
X856811D01*
X567250Y830625D02*
X586375D01*
X590500Y834750D01*
X690250D02*
X719000Y863500D01*
X666402Y834750D02*
X677457D01*
X690250D01*
X633374Y838884D02*
X633374D01*
X649888Y838879D02*
X649888D01*
X662273Y830621D02*
Y830621D01*
X658145Y826493D02*
X658145D01*
X654016Y830621D02*
Y834750D01*
X645759Y830213D02*
Y834750D01*
X637502Y830213D02*
Y834755D01*
X641631Y826084D02*
X641631D01*
X616860Y838884D02*
X616860D01*
X620988Y829932D02*
Y834755D01*
X629245Y829932D02*
Y834755D01*
X612731Y829932D02*
Y834755D01*
X590500Y834750D02*
X600346D01*
X604474Y829932D02*
Y830621D01*
X625117Y825804D02*
X625117D01*
X608603D02*
X608603D01*
X840000Y819500D02*
X840000Y819500D01*
X819750Y788750D02*
X840000Y809000D01*
Y819500D01*
X816250Y788750D02*
X819750D01*
X816000Y788500D02*
X816250Y788750D01*
X762750Y788500D02*
X816000D01*
X741500Y767250D02*
X762750Y788500D01*
X509000Y767250D02*
X741500D01*
X454750Y777250D02*
X499000D01*
X427000Y805000D02*
X454750Y777250D01*
X499000D02*
X509000Y767250D01*
X706250Y812500D02*
X735250Y841500D01*
X750997Y836975D02*
Y837372D01*
X755125Y832846D02*
X755125D01*
X735250Y841500D02*
X737022D01*
X746868D01*
X767511Y836975D02*
Y841381D01*
X759254Y836975D02*
Y841381D01*
X763382Y845510D02*
X763382D01*
X771639Y832846D02*
X771639D01*
X788153Y833121D02*
X788153D01*
X775768Y836975D02*
Y841381D01*
X792282Y837250D02*
Y841381D01*
X804667Y833243D02*
X804667D01*
X784025Y837250D02*
Y841381D01*
X796410Y845510D02*
X796410D01*
X779896D02*
X779896D01*
X800539Y837371D02*
Y841381D01*
X808796Y837371D02*
Y837372D01*
X820000Y841500D02*
X840000D01*
X812924D02*
X820000D01*
X567250Y812500D02*
X706250D01*
X747750Y813250D02*
X804250D01*
X821500Y830500D02*
X836100D01*
X804250Y813250D02*
X821500Y830500D01*
X836100D02*
X840000D01*
X724000Y789500D02*
X747750Y813250D01*
X717750Y789500D02*
X724000D01*
X652474Y793628D02*
Y794905D01*
X656603Y789500D02*
X717750D01*
X444250Y805500D02*
X457000D01*
X648346Y799033D02*
X648346D01*
X644217Y793628D02*
Y794905D01*
X457000Y805500D02*
X473000Y789500D01*
X638500D02*
X640089D01*
X473000D02*
X638500D01*
X841500Y884000D02*
X858000D01*
X840000Y885500D02*
X841500Y884000D01*
X838500Y884000D02*
X840000Y885500D01*
X767374Y889852D02*
X767374D01*
X803500Y884000D02*
X838500D01*
X783888D02*
X803500D01*
X779759Y879624D02*
Y879872D01*
X775631Y875495D02*
X775631D01*
X763245Y879624D02*
Y885723D01*
X771502Y879624D02*
Y885723D01*
X759117Y875495D02*
X759117D01*
X750860Y889852D02*
X750860D01*
X746731Y879624D02*
Y885723D01*
X754988Y879624D02*
Y885723D01*
X742603Y875495D02*
X742603D01*
X724500Y884000D02*
X734346D01*
X704750D02*
X724500D01*
X738474Y879624D02*
Y879872D01*
X673000Y852250D02*
X704750Y884000D01*
X571023Y852250D02*
X673000D01*
X567523Y848750D02*
X571023Y852250D01*
X567250Y848750D02*
X567523D01*
D117*
X466650Y652050D02*
D03*
Y677450D02*
D03*
Y702850D02*
D03*
X222600Y869000D02*
D03*
X248000D02*
D03*
X273400D02*
D03*
X488400Y746000D02*
D03*
X914600Y605000D02*
D03*
X463000Y746000D02*
D03*
X437600D02*
D03*
X595800Y734000D02*
D03*
X570400D02*
D03*
X545000D02*
D03*
X611000Y502400D02*
D03*
Y477000D02*
D03*
Y451600D02*
D03*
X940000Y605000D02*
D03*
X965400D02*
D03*
X634000Y969000D02*
D03*
X659400D02*
D03*
X608600D02*
D03*
X611000Y570000D02*
D03*
Y544600D02*
D03*
Y595400D02*
D03*
X332450Y746000D02*
D03*
X357850D02*
D03*
X383250D02*
D03*
D118*
X168000Y858500D02*
D03*
D119*
X261000Y725000D02*
D03*
X156000Y972000D02*
D03*
X95000Y971000D02*
D03*
X739000Y654000D02*
D03*
X869000Y573000D02*
D03*
D120*
X210600Y282000D02*
D03*
X236000D02*
D03*
D121*
X115100Y567510D02*
D03*
X140100Y582510D02*
D03*
X115100Y627510D02*
D03*
Y597510D02*
D03*
X140100Y552510D02*
D03*
Y522510D02*
D03*
X115100Y657510D02*
D03*
Y687510D02*
D03*
X140100Y642510D02*
D03*
X170100Y672510D02*
D03*
X115100Y537510D02*
D03*
X195100Y597510D02*
D03*
Y657510D02*
D03*
X170100Y642510D02*
D03*
Y552510D02*
D03*
X195100Y507510D02*
D03*
Y567510D02*
D03*
Y477510D02*
D03*
X170100Y462510D02*
D03*
X195100Y537510D02*
D03*
Y447510D02*
D03*
X115100Y477510D02*
D03*
X140100Y612510D02*
D03*
X170100D02*
D03*
X115100Y507510D02*
D03*
X195100Y627510D02*
D03*
X170100Y582510D02*
D03*
X140100Y672510D02*
D03*
X170100Y522510D02*
D03*
Y492510D02*
D03*
X140100D02*
D03*
Y462510D02*
D03*
X115100Y447510D02*
D03*
D122*
X269500Y786500D02*
D03*
Y831500D02*
D03*
X204500Y786500D02*
D03*
X500500Y933500D02*
D03*
Y978500D02*
D03*
X565500D02*
D03*
X521386Y256117D02*
D03*
X489566Y287936D02*
D03*
X535528Y333898D02*
D03*
D123*
X204500Y831500D02*
D03*
X565500Y933500D02*
D03*
D124*
X567348Y302078D02*
D03*
D125*
X87400Y172000D02*
D03*
X36600D02*
D03*
D126*
X50100Y375010D02*
D03*
Y760010D02*
D03*
D127*
X195100Y687510D02*
D03*
D128*
X261400Y282000D02*
D03*
D129*
X657950Y560750D02*
D03*
X835750Y485750D02*
D03*
X657950Y535750D02*
D03*
X835750Y510750D02*
D03*
X835750Y535750D02*
D03*
Y560750D02*
D03*
X657950Y460750D02*
D03*
X657950Y510750D02*
D03*
Y485750D02*
D03*
D130*
X120690Y213810D02*
D03*
D131*
X150690Y260810D02*
D03*
D132*
X121000Y810800D02*
D03*
Y931200D02*
D03*
D133*
X148000Y858500D02*
D03*
X168000Y883500D02*
D03*
X148000D02*
D03*
D134*
X961000Y433800D02*
D03*
X981230Y56040D02*
D03*
X700680Y56040D02*
D03*
D135*
X670650Y414300D02*
D03*
X823050Y414300D02*
D03*
X823050Y630200D02*
D03*
X670650D02*
D03*
X34640Y36400D02*
D03*
X965290Y347560D02*
D03*
Y963500D02*
D03*
X34640D02*
D03*
D136*
X657950Y585750D02*
D03*
D137*
X953450Y879550D02*
D03*
Y811550D02*
D03*
D138*
X91000Y257000D02*
D03*
D139*
X293843Y745014D02*
D03*
Y764497D02*
D03*
X379000Y822750D02*
D03*
X393304Y822696D02*
D03*
X188763Y233763D02*
D03*
X213763Y208763D02*
D03*
X240000Y181960D02*
D03*
X214063Y183125D02*
D03*
X313250Y627250D02*
D03*
X306555Y884370D02*
D03*
X864500Y825500D02*
D03*
X817250Y959500D02*
D03*
X778500Y944500D02*
D03*
X247000Y889000D02*
D03*
X243000Y790000D02*
D03*
Y713000D02*
D03*
X462000Y529000D02*
D03*
X633000Y719000D02*
D03*
X540000Y811000D02*
D03*
X245000Y684000D02*
D03*
X606000Y421000D02*
D03*
X564000Y410000D02*
D03*
X578000Y369000D02*
D03*
X932000Y314000D02*
D03*
X917000Y735000D02*
D03*
X879000Y743000D02*
D03*
X927000Y944000D02*
D03*
X522000Y890500D02*
D03*
X348750Y902250D02*
D03*
X224000Y930000D02*
D03*
X413000Y346000D02*
D03*
X535000Y229000D02*
D03*
X387500Y460000D02*
D03*
X360250Y414750D02*
D03*
X302000Y64000D02*
D03*
X40000Y117500D02*
D03*
Y85000D02*
D03*
X152500Y182500D02*
D03*
X186000Y317000D02*
D03*
X33000D02*
D03*
X50000D02*
D03*
X16000D02*
D03*
X32500Y425000D02*
D03*
X135000Y317000D02*
D03*
X152000D02*
D03*
X67000D02*
D03*
X118000D02*
D03*
X60000Y457500D02*
D03*
X27500Y575000D02*
D03*
X60000D02*
D03*
X238000Y317000D02*
D03*
X255000D02*
D03*
X169000D02*
D03*
X221000D02*
D03*
X306000D02*
D03*
X323000D02*
D03*
X272000D02*
D03*
X289000D02*
D03*
X255000Y352500D02*
D03*
X320000D02*
D03*
X324000Y250000D02*
D03*
X340000Y317000D02*
D03*
X364000Y276000D02*
D03*
Y259000D02*
D03*
X352000Y305000D02*
D03*
X364000Y293000D02*
D03*
X368000Y162000D02*
D03*
X424700Y169600D02*
D03*
X376000Y230000D02*
D03*
X364000Y242000D02*
D03*
X410000Y230000D02*
D03*
X422000Y218000D02*
D03*
X393000Y230000D02*
D03*
X345918Y439718D02*
D03*
X390000Y360000D02*
D03*
X399750Y470750D02*
D03*
X27500Y665000D02*
D03*
Y715000D02*
D03*
X60000Y680000D02*
D03*
X87500Y745000D02*
D03*
X157500Y717500D02*
D03*
X200000Y740000D02*
D03*
X292250Y726500D02*
D03*
X268000Y905000D02*
D03*
X285000Y846250D02*
D03*
X271750Y954250D02*
D03*
X355750Y633830D02*
D03*
X330000Y789500D02*
D03*
X382500Y630000D02*
D03*
X420000Y602500D02*
D03*
X356500Y665250D02*
D03*
X366750Y843250D02*
D03*
X394000Y920000D02*
D03*
X465000Y170000D02*
D03*
X469000Y205000D02*
D03*
X435000D02*
D03*
X452000D02*
D03*
X520000D02*
D03*
Y170000D02*
D03*
X486000Y205000D02*
D03*
X503000D02*
D03*
X497500Y320000D02*
D03*
X554000Y205000D02*
D03*
X571000D02*
D03*
X537000D02*
D03*
X588000D02*
D03*
X560500Y529750D02*
D03*
X627100Y106600D02*
D03*
X649000Y127000D02*
D03*
X605000Y205000D02*
D03*
X649000Y161000D02*
D03*
Y144000D02*
D03*
X636000Y191000D02*
D03*
X649000Y178000D02*
D03*
X661000Y47000D02*
D03*
Y81000D02*
D03*
Y64000D02*
D03*
X649000Y93000D02*
D03*
Y110000D02*
D03*
X622000Y205000D02*
D03*
X712500Y535000D02*
D03*
X797500Y510000D02*
D03*
X456500Y596000D02*
D03*
X487500Y602500D02*
D03*
X465000Y766500D02*
D03*
X457000Y897000D02*
D03*
X616750Y657000D02*
D03*
X705000Y587500D02*
D03*
X785000Y727500D02*
D03*
X822500Y735000D02*
D03*
X860000Y617500D02*
D03*
X878250Y721750D02*
D03*
X40000Y510000D02*
D03*
Y630000D02*
D03*
X160000Y150000D02*
D03*
X220000Y390000D02*
D03*
X280000D02*
D03*
X370000Y210000D02*
D03*
X340000Y270000D02*
D03*
X370000Y330000D02*
D03*
X400000Y270000D02*
D03*
X460000D02*
D03*
X520000Y750000D02*
D03*
X580000Y270000D02*
D03*
X610000Y330000D02*
D03*
X640000Y270000D02*
D03*
Y390000D02*
D03*
Y630000D02*
D03*
Y750000D02*
D03*
X670000Y930000D02*
D03*
X730000Y90000D02*
D03*
Y210000D02*
D03*
Y330000D02*
D03*
X700000Y630000D02*
D03*
Y750000D02*
D03*
X730000Y930000D02*
D03*
X790000Y90000D02*
D03*
Y210000D02*
D03*
X760000Y270000D02*
D03*
X790000Y330000D02*
D03*
X760000Y750000D02*
D03*
X820000Y30000D02*
D03*
X850000Y90000D02*
D03*
X820000Y150000D02*
D03*
Y270000D02*
D03*
X880000Y30000D02*
D03*
X910000Y90000D02*
D03*
X880000Y150000D02*
D03*
X910000Y210000D02*
D03*
X880000Y270000D02*
D03*
X940000Y30000D02*
D03*
X970000Y90000D02*
D03*
X940000Y270000D02*
D03*
X740976Y510000D02*
D03*
X741053Y389760D02*
D03*
X738274Y450000D02*
D03*
X850000D02*
D03*
X867088Y347088D02*
D03*
X796024Y570000D02*
D03*
Y450000D02*
D03*
X930250Y860000D02*
D03*
X815375Y874125D02*
D03*
X430000Y683000D02*
D03*
X515750Y722500D02*
D03*
X504000Y695750D02*
D03*
X406750Y760250D02*
D03*
X415000Y742000D02*
D03*
X733000Y957250D02*
D03*
X190000Y210000D02*
D03*
Y185000D02*
D03*
Y160000D02*
D03*
X215000D02*
D03*
X240000D02*
D03*
Y210000D02*
D03*
X276000Y61000D02*
D03*
X340500Y364750D02*
D03*
X518100Y675500D02*
D03*
X322250Y681000D02*
D03*
Y666750D02*
D03*
X518100Y661500D02*
D03*
X514584Y454416D02*
D03*
X881956Y419956D02*
D03*
X503000Y407000D02*
D03*
X859000Y905250D02*
D03*
X567250Y866875D02*
D03*
X863000Y858000D02*
D03*
X567250Y830625D02*
D03*
X427000Y805000D02*
D03*
X820000Y852000D02*
D03*
X567250Y812500D02*
D03*
X821000Y830000D02*
D03*
X444250Y805500D02*
D03*
X858000Y884000D02*
D03*
X567250Y848750D02*
D03*
X452500Y849750D02*
D03*
X410750Y440500D02*
D03*
X456750Y430250D02*
D03*
X372000Y687600D02*
D03*
X526000Y469000D02*
D03*
X387800Y535900D02*
D03*
X406700Y572000D02*
D03*
X392500Y382500D02*
D03*
X469000Y439000D02*
D03*
X397700Y546300D02*
D03*
X385700Y514300D02*
D03*
X480200Y447800D02*
D03*
X408700Y556200D02*
D03*
X702500Y680000D02*
D03*
X451082Y543918D02*
D03*
X545000Y480000D02*
D03*
X448000Y416000D02*
D03*
X376600Y526000D02*
D03*
X493000Y389000D02*
D03*
X412500Y477500D02*
D03*
X614000Y675000D02*
D03*
X457000Y877000D02*
D03*
Y917000D02*
D03*
X349000Y887000D02*
D03*
D140*
X540000Y133000D02*
D03*
D156*
X839250Y852750D02*
D03*
X839250Y874750D02*
D03*
X839250Y896750D02*
D03*
X839250Y863750D02*
D03*
Y907750D02*
D03*
Y885750D02*
D03*
Y830750D02*
D03*
Y841750D02*
D03*
Y819750D02*
D03*
D157*
X178000Y404450D02*
D03*
X187500Y425550D02*
D03*
X168500Y425550D02*
D03*
D158*
X323582Y426818D02*
D03*
X434918Y560082D02*
D03*
X528153Y299554D02*
D03*
X451082Y543918D02*
D03*
X544317Y283390D02*
D03*
X307418Y442982D02*
D03*
D159*
X949250Y921550D02*
D03*
Y760050D02*
D03*
X859250Y921550D02*
D03*
Y760050D02*
D03*
D160*
X373975Y571075D02*
D03*
X306800Y503900D02*
D03*
D161*
X379011Y678524D02*
X390753Y666782D01*
X461879D01*
X385288Y666500D02*
X389070Y662718D01*
X461879D01*
X470733D02*
X475718D01*
X479000Y666000D01*
X469274Y661259D02*
X470733Y662718D01*
X469274Y654675D02*
Y661259D01*
X466650Y652050D02*
X469274Y654675D01*
Y668241D02*
Y674826D01*
X466650Y677450D02*
X469274Y674826D01*
X470733Y666782D02*
X474035D01*
X478253Y671000D01*
X469274Y668241D02*
X470733Y666782D01*
X464026Y654675D02*
X466650Y652050D01*
X464026Y654675D02*
Y660572D01*
X461879Y662718D02*
X464026Y660572D01*
X461879Y666782D02*
X464026Y668928D01*
Y674826D02*
X466650Y677450D01*
X464026Y668928D02*
Y674826D01*
D162*
X322522Y413414D02*
Y425757D01*
X323582Y426818D01*
X324643Y427878D02*
X334078D01*
X345918Y439718D01*
X345918D01*
X429582Y386707D02*
Y386832D01*
X476082Y340082D02*
X477418D01*
X497500Y320000D01*
X528153Y299554D02*
X532395D01*
X528153D02*
X539000Y310401D01*
X532395Y299554D02*
X539841Y307000D01*
X539000Y310401D02*
Y328537D01*
X535528Y332010D02*
Y333898D01*
Y332010D02*
X539000Y328537D01*
X557491Y307000D02*
X562412Y302078D01*
X567348D01*
X539841Y307000D02*
X557491D01*
X429582Y386707D02*
X455082Y361207D01*
Y361082D02*
Y361207D01*
Y361082D02*
X476082Y340082D01*
X340478Y364772D02*
Y395457D01*
X322522Y413414D02*
X340478Y395457D01*
Y364772D02*
X340500Y364750D01*
D163*
X820000Y852000D02*
X830500Y841500D01*
M02*
