G04*
G04 #@! TF.GenerationSoftware,Altium Limited,Altium Designer,25.7.1 (20)*
G04*
G04 Layer_Color=16711935*
%FSLAX44Y44*%
%MOMM*%
G71*
G04*
G04 #@! TF.SameCoordinates,E610F868-73EF-4846-AD65-6CABB719E0C8*
G04*
G04*
G04 #@! TF.FilePolarity,Negative*
G04*
G01*
G75*
G04:AMPARAMS|DCode=50|XSize=1.1mm|YSize=1.8mm|CornerRadius=0.175mm|HoleSize=0mm|Usage=FLASHONLY|Rotation=270.000|XOffset=0mm|YOffset=0mm|HoleType=Round|Shape=RoundedRectangle|*
%AMROUNDEDRECTD50*
21,1,1.1000,1.4500,0,0,270.0*
21,1,0.7500,1.8000,0,0,270.0*
1,1,0.3500,-0.7250,-0.3750*
1,1,0.3500,-0.7250,0.3750*
1,1,0.3500,0.7250,0.3750*
1,1,0.3500,0.7250,-0.3750*
%
%ADD50ROUNDEDRECTD50*%
G04:AMPARAMS|DCode=53|XSize=1.5mm|YSize=1.8mm|CornerRadius=0.225mm|HoleSize=0mm|Usage=FLASHONLY|Rotation=180.000|XOffset=0mm|YOffset=0mm|HoleType=Round|Shape=RoundedRectangle|*
%AMROUNDEDRECTD53*
21,1,1.5000,1.3500,0,0,180.0*
21,1,1.0500,1.8000,0,0,180.0*
1,1,0.4500,-0.5250,0.6750*
1,1,0.4500,0.5250,0.6750*
1,1,0.4500,0.5250,-0.6750*
1,1,0.4500,-0.5250,-0.6750*
%
%ADD53ROUNDEDRECTD53*%
G04:AMPARAMS|DCode=54|XSize=1.1mm|YSize=1.8mm|CornerRadius=0.175mm|HoleSize=0mm|Usage=FLASHONLY|Rotation=180.000|XOffset=0mm|YOffset=0mm|HoleType=Round|Shape=RoundedRectangle|*
%AMROUNDEDRECTD54*
21,1,1.1000,1.4500,0,0,180.0*
21,1,0.7500,1.8000,0,0,180.0*
1,1,0.3500,-0.3750,0.7250*
1,1,0.3500,0.3750,0.7250*
1,1,0.3500,0.3750,-0.7250*
1,1,0.3500,-0.3750,-0.7250*
%
%ADD54ROUNDEDRECTD54*%
G04:AMPARAMS|DCode=62|XSize=1.5mm|YSize=1.8mm|CornerRadius=0.225mm|HoleSize=0mm|Usage=FLASHONLY|Rotation=270.000|XOffset=0mm|YOffset=0mm|HoleType=Round|Shape=RoundedRectangle|*
%AMROUNDEDRECTD62*
21,1,1.5000,1.3500,0,0,270.0*
21,1,1.0500,1.8000,0,0,270.0*
1,1,0.4500,-0.6750,-0.5250*
1,1,0.4500,-0.6750,0.5250*
1,1,0.4500,0.6750,0.5250*
1,1,0.4500,0.6750,-0.5250*
%
%ADD62ROUNDEDRECTD62*%
G04:AMPARAMS|DCode=63|XSize=1.5mm|YSize=1.8mm|CornerRadius=0.225mm|HoleSize=0mm|Usage=FLASHONLY|Rotation=225.000|XOffset=0mm|YOffset=0mm|HoleType=Round|Shape=RoundedRectangle|*
%AMROUNDEDRECTD63*
21,1,1.5000,1.3500,0,0,225.0*
21,1,1.0500,1.8000,0,0,225.0*
1,1,0.4500,-0.8485,0.1061*
1,1,0.4500,-0.1061,0.8485*
1,1,0.4500,0.8485,-0.1061*
1,1,0.4500,0.1061,-0.8485*
%
%ADD63ROUNDEDRECTD63*%
%ADD68R,0.7000X0.7000*%
G04:AMPARAMS|DCode=71|XSize=1.1mm|YSize=1.8mm|CornerRadius=0.175mm|HoleSize=0mm|Usage=FLASHONLY|Rotation=225.000|XOffset=0mm|YOffset=0mm|HoleType=Round|Shape=RoundedRectangle|*
%AMROUNDEDRECTD71*
21,1,1.1000,1.4500,0,0,225.0*
21,1,0.7500,1.8000,0,0,225.0*
1,1,0.3500,-0.7778,0.2475*
1,1,0.3500,-0.2475,0.7778*
1,1,0.3500,0.7778,-0.2475*
1,1,0.3500,0.2475,-0.7778*
%
%ADD71ROUNDEDRECTD71*%
%ADD73C,1.6748*%
%ADD74R,1.5080X1.5080*%
%ADD75C,1.9000*%
%ADD76C,1.3180*%
%ADD77C,2.0500*%
%ADD78C,1.5980*%
%ADD79R,1.5980X1.5980*%
%ADD80P,2.2599X4X270.0*%
%ADD81C,1.4500*%
%ADD82C,3.4000*%
%ADD83R,2.0500X2.0500*%
%ADD84R,1.3180X1.3180*%
%ADD85C,1.4700*%
%ADD86O,2.6400X1.3000*%
%ADD87O,4.6000X2.3500*%
%ADD88O,2.6000X5.1000*%
%ADD89C,3.4160*%
%ADD90C,1.5080*%
%ADD91C,1.5500*%
%ADD92R,1.4700X1.4700*%
%ADD93C,4.1000*%
%ADD94R,2.6400X1.3000*%
%ADD95C,1.0500*%
%ADD96O,2.3500X4.6000*%
%ADD97C,0.8000*%
%ADD98C,1.3700*%
%ADD164R,1.5000X0.7200*%
%ADD165R,0.6900X1.3400*%
G04:AMPARAMS|DCode=166|XSize=1.5mm|YSize=1.8mm|CornerRadius=0.225mm|HoleSize=0mm|Usage=FLASHONLY|Rotation=315.000|XOffset=0mm|YOffset=0mm|HoleType=Round|Shape=RoundedRectangle|*
%AMROUNDEDRECTD166*
21,1,1.5000,1.3500,0,0,315.0*
21,1,1.0500,1.8000,0,0,315.0*
1,1,0.4500,-0.1061,-0.8485*
1,1,0.4500,-0.8485,-0.1061*
1,1,0.4500,0.1061,0.8485*
1,1,0.4500,0.8485,0.1061*
%
%ADD166ROUNDEDRECTD166*%
%ADD167R,2.5000X1.2000*%
G04:AMPARAMS|DCode=168|XSize=5.6mm|YSize=2.1mm|CornerRadius=0mm|HoleSize=0mm|Usage=FLASHONLY|Rotation=45.000|XOffset=0mm|YOffset=0mm|HoleType=Round|Shape=Rectangle|*
%AMROTATEDRECTD168*
4,1,4,-1.2374,-2.7224,-2.7224,-1.2374,1.2374,2.7224,2.7224,1.2374,-1.2374,-2.7224,0.0*
%
%ADD168ROTATEDRECTD168*%

D50*
X816250Y769750D02*
D03*
Y788750D02*
D03*
D53*
X247570Y908000D02*
D03*
X329650Y901240D02*
D03*
X223430Y908000D02*
D03*
X329180Y867500D02*
D03*
X200570Y908000D02*
D03*
X270430D02*
D03*
X332070Y714100D02*
D03*
X306790Y901240D02*
D03*
X306320Y867500D02*
D03*
X354930Y714100D02*
D03*
D54*
X910000Y944000D02*
D03*
X891000D02*
D03*
D62*
X300250Y640440D02*
D03*
Y707660D02*
D03*
X369000Y862570D02*
D03*
X542500Y634070D02*
D03*
X568600Y647170D02*
D03*
X594500Y647270D02*
D03*
X436000Y889570D02*
D03*
X542500Y702930D02*
D03*
X300250Y684800D02*
D03*
X542500Y680070D02*
D03*
X300250Y663300D02*
D03*
X542500Y656930D02*
D03*
X436000Y912430D02*
D03*
X594500Y670130D02*
D03*
X568600Y670030D02*
D03*
X369000Y885430D02*
D03*
D63*
X362082Y455882D02*
D03*
X459918Y323918D02*
D03*
X355582Y412682D02*
D03*
X438918Y344918D02*
D03*
X339418Y396518D02*
D03*
X345918Y439718D02*
D03*
X429582Y386832D02*
D03*
X476082Y340082D02*
D03*
X455082Y361082D02*
D03*
X413418Y370668D02*
D03*
D68*
X168000Y842000D02*
D03*
Y820000D02*
D03*
X148500Y921500D02*
D03*
X168250Y921750D02*
D03*
Y899750D02*
D03*
X148500Y899500D02*
D03*
D71*
X549282Y247283D02*
D03*
X338317Y469217D02*
D03*
X562718Y260718D02*
D03*
X324883Y455783D02*
D03*
D73*
X466650Y652050D02*
D03*
Y677450D02*
D03*
Y702850D02*
D03*
X222600Y869000D02*
D03*
X248000D02*
D03*
X273400D02*
D03*
X488400Y746000D02*
D03*
X914600Y605000D02*
D03*
X463000Y746000D02*
D03*
X437600D02*
D03*
X595800Y734000D02*
D03*
X570400D02*
D03*
X545000D02*
D03*
X611000Y502400D02*
D03*
Y477000D02*
D03*
Y451600D02*
D03*
X940000Y605000D02*
D03*
X965400D02*
D03*
X634000Y969000D02*
D03*
X659400D02*
D03*
X608600D02*
D03*
X611000Y570000D02*
D03*
Y544600D02*
D03*
Y595400D02*
D03*
X332450Y746000D02*
D03*
X357850D02*
D03*
X383250D02*
D03*
D74*
X168000Y858500D02*
D03*
D75*
X261000Y725000D02*
D03*
X156000Y972000D02*
D03*
X95000Y971000D02*
D03*
X739000Y654000D02*
D03*
X869000Y573000D02*
D03*
D76*
X210600Y282000D02*
D03*
X236000D02*
D03*
D77*
X115100Y567510D02*
D03*
X140100Y582510D02*
D03*
X115100Y627510D02*
D03*
Y597510D02*
D03*
X140100Y552510D02*
D03*
Y522510D02*
D03*
X115100Y657510D02*
D03*
Y687510D02*
D03*
X140100Y642510D02*
D03*
X170100Y672510D02*
D03*
X115100Y537510D02*
D03*
X195100Y597510D02*
D03*
Y657510D02*
D03*
X170100Y642510D02*
D03*
Y552510D02*
D03*
X195100Y507510D02*
D03*
Y567510D02*
D03*
Y477510D02*
D03*
X170100Y462510D02*
D03*
X195100Y537510D02*
D03*
Y447510D02*
D03*
X115100Y477510D02*
D03*
X140100Y612510D02*
D03*
X170100D02*
D03*
X115100Y507510D02*
D03*
X195100Y627510D02*
D03*
X170100Y582510D02*
D03*
X140100Y672510D02*
D03*
X170100Y522510D02*
D03*
Y492510D02*
D03*
X140100D02*
D03*
Y462510D02*
D03*
X115100Y447510D02*
D03*
D78*
X269500Y786500D02*
D03*
Y831500D02*
D03*
X204500Y786500D02*
D03*
X500500Y933500D02*
D03*
Y978500D02*
D03*
X565500D02*
D03*
X521386Y256117D02*
D03*
X489566Y287936D02*
D03*
X535528Y333898D02*
D03*
D79*
X204500Y831500D02*
D03*
X565500Y933500D02*
D03*
D80*
X567348Y302078D02*
D03*
D81*
X87400Y172000D02*
D03*
X36600D02*
D03*
D82*
X50100Y375010D02*
D03*
Y760010D02*
D03*
D83*
X195100Y687510D02*
D03*
D84*
X261400Y282000D02*
D03*
D85*
X981230Y157640D02*
D03*
X700680Y132240D02*
D03*
X700680Y157640D02*
D03*
X981230Y208440D02*
D03*
X935600Y484600D02*
D03*
X961000D02*
D03*
Y459200D02*
D03*
X935600D02*
D03*
Y433800D02*
D03*
Y510000D02*
D03*
X961000Y510000D02*
D03*
X961000Y535400D02*
D03*
X935600Y535400D02*
D03*
X700680Y81440D02*
D03*
Y106840D02*
D03*
X981230Y310040D02*
D03*
Y284640D02*
D03*
Y259240D02*
D03*
Y233840D02*
D03*
Y183040D02*
D03*
Y132240D02*
D03*
Y81440D02*
D03*
Y106840D02*
D03*
X700680Y310040D02*
D03*
Y284640D02*
D03*
Y259240D02*
D03*
Y233840D02*
D03*
Y208440D02*
D03*
Y183040D02*
D03*
D86*
X657950Y560750D02*
D03*
X835750Y485750D02*
D03*
X657950Y535750D02*
D03*
X835750Y510750D02*
D03*
X835750Y535750D02*
D03*
Y560750D02*
D03*
X657950Y460750D02*
D03*
X657950Y510750D02*
D03*
Y485750D02*
D03*
D87*
X120690Y213810D02*
D03*
D88*
X150690Y260810D02*
D03*
D89*
X121000Y810800D02*
D03*
Y931200D02*
D03*
D90*
X148000Y858500D02*
D03*
X168000Y883500D02*
D03*
X148000D02*
D03*
D91*
X702500Y933250D02*
D03*
Y728250D02*
D03*
D92*
X961000Y433800D02*
D03*
X981230Y56040D02*
D03*
X700680Y56040D02*
D03*
D93*
X670650Y414300D02*
D03*
X823050Y414300D02*
D03*
X823050Y630200D02*
D03*
X670650D02*
D03*
X34640Y36400D02*
D03*
X965290Y347560D02*
D03*
Y963500D02*
D03*
X34640D02*
D03*
D94*
X657950Y585750D02*
D03*
D95*
X953450Y879550D02*
D03*
Y811550D02*
D03*
D96*
X91000Y257000D02*
D03*
D97*
X293843Y745014D02*
D03*
Y764497D02*
D03*
X379000Y822750D02*
D03*
X393304Y822696D02*
D03*
X188763Y233763D02*
D03*
X213763Y208763D02*
D03*
X240000Y181960D02*
D03*
X214063Y183125D02*
D03*
X313250Y627250D02*
D03*
X306555Y884370D02*
D03*
X864500Y825500D02*
D03*
X817250Y959500D02*
D03*
X778500Y944500D02*
D03*
X247000Y889000D02*
D03*
X243000Y790000D02*
D03*
Y713000D02*
D03*
X462000Y529000D02*
D03*
X633000Y719000D02*
D03*
X540000Y811000D02*
D03*
X245000Y684000D02*
D03*
X606000Y421000D02*
D03*
X564000Y410000D02*
D03*
X578000Y369000D02*
D03*
X932000Y314000D02*
D03*
X917000Y735000D02*
D03*
X879000Y743000D02*
D03*
X927000Y944000D02*
D03*
X522000Y890500D02*
D03*
X348750Y902250D02*
D03*
X224000Y930000D02*
D03*
X413000Y346000D02*
D03*
X535000Y229000D02*
D03*
X387500Y460000D02*
D03*
X360250Y414750D02*
D03*
X302000Y64000D02*
D03*
X40000Y117500D02*
D03*
Y85000D02*
D03*
X152500Y182500D02*
D03*
X186000Y317000D02*
D03*
X33000D02*
D03*
X50000D02*
D03*
X16000D02*
D03*
X32500Y425000D02*
D03*
X135000Y317000D02*
D03*
X152000D02*
D03*
X67000D02*
D03*
X118000D02*
D03*
X60000Y457500D02*
D03*
X27500Y575000D02*
D03*
X60000D02*
D03*
X238000Y317000D02*
D03*
X255000D02*
D03*
X169000D02*
D03*
X221000D02*
D03*
X306000D02*
D03*
X323000D02*
D03*
X272000D02*
D03*
X289000D02*
D03*
X255000Y352500D02*
D03*
X320000D02*
D03*
X324000Y250000D02*
D03*
X340000Y317000D02*
D03*
X364000Y276000D02*
D03*
Y259000D02*
D03*
X352000Y305000D02*
D03*
X364000Y293000D02*
D03*
X368000Y162000D02*
D03*
X424700Y169600D02*
D03*
X376000Y230000D02*
D03*
X364000Y242000D02*
D03*
X410000Y230000D02*
D03*
X422000Y218000D02*
D03*
X393000Y230000D02*
D03*
X345918Y439718D02*
D03*
X390000Y360000D02*
D03*
X399750Y470750D02*
D03*
X27500Y665000D02*
D03*
Y715000D02*
D03*
X60000Y680000D02*
D03*
X87500Y745000D02*
D03*
X157500Y717500D02*
D03*
X200000Y740000D02*
D03*
X292250Y726500D02*
D03*
X268000Y905000D02*
D03*
X285000Y846250D02*
D03*
X271750Y954250D02*
D03*
X355750Y633830D02*
D03*
X330000Y789500D02*
D03*
X382500Y630000D02*
D03*
X420000Y602500D02*
D03*
X356500Y665250D02*
D03*
X366750Y843250D02*
D03*
X394000Y920000D02*
D03*
X465000Y170000D02*
D03*
X469000Y205000D02*
D03*
X435000D02*
D03*
X452000D02*
D03*
X520000D02*
D03*
Y170000D02*
D03*
X486000Y205000D02*
D03*
X503000D02*
D03*
X497500Y320000D02*
D03*
X554000Y205000D02*
D03*
X571000D02*
D03*
X537000D02*
D03*
X588000D02*
D03*
X560500Y529750D02*
D03*
X627100Y106600D02*
D03*
X649000Y127000D02*
D03*
X605000Y205000D02*
D03*
X649000Y161000D02*
D03*
Y144000D02*
D03*
X636000Y191000D02*
D03*
X649000Y178000D02*
D03*
X661000Y47000D02*
D03*
Y81000D02*
D03*
Y64000D02*
D03*
X649000Y93000D02*
D03*
Y110000D02*
D03*
X622000Y205000D02*
D03*
X712500Y535000D02*
D03*
X797500Y510000D02*
D03*
X456500Y596000D02*
D03*
X487500Y602500D02*
D03*
X465000Y766500D02*
D03*
X457000Y897000D02*
D03*
X616750Y657000D02*
D03*
X705000Y587500D02*
D03*
X785000Y727500D02*
D03*
X822500Y735000D02*
D03*
X860000Y617500D02*
D03*
X878250Y721750D02*
D03*
X40000Y510000D02*
D03*
Y630000D02*
D03*
X160000Y150000D02*
D03*
X220000Y390000D02*
D03*
X280000D02*
D03*
X370000Y210000D02*
D03*
X340000Y270000D02*
D03*
X370000Y330000D02*
D03*
X400000Y270000D02*
D03*
X460000D02*
D03*
X520000Y750000D02*
D03*
X580000Y270000D02*
D03*
X610000Y330000D02*
D03*
X640000Y270000D02*
D03*
Y390000D02*
D03*
Y630000D02*
D03*
Y750000D02*
D03*
X670000Y930000D02*
D03*
X730000Y90000D02*
D03*
Y210000D02*
D03*
Y330000D02*
D03*
X700000Y630000D02*
D03*
Y750000D02*
D03*
X730000Y930000D02*
D03*
X790000Y90000D02*
D03*
Y210000D02*
D03*
X760000Y270000D02*
D03*
X790000Y330000D02*
D03*
X760000Y750000D02*
D03*
X820000Y30000D02*
D03*
X850000Y90000D02*
D03*
X820000Y150000D02*
D03*
Y270000D02*
D03*
X880000Y30000D02*
D03*
X910000Y90000D02*
D03*
X880000Y150000D02*
D03*
X910000Y210000D02*
D03*
X880000Y270000D02*
D03*
X940000Y30000D02*
D03*
X970000Y90000D02*
D03*
X940000Y270000D02*
D03*
X740976Y510000D02*
D03*
X741053Y389760D02*
D03*
X738274Y450000D02*
D03*
X850000D02*
D03*
X867088Y347088D02*
D03*
X796024Y570000D02*
D03*
Y450000D02*
D03*
X930250Y860000D02*
D03*
X815375Y874125D02*
D03*
X430000Y683000D02*
D03*
X515750Y722500D02*
D03*
X504000Y695750D02*
D03*
X406750Y760250D02*
D03*
X415000Y742000D02*
D03*
X733000Y957250D02*
D03*
X190000Y210000D02*
D03*
Y185000D02*
D03*
Y160000D02*
D03*
X215000D02*
D03*
X240000D02*
D03*
Y210000D02*
D03*
X276000Y61000D02*
D03*
X340500Y364750D02*
D03*
X518100Y675500D02*
D03*
X322250Y681000D02*
D03*
Y666750D02*
D03*
X518100Y661500D02*
D03*
X514584Y454416D02*
D03*
X881956Y419956D02*
D03*
X503000Y407000D02*
D03*
X859000Y905250D02*
D03*
X567250Y866875D02*
D03*
X863000Y858000D02*
D03*
X567250Y830625D02*
D03*
X427000Y805000D02*
D03*
X820000Y852000D02*
D03*
X567250Y812500D02*
D03*
X821000Y830000D02*
D03*
X444250Y805500D02*
D03*
X858000Y884000D02*
D03*
X567250Y848750D02*
D03*
X452500Y849750D02*
D03*
X410750Y440500D02*
D03*
X456750Y430250D02*
D03*
X372000Y687600D02*
D03*
X526000Y469000D02*
D03*
X387800Y535900D02*
D03*
X406700Y572000D02*
D03*
X392500Y382500D02*
D03*
X469000Y439000D02*
D03*
X397700Y546300D02*
D03*
X385700Y514300D02*
D03*
X480200Y447800D02*
D03*
X408700Y556200D02*
D03*
X702500Y680000D02*
D03*
X451082Y543918D02*
D03*
X545000Y480000D02*
D03*
X448000Y416000D02*
D03*
X376600Y526000D02*
D03*
X493000Y389000D02*
D03*
X412500Y477500D02*
D03*
X614000Y675000D02*
D03*
X457000Y877000D02*
D03*
Y917000D02*
D03*
X349000Y887000D02*
D03*
D98*
X540000Y133000D02*
D03*
D164*
X839250Y852750D02*
D03*
X839250Y874750D02*
D03*
X839250Y896750D02*
D03*
X839250Y863750D02*
D03*
Y907750D02*
D03*
Y885750D02*
D03*
Y830750D02*
D03*
Y841750D02*
D03*
Y819750D02*
D03*
D165*
X178000Y404450D02*
D03*
X187500Y425550D02*
D03*
X168500Y425550D02*
D03*
D166*
X323582Y426818D02*
D03*
X434918Y560082D02*
D03*
X528153Y299554D02*
D03*
X451082Y543918D02*
D03*
X544317Y283390D02*
D03*
X307418Y442982D02*
D03*
D167*
X949250Y921550D02*
D03*
Y760050D02*
D03*
X859250Y921550D02*
D03*
Y760050D02*
D03*
D168*
X373975Y571075D02*
D03*
X306800Y503900D02*
D03*
M02*
