G04*
G04 #@! TF.GenerationSoftware,Altium Limited,Altium Designer,25.7.1 (20)*
G04*
G04 Layer_Color=2752767*
%FSLAX44Y44*%
%MOMM*%
G71*
G04*
G04 #@! TF.SameCoordinates,E610F868-73EF-4846-AD65-6CABB719E0C8*
G04*
G04*
G04 #@! TF.FilePolarity,Positive*
G04*
G01*
G75*
%ADD13C,0.1270*%
%ADD174C,0.1693*%
%ADD175C,0.1016*%
D13*
X168000Y853420D02*
X170540Y855960D01*
X173080D01*
X170540Y858500D01*
X173080Y861040D01*
X170540D01*
X168000Y863580D01*
X165460Y861040D01*
X162920D01*
X165460Y858500D01*
X162920Y855960D01*
X165460D01*
X168000Y853420D01*
X261000Y737696D02*
Y725000D01*
X267348D01*
X269464Y727116D01*
Y729232D01*
X267348Y731348D01*
X261000D01*
X267348D01*
X269464Y733464D01*
Y735580D01*
X267348Y737696D01*
X261000D01*
X210600Y276920D02*
X205520Y287080D01*
X215680D01*
X210600Y276920D01*
Y278952D02*
X207552Y285048D01*
X213648D01*
X210600Y278952D01*
X110020Y562430D02*
X112560D01*
X115100Y564970D01*
X117640Y562430D01*
X120180D01*
Y564970D01*
X117640Y567510D01*
X120180Y570050D01*
Y572590D01*
X117640D01*
X115100Y570050D01*
X112560Y572590D01*
X110020D01*
Y570050D01*
X112560Y567510D01*
X110020Y564970D01*
Y562430D01*
X135020Y577430D02*
X137560D01*
X140100Y579970D01*
X142640Y577430D01*
X145180D01*
Y579970D01*
X142640Y582510D01*
X145180Y585050D01*
Y587590D01*
X142640D01*
X140100Y585050D01*
X137560Y587590D01*
X135020D01*
Y585050D01*
X137560Y582510D01*
X135020Y579970D01*
Y577430D01*
X110020Y622430D02*
X112560D01*
X115100Y624970D01*
X117640Y622430D01*
X120180D01*
Y624970D01*
X117640Y627510D01*
X120180Y630050D01*
Y632590D01*
X117640D01*
X115100Y630050D01*
X112560Y632590D01*
X110020D01*
Y630050D01*
X112560Y627510D01*
X110020Y624970D01*
Y622430D01*
Y592430D02*
X112560D01*
X115100Y594970D01*
X117640Y592430D01*
X120180D01*
Y594970D01*
X117640Y597510D01*
X120180Y600050D01*
Y602590D01*
X117640D01*
X115100Y600050D01*
X112560Y602590D01*
X110020D01*
Y600050D01*
X112560Y597510D01*
X110020Y594970D01*
Y592430D01*
X135020Y547430D02*
X137560D01*
X140100Y549970D01*
X142640Y547430D01*
X145180D01*
Y549970D01*
X142640Y552510D01*
X145180Y555050D01*
Y557590D01*
X142640D01*
X140100Y555050D01*
X137560Y557590D01*
X135020D01*
Y555050D01*
X137560Y552510D01*
X135020Y549970D01*
Y547430D01*
Y517430D02*
X137560D01*
X140100Y519970D01*
X142640Y517430D01*
X145180D01*
Y519970D01*
X142640Y522510D01*
X145180Y525050D01*
Y527590D01*
X142640D01*
X140100Y525050D01*
X137560Y527590D01*
X135020D01*
Y525050D01*
X137560Y522510D01*
X135020Y519970D01*
Y517430D01*
X156000Y984696D02*
Y972000D01*
X162348D01*
X164464Y974116D01*
Y976232D01*
X162348Y978348D01*
X156000D01*
X162348D01*
X164464Y980464D01*
Y982580D01*
X162348Y984696D01*
X156000D01*
X95000Y983696D02*
Y971000D01*
X101348D01*
X103464Y973116D01*
Y975232D01*
X101348Y977348D01*
X95000D01*
X101348D01*
X103464Y979464D01*
Y981580D01*
X101348Y983696D01*
X95000D01*
X739000Y666696D02*
Y654000D01*
X745348D01*
X747464Y656116D01*
Y658232D01*
X745348Y660348D01*
X739000D01*
X745348D01*
X747464Y662464D01*
Y664580D01*
X745348Y666696D01*
X739000D01*
X869000Y585696D02*
Y573000D01*
X875348D01*
X877464Y575116D01*
Y577232D01*
X875348Y579348D01*
X869000D01*
X875348D01*
X877464Y581464D01*
Y583580D01*
X875348Y585696D01*
X869000D01*
X264420Y781420D02*
X266960Y786500D01*
X264420Y791580D01*
X269500Y789040D01*
X274580Y791580D01*
X272040Y786500D01*
X274580Y781420D01*
X269500Y783960D01*
X264420Y781420D01*
Y826420D02*
X266960Y831500D01*
X264420Y836580D01*
X269500Y834040D01*
X274580Y836580D01*
X272040Y831500D01*
X274580Y826420D01*
X269500Y828960D01*
X264420Y826420D01*
X199420Y781420D02*
X201960Y786500D01*
X199420Y791580D01*
X204500Y789040D01*
X209580Y791580D01*
X207040Y786500D01*
X209580Y781420D01*
X204500Y783960D01*
X199420Y781420D01*
Y826420D02*
X201960Y831500D01*
X199420Y836580D01*
X204500Y834040D01*
X209580Y836580D01*
X207040Y831500D01*
X209580Y826420D01*
X204500Y828960D01*
X199420Y826420D01*
X495420Y928420D02*
X497960Y933500D01*
X495420Y938580D01*
X500500Y936040D01*
X505580Y938580D01*
X503040Y933500D01*
X505580Y928420D01*
X500500Y930960D01*
X495420Y928420D01*
Y973420D02*
X497960Y978500D01*
X495420Y983580D01*
X500500Y981040D01*
X505580Y983580D01*
X503040Y978500D01*
X505580Y973420D01*
X500500Y975960D01*
X495420Y973420D01*
X560420D02*
X562960Y978500D01*
X560420Y983580D01*
X565500Y981040D01*
X570580Y983580D01*
X568040Y978500D01*
X570580Y973420D01*
X565500Y975960D01*
X560420Y973420D01*
Y928420D02*
X562960Y933500D01*
X560420Y938580D01*
X565500Y936040D01*
X570580Y938580D01*
X568040Y933500D01*
X570580Y928420D01*
X565500Y930960D01*
X560420Y928420D01*
X516306Y251036D02*
X518846Y256117D01*
X516306Y261196D01*
X521386Y258657D01*
X526466Y261196D01*
X523926Y256117D01*
X526466Y251036D01*
X521386Y253577D01*
X516306Y251036D01*
X484486Y282856D02*
X487026Y287936D01*
X484486Y293016D01*
X489566Y290476D01*
X494646Y293016D01*
X492106Y287936D01*
X494646Y282856D01*
X489566Y285396D01*
X484486Y282856D01*
X562268Y296999D02*
X564808Y302078D01*
X562268Y307159D01*
X567348Y304618D01*
X572428Y307159D01*
X569888Y302078D01*
X572428Y296999D01*
X567348Y299538D01*
X562268Y296999D01*
X530448Y328818D02*
X532988Y333898D01*
X530448Y338978D01*
X535528Y336438D01*
X540608Y338978D01*
X538068Y333898D01*
X540608Y328818D01*
X535528Y331358D01*
X530448Y328818D01*
X87400Y166920D02*
X89940Y169460D01*
X92480D01*
X89940Y172000D01*
X92480Y174540D01*
X89940D01*
X87400Y177080D01*
X84860Y174540D01*
X82320D01*
X84860Y172000D01*
X82320Y169460D01*
X84860D01*
X87400Y166920D01*
X36600D02*
X39140Y169460D01*
X41680D01*
X39140Y172000D01*
X41680Y174540D01*
X39140D01*
X36600Y177080D01*
X34060Y174540D01*
X31520D01*
X34060Y172000D01*
X31520Y169460D01*
X34060D01*
X36600Y166920D01*
X45020Y375010D02*
X50100Y380090D01*
X55180Y375010D01*
X50100Y369930D01*
X45020Y375010D01*
Y760010D02*
X50100Y765090D01*
X55180Y760010D01*
X50100Y754930D01*
X45020Y760010D01*
X110020Y652430D02*
X112560D01*
X115100Y654970D01*
X117640Y652430D01*
X120180D01*
Y654970D01*
X117640Y657510D01*
X120180Y660050D01*
Y662590D01*
X117640D01*
X115100Y660050D01*
X112560Y662590D01*
X110020D01*
Y660050D01*
X112560Y657510D01*
X110020Y654970D01*
Y652430D01*
Y682430D02*
X112560D01*
X115100Y684970D01*
X117640Y682430D01*
X120180D01*
Y684970D01*
X117640Y687510D01*
X120180Y690050D01*
Y692590D01*
X117640D01*
X115100Y690050D01*
X112560Y692590D01*
X110020D01*
Y690050D01*
X112560Y687510D01*
X110020Y684970D01*
Y682430D01*
X135020Y637430D02*
X137560D01*
X140100Y639970D01*
X142640Y637430D01*
X145180D01*
Y639970D01*
X142640Y642510D01*
X145180Y645050D01*
Y647590D01*
X142640D01*
X140100Y645050D01*
X137560Y647590D01*
X135020D01*
Y645050D01*
X137560Y642510D01*
X135020Y639970D01*
Y637430D01*
X165020Y667430D02*
X167560D01*
X170100Y669970D01*
X172640Y667430D01*
X175180D01*
Y669970D01*
X172640Y672510D01*
X175180Y675050D01*
Y677590D01*
X172640D01*
X170100Y675050D01*
X167560Y677590D01*
X165020D01*
Y675050D01*
X167560Y672510D01*
X165020Y669970D01*
Y667430D01*
X110020Y532430D02*
X112560D01*
X115100Y534970D01*
X117640Y532430D01*
X120180D01*
Y534970D01*
X117640Y537510D01*
X120180Y540050D01*
Y542590D01*
X117640D01*
X115100Y540050D01*
X112560Y542590D01*
X110020D01*
Y540050D01*
X112560Y537510D01*
X110020Y534970D01*
Y532430D01*
X190020Y592430D02*
X192560D01*
X195100Y594970D01*
X197640Y592430D01*
X200180D01*
Y594970D01*
X197640Y597510D01*
X200180Y600050D01*
Y602590D01*
X197640D01*
X195100Y600050D01*
X192560Y602590D01*
X190020D01*
Y600050D01*
X192560Y597510D01*
X190020Y594970D01*
Y592430D01*
Y652430D02*
X192560D01*
X195100Y654970D01*
X197640Y652430D01*
X200180D01*
Y654970D01*
X197640Y657510D01*
X200180Y660050D01*
Y662590D01*
X197640D01*
X195100Y660050D01*
X192560Y662590D01*
X190020D01*
Y660050D01*
X192560Y657510D01*
X190020Y654970D01*
Y652430D01*
Y682430D02*
X192560D01*
X195100Y684970D01*
X197640Y682430D01*
X200180D01*
Y684970D01*
X197640Y687510D01*
X200180Y690050D01*
Y692590D01*
X197640D01*
X195100Y690050D01*
X192560Y692590D01*
X190020D01*
Y690050D01*
X192560Y687510D01*
X190020Y684970D01*
Y682430D01*
X165020Y637430D02*
X167560D01*
X170100Y639970D01*
X172640Y637430D01*
X175180D01*
Y639970D01*
X172640Y642510D01*
X175180Y645050D01*
Y647590D01*
X172640D01*
X170100Y645050D01*
X167560Y647590D01*
X165020D01*
Y645050D01*
X167560Y642510D01*
X165020Y639970D01*
Y637430D01*
Y547430D02*
X167560D01*
X170100Y549970D01*
X172640Y547430D01*
X175180D01*
Y549970D01*
X172640Y552510D01*
X175180Y555050D01*
Y557590D01*
X172640D01*
X170100Y555050D01*
X167560Y557590D01*
X165020D01*
Y555050D01*
X167560Y552510D01*
X165020Y549970D01*
Y547430D01*
X190020Y502430D02*
X192560D01*
X195100Y504970D01*
X197640Y502430D01*
X200180D01*
Y504970D01*
X197640Y507510D01*
X200180Y510050D01*
Y512590D01*
X197640D01*
X195100Y510050D01*
X192560Y512590D01*
X190020D01*
Y510050D01*
X192560Y507510D01*
X190020Y504970D01*
Y502430D01*
Y562430D02*
X192560D01*
X195100Y564970D01*
X197640Y562430D01*
X200180D01*
Y564970D01*
X197640Y567510D01*
X200180Y570050D01*
Y572590D01*
X197640D01*
X195100Y570050D01*
X192560Y572590D01*
X190020D01*
Y570050D01*
X192560Y567510D01*
X190020Y564970D01*
Y562430D01*
Y472430D02*
X192560D01*
X195100Y474970D01*
X197640Y472430D01*
X200180D01*
Y474970D01*
X197640Y477510D01*
X200180Y480050D01*
Y482590D01*
X197640D01*
X195100Y480050D01*
X192560Y482590D01*
X190020D01*
Y480050D01*
X192560Y477510D01*
X190020Y474970D01*
Y472430D01*
X165020Y457430D02*
X167560D01*
X170100Y459970D01*
X172640Y457430D01*
X175180D01*
Y459970D01*
X172640Y462510D01*
X175180Y465050D01*
Y467590D01*
X172640D01*
X170100Y465050D01*
X167560Y467590D01*
X165020D01*
Y465050D01*
X167560Y462510D01*
X165020Y459970D01*
Y457430D01*
X190020Y532430D02*
X192560D01*
X195100Y534970D01*
X197640Y532430D01*
X200180D01*
Y534970D01*
X197640Y537510D01*
X200180Y540050D01*
Y542590D01*
X197640D01*
X195100Y540050D01*
X192560Y542590D01*
X190020D01*
Y540050D01*
X192560Y537510D01*
X190020Y534970D01*
Y532430D01*
Y442430D02*
X192560D01*
X195100Y444970D01*
X197640Y442430D01*
X200180D01*
Y444970D01*
X197640Y447510D01*
X200180Y450050D01*
Y452590D01*
X197640D01*
X195100Y450050D01*
X192560Y452590D01*
X190020D01*
Y450050D01*
X192560Y447510D01*
X190020Y444970D01*
Y442430D01*
X110020Y472430D02*
X112560D01*
X115100Y474970D01*
X117640Y472430D01*
X120180D01*
Y474970D01*
X117640Y477510D01*
X120180Y480050D01*
Y482590D01*
X117640D01*
X115100Y480050D01*
X112560Y482590D01*
X110020D01*
Y480050D01*
X112560Y477510D01*
X110020Y474970D01*
Y472430D01*
X135020Y607430D02*
X137560D01*
X140100Y609970D01*
X142640Y607430D01*
X145180D01*
Y609970D01*
X142640Y612510D01*
X145180Y615050D01*
Y617590D01*
X142640D01*
X140100Y615050D01*
X137560Y617590D01*
X135020D01*
Y615050D01*
X137560Y612510D01*
X135020Y609970D01*
Y607430D01*
X165020D02*
X167560D01*
X170100Y609970D01*
X172640Y607430D01*
X175180D01*
Y609970D01*
X172640Y612510D01*
X175180Y615050D01*
Y617590D01*
X172640D01*
X170100Y615050D01*
X167560Y617590D01*
X165020D01*
Y615050D01*
X167560Y612510D01*
X165020Y609970D01*
Y607430D01*
X110020Y502430D02*
X112560D01*
X115100Y504970D01*
X117640Y502430D01*
X120180D01*
Y504970D01*
X117640Y507510D01*
X120180Y510050D01*
Y512590D01*
X117640D01*
X115100Y510050D01*
X112560Y512590D01*
X110020D01*
Y510050D01*
X112560Y507510D01*
X110020Y504970D01*
Y502430D01*
X190020Y622430D02*
X192560D01*
X195100Y624970D01*
X197640Y622430D01*
X200180D01*
Y624970D01*
X197640Y627510D01*
X200180Y630050D01*
Y632590D01*
X197640D01*
X195100Y630050D01*
X192560Y632590D01*
X190020D01*
Y630050D01*
X192560Y627510D01*
X190020Y624970D01*
Y622430D01*
X165020Y577430D02*
X167560D01*
X170100Y579970D01*
X172640Y577430D01*
X175180D01*
Y579970D01*
X172640Y582510D01*
X175180Y585050D01*
Y587590D01*
X172640D01*
X170100Y585050D01*
X167560Y587590D01*
X165020D01*
Y585050D01*
X167560Y582510D01*
X165020Y579970D01*
Y577430D01*
X135020Y667430D02*
X137560D01*
X140100Y669970D01*
X142640Y667430D01*
X145180D01*
Y669970D01*
X142640Y672510D01*
X145180Y675050D01*
Y677590D01*
X142640D01*
X140100Y675050D01*
X137560Y677590D01*
X135020D01*
Y675050D01*
X137560Y672510D01*
X135020Y669970D01*
Y667430D01*
X165020Y517430D02*
X167560D01*
X170100Y519970D01*
X172640Y517430D01*
X175180D01*
Y519970D01*
X172640Y522510D01*
X175180Y525050D01*
Y527590D01*
X172640D01*
X170100Y525050D01*
X167560Y527590D01*
X165020D01*
Y525050D01*
X167560Y522510D01*
X165020Y519970D01*
Y517430D01*
Y487430D02*
X167560D01*
X170100Y489970D01*
X172640Y487430D01*
X175180D01*
Y489970D01*
X172640Y492510D01*
X175180Y495050D01*
Y497590D01*
X172640D01*
X170100Y495050D01*
X167560Y497590D01*
X165020D01*
Y495050D01*
X167560Y492510D01*
X165020Y489970D01*
Y487430D01*
X135020D02*
X137560D01*
X140100Y489970D01*
X142640Y487430D01*
X145180D01*
Y489970D01*
X142640Y492510D01*
X145180Y495050D01*
Y497590D01*
X142640D01*
X140100Y495050D01*
X137560Y497590D01*
X135020D01*
Y495050D01*
X137560Y492510D01*
X135020Y489970D01*
Y487430D01*
Y457430D02*
X137560D01*
X140100Y459970D01*
X142640Y457430D01*
X145180D01*
Y459970D01*
X142640Y462510D01*
X145180Y465050D01*
Y467590D01*
X142640D01*
X140100Y465050D01*
X137560Y467590D01*
X135020D01*
Y465050D01*
X137560Y462510D01*
X135020Y459970D01*
Y457430D01*
X110020Y442430D02*
X112560D01*
X115100Y444970D01*
X117640Y442430D01*
X120180D01*
Y444970D01*
X117640Y447510D01*
X120180Y450050D01*
Y452590D01*
X117640D01*
X115100Y450050D01*
X112560Y452590D01*
X110020D01*
Y450050D01*
X112560Y447510D01*
X110020Y444970D01*
Y442430D01*
X261400Y276920D02*
X256320Y287080D01*
X266480D01*
X261400Y276920D01*
Y278952D02*
X258352Y285048D01*
X264448D01*
X261400Y278952D01*
X236000Y276920D02*
X230920Y287080D01*
X241080D01*
X236000Y276920D01*
Y278952D02*
X232952Y285048D01*
X239048D01*
X236000Y278952D01*
X976150Y152560D02*
Y162720D01*
X986310D01*
Y152560D01*
X976150D01*
X695600Y127160D02*
Y137320D01*
X705760D01*
Y127160D01*
X695600D01*
X657950Y555670D02*
X660490Y558210D01*
X663030D01*
X660490Y560750D01*
X663030Y563290D01*
X660490D01*
X657950Y565830D01*
X655410Y563290D01*
X652870D01*
X655410Y560750D01*
X652870Y558210D01*
X655410D01*
X657950Y555670D01*
X115610Y208730D02*
Y218890D01*
X125770D01*
Y208730D01*
X115610D01*
X117642Y210762D02*
Y216858D01*
X123738D01*
Y210762D01*
X117642D01*
X121000Y805720D02*
X115920Y815880D01*
X126080D01*
X121000Y805720D01*
X148000Y853420D02*
X150540Y855960D01*
X153080D01*
X150540Y858500D01*
X153080Y861040D01*
X150540D01*
X148000Y863580D01*
X145460Y861040D01*
X142920D01*
X145460Y858500D01*
X142920Y855960D01*
X145460D01*
X148000Y853420D01*
X121000Y926120D02*
X115920Y936280D01*
X126080D01*
X121000Y926120D01*
X695600Y152560D02*
Y162720D01*
X705760D01*
Y152560D01*
X695600D01*
X976150Y203360D02*
Y213520D01*
X986310D01*
Y203360D01*
X976150D01*
X702500Y928170D02*
X705040Y930710D01*
X707580D01*
X705040Y933250D01*
X707580Y935790D01*
X705040D01*
X702500Y938330D01*
X699960Y935790D01*
X697420D01*
X699960Y933250D01*
X697420Y930710D01*
X699960D01*
X702500Y928170D01*
Y930202D02*
X704024Y931726D01*
X705548D01*
X704024Y933250D01*
X705548Y934774D01*
X704024D01*
X702500Y936298D01*
X700976Y934774D01*
X699452D01*
X700976Y933250D01*
X699452Y931726D01*
X700976D01*
X702500Y930202D01*
X930520Y479520D02*
Y489680D01*
X940680D01*
Y479520D01*
X930520D01*
X955920D02*
Y489680D01*
X966080D01*
Y479520D01*
X955920D01*
X835750Y480670D02*
X838290Y483210D01*
X840830D01*
X838290Y485750D01*
X840830Y488290D01*
X838290D01*
X835750Y490830D01*
X833210Y488290D01*
X830670D01*
X833210Y485750D01*
X830670Y483210D01*
X833210D01*
X835750Y480670D01*
X657950Y530670D02*
X660490Y533210D01*
X663030D01*
X660490Y535750D01*
X663030Y538290D01*
X660490D01*
X657950Y540830D01*
X655410Y538290D01*
X652870D01*
X655410Y535750D01*
X652870Y533210D01*
X655410D01*
X657950Y530670D01*
X955920Y454120D02*
Y464280D01*
X966080D01*
Y454120D01*
X955920D01*
X930520D02*
Y464280D01*
X940680D01*
Y454120D01*
X930520D01*
Y428720D02*
Y438880D01*
X940680D01*
Y428720D01*
X930520D01*
Y504920D02*
Y515080D01*
X940680D01*
Y504920D01*
X930520D01*
X955920Y504920D02*
Y515080D01*
X966080D01*
Y504920D01*
X955920D01*
Y428720D02*
Y438880D01*
X966080D01*
Y428720D01*
X955920D01*
X955920Y530320D02*
Y540480D01*
X966080D01*
Y530320D01*
X955920D01*
X930520Y530320D02*
Y540480D01*
X940680D01*
Y530320D01*
X930520D01*
X665570Y409220D02*
X668110Y414300D01*
X665570Y419380D01*
X670650Y416840D01*
X675730Y419380D01*
X673190Y414300D01*
X675730Y409220D01*
X670650Y411760D01*
X665570Y409220D01*
X667602Y411252D02*
X669126Y414300D01*
X667602Y417348D01*
X670650Y415824D01*
X673698Y417348D01*
X672174Y414300D01*
X673698Y411252D01*
X670650Y412776D01*
X667602Y411252D01*
X817970Y409220D02*
X820510Y414300D01*
X817970Y419380D01*
X823050Y416840D01*
X828130Y419380D01*
X825590Y414300D01*
X828130Y409220D01*
X823050Y411760D01*
X817970Y409220D01*
X820002Y411252D02*
X821526Y414300D01*
X820002Y417348D01*
X823050Y415824D01*
X826098Y417348D01*
X824574Y414300D01*
X826098Y411252D01*
X823050Y412776D01*
X820002Y411252D01*
X817970Y625120D02*
X820510Y630200D01*
X817970Y635280D01*
X823050Y632740D01*
X828130Y635280D01*
X825590Y630200D01*
X828130Y625120D01*
X823050Y627660D01*
X817970Y625120D01*
X820002Y627152D02*
X821526Y630200D01*
X820002Y633248D01*
X823050Y631724D01*
X826098Y633248D01*
X824574Y630200D01*
X826098Y627152D01*
X823050Y628676D01*
X820002Y627152D01*
X665570Y625120D02*
X668110Y630200D01*
X665570Y635280D01*
X670650Y632740D01*
X675730Y635280D01*
X673190Y630200D01*
X675730Y625120D01*
X670650Y627660D01*
X665570Y625120D01*
X667602Y627152D02*
X669126Y630200D01*
X667602Y633248D01*
X670650Y631724D01*
X673698Y633248D01*
X672174Y630200D01*
X673698Y627152D01*
X670650Y628676D01*
X667602Y627152D01*
X835750Y505670D02*
X838290Y508210D01*
X840830D01*
X838290Y510750D01*
X840830Y513290D01*
X838290D01*
X835750Y515830D01*
X833210Y513290D01*
X830670D01*
X833210Y510750D01*
X830670Y508210D01*
X833210D01*
X835750Y505670D01*
X835750Y530670D02*
X838290Y533210D01*
X840830D01*
X838290Y535750D01*
X840830Y538290D01*
X838290D01*
X835750Y540830D01*
X833210Y538290D01*
X830670D01*
X833210Y535750D01*
X830670Y533210D01*
X833210D01*
X835750Y530670D01*
Y555670D02*
X838290Y558210D01*
X840830D01*
X838290Y560750D01*
X840830Y563290D01*
X838290D01*
X835750Y565830D01*
X833210Y563290D01*
X830670D01*
X833210Y560750D01*
X830670Y558210D01*
X833210D01*
X835750Y555670D01*
X657950Y580670D02*
X660490Y583210D01*
X663030D01*
X660490Y585750D01*
X663030Y588290D01*
X660490D01*
X657950Y590830D01*
X655410Y588290D01*
X652870D01*
X655410Y585750D01*
X652870Y583210D01*
X655410D01*
X657950Y580670D01*
Y455670D02*
X660490Y458210D01*
X663030D01*
X660490Y460750D01*
X663030Y463290D01*
X660490D01*
X657950Y465830D01*
X655410Y463290D01*
X652870D01*
X655410Y460750D01*
X652870Y458210D01*
X655410D01*
X657950Y455670D01*
X657950Y505670D02*
X660490Y508210D01*
X663030D01*
X660490Y510750D01*
X663030Y513290D01*
X660490D01*
X657950Y515830D01*
X655410Y513290D01*
X652870D01*
X655410Y510750D01*
X652870Y508210D01*
X655410D01*
X657950Y505670D01*
Y480670D02*
X660490Y483210D01*
X663030D01*
X660490Y485750D01*
X663030Y488290D01*
X660490D01*
X657950Y490830D01*
X655410Y488290D01*
X652870D01*
X655410Y485750D01*
X652870Y483210D01*
X655410D01*
X657950Y480670D01*
X950910Y877010D02*
Y874470D01*
X955990D01*
Y877010D01*
X958530D01*
Y882090D01*
X955990D01*
Y884630D01*
X950910D01*
Y882090D01*
X948370D01*
Y877010D01*
X950910D01*
Y809010D02*
Y806470D01*
X955990D01*
Y809010D01*
X958530D01*
Y814090D01*
X955990D01*
Y816630D01*
X950910D01*
Y814090D01*
X948370D01*
Y809010D01*
X950910D01*
X695600Y76360D02*
Y86520D01*
X705760D01*
Y76360D01*
X695600D01*
Y101760D02*
Y111920D01*
X705760D01*
Y101760D01*
X695600D01*
X702500Y723170D02*
X705040Y725710D01*
X707580D01*
X705040Y728250D01*
X707580Y730790D01*
X705040D01*
X702500Y733330D01*
X699960Y730790D01*
X697420D01*
X699960Y728250D01*
X697420Y725710D01*
X699960D01*
X702500Y723170D01*
Y725202D02*
X704024Y726726D01*
X705548D01*
X704024Y728250D01*
X705548Y729774D01*
X704024D01*
X702500Y731298D01*
X700976Y729774D01*
X699452D01*
X700976Y728250D01*
X699452Y726726D01*
X700976D01*
X702500Y725202D01*
X168000Y878420D02*
X170540Y880960D01*
X173080D01*
X170540Y883500D01*
X173080Y886040D01*
X170540D01*
X168000Y888580D01*
X165460Y886040D01*
X162920D01*
X165460Y883500D01*
X162920Y880960D01*
X165460D01*
X168000Y878420D01*
X148000D02*
X150540Y880960D01*
X153080D01*
X150540Y883500D01*
X153080Y886040D01*
X150540D01*
X148000Y888580D01*
X145460Y886040D01*
X142920D01*
X145460Y883500D01*
X142920Y880960D01*
X145460D01*
X148000Y878420D01*
X85920Y251920D02*
Y262080D01*
X96080D01*
Y251920D01*
X85920D01*
X87952Y253952D02*
Y260048D01*
X94048D01*
Y253952D01*
X87952D01*
X976150Y304960D02*
Y315120D01*
X986310D01*
Y304960D01*
X976150D01*
Y279560D02*
Y289720D01*
X986310D01*
Y279560D01*
X976150D01*
Y254160D02*
Y264320D01*
X986310D01*
Y254160D01*
X976150D01*
Y228760D02*
Y238920D01*
X986310D01*
Y228760D01*
X976150D01*
Y177960D02*
Y188120D01*
X986310D01*
Y177960D01*
X976150D01*
Y127160D02*
Y137320D01*
X986310D01*
Y127160D01*
X976150D01*
Y50960D02*
Y61120D01*
X986310D01*
Y50960D01*
X976150D01*
Y76360D02*
Y86520D01*
X986310D01*
Y76360D01*
X976150D01*
Y101760D02*
Y111920D01*
X986310D01*
Y101760D01*
X976150D01*
X695600Y304960D02*
Y315120D01*
X705760D01*
Y304960D01*
X695600D01*
Y279560D02*
Y289720D01*
X705760D01*
Y279560D01*
X695600D01*
Y254160D02*
Y264320D01*
X705760D01*
Y254160D01*
X695600D01*
Y228760D02*
Y238920D01*
X705760D01*
Y228760D01*
X695600D01*
Y203360D02*
Y213520D01*
X705760D01*
Y203360D01*
X695600D01*
Y177960D02*
Y188120D01*
X705760D01*
Y177960D01*
X695600D01*
Y50960D02*
Y61120D01*
X705760D01*
Y50960D01*
X695600D01*
X32100Y33860D02*
Y31320D01*
X37180D01*
Y33860D01*
X39720D01*
Y38940D01*
X37180D01*
Y41480D01*
X32100D01*
Y38940D01*
X29560D01*
Y33860D01*
X32100D01*
X33116Y34876D02*
Y33352D01*
X36164D01*
Y34876D01*
X37688D01*
Y37924D01*
X36164D01*
Y39448D01*
X33116D01*
Y37924D01*
X31592D01*
Y34876D01*
X33116D01*
X962750Y345020D02*
Y342480D01*
X967830D01*
Y345020D01*
X970370D01*
Y350100D01*
X967830D01*
Y352640D01*
X962750D01*
Y350100D01*
X960210D01*
Y345020D01*
X962750D01*
X963766Y346036D02*
Y344512D01*
X966814D01*
Y346036D01*
X968338D01*
Y349084D01*
X966814D01*
Y350608D01*
X963766D01*
Y349084D01*
X962242D01*
Y346036D01*
X963766D01*
X962750Y960960D02*
Y958420D01*
X967830D01*
Y960960D01*
X970370D01*
Y966040D01*
X967830D01*
Y968580D01*
X962750D01*
Y966040D01*
X960210D01*
Y960960D01*
X962750D01*
X963766Y961976D02*
Y960452D01*
X966814D01*
Y961976D01*
X968338D01*
Y965024D01*
X966814D01*
Y966548D01*
X963766D01*
Y965024D01*
X962242D01*
Y961976D01*
X963766D01*
X32100Y960960D02*
Y958420D01*
X37180D01*
Y960960D01*
X39720D01*
Y966040D01*
X37180D01*
Y968580D01*
X32100D01*
Y966040D01*
X29560D01*
Y960960D01*
X32100D01*
X33116Y961976D02*
Y960452D01*
X36164D01*
Y961976D01*
X37688D01*
Y965024D01*
X36164D01*
Y966548D01*
X33116D01*
Y965024D01*
X31592D01*
Y961976D01*
X33116D01*
X288763Y739933D02*
X291303D01*
X293843Y742474D01*
X296383Y739933D01*
X298923D01*
Y742474D01*
X296383Y745014D01*
X298923Y747553D01*
Y750094D01*
X296383D01*
X293843Y747553D01*
X291303Y750094D01*
X288763D01*
Y747553D01*
X291303Y745014D01*
X288763Y742474D01*
Y739933D01*
X290795Y741965D02*
X292319D01*
X293843Y743490D01*
X295367Y741965D01*
X296891D01*
Y743490D01*
X295367Y745014D01*
X296891Y746537D01*
Y748062D01*
X295367D01*
X293843Y746537D01*
X292319Y748062D01*
X290795D01*
Y746537D01*
X292319Y745014D01*
X290795Y743490D01*
Y741965D01*
X288763Y759417D02*
X291303D01*
X293843Y761957D01*
X296383Y759417D01*
X298923D01*
Y761957D01*
X296383Y764497D01*
X298923Y767037D01*
Y769577D01*
X296383D01*
X293843Y767037D01*
X291303Y769577D01*
X288763D01*
Y767037D01*
X291303Y764497D01*
X288763Y761957D01*
Y759417D01*
X290795Y761449D02*
X292319D01*
X293843Y762973D01*
X295367Y761449D01*
X296891D01*
Y762973D01*
X295367Y764497D01*
X296891Y766021D01*
Y767545D01*
X295367D01*
X293843Y766021D01*
X292319Y767545D01*
X290795D01*
Y766021D01*
X292319Y764497D01*
X290795Y762973D01*
Y761449D01*
X373920Y817670D02*
X376460D01*
X379000Y820210D01*
X381540Y817670D01*
X384080D01*
Y820210D01*
X381540Y822750D01*
X384080Y825290D01*
Y827830D01*
X381540D01*
X379000Y825290D01*
X376460Y827830D01*
X373920D01*
Y825290D01*
X376460Y822750D01*
X373920Y820210D01*
Y817670D01*
X375952Y819702D02*
X377476D01*
X379000Y821226D01*
X380524Y819702D01*
X382048D01*
Y821226D01*
X380524Y822750D01*
X382048Y824274D01*
Y825798D01*
X380524D01*
X379000Y824274D01*
X377476Y825798D01*
X375952D01*
Y824274D01*
X377476Y822750D01*
X375952Y821226D01*
Y819702D01*
X388224Y817616D02*
X390764D01*
X393304Y820156D01*
X395844Y817616D01*
X398384D01*
Y820156D01*
X395844Y822696D01*
X398384Y825236D01*
Y827776D01*
X395844D01*
X393304Y825236D01*
X390764Y827776D01*
X388224D01*
Y825236D01*
X390764Y822696D01*
X388224Y820156D01*
Y817616D01*
X390256Y819648D02*
X391780D01*
X393304Y821172D01*
X394828Y819648D01*
X396352D01*
Y821172D01*
X394828Y822696D01*
X396352Y824220D01*
Y825744D01*
X394828D01*
X393304Y824220D01*
X391780Y825744D01*
X390256D01*
Y824220D01*
X391780Y822696D01*
X390256Y821172D01*
Y819648D01*
X183683Y228683D02*
X186223D01*
X188763Y231223D01*
X191303Y228683D01*
X193843D01*
Y231223D01*
X191303Y233763D01*
X193843Y236303D01*
Y238843D01*
X191303D01*
X188763Y236303D01*
X186223Y238843D01*
X183683D01*
Y236303D01*
X186223Y233763D01*
X183683Y231223D01*
Y228683D01*
X185715Y230715D02*
X187239D01*
X188763Y232239D01*
X190287Y230715D01*
X191811D01*
Y232239D01*
X190287Y233763D01*
X191811Y235287D01*
Y236811D01*
X190287D01*
X188763Y235287D01*
X187239Y236811D01*
X185715D01*
Y235287D01*
X187239Y233763D01*
X185715Y232239D01*
Y230715D01*
X208683Y203683D02*
X211223D01*
X213763Y206223D01*
X216303Y203683D01*
X218843D01*
Y206223D01*
X216303Y208763D01*
X218843Y211303D01*
Y213843D01*
X216303D01*
X213763Y211303D01*
X211223Y213843D01*
X208683D01*
Y211303D01*
X211223Y208763D01*
X208683Y206223D01*
Y203683D01*
X210715Y205715D02*
X212239D01*
X213763Y207239D01*
X215287Y205715D01*
X216811D01*
Y207239D01*
X215287Y208763D01*
X216811Y210287D01*
Y211811D01*
X215287D01*
X213763Y210287D01*
X212239Y211811D01*
X210715D01*
Y210287D01*
X212239Y208763D01*
X210715Y207239D01*
Y205715D01*
X234920Y176880D02*
X237460D01*
X240000Y179420D01*
X242540Y176880D01*
X245080D01*
Y179420D01*
X242540Y181960D01*
X245080Y184500D01*
Y187040D01*
X242540D01*
X240000Y184500D01*
X237460Y187040D01*
X234920D01*
Y184500D01*
X237460Y181960D01*
X234920Y179420D01*
Y176880D01*
X236952Y178912D02*
X238476D01*
X240000Y180436D01*
X241524Y178912D01*
X243048D01*
Y180436D01*
X241524Y181960D01*
X243048Y183484D01*
Y185008D01*
X241524D01*
X240000Y183484D01*
X238476Y185008D01*
X236952D01*
Y183484D01*
X238476Y181960D01*
X236952Y180436D01*
Y178912D01*
X208983Y178046D02*
X211523D01*
X214063Y180585D01*
X216603Y178046D01*
X219143D01*
Y180585D01*
X216603Y183125D01*
X219143Y185665D01*
Y188206D01*
X216603D01*
X214063Y185665D01*
X211523Y188206D01*
X208983D01*
Y185665D01*
X211523Y183125D01*
X208983Y180585D01*
Y178046D01*
X211015Y180077D02*
X212539D01*
X214063Y181602D01*
X215587Y180077D01*
X217111D01*
Y181602D01*
X215587Y183125D01*
X217111Y184650D01*
Y186173D01*
X215587D01*
X214063Y184650D01*
X212539Y186173D01*
X211015D01*
Y184650D01*
X212539Y183125D01*
X211015Y181602D01*
Y180077D01*
X308170Y622170D02*
X310710D01*
X313250Y624710D01*
X315790Y622170D01*
X318330D01*
Y624710D01*
X315790Y627250D01*
X318330Y629790D01*
Y632330D01*
X315790D01*
X313250Y629790D01*
X310710Y632330D01*
X308170D01*
Y629790D01*
X310710Y627250D01*
X308170Y624710D01*
Y622170D01*
X310202Y624202D02*
X311726D01*
X313250Y625726D01*
X314774Y624202D01*
X316298D01*
Y625726D01*
X314774Y627250D01*
X316298Y628774D01*
Y630298D01*
X314774D01*
X313250Y628774D01*
X311726Y630298D01*
X310202D01*
Y628774D01*
X311726Y627250D01*
X310202Y625726D01*
Y624202D01*
X301475Y879290D02*
X304015D01*
X306555Y881830D01*
X309095Y879290D01*
X311635D01*
Y881830D01*
X309095Y884370D01*
X311635Y886910D01*
Y889450D01*
X309095D01*
X306555Y886910D01*
X304015Y889450D01*
X301475D01*
Y886910D01*
X304015Y884370D01*
X301475Y881830D01*
Y879290D01*
X303507Y881322D02*
X305031D01*
X306555Y882846D01*
X308079Y881322D01*
X309603D01*
Y882846D01*
X308079Y884370D01*
X309603Y885894D01*
Y887418D01*
X308079D01*
X306555Y885894D01*
X305031Y887418D01*
X303507D01*
Y885894D01*
X305031Y884370D01*
X303507Y882846D01*
Y881322D01*
X859420Y820420D02*
X861960D01*
X864500Y822960D01*
X867040Y820420D01*
X869580D01*
Y822960D01*
X867040Y825500D01*
X869580Y828040D01*
Y830580D01*
X867040D01*
X864500Y828040D01*
X861960Y830580D01*
X859420D01*
Y828040D01*
X861960Y825500D01*
X859420Y822960D01*
Y820420D01*
X861452Y822452D02*
X862976D01*
X864500Y823976D01*
X866024Y822452D01*
X867548D01*
Y823976D01*
X866024Y825500D01*
X867548Y827024D01*
Y828548D01*
X866024D01*
X864500Y827024D01*
X862976Y828548D01*
X861452D01*
Y827024D01*
X862976Y825500D01*
X861452Y823976D01*
Y822452D01*
X812170Y954420D02*
X814710D01*
X817250Y956960D01*
X819790Y954420D01*
X822330D01*
Y956960D01*
X819790Y959500D01*
X822330Y962040D01*
Y964580D01*
X819790D01*
X817250Y962040D01*
X814710Y964580D01*
X812170D01*
Y962040D01*
X814710Y959500D01*
X812170Y956960D01*
Y954420D01*
X814202Y956452D02*
X815726D01*
X817250Y957976D01*
X818774Y956452D01*
X820298D01*
Y957976D01*
X818774Y959500D01*
X820298Y961024D01*
Y962548D01*
X818774D01*
X817250Y961024D01*
X815726Y962548D01*
X814202D01*
Y961024D01*
X815726Y959500D01*
X814202Y957976D01*
Y956452D01*
X773420Y939420D02*
X775960D01*
X778500Y941960D01*
X781040Y939420D01*
X783580D01*
Y941960D01*
X781040Y944500D01*
X783580Y947040D01*
Y949580D01*
X781040D01*
X778500Y947040D01*
X775960Y949580D01*
X773420D01*
Y947040D01*
X775960Y944500D01*
X773420Y941960D01*
Y939420D01*
X775452Y941452D02*
X776976D01*
X778500Y942976D01*
X780024Y941452D01*
X781548D01*
Y942976D01*
X780024Y944500D01*
X781548Y946024D01*
Y947548D01*
X780024D01*
X778500Y946024D01*
X776976Y947548D01*
X775452D01*
Y946024D01*
X776976Y944500D01*
X775452Y942976D01*
Y941452D01*
X241920Y883920D02*
X244460D01*
X247000Y886460D01*
X249540Y883920D01*
X252080D01*
Y886460D01*
X249540Y889000D01*
X252080Y891540D01*
Y894080D01*
X249540D01*
X247000Y891540D01*
X244460Y894080D01*
X241920D01*
Y891540D01*
X244460Y889000D01*
X241920Y886460D01*
Y883920D01*
X243952Y885952D02*
X245476D01*
X247000Y887476D01*
X248524Y885952D01*
X250048D01*
Y887476D01*
X248524Y889000D01*
X250048Y890524D01*
Y892048D01*
X248524D01*
X247000Y890524D01*
X245476Y892048D01*
X243952D01*
Y890524D01*
X245476Y889000D01*
X243952Y887476D01*
Y885952D01*
X237920Y784920D02*
X240460D01*
X243000Y787460D01*
X245540Y784920D01*
X248080D01*
Y787460D01*
X245540Y790000D01*
X248080Y792540D01*
Y795080D01*
X245540D01*
X243000Y792540D01*
X240460Y795080D01*
X237920D01*
Y792540D01*
X240460Y790000D01*
X237920Y787460D01*
Y784920D01*
X239952Y786952D02*
X241476D01*
X243000Y788476D01*
X244524Y786952D01*
X246048D01*
Y788476D01*
X244524Y790000D01*
X246048Y791524D01*
Y793048D01*
X244524D01*
X243000Y791524D01*
X241476Y793048D01*
X239952D01*
Y791524D01*
X241476Y790000D01*
X239952Y788476D01*
Y786952D01*
X237920Y707920D02*
X240460D01*
X243000Y710460D01*
X245540Y707920D01*
X248080D01*
Y710460D01*
X245540Y713000D01*
X248080Y715540D01*
Y718080D01*
X245540D01*
X243000Y715540D01*
X240460Y718080D01*
X237920D01*
Y715540D01*
X240460Y713000D01*
X237920Y710460D01*
Y707920D01*
X239952Y709952D02*
X241476D01*
X243000Y711476D01*
X244524Y709952D01*
X246048D01*
Y711476D01*
X244524Y713000D01*
X246048Y714524D01*
Y716048D01*
X244524D01*
X243000Y714524D01*
X241476Y716048D01*
X239952D01*
Y714524D01*
X241476Y713000D01*
X239952Y711476D01*
Y709952D01*
X540000Y133000D02*
Y141464D01*
X544232Y145696D01*
X548464Y141464D01*
Y133000D01*
Y139348D01*
X540000D01*
X456920Y523920D02*
X459460D01*
X462000Y526460D01*
X464540Y523920D01*
X467080D01*
Y526460D01*
X464540Y529000D01*
X467080Y531540D01*
Y534080D01*
X464540D01*
X462000Y531540D01*
X459460Y534080D01*
X456920D01*
Y531540D01*
X459460Y529000D01*
X456920Y526460D01*
Y523920D01*
X458952Y525952D02*
X460476D01*
X462000Y527476D01*
X463524Y525952D01*
X465048D01*
Y527476D01*
X463524Y529000D01*
X465048Y530524D01*
Y532048D01*
X463524D01*
X462000Y530524D01*
X460476Y532048D01*
X458952D01*
Y530524D01*
X460476Y529000D01*
X458952Y527476D01*
Y525952D01*
X627920Y713920D02*
X630460D01*
X633000Y716460D01*
X635540Y713920D01*
X638080D01*
Y716460D01*
X635540Y719000D01*
X638080Y721540D01*
Y724080D01*
X635540D01*
X633000Y721540D01*
X630460Y724080D01*
X627920D01*
Y721540D01*
X630460Y719000D01*
X627920Y716460D01*
Y713920D01*
X629952Y715952D02*
X631476D01*
X633000Y717476D01*
X634524Y715952D01*
X636048D01*
Y717476D01*
X634524Y719000D01*
X636048Y720524D01*
Y722048D01*
X634524D01*
X633000Y720524D01*
X631476Y722048D01*
X629952D01*
Y720524D01*
X631476Y719000D01*
X629952Y717476D01*
Y715952D01*
X534920Y805920D02*
X537460D01*
X540000Y808460D01*
X542540Y805920D01*
X545080D01*
Y808460D01*
X542540Y811000D01*
X545080Y813540D01*
Y816080D01*
X542540D01*
X540000Y813540D01*
X537460Y816080D01*
X534920D01*
Y813540D01*
X537460Y811000D01*
X534920Y808460D01*
Y805920D01*
X536952Y807952D02*
X538476D01*
X540000Y809476D01*
X541524Y807952D01*
X543048D01*
Y809476D01*
X541524Y811000D01*
X543048Y812524D01*
Y814048D01*
X541524D01*
X540000Y812524D01*
X538476Y814048D01*
X536952D01*
Y812524D01*
X538476Y811000D01*
X536952Y809476D01*
Y807952D01*
X239920Y678920D02*
X242460D01*
X245000Y681460D01*
X247540Y678920D01*
X250080D01*
Y681460D01*
X247540Y684000D01*
X250080Y686540D01*
Y689080D01*
X247540D01*
X245000Y686540D01*
X242460Y689080D01*
X239920D01*
Y686540D01*
X242460Y684000D01*
X239920Y681460D01*
Y678920D01*
X241952Y680952D02*
X243476D01*
X245000Y682476D01*
X246524Y680952D01*
X248048D01*
Y682476D01*
X246524Y684000D01*
X248048Y685524D01*
Y687048D01*
X246524D01*
X245000Y685524D01*
X243476Y687048D01*
X241952D01*
Y685524D01*
X243476Y684000D01*
X241952Y682476D01*
Y680952D01*
X600920Y415920D02*
X603460D01*
X606000Y418460D01*
X608540Y415920D01*
X611080D01*
Y418460D01*
X608540Y421000D01*
X611080Y423540D01*
Y426080D01*
X608540D01*
X606000Y423540D01*
X603460Y426080D01*
X600920D01*
Y423540D01*
X603460Y421000D01*
X600920Y418460D01*
Y415920D01*
X602952Y417952D02*
X604476D01*
X606000Y419476D01*
X607524Y417952D01*
X609048D01*
Y419476D01*
X607524Y421000D01*
X609048Y422524D01*
Y424048D01*
X607524D01*
X606000Y422524D01*
X604476Y424048D01*
X602952D01*
Y422524D01*
X604476Y421000D01*
X602952Y419476D01*
Y417952D01*
X558920Y404920D02*
X561460D01*
X564000Y407460D01*
X566540Y404920D01*
X569080D01*
Y407460D01*
X566540Y410000D01*
X569080Y412540D01*
Y415080D01*
X566540D01*
X564000Y412540D01*
X561460Y415080D01*
X558920D01*
Y412540D01*
X561460Y410000D01*
X558920Y407460D01*
Y404920D01*
X560952Y406952D02*
X562476D01*
X564000Y408476D01*
X565524Y406952D01*
X567048D01*
Y408476D01*
X565524Y410000D01*
X567048Y411524D01*
Y413048D01*
X565524D01*
X564000Y411524D01*
X562476Y413048D01*
X560952D01*
Y411524D01*
X562476Y410000D01*
X560952Y408476D01*
Y406952D01*
X572920Y363920D02*
X575460D01*
X578000Y366460D01*
X580540Y363920D01*
X583080D01*
Y366460D01*
X580540Y369000D01*
X583080Y371540D01*
Y374080D01*
X580540D01*
X578000Y371540D01*
X575460Y374080D01*
X572920D01*
Y371540D01*
X575460Y369000D01*
X572920Y366460D01*
Y363920D01*
X574952Y365952D02*
X576476D01*
X578000Y367476D01*
X579524Y365952D01*
X581048D01*
Y367476D01*
X579524Y369000D01*
X581048Y370524D01*
Y372048D01*
X579524D01*
X578000Y370524D01*
X576476Y372048D01*
X574952D01*
Y370524D01*
X576476Y369000D01*
X574952Y367476D01*
Y365952D01*
X926920Y308920D02*
X929460D01*
X932000Y311460D01*
X934540Y308920D01*
X937080D01*
Y311460D01*
X934540Y314000D01*
X937080Y316540D01*
Y319080D01*
X934540D01*
X932000Y316540D01*
X929460Y319080D01*
X926920D01*
Y316540D01*
X929460Y314000D01*
X926920Y311460D01*
Y308920D01*
X928952Y310952D02*
X930476D01*
X932000Y312476D01*
X933524Y310952D01*
X935048D01*
Y312476D01*
X933524Y314000D01*
X935048Y315524D01*
Y317048D01*
X933524D01*
X932000Y315524D01*
X930476Y317048D01*
X928952D01*
Y315524D01*
X930476Y314000D01*
X928952Y312476D01*
Y310952D01*
X911920Y729920D02*
X914460D01*
X917000Y732460D01*
X919540Y729920D01*
X922080D01*
Y732460D01*
X919540Y735000D01*
X922080Y737540D01*
Y740080D01*
X919540D01*
X917000Y737540D01*
X914460Y740080D01*
X911920D01*
Y737540D01*
X914460Y735000D01*
X911920Y732460D01*
Y729920D01*
X913952Y731952D02*
X915476D01*
X917000Y733476D01*
X918524Y731952D01*
X920048D01*
Y733476D01*
X918524Y735000D01*
X920048Y736524D01*
Y738048D01*
X918524D01*
X917000Y736524D01*
X915476Y738048D01*
X913952D01*
Y736524D01*
X915476Y735000D01*
X913952Y733476D01*
Y731952D01*
X873920Y737920D02*
X876460D01*
X879000Y740460D01*
X881540Y737920D01*
X884080D01*
Y740460D01*
X881540Y743000D01*
X884080Y745540D01*
Y748080D01*
X881540D01*
X879000Y745540D01*
X876460Y748080D01*
X873920D01*
Y745540D01*
X876460Y743000D01*
X873920Y740460D01*
Y737920D01*
X875952Y739952D02*
X877476D01*
X879000Y741476D01*
X880524Y739952D01*
X882048D01*
Y741476D01*
X880524Y743000D01*
X882048Y744524D01*
Y746048D01*
X880524D01*
X879000Y744524D01*
X877476Y746048D01*
X875952D01*
Y744524D01*
X877476Y743000D01*
X875952Y741476D01*
Y739952D01*
X921920Y938920D02*
X924460D01*
X927000Y941460D01*
X929540Y938920D01*
X932080D01*
Y941460D01*
X929540Y944000D01*
X932080Y946540D01*
Y949080D01*
X929540D01*
X927000Y946540D01*
X924460Y949080D01*
X921920D01*
Y946540D01*
X924460Y944000D01*
X921920Y941460D01*
Y938920D01*
X923952Y940952D02*
X925476D01*
X927000Y942476D01*
X928524Y940952D01*
X930048D01*
Y942476D01*
X928524Y944000D01*
X930048Y945524D01*
Y947048D01*
X928524D01*
X927000Y945524D01*
X925476Y947048D01*
X923952D01*
Y945524D01*
X925476Y944000D01*
X923952Y942476D01*
Y940952D01*
X516920Y885420D02*
X519460D01*
X522000Y887960D01*
X524540Y885420D01*
X527080D01*
Y887960D01*
X524540Y890500D01*
X527080Y893040D01*
Y895580D01*
X524540D01*
X522000Y893040D01*
X519460Y895580D01*
X516920D01*
Y893040D01*
X519460Y890500D01*
X516920Y887960D01*
Y885420D01*
X518952Y887452D02*
X520476D01*
X522000Y888976D01*
X523524Y887452D01*
X525048D01*
Y888976D01*
X523524Y890500D01*
X525048Y892024D01*
Y893548D01*
X523524D01*
X522000Y892024D01*
X520476Y893548D01*
X518952D01*
Y892024D01*
X520476Y890500D01*
X518952Y888976D01*
Y887452D01*
X343670Y897170D02*
X346210D01*
X348750Y899710D01*
X351290Y897170D01*
X353830D01*
Y899710D01*
X351290Y902250D01*
X353830Y904790D01*
Y907330D01*
X351290D01*
X348750Y904790D01*
X346210Y907330D01*
X343670D01*
Y904790D01*
X346210Y902250D01*
X343670Y899710D01*
Y897170D01*
X345702Y899202D02*
X347226D01*
X348750Y900726D01*
X350274Y899202D01*
X351798D01*
Y900726D01*
X350274Y902250D01*
X351798Y903774D01*
Y905298D01*
X350274D01*
X348750Y903774D01*
X347226Y905298D01*
X345702D01*
Y903774D01*
X347226Y902250D01*
X345702Y900726D01*
Y899202D01*
X218920Y924920D02*
X221460D01*
X224000Y927460D01*
X226540Y924920D01*
X229080D01*
Y927460D01*
X226540Y930000D01*
X229080Y932540D01*
Y935080D01*
X226540D01*
X224000Y932540D01*
X221460Y935080D01*
X218920D01*
Y932540D01*
X221460Y930000D01*
X218920Y927460D01*
Y924920D01*
X220952Y926952D02*
X222476D01*
X224000Y928476D01*
X225524Y926952D01*
X227048D01*
Y928476D01*
X225524Y930000D01*
X227048Y931524D01*
Y933048D01*
X225524D01*
X224000Y931524D01*
X222476Y933048D01*
X220952D01*
Y931524D01*
X222476Y930000D01*
X220952Y928476D01*
Y926952D01*
X407920Y340920D02*
X410460D01*
X413000Y343460D01*
X415540Y340920D01*
X418080D01*
Y343460D01*
X415540Y346000D01*
X418080Y348540D01*
Y351080D01*
X415540D01*
X413000Y348540D01*
X410460Y351080D01*
X407920D01*
Y348540D01*
X410460Y346000D01*
X407920Y343460D01*
Y340920D01*
X409952Y342952D02*
X411476D01*
X413000Y344476D01*
X414524Y342952D01*
X416048D01*
Y344476D01*
X414524Y346000D01*
X416048Y347524D01*
Y349048D01*
X414524D01*
X413000Y347524D01*
X411476Y349048D01*
X409952D01*
Y347524D01*
X411476Y346000D01*
X409952Y344476D01*
Y342952D01*
X529920Y223920D02*
X532460D01*
X535000Y226460D01*
X537540Y223920D01*
X540080D01*
Y226460D01*
X537540Y229000D01*
X540080Y231540D01*
Y234080D01*
X537540D01*
X535000Y231540D01*
X532460Y234080D01*
X529920D01*
Y231540D01*
X532460Y229000D01*
X529920Y226460D01*
Y223920D01*
X531952Y225952D02*
X533476D01*
X535000Y227476D01*
X536524Y225952D01*
X538048D01*
Y227476D01*
X536524Y229000D01*
X538048Y230524D01*
Y232048D01*
X536524D01*
X535000Y230524D01*
X533476Y232048D01*
X531952D01*
Y230524D01*
X533476Y229000D01*
X531952Y227476D01*
Y225952D01*
X382420Y454920D02*
X384960D01*
X387500Y457460D01*
X390040Y454920D01*
X392580D01*
Y457460D01*
X390040Y460000D01*
X392580Y462540D01*
Y465080D01*
X390040D01*
X387500Y462540D01*
X384960Y465080D01*
X382420D01*
Y462540D01*
X384960Y460000D01*
X382420Y457460D01*
Y454920D01*
X384452Y456952D02*
X385976D01*
X387500Y458476D01*
X389024Y456952D01*
X390548D01*
Y458476D01*
X389024Y460000D01*
X390548Y461524D01*
Y463048D01*
X389024D01*
X387500Y461524D01*
X385976Y463048D01*
X384452D01*
Y461524D01*
X385976Y460000D01*
X384452Y458476D01*
Y456952D01*
X355170Y409670D02*
X357710D01*
X360250Y412210D01*
X362790Y409670D01*
X365330D01*
Y412210D01*
X362790Y414750D01*
X365330Y417290D01*
Y419830D01*
X362790D01*
X360250Y417290D01*
X357710Y419830D01*
X355170D01*
Y417290D01*
X357710Y414750D01*
X355170Y412210D01*
Y409670D01*
X357202Y411702D02*
X358726D01*
X360250Y413226D01*
X361774Y411702D01*
X363298D01*
Y413226D01*
X361774Y414750D01*
X363298Y416274D01*
Y417798D01*
X361774D01*
X360250Y416274D01*
X358726Y417798D01*
X357202D01*
Y416274D01*
X358726Y414750D01*
X357202Y413226D01*
Y411702D01*
X296920Y58920D02*
X299460D01*
X302000Y61460D01*
X304540Y58920D01*
X307080D01*
Y61460D01*
X304540Y64000D01*
X307080Y66540D01*
Y69080D01*
X304540D01*
X302000Y66540D01*
X299460Y69080D01*
X296920D01*
Y66540D01*
X299460Y64000D01*
X296920Y61460D01*
Y58920D01*
X298952Y60952D02*
X300476D01*
X302000Y62476D01*
X303524Y60952D01*
X305048D01*
Y62476D01*
X303524Y64000D01*
X305048Y65524D01*
Y67048D01*
X303524D01*
X302000Y65524D01*
X300476Y67048D01*
X298952D01*
Y65524D01*
X300476Y64000D01*
X298952Y62476D01*
Y60952D01*
X34920Y112420D02*
X37460D01*
X40000Y114960D01*
X42540Y112420D01*
X45080D01*
Y114960D01*
X42540Y117500D01*
X45080Y120040D01*
Y122580D01*
X42540D01*
X40000Y120040D01*
X37460Y122580D01*
X34920D01*
Y120040D01*
X37460Y117500D01*
X34920Y114960D01*
Y112420D01*
X36952Y114452D02*
X38476D01*
X40000Y115976D01*
X41524Y114452D01*
X43048D01*
Y115976D01*
X41524Y117500D01*
X43048Y119024D01*
Y120548D01*
X41524D01*
X40000Y119024D01*
X38476Y120548D01*
X36952D01*
Y119024D01*
X38476Y117500D01*
X36952Y115976D01*
Y114452D01*
X34920Y79920D02*
X37460D01*
X40000Y82460D01*
X42540Y79920D01*
X45080D01*
Y82460D01*
X42540Y85000D01*
X45080Y87540D01*
Y90080D01*
X42540D01*
X40000Y87540D01*
X37460Y90080D01*
X34920D01*
Y87540D01*
X37460Y85000D01*
X34920Y82460D01*
Y79920D01*
X36952Y81952D02*
X38476D01*
X40000Y83476D01*
X41524Y81952D01*
X43048D01*
Y83476D01*
X41524Y85000D01*
X43048Y86524D01*
Y88048D01*
X41524D01*
X40000Y86524D01*
X38476Y88048D01*
X36952D01*
Y86524D01*
X38476Y85000D01*
X36952Y83476D01*
Y81952D01*
X147420Y177420D02*
X149960D01*
X152500Y179960D01*
X155040Y177420D01*
X157580D01*
Y179960D01*
X155040Y182500D01*
X157580Y185040D01*
Y187580D01*
X155040D01*
X152500Y185040D01*
X149960Y187580D01*
X147420D01*
Y185040D01*
X149960Y182500D01*
X147420Y179960D01*
Y177420D01*
X149452Y179452D02*
X150976D01*
X152500Y180976D01*
X154024Y179452D01*
X155548D01*
Y180976D01*
X154024Y182500D01*
X155548Y184024D01*
Y185548D01*
X154024D01*
X152500Y184024D01*
X150976Y185548D01*
X149452D01*
Y184024D01*
X150976Y182500D01*
X149452Y180976D01*
Y179452D01*
X180920Y311920D02*
X183460D01*
X186000Y314460D01*
X188540Y311920D01*
X191080D01*
Y314460D01*
X188540Y317000D01*
X191080Y319540D01*
Y322080D01*
X188540D01*
X186000Y319540D01*
X183460Y322080D01*
X180920D01*
Y319540D01*
X183460Y317000D01*
X180920Y314460D01*
Y311920D01*
X182952Y313952D02*
X184476D01*
X186000Y315476D01*
X187524Y313952D01*
X189048D01*
Y315476D01*
X187524Y317000D01*
X189048Y318524D01*
Y320048D01*
X187524D01*
X186000Y318524D01*
X184476Y320048D01*
X182952D01*
Y318524D01*
X184476Y317000D01*
X182952Y315476D01*
Y313952D01*
X27920Y311920D02*
X30460D01*
X33000Y314460D01*
X35540Y311920D01*
X38080D01*
Y314460D01*
X35540Y317000D01*
X38080Y319540D01*
Y322080D01*
X35540D01*
X33000Y319540D01*
X30460Y322080D01*
X27920D01*
Y319540D01*
X30460Y317000D01*
X27920Y314460D01*
Y311920D01*
X29952Y313952D02*
X31476D01*
X33000Y315476D01*
X34524Y313952D01*
X36048D01*
Y315476D01*
X34524Y317000D01*
X36048Y318524D01*
Y320048D01*
X34524D01*
X33000Y318524D01*
X31476Y320048D01*
X29952D01*
Y318524D01*
X31476Y317000D01*
X29952Y315476D01*
Y313952D01*
X44920Y311920D02*
X47460D01*
X50000Y314460D01*
X52540Y311920D01*
X55080D01*
Y314460D01*
X52540Y317000D01*
X55080Y319540D01*
Y322080D01*
X52540D01*
X50000Y319540D01*
X47460Y322080D01*
X44920D01*
Y319540D01*
X47460Y317000D01*
X44920Y314460D01*
Y311920D01*
X46952Y313952D02*
X48476D01*
X50000Y315476D01*
X51524Y313952D01*
X53048D01*
Y315476D01*
X51524Y317000D01*
X53048Y318524D01*
Y320048D01*
X51524D01*
X50000Y318524D01*
X48476Y320048D01*
X46952D01*
Y318524D01*
X48476Y317000D01*
X46952Y315476D01*
Y313952D01*
X10920Y311920D02*
X13460D01*
X16000Y314460D01*
X18540Y311920D01*
X21080D01*
Y314460D01*
X18540Y317000D01*
X21080Y319540D01*
Y322080D01*
X18540D01*
X16000Y319540D01*
X13460Y322080D01*
X10920D01*
Y319540D01*
X13460Y317000D01*
X10920Y314460D01*
Y311920D01*
X12952Y313952D02*
X14476D01*
X16000Y315476D01*
X17524Y313952D01*
X19048D01*
Y315476D01*
X17524Y317000D01*
X19048Y318524D01*
Y320048D01*
X17524D01*
X16000Y318524D01*
X14476Y320048D01*
X12952D01*
Y318524D01*
X14476Y317000D01*
X12952Y315476D01*
Y313952D01*
X27420Y419920D02*
X29960D01*
X32500Y422460D01*
X35040Y419920D01*
X37580D01*
Y422460D01*
X35040Y425000D01*
X37580Y427540D01*
Y430080D01*
X35040D01*
X32500Y427540D01*
X29960Y430080D01*
X27420D01*
Y427540D01*
X29960Y425000D01*
X27420Y422460D01*
Y419920D01*
X29452Y421952D02*
X30976D01*
X32500Y423476D01*
X34024Y421952D01*
X35548D01*
Y423476D01*
X34024Y425000D01*
X35548Y426524D01*
Y428048D01*
X34024D01*
X32500Y426524D01*
X30976Y428048D01*
X29452D01*
Y426524D01*
X30976Y425000D01*
X29452Y423476D01*
Y421952D01*
X129920Y311920D02*
X132460D01*
X135000Y314460D01*
X137540Y311920D01*
X140080D01*
Y314460D01*
X137540Y317000D01*
X140080Y319540D01*
Y322080D01*
X137540D01*
X135000Y319540D01*
X132460Y322080D01*
X129920D01*
Y319540D01*
X132460Y317000D01*
X129920Y314460D01*
Y311920D01*
X131952Y313952D02*
X133476D01*
X135000Y315476D01*
X136524Y313952D01*
X138048D01*
Y315476D01*
X136524Y317000D01*
X138048Y318524D01*
Y320048D01*
X136524D01*
X135000Y318524D01*
X133476Y320048D01*
X131952D01*
Y318524D01*
X133476Y317000D01*
X131952Y315476D01*
Y313952D01*
X146920Y311920D02*
X149460D01*
X152000Y314460D01*
X154540Y311920D01*
X157080D01*
Y314460D01*
X154540Y317000D01*
X157080Y319540D01*
Y322080D01*
X154540D01*
X152000Y319540D01*
X149460Y322080D01*
X146920D01*
Y319540D01*
X149460Y317000D01*
X146920Y314460D01*
Y311920D01*
X148952Y313952D02*
X150476D01*
X152000Y315476D01*
X153524Y313952D01*
X155048D01*
Y315476D01*
X153524Y317000D01*
X155048Y318524D01*
Y320048D01*
X153524D01*
X152000Y318524D01*
X150476Y320048D01*
X148952D01*
Y318524D01*
X150476Y317000D01*
X148952Y315476D01*
Y313952D01*
X61920Y311920D02*
X64460D01*
X67000Y314460D01*
X69540Y311920D01*
X72080D01*
Y314460D01*
X69540Y317000D01*
X72080Y319540D01*
Y322080D01*
X69540D01*
X67000Y319540D01*
X64460Y322080D01*
X61920D01*
Y319540D01*
X64460Y317000D01*
X61920Y314460D01*
Y311920D01*
X63952Y313952D02*
X65476D01*
X67000Y315476D01*
X68524Y313952D01*
X70048D01*
Y315476D01*
X68524Y317000D01*
X70048Y318524D01*
Y320048D01*
X68524D01*
X67000Y318524D01*
X65476Y320048D01*
X63952D01*
Y318524D01*
X65476Y317000D01*
X63952Y315476D01*
Y313952D01*
X112920Y311920D02*
X115460D01*
X118000Y314460D01*
X120540Y311920D01*
X123080D01*
Y314460D01*
X120540Y317000D01*
X123080Y319540D01*
Y322080D01*
X120540D01*
X118000Y319540D01*
X115460Y322080D01*
X112920D01*
Y319540D01*
X115460Y317000D01*
X112920Y314460D01*
Y311920D01*
X114952Y313952D02*
X116476D01*
X118000Y315476D01*
X119524Y313952D01*
X121048D01*
Y315476D01*
X119524Y317000D01*
X121048Y318524D01*
Y320048D01*
X119524D01*
X118000Y318524D01*
X116476Y320048D01*
X114952D01*
Y318524D01*
X116476Y317000D01*
X114952Y315476D01*
Y313952D01*
X54920Y452420D02*
X57460D01*
X60000Y454960D01*
X62540Y452420D01*
X65080D01*
Y454960D01*
X62540Y457500D01*
X65080Y460040D01*
Y462580D01*
X62540D01*
X60000Y460040D01*
X57460Y462580D01*
X54920D01*
Y460040D01*
X57460Y457500D01*
X54920Y454960D01*
Y452420D01*
X56952Y454452D02*
X58476D01*
X60000Y455976D01*
X61524Y454452D01*
X63048D01*
Y455976D01*
X61524Y457500D01*
X63048Y459024D01*
Y460548D01*
X61524D01*
X60000Y459024D01*
X58476Y460548D01*
X56952D01*
Y459024D01*
X58476Y457500D01*
X56952Y455976D01*
Y454452D01*
X22420Y569920D02*
X24960D01*
X27500Y572460D01*
X30040Y569920D01*
X32580D01*
Y572460D01*
X30040Y575000D01*
X32580Y577540D01*
Y580080D01*
X30040D01*
X27500Y577540D01*
X24960Y580080D01*
X22420D01*
Y577540D01*
X24960Y575000D01*
X22420Y572460D01*
Y569920D01*
X24452Y571952D02*
X25976D01*
X27500Y573476D01*
X29024Y571952D01*
X30548D01*
Y573476D01*
X29024Y575000D01*
X30548Y576524D01*
Y578048D01*
X29024D01*
X27500Y576524D01*
X25976Y578048D01*
X24452D01*
Y576524D01*
X25976Y575000D01*
X24452Y573476D01*
Y571952D01*
X54920Y569920D02*
X57460D01*
X60000Y572460D01*
X62540Y569920D01*
X65080D01*
Y572460D01*
X62540Y575000D01*
X65080Y577540D01*
Y580080D01*
X62540D01*
X60000Y577540D01*
X57460Y580080D01*
X54920D01*
Y577540D01*
X57460Y575000D01*
X54920Y572460D01*
Y569920D01*
X56952Y571952D02*
X58476D01*
X60000Y573476D01*
X61524Y571952D01*
X63048D01*
Y573476D01*
X61524Y575000D01*
X63048Y576524D01*
Y578048D01*
X61524D01*
X60000Y576524D01*
X58476Y578048D01*
X56952D01*
Y576524D01*
X58476Y575000D01*
X56952Y573476D01*
Y571952D01*
X232920Y311920D02*
X235460D01*
X238000Y314460D01*
X240540Y311920D01*
X243080D01*
Y314460D01*
X240540Y317000D01*
X243080Y319540D01*
Y322080D01*
X240540D01*
X238000Y319540D01*
X235460Y322080D01*
X232920D01*
Y319540D01*
X235460Y317000D01*
X232920Y314460D01*
Y311920D01*
X234952Y313952D02*
X236476D01*
X238000Y315476D01*
X239524Y313952D01*
X241048D01*
Y315476D01*
X239524Y317000D01*
X241048Y318524D01*
Y320048D01*
X239524D01*
X238000Y318524D01*
X236476Y320048D01*
X234952D01*
Y318524D01*
X236476Y317000D01*
X234952Y315476D01*
Y313952D01*
X249920Y311920D02*
X252460D01*
X255000Y314460D01*
X257540Y311920D01*
X260080D01*
Y314460D01*
X257540Y317000D01*
X260080Y319540D01*
Y322080D01*
X257540D01*
X255000Y319540D01*
X252460Y322080D01*
X249920D01*
Y319540D01*
X252460Y317000D01*
X249920Y314460D01*
Y311920D01*
X251952Y313952D02*
X253476D01*
X255000Y315476D01*
X256524Y313952D01*
X258048D01*
Y315476D01*
X256524Y317000D01*
X258048Y318524D01*
Y320048D01*
X256524D01*
X255000Y318524D01*
X253476Y320048D01*
X251952D01*
Y318524D01*
X253476Y317000D01*
X251952Y315476D01*
Y313952D01*
X163920Y311920D02*
X166460D01*
X169000Y314460D01*
X171540Y311920D01*
X174080D01*
Y314460D01*
X171540Y317000D01*
X174080Y319540D01*
Y322080D01*
X171540D01*
X169000Y319540D01*
X166460Y322080D01*
X163920D01*
Y319540D01*
X166460Y317000D01*
X163920Y314460D01*
Y311920D01*
X165952Y313952D02*
X167476D01*
X169000Y315476D01*
X170524Y313952D01*
X172048D01*
Y315476D01*
X170524Y317000D01*
X172048Y318524D01*
Y320048D01*
X170524D01*
X169000Y318524D01*
X167476Y320048D01*
X165952D01*
Y318524D01*
X167476Y317000D01*
X165952Y315476D01*
Y313952D01*
X215920Y311920D02*
X218460D01*
X221000Y314460D01*
X223540Y311920D01*
X226080D01*
Y314460D01*
X223540Y317000D01*
X226080Y319540D01*
Y322080D01*
X223540D01*
X221000Y319540D01*
X218460Y322080D01*
X215920D01*
Y319540D01*
X218460Y317000D01*
X215920Y314460D01*
Y311920D01*
X217952Y313952D02*
X219476D01*
X221000Y315476D01*
X222524Y313952D01*
X224048D01*
Y315476D01*
X222524Y317000D01*
X224048Y318524D01*
Y320048D01*
X222524D01*
X221000Y318524D01*
X219476Y320048D01*
X217952D01*
Y318524D01*
X219476Y317000D01*
X217952Y315476D01*
Y313952D01*
X300920Y311920D02*
X303460D01*
X306000Y314460D01*
X308540Y311920D01*
X311080D01*
Y314460D01*
X308540Y317000D01*
X311080Y319540D01*
Y322080D01*
X308540D01*
X306000Y319540D01*
X303460Y322080D01*
X300920D01*
Y319540D01*
X303460Y317000D01*
X300920Y314460D01*
Y311920D01*
X302952Y313952D02*
X304476D01*
X306000Y315476D01*
X307524Y313952D01*
X309048D01*
Y315476D01*
X307524Y317000D01*
X309048Y318524D01*
Y320048D01*
X307524D01*
X306000Y318524D01*
X304476Y320048D01*
X302952D01*
Y318524D01*
X304476Y317000D01*
X302952Y315476D01*
Y313952D01*
X317920Y311920D02*
X320460D01*
X323000Y314460D01*
X325540Y311920D01*
X328080D01*
Y314460D01*
X325540Y317000D01*
X328080Y319540D01*
Y322080D01*
X325540D01*
X323000Y319540D01*
X320460Y322080D01*
X317920D01*
Y319540D01*
X320460Y317000D01*
X317920Y314460D01*
Y311920D01*
X319952Y313952D02*
X321476D01*
X323000Y315476D01*
X324524Y313952D01*
X326048D01*
Y315476D01*
X324524Y317000D01*
X326048Y318524D01*
Y320048D01*
X324524D01*
X323000Y318524D01*
X321476Y320048D01*
X319952D01*
Y318524D01*
X321476Y317000D01*
X319952Y315476D01*
Y313952D01*
X266920Y311920D02*
X269460D01*
X272000Y314460D01*
X274540Y311920D01*
X277080D01*
Y314460D01*
X274540Y317000D01*
X277080Y319540D01*
Y322080D01*
X274540D01*
X272000Y319540D01*
X269460Y322080D01*
X266920D01*
Y319540D01*
X269460Y317000D01*
X266920Y314460D01*
Y311920D01*
X268952Y313952D02*
X270476D01*
X272000Y315476D01*
X273524Y313952D01*
X275048D01*
Y315476D01*
X273524Y317000D01*
X275048Y318524D01*
Y320048D01*
X273524D01*
X272000Y318524D01*
X270476Y320048D01*
X268952D01*
Y318524D01*
X270476Y317000D01*
X268952Y315476D01*
Y313952D01*
X283920Y311920D02*
X286460D01*
X289000Y314460D01*
X291540Y311920D01*
X294080D01*
Y314460D01*
X291540Y317000D01*
X294080Y319540D01*
Y322080D01*
X291540D01*
X289000Y319540D01*
X286460Y322080D01*
X283920D01*
Y319540D01*
X286460Y317000D01*
X283920Y314460D01*
Y311920D01*
X285952Y313952D02*
X287476D01*
X289000Y315476D01*
X290524Y313952D01*
X292048D01*
Y315476D01*
X290524Y317000D01*
X292048Y318524D01*
Y320048D01*
X290524D01*
X289000Y318524D01*
X287476Y320048D01*
X285952D01*
Y318524D01*
X287476Y317000D01*
X285952Y315476D01*
Y313952D01*
X249920Y347420D02*
X252460D01*
X255000Y349960D01*
X257540Y347420D01*
X260080D01*
Y349960D01*
X257540Y352500D01*
X260080Y355040D01*
Y357580D01*
X257540D01*
X255000Y355040D01*
X252460Y357580D01*
X249920D01*
Y355040D01*
X252460Y352500D01*
X249920Y349960D01*
Y347420D01*
X251952Y349452D02*
X253476D01*
X255000Y350976D01*
X256524Y349452D01*
X258048D01*
Y350976D01*
X256524Y352500D01*
X258048Y354024D01*
Y355548D01*
X256524D01*
X255000Y354024D01*
X253476Y355548D01*
X251952D01*
Y354024D01*
X253476Y352500D01*
X251952Y350976D01*
Y349452D01*
X314920Y347420D02*
X317460D01*
X320000Y349960D01*
X322540Y347420D01*
X325080D01*
Y349960D01*
X322540Y352500D01*
X325080Y355040D01*
Y357580D01*
X322540D01*
X320000Y355040D01*
X317460Y357580D01*
X314920D01*
Y355040D01*
X317460Y352500D01*
X314920Y349960D01*
Y347420D01*
X316952Y349452D02*
X318476D01*
X320000Y350976D01*
X321524Y349452D01*
X323048D01*
Y350976D01*
X321524Y352500D01*
X323048Y354024D01*
Y355548D01*
X321524D01*
X320000Y354024D01*
X318476Y355548D01*
X316952D01*
Y354024D01*
X318476Y352500D01*
X316952Y350976D01*
Y349452D01*
X318920Y244920D02*
X321460D01*
X324000Y247460D01*
X326540Y244920D01*
X329080D01*
Y247460D01*
X326540Y250000D01*
X329080Y252540D01*
Y255080D01*
X326540D01*
X324000Y252540D01*
X321460Y255080D01*
X318920D01*
Y252540D01*
X321460Y250000D01*
X318920Y247460D01*
Y244920D01*
X320952Y246952D02*
X322476D01*
X324000Y248476D01*
X325524Y246952D01*
X327048D01*
Y248476D01*
X325524Y250000D01*
X327048Y251524D01*
Y253048D01*
X325524D01*
X324000Y251524D01*
X322476Y253048D01*
X320952D01*
Y251524D01*
X322476Y250000D01*
X320952Y248476D01*
Y246952D01*
X334920Y311920D02*
X337460D01*
X340000Y314460D01*
X342540Y311920D01*
X345080D01*
Y314460D01*
X342540Y317000D01*
X345080Y319540D01*
Y322080D01*
X342540D01*
X340000Y319540D01*
X337460Y322080D01*
X334920D01*
Y319540D01*
X337460Y317000D01*
X334920Y314460D01*
Y311920D01*
X336952Y313952D02*
X338476D01*
X340000Y315476D01*
X341524Y313952D01*
X343048D01*
Y315476D01*
X341524Y317000D01*
X343048Y318524D01*
Y320048D01*
X341524D01*
X340000Y318524D01*
X338476Y320048D01*
X336952D01*
Y318524D01*
X338476Y317000D01*
X336952Y315476D01*
Y313952D01*
X358920Y270920D02*
X361460D01*
X364000Y273460D01*
X366540Y270920D01*
X369080D01*
Y273460D01*
X366540Y276000D01*
X369080Y278540D01*
Y281080D01*
X366540D01*
X364000Y278540D01*
X361460Y281080D01*
X358920D01*
Y278540D01*
X361460Y276000D01*
X358920Y273460D01*
Y270920D01*
X360952Y272952D02*
X362476D01*
X364000Y274476D01*
X365524Y272952D01*
X367048D01*
Y274476D01*
X365524Y276000D01*
X367048Y277524D01*
Y279048D01*
X365524D01*
X364000Y277524D01*
X362476Y279048D01*
X360952D01*
Y277524D01*
X362476Y276000D01*
X360952Y274476D01*
Y272952D01*
X358920Y253920D02*
X361460D01*
X364000Y256460D01*
X366540Y253920D01*
X369080D01*
Y256460D01*
X366540Y259000D01*
X369080Y261540D01*
Y264080D01*
X366540D01*
X364000Y261540D01*
X361460Y264080D01*
X358920D01*
Y261540D01*
X361460Y259000D01*
X358920Y256460D01*
Y253920D01*
X360952Y255952D02*
X362476D01*
X364000Y257476D01*
X365524Y255952D01*
X367048D01*
Y257476D01*
X365524Y259000D01*
X367048Y260524D01*
Y262048D01*
X365524D01*
X364000Y260524D01*
X362476Y262048D01*
X360952D01*
Y260524D01*
X362476Y259000D01*
X360952Y257476D01*
Y255952D01*
X346920Y299920D02*
X349460D01*
X352000Y302460D01*
X354540Y299920D01*
X357080D01*
Y302460D01*
X354540Y305000D01*
X357080Y307540D01*
Y310080D01*
X354540D01*
X352000Y307540D01*
X349460Y310080D01*
X346920D01*
Y307540D01*
X349460Y305000D01*
X346920Y302460D01*
Y299920D01*
X348952Y301952D02*
X350476D01*
X352000Y303476D01*
X353524Y301952D01*
X355048D01*
Y303476D01*
X353524Y305000D01*
X355048Y306524D01*
Y308048D01*
X353524D01*
X352000Y306524D01*
X350476Y308048D01*
X348952D01*
Y306524D01*
X350476Y305000D01*
X348952Y303476D01*
Y301952D01*
X358920Y287920D02*
X361460D01*
X364000Y290460D01*
X366540Y287920D01*
X369080D01*
Y290460D01*
X366540Y293000D01*
X369080Y295540D01*
Y298080D01*
X366540D01*
X364000Y295540D01*
X361460Y298080D01*
X358920D01*
Y295540D01*
X361460Y293000D01*
X358920Y290460D01*
Y287920D01*
X360952Y289952D02*
X362476D01*
X364000Y291476D01*
X365524Y289952D01*
X367048D01*
Y291476D01*
X365524Y293000D01*
X367048Y294524D01*
Y296048D01*
X365524D01*
X364000Y294524D01*
X362476Y296048D01*
X360952D01*
Y294524D01*
X362476Y293000D01*
X360952Y291476D01*
Y289952D01*
X362920Y156920D02*
X365460D01*
X368000Y159460D01*
X370540Y156920D01*
X373080D01*
Y159460D01*
X370540Y162000D01*
X373080Y164540D01*
Y167080D01*
X370540D01*
X368000Y164540D01*
X365460Y167080D01*
X362920D01*
Y164540D01*
X365460Y162000D01*
X362920Y159460D01*
Y156920D01*
X364952Y158952D02*
X366476D01*
X368000Y160476D01*
X369524Y158952D01*
X371048D01*
Y160476D01*
X369524Y162000D01*
X371048Y163524D01*
Y165048D01*
X369524D01*
X368000Y163524D01*
X366476Y165048D01*
X364952D01*
Y163524D01*
X366476Y162000D01*
X364952Y160476D01*
Y158952D01*
X419620Y164520D02*
X422160D01*
X424700Y167060D01*
X427240Y164520D01*
X429780D01*
Y167060D01*
X427240Y169600D01*
X429780Y172140D01*
Y174680D01*
X427240D01*
X424700Y172140D01*
X422160Y174680D01*
X419620D01*
Y172140D01*
X422160Y169600D01*
X419620Y167060D01*
Y164520D01*
X421652Y166552D02*
X423176D01*
X424700Y168076D01*
X426224Y166552D01*
X427748D01*
Y168076D01*
X426224Y169600D01*
X427748Y171124D01*
Y172648D01*
X426224D01*
X424700Y171124D01*
X423176Y172648D01*
X421652D01*
Y171124D01*
X423176Y169600D01*
X421652Y168076D01*
Y166552D01*
X370920Y224920D02*
X373460D01*
X376000Y227460D01*
X378540Y224920D01*
X381080D01*
Y227460D01*
X378540Y230000D01*
X381080Y232540D01*
Y235080D01*
X378540D01*
X376000Y232540D01*
X373460Y235080D01*
X370920D01*
Y232540D01*
X373460Y230000D01*
X370920Y227460D01*
Y224920D01*
X372952Y226952D02*
X374476D01*
X376000Y228476D01*
X377524Y226952D01*
X379048D01*
Y228476D01*
X377524Y230000D01*
X379048Y231524D01*
Y233048D01*
X377524D01*
X376000Y231524D01*
X374476Y233048D01*
X372952D01*
Y231524D01*
X374476Y230000D01*
X372952Y228476D01*
Y226952D01*
X358920Y236920D02*
X361460D01*
X364000Y239460D01*
X366540Y236920D01*
X369080D01*
Y239460D01*
X366540Y242000D01*
X369080Y244540D01*
Y247080D01*
X366540D01*
X364000Y244540D01*
X361460Y247080D01*
X358920D01*
Y244540D01*
X361460Y242000D01*
X358920Y239460D01*
Y236920D01*
X360952Y238952D02*
X362476D01*
X364000Y240476D01*
X365524Y238952D01*
X367048D01*
Y240476D01*
X365524Y242000D01*
X367048Y243524D01*
Y245048D01*
X365524D01*
X364000Y243524D01*
X362476Y245048D01*
X360952D01*
Y243524D01*
X362476Y242000D01*
X360952Y240476D01*
Y238952D01*
X404920Y224920D02*
X407460D01*
X410000Y227460D01*
X412540Y224920D01*
X415080D01*
Y227460D01*
X412540Y230000D01*
X415080Y232540D01*
Y235080D01*
X412540D01*
X410000Y232540D01*
X407460Y235080D01*
X404920D01*
Y232540D01*
X407460Y230000D01*
X404920Y227460D01*
Y224920D01*
X406952Y226952D02*
X408476D01*
X410000Y228476D01*
X411524Y226952D01*
X413048D01*
Y228476D01*
X411524Y230000D01*
X413048Y231524D01*
Y233048D01*
X411524D01*
X410000Y231524D01*
X408476Y233048D01*
X406952D01*
Y231524D01*
X408476Y230000D01*
X406952Y228476D01*
Y226952D01*
X416920Y212920D02*
X419460D01*
X422000Y215460D01*
X424540Y212920D01*
X427080D01*
Y215460D01*
X424540Y218000D01*
X427080Y220540D01*
Y223080D01*
X424540D01*
X422000Y220540D01*
X419460Y223080D01*
X416920D01*
Y220540D01*
X419460Y218000D01*
X416920Y215460D01*
Y212920D01*
X418952Y214952D02*
X420476D01*
X422000Y216476D01*
X423524Y214952D01*
X425048D01*
Y216476D01*
X423524Y218000D01*
X425048Y219524D01*
Y221048D01*
X423524D01*
X422000Y219524D01*
X420476Y221048D01*
X418952D01*
Y219524D01*
X420476Y218000D01*
X418952Y216476D01*
Y214952D01*
X387920Y224920D02*
X390460D01*
X393000Y227460D01*
X395540Y224920D01*
X398080D01*
Y227460D01*
X395540Y230000D01*
X398080Y232540D01*
Y235080D01*
X395540D01*
X393000Y232540D01*
X390460Y235080D01*
X387920D01*
Y232540D01*
X390460Y230000D01*
X387920Y227460D01*
Y224920D01*
X389952Y226952D02*
X391476D01*
X393000Y228476D01*
X394524Y226952D01*
X396048D01*
Y228476D01*
X394524Y230000D01*
X396048Y231524D01*
Y233048D01*
X394524D01*
X393000Y231524D01*
X391476Y233048D01*
X389952D01*
Y231524D01*
X391476Y230000D01*
X389952Y228476D01*
Y226952D01*
X340838Y434638D02*
X343378D01*
X345918Y437178D01*
X348458Y434638D01*
X350998D01*
Y437178D01*
X348458Y439718D01*
X350998Y442258D01*
Y444798D01*
X348458D01*
X345918Y442258D01*
X343378Y444798D01*
X340838D01*
Y442258D01*
X343378Y439718D01*
X340838Y437178D01*
Y434638D01*
X342870Y436670D02*
X344394D01*
X345918Y438194D01*
X347442Y436670D01*
X348966D01*
Y438194D01*
X347442Y439718D01*
X348966Y441242D01*
Y442766D01*
X347442D01*
X345918Y441242D01*
X344394Y442766D01*
X342870D01*
Y441242D01*
X344394Y439718D01*
X342870Y438194D01*
Y436670D01*
X384920Y354920D02*
X387460D01*
X390000Y357460D01*
X392540Y354920D01*
X395080D01*
Y357460D01*
X392540Y360000D01*
X395080Y362540D01*
Y365080D01*
X392540D01*
X390000Y362540D01*
X387460Y365080D01*
X384920D01*
Y362540D01*
X387460Y360000D01*
X384920Y357460D01*
Y354920D01*
X386952Y356952D02*
X388476D01*
X390000Y358476D01*
X391524Y356952D01*
X393048D01*
Y358476D01*
X391524Y360000D01*
X393048Y361524D01*
Y363048D01*
X391524D01*
X390000Y361524D01*
X388476Y363048D01*
X386952D01*
Y361524D01*
X388476Y360000D01*
X386952Y358476D01*
Y356952D01*
X394670Y465670D02*
X397210D01*
X399750Y468210D01*
X402290Y465670D01*
X404830D01*
Y468210D01*
X402290Y470750D01*
X404830Y473290D01*
Y475830D01*
X402290D01*
X399750Y473290D01*
X397210Y475830D01*
X394670D01*
Y473290D01*
X397210Y470750D01*
X394670Y468210D01*
Y465670D01*
X396702Y467702D02*
X398226D01*
X399750Y469226D01*
X401274Y467702D01*
X402798D01*
Y469226D01*
X401274Y470750D01*
X402798Y472274D01*
Y473798D01*
X401274D01*
X399750Y472274D01*
X398226Y473798D01*
X396702D01*
Y472274D01*
X398226Y470750D01*
X396702Y469226D01*
Y467702D01*
X22420Y659920D02*
X24960D01*
X27500Y662460D01*
X30040Y659920D01*
X32580D01*
Y662460D01*
X30040Y665000D01*
X32580Y667540D01*
Y670080D01*
X30040D01*
X27500Y667540D01*
X24960Y670080D01*
X22420D01*
Y667540D01*
X24960Y665000D01*
X22420Y662460D01*
Y659920D01*
X24452Y661952D02*
X25976D01*
X27500Y663476D01*
X29024Y661952D01*
X30548D01*
Y663476D01*
X29024Y665000D01*
X30548Y666524D01*
Y668048D01*
X29024D01*
X27500Y666524D01*
X25976Y668048D01*
X24452D01*
Y666524D01*
X25976Y665000D01*
X24452Y663476D01*
Y661952D01*
X22420Y709920D02*
X24960D01*
X27500Y712460D01*
X30040Y709920D01*
X32580D01*
Y712460D01*
X30040Y715000D01*
X32580Y717540D01*
Y720080D01*
X30040D01*
X27500Y717540D01*
X24960Y720080D01*
X22420D01*
Y717540D01*
X24960Y715000D01*
X22420Y712460D01*
Y709920D01*
X24452Y711952D02*
X25976D01*
X27500Y713476D01*
X29024Y711952D01*
X30548D01*
Y713476D01*
X29024Y715000D01*
X30548Y716524D01*
Y718048D01*
X29024D01*
X27500Y716524D01*
X25976Y718048D01*
X24452D01*
Y716524D01*
X25976Y715000D01*
X24452Y713476D01*
Y711952D01*
X54920Y674920D02*
X57460D01*
X60000Y677460D01*
X62540Y674920D01*
X65080D01*
Y677460D01*
X62540Y680000D01*
X65080Y682540D01*
Y685080D01*
X62540D01*
X60000Y682540D01*
X57460Y685080D01*
X54920D01*
Y682540D01*
X57460Y680000D01*
X54920Y677460D01*
Y674920D01*
X56952Y676952D02*
X58476D01*
X60000Y678476D01*
X61524Y676952D01*
X63048D01*
Y678476D01*
X61524Y680000D01*
X63048Y681524D01*
Y683048D01*
X61524D01*
X60000Y681524D01*
X58476Y683048D01*
X56952D01*
Y681524D01*
X58476Y680000D01*
X56952Y678476D01*
Y676952D01*
X82420Y739920D02*
X84960D01*
X87500Y742460D01*
X90040Y739920D01*
X92580D01*
Y742460D01*
X90040Y745000D01*
X92580Y747540D01*
Y750080D01*
X90040D01*
X87500Y747540D01*
X84960Y750080D01*
X82420D01*
Y747540D01*
X84960Y745000D01*
X82420Y742460D01*
Y739920D01*
X84452Y741952D02*
X85976D01*
X87500Y743476D01*
X89024Y741952D01*
X90548D01*
Y743476D01*
X89024Y745000D01*
X90548Y746524D01*
Y748048D01*
X89024D01*
X87500Y746524D01*
X85976Y748048D01*
X84452D01*
Y746524D01*
X85976Y745000D01*
X84452Y743476D01*
Y741952D01*
X152420Y712420D02*
X154960D01*
X157500Y714960D01*
X160040Y712420D01*
X162580D01*
Y714960D01*
X160040Y717500D01*
X162580Y720040D01*
Y722580D01*
X160040D01*
X157500Y720040D01*
X154960Y722580D01*
X152420D01*
Y720040D01*
X154960Y717500D01*
X152420Y714960D01*
Y712420D01*
X154452Y714452D02*
X155976D01*
X157500Y715976D01*
X159024Y714452D01*
X160548D01*
Y715976D01*
X159024Y717500D01*
X160548Y719024D01*
Y720548D01*
X159024D01*
X157500Y719024D01*
X155976Y720548D01*
X154452D01*
Y719024D01*
X155976Y717500D01*
X154452Y715976D01*
Y714452D01*
X194920Y734920D02*
X197460D01*
X200000Y737460D01*
X202540Y734920D01*
X205080D01*
Y737460D01*
X202540Y740000D01*
X205080Y742540D01*
Y745080D01*
X202540D01*
X200000Y742540D01*
X197460Y745080D01*
X194920D01*
Y742540D01*
X197460Y740000D01*
X194920Y737460D01*
Y734920D01*
X196952Y736952D02*
X198476D01*
X200000Y738476D01*
X201524Y736952D01*
X203048D01*
Y738476D01*
X201524Y740000D01*
X203048Y741524D01*
Y743048D01*
X201524D01*
X200000Y741524D01*
X198476Y743048D01*
X196952D01*
Y741524D01*
X198476Y740000D01*
X196952Y738476D01*
Y736952D01*
X287170Y721420D02*
X289710D01*
X292250Y723960D01*
X294790Y721420D01*
X297330D01*
Y723960D01*
X294790Y726500D01*
X297330Y729040D01*
Y731580D01*
X294790D01*
X292250Y729040D01*
X289710Y731580D01*
X287170D01*
Y729040D01*
X289710Y726500D01*
X287170Y723960D01*
Y721420D01*
X289202Y723452D02*
X290726D01*
X292250Y724976D01*
X293774Y723452D01*
X295298D01*
Y724976D01*
X293774Y726500D01*
X295298Y728024D01*
Y729548D01*
X293774D01*
X292250Y728024D01*
X290726Y729548D01*
X289202D01*
Y728024D01*
X290726Y726500D01*
X289202Y724976D01*
Y723452D01*
X262920Y899920D02*
X265460D01*
X268000Y902460D01*
X270540Y899920D01*
X273080D01*
Y902460D01*
X270540Y905000D01*
X273080Y907540D01*
Y910080D01*
X270540D01*
X268000Y907540D01*
X265460Y910080D01*
X262920D01*
Y907540D01*
X265460Y905000D01*
X262920Y902460D01*
Y899920D01*
X264952Y901952D02*
X266476D01*
X268000Y903476D01*
X269524Y901952D01*
X271048D01*
Y903476D01*
X269524Y905000D01*
X271048Y906524D01*
Y908048D01*
X269524D01*
X268000Y906524D01*
X266476Y908048D01*
X264952D01*
Y906524D01*
X266476Y905000D01*
X264952Y903476D01*
Y901952D01*
X279920Y841170D02*
X282460D01*
X285000Y843710D01*
X287540Y841170D01*
X290080D01*
Y843710D01*
X287540Y846250D01*
X290080Y848790D01*
Y851330D01*
X287540D01*
X285000Y848790D01*
X282460Y851330D01*
X279920D01*
Y848790D01*
X282460Y846250D01*
X279920Y843710D01*
Y841170D01*
X281952Y843202D02*
X283476D01*
X285000Y844726D01*
X286524Y843202D01*
X288048D01*
Y844726D01*
X286524Y846250D01*
X288048Y847774D01*
Y849298D01*
X286524D01*
X285000Y847774D01*
X283476Y849298D01*
X281952D01*
Y847774D01*
X283476Y846250D01*
X281952Y844726D01*
Y843202D01*
X266670Y949170D02*
X269210D01*
X271750Y951710D01*
X274290Y949170D01*
X276830D01*
Y951710D01*
X274290Y954250D01*
X276830Y956790D01*
Y959330D01*
X274290D01*
X271750Y956790D01*
X269210Y959330D01*
X266670D01*
Y956790D01*
X269210Y954250D01*
X266670Y951710D01*
Y949170D01*
X268702Y951202D02*
X270226D01*
X271750Y952726D01*
X273274Y951202D01*
X274798D01*
Y952726D01*
X273274Y954250D01*
X274798Y955774D01*
Y957298D01*
X273274D01*
X271750Y955774D01*
X270226Y957298D01*
X268702D01*
Y955774D01*
X270226Y954250D01*
X268702Y952726D01*
Y951202D01*
X350670Y628750D02*
X353210D01*
X355750Y631290D01*
X358290Y628750D01*
X360830D01*
Y631290D01*
X358290Y633830D01*
X360830Y636370D01*
Y638910D01*
X358290D01*
X355750Y636370D01*
X353210Y638910D01*
X350670D01*
Y636370D01*
X353210Y633830D01*
X350670Y631290D01*
Y628750D01*
X352702Y630782D02*
X354226D01*
X355750Y632306D01*
X357274Y630782D01*
X358798D01*
Y632306D01*
X357274Y633830D01*
X358798Y635354D01*
Y636878D01*
X357274D01*
X355750Y635354D01*
X354226Y636878D01*
X352702D01*
Y635354D01*
X354226Y633830D01*
X352702Y632306D01*
Y630782D01*
X324920Y784420D02*
X327460D01*
X330000Y786960D01*
X332540Y784420D01*
X335080D01*
Y786960D01*
X332540Y789500D01*
X335080Y792040D01*
Y794580D01*
X332540D01*
X330000Y792040D01*
X327460Y794580D01*
X324920D01*
Y792040D01*
X327460Y789500D01*
X324920Y786960D01*
Y784420D01*
X326952Y786452D02*
X328476D01*
X330000Y787976D01*
X331524Y786452D01*
X333048D01*
Y787976D01*
X331524Y789500D01*
X333048Y791024D01*
Y792548D01*
X331524D01*
X330000Y791024D01*
X328476Y792548D01*
X326952D01*
Y791024D01*
X328476Y789500D01*
X326952Y787976D01*
Y786452D01*
X377420Y624920D02*
X379960D01*
X382500Y627460D01*
X385040Y624920D01*
X387580D01*
Y627460D01*
X385040Y630000D01*
X387580Y632540D01*
Y635080D01*
X385040D01*
X382500Y632540D01*
X379960Y635080D01*
X377420D01*
Y632540D01*
X379960Y630000D01*
X377420Y627460D01*
Y624920D01*
X379452Y626952D02*
X380976D01*
X382500Y628476D01*
X384024Y626952D01*
X385548D01*
Y628476D01*
X384024Y630000D01*
X385548Y631524D01*
Y633048D01*
X384024D01*
X382500Y631524D01*
X380976Y633048D01*
X379452D01*
Y631524D01*
X380976Y630000D01*
X379452Y628476D01*
Y626952D01*
X414920Y597420D02*
X417460D01*
X420000Y599960D01*
X422540Y597420D01*
X425080D01*
Y599960D01*
X422540Y602500D01*
X425080Y605040D01*
Y607580D01*
X422540D01*
X420000Y605040D01*
X417460Y607580D01*
X414920D01*
Y605040D01*
X417460Y602500D01*
X414920Y599960D01*
Y597420D01*
X416952Y599452D02*
X418476D01*
X420000Y600976D01*
X421524Y599452D01*
X423048D01*
Y600976D01*
X421524Y602500D01*
X423048Y604024D01*
Y605548D01*
X421524D01*
X420000Y604024D01*
X418476Y605548D01*
X416952D01*
Y604024D01*
X418476Y602500D01*
X416952Y600976D01*
Y599452D01*
X351420Y660170D02*
X353960D01*
X356500Y662710D01*
X359040Y660170D01*
X361580D01*
Y662710D01*
X359040Y665250D01*
X361580Y667790D01*
Y670330D01*
X359040D01*
X356500Y667790D01*
X353960Y670330D01*
X351420D01*
Y667790D01*
X353960Y665250D01*
X351420Y662710D01*
Y660170D01*
X353452Y662202D02*
X354976D01*
X356500Y663726D01*
X358024Y662202D01*
X359548D01*
Y663726D01*
X358024Y665250D01*
X359548Y666774D01*
Y668298D01*
X358024D01*
X356500Y666774D01*
X354976Y668298D01*
X353452D01*
Y666774D01*
X354976Y665250D01*
X353452Y663726D01*
Y662202D01*
X361670Y838170D02*
X364210D01*
X366750Y840710D01*
X369290Y838170D01*
X371830D01*
Y840710D01*
X369290Y843250D01*
X371830Y845790D01*
Y848330D01*
X369290D01*
X366750Y845790D01*
X364210Y848330D01*
X361670D01*
Y845790D01*
X364210Y843250D01*
X361670Y840710D01*
Y838170D01*
X363702Y840202D02*
X365226D01*
X366750Y841726D01*
X368274Y840202D01*
X369798D01*
Y841726D01*
X368274Y843250D01*
X369798Y844774D01*
Y846298D01*
X368274D01*
X366750Y844774D01*
X365226Y846298D01*
X363702D01*
Y844774D01*
X365226Y843250D01*
X363702Y841726D01*
Y840202D01*
X388920Y914920D02*
X391460D01*
X394000Y917460D01*
X396540Y914920D01*
X399080D01*
Y917460D01*
X396540Y920000D01*
X399080Y922540D01*
Y925080D01*
X396540D01*
X394000Y922540D01*
X391460Y925080D01*
X388920D01*
Y922540D01*
X391460Y920000D01*
X388920Y917460D01*
Y914920D01*
X390952Y916952D02*
X392476D01*
X394000Y918476D01*
X395524Y916952D01*
X397048D01*
Y918476D01*
X395524Y920000D01*
X397048Y921524D01*
Y923048D01*
X395524D01*
X394000Y921524D01*
X392476Y923048D01*
X390952D01*
Y921524D01*
X392476Y920000D01*
X390952Y918476D01*
Y916952D01*
X459920Y164920D02*
X462460D01*
X465000Y167460D01*
X467540Y164920D01*
X470080D01*
Y167460D01*
X467540Y170000D01*
X470080Y172540D01*
Y175080D01*
X467540D01*
X465000Y172540D01*
X462460Y175080D01*
X459920D01*
Y172540D01*
X462460Y170000D01*
X459920Y167460D01*
Y164920D01*
X461952Y166952D02*
X463476D01*
X465000Y168476D01*
X466524Y166952D01*
X468048D01*
Y168476D01*
X466524Y170000D01*
X468048Y171524D01*
Y173048D01*
X466524D01*
X465000Y171524D01*
X463476Y173048D01*
X461952D01*
Y171524D01*
X463476Y170000D01*
X461952Y168476D01*
Y166952D01*
X463920Y199920D02*
X466460D01*
X469000Y202460D01*
X471540Y199920D01*
X474080D01*
Y202460D01*
X471540Y205000D01*
X474080Y207540D01*
Y210080D01*
X471540D01*
X469000Y207540D01*
X466460Y210080D01*
X463920D01*
Y207540D01*
X466460Y205000D01*
X463920Y202460D01*
Y199920D01*
X465952Y201952D02*
X467476D01*
X469000Y203476D01*
X470524Y201952D01*
X472048D01*
Y203476D01*
X470524Y205000D01*
X472048Y206524D01*
Y208048D01*
X470524D01*
X469000Y206524D01*
X467476Y208048D01*
X465952D01*
Y206524D01*
X467476Y205000D01*
X465952Y203476D01*
Y201952D01*
X429920Y199920D02*
X432460D01*
X435000Y202460D01*
X437540Y199920D01*
X440080D01*
Y202460D01*
X437540Y205000D01*
X440080Y207540D01*
Y210080D01*
X437540D01*
X435000Y207540D01*
X432460Y210080D01*
X429920D01*
Y207540D01*
X432460Y205000D01*
X429920Y202460D01*
Y199920D01*
X431952Y201952D02*
X433476D01*
X435000Y203476D01*
X436524Y201952D01*
X438048D01*
Y203476D01*
X436524Y205000D01*
X438048Y206524D01*
Y208048D01*
X436524D01*
X435000Y206524D01*
X433476Y208048D01*
X431952D01*
Y206524D01*
X433476Y205000D01*
X431952Y203476D01*
Y201952D01*
X446920Y199920D02*
X449460D01*
X452000Y202460D01*
X454540Y199920D01*
X457080D01*
Y202460D01*
X454540Y205000D01*
X457080Y207540D01*
Y210080D01*
X454540D01*
X452000Y207540D01*
X449460Y210080D01*
X446920D01*
Y207540D01*
X449460Y205000D01*
X446920Y202460D01*
Y199920D01*
X448952Y201952D02*
X450476D01*
X452000Y203476D01*
X453524Y201952D01*
X455048D01*
Y203476D01*
X453524Y205000D01*
X455048Y206524D01*
Y208048D01*
X453524D01*
X452000Y206524D01*
X450476Y208048D01*
X448952D01*
Y206524D01*
X450476Y205000D01*
X448952Y203476D01*
Y201952D01*
X514920Y199920D02*
X517460D01*
X520000Y202460D01*
X522540Y199920D01*
X525080D01*
Y202460D01*
X522540Y205000D01*
X525080Y207540D01*
Y210080D01*
X522540D01*
X520000Y207540D01*
X517460Y210080D01*
X514920D01*
Y207540D01*
X517460Y205000D01*
X514920Y202460D01*
Y199920D01*
X516952Y201952D02*
X518476D01*
X520000Y203476D01*
X521524Y201952D01*
X523048D01*
Y203476D01*
X521524Y205000D01*
X523048Y206524D01*
Y208048D01*
X521524D01*
X520000Y206524D01*
X518476Y208048D01*
X516952D01*
Y206524D01*
X518476Y205000D01*
X516952Y203476D01*
Y201952D01*
X514920Y164920D02*
X517460D01*
X520000Y167460D01*
X522540Y164920D01*
X525080D01*
Y167460D01*
X522540Y170000D01*
X525080Y172540D01*
Y175080D01*
X522540D01*
X520000Y172540D01*
X517460Y175080D01*
X514920D01*
Y172540D01*
X517460Y170000D01*
X514920Y167460D01*
Y164920D01*
X516952Y166952D02*
X518476D01*
X520000Y168476D01*
X521524Y166952D01*
X523048D01*
Y168476D01*
X521524Y170000D01*
X523048Y171524D01*
Y173048D01*
X521524D01*
X520000Y171524D01*
X518476Y173048D01*
X516952D01*
Y171524D01*
X518476Y170000D01*
X516952Y168476D01*
Y166952D01*
X480920Y199920D02*
X483460D01*
X486000Y202460D01*
X488540Y199920D01*
X491080D01*
Y202460D01*
X488540Y205000D01*
X491080Y207540D01*
Y210080D01*
X488540D01*
X486000Y207540D01*
X483460Y210080D01*
X480920D01*
Y207540D01*
X483460Y205000D01*
X480920Y202460D01*
Y199920D01*
X482952Y201952D02*
X484476D01*
X486000Y203476D01*
X487524Y201952D01*
X489048D01*
Y203476D01*
X487524Y205000D01*
X489048Y206524D01*
Y208048D01*
X487524D01*
X486000Y206524D01*
X484476Y208048D01*
X482952D01*
Y206524D01*
X484476Y205000D01*
X482952Y203476D01*
Y201952D01*
X497920Y199920D02*
X500460D01*
X503000Y202460D01*
X505540Y199920D01*
X508080D01*
Y202460D01*
X505540Y205000D01*
X508080Y207540D01*
Y210080D01*
X505540D01*
X503000Y207540D01*
X500460Y210080D01*
X497920D01*
Y207540D01*
X500460Y205000D01*
X497920Y202460D01*
Y199920D01*
X499952Y201952D02*
X501476D01*
X503000Y203476D01*
X504524Y201952D01*
X506048D01*
Y203476D01*
X504524Y205000D01*
X506048Y206524D01*
Y208048D01*
X504524D01*
X503000Y206524D01*
X501476Y208048D01*
X499952D01*
Y206524D01*
X501476Y205000D01*
X499952Y203476D01*
Y201952D01*
X492420Y314920D02*
X494960D01*
X497500Y317460D01*
X500040Y314920D01*
X502580D01*
Y317460D01*
X500040Y320000D01*
X502580Y322540D01*
Y325080D01*
X500040D01*
X497500Y322540D01*
X494960Y325080D01*
X492420D01*
Y322540D01*
X494960Y320000D01*
X492420Y317460D01*
Y314920D01*
X494452Y316952D02*
X495976D01*
X497500Y318476D01*
X499024Y316952D01*
X500548D01*
Y318476D01*
X499024Y320000D01*
X500548Y321524D01*
Y323048D01*
X499024D01*
X497500Y321524D01*
X495976Y323048D01*
X494452D01*
Y321524D01*
X495976Y320000D01*
X494452Y318476D01*
Y316952D01*
X548920Y199920D02*
X551460D01*
X554000Y202460D01*
X556540Y199920D01*
X559080D01*
Y202460D01*
X556540Y205000D01*
X559080Y207540D01*
Y210080D01*
X556540D01*
X554000Y207540D01*
X551460Y210080D01*
X548920D01*
Y207540D01*
X551460Y205000D01*
X548920Y202460D01*
Y199920D01*
X550952Y201952D02*
X552476D01*
X554000Y203476D01*
X555524Y201952D01*
X557048D01*
Y203476D01*
X555524Y205000D01*
X557048Y206524D01*
Y208048D01*
X555524D01*
X554000Y206524D01*
X552476Y208048D01*
X550952D01*
Y206524D01*
X552476Y205000D01*
X550952Y203476D01*
Y201952D01*
X565920Y199920D02*
X568460D01*
X571000Y202460D01*
X573540Y199920D01*
X576080D01*
Y202460D01*
X573540Y205000D01*
X576080Y207540D01*
Y210080D01*
X573540D01*
X571000Y207540D01*
X568460Y210080D01*
X565920D01*
Y207540D01*
X568460Y205000D01*
X565920Y202460D01*
Y199920D01*
X567952Y201952D02*
X569476D01*
X571000Y203476D01*
X572524Y201952D01*
X574048D01*
Y203476D01*
X572524Y205000D01*
X574048Y206524D01*
Y208048D01*
X572524D01*
X571000Y206524D01*
X569476Y208048D01*
X567952D01*
Y206524D01*
X569476Y205000D01*
X567952Y203476D01*
Y201952D01*
X531920Y199920D02*
X534460D01*
X537000Y202460D01*
X539540Y199920D01*
X542080D01*
Y202460D01*
X539540Y205000D01*
X542080Y207540D01*
Y210080D01*
X539540D01*
X537000Y207540D01*
X534460Y210080D01*
X531920D01*
Y207540D01*
X534460Y205000D01*
X531920Y202460D01*
Y199920D01*
X533952Y201952D02*
X535476D01*
X537000Y203476D01*
X538524Y201952D01*
X540048D01*
Y203476D01*
X538524Y205000D01*
X540048Y206524D01*
Y208048D01*
X538524D01*
X537000Y206524D01*
X535476Y208048D01*
X533952D01*
Y206524D01*
X535476Y205000D01*
X533952Y203476D01*
Y201952D01*
X582920Y199920D02*
X585460D01*
X588000Y202460D01*
X590540Y199920D01*
X593080D01*
Y202460D01*
X590540Y205000D01*
X593080Y207540D01*
Y210080D01*
X590540D01*
X588000Y207540D01*
X585460Y210080D01*
X582920D01*
Y207540D01*
X585460Y205000D01*
X582920Y202460D01*
Y199920D01*
X584952Y201952D02*
X586476D01*
X588000Y203476D01*
X589524Y201952D01*
X591048D01*
Y203476D01*
X589524Y205000D01*
X591048Y206524D01*
Y208048D01*
X589524D01*
X588000Y206524D01*
X586476Y208048D01*
X584952D01*
Y206524D01*
X586476Y205000D01*
X584952Y203476D01*
Y201952D01*
X555420Y524670D02*
X557960D01*
X560500Y527210D01*
X563040Y524670D01*
X565580D01*
Y527210D01*
X563040Y529750D01*
X565580Y532290D01*
Y534830D01*
X563040D01*
X560500Y532290D01*
X557960Y534830D01*
X555420D01*
Y532290D01*
X557960Y529750D01*
X555420Y527210D01*
Y524670D01*
X557452Y526702D02*
X558976D01*
X560500Y528226D01*
X562024Y526702D01*
X563548D01*
Y528226D01*
X562024Y529750D01*
X563548Y531274D01*
Y532798D01*
X562024D01*
X560500Y531274D01*
X558976Y532798D01*
X557452D01*
Y531274D01*
X558976Y529750D01*
X557452Y528226D01*
Y526702D01*
X622020Y101520D02*
X624560D01*
X627100Y104060D01*
X629640Y101520D01*
X632180D01*
Y104060D01*
X629640Y106600D01*
X632180Y109140D01*
Y111680D01*
X629640D01*
X627100Y109140D01*
X624560Y111680D01*
X622020D01*
Y109140D01*
X624560Y106600D01*
X622020Y104060D01*
Y101520D01*
X624052Y103552D02*
X625576D01*
X627100Y105076D01*
X628624Y103552D01*
X630148D01*
Y105076D01*
X628624Y106600D01*
X630148Y108124D01*
Y109648D01*
X628624D01*
X627100Y108124D01*
X625576Y109648D01*
X624052D01*
Y108124D01*
X625576Y106600D01*
X624052Y105076D01*
Y103552D01*
X643920Y121920D02*
X646460D01*
X649000Y124460D01*
X651540Y121920D01*
X654080D01*
Y124460D01*
X651540Y127000D01*
X654080Y129540D01*
Y132080D01*
X651540D01*
X649000Y129540D01*
X646460Y132080D01*
X643920D01*
Y129540D01*
X646460Y127000D01*
X643920Y124460D01*
Y121920D01*
X645952Y123952D02*
X647476D01*
X649000Y125476D01*
X650524Y123952D01*
X652048D01*
Y125476D01*
X650524Y127000D01*
X652048Y128524D01*
Y130048D01*
X650524D01*
X649000Y128524D01*
X647476Y130048D01*
X645952D01*
Y128524D01*
X647476Y127000D01*
X645952Y125476D01*
Y123952D01*
X599920Y199920D02*
X602460D01*
X605000Y202460D01*
X607540Y199920D01*
X610080D01*
Y202460D01*
X607540Y205000D01*
X610080Y207540D01*
Y210080D01*
X607540D01*
X605000Y207540D01*
X602460Y210080D01*
X599920D01*
Y207540D01*
X602460Y205000D01*
X599920Y202460D01*
Y199920D01*
X601952Y201952D02*
X603476D01*
X605000Y203476D01*
X606524Y201952D01*
X608048D01*
Y203476D01*
X606524Y205000D01*
X608048Y206524D01*
Y208048D01*
X606524D01*
X605000Y206524D01*
X603476Y208048D01*
X601952D01*
Y206524D01*
X603476Y205000D01*
X601952Y203476D01*
Y201952D01*
X643920Y155920D02*
X646460D01*
X649000Y158460D01*
X651540Y155920D01*
X654080D01*
Y158460D01*
X651540Y161000D01*
X654080Y163540D01*
Y166080D01*
X651540D01*
X649000Y163540D01*
X646460Y166080D01*
X643920D01*
Y163540D01*
X646460Y161000D01*
X643920Y158460D01*
Y155920D01*
X645952Y157952D02*
X647476D01*
X649000Y159476D01*
X650524Y157952D01*
X652048D01*
Y159476D01*
X650524Y161000D01*
X652048Y162524D01*
Y164048D01*
X650524D01*
X649000Y162524D01*
X647476Y164048D01*
X645952D01*
Y162524D01*
X647476Y161000D01*
X645952Y159476D01*
Y157952D01*
X643920Y138920D02*
X646460D01*
X649000Y141460D01*
X651540Y138920D01*
X654080D01*
Y141460D01*
X651540Y144000D01*
X654080Y146540D01*
Y149080D01*
X651540D01*
X649000Y146540D01*
X646460Y149080D01*
X643920D01*
Y146540D01*
X646460Y144000D01*
X643920Y141460D01*
Y138920D01*
X645952Y140952D02*
X647476D01*
X649000Y142476D01*
X650524Y140952D01*
X652048D01*
Y142476D01*
X650524Y144000D01*
X652048Y145524D01*
Y147048D01*
X650524D01*
X649000Y145524D01*
X647476Y147048D01*
X645952D01*
Y145524D01*
X647476Y144000D01*
X645952Y142476D01*
Y140952D01*
X630920Y185920D02*
X633460D01*
X636000Y188460D01*
X638540Y185920D01*
X641080D01*
Y188460D01*
X638540Y191000D01*
X641080Y193540D01*
Y196080D01*
X638540D01*
X636000Y193540D01*
X633460Y196080D01*
X630920D01*
Y193540D01*
X633460Y191000D01*
X630920Y188460D01*
Y185920D01*
X632952Y187952D02*
X634476D01*
X636000Y189476D01*
X637524Y187952D01*
X639048D01*
Y189476D01*
X637524Y191000D01*
X639048Y192524D01*
Y194048D01*
X637524D01*
X636000Y192524D01*
X634476Y194048D01*
X632952D01*
Y192524D01*
X634476Y191000D01*
X632952Y189476D01*
Y187952D01*
X643920Y172920D02*
X646460D01*
X649000Y175460D01*
X651540Y172920D01*
X654080D01*
Y175460D01*
X651540Y178000D01*
X654080Y180540D01*
Y183080D01*
X651540D01*
X649000Y180540D01*
X646460Y183080D01*
X643920D01*
Y180540D01*
X646460Y178000D01*
X643920Y175460D01*
Y172920D01*
X645952Y174952D02*
X647476D01*
X649000Y176476D01*
X650524Y174952D01*
X652048D01*
Y176476D01*
X650524Y178000D01*
X652048Y179524D01*
Y181048D01*
X650524D01*
X649000Y179524D01*
X647476Y181048D01*
X645952D01*
Y179524D01*
X647476Y178000D01*
X645952Y176476D01*
Y174952D01*
X655920Y41920D02*
X658460D01*
X661000Y44460D01*
X663540Y41920D01*
X666080D01*
Y44460D01*
X663540Y47000D01*
X666080Y49540D01*
Y52080D01*
X663540D01*
X661000Y49540D01*
X658460Y52080D01*
X655920D01*
Y49540D01*
X658460Y47000D01*
X655920Y44460D01*
Y41920D01*
X657952Y43952D02*
X659476D01*
X661000Y45476D01*
X662524Y43952D01*
X664048D01*
Y45476D01*
X662524Y47000D01*
X664048Y48524D01*
Y50048D01*
X662524D01*
X661000Y48524D01*
X659476Y50048D01*
X657952D01*
Y48524D01*
X659476Y47000D01*
X657952Y45476D01*
Y43952D01*
X655920Y75920D02*
X658460D01*
X661000Y78460D01*
X663540Y75920D01*
X666080D01*
Y78460D01*
X663540Y81000D01*
X666080Y83540D01*
Y86080D01*
X663540D01*
X661000Y83540D01*
X658460Y86080D01*
X655920D01*
Y83540D01*
X658460Y81000D01*
X655920Y78460D01*
Y75920D01*
X657952Y77952D02*
X659476D01*
X661000Y79476D01*
X662524Y77952D01*
X664048D01*
Y79476D01*
X662524Y81000D01*
X664048Y82524D01*
Y84048D01*
X662524D01*
X661000Y82524D01*
X659476Y84048D01*
X657952D01*
Y82524D01*
X659476Y81000D01*
X657952Y79476D01*
Y77952D01*
X655920Y58920D02*
X658460D01*
X661000Y61460D01*
X663540Y58920D01*
X666080D01*
Y61460D01*
X663540Y64000D01*
X666080Y66540D01*
Y69080D01*
X663540D01*
X661000Y66540D01*
X658460Y69080D01*
X655920D01*
Y66540D01*
X658460Y64000D01*
X655920Y61460D01*
Y58920D01*
X657952Y60952D02*
X659476D01*
X661000Y62476D01*
X662524Y60952D01*
X664048D01*
Y62476D01*
X662524Y64000D01*
X664048Y65524D01*
Y67048D01*
X662524D01*
X661000Y65524D01*
X659476Y67048D01*
X657952D01*
Y65524D01*
X659476Y64000D01*
X657952Y62476D01*
Y60952D01*
X643920Y87920D02*
X646460D01*
X649000Y90460D01*
X651540Y87920D01*
X654080D01*
Y90460D01*
X651540Y93000D01*
X654080Y95540D01*
Y98080D01*
X651540D01*
X649000Y95540D01*
X646460Y98080D01*
X643920D01*
Y95540D01*
X646460Y93000D01*
X643920Y90460D01*
Y87920D01*
X645952Y89952D02*
X647476D01*
X649000Y91476D01*
X650524Y89952D01*
X652048D01*
Y91476D01*
X650524Y93000D01*
X652048Y94524D01*
Y96048D01*
X650524D01*
X649000Y94524D01*
X647476Y96048D01*
X645952D01*
Y94524D01*
X647476Y93000D01*
X645952Y91476D01*
Y89952D01*
X643920Y104920D02*
X646460D01*
X649000Y107460D01*
X651540Y104920D01*
X654080D01*
Y107460D01*
X651540Y110000D01*
X654080Y112540D01*
Y115080D01*
X651540D01*
X649000Y112540D01*
X646460Y115080D01*
X643920D01*
Y112540D01*
X646460Y110000D01*
X643920Y107460D01*
Y104920D01*
X645952Y106952D02*
X647476D01*
X649000Y108476D01*
X650524Y106952D01*
X652048D01*
Y108476D01*
X650524Y110000D01*
X652048Y111524D01*
Y113048D01*
X650524D01*
X649000Y111524D01*
X647476Y113048D01*
X645952D01*
Y111524D01*
X647476Y110000D01*
X645952Y108476D01*
Y106952D01*
X616920Y199920D02*
X619460D01*
X622000Y202460D01*
X624540Y199920D01*
X627080D01*
Y202460D01*
X624540Y205000D01*
X627080Y207540D01*
Y210080D01*
X624540D01*
X622000Y207540D01*
X619460Y210080D01*
X616920D01*
Y207540D01*
X619460Y205000D01*
X616920Y202460D01*
Y199920D01*
X618952Y201952D02*
X620476D01*
X622000Y203476D01*
X623524Y201952D01*
X625048D01*
Y203476D01*
X623524Y205000D01*
X625048Y206524D01*
Y208048D01*
X623524D01*
X622000Y206524D01*
X620476Y208048D01*
X618952D01*
Y206524D01*
X620476Y205000D01*
X618952Y203476D01*
Y201952D01*
X707420Y529920D02*
X709960D01*
X712500Y532460D01*
X715040Y529920D01*
X717580D01*
Y532460D01*
X715040Y535000D01*
X717580Y537540D01*
Y540080D01*
X715040D01*
X712500Y537540D01*
X709960Y540080D01*
X707420D01*
Y537540D01*
X709960Y535000D01*
X707420Y532460D01*
Y529920D01*
X709452Y531952D02*
X710976D01*
X712500Y533476D01*
X714024Y531952D01*
X715548D01*
Y533476D01*
X714024Y535000D01*
X715548Y536524D01*
Y538048D01*
X714024D01*
X712500Y536524D01*
X710976Y538048D01*
X709452D01*
Y536524D01*
X710976Y535000D01*
X709452Y533476D01*
Y531952D01*
X792420Y504920D02*
X794960D01*
X797500Y507460D01*
X800040Y504920D01*
X802580D01*
Y507460D01*
X800040Y510000D01*
X802580Y512540D01*
Y515080D01*
X800040D01*
X797500Y512540D01*
X794960Y515080D01*
X792420D01*
Y512540D01*
X794960Y510000D01*
X792420Y507460D01*
Y504920D01*
X794452Y506952D02*
X795976D01*
X797500Y508476D01*
X799024Y506952D01*
X800548D01*
Y508476D01*
X799024Y510000D01*
X800548Y511524D01*
Y513048D01*
X799024D01*
X797500Y511524D01*
X795976Y513048D01*
X794452D01*
Y511524D01*
X795976Y510000D01*
X794452Y508476D01*
Y506952D01*
X451420Y590920D02*
X453960D01*
X456500Y593460D01*
X459040Y590920D01*
X461580D01*
Y593460D01*
X459040Y596000D01*
X461580Y598540D01*
Y601080D01*
X459040D01*
X456500Y598540D01*
X453960Y601080D01*
X451420D01*
Y598540D01*
X453960Y596000D01*
X451420Y593460D01*
Y590920D01*
X453452Y592952D02*
X454976D01*
X456500Y594476D01*
X458024Y592952D01*
X459548D01*
Y594476D01*
X458024Y596000D01*
X459548Y597524D01*
Y599048D01*
X458024D01*
X456500Y597524D01*
X454976Y599048D01*
X453452D01*
Y597524D01*
X454976Y596000D01*
X453452Y594476D01*
Y592952D01*
X482420Y597420D02*
X484960D01*
X487500Y599960D01*
X490040Y597420D01*
X492580D01*
Y599960D01*
X490040Y602500D01*
X492580Y605040D01*
Y607580D01*
X490040D01*
X487500Y605040D01*
X484960Y607580D01*
X482420D01*
Y605040D01*
X484960Y602500D01*
X482420Y599960D01*
Y597420D01*
X484452Y599452D02*
X485976D01*
X487500Y600976D01*
X489024Y599452D01*
X490548D01*
Y600976D01*
X489024Y602500D01*
X490548Y604024D01*
Y605548D01*
X489024D01*
X487500Y604024D01*
X485976Y605548D01*
X484452D01*
Y604024D01*
X485976Y602500D01*
X484452Y600976D01*
Y599452D01*
X459920Y761420D02*
X462460D01*
X465000Y763960D01*
X467540Y761420D01*
X470080D01*
Y763960D01*
X467540Y766500D01*
X470080Y769040D01*
Y771580D01*
X467540D01*
X465000Y769040D01*
X462460Y771580D01*
X459920D01*
Y769040D01*
X462460Y766500D01*
X459920Y763960D01*
Y761420D01*
X461952Y763452D02*
X463476D01*
X465000Y764976D01*
X466524Y763452D01*
X468048D01*
Y764976D01*
X466524Y766500D01*
X468048Y768024D01*
Y769548D01*
X466524D01*
X465000Y768024D01*
X463476Y769548D01*
X461952D01*
Y768024D01*
X463476Y766500D01*
X461952Y764976D01*
Y763452D01*
X451920Y891920D02*
X454460D01*
X457000Y894460D01*
X459540Y891920D01*
X462080D01*
Y894460D01*
X459540Y897000D01*
X462080Y899540D01*
Y902080D01*
X459540D01*
X457000Y899540D01*
X454460Y902080D01*
X451920D01*
Y899540D01*
X454460Y897000D01*
X451920Y894460D01*
Y891920D01*
X453952Y893952D02*
X455476D01*
X457000Y895476D01*
X458524Y893952D01*
X460048D01*
Y895476D01*
X458524Y897000D01*
X460048Y898524D01*
Y900048D01*
X458524D01*
X457000Y898524D01*
X455476Y900048D01*
X453952D01*
Y898524D01*
X455476Y897000D01*
X453952Y895476D01*
Y893952D01*
X611670Y651920D02*
X614210D01*
X616750Y654460D01*
X619290Y651920D01*
X621830D01*
Y654460D01*
X619290Y657000D01*
X621830Y659540D01*
Y662080D01*
X619290D01*
X616750Y659540D01*
X614210Y662080D01*
X611670D01*
Y659540D01*
X614210Y657000D01*
X611670Y654460D01*
Y651920D01*
X613702Y653952D02*
X615226D01*
X616750Y655476D01*
X618274Y653952D01*
X619798D01*
Y655476D01*
X618274Y657000D01*
X619798Y658524D01*
Y660048D01*
X618274D01*
X616750Y658524D01*
X615226Y660048D01*
X613702D01*
Y658524D01*
X615226Y657000D01*
X613702Y655476D01*
Y653952D01*
X699920Y582420D02*
X702460D01*
X705000Y584960D01*
X707540Y582420D01*
X710080D01*
Y584960D01*
X707540Y587500D01*
X710080Y590040D01*
Y592580D01*
X707540D01*
X705000Y590040D01*
X702460Y592580D01*
X699920D01*
Y590040D01*
X702460Y587500D01*
X699920Y584960D01*
Y582420D01*
X701952Y584452D02*
X703476D01*
X705000Y585976D01*
X706524Y584452D01*
X708048D01*
Y585976D01*
X706524Y587500D01*
X708048Y589024D01*
Y590548D01*
X706524D01*
X705000Y589024D01*
X703476Y590548D01*
X701952D01*
Y589024D01*
X703476Y587500D01*
X701952Y585976D01*
Y584452D01*
X779920Y722420D02*
X782460D01*
X785000Y724960D01*
X787540Y722420D01*
X790080D01*
Y724960D01*
X787540Y727500D01*
X790080Y730040D01*
Y732580D01*
X787540D01*
X785000Y730040D01*
X782460Y732580D01*
X779920D01*
Y730040D01*
X782460Y727500D01*
X779920Y724960D01*
Y722420D01*
X781952Y724452D02*
X783476D01*
X785000Y725976D01*
X786524Y724452D01*
X788048D01*
Y725976D01*
X786524Y727500D01*
X788048Y729024D01*
Y730548D01*
X786524D01*
X785000Y729024D01*
X783476Y730548D01*
X781952D01*
Y729024D01*
X783476Y727500D01*
X781952Y725976D01*
Y724452D01*
X817420Y729920D02*
X819960D01*
X822500Y732460D01*
X825040Y729920D01*
X827580D01*
Y732460D01*
X825040Y735000D01*
X827580Y737540D01*
Y740080D01*
X825040D01*
X822500Y737540D01*
X819960Y740080D01*
X817420D01*
Y737540D01*
X819960Y735000D01*
X817420Y732460D01*
Y729920D01*
X819452Y731952D02*
X820976D01*
X822500Y733476D01*
X824024Y731952D01*
X825548D01*
Y733476D01*
X824024Y735000D01*
X825548Y736524D01*
Y738048D01*
X824024D01*
X822500Y736524D01*
X820976Y738048D01*
X819452D01*
Y736524D01*
X820976Y735000D01*
X819452Y733476D01*
Y731952D01*
X854920Y612420D02*
X857460D01*
X860000Y614960D01*
X862540Y612420D01*
X865080D01*
Y614960D01*
X862540Y617500D01*
X865080Y620040D01*
Y622580D01*
X862540D01*
X860000Y620040D01*
X857460Y622580D01*
X854920D01*
Y620040D01*
X857460Y617500D01*
X854920Y614960D01*
Y612420D01*
X856952Y614452D02*
X858476D01*
X860000Y615976D01*
X861524Y614452D01*
X863048D01*
Y615976D01*
X861524Y617500D01*
X863048Y619024D01*
Y620548D01*
X861524D01*
X860000Y619024D01*
X858476Y620548D01*
X856952D01*
Y619024D01*
X858476Y617500D01*
X856952Y615976D01*
Y614452D01*
X873170Y716670D02*
X875710D01*
X878250Y719210D01*
X880790Y716670D01*
X883330D01*
Y719210D01*
X880790Y721750D01*
X883330Y724290D01*
Y726830D01*
X880790D01*
X878250Y724290D01*
X875710Y726830D01*
X873170D01*
Y724290D01*
X875710Y721750D01*
X873170Y719210D01*
Y716670D01*
X875202Y718702D02*
X876726D01*
X878250Y720226D01*
X879774Y718702D01*
X881298D01*
Y720226D01*
X879774Y721750D01*
X881298Y723274D01*
Y724798D01*
X879774D01*
X878250Y723274D01*
X876726Y724798D01*
X875202D01*
Y723274D01*
X876726Y721750D01*
X875202Y720226D01*
Y718702D01*
X34920Y504920D02*
X37460D01*
X40000Y507460D01*
X42540Y504920D01*
X45080D01*
Y507460D01*
X42540Y510000D01*
X45080Y512540D01*
Y515080D01*
X42540D01*
X40000Y512540D01*
X37460Y515080D01*
X34920D01*
Y512540D01*
X37460Y510000D01*
X34920Y507460D01*
Y504920D01*
X36952Y506952D02*
X38476D01*
X40000Y508476D01*
X41524Y506952D01*
X43048D01*
Y508476D01*
X41524Y510000D01*
X43048Y511524D01*
Y513048D01*
X41524D01*
X40000Y511524D01*
X38476Y513048D01*
X36952D01*
Y511524D01*
X38476Y510000D01*
X36952Y508476D01*
Y506952D01*
X34920Y624920D02*
X37460D01*
X40000Y627460D01*
X42540Y624920D01*
X45080D01*
Y627460D01*
X42540Y630000D01*
X45080Y632540D01*
Y635080D01*
X42540D01*
X40000Y632540D01*
X37460Y635080D01*
X34920D01*
Y632540D01*
X37460Y630000D01*
X34920Y627460D01*
Y624920D01*
X36952Y626952D02*
X38476D01*
X40000Y628476D01*
X41524Y626952D01*
X43048D01*
Y628476D01*
X41524Y630000D01*
X43048Y631524D01*
Y633048D01*
X41524D01*
X40000Y631524D01*
X38476Y633048D01*
X36952D01*
Y631524D01*
X38476Y630000D01*
X36952Y628476D01*
Y626952D01*
X154920Y144920D02*
X157460D01*
X160000Y147460D01*
X162540Y144920D01*
X165080D01*
Y147460D01*
X162540Y150000D01*
X165080Y152540D01*
Y155080D01*
X162540D01*
X160000Y152540D01*
X157460Y155080D01*
X154920D01*
Y152540D01*
X157460Y150000D01*
X154920Y147460D01*
Y144920D01*
X156952Y146952D02*
X158476D01*
X160000Y148476D01*
X161524Y146952D01*
X163048D01*
Y148476D01*
X161524Y150000D01*
X163048Y151524D01*
Y153048D01*
X161524D01*
X160000Y151524D01*
X158476Y153048D01*
X156952D01*
Y151524D01*
X158476Y150000D01*
X156952Y148476D01*
Y146952D01*
X214920Y384920D02*
X217460D01*
X220000Y387460D01*
X222540Y384920D01*
X225080D01*
Y387460D01*
X222540Y390000D01*
X225080Y392540D01*
Y395080D01*
X222540D01*
X220000Y392540D01*
X217460Y395080D01*
X214920D01*
Y392540D01*
X217460Y390000D01*
X214920Y387460D01*
Y384920D01*
X216952Y386952D02*
X218476D01*
X220000Y388476D01*
X221524Y386952D01*
X223048D01*
Y388476D01*
X221524Y390000D01*
X223048Y391524D01*
Y393048D01*
X221524D01*
X220000Y391524D01*
X218476Y393048D01*
X216952D01*
Y391524D01*
X218476Y390000D01*
X216952Y388476D01*
Y386952D01*
X274920Y384920D02*
X277460D01*
X280000Y387460D01*
X282540Y384920D01*
X285080D01*
Y387460D01*
X282540Y390000D01*
X285080Y392540D01*
Y395080D01*
X282540D01*
X280000Y392540D01*
X277460Y395080D01*
X274920D01*
Y392540D01*
X277460Y390000D01*
X274920Y387460D01*
Y384920D01*
X276952Y386952D02*
X278476D01*
X280000Y388476D01*
X281524Y386952D01*
X283048D01*
Y388476D01*
X281524Y390000D01*
X283048Y391524D01*
Y393048D01*
X281524D01*
X280000Y391524D01*
X278476Y393048D01*
X276952D01*
Y391524D01*
X278476Y390000D01*
X276952Y388476D01*
Y386952D01*
X364920Y204920D02*
X367460D01*
X370000Y207460D01*
X372540Y204920D01*
X375080D01*
Y207460D01*
X372540Y210000D01*
X375080Y212540D01*
Y215080D01*
X372540D01*
X370000Y212540D01*
X367460Y215080D01*
X364920D01*
Y212540D01*
X367460Y210000D01*
X364920Y207460D01*
Y204920D01*
X366952Y206952D02*
X368476D01*
X370000Y208476D01*
X371524Y206952D01*
X373048D01*
Y208476D01*
X371524Y210000D01*
X373048Y211524D01*
Y213048D01*
X371524D01*
X370000Y211524D01*
X368476Y213048D01*
X366952D01*
Y211524D01*
X368476Y210000D01*
X366952Y208476D01*
Y206952D01*
X334920Y264920D02*
X337460D01*
X340000Y267460D01*
X342540Y264920D01*
X345080D01*
Y267460D01*
X342540Y270000D01*
X345080Y272540D01*
Y275080D01*
X342540D01*
X340000Y272540D01*
X337460Y275080D01*
X334920D01*
Y272540D01*
X337460Y270000D01*
X334920Y267460D01*
Y264920D01*
X336952Y266952D02*
X338476D01*
X340000Y268476D01*
X341524Y266952D01*
X343048D01*
Y268476D01*
X341524Y270000D01*
X343048Y271524D01*
Y273048D01*
X341524D01*
X340000Y271524D01*
X338476Y273048D01*
X336952D01*
Y271524D01*
X338476Y270000D01*
X336952Y268476D01*
Y266952D01*
X364920Y324920D02*
X367460D01*
X370000Y327460D01*
X372540Y324920D01*
X375080D01*
Y327460D01*
X372540Y330000D01*
X375080Y332540D01*
Y335080D01*
X372540D01*
X370000Y332540D01*
X367460Y335080D01*
X364920D01*
Y332540D01*
X367460Y330000D01*
X364920Y327460D01*
Y324920D01*
X366952Y326952D02*
X368476D01*
X370000Y328476D01*
X371524Y326952D01*
X373048D01*
Y328476D01*
X371524Y330000D01*
X373048Y331524D01*
Y333048D01*
X371524D01*
X370000Y331524D01*
X368476Y333048D01*
X366952D01*
Y331524D01*
X368476Y330000D01*
X366952Y328476D01*
Y326952D01*
X394920Y264920D02*
X397460D01*
X400000Y267460D01*
X402540Y264920D01*
X405080D01*
Y267460D01*
X402540Y270000D01*
X405080Y272540D01*
Y275080D01*
X402540D01*
X400000Y272540D01*
X397460Y275080D01*
X394920D01*
Y272540D01*
X397460Y270000D01*
X394920Y267460D01*
Y264920D01*
X396952Y266952D02*
X398476D01*
X400000Y268476D01*
X401524Y266952D01*
X403048D01*
Y268476D01*
X401524Y270000D01*
X403048Y271524D01*
Y273048D01*
X401524D01*
X400000Y271524D01*
X398476Y273048D01*
X396952D01*
Y271524D01*
X398476Y270000D01*
X396952Y268476D01*
Y266952D01*
X454920Y264920D02*
X457460D01*
X460000Y267460D01*
X462540Y264920D01*
X465080D01*
Y267460D01*
X462540Y270000D01*
X465080Y272540D01*
Y275080D01*
X462540D01*
X460000Y272540D01*
X457460Y275080D01*
X454920D01*
Y272540D01*
X457460Y270000D01*
X454920Y267460D01*
Y264920D01*
X456952Y266952D02*
X458476D01*
X460000Y268476D01*
X461524Y266952D01*
X463048D01*
Y268476D01*
X461524Y270000D01*
X463048Y271524D01*
Y273048D01*
X461524D01*
X460000Y271524D01*
X458476Y273048D01*
X456952D01*
Y271524D01*
X458476Y270000D01*
X456952Y268476D01*
Y266952D01*
X514920Y744920D02*
X517460D01*
X520000Y747460D01*
X522540Y744920D01*
X525080D01*
Y747460D01*
X522540Y750000D01*
X525080Y752540D01*
Y755080D01*
X522540D01*
X520000Y752540D01*
X517460Y755080D01*
X514920D01*
Y752540D01*
X517460Y750000D01*
X514920Y747460D01*
Y744920D01*
X516952Y746952D02*
X518476D01*
X520000Y748476D01*
X521524Y746952D01*
X523048D01*
Y748476D01*
X521524Y750000D01*
X523048Y751524D01*
Y753048D01*
X521524D01*
X520000Y751524D01*
X518476Y753048D01*
X516952D01*
Y751524D01*
X518476Y750000D01*
X516952Y748476D01*
Y746952D01*
X574920Y264920D02*
X577460D01*
X580000Y267460D01*
X582540Y264920D01*
X585080D01*
Y267460D01*
X582540Y270000D01*
X585080Y272540D01*
Y275080D01*
X582540D01*
X580000Y272540D01*
X577460Y275080D01*
X574920D01*
Y272540D01*
X577460Y270000D01*
X574920Y267460D01*
Y264920D01*
X576952Y266952D02*
X578476D01*
X580000Y268476D01*
X581524Y266952D01*
X583048D01*
Y268476D01*
X581524Y270000D01*
X583048Y271524D01*
Y273048D01*
X581524D01*
X580000Y271524D01*
X578476Y273048D01*
X576952D01*
Y271524D01*
X578476Y270000D01*
X576952Y268476D01*
Y266952D01*
X604920Y324920D02*
X607460D01*
X610000Y327460D01*
X612540Y324920D01*
X615080D01*
Y327460D01*
X612540Y330000D01*
X615080Y332540D01*
Y335080D01*
X612540D01*
X610000Y332540D01*
X607460Y335080D01*
X604920D01*
Y332540D01*
X607460Y330000D01*
X604920Y327460D01*
Y324920D01*
X606952Y326952D02*
X608476D01*
X610000Y328476D01*
X611524Y326952D01*
X613048D01*
Y328476D01*
X611524Y330000D01*
X613048Y331524D01*
Y333048D01*
X611524D01*
X610000Y331524D01*
X608476Y333048D01*
X606952D01*
Y331524D01*
X608476Y330000D01*
X606952Y328476D01*
Y326952D01*
X634920Y264920D02*
X637460D01*
X640000Y267460D01*
X642540Y264920D01*
X645080D01*
Y267460D01*
X642540Y270000D01*
X645080Y272540D01*
Y275080D01*
X642540D01*
X640000Y272540D01*
X637460Y275080D01*
X634920D01*
Y272540D01*
X637460Y270000D01*
X634920Y267460D01*
Y264920D01*
X636952Y266952D02*
X638476D01*
X640000Y268476D01*
X641524Y266952D01*
X643048D01*
Y268476D01*
X641524Y270000D01*
X643048Y271524D01*
Y273048D01*
X641524D01*
X640000Y271524D01*
X638476Y273048D01*
X636952D01*
Y271524D01*
X638476Y270000D01*
X636952Y268476D01*
Y266952D01*
X634920Y384920D02*
X637460D01*
X640000Y387460D01*
X642540Y384920D01*
X645080D01*
Y387460D01*
X642540Y390000D01*
X645080Y392540D01*
Y395080D01*
X642540D01*
X640000Y392540D01*
X637460Y395080D01*
X634920D01*
Y392540D01*
X637460Y390000D01*
X634920Y387460D01*
Y384920D01*
X636952Y386952D02*
X638476D01*
X640000Y388476D01*
X641524Y386952D01*
X643048D01*
Y388476D01*
X641524Y390000D01*
X643048Y391524D01*
Y393048D01*
X641524D01*
X640000Y391524D01*
X638476Y393048D01*
X636952D01*
Y391524D01*
X638476Y390000D01*
X636952Y388476D01*
Y386952D01*
X634920Y624920D02*
X637460D01*
X640000Y627460D01*
X642540Y624920D01*
X645080D01*
Y627460D01*
X642540Y630000D01*
X645080Y632540D01*
Y635080D01*
X642540D01*
X640000Y632540D01*
X637460Y635080D01*
X634920D01*
Y632540D01*
X637460Y630000D01*
X634920Y627460D01*
Y624920D01*
X636952Y626952D02*
X638476D01*
X640000Y628476D01*
X641524Y626952D01*
X643048D01*
Y628476D01*
X641524Y630000D01*
X643048Y631524D01*
Y633048D01*
X641524D01*
X640000Y631524D01*
X638476Y633048D01*
X636952D01*
Y631524D01*
X638476Y630000D01*
X636952Y628476D01*
Y626952D01*
X634920Y744920D02*
X637460D01*
X640000Y747460D01*
X642540Y744920D01*
X645080D01*
Y747460D01*
X642540Y750000D01*
X645080Y752540D01*
Y755080D01*
X642540D01*
X640000Y752540D01*
X637460Y755080D01*
X634920D01*
Y752540D01*
X637460Y750000D01*
X634920Y747460D01*
Y744920D01*
X636952Y746952D02*
X638476D01*
X640000Y748476D01*
X641524Y746952D01*
X643048D01*
Y748476D01*
X641524Y750000D01*
X643048Y751524D01*
Y753048D01*
X641524D01*
X640000Y751524D01*
X638476Y753048D01*
X636952D01*
Y751524D01*
X638476Y750000D01*
X636952Y748476D01*
Y746952D01*
X664920Y924920D02*
X667460D01*
X670000Y927460D01*
X672540Y924920D01*
X675080D01*
Y927460D01*
X672540Y930000D01*
X675080Y932540D01*
Y935080D01*
X672540D01*
X670000Y932540D01*
X667460Y935080D01*
X664920D01*
Y932540D01*
X667460Y930000D01*
X664920Y927460D01*
Y924920D01*
X666952Y926952D02*
X668476D01*
X670000Y928476D01*
X671524Y926952D01*
X673048D01*
Y928476D01*
X671524Y930000D01*
X673048Y931524D01*
Y933048D01*
X671524D01*
X670000Y931524D01*
X668476Y933048D01*
X666952D01*
Y931524D01*
X668476Y930000D01*
X666952Y928476D01*
Y926952D01*
X724920Y84920D02*
X727460D01*
X730000Y87460D01*
X732540Y84920D01*
X735080D01*
Y87460D01*
X732540Y90000D01*
X735080Y92540D01*
Y95080D01*
X732540D01*
X730000Y92540D01*
X727460Y95080D01*
X724920D01*
Y92540D01*
X727460Y90000D01*
X724920Y87460D01*
Y84920D01*
X726952Y86952D02*
X728476D01*
X730000Y88476D01*
X731524Y86952D01*
X733048D01*
Y88476D01*
X731524Y90000D01*
X733048Y91524D01*
Y93048D01*
X731524D01*
X730000Y91524D01*
X728476Y93048D01*
X726952D01*
Y91524D01*
X728476Y90000D01*
X726952Y88476D01*
Y86952D01*
X724920Y204920D02*
X727460D01*
X730000Y207460D01*
X732540Y204920D01*
X735080D01*
Y207460D01*
X732540Y210000D01*
X735080Y212540D01*
Y215080D01*
X732540D01*
X730000Y212540D01*
X727460Y215080D01*
X724920D01*
Y212540D01*
X727460Y210000D01*
X724920Y207460D01*
Y204920D01*
X726952Y206952D02*
X728476D01*
X730000Y208476D01*
X731524Y206952D01*
X733048D01*
Y208476D01*
X731524Y210000D01*
X733048Y211524D01*
Y213048D01*
X731524D01*
X730000Y211524D01*
X728476Y213048D01*
X726952D01*
Y211524D01*
X728476Y210000D01*
X726952Y208476D01*
Y206952D01*
X724920Y324920D02*
X727460D01*
X730000Y327460D01*
X732540Y324920D01*
X735080D01*
Y327460D01*
X732540Y330000D01*
X735080Y332540D01*
Y335080D01*
X732540D01*
X730000Y332540D01*
X727460Y335080D01*
X724920D01*
Y332540D01*
X727460Y330000D01*
X724920Y327460D01*
Y324920D01*
X726952Y326952D02*
X728476D01*
X730000Y328476D01*
X731524Y326952D01*
X733048D01*
Y328476D01*
X731524Y330000D01*
X733048Y331524D01*
Y333048D01*
X731524D01*
X730000Y331524D01*
X728476Y333048D01*
X726952D01*
Y331524D01*
X728476Y330000D01*
X726952Y328476D01*
Y326952D01*
X694920Y624920D02*
X697460D01*
X700000Y627460D01*
X702540Y624920D01*
X705080D01*
Y627460D01*
X702540Y630000D01*
X705080Y632540D01*
Y635080D01*
X702540D01*
X700000Y632540D01*
X697460Y635080D01*
X694920D01*
Y632540D01*
X697460Y630000D01*
X694920Y627460D01*
Y624920D01*
X696952Y626952D02*
X698476D01*
X700000Y628476D01*
X701524Y626952D01*
X703048D01*
Y628476D01*
X701524Y630000D01*
X703048Y631524D01*
Y633048D01*
X701524D01*
X700000Y631524D01*
X698476Y633048D01*
X696952D01*
Y631524D01*
X698476Y630000D01*
X696952Y628476D01*
Y626952D01*
X694920Y744920D02*
X697460D01*
X700000Y747460D01*
X702540Y744920D01*
X705080D01*
Y747460D01*
X702540Y750000D01*
X705080Y752540D01*
Y755080D01*
X702540D01*
X700000Y752540D01*
X697460Y755080D01*
X694920D01*
Y752540D01*
X697460Y750000D01*
X694920Y747460D01*
Y744920D01*
X696952Y746952D02*
X698476D01*
X700000Y748476D01*
X701524Y746952D01*
X703048D01*
Y748476D01*
X701524Y750000D01*
X703048Y751524D01*
Y753048D01*
X701524D01*
X700000Y751524D01*
X698476Y753048D01*
X696952D01*
Y751524D01*
X698476Y750000D01*
X696952Y748476D01*
Y746952D01*
X724920Y924920D02*
X727460D01*
X730000Y927460D01*
X732540Y924920D01*
X735080D01*
Y927460D01*
X732540Y930000D01*
X735080Y932540D01*
Y935080D01*
X732540D01*
X730000Y932540D01*
X727460Y935080D01*
X724920D01*
Y932540D01*
X727460Y930000D01*
X724920Y927460D01*
Y924920D01*
X726952Y926952D02*
X728476D01*
X730000Y928476D01*
X731524Y926952D01*
X733048D01*
Y928476D01*
X731524Y930000D01*
X733048Y931524D01*
Y933048D01*
X731524D01*
X730000Y931524D01*
X728476Y933048D01*
X726952D01*
Y931524D01*
X728476Y930000D01*
X726952Y928476D01*
Y926952D01*
X784920Y84920D02*
X787460D01*
X790000Y87460D01*
X792540Y84920D01*
X795080D01*
Y87460D01*
X792540Y90000D01*
X795080Y92540D01*
Y95080D01*
X792540D01*
X790000Y92540D01*
X787460Y95080D01*
X784920D01*
Y92540D01*
X787460Y90000D01*
X784920Y87460D01*
Y84920D01*
X786952Y86952D02*
X788476D01*
X790000Y88476D01*
X791524Y86952D01*
X793048D01*
Y88476D01*
X791524Y90000D01*
X793048Y91524D01*
Y93048D01*
X791524D01*
X790000Y91524D01*
X788476Y93048D01*
X786952D01*
Y91524D01*
X788476Y90000D01*
X786952Y88476D01*
Y86952D01*
X784920Y204920D02*
X787460D01*
X790000Y207460D01*
X792540Y204920D01*
X795080D01*
Y207460D01*
X792540Y210000D01*
X795080Y212540D01*
Y215080D01*
X792540D01*
X790000Y212540D01*
X787460Y215080D01*
X784920D01*
Y212540D01*
X787460Y210000D01*
X784920Y207460D01*
Y204920D01*
X786952Y206952D02*
X788476D01*
X790000Y208476D01*
X791524Y206952D01*
X793048D01*
Y208476D01*
X791524Y210000D01*
X793048Y211524D01*
Y213048D01*
X791524D01*
X790000Y211524D01*
X788476Y213048D01*
X786952D01*
Y211524D01*
X788476Y210000D01*
X786952Y208476D01*
Y206952D01*
X754920Y264920D02*
X757460D01*
X760000Y267460D01*
X762540Y264920D01*
X765080D01*
Y267460D01*
X762540Y270000D01*
X765080Y272540D01*
Y275080D01*
X762540D01*
X760000Y272540D01*
X757460Y275080D01*
X754920D01*
Y272540D01*
X757460Y270000D01*
X754920Y267460D01*
Y264920D01*
X756952Y266952D02*
X758476D01*
X760000Y268476D01*
X761524Y266952D01*
X763048D01*
Y268476D01*
X761524Y270000D01*
X763048Y271524D01*
Y273048D01*
X761524D01*
X760000Y271524D01*
X758476Y273048D01*
X756952D01*
Y271524D01*
X758476Y270000D01*
X756952Y268476D01*
Y266952D01*
X784920Y324920D02*
X787460D01*
X790000Y327460D01*
X792540Y324920D01*
X795080D01*
Y327460D01*
X792540Y330000D01*
X795080Y332540D01*
Y335080D01*
X792540D01*
X790000Y332540D01*
X787460Y335080D01*
X784920D01*
Y332540D01*
X787460Y330000D01*
X784920Y327460D01*
Y324920D01*
X786952Y326952D02*
X788476D01*
X790000Y328476D01*
X791524Y326952D01*
X793048D01*
Y328476D01*
X791524Y330000D01*
X793048Y331524D01*
Y333048D01*
X791524D01*
X790000Y331524D01*
X788476Y333048D01*
X786952D01*
Y331524D01*
X788476Y330000D01*
X786952Y328476D01*
Y326952D01*
X754920Y744920D02*
X757460D01*
X760000Y747460D01*
X762540Y744920D01*
X765080D01*
Y747460D01*
X762540Y750000D01*
X765080Y752540D01*
Y755080D01*
X762540D01*
X760000Y752540D01*
X757460Y755080D01*
X754920D01*
Y752540D01*
X757460Y750000D01*
X754920Y747460D01*
Y744920D01*
X756952Y746952D02*
X758476D01*
X760000Y748476D01*
X761524Y746952D01*
X763048D01*
Y748476D01*
X761524Y750000D01*
X763048Y751524D01*
Y753048D01*
X761524D01*
X760000Y751524D01*
X758476Y753048D01*
X756952D01*
Y751524D01*
X758476Y750000D01*
X756952Y748476D01*
Y746952D01*
X814920Y24920D02*
X817460D01*
X820000Y27460D01*
X822540Y24920D01*
X825080D01*
Y27460D01*
X822540Y30000D01*
X825080Y32540D01*
Y35080D01*
X822540D01*
X820000Y32540D01*
X817460Y35080D01*
X814920D01*
Y32540D01*
X817460Y30000D01*
X814920Y27460D01*
Y24920D01*
X816952Y26952D02*
X818476D01*
X820000Y28476D01*
X821524Y26952D01*
X823048D01*
Y28476D01*
X821524Y30000D01*
X823048Y31524D01*
Y33048D01*
X821524D01*
X820000Y31524D01*
X818476Y33048D01*
X816952D01*
Y31524D01*
X818476Y30000D01*
X816952Y28476D01*
Y26952D01*
X844920Y84920D02*
X847460D01*
X850000Y87460D01*
X852540Y84920D01*
X855080D01*
Y87460D01*
X852540Y90000D01*
X855080Y92540D01*
Y95080D01*
X852540D01*
X850000Y92540D01*
X847460Y95080D01*
X844920D01*
Y92540D01*
X847460Y90000D01*
X844920Y87460D01*
Y84920D01*
X846952Y86952D02*
X848476D01*
X850000Y88476D01*
X851524Y86952D01*
X853048D01*
Y88476D01*
X851524Y90000D01*
X853048Y91524D01*
Y93048D01*
X851524D01*
X850000Y91524D01*
X848476Y93048D01*
X846952D01*
Y91524D01*
X848476Y90000D01*
X846952Y88476D01*
Y86952D01*
X814920Y144920D02*
X817460D01*
X820000Y147460D01*
X822540Y144920D01*
X825080D01*
Y147460D01*
X822540Y150000D01*
X825080Y152540D01*
Y155080D01*
X822540D01*
X820000Y152540D01*
X817460Y155080D01*
X814920D01*
Y152540D01*
X817460Y150000D01*
X814920Y147460D01*
Y144920D01*
X816952Y146952D02*
X818476D01*
X820000Y148476D01*
X821524Y146952D01*
X823048D01*
Y148476D01*
X821524Y150000D01*
X823048Y151524D01*
Y153048D01*
X821524D01*
X820000Y151524D01*
X818476Y153048D01*
X816952D01*
Y151524D01*
X818476Y150000D01*
X816952Y148476D01*
Y146952D01*
X814920Y264920D02*
X817460D01*
X820000Y267460D01*
X822540Y264920D01*
X825080D01*
Y267460D01*
X822540Y270000D01*
X825080Y272540D01*
Y275080D01*
X822540D01*
X820000Y272540D01*
X817460Y275080D01*
X814920D01*
Y272540D01*
X817460Y270000D01*
X814920Y267460D01*
Y264920D01*
X816952Y266952D02*
X818476D01*
X820000Y268476D01*
X821524Y266952D01*
X823048D01*
Y268476D01*
X821524Y270000D01*
X823048Y271524D01*
Y273048D01*
X821524D01*
X820000Y271524D01*
X818476Y273048D01*
X816952D01*
Y271524D01*
X818476Y270000D01*
X816952Y268476D01*
Y266952D01*
X874920Y24920D02*
X877460D01*
X880000Y27460D01*
X882540Y24920D01*
X885080D01*
Y27460D01*
X882540Y30000D01*
X885080Y32540D01*
Y35080D01*
X882540D01*
X880000Y32540D01*
X877460Y35080D01*
X874920D01*
Y32540D01*
X877460Y30000D01*
X874920Y27460D01*
Y24920D01*
X876952Y26952D02*
X878476D01*
X880000Y28476D01*
X881524Y26952D01*
X883048D01*
Y28476D01*
X881524Y30000D01*
X883048Y31524D01*
Y33048D01*
X881524D01*
X880000Y31524D01*
X878476Y33048D01*
X876952D01*
Y31524D01*
X878476Y30000D01*
X876952Y28476D01*
Y26952D01*
X904920Y84920D02*
X907460D01*
X910000Y87460D01*
X912540Y84920D01*
X915080D01*
Y87460D01*
X912540Y90000D01*
X915080Y92540D01*
Y95080D01*
X912540D01*
X910000Y92540D01*
X907460Y95080D01*
X904920D01*
Y92540D01*
X907460Y90000D01*
X904920Y87460D01*
Y84920D01*
X906952Y86952D02*
X908476D01*
X910000Y88476D01*
X911524Y86952D01*
X913048D01*
Y88476D01*
X911524Y90000D01*
X913048Y91524D01*
Y93048D01*
X911524D01*
X910000Y91524D01*
X908476Y93048D01*
X906952D01*
Y91524D01*
X908476Y90000D01*
X906952Y88476D01*
Y86952D01*
X874920Y144920D02*
X877460D01*
X880000Y147460D01*
X882540Y144920D01*
X885080D01*
Y147460D01*
X882540Y150000D01*
X885080Y152540D01*
Y155080D01*
X882540D01*
X880000Y152540D01*
X877460Y155080D01*
X874920D01*
Y152540D01*
X877460Y150000D01*
X874920Y147460D01*
Y144920D01*
X876952Y146952D02*
X878476D01*
X880000Y148476D01*
X881524Y146952D01*
X883048D01*
Y148476D01*
X881524Y150000D01*
X883048Y151524D01*
Y153048D01*
X881524D01*
X880000Y151524D01*
X878476Y153048D01*
X876952D01*
Y151524D01*
X878476Y150000D01*
X876952Y148476D01*
Y146952D01*
X904920Y204920D02*
X907460D01*
X910000Y207460D01*
X912540Y204920D01*
X915080D01*
Y207460D01*
X912540Y210000D01*
X915080Y212540D01*
Y215080D01*
X912540D01*
X910000Y212540D01*
X907460Y215080D01*
X904920D01*
Y212540D01*
X907460Y210000D01*
X904920Y207460D01*
Y204920D01*
X906952Y206952D02*
X908476D01*
X910000Y208476D01*
X911524Y206952D01*
X913048D01*
Y208476D01*
X911524Y210000D01*
X913048Y211524D01*
Y213048D01*
X911524D01*
X910000Y211524D01*
X908476Y213048D01*
X906952D01*
Y211524D01*
X908476Y210000D01*
X906952Y208476D01*
Y206952D01*
X874920Y264920D02*
X877460D01*
X880000Y267460D01*
X882540Y264920D01*
X885080D01*
Y267460D01*
X882540Y270000D01*
X885080Y272540D01*
Y275080D01*
X882540D01*
X880000Y272540D01*
X877460Y275080D01*
X874920D01*
Y272540D01*
X877460Y270000D01*
X874920Y267460D01*
Y264920D01*
X876952Y266952D02*
X878476D01*
X880000Y268476D01*
X881524Y266952D01*
X883048D01*
Y268476D01*
X881524Y270000D01*
X883048Y271524D01*
Y273048D01*
X881524D01*
X880000Y271524D01*
X878476Y273048D01*
X876952D01*
Y271524D01*
X878476Y270000D01*
X876952Y268476D01*
Y266952D01*
X934920Y24920D02*
X937460D01*
X940000Y27460D01*
X942540Y24920D01*
X945080D01*
Y27460D01*
X942540Y30000D01*
X945080Y32540D01*
Y35080D01*
X942540D01*
X940000Y32540D01*
X937460Y35080D01*
X934920D01*
Y32540D01*
X937460Y30000D01*
X934920Y27460D01*
Y24920D01*
X936952Y26952D02*
X938476D01*
X940000Y28476D01*
X941524Y26952D01*
X943048D01*
Y28476D01*
X941524Y30000D01*
X943048Y31524D01*
Y33048D01*
X941524D01*
X940000Y31524D01*
X938476Y33048D01*
X936952D01*
Y31524D01*
X938476Y30000D01*
X936952Y28476D01*
Y26952D01*
X964920Y84920D02*
X967460D01*
X970000Y87460D01*
X972540Y84920D01*
X975080D01*
Y87460D01*
X972540Y90000D01*
X975080Y92540D01*
Y95080D01*
X972540D01*
X970000Y92540D01*
X967460Y95080D01*
X964920D01*
Y92540D01*
X967460Y90000D01*
X964920Y87460D01*
Y84920D01*
X966952Y86952D02*
X968476D01*
X970000Y88476D01*
X971524Y86952D01*
X973048D01*
Y88476D01*
X971524Y90000D01*
X973048Y91524D01*
Y93048D01*
X971524D01*
X970000Y91524D01*
X968476Y93048D01*
X966952D01*
Y91524D01*
X968476Y90000D01*
X966952Y88476D01*
Y86952D01*
X934920Y264920D02*
X937460D01*
X940000Y267460D01*
X942540Y264920D01*
X945080D01*
Y267460D01*
X942540Y270000D01*
X945080Y272540D01*
Y275080D01*
X942540D01*
X940000Y272540D01*
X937460Y275080D01*
X934920D01*
Y272540D01*
X937460Y270000D01*
X934920Y267460D01*
Y264920D01*
X936952Y266952D02*
X938476D01*
X940000Y268476D01*
X941524Y266952D01*
X943048D01*
Y268476D01*
X941524Y270000D01*
X943048Y271524D01*
Y273048D01*
X941524D01*
X940000Y271524D01*
X938476Y273048D01*
X936952D01*
Y271524D01*
X938476Y270000D01*
X936952Y268476D01*
Y266952D01*
X735896Y504920D02*
X738436D01*
X740976Y507460D01*
X743516Y504920D01*
X746056D01*
Y507460D01*
X743516Y510000D01*
X746056Y512540D01*
Y515080D01*
X743516D01*
X740976Y512540D01*
X738436Y515080D01*
X735896D01*
Y512540D01*
X738436Y510000D01*
X735896Y507460D01*
Y504920D01*
X737928Y506952D02*
X739452D01*
X740976Y508476D01*
X742500Y506952D01*
X744024D01*
Y508476D01*
X742500Y510000D01*
X744024Y511524D01*
Y513048D01*
X742500D01*
X740976Y511524D01*
X739452Y513048D01*
X737928D01*
Y511524D01*
X739452Y510000D01*
X737928Y508476D01*
Y506952D01*
X735973Y384680D02*
X738513D01*
X741053Y387220D01*
X743593Y384680D01*
X746133D01*
Y387220D01*
X743593Y389760D01*
X746133Y392300D01*
Y394840D01*
X743593D01*
X741053Y392300D01*
X738513Y394840D01*
X735973D01*
Y392300D01*
X738513Y389760D01*
X735973Y387220D01*
Y384680D01*
X738005Y386712D02*
X739529D01*
X741053Y388236D01*
X742577Y386712D01*
X744101D01*
Y388236D01*
X742577Y389760D01*
X744101Y391284D01*
Y392808D01*
X742577D01*
X741053Y391284D01*
X739529Y392808D01*
X738005D01*
Y391284D01*
X739529Y389760D01*
X738005Y388236D01*
Y386712D01*
X733194Y444920D02*
X735734D01*
X738274Y447460D01*
X740814Y444920D01*
X743354D01*
Y447460D01*
X740814Y450000D01*
X743354Y452540D01*
Y455080D01*
X740814D01*
X738274Y452540D01*
X735734Y455080D01*
X733194D01*
Y452540D01*
X735734Y450000D01*
X733194Y447460D01*
Y444920D01*
X735226Y446952D02*
X736750D01*
X738274Y448476D01*
X739798Y446952D01*
X741322D01*
Y448476D01*
X739798Y450000D01*
X741322Y451524D01*
Y453048D01*
X739798D01*
X738274Y451524D01*
X736750Y453048D01*
X735226D01*
Y451524D01*
X736750Y450000D01*
X735226Y448476D01*
Y446952D01*
X844920Y444920D02*
X847460D01*
X850000Y447460D01*
X852540Y444920D01*
X855080D01*
Y447460D01*
X852540Y450000D01*
X855080Y452540D01*
Y455080D01*
X852540D01*
X850000Y452540D01*
X847460Y455080D01*
X844920D01*
Y452540D01*
X847460Y450000D01*
X844920Y447460D01*
Y444920D01*
X846952Y446952D02*
X848476D01*
X850000Y448476D01*
X851524Y446952D01*
X853048D01*
Y448476D01*
X851524Y450000D01*
X853048Y451524D01*
Y453048D01*
X851524D01*
X850000Y451524D01*
X848476Y453048D01*
X846952D01*
Y451524D01*
X848476Y450000D01*
X846952Y448476D01*
Y446952D01*
X862008Y342008D02*
X864548D01*
X867088Y344548D01*
X869628Y342008D01*
X872168D01*
Y344548D01*
X869628Y347088D01*
X872168Y349628D01*
Y352168D01*
X869628D01*
X867088Y349628D01*
X864548Y352168D01*
X862008D01*
Y349628D01*
X864548Y347088D01*
X862008Y344548D01*
Y342008D01*
X864040Y344040D02*
X865564D01*
X867088Y345564D01*
X868612Y344040D01*
X870136D01*
Y345564D01*
X868612Y347088D01*
X870136Y348612D01*
Y350136D01*
X868612D01*
X867088Y348612D01*
X865564Y350136D01*
X864040D01*
Y348612D01*
X865564Y347088D01*
X864040Y345564D01*
Y344040D01*
X790944Y564920D02*
X793484D01*
X796024Y567460D01*
X798564Y564920D01*
X801104D01*
Y567460D01*
X798564Y570000D01*
X801104Y572540D01*
Y575080D01*
X798564D01*
X796024Y572540D01*
X793484Y575080D01*
X790944D01*
Y572540D01*
X793484Y570000D01*
X790944Y567460D01*
Y564920D01*
X792976Y566952D02*
X794500D01*
X796024Y568476D01*
X797548Y566952D01*
X799072D01*
Y568476D01*
X797548Y570000D01*
X799072Y571524D01*
Y573048D01*
X797548D01*
X796024Y571524D01*
X794500Y573048D01*
X792976D01*
Y571524D01*
X794500Y570000D01*
X792976Y568476D01*
Y566952D01*
X790944Y444920D02*
X793484D01*
X796024Y447460D01*
X798564Y444920D01*
X801104D01*
Y447460D01*
X798564Y450000D01*
X801104Y452540D01*
Y455080D01*
X798564D01*
X796024Y452540D01*
X793484Y455080D01*
X790944D01*
Y452540D01*
X793484Y450000D01*
X790944Y447460D01*
Y444920D01*
X792976Y446952D02*
X794500D01*
X796024Y448476D01*
X797548Y446952D01*
X799072D01*
Y448476D01*
X797548Y450000D01*
X799072Y451524D01*
Y453048D01*
X797548D01*
X796024Y451524D01*
X794500Y453048D01*
X792976D01*
Y451524D01*
X794500Y450000D01*
X792976Y448476D01*
Y446952D01*
X925170Y854920D02*
X927710D01*
X930250Y857460D01*
X932790Y854920D01*
X935330D01*
Y857460D01*
X932790Y860000D01*
X935330Y862540D01*
Y865080D01*
X932790D01*
X930250Y862540D01*
X927710Y865080D01*
X925170D01*
Y862540D01*
X927710Y860000D01*
X925170Y857460D01*
Y854920D01*
X927202Y856952D02*
X928726D01*
X930250Y858476D01*
X931774Y856952D01*
X933298D01*
Y858476D01*
X931774Y860000D01*
X933298Y861524D01*
Y863048D01*
X931774D01*
X930250Y861524D01*
X928726Y863048D01*
X927202D01*
Y861524D01*
X928726Y860000D01*
X927202Y858476D01*
Y856952D01*
X810295Y869045D02*
X812835D01*
X815375Y871585D01*
X817915Y869045D01*
X820455D01*
Y871585D01*
X817915Y874125D01*
X820455Y876665D01*
Y879205D01*
X817915D01*
X815375Y876665D01*
X812835Y879205D01*
X810295D01*
Y876665D01*
X812835Y874125D01*
X810295Y871585D01*
Y869045D01*
X812327Y871077D02*
X813851D01*
X815375Y872601D01*
X816899Y871077D01*
X818423D01*
Y872601D01*
X816899Y874125D01*
X818423Y875649D01*
Y877173D01*
X816899D01*
X815375Y875649D01*
X813851Y877173D01*
X812327D01*
Y875649D01*
X813851Y874125D01*
X812327Y872601D01*
Y871077D01*
X424920Y677920D02*
X427460D01*
X430000Y680460D01*
X432540Y677920D01*
X435080D01*
Y680460D01*
X432540Y683000D01*
X435080Y685540D01*
Y688080D01*
X432540D01*
X430000Y685540D01*
X427460Y688080D01*
X424920D01*
Y685540D01*
X427460Y683000D01*
X424920Y680460D01*
Y677920D01*
X426952Y679952D02*
X428476D01*
X430000Y681476D01*
X431524Y679952D01*
X433048D01*
Y681476D01*
X431524Y683000D01*
X433048Y684524D01*
Y686048D01*
X431524D01*
X430000Y684524D01*
X428476Y686048D01*
X426952D01*
Y684524D01*
X428476Y683000D01*
X426952Y681476D01*
Y679952D01*
X510670Y717420D02*
X513210D01*
X515750Y719960D01*
X518290Y717420D01*
X520830D01*
Y719960D01*
X518290Y722500D01*
X520830Y725040D01*
Y727580D01*
X518290D01*
X515750Y725040D01*
X513210Y727580D01*
X510670D01*
Y725040D01*
X513210Y722500D01*
X510670Y719960D01*
Y717420D01*
X512702Y719452D02*
X514226D01*
X515750Y720976D01*
X517274Y719452D01*
X518798D01*
Y720976D01*
X517274Y722500D01*
X518798Y724024D01*
Y725548D01*
X517274D01*
X515750Y724024D01*
X514226Y725548D01*
X512702D01*
Y724024D01*
X514226Y722500D01*
X512702Y720976D01*
Y719452D01*
X498920Y690670D02*
X501460D01*
X504000Y693210D01*
X506540Y690670D01*
X509080D01*
Y693210D01*
X506540Y695750D01*
X509080Y698290D01*
Y700830D01*
X506540D01*
X504000Y698290D01*
X501460Y700830D01*
X498920D01*
Y698290D01*
X501460Y695750D01*
X498920Y693210D01*
Y690670D01*
X500952Y692702D02*
X502476D01*
X504000Y694226D01*
X505524Y692702D01*
X507048D01*
Y694226D01*
X505524Y695750D01*
X507048Y697274D01*
Y698798D01*
X505524D01*
X504000Y697274D01*
X502476Y698798D01*
X500952D01*
Y697274D01*
X502476Y695750D01*
X500952Y694226D01*
Y692702D01*
X401670Y755170D02*
X404210D01*
X406750Y757710D01*
X409290Y755170D01*
X411830D01*
Y757710D01*
X409290Y760250D01*
X411830Y762790D01*
Y765330D01*
X409290D01*
X406750Y762790D01*
X404210Y765330D01*
X401670D01*
Y762790D01*
X404210Y760250D01*
X401670Y757710D01*
Y755170D01*
X403702Y757202D02*
X405226D01*
X406750Y758726D01*
X408274Y757202D01*
X409798D01*
Y758726D01*
X408274Y760250D01*
X409798Y761774D01*
Y763298D01*
X408274D01*
X406750Y761774D01*
X405226Y763298D01*
X403702D01*
Y761774D01*
X405226Y760250D01*
X403702Y758726D01*
Y757202D01*
X409920Y736920D02*
X412460D01*
X415000Y739460D01*
X417540Y736920D01*
X420080D01*
Y739460D01*
X417540Y742000D01*
X420080Y744540D01*
Y747080D01*
X417540D01*
X415000Y744540D01*
X412460Y747080D01*
X409920D01*
Y744540D01*
X412460Y742000D01*
X409920Y739460D01*
Y736920D01*
X411952Y738952D02*
X413476D01*
X415000Y740476D01*
X416524Y738952D01*
X418048D01*
Y740476D01*
X416524Y742000D01*
X418048Y743524D01*
Y745048D01*
X416524D01*
X415000Y743524D01*
X413476Y745048D01*
X411952D01*
Y743524D01*
X413476Y742000D01*
X411952Y740476D01*
Y738952D01*
X727920Y952170D02*
X730460D01*
X733000Y954710D01*
X735540Y952170D01*
X738080D01*
Y954710D01*
X735540Y957250D01*
X738080Y959790D01*
Y962330D01*
X735540D01*
X733000Y959790D01*
X730460Y962330D01*
X727920D01*
Y959790D01*
X730460Y957250D01*
X727920Y954710D01*
Y952170D01*
X729952Y954202D02*
X731476D01*
X733000Y955726D01*
X734524Y954202D01*
X736048D01*
Y955726D01*
X734524Y957250D01*
X736048Y958774D01*
Y960298D01*
X734524D01*
X733000Y958774D01*
X731476Y960298D01*
X729952D01*
Y958774D01*
X731476Y957250D01*
X729952Y955726D01*
Y954202D01*
X184920Y204920D02*
X187460D01*
X190000Y207460D01*
X192540Y204920D01*
X195080D01*
Y207460D01*
X192540Y210000D01*
X195080Y212540D01*
Y215080D01*
X192540D01*
X190000Y212540D01*
X187460Y215080D01*
X184920D01*
Y212540D01*
X187460Y210000D01*
X184920Y207460D01*
Y204920D01*
X186952Y206952D02*
X188476D01*
X190000Y208476D01*
X191524Y206952D01*
X193048D01*
Y208476D01*
X191524Y210000D01*
X193048Y211524D01*
Y213048D01*
X191524D01*
X190000Y211524D01*
X188476Y213048D01*
X186952D01*
Y211524D01*
X188476Y210000D01*
X186952Y208476D01*
Y206952D01*
X184920Y179920D02*
X187460D01*
X190000Y182460D01*
X192540Y179920D01*
X195080D01*
Y182460D01*
X192540Y185000D01*
X195080Y187540D01*
Y190080D01*
X192540D01*
X190000Y187540D01*
X187460Y190080D01*
X184920D01*
Y187540D01*
X187460Y185000D01*
X184920Y182460D01*
Y179920D01*
X186952Y181952D02*
X188476D01*
X190000Y183476D01*
X191524Y181952D01*
X193048D01*
Y183476D01*
X191524Y185000D01*
X193048Y186524D01*
Y188048D01*
X191524D01*
X190000Y186524D01*
X188476Y188048D01*
X186952D01*
Y186524D01*
X188476Y185000D01*
X186952Y183476D01*
Y181952D01*
X184920Y154920D02*
X187460D01*
X190000Y157460D01*
X192540Y154920D01*
X195080D01*
Y157460D01*
X192540Y160000D01*
X195080Y162540D01*
Y165080D01*
X192540D01*
X190000Y162540D01*
X187460Y165080D01*
X184920D01*
Y162540D01*
X187460Y160000D01*
X184920Y157460D01*
Y154920D01*
X186952Y156952D02*
X188476D01*
X190000Y158476D01*
X191524Y156952D01*
X193048D01*
Y158476D01*
X191524Y160000D01*
X193048Y161524D01*
Y163048D01*
X191524D01*
X190000Y161524D01*
X188476Y163048D01*
X186952D01*
Y161524D01*
X188476Y160000D01*
X186952Y158476D01*
Y156952D01*
X209920Y154920D02*
X212460D01*
X215000Y157460D01*
X217540Y154920D01*
X220080D01*
Y157460D01*
X217540Y160000D01*
X220080Y162540D01*
Y165080D01*
X217540D01*
X215000Y162540D01*
X212460Y165080D01*
X209920D01*
Y162540D01*
X212460Y160000D01*
X209920Y157460D01*
Y154920D01*
X211952Y156952D02*
X213476D01*
X215000Y158476D01*
X216524Y156952D01*
X218048D01*
Y158476D01*
X216524Y160000D01*
X218048Y161524D01*
Y163048D01*
X216524D01*
X215000Y161524D01*
X213476Y163048D01*
X211952D01*
Y161524D01*
X213476Y160000D01*
X211952Y158476D01*
Y156952D01*
X234920Y154920D02*
X237460D01*
X240000Y157460D01*
X242540Y154920D01*
X245080D01*
Y157460D01*
X242540Y160000D01*
X245080Y162540D01*
Y165080D01*
X242540D01*
X240000Y162540D01*
X237460Y165080D01*
X234920D01*
Y162540D01*
X237460Y160000D01*
X234920Y157460D01*
Y154920D01*
X236952Y156952D02*
X238476D01*
X240000Y158476D01*
X241524Y156952D01*
X243048D01*
Y158476D01*
X241524Y160000D01*
X243048Y161524D01*
Y163048D01*
X241524D01*
X240000Y161524D01*
X238476Y163048D01*
X236952D01*
Y161524D01*
X238476Y160000D01*
X236952Y158476D01*
Y156952D01*
X234920Y204920D02*
X237460D01*
X240000Y207460D01*
X242540Y204920D01*
X245080D01*
Y207460D01*
X242540Y210000D01*
X245080Y212540D01*
Y215080D01*
X242540D01*
X240000Y212540D01*
X237460Y215080D01*
X234920D01*
Y212540D01*
X237460Y210000D01*
X234920Y207460D01*
Y204920D01*
X236952Y206952D02*
X238476D01*
X240000Y208476D01*
X241524Y206952D01*
X243048D01*
Y208476D01*
X241524Y210000D01*
X243048Y211524D01*
Y213048D01*
X241524D01*
X240000Y211524D01*
X238476Y213048D01*
X236952D01*
Y211524D01*
X238476Y210000D01*
X236952Y208476D01*
Y206952D01*
X270920Y55920D02*
X273460D01*
X276000Y58460D01*
X278540Y55920D01*
X281080D01*
Y58460D01*
X278540Y61000D01*
X281080Y63540D01*
Y66080D01*
X278540D01*
X276000Y63540D01*
X273460Y66080D01*
X270920D01*
Y63540D01*
X273460Y61000D01*
X270920Y58460D01*
Y55920D01*
X272952Y57952D02*
X274476D01*
X276000Y59476D01*
X277524Y57952D01*
X279048D01*
Y59476D01*
X277524Y61000D01*
X279048Y62524D01*
Y64048D01*
X277524D01*
X276000Y62524D01*
X274476Y64048D01*
X272952D01*
Y62524D01*
X274476Y61000D01*
X272952Y59476D01*
Y57952D01*
X335420Y359670D02*
X337960D01*
X340500Y362210D01*
X343040Y359670D01*
X345580D01*
Y362210D01*
X343040Y364750D01*
X345580Y367290D01*
Y369830D01*
X343040D01*
X340500Y367290D01*
X337960Y369830D01*
X335420D01*
Y367290D01*
X337960Y364750D01*
X335420Y362210D01*
Y359670D01*
X337452Y361702D02*
X338976D01*
X340500Y363226D01*
X342024Y361702D01*
X343548D01*
Y363226D01*
X342024Y364750D01*
X343548Y366274D01*
Y367798D01*
X342024D01*
X340500Y366274D01*
X338976Y367798D01*
X337452D01*
Y366274D01*
X338976Y364750D01*
X337452Y363226D01*
Y361702D01*
X513020Y670420D02*
X515560D01*
X518100Y672960D01*
X520640Y670420D01*
X523180D01*
Y672960D01*
X520640Y675500D01*
X523180Y678040D01*
Y680580D01*
X520640D01*
X518100Y678040D01*
X515560Y680580D01*
X513020D01*
Y678040D01*
X515560Y675500D01*
X513020Y672960D01*
Y670420D01*
X515052Y672452D02*
X516576D01*
X518100Y673976D01*
X519624Y672452D01*
X521148D01*
Y673976D01*
X519624Y675500D01*
X521148Y677024D01*
Y678548D01*
X519624D01*
X518100Y677024D01*
X516576Y678548D01*
X515052D01*
Y677024D01*
X516576Y675500D01*
X515052Y673976D01*
Y672452D01*
X317170Y675920D02*
X319710D01*
X322250Y678460D01*
X324790Y675920D01*
X327330D01*
Y678460D01*
X324790Y681000D01*
X327330Y683540D01*
Y686080D01*
X324790D01*
X322250Y683540D01*
X319710Y686080D01*
X317170D01*
Y683540D01*
X319710Y681000D01*
X317170Y678460D01*
Y675920D01*
X319202Y677952D02*
X320726D01*
X322250Y679476D01*
X323774Y677952D01*
X325298D01*
Y679476D01*
X323774Y681000D01*
X325298Y682524D01*
Y684048D01*
X323774D01*
X322250Y682524D01*
X320726Y684048D01*
X319202D01*
Y682524D01*
X320726Y681000D01*
X319202Y679476D01*
Y677952D01*
X317170Y661670D02*
X319710D01*
X322250Y664210D01*
X324790Y661670D01*
X327330D01*
Y664210D01*
X324790Y666750D01*
X327330Y669290D01*
Y671830D01*
X324790D01*
X322250Y669290D01*
X319710Y671830D01*
X317170D01*
Y669290D01*
X319710Y666750D01*
X317170Y664210D01*
Y661670D01*
X319202Y663702D02*
X320726D01*
X322250Y665226D01*
X323774Y663702D01*
X325298D01*
Y665226D01*
X323774Y666750D01*
X325298Y668274D01*
Y669798D01*
X323774D01*
X322250Y668274D01*
X320726Y669798D01*
X319202D01*
Y668274D01*
X320726Y666750D01*
X319202Y665226D01*
Y663702D01*
X513020Y656420D02*
X515560D01*
X518100Y658960D01*
X520640Y656420D01*
X523180D01*
Y658960D01*
X520640Y661500D01*
X523180Y664040D01*
Y666580D01*
X520640D01*
X518100Y664040D01*
X515560Y666580D01*
X513020D01*
Y664040D01*
X515560Y661500D01*
X513020Y658960D01*
Y656420D01*
X515052Y658452D02*
X516576D01*
X518100Y659976D01*
X519624Y658452D01*
X521148D01*
Y659976D01*
X519624Y661500D01*
X521148Y663024D01*
Y664548D01*
X519624D01*
X518100Y663024D01*
X516576Y664548D01*
X515052D01*
Y663024D01*
X516576Y661500D01*
X515052Y659976D01*
Y658452D01*
X509504Y449336D02*
X512044D01*
X514584Y451876D01*
X517124Y449336D01*
X519664D01*
Y451876D01*
X517124Y454416D01*
X519664Y456956D01*
Y459496D01*
X517124D01*
X514584Y456956D01*
X512044Y459496D01*
X509504D01*
Y456956D01*
X512044Y454416D01*
X509504Y451876D01*
Y449336D01*
X511536Y451368D02*
X513060D01*
X514584Y452892D01*
X516108Y451368D01*
X517632D01*
Y452892D01*
X516108Y454416D01*
X517632Y455940D01*
Y457464D01*
X516108D01*
X514584Y455940D01*
X513060Y457464D01*
X511536D01*
Y455940D01*
X513060Y454416D01*
X511536Y452892D01*
Y451368D01*
X876876Y414876D02*
X879416D01*
X881956Y417416D01*
X884496Y414876D01*
X887036D01*
Y417416D01*
X884496Y419956D01*
X887036Y422496D01*
Y425036D01*
X884496D01*
X881956Y422496D01*
X879416Y425036D01*
X876876D01*
Y422496D01*
X879416Y419956D01*
X876876Y417416D01*
Y414876D01*
X878908Y416908D02*
X880432D01*
X881956Y418432D01*
X883480Y416908D01*
X885004D01*
Y418432D01*
X883480Y419956D01*
X885004Y421480D01*
Y423004D01*
X883480D01*
X881956Y421480D01*
X880432Y423004D01*
X878908D01*
Y421480D01*
X880432Y419956D01*
X878908Y418432D01*
Y416908D01*
X497920Y401920D02*
X500460D01*
X503000Y404460D01*
X505540Y401920D01*
X508080D01*
Y404460D01*
X505540Y407000D01*
X508080Y409540D01*
Y412080D01*
X505540D01*
X503000Y409540D01*
X500460Y412080D01*
X497920D01*
Y409540D01*
X500460Y407000D01*
X497920Y404460D01*
Y401920D01*
X499952Y403952D02*
X501476D01*
X503000Y405476D01*
X504524Y403952D01*
X506048D01*
Y405476D01*
X504524Y407000D01*
X506048Y408524D01*
Y410048D01*
X504524D01*
X503000Y408524D01*
X501476Y410048D01*
X499952D01*
Y408524D01*
X501476Y407000D01*
X499952Y405476D01*
Y403952D01*
X853920Y900170D02*
X856460D01*
X859000Y902710D01*
X861540Y900170D01*
X864080D01*
Y902710D01*
X861540Y905250D01*
X864080Y907790D01*
Y910330D01*
X861540D01*
X859000Y907790D01*
X856460Y910330D01*
X853920D01*
Y907790D01*
X856460Y905250D01*
X853920Y902710D01*
Y900170D01*
X855952Y902202D02*
X857476D01*
X859000Y903726D01*
X860524Y902202D01*
X862048D01*
Y903726D01*
X860524Y905250D01*
X862048Y906774D01*
Y908298D01*
X860524D01*
X859000Y906774D01*
X857476Y908298D01*
X855952D01*
Y906774D01*
X857476Y905250D01*
X855952Y903726D01*
Y902202D01*
X562170Y861795D02*
X564710D01*
X567250Y864335D01*
X569790Y861795D01*
X572330D01*
Y864335D01*
X569790Y866875D01*
X572330Y869415D01*
Y871955D01*
X569790D01*
X567250Y869415D01*
X564710Y871955D01*
X562170D01*
Y869415D01*
X564710Y866875D01*
X562170Y864335D01*
Y861795D01*
X564202Y863827D02*
X565726D01*
X567250Y865351D01*
X568774Y863827D01*
X570298D01*
Y865351D01*
X568774Y866875D01*
X570298Y868399D01*
Y869923D01*
X568774D01*
X567250Y868399D01*
X565726Y869923D01*
X564202D01*
Y868399D01*
X565726Y866875D01*
X564202Y865351D01*
Y863827D01*
X857920Y852920D02*
X860460D01*
X863000Y855460D01*
X865540Y852920D01*
X868080D01*
Y855460D01*
X865540Y858000D01*
X868080Y860540D01*
Y863080D01*
X865540D01*
X863000Y860540D01*
X860460Y863080D01*
X857920D01*
Y860540D01*
X860460Y858000D01*
X857920Y855460D01*
Y852920D01*
X859952Y854952D02*
X861476D01*
X863000Y856476D01*
X864524Y854952D01*
X866048D01*
Y856476D01*
X864524Y858000D01*
X866048Y859524D01*
Y861048D01*
X864524D01*
X863000Y859524D01*
X861476Y861048D01*
X859952D01*
Y859524D01*
X861476Y858000D01*
X859952Y856476D01*
Y854952D01*
X562170Y825545D02*
X564710D01*
X567250Y828085D01*
X569790Y825545D01*
X572330D01*
Y828085D01*
X569790Y830625D01*
X572330Y833165D01*
Y835705D01*
X569790D01*
X567250Y833165D01*
X564710Y835705D01*
X562170D01*
Y833165D01*
X564710Y830625D01*
X562170Y828085D01*
Y825545D01*
X564202Y827577D02*
X565726D01*
X567250Y829101D01*
X568774Y827577D01*
X570298D01*
Y829101D01*
X568774Y830625D01*
X570298Y832149D01*
Y833673D01*
X568774D01*
X567250Y832149D01*
X565726Y833673D01*
X564202D01*
Y832149D01*
X565726Y830625D01*
X564202Y829101D01*
Y827577D01*
X421920Y799920D02*
X424460D01*
X427000Y802460D01*
X429540Y799920D01*
X432080D01*
Y802460D01*
X429540Y805000D01*
X432080Y807540D01*
Y810080D01*
X429540D01*
X427000Y807540D01*
X424460Y810080D01*
X421920D01*
Y807540D01*
X424460Y805000D01*
X421920Y802460D01*
Y799920D01*
X423952Y801952D02*
X425476D01*
X427000Y803476D01*
X428524Y801952D01*
X430048D01*
Y803476D01*
X428524Y805000D01*
X430048Y806524D01*
Y808048D01*
X428524D01*
X427000Y806524D01*
X425476Y808048D01*
X423952D01*
Y806524D01*
X425476Y805000D01*
X423952Y803476D01*
Y801952D01*
X814920Y846920D02*
X817460D01*
X820000Y849460D01*
X822540Y846920D01*
X825080D01*
Y849460D01*
X822540Y852000D01*
X825080Y854540D01*
Y857080D01*
X822540D01*
X820000Y854540D01*
X817460Y857080D01*
X814920D01*
Y854540D01*
X817460Y852000D01*
X814920Y849460D01*
Y846920D01*
X816952Y848952D02*
X818476D01*
X820000Y850476D01*
X821524Y848952D01*
X823048D01*
Y850476D01*
X821524Y852000D01*
X823048Y853524D01*
Y855048D01*
X821524D01*
X820000Y853524D01*
X818476Y855048D01*
X816952D01*
Y853524D01*
X818476Y852000D01*
X816952Y850476D01*
Y848952D01*
X562170Y807420D02*
X564710D01*
X567250Y809960D01*
X569790Y807420D01*
X572330D01*
Y809960D01*
X569790Y812500D01*
X572330Y815040D01*
Y817580D01*
X569790D01*
X567250Y815040D01*
X564710Y817580D01*
X562170D01*
Y815040D01*
X564710Y812500D01*
X562170Y809960D01*
Y807420D01*
X564202Y809452D02*
X565726D01*
X567250Y810976D01*
X568774Y809452D01*
X570298D01*
Y810976D01*
X568774Y812500D01*
X570298Y814024D01*
Y815548D01*
X568774D01*
X567250Y814024D01*
X565726Y815548D01*
X564202D01*
Y814024D01*
X565726Y812500D01*
X564202Y810976D01*
Y809452D01*
X815920Y824920D02*
X818460D01*
X821000Y827460D01*
X823540Y824920D01*
X826080D01*
Y827460D01*
X823540Y830000D01*
X826080Y832540D01*
Y835080D01*
X823540D01*
X821000Y832540D01*
X818460Y835080D01*
X815920D01*
Y832540D01*
X818460Y830000D01*
X815920Y827460D01*
Y824920D01*
X817952Y826952D02*
X819476D01*
X821000Y828476D01*
X822524Y826952D01*
X824048D01*
Y828476D01*
X822524Y830000D01*
X824048Y831524D01*
Y833048D01*
X822524D01*
X821000Y831524D01*
X819476Y833048D01*
X817952D01*
Y831524D01*
X819476Y830000D01*
X817952Y828476D01*
Y826952D01*
X439170Y800420D02*
X441710D01*
X444250Y802960D01*
X446790Y800420D01*
X449330D01*
Y802960D01*
X446790Y805500D01*
X449330Y808040D01*
Y810580D01*
X446790D01*
X444250Y808040D01*
X441710Y810580D01*
X439170D01*
Y808040D01*
X441710Y805500D01*
X439170Y802960D01*
Y800420D01*
X441202Y802452D02*
X442726D01*
X444250Y803976D01*
X445774Y802452D01*
X447298D01*
Y803976D01*
X445774Y805500D01*
X447298Y807024D01*
Y808548D01*
X445774D01*
X444250Y807024D01*
X442726Y808548D01*
X441202D01*
Y807024D01*
X442726Y805500D01*
X441202Y803976D01*
Y802452D01*
X852920Y878920D02*
X855460D01*
X858000Y881460D01*
X860540Y878920D01*
X863080D01*
Y881460D01*
X860540Y884000D01*
X863080Y886540D01*
Y889080D01*
X860540D01*
X858000Y886540D01*
X855460Y889080D01*
X852920D01*
Y886540D01*
X855460Y884000D01*
X852920Y881460D01*
Y878920D01*
X854952Y880952D02*
X856476D01*
X858000Y882476D01*
X859524Y880952D01*
X861048D01*
Y882476D01*
X859524Y884000D01*
X861048Y885524D01*
Y887048D01*
X859524D01*
X858000Y885524D01*
X856476Y887048D01*
X854952D01*
Y885524D01*
X856476Y884000D01*
X854952Y882476D01*
Y880952D01*
X562170Y843670D02*
X564710D01*
X567250Y846210D01*
X569790Y843670D01*
X572330D01*
Y846210D01*
X569790Y848750D01*
X572330Y851290D01*
Y853830D01*
X569790D01*
X567250Y851290D01*
X564710Y853830D01*
X562170D01*
Y851290D01*
X564710Y848750D01*
X562170Y846210D01*
Y843670D01*
X564202Y845702D02*
X565726D01*
X567250Y847226D01*
X568774Y845702D01*
X570298D01*
Y847226D01*
X568774Y848750D01*
X570298Y850274D01*
Y851798D01*
X568774D01*
X567250Y850274D01*
X565726Y851798D01*
X564202D01*
Y850274D01*
X565726Y848750D01*
X564202Y847226D01*
Y845702D01*
X447420Y844670D02*
X449960D01*
X452500Y847210D01*
X455040Y844670D01*
X457580D01*
Y847210D01*
X455040Y849750D01*
X457580Y852290D01*
Y854830D01*
X455040D01*
X452500Y852290D01*
X449960Y854830D01*
X447420D01*
Y852290D01*
X449960Y849750D01*
X447420Y847210D01*
Y844670D01*
X449452Y846702D02*
X450976D01*
X452500Y848226D01*
X454024Y846702D01*
X455548D01*
Y848226D01*
X454024Y849750D01*
X455548Y851274D01*
Y852798D01*
X454024D01*
X452500Y851274D01*
X450976Y852798D01*
X449452D01*
Y851274D01*
X450976Y849750D01*
X449452Y848226D01*
Y846702D01*
X405670Y435420D02*
X408210D01*
X410750Y437960D01*
X413290Y435420D01*
X415830D01*
Y437960D01*
X413290Y440500D01*
X415830Y443040D01*
Y445580D01*
X413290D01*
X410750Y443040D01*
X408210Y445580D01*
X405670D01*
Y443040D01*
X408210Y440500D01*
X405670Y437960D01*
Y435420D01*
X407702Y437452D02*
X409226D01*
X410750Y438976D01*
X412274Y437452D01*
X413798D01*
Y438976D01*
X412274Y440500D01*
X413798Y442024D01*
Y443548D01*
X412274D01*
X410750Y442024D01*
X409226Y443548D01*
X407702D01*
Y442024D01*
X409226Y440500D01*
X407702Y438976D01*
Y437452D01*
X451670Y425170D02*
X454210D01*
X456750Y427710D01*
X459290Y425170D01*
X461830D01*
Y427710D01*
X459290Y430250D01*
X461830Y432790D01*
Y435330D01*
X459290D01*
X456750Y432790D01*
X454210Y435330D01*
X451670D01*
Y432790D01*
X454210Y430250D01*
X451670Y427710D01*
Y425170D01*
X453702Y427202D02*
X455226D01*
X456750Y428726D01*
X458274Y427202D01*
X459798D01*
Y428726D01*
X458274Y430250D01*
X459798Y431774D01*
Y433298D01*
X458274D01*
X456750Y431774D01*
X455226Y433298D01*
X453702D01*
Y431774D01*
X455226Y430250D01*
X453702Y428726D01*
Y427202D01*
X366920Y682520D02*
X369460D01*
X372000Y685060D01*
X374540Y682520D01*
X377080D01*
Y685060D01*
X374540Y687600D01*
X377080Y690140D01*
Y692680D01*
X374540D01*
X372000Y690140D01*
X369460Y692680D01*
X366920D01*
Y690140D01*
X369460Y687600D01*
X366920Y685060D01*
Y682520D01*
X368952Y684552D02*
X370476D01*
X372000Y686076D01*
X373524Y684552D01*
X375048D01*
Y686076D01*
X373524Y687600D01*
X375048Y689124D01*
Y690648D01*
X373524D01*
X372000Y689124D01*
X370476Y690648D01*
X368952D01*
Y689124D01*
X370476Y687600D01*
X368952Y686076D01*
Y684552D01*
X520920Y463920D02*
X523460D01*
X526000Y466460D01*
X528540Y463920D01*
X531080D01*
Y466460D01*
X528540Y469000D01*
X531080Y471540D01*
Y474080D01*
X528540D01*
X526000Y471540D01*
X523460Y474080D01*
X520920D01*
Y471540D01*
X523460Y469000D01*
X520920Y466460D01*
Y463920D01*
X522952Y465952D02*
X524476D01*
X526000Y467476D01*
X527524Y465952D01*
X529048D01*
Y467476D01*
X527524Y469000D01*
X529048Y470524D01*
Y472048D01*
X527524D01*
X526000Y470524D01*
X524476Y472048D01*
X522952D01*
Y470524D01*
X524476Y469000D01*
X522952Y467476D01*
Y465952D01*
X382720Y530820D02*
X385260D01*
X387800Y533360D01*
X390340Y530820D01*
X392880D01*
Y533360D01*
X390340Y535900D01*
X392880Y538440D01*
Y540980D01*
X390340D01*
X387800Y538440D01*
X385260Y540980D01*
X382720D01*
Y538440D01*
X385260Y535900D01*
X382720Y533360D01*
Y530820D01*
X384752Y532852D02*
X386276D01*
X387800Y534376D01*
X389324Y532852D01*
X390848D01*
Y534376D01*
X389324Y535900D01*
X390848Y537424D01*
Y538948D01*
X389324D01*
X387800Y537424D01*
X386276Y538948D01*
X384752D01*
Y537424D01*
X386276Y535900D01*
X384752Y534376D01*
Y532852D01*
X401620Y566920D02*
X404160D01*
X406700Y569460D01*
X409240Y566920D01*
X411780D01*
Y569460D01*
X409240Y572000D01*
X411780Y574540D01*
Y577080D01*
X409240D01*
X406700Y574540D01*
X404160Y577080D01*
X401620D01*
Y574540D01*
X404160Y572000D01*
X401620Y569460D01*
Y566920D01*
X403652Y568952D02*
X405176D01*
X406700Y570476D01*
X408224Y568952D01*
X409748D01*
Y570476D01*
X408224Y572000D01*
X409748Y573524D01*
Y575048D01*
X408224D01*
X406700Y573524D01*
X405176Y575048D01*
X403652D01*
Y573524D01*
X405176Y572000D01*
X403652Y570476D01*
Y568952D01*
X387420Y377420D02*
X389960D01*
X392500Y379960D01*
X395040Y377420D01*
X397580D01*
Y379960D01*
X395040Y382500D01*
X397580Y385040D01*
Y387580D01*
X395040D01*
X392500Y385040D01*
X389960Y387580D01*
X387420D01*
Y385040D01*
X389960Y382500D01*
X387420Y379960D01*
Y377420D01*
X389452Y379452D02*
X390976D01*
X392500Y380976D01*
X394024Y379452D01*
X395548D01*
Y380976D01*
X394024Y382500D01*
X395548Y384024D01*
Y385548D01*
X394024D01*
X392500Y384024D01*
X390976Y385548D01*
X389452D01*
Y384024D01*
X390976Y382500D01*
X389452Y380976D01*
Y379452D01*
X463920Y433920D02*
X466460D01*
X469000Y436460D01*
X471540Y433920D01*
X474080D01*
Y436460D01*
X471540Y439000D01*
X474080Y441540D01*
Y444080D01*
X471540D01*
X469000Y441540D01*
X466460Y444080D01*
X463920D01*
Y441540D01*
X466460Y439000D01*
X463920Y436460D01*
Y433920D01*
X465952Y435952D02*
X467476D01*
X469000Y437476D01*
X470524Y435952D01*
X472048D01*
Y437476D01*
X470524Y439000D01*
X472048Y440524D01*
Y442048D01*
X470524D01*
X469000Y440524D01*
X467476Y442048D01*
X465952D01*
Y440524D01*
X467476Y439000D01*
X465952Y437476D01*
Y435952D01*
X392620Y541220D02*
X395160D01*
X397700Y543760D01*
X400240Y541220D01*
X402780D01*
Y543760D01*
X400240Y546300D01*
X402780Y548840D01*
Y551380D01*
X400240D01*
X397700Y548840D01*
X395160Y551380D01*
X392620D01*
Y548840D01*
X395160Y546300D01*
X392620Y543760D01*
Y541220D01*
X394652Y543252D02*
X396176D01*
X397700Y544776D01*
X399224Y543252D01*
X400748D01*
Y544776D01*
X399224Y546300D01*
X400748Y547824D01*
Y549348D01*
X399224D01*
X397700Y547824D01*
X396176Y549348D01*
X394652D01*
Y547824D01*
X396176Y546300D01*
X394652Y544776D01*
Y543252D01*
X380620Y509220D02*
X383160D01*
X385700Y511760D01*
X388240Y509220D01*
X390780D01*
Y511760D01*
X388240Y514300D01*
X390780Y516840D01*
Y519380D01*
X388240D01*
X385700Y516840D01*
X383160Y519380D01*
X380620D01*
Y516840D01*
X383160Y514300D01*
X380620Y511760D01*
Y509220D01*
X382652Y511252D02*
X384176D01*
X385700Y512776D01*
X387224Y511252D01*
X388748D01*
Y512776D01*
X387224Y514300D01*
X388748Y515824D01*
Y517348D01*
X387224D01*
X385700Y515824D01*
X384176Y517348D01*
X382652D01*
Y515824D01*
X384176Y514300D01*
X382652Y512776D01*
Y511252D01*
X475120Y442720D02*
X477660D01*
X480200Y445260D01*
X482740Y442720D01*
X485280D01*
Y445260D01*
X482740Y447800D01*
X485280Y450340D01*
Y452880D01*
X482740D01*
X480200Y450340D01*
X477660Y452880D01*
X475120D01*
Y450340D01*
X477660Y447800D01*
X475120Y445260D01*
Y442720D01*
X477152Y444752D02*
X478676D01*
X480200Y446276D01*
X481724Y444752D01*
X483248D01*
Y446276D01*
X481724Y447800D01*
X483248Y449324D01*
Y450848D01*
X481724D01*
X480200Y449324D01*
X478676Y450848D01*
X477152D01*
Y449324D01*
X478676Y447800D01*
X477152Y446276D01*
Y444752D01*
X403620Y551120D02*
X406160D01*
X408700Y553660D01*
X411240Y551120D01*
X413780D01*
Y553660D01*
X411240Y556200D01*
X413780Y558740D01*
Y561280D01*
X411240D01*
X408700Y558740D01*
X406160Y561280D01*
X403620D01*
Y558740D01*
X406160Y556200D01*
X403620Y553660D01*
Y551120D01*
X405652Y553152D02*
X407176D01*
X408700Y554676D01*
X410224Y553152D01*
X411748D01*
Y554676D01*
X410224Y556200D01*
X411748Y557724D01*
Y559248D01*
X410224D01*
X408700Y557724D01*
X407176Y559248D01*
X405652D01*
Y557724D01*
X407176Y556200D01*
X405652Y554676D01*
Y553152D01*
X697420Y674920D02*
X699960D01*
X702500Y677460D01*
X705040Y674920D01*
X707580D01*
Y677460D01*
X705040Y680000D01*
X707580Y682540D01*
Y685080D01*
X705040D01*
X702500Y682540D01*
X699960Y685080D01*
X697420D01*
Y682540D01*
X699960Y680000D01*
X697420Y677460D01*
Y674920D01*
X699452Y676952D02*
X700976D01*
X702500Y678476D01*
X704024Y676952D01*
X705548D01*
Y678476D01*
X704024Y680000D01*
X705548Y681524D01*
Y683048D01*
X704024D01*
X702500Y681524D01*
X700976Y683048D01*
X699452D01*
Y681524D01*
X700976Y680000D01*
X699452Y678476D01*
Y676952D01*
X446002Y538838D02*
X448542D01*
X451082Y541378D01*
X453622Y538838D01*
X456162D01*
Y541378D01*
X453622Y543918D01*
X456162Y546458D01*
Y548998D01*
X453622D01*
X451082Y546458D01*
X448542Y548998D01*
X446002D01*
Y546458D01*
X448542Y543918D01*
X446002Y541378D01*
Y538838D01*
X448034Y540870D02*
X449558D01*
X451082Y542394D01*
X452606Y540870D01*
X454130D01*
Y542394D01*
X452606Y543918D01*
X454130Y545442D01*
Y546966D01*
X452606D01*
X451082Y545442D01*
X449558Y546966D01*
X448034D01*
Y545442D01*
X449558Y543918D01*
X448034Y542394D01*
Y540870D01*
X539920Y474920D02*
X542460D01*
X545000Y477460D01*
X547540Y474920D01*
X550080D01*
Y477460D01*
X547540Y480000D01*
X550080Y482540D01*
Y485080D01*
X547540D01*
X545000Y482540D01*
X542460Y485080D01*
X539920D01*
Y482540D01*
X542460Y480000D01*
X539920Y477460D01*
Y474920D01*
X541952Y476952D02*
X543476D01*
X545000Y478476D01*
X546524Y476952D01*
X548048D01*
Y478476D01*
X546524Y480000D01*
X548048Y481524D01*
Y483048D01*
X546524D01*
X545000Y481524D01*
X543476Y483048D01*
X541952D01*
Y481524D01*
X543476Y480000D01*
X541952Y478476D01*
Y476952D01*
X442920Y410920D02*
X445460D01*
X448000Y413460D01*
X450540Y410920D01*
X453080D01*
Y413460D01*
X450540Y416000D01*
X453080Y418540D01*
Y421080D01*
X450540D01*
X448000Y418540D01*
X445460Y421080D01*
X442920D01*
Y418540D01*
X445460Y416000D01*
X442920Y413460D01*
Y410920D01*
X444952Y412952D02*
X446476D01*
X448000Y414476D01*
X449524Y412952D01*
X451048D01*
Y414476D01*
X449524Y416000D01*
X451048Y417524D01*
Y419048D01*
X449524D01*
X448000Y417524D01*
X446476Y419048D01*
X444952D01*
Y417524D01*
X446476Y416000D01*
X444952Y414476D01*
Y412952D01*
X371520Y520920D02*
X374060D01*
X376600Y523460D01*
X379140Y520920D01*
X381680D01*
Y523460D01*
X379140Y526000D01*
X381680Y528540D01*
Y531080D01*
X379140D01*
X376600Y528540D01*
X374060Y531080D01*
X371520D01*
Y528540D01*
X374060Y526000D01*
X371520Y523460D01*
Y520920D01*
X373552Y522952D02*
X375076D01*
X376600Y524476D01*
X378124Y522952D01*
X379648D01*
Y524476D01*
X378124Y526000D01*
X379648Y527524D01*
Y529048D01*
X378124D01*
X376600Y527524D01*
X375076Y529048D01*
X373552D01*
Y527524D01*
X375076Y526000D01*
X373552Y524476D01*
Y522952D01*
X487920Y383920D02*
X490460D01*
X493000Y386460D01*
X495540Y383920D01*
X498080D01*
Y386460D01*
X495540Y389000D01*
X498080Y391540D01*
Y394080D01*
X495540D01*
X493000Y391540D01*
X490460Y394080D01*
X487920D01*
Y391540D01*
X490460Y389000D01*
X487920Y386460D01*
Y383920D01*
X489952Y385952D02*
X491476D01*
X493000Y387476D01*
X494524Y385952D01*
X496048D01*
Y387476D01*
X494524Y389000D01*
X496048Y390524D01*
Y392048D01*
X494524D01*
X493000Y390524D01*
X491476Y392048D01*
X489952D01*
Y390524D01*
X491476Y389000D01*
X489952Y387476D01*
Y385952D01*
X407420Y472420D02*
X409960D01*
X412500Y474960D01*
X415040Y472420D01*
X417580D01*
Y474960D01*
X415040Y477500D01*
X417580Y480040D01*
Y482580D01*
X415040D01*
X412500Y480040D01*
X409960Y482580D01*
X407420D01*
Y480040D01*
X409960Y477500D01*
X407420Y474960D01*
Y472420D01*
X409452Y474452D02*
X410976D01*
X412500Y475976D01*
X414024Y474452D01*
X415548D01*
Y475976D01*
X414024Y477500D01*
X415548Y479024D01*
Y480548D01*
X414024D01*
X412500Y479024D01*
X410976Y480548D01*
X409452D01*
Y479024D01*
X410976Y477500D01*
X409452Y475976D01*
Y474452D01*
X608920Y669920D02*
X611460D01*
X614000Y672460D01*
X616540Y669920D01*
X619080D01*
Y672460D01*
X616540Y675000D01*
X619080Y677540D01*
Y680080D01*
X616540D01*
X614000Y677540D01*
X611460Y680080D01*
X608920D01*
Y677540D01*
X611460Y675000D01*
X608920Y672460D01*
Y669920D01*
X610952Y671952D02*
X612476D01*
X614000Y673476D01*
X615524Y671952D01*
X617048D01*
Y673476D01*
X615524Y675000D01*
X617048Y676524D01*
Y678048D01*
X615524D01*
X614000Y676524D01*
X612476Y678048D01*
X610952D01*
Y676524D01*
X612476Y675000D01*
X610952Y673476D01*
Y671952D01*
X451920Y871920D02*
X454460D01*
X457000Y874460D01*
X459540Y871920D01*
X462080D01*
Y874460D01*
X459540Y877000D01*
X462080Y879540D01*
Y882080D01*
X459540D01*
X457000Y879540D01*
X454460Y882080D01*
X451920D01*
Y879540D01*
X454460Y877000D01*
X451920Y874460D01*
Y871920D01*
X453952Y873952D02*
X455476D01*
X457000Y875476D01*
X458524Y873952D01*
X460048D01*
Y875476D01*
X458524Y877000D01*
X460048Y878524D01*
Y880048D01*
X458524D01*
X457000Y878524D01*
X455476Y880048D01*
X453952D01*
Y878524D01*
X455476Y877000D01*
X453952Y875476D01*
Y873952D01*
X451920Y911920D02*
X454460D01*
X457000Y914460D01*
X459540Y911920D01*
X462080D01*
Y914460D01*
X459540Y917000D01*
X462080Y919540D01*
Y922080D01*
X459540D01*
X457000Y919540D01*
X454460Y922080D01*
X451920D01*
Y919540D01*
X454460Y917000D01*
X451920Y914460D01*
Y911920D01*
X453952Y913952D02*
X455476D01*
X457000Y915476D01*
X458524Y913952D01*
X460048D01*
Y915476D01*
X458524Y917000D01*
X460048Y918524D01*
Y920048D01*
X458524D01*
X457000Y918524D01*
X455476Y920048D01*
X453952D01*
Y918524D01*
X455476Y917000D01*
X453952Y915476D01*
Y913952D01*
X343920Y881920D02*
X346460D01*
X349000Y884460D01*
X351540Y881920D01*
X354080D01*
Y884460D01*
X351540Y887000D01*
X354080Y889540D01*
Y892080D01*
X351540D01*
X349000Y889540D01*
X346460Y892080D01*
X343920D01*
Y889540D01*
X346460Y887000D01*
X343920Y884460D01*
Y881920D01*
X345952Y883952D02*
X347476D01*
X349000Y885476D01*
X350524Y883952D01*
X352048D01*
Y885476D01*
X350524Y887000D01*
X352048Y888524D01*
Y890048D01*
X350524D01*
X349000Y888524D01*
X347476Y890048D01*
X345952D01*
Y888524D01*
X347476Y887000D01*
X345952Y885476D01*
Y883952D01*
D174*
X471730Y652050D02*
G03*
X471730Y652050I-5080J0D01*
G01*
Y677450D02*
G03*
X471730Y677450I-5080J0D01*
G01*
Y702850D02*
G03*
X471730Y702850I-5080J0D01*
G01*
X227680Y869000D02*
G03*
X227680Y869000I-5080J0D01*
G01*
X253080D02*
G03*
X253080Y869000I-5080J0D01*
G01*
X278480D02*
G03*
X278480Y869000I-5080J0D01*
G01*
X493480Y746000D02*
G03*
X493480Y746000I-5080J0D01*
G01*
X919680Y605000D02*
G03*
X919680Y605000I-5080J0D01*
G01*
X468080Y746000D02*
G03*
X468080Y746000I-5080J0D01*
G01*
X442680D02*
G03*
X442680Y746000I-5080J0D01*
G01*
X600880Y734000D02*
G03*
X600880Y734000I-5080J0D01*
G01*
X575480D02*
G03*
X575480Y734000I-5080J0D01*
G01*
X550080D02*
G03*
X550080Y734000I-5080J0D01*
G01*
X616080Y502400D02*
G03*
X616080Y502400I-5080J0D01*
G01*
Y477000D02*
G03*
X616080Y477000I-5080J0D01*
G01*
Y451600D02*
G03*
X616080Y451600I-5080J0D01*
G01*
X945080Y605000D02*
G03*
X945080Y605000I-5080J0D01*
G01*
X970480D02*
G03*
X970480Y605000I-5080J0D01*
G01*
X639080Y969000D02*
G03*
X639080Y969000I-5080J0D01*
G01*
X664480D02*
G03*
X664480Y969000I-5080J0D01*
G01*
X613680D02*
G03*
X613680Y969000I-5080J0D01*
G01*
X616080Y570000D02*
G03*
X616080Y570000I-5080J0D01*
G01*
Y544600D02*
G03*
X616080Y544600I-5080J0D01*
G01*
Y595400D02*
G03*
X616080Y595400I-5080J0D01*
G01*
X155770Y260810D02*
G03*
X155770Y260810I-5080J0D01*
G01*
X337530Y746000D02*
G03*
X337530Y746000I-5080J0D01*
G01*
X362930D02*
G03*
X362930Y746000I-5080J0D01*
G01*
X388330D02*
G03*
X388330Y746000I-5080J0D01*
G01*
D175*
X153738Y260810D02*
G03*
X153738Y260810I-3048J0D01*
G01*
M02*
