G04*
G04 #@! TF.GenerationSoftware,Altium Limited,Altium Designer,25.7.1 (20)*
G04*
G04 Layer_Physical_Order=2*
G04 Layer_Color=32768*
%FSLAX44Y44*%
%MOMM*%
G71*
G04*
G04 #@! TF.SameCoordinates,E610F868-73EF-4846-AD65-6CABB719E0C8*
G04*
G04*
G04 #@! TF.FilePolarity,Negative*
G04*
G01*
G75*
%ADD141C,1.0160*%
%ADD142C,2.0828*%
%ADD143C,1.9160*%
%ADD144C,2.0160*%
%ADD145C,1.7260*%
%ADD146C,2.3160*%
%ADD147C,2.0060*%
%ADD148C,4.3160*%
%ADD149C,2.0360*%
%ADD150C,3.5160*%
%ADD151C,1.9660*%
%ADD152C,2.1160*%
%ADD153R,2.0160X4.0160*%
%ADD154C,1.3160*%
%ADD155C,1.7272*%
D141*
X35000Y1000000D02*
G03*
X0Y965000I-0J-35000D01*
G01*
X0Y35000D02*
G03*
X35000Y0I35000J-0D01*
G01*
X969000Y0D02*
G03*
X1004000Y35000I0J35000D01*
G01*
X1004000Y965000D02*
G03*
X969000Y1000000I-35000J0D01*
G01*
X35000Y1000000D02*
X316000D01*
X0Y35000D02*
X0Y965000D01*
X35000Y0D02*
X969000Y0D01*
X1004000Y965000D02*
X1004000Y35000D01*
X483000Y1000000D02*
X969000Y1000000D01*
X483000Y939750D02*
Y1000000D01*
X316000Y939750D02*
X483000D01*
X316000D02*
Y1000000D01*
D142*
X466650Y652050D02*
D03*
Y677450D02*
D03*
X222600Y869000D02*
D03*
X248000D02*
D03*
X273400D02*
D03*
X488400Y746000D02*
D03*
X914600Y605000D02*
D03*
X463000Y746000D02*
D03*
X437600D02*
D03*
X595800Y734000D02*
D03*
X570400D02*
D03*
X611000Y502400D02*
D03*
Y477000D02*
D03*
X940000Y605000D02*
D03*
X965400D02*
D03*
X634000Y969000D02*
D03*
X659400D02*
D03*
X611000Y570000D02*
D03*
Y544600D02*
D03*
X332450Y746000D02*
D03*
X357850D02*
D03*
X383250D02*
D03*
D143*
X168000Y858500D02*
D03*
X87400Y172000D02*
D03*
X36600D02*
D03*
X657950Y560750D02*
D03*
X835750Y510750D02*
D03*
X835750Y535750D02*
D03*
Y560750D02*
D03*
X657950Y585750D02*
D03*
Y460750D02*
D03*
X657950Y510750D02*
D03*
Y485750D02*
D03*
X168000Y883500D02*
D03*
X148000D02*
D03*
D144*
X261000Y725000D02*
D03*
X156000Y972000D02*
D03*
X739000Y654000D02*
D03*
X869000Y573000D02*
D03*
D145*
X210600Y282000D02*
D03*
X261400D02*
D03*
X236000D02*
D03*
D146*
X115100Y567510D02*
D03*
X140100Y582510D02*
D03*
X115100Y627510D02*
D03*
Y597510D02*
D03*
X140100Y552510D02*
D03*
Y522510D02*
D03*
X115100Y657510D02*
D03*
Y687510D02*
D03*
X140100Y642510D02*
D03*
X170100Y672510D02*
D03*
X115100Y537510D02*
D03*
X195100Y597510D02*
D03*
Y657510D02*
D03*
Y687510D02*
D03*
X170100Y642510D02*
D03*
Y552510D02*
D03*
X195100Y507510D02*
D03*
Y567510D02*
D03*
Y477510D02*
D03*
X170100Y462510D02*
D03*
X195100Y537510D02*
D03*
Y447510D02*
D03*
X115100Y477510D02*
D03*
X140100Y612510D02*
D03*
X170100D02*
D03*
X115100Y507510D02*
D03*
Y447510D02*
D03*
D147*
X269500Y786500D02*
D03*
Y831500D02*
D03*
X500500Y933500D02*
D03*
Y978500D02*
D03*
X521386Y256117D02*
D03*
X489566Y287936D02*
D03*
D148*
X50100Y375010D02*
D03*
Y760010D02*
D03*
X34640Y36400D02*
D03*
X965290Y347560D02*
D03*
Y963500D02*
D03*
X34640D02*
D03*
D149*
X981230Y157640D02*
D03*
X700680Y132240D02*
D03*
X961000Y459200D02*
D03*
X935600D02*
D03*
Y433800D02*
D03*
Y510000D02*
D03*
X961000Y510000D02*
D03*
Y433800D02*
D03*
X961000Y535400D02*
D03*
X935600Y535400D02*
D03*
X700680Y81440D02*
D03*
Y106840D02*
D03*
X981230Y310040D02*
D03*
Y284640D02*
D03*
Y259240D02*
D03*
Y233840D02*
D03*
Y183040D02*
D03*
Y132240D02*
D03*
Y56040D02*
D03*
Y81440D02*
D03*
Y106840D02*
D03*
X700680Y310040D02*
D03*
Y284640D02*
D03*
Y259240D02*
D03*
Y233840D02*
D03*
Y208440D02*
D03*
Y183040D02*
D03*
Y56040D02*
D03*
D150*
X670650Y414300D02*
D03*
X823050Y414300D02*
D03*
X823050Y630200D02*
D03*
X670650D02*
D03*
D151*
X953450Y879550D02*
D03*
Y811550D02*
D03*
D152*
X702500Y728250D02*
D03*
D153*
X91000Y257000D02*
D03*
D154*
X293843Y745014D02*
D03*
Y764497D02*
D03*
X379000Y822750D02*
D03*
X393304Y822696D02*
D03*
X864500Y825500D02*
D03*
X247000Y889000D02*
D03*
X243000Y790000D02*
D03*
Y713000D02*
D03*
X927000Y944000D02*
D03*
X522000Y890500D02*
D03*
X348750Y902250D02*
D03*
X224000Y930000D02*
D03*
X413000Y346000D02*
D03*
X535000Y229000D02*
D03*
X387500Y460000D02*
D03*
X360250Y414750D02*
D03*
X518100Y675500D02*
D03*
X322250Y681000D02*
D03*
Y666750D02*
D03*
X518100Y661500D02*
D03*
X514584Y454416D02*
D03*
X881956Y419956D02*
D03*
X503000Y407000D02*
D03*
X859000Y905250D02*
D03*
X567250Y866875D02*
D03*
X863000Y858000D02*
D03*
X567250Y830625D02*
D03*
X427000Y805000D02*
D03*
X820000Y852000D02*
D03*
X567250Y812500D02*
D03*
X821000Y830000D02*
D03*
X444250Y805500D02*
D03*
X858000Y884000D02*
D03*
X567250Y848750D02*
D03*
X452500Y849750D02*
D03*
X410750Y440500D02*
D03*
X456750Y430250D02*
D03*
X372000Y687600D02*
D03*
X526000Y469000D02*
D03*
X387800Y535900D02*
D03*
X406700Y572000D02*
D03*
X392500Y382500D02*
D03*
X469000Y439000D02*
D03*
X397700Y546300D02*
D03*
X385700Y514300D02*
D03*
X480200Y447800D02*
D03*
X408700Y556200D02*
D03*
X702500Y680000D02*
D03*
X451082Y543918D02*
D03*
X545000Y480000D02*
D03*
X448000Y416000D02*
D03*
X376600Y526000D02*
D03*
X493000Y389000D02*
D03*
X412500Y477500D02*
D03*
X614000Y675000D02*
D03*
X457000Y877000D02*
D03*
Y917000D02*
D03*
X349000Y887000D02*
D03*
D155*
X540000Y133000D02*
D03*
M02*
