G04*
G04 #@! TF.GenerationSoftware,Altium Limited,Altium Designer,25.7.1 (20)*
G04*
G04 Layer_Color=8388736*
%FSLAX25Y25*%
%MOIN*%
G70*
G04*
G04 #@! TF.SameCoordinates,69DFDAC3-22A4-47A1-A04F-D62CACA854CE*
G04*
G04*
G04 #@! TF.FilePolarity,Negative*
G04*
G01*
G75*
%ADD45R,0.06299X0.03937*%
%ADD46R,0.03937X0.06299*%
%ADD47R,0.03937X0.03937*%
%ADD48R,0.16142X0.08268*%
G04:AMPARAMS|DCode=49|XSize=55.51mil|YSize=131.5mil|CornerRadius=5.84mil|HoleSize=0mil|Usage=FLASHONLY|Rotation=0.000|XOffset=0mil|YOffset=0mil|HoleType=Round|Shape=RoundedRectangle|*
%AMROUNDEDRECTD49*
21,1,0.05551,0.11982,0,0,0.0*
21,1,0.04384,0.13150,0,0,0.0*
1,1,0.01167,0.02192,-0.05991*
1,1,0.01167,-0.02192,-0.05991*
1,1,0.01167,-0.02192,0.05991*
1,1,0.01167,0.02192,0.05991*
%
%ADD49ROUNDEDRECTD49*%
G04:AMPARAMS|DCode=50|XSize=55.51mil|YSize=40.55mil|CornerRadius=4.72mil|HoleSize=0mil|Usage=FLASHONLY|Rotation=0.000|XOffset=0mil|YOffset=0mil|HoleType=Round|Shape=RoundedRectangle|*
%AMROUNDEDRECTD50*
21,1,0.05551,0.03112,0,0,0.0*
21,1,0.04608,0.04055,0,0,0.0*
1,1,0.00943,0.02304,-0.01556*
1,1,0.00943,-0.02304,-0.01556*
1,1,0.00943,-0.02304,0.01556*
1,1,0.00943,0.02304,0.01556*
%
%ADD50ROUNDEDRECTD50*%
%ADD51R,0.15394X0.08583*%
%ADD52R,0.02756X0.02756*%
%ADD53R,0.08268X0.16142*%
%ADD54R,0.34409X0.42677*%
%ADD55R,0.13937X0.04488*%
G04:AMPARAMS|DCode=56|XSize=43.31mil|YSize=70.87mil|CornerRadius=6.89mil|HoleSize=0mil|Usage=FLASHONLY|Rotation=90.000|XOffset=0mil|YOffset=0mil|HoleType=Round|Shape=RoundedRectangle|*
%AMROUNDEDRECTD56*
21,1,0.04331,0.05709,0,0,90.0*
21,1,0.02953,0.07087,0,0,90.0*
1,1,0.01378,0.02854,0.01476*
1,1,0.01378,0.02854,-0.01476*
1,1,0.01378,-0.02854,-0.01476*
1,1,0.01378,-0.02854,0.01476*
%
%ADD56ROUNDEDRECTD56*%
G04:AMPARAMS|DCode=57|XSize=59.06mil|YSize=70.87mil|CornerRadius=8.86mil|HoleSize=0mil|Usage=FLASHONLY|Rotation=270.000|XOffset=0mil|YOffset=0mil|HoleType=Round|Shape=RoundedRectangle|*
%AMROUNDEDRECTD57*
21,1,0.05906,0.05315,0,0,270.0*
21,1,0.04134,0.07087,0,0,270.0*
1,1,0.01772,-0.02657,-0.02067*
1,1,0.01772,-0.02657,0.02067*
1,1,0.01772,0.02657,0.02067*
1,1,0.01772,0.02657,-0.02067*
%
%ADD57ROUNDEDRECTD57*%
%ADD58R,0.07480X0.07087*%
G04:AMPARAMS|DCode=59|XSize=65.35mil|YSize=14.96mil|CornerRadius=4.72mil|HoleSize=0mil|Usage=FLASHONLY|Rotation=225.000|XOffset=0mil|YOffset=0mil|HoleType=Round|Shape=RoundedRectangle|*
%AMROUNDEDRECTD59*
21,1,0.06535,0.00551,0,0,225.0*
21,1,0.05591,0.01496,0,0,225.0*
1,1,0.00945,-0.02171,-0.01782*
1,1,0.00945,0.01782,0.02171*
1,1,0.00945,0.02171,0.01782*
1,1,0.00945,-0.01782,-0.02171*
%
%ADD59ROUNDEDRECTD59*%
G04:AMPARAMS|DCode=60|XSize=55.51mil|YSize=40.55mil|CornerRadius=4.72mil|HoleSize=0mil|Usage=FLASHONLY|Rotation=90.000|XOffset=0mil|YOffset=0mil|HoleType=Round|Shape=RoundedRectangle|*
%AMROUNDEDRECTD60*
21,1,0.05551,0.03112,0,0,90.0*
21,1,0.04608,0.04055,0,0,90.0*
1,1,0.00943,0.01556,0.02304*
1,1,0.00943,0.01556,-0.02304*
1,1,0.00943,-0.01556,-0.02304*
1,1,0.00943,-0.01556,0.02304*
%
%ADD60ROUNDEDRECTD60*%
G04:AMPARAMS|DCode=61|XSize=43.31mil|YSize=70.87mil|CornerRadius=6.89mil|HoleSize=0mil|Usage=FLASHONLY|Rotation=180.000|XOffset=0mil|YOffset=0mil|HoleType=Round|Shape=RoundedRectangle|*
%AMROUNDEDRECTD61*
21,1,0.04331,0.05709,0,0,180.0*
21,1,0.02953,0.07087,0,0,180.0*
1,1,0.01378,-0.01476,0.02854*
1,1,0.01378,0.01476,0.02854*
1,1,0.01378,0.01476,-0.02854*
1,1,0.01378,-0.01476,-0.02854*
%
%ADD61ROUNDEDRECTD61*%
G04:AMPARAMS|DCode=62|XSize=66.14mil|YSize=27.56mil|CornerRadius=4.92mil|HoleSize=0mil|Usage=FLASHONLY|Rotation=180.000|XOffset=0mil|YOffset=0mil|HoleType=Round|Shape=RoundedRectangle|*
%AMROUNDEDRECTD62*
21,1,0.06614,0.01772,0,0,180.0*
21,1,0.05630,0.02756,0,0,180.0*
1,1,0.00984,-0.02815,0.00886*
1,1,0.00984,0.02815,0.00886*
1,1,0.00984,0.02815,-0.00886*
1,1,0.00984,-0.02815,-0.00886*
%
%ADD62ROUNDEDRECTD62*%
G04:AMPARAMS|DCode=63|XSize=65.35mil|YSize=14.96mil|CornerRadius=4.72mil|HoleSize=0mil|Usage=FLASHONLY|Rotation=135.000|XOffset=0mil|YOffset=0mil|HoleType=Round|Shape=RoundedRectangle|*
%AMROUNDEDRECTD63*
21,1,0.06535,0.00551,0,0,135.0*
21,1,0.05591,0.01496,0,0,135.0*
1,1,0.00945,-0.01782,0.02171*
1,1,0.00945,0.02171,-0.01782*
1,1,0.00945,0.01782,-0.02171*
1,1,0.00945,-0.02171,0.01782*
%
%ADD63ROUNDEDRECTD63*%
G04:AMPARAMS|DCode=64|XSize=59.06mil|YSize=70.87mil|CornerRadius=8.86mil|HoleSize=0mil|Usage=FLASHONLY|Rotation=180.000|XOffset=0mil|YOffset=0mil|HoleType=Round|Shape=RoundedRectangle|*
%AMROUNDEDRECTD64*
21,1,0.05906,0.05315,0,0,180.0*
21,1,0.04134,0.07087,0,0,180.0*
1,1,0.01772,-0.02067,0.02657*
1,1,0.01772,0.02067,0.02657*
1,1,0.01772,0.02067,-0.02657*
1,1,0.01772,-0.02067,-0.02657*
%
%ADD64ROUNDEDRECTD64*%
G04:AMPARAMS|DCode=65|XSize=59.06mil|YSize=70.87mil|CornerRadius=8.86mil|HoleSize=0mil|Usage=FLASHONLY|Rotation=45.000|XOffset=0mil|YOffset=0mil|HoleType=Round|Shape=RoundedRectangle|*
%AMROUNDEDRECTD65*
21,1,0.05906,0.05315,0,0,45.0*
21,1,0.04134,0.07087,0,0,45.0*
1,1,0.01772,0.03341,-0.00418*
1,1,0.01772,0.00418,-0.03341*
1,1,0.01772,-0.03341,0.00418*
1,1,0.01772,-0.00418,0.03341*
%
%ADD65ROUNDEDRECTD65*%
G04:AMPARAMS|DCode=66|XSize=43.31mil|YSize=70.87mil|CornerRadius=6.89mil|HoleSize=0mil|Usage=FLASHONLY|Rotation=225.000|XOffset=0mil|YOffset=0mil|HoleType=Round|Shape=RoundedRectangle|*
%AMROUNDEDRECTD66*
21,1,0.04331,0.05709,0,0,225.0*
21,1,0.02953,0.07087,0,0,225.0*
1,1,0.01378,-0.03062,0.00974*
1,1,0.01378,-0.00974,0.03062*
1,1,0.01378,0.03062,-0.00974*
1,1,0.01378,0.00974,-0.03062*
%
%ADD66ROUNDEDRECTD66*%
G04:AMPARAMS|DCode=67|XSize=59.06mil|YSize=70.87mil|CornerRadius=8.86mil|HoleSize=0mil|Usage=FLASHONLY|Rotation=135.000|XOffset=0mil|YOffset=0mil|HoleType=Round|Shape=RoundedRectangle|*
%AMROUNDEDRECTD67*
21,1,0.05906,0.05315,0,0,135.0*
21,1,0.04134,0.07087,0,0,135.0*
1,1,0.01772,0.00418,0.03341*
1,1,0.01772,0.03341,0.00418*
1,1,0.01772,-0.00418,-0.03341*
1,1,0.01772,-0.03341,-0.00418*
%
%ADD67ROUNDEDRECTD67*%
%ADD68R,0.02756X0.02756*%
%ADD69R,0.11794X0.21694*%
%ADD70R,0.03937X0.03543*%
G04:AMPARAMS|DCode=71|XSize=55.51mil|YSize=131.5mil|CornerRadius=5.84mil|HoleSize=0mil|Usage=FLASHONLY|Rotation=90.000|XOffset=0mil|YOffset=0mil|HoleType=Round|Shape=RoundedRectangle|*
%AMROUNDEDRECTD71*
21,1,0.05551,0.11982,0,0,90.0*
21,1,0.04384,0.13150,0,0,90.0*
1,1,0.01167,0.05991,0.02192*
1,1,0.01167,0.05991,-0.02192*
1,1,0.01167,-0.05991,-0.02192*
1,1,0.01167,-0.05991,0.02192*
%
%ADD71ROUNDEDRECTD71*%
%ADD72R,0.35394X0.45394*%
%ADD73C,0.07480*%
%ADD74C,0.06291*%
%ADD75R,0.06291X0.06291*%
%ADD76O,0.18110X0.09252*%
%ADD77O,0.10236X0.20079*%
%ADD78C,0.08071*%
%ADD79C,0.13449*%
%ADD80C,0.05937*%
%ADD81P,0.08897X4X270.0*%
%ADD82C,0.06594*%
%ADD83O,0.10394X0.05118*%
%ADD84C,0.05787*%
%ADD85R,0.06291X0.06291*%
%ADD86C,0.06102*%
%ADD87R,0.08071X0.08071*%
%ADD88C,0.13386*%
%ADD89C,0.05189*%
%ADD90O,0.09252X0.18110*%
%ADD91C,0.05709*%
%ADD92R,0.05189X0.05189*%
%ADD93R,0.05787X0.05787*%
%ADD94R,0.10394X0.05118*%
%ADD95C,0.16142*%
%ADD96R,0.05937X0.05937*%
%ADD97C,0.04134*%
%ADD98C,0.03150*%
%ADD99C,0.05394*%
D45*
X145571Y382244D02*
D03*
Y377244D02*
D03*
Y372244D02*
D03*
Y367244D02*
D03*
Y362244D02*
D03*
Y357244D02*
D03*
Y352244D02*
D03*
Y347244D02*
D03*
Y342244D02*
D03*
Y337244D02*
D03*
Y332244D02*
D03*
Y327244D02*
D03*
Y322244D02*
D03*
X214469D02*
D03*
Y327244D02*
D03*
Y332244D02*
D03*
Y337244D02*
D03*
Y342244D02*
D03*
Y347244D02*
D03*
Y352244D02*
D03*
Y357244D02*
D03*
Y362244D02*
D03*
Y367244D02*
D03*
Y372244D02*
D03*
Y377244D02*
D03*
Y382244D02*
D03*
Y387244D02*
D03*
X145571D02*
D03*
D46*
X152520Y317323D02*
D03*
X157520D02*
D03*
X162520D02*
D03*
X167520D02*
D03*
X172520D02*
D03*
X177520D02*
D03*
X182520D02*
D03*
X187520D02*
D03*
X192520D02*
D03*
X197520D02*
D03*
X202520D02*
D03*
X207520D02*
D03*
D47*
X179626Y362362D02*
D03*
Y356850D02*
D03*
X174114Y362362D02*
D03*
Y356850D02*
D03*
X179626Y351339D02*
D03*
X174114D02*
D03*
X168602Y362362D02*
D03*
Y356850D02*
D03*
Y351339D02*
D03*
D48*
X217126Y25591D02*
D03*
X245079D02*
D03*
D49*
X386791Y267323D02*
D03*
D50*
X360453Y258307D02*
D03*
X360453Y267323D02*
D03*
X360453Y276339D02*
D03*
D51*
X89705Y17559D02*
D03*
Y37559D02*
D03*
D52*
X49508Y73524D02*
D03*
Y64862D02*
D03*
D53*
X118898Y13976D02*
D03*
Y41929D02*
D03*
D54*
X86221Y75984D02*
D03*
D55*
X127953Y89370D02*
D03*
Y75984D02*
D03*
Y69291D02*
D03*
Y82677D02*
D03*
Y62598D02*
D03*
D56*
X144882Y12795D02*
D03*
X122047Y107283D02*
D03*
X121653Y346850D02*
D03*
X331890Y284055D02*
D03*
X342126Y268701D02*
D03*
X144882Y37205D02*
D03*
X122047Y114764D02*
D03*
X165236Y275984D02*
D03*
X116142Y360433D02*
D03*
X121752Y324213D02*
D03*
X116142Y367913D02*
D03*
X165650Y244882D02*
D03*
Y252362D02*
D03*
X165236Y283465D02*
D03*
X144882Y20276D02*
D03*
Y29724D02*
D03*
X121752Y331693D02*
D03*
X121653Y339370D02*
D03*
X342126Y276181D02*
D03*
X331890Y276575D02*
D03*
D57*
X144882Y56468D02*
D03*
X351575Y276941D02*
D03*
Y267941D02*
D03*
X144882Y47469D02*
D03*
D58*
X163189Y75590D02*
D03*
X147047D02*
D03*
D59*
X145691Y170601D02*
D03*
X163786Y152506D02*
D03*
X177316Y202226D02*
D03*
X165178Y151114D02*
D03*
X147083Y169209D02*
D03*
X175924Y203618D02*
D03*
X154043Y162250D02*
D03*
X151259Y165033D02*
D03*
X155435Y160858D02*
D03*
X152651Y163642D02*
D03*
X185668Y193875D02*
D03*
X188452Y191091D02*
D03*
X187060Y192483D02*
D03*
X144299Y171993D02*
D03*
X184276Y195266D02*
D03*
X182884Y196659D02*
D03*
X180100Y199442D02*
D03*
X178708Y200834D02*
D03*
X181492Y198050D02*
D03*
X196803Y182739D02*
D03*
X162394Y153898D02*
D03*
X161003Y155290D02*
D03*
X159610Y156682D02*
D03*
X148475Y167817D02*
D03*
X189843Y189699D02*
D03*
X191235Y188307D02*
D03*
X192627Y186915D02*
D03*
X194019Y185523D02*
D03*
X195411Y184131D02*
D03*
X158219Y158074D02*
D03*
X156827Y159466D02*
D03*
X149867Y166426D02*
D03*
D60*
X79173Y357303D02*
D03*
X88189D02*
D03*
X97205D02*
D03*
D61*
X109252Y383858D02*
D03*
X137244Y249095D02*
D03*
X246929Y50472D02*
D03*
X188583Y239469D02*
D03*
X347047Y336221D02*
D03*
X223819Y50394D02*
D03*
X339567Y336221D02*
D03*
X337992Y357972D02*
D03*
X330512D02*
D03*
Y346850D02*
D03*
Y335827D02*
D03*
Y324803D02*
D03*
X323031Y335827D02*
D03*
X337992Y346850D02*
D03*
X323031Y324803D02*
D03*
X196063Y239469D02*
D03*
X129764Y249095D02*
D03*
X231299Y50394D02*
D03*
X239449Y50472D02*
D03*
X116732Y383858D02*
D03*
D62*
X136988Y262874D02*
D03*
X224291Y249441D02*
D03*
Y254441D02*
D03*
X115965Y262874D02*
D03*
X203268Y249441D02*
D03*
X115965Y267874D02*
D03*
X203268Y254441D02*
D03*
X136988Y257874D02*
D03*
X224291Y244441D02*
D03*
X224291Y259441D02*
D03*
X203268Y244441D02*
D03*
Y259441D02*
D03*
X115965Y257874D02*
D03*
Y272874D02*
D03*
X136988Y267874D02*
D03*
Y272874D02*
D03*
D63*
X149867Y188307D02*
D03*
X195411Y170601D02*
D03*
X148475Y186915D02*
D03*
X196803Y171993D02*
D03*
X144299Y182739D02*
D03*
X189843Y165033D02*
D03*
X154043Y192483D02*
D03*
X191235Y166426D02*
D03*
X151259Y189699D02*
D03*
X187060Y162250D02*
D03*
X152651Y191091D02*
D03*
X147083Y185523D02*
D03*
X145691Y184131D02*
D03*
X188452Y163642D02*
D03*
X155435Y193875D02*
D03*
X180100Y155290D02*
D03*
X165178Y203618D02*
D03*
X194019Y169209D02*
D03*
X185668Y160858D02*
D03*
X184276Y159466D02*
D03*
X156827Y195266D02*
D03*
X158219Y196659D02*
D03*
X159610Y198050D02*
D03*
X161003Y199442D02*
D03*
X162394Y200834D02*
D03*
X163786Y202226D02*
D03*
X175924Y151114D02*
D03*
X182884Y158074D02*
D03*
X181492Y156682D02*
D03*
X178708Y153898D02*
D03*
X177316Y152506D02*
D03*
X192627Y167817D02*
D03*
D64*
X162150Y263976D02*
D03*
X233634Y64173D02*
D03*
X342744Y257087D02*
D03*
X349382Y314173D02*
D03*
Y325197D02*
D03*
X351744Y257087D02*
D03*
X224634Y64173D02*
D03*
X340382Y325197D02*
D03*
X340382Y314173D02*
D03*
X153150Y263976D02*
D03*
D65*
X176450Y226568D02*
D03*
X190000Y224646D02*
D03*
X183636Y218282D02*
D03*
X170086Y220204D02*
D03*
D66*
X191031Y136405D02*
D03*
X219341Y226468D02*
D03*
X214051Y221179D02*
D03*
X178261Y138595D02*
D03*
X183550Y143885D02*
D03*
X185741Y131115D02*
D03*
D67*
X214533Y161746D02*
D03*
X208169Y168110D02*
D03*
D68*
X342520Y210236D02*
D03*
X351181D02*
D03*
D69*
X199815Y31890D02*
D03*
X160815D02*
D03*
D70*
X155787Y275512D02*
D03*
X147913Y279252D02*
D03*
X155787Y282992D02*
D03*
D71*
X88189Y383642D02*
D03*
D72*
X44705Y27559D02*
D03*
D73*
X61417Y382677D02*
D03*
X37402Y382283D02*
D03*
X303740Y266732D02*
D03*
X342126Y225590D02*
D03*
X96285Y280930D02*
D03*
D74*
X106102Y309646D02*
D03*
Y327362D02*
D03*
X80512Y309646D02*
D03*
X210838Y131456D02*
D03*
X223228Y387795D02*
D03*
X240945Y362205D02*
D03*
X223228D02*
D03*
X205270Y100833D02*
D03*
X192743Y113361D02*
D03*
D75*
X80512Y327362D02*
D03*
D76*
X47516Y84177D02*
D03*
D77*
X59327Y102681D02*
D03*
D78*
X55158Y182091D02*
D03*
Y193902D02*
D03*
Y264768D02*
D03*
X66969Y205713D02*
D03*
Y229335D02*
D03*
Y193902D02*
D03*
X76811Y247051D02*
D03*
X45315Y176185D02*
D03*
Y199807D02*
D03*
X66969Y241146D02*
D03*
X55158D02*
D03*
X45315Y187996D02*
D03*
X76811Y211618D02*
D03*
Y187996D02*
D03*
Y223429D02*
D03*
Y199807D02*
D03*
X66969Y217524D02*
D03*
Y252957D02*
D03*
X76811Y258862D02*
D03*
Y235240D02*
D03*
X45315Y211618D02*
D03*
X66969Y264768D02*
D03*
X55158Y252957D02*
D03*
X45315Y270673D02*
D03*
Y258862D02*
D03*
X55158Y205713D02*
D03*
Y217524D02*
D03*
X45315Y235240D02*
D03*
Y247051D02*
D03*
X55158Y229335D02*
D03*
X45315Y223429D02*
D03*
X66969Y182091D02*
D03*
X76811Y176185D02*
D03*
D79*
X47638Y319213D02*
D03*
Y366614D02*
D03*
D80*
X58268Y337992D02*
D03*
X66142Y347835D02*
D03*
X58268D02*
D03*
D81*
X223365Y118929D02*
D03*
D82*
X240551Y177795D02*
D03*
X183721Y276713D02*
D03*
X216476Y275354D02*
D03*
X240551Y234409D02*
D03*
X325197Y379429D02*
D03*
X370079Y238189D02*
D03*
X183721Y256713D02*
D03*
X236476Y275354D02*
D03*
X360079Y238189D02*
D03*
X107638Y342126D02*
D03*
X183721Y266713D02*
D03*
X226476Y275354D02*
D03*
X315197Y379429D02*
D03*
X305197D02*
D03*
X172283Y293701D02*
D03*
X140886D02*
D03*
X240551Y187795D02*
D03*
Y197795D02*
D03*
X182283Y293701D02*
D03*
X87638Y342126D02*
D03*
X97638D02*
D03*
X192283Y293701D02*
D03*
X380079Y238189D02*
D03*
X240551Y224410D02*
D03*
Y214409D02*
D03*
X130886Y293701D02*
D03*
X150886D02*
D03*
D83*
X259035Y210925D02*
D03*
X329035Y191240D02*
D03*
X259035Y220768D02*
D03*
X259035Y191240D02*
D03*
Y201083D02*
D03*
X259035Y181398D02*
D03*
X329035Y220768D02*
D03*
Y210925D02*
D03*
X329035Y201083D02*
D03*
D84*
X386311Y82063D02*
D03*
X368347Y190787D02*
D03*
X378346D02*
D03*
X267984Y62063D02*
D03*
X386311D02*
D03*
X267984Y52063D02*
D03*
Y72063D02*
D03*
Y82063D02*
D03*
Y92063D02*
D03*
Y102063D02*
D03*
Y112063D02*
D03*
Y122063D02*
D03*
Y42063D02*
D03*
Y32063D02*
D03*
X378346Y180787D02*
D03*
X368347D02*
D03*
Y170787D02*
D03*
Y200787D02*
D03*
X378346Y200787D02*
D03*
X378346Y210787D02*
D03*
X368347Y210787D02*
D03*
X386311Y122063D02*
D03*
Y112063D02*
D03*
Y102063D02*
D03*
Y92063D02*
D03*
Y72063D02*
D03*
Y52063D02*
D03*
Y32063D02*
D03*
Y42063D02*
D03*
D85*
X240945Y387795D02*
D03*
D86*
X274606Y367126D02*
D03*
Y286417D02*
D03*
D87*
X76811Y270673D02*
D03*
D88*
X19724Y299217D02*
D03*
Y147642D02*
D03*
D89*
X82913Y111024D02*
D03*
X92913D02*
D03*
D90*
X35827Y101181D02*
D03*
D91*
X14409Y67716D02*
D03*
X34409D02*
D03*
D92*
X102913Y111024D02*
D03*
D93*
X267984Y22063D02*
D03*
X378346Y170787D02*
D03*
X386311Y22063D02*
D03*
D94*
X259035Y230610D02*
D03*
D95*
X264035Y248110D02*
D03*
X324035D02*
D03*
X324036Y163110D02*
D03*
X264035Y163110D02*
D03*
X13638Y14331D02*
D03*
X380035Y136835D02*
D03*
Y379331D02*
D03*
X13638D02*
D03*
D96*
X66142Y337992D02*
D03*
D97*
X375374Y346280D02*
D03*
Y319508D02*
D03*
D98*
X43307Y330709D02*
D03*
X11811D02*
D03*
X27559Y342520D02*
D03*
X43307Y354331D02*
D03*
X11811D02*
D03*
X179724Y234646D02*
D03*
X179626Y351339D02*
D03*
X168602Y362362D02*
D03*
Y351339D02*
D03*
X179626Y362362D02*
D03*
X214469Y387244D02*
D03*
X145571D02*
D03*
X15748Y33465D02*
D03*
Y46260D02*
D03*
X60039Y71850D02*
D03*
X62992Y59055D02*
D03*
X74803Y62992D02*
D03*
X84646D02*
D03*
X74803Y72835D02*
D03*
X84277Y72097D02*
D03*
X74803Y82677D02*
D03*
X84159Y82190D02*
D03*
X94488Y71638D02*
D03*
Y62992D02*
D03*
Y82677D02*
D03*
X108661Y24016D02*
D03*
X118898Y25197D02*
D03*
X53150Y124803D02*
D03*
X59842D02*
D03*
X66535D02*
D03*
X12992D02*
D03*
X19685D02*
D03*
X6299D02*
D03*
X12795Y167323D02*
D03*
X26378Y124803D02*
D03*
X46457D02*
D03*
X74316Y92033D02*
D03*
X100394Y124803D02*
D03*
X120472D02*
D03*
X107087D02*
D03*
X113779D02*
D03*
X73228D02*
D03*
X86614Y153543D02*
D03*
X87008Y124803D02*
D03*
X93701D02*
D03*
X100394Y138779D02*
D03*
X110236Y153543D02*
D03*
X127559Y98425D02*
D03*
X133858Y106299D02*
D03*
X143307Y101969D02*
D03*
Y115354D02*
D03*
Y108661D02*
D03*
X144882Y63779D02*
D03*
X167205Y66772D02*
D03*
X145669Y82677D02*
D03*
X154724Y90551D02*
D03*
X143307Y95276D02*
D03*
X148031Y90551D02*
D03*
X166142Y85827D02*
D03*
X157480Y106299D02*
D03*
X161417Y90551D02*
D03*
X133858Y124803D02*
D03*
X125984Y138779D02*
D03*
X127165Y124803D02*
D03*
X134055Y143602D02*
D03*
X138583Y120079D02*
D03*
X145669Y129921D02*
D03*
X153543Y141732D02*
D03*
X15748Y200787D02*
D03*
X10827Y226378D02*
D03*
X15748Y248031D02*
D03*
X23622Y180118D02*
D03*
Y226378D02*
D03*
X10827Y261811D02*
D03*
X23622Y267717D02*
D03*
X10827Y281496D02*
D03*
X34449Y293307D02*
D03*
X62008Y282480D02*
D03*
X96457Y269291D02*
D03*
X115059Y286024D02*
D03*
X78740Y291339D02*
D03*
X113779Y319882D02*
D03*
X105512Y356299D02*
D03*
X106988Y375689D02*
D03*
X123327Y246949D02*
D03*
X136188Y173117D02*
D03*
X157382Y185335D02*
D03*
X165354Y237205D02*
D03*
X152067Y251870D02*
D03*
X160138Y299311D02*
D03*
X163386Y292126D02*
D03*
X125801Y354617D02*
D03*
X183071Y66929D02*
D03*
X177953Y80709D02*
D03*
X184646D02*
D03*
X204724D02*
D03*
Y66929D02*
D03*
X191339Y80709D02*
D03*
X198031D02*
D03*
X171260D02*
D03*
X181102Y106299D02*
D03*
X195866Y125984D02*
D03*
X224803Y80709D02*
D03*
X211417D02*
D03*
X218110D02*
D03*
X228346Y106299D02*
D03*
X231496Y80709D02*
D03*
X181890Y208268D02*
D03*
X225590Y148130D02*
D03*
X220276Y158071D02*
D03*
X246890Y41969D02*
D03*
X255512Y43307D02*
D03*
Y50000D02*
D03*
X253346Y58661D02*
D03*
X244587Y71949D02*
D03*
X249705Y66831D02*
D03*
X256102Y16240D02*
D03*
X255906Y29626D02*
D03*
Y23130D02*
D03*
X346457Y11811D02*
D03*
X370079D02*
D03*
X381890Y35433D02*
D03*
X287402D02*
D03*
X311024D02*
D03*
X255512Y36614D02*
D03*
X358268Y35433D02*
D03*
X322835Y59055D02*
D03*
X346457D02*
D03*
X239075Y77461D02*
D03*
X251969Y106299D02*
D03*
X311024Y82677D02*
D03*
X299213Y106299D02*
D03*
X311024Y129921D02*
D03*
X240158D02*
D03*
X244291Y168701D02*
D03*
X313395Y177165D02*
D03*
X276870Y211122D02*
D03*
X313976Y200787D02*
D03*
X346457Y106299D02*
D03*
X322835D02*
D03*
X341373Y136649D02*
D03*
X358268Y82677D02*
D03*
X366929Y123622D02*
D03*
X370079Y106299D02*
D03*
X334646Y177165D02*
D03*
X221260Y231496D02*
D03*
X183071Y301772D02*
D03*
X197736Y265650D02*
D03*
X199016Y280512D02*
D03*
Y273917D02*
D03*
X174114Y356850D02*
D03*
X204724Y363976D02*
D03*
X231975Y248264D02*
D03*
X275591Y248031D02*
D03*
X277559Y231299D02*
D03*
X313395Y224410D02*
D03*
X338583Y243110D02*
D03*
X309055Y286417D02*
D03*
X323819Y289370D02*
D03*
X275591Y295276D02*
D03*
X299213D02*
D03*
X345768Y284154D02*
D03*
X346063Y292520D02*
D03*
X361024Y289370D02*
D03*
X321014Y344144D02*
D03*
X263780Y366142D02*
D03*
X287402D02*
D03*
X366240Y338583D02*
D03*
X322835Y11811D02*
D03*
X331802Y35433D02*
D03*
X162598Y136221D02*
D03*
X141831Y163287D02*
D03*
X152559Y181102D02*
D03*
X210630Y90158D02*
D03*
X233573Y253652D02*
D03*
X126870Y262500D02*
D03*
X194882Y249185D02*
D03*
X156575Y215079D02*
D03*
X184646Y172835D02*
D03*
X160906Y218976D02*
D03*
X189055Y176299D02*
D03*
X148268Y207087D02*
D03*
X176378Y163779D02*
D03*
X126870Y268110D02*
D03*
X194882Y254697D02*
D03*
X152677Y210984D02*
D03*
X179823Y169390D02*
D03*
X288976Y104724D02*
D03*
X289075Y92126D02*
D03*
X339764Y337795D02*
D03*
X224114Y327682D02*
D03*
X182008Y324508D02*
D03*
X240059Y165650D02*
D03*
X249272Y245702D02*
D03*
X252264Y282185D02*
D03*
X338189Y356398D02*
D03*
X224114Y343086D02*
D03*
X364961Y371654D02*
D03*
X340354Y325000D02*
D03*
X135531Y373622D02*
D03*
X88189Y366142D02*
D03*
X322835Y335433D02*
D03*
X224213Y319980D02*
D03*
X152165Y332087D02*
D03*
X156496Y326673D02*
D03*
X130020Y324508D02*
D03*
X193149D02*
D03*
X231496Y158268D02*
D03*
X259154Y291142D02*
D03*
X285827Y256988D02*
D03*
X165748Y327756D02*
D03*
X151870Y337795D02*
D03*
X205610Y325689D02*
D03*
X218504Y304331D02*
D03*
X160138Y375984D02*
D03*
X198721Y324508D02*
D03*
X235236Y144193D02*
D03*
X290453Y260138D02*
D03*
X262894Y294882D02*
D03*
X337795Y348031D02*
D03*
X224114Y335384D02*
D03*
X224311Y350787D02*
D03*
X323228Y326772D02*
D03*
X224016Y312598D02*
D03*
X256046Y286642D02*
D03*
X280217Y256594D02*
D03*
X235728Y161811D02*
D03*
X187578Y324508D02*
D03*
X177591Y214141D02*
D03*
X293799Y269291D02*
D03*
X194095Y153150D02*
D03*
X161713Y173425D02*
D03*
X214075Y185236D02*
D03*
X206890Y183366D02*
D03*
X95669Y311024D02*
D03*
X97244Y350000D02*
D03*
X146457Y270709D02*
D03*
X202592Y178904D02*
D03*
X347227Y165337D02*
D03*
X198031Y160236D02*
D03*
X160118Y225197D02*
D03*
X154528Y150591D02*
D03*
X151850Y202480D02*
D03*
X162402Y187992D02*
D03*
D99*
X212598Y52362D02*
D03*
X155503Y382753D02*
D03*
M02*
