G04*
G04 #@! TF.GenerationSoftware,Altium Limited,Altium Designer,25.7.1 (20)*
G04*
G04 Layer_Color=255*
%FSLAX44Y44*%
%MOMM*%
G71*
G04*
G04 #@! TF.SameCoordinates,E610F868-73EF-4846-AD65-6CABB719E0C8*
G04*
G04*
G04 #@! TF.FilePolarity,Positive*
G04*
G01*
G75*
G04:AMPARAMS|DCode=23|XSize=1mm|YSize=1.7mm|CornerRadius=0.125mm|HoleSize=0mm|Usage=FLASHONLY|Rotation=270.000|XOffset=0mm|YOffset=0mm|HoleType=Round|Shape=RoundedRectangle|*
%AMROUNDEDRECTD23*
21,1,1.0000,1.4500,0,0,270.0*
21,1,0.7500,1.7000,0,0,270.0*
1,1,0.2500,-0.7250,-0.3750*
1,1,0.2500,-0.7250,0.3750*
1,1,0.2500,0.7250,0.3750*
1,1,0.2500,0.7250,-0.3750*
%
%ADD23ROUNDEDRECTD23*%
G04:AMPARAMS|DCode=26|XSize=1.4mm|YSize=1.7mm|CornerRadius=0.175mm|HoleSize=0mm|Usage=FLASHONLY|Rotation=180.000|XOffset=0mm|YOffset=0mm|HoleType=Round|Shape=RoundedRectangle|*
%AMROUNDEDRECTD26*
21,1,1.4000,1.3500,0,0,180.0*
21,1,1.0500,1.7000,0,0,180.0*
1,1,0.3500,-0.5250,0.6750*
1,1,0.3500,0.5250,0.6750*
1,1,0.3500,0.5250,-0.6750*
1,1,0.3500,-0.5250,-0.6750*
%
%ADD26ROUNDEDRECTD26*%
G04:AMPARAMS|DCode=27|XSize=1mm|YSize=1.7mm|CornerRadius=0.125mm|HoleSize=0mm|Usage=FLASHONLY|Rotation=180.000|XOffset=0mm|YOffset=0mm|HoleType=Round|Shape=RoundedRectangle|*
%AMROUNDEDRECTD27*
21,1,1.0000,1.4500,0,0,180.0*
21,1,0.7500,1.7000,0,0,180.0*
1,1,0.2500,-0.3750,0.7250*
1,1,0.2500,0.3750,0.7250*
1,1,0.2500,0.3750,-0.7250*
1,1,0.2500,-0.3750,-0.7250*
%
%ADD27ROUNDEDRECTD27*%
G04:AMPARAMS|DCode=34|XSize=1.4mm|YSize=1.7mm|CornerRadius=0.175mm|HoleSize=0mm|Usage=FLASHONLY|Rotation=270.000|XOffset=0mm|YOffset=0mm|HoleType=Round|Shape=RoundedRectangle|*
%AMROUNDEDRECTD34*
21,1,1.4000,1.3500,0,0,270.0*
21,1,1.0500,1.7000,0,0,270.0*
1,1,0.3500,-0.6750,-0.5250*
1,1,0.3500,-0.6750,0.5250*
1,1,0.3500,0.6750,0.5250*
1,1,0.3500,0.6750,-0.5250*
%
%ADD34ROUNDEDRECTD34*%
G04:AMPARAMS|DCode=35|XSize=1.4mm|YSize=1.7mm|CornerRadius=0.175mm|HoleSize=0mm|Usage=FLASHONLY|Rotation=225.000|XOffset=0mm|YOffset=0mm|HoleType=Round|Shape=RoundedRectangle|*
%AMROUNDEDRECTD35*
21,1,1.4000,1.3500,0,0,225.0*
21,1,1.0500,1.7000,0,0,225.0*
1,1,0.3500,-0.8485,0.1061*
1,1,0.3500,-0.1061,0.8485*
1,1,0.3500,0.8485,-0.1061*
1,1,0.3500,0.1061,-0.8485*
%
%ADD35ROUNDEDRECTD35*%
G04:AMPARAMS|DCode=43|XSize=1mm|YSize=1.7mm|CornerRadius=0.125mm|HoleSize=0mm|Usage=FLASHONLY|Rotation=225.000|XOffset=0mm|YOffset=0mm|HoleType=Round|Shape=RoundedRectangle|*
%AMROUNDEDRECTD43*
21,1,1.0000,1.4500,0,0,225.0*
21,1,0.7500,1.7000,0,0,225.0*
1,1,0.2500,-0.7778,0.2475*
1,1,0.2500,-0.2475,0.7778*
1,1,0.2500,0.7778,-0.2475*
1,1,0.2500,0.2475,-0.7778*
%
%ADD43ROUNDEDRECTD43*%
%ADD81C,1.4500*%
%ADD98C,1.3700*%
%ADD102R,0.6000X0.6000*%
%ADD117C,1.5748*%
%ADD118R,1.4080X1.4080*%
%ADD119C,1.8000*%
%ADD120C,1.2180*%
%ADD121C,1.9500*%
%ADD122C,1.4980*%
%ADD123R,1.4980X1.4980*%
%ADD124P,2.1185X4X270.0*%
%ADD125C,1.3500*%
%ADD126C,3.3000*%
%ADD127R,1.9500X1.9500*%
%ADD128R,1.2180X1.2180*%
%ADD129O,2.5400X1.2000*%
%ADD130O,4.5000X2.2500*%
%ADD131O,2.5000X5.0000*%
%ADD132C,3.3160*%
%ADD133C,1.4080*%
%ADD134R,1.3700X1.3700*%
%ADD135C,4.0000*%
%ADD136R,2.5400X1.2000*%
%ADD137C,0.9500*%
%ADD138O,2.2500X4.5000*%
%ADD156R,1.4000X0.6200*%
%ADD157R,0.5900X1.2400*%
G04:AMPARAMS|DCode=158|XSize=1.4mm|YSize=1.7mm|CornerRadius=0.175mm|HoleSize=0mm|Usage=FLASHONLY|Rotation=315.000|XOffset=0mm|YOffset=0mm|HoleType=Round|Shape=RoundedRectangle|*
%AMROUNDEDRECTD158*
21,1,1.4000,1.3500,0,0,315.0*
21,1,1.0500,1.7000,0,0,315.0*
1,1,0.3500,-0.1061,-0.8485*
1,1,0.3500,-0.8485,-0.1061*
1,1,0.3500,0.1061,0.8485*
1,1,0.3500,0.8485,0.1061*
%
%ADD158ROUNDEDRECTD158*%
%ADD159R,2.4000X1.1000*%
G04:AMPARAMS|DCode=160|XSize=5.5mm|YSize=2mm|CornerRadius=0mm|HoleSize=0mm|Usage=FLASHONLY|Rotation=45.000|XOffset=0mm|YOffset=0mm|HoleType=Round|Shape=Rectangle|*
%AMROTATEDRECTD160*
4,1,4,-1.2374,-2.6517,-2.6517,-1.2374,1.2374,2.6517,2.6517,1.2374,-1.2374,-2.6517,0.0*
%
%ADD160ROTATEDRECTD160*%

D23*
X816250Y769750D02*
D03*
Y788750D02*
D03*
D26*
X247570Y908000D02*
D03*
X329650Y901240D02*
D03*
X223430Y908000D02*
D03*
X329180Y867500D02*
D03*
X200570Y908000D02*
D03*
X270430D02*
D03*
X332070Y714100D02*
D03*
X306790Y901240D02*
D03*
X306320Y867500D02*
D03*
X354930Y714100D02*
D03*
D27*
X910000Y944000D02*
D03*
X891000D02*
D03*
D34*
X300250Y640440D02*
D03*
Y707660D02*
D03*
X369000Y862570D02*
D03*
X542500Y634070D02*
D03*
X568600Y647170D02*
D03*
X594500Y647270D02*
D03*
X436000Y889570D02*
D03*
X542500Y702930D02*
D03*
X300250Y684800D02*
D03*
X542500Y680070D02*
D03*
X300250Y663300D02*
D03*
X542500Y656930D02*
D03*
X436000Y912430D02*
D03*
X594500Y670130D02*
D03*
X568600Y670030D02*
D03*
X369000Y885430D02*
D03*
D35*
X362082Y455882D02*
D03*
X459918Y323918D02*
D03*
X355582Y412682D02*
D03*
X438918Y344918D02*
D03*
X339418Y396518D02*
D03*
X345918Y439718D02*
D03*
X429582Y386832D02*
D03*
X476082Y340082D02*
D03*
X455082Y361082D02*
D03*
X413418Y370668D02*
D03*
D43*
X549282Y247283D02*
D03*
X338317Y469217D02*
D03*
X562718Y260718D02*
D03*
X324883Y455783D02*
D03*
D81*
X702500Y933250D02*
D03*
Y728250D02*
D03*
D98*
X981230Y157640D02*
D03*
X700680Y132240D02*
D03*
X700680Y157640D02*
D03*
X981230Y208440D02*
D03*
X935600Y484600D02*
D03*
X961000D02*
D03*
Y459200D02*
D03*
X935600D02*
D03*
Y433800D02*
D03*
Y510000D02*
D03*
X961000Y510000D02*
D03*
X961000Y535400D02*
D03*
X935600Y535400D02*
D03*
X700680Y81440D02*
D03*
Y106840D02*
D03*
X981230Y310040D02*
D03*
Y284640D02*
D03*
Y259240D02*
D03*
Y233840D02*
D03*
Y183040D02*
D03*
Y132240D02*
D03*
Y81440D02*
D03*
Y106840D02*
D03*
X700680Y310040D02*
D03*
Y284640D02*
D03*
Y259240D02*
D03*
Y233840D02*
D03*
Y208440D02*
D03*
Y183040D02*
D03*
D102*
X168000Y842000D02*
D03*
Y820000D02*
D03*
X148500Y921500D02*
D03*
X168250Y921750D02*
D03*
Y899750D02*
D03*
X148500Y899500D02*
D03*
D117*
X466650Y652050D02*
D03*
Y677450D02*
D03*
Y702850D02*
D03*
X222600Y869000D02*
D03*
X248000D02*
D03*
X273400D02*
D03*
X488400Y746000D02*
D03*
X914600Y605000D02*
D03*
X463000Y746000D02*
D03*
X437600D02*
D03*
X595800Y734000D02*
D03*
X570400D02*
D03*
X545000D02*
D03*
X611000Y502400D02*
D03*
Y477000D02*
D03*
Y451600D02*
D03*
X940000Y605000D02*
D03*
X965400D02*
D03*
X634000Y969000D02*
D03*
X659400D02*
D03*
X608600D02*
D03*
X611000Y570000D02*
D03*
Y544600D02*
D03*
Y595400D02*
D03*
X332450Y746000D02*
D03*
X357850D02*
D03*
X383250D02*
D03*
D118*
X168000Y858500D02*
D03*
D119*
X261000Y725000D02*
D03*
X156000Y972000D02*
D03*
X95000Y971000D02*
D03*
X739000Y654000D02*
D03*
X869000Y573000D02*
D03*
D120*
X210600Y282000D02*
D03*
X236000D02*
D03*
D121*
X115100Y567510D02*
D03*
X140100Y582510D02*
D03*
X115100Y627510D02*
D03*
Y597510D02*
D03*
X140100Y552510D02*
D03*
Y522510D02*
D03*
X115100Y657510D02*
D03*
Y687510D02*
D03*
X140100Y642510D02*
D03*
X170100Y672510D02*
D03*
X115100Y537510D02*
D03*
X195100Y597510D02*
D03*
Y657510D02*
D03*
X170100Y642510D02*
D03*
Y552510D02*
D03*
X195100Y507510D02*
D03*
Y567510D02*
D03*
Y477510D02*
D03*
X170100Y462510D02*
D03*
X195100Y537510D02*
D03*
Y447510D02*
D03*
X115100Y477510D02*
D03*
X140100Y612510D02*
D03*
X170100D02*
D03*
X115100Y507510D02*
D03*
X195100Y627510D02*
D03*
X170100Y582510D02*
D03*
X140100Y672510D02*
D03*
X170100Y522510D02*
D03*
Y492510D02*
D03*
X140100D02*
D03*
Y462510D02*
D03*
X115100Y447510D02*
D03*
D122*
X269500Y786500D02*
D03*
Y831500D02*
D03*
X204500Y786500D02*
D03*
X500500Y933500D02*
D03*
Y978500D02*
D03*
X565500D02*
D03*
X521386Y256117D02*
D03*
X489566Y287936D02*
D03*
X535528Y333898D02*
D03*
D123*
X204500Y831500D02*
D03*
X565500Y933500D02*
D03*
D124*
X567348Y302078D02*
D03*
D125*
X87400Y172000D02*
D03*
X36600D02*
D03*
D126*
X50100Y375010D02*
D03*
Y760010D02*
D03*
D127*
X195100Y687510D02*
D03*
D128*
X261400Y282000D02*
D03*
D129*
X657950Y560750D02*
D03*
X835750Y485750D02*
D03*
X657950Y535750D02*
D03*
X835750Y510750D02*
D03*
X835750Y535750D02*
D03*
Y560750D02*
D03*
X657950Y460750D02*
D03*
X657950Y510750D02*
D03*
Y485750D02*
D03*
D130*
X120690Y213810D02*
D03*
D131*
X150690Y260810D02*
D03*
D132*
X121000Y810800D02*
D03*
Y931200D02*
D03*
D133*
X148000Y858500D02*
D03*
X168000Y883500D02*
D03*
X148000D02*
D03*
D134*
X961000Y433800D02*
D03*
X981230Y56040D02*
D03*
X700680Y56040D02*
D03*
D135*
X670650Y414300D02*
D03*
X823050Y414300D02*
D03*
X823050Y630200D02*
D03*
X670650D02*
D03*
X34640Y36400D02*
D03*
X965290Y347560D02*
D03*
Y963500D02*
D03*
X34640D02*
D03*
D136*
X657950Y585750D02*
D03*
D137*
X953450Y879550D02*
D03*
Y811550D02*
D03*
D138*
X91000Y257000D02*
D03*
D156*
X839250Y852750D02*
D03*
X839250Y874750D02*
D03*
X839250Y896750D02*
D03*
X839250Y863750D02*
D03*
Y907750D02*
D03*
Y885750D02*
D03*
Y830750D02*
D03*
Y841750D02*
D03*
Y819750D02*
D03*
D157*
X178000Y404450D02*
D03*
X187500Y425550D02*
D03*
X168500Y425550D02*
D03*
D158*
X323582Y426818D02*
D03*
X434918Y560082D02*
D03*
X528153Y299554D02*
D03*
X451082Y543918D02*
D03*
X544317Y283390D02*
D03*
X307418Y442982D02*
D03*
D159*
X949250Y921550D02*
D03*
Y760050D02*
D03*
X859250Y921550D02*
D03*
Y760050D02*
D03*
D160*
X373975Y571075D02*
D03*
X306800Y503900D02*
D03*
M02*
