G04*
G04 #@! TF.GenerationSoftware,Altium Limited,Altium Designer,25.7.1 (20)*
G04*
G04 Layer_Color=32768*
%FSLAX44Y44*%
%MOMM*%
G71*
G04*
G04 #@! TF.SameCoordinates,E610F868-73EF-4846-AD65-6CABB719E0C8*
G04*
G04*
G04 #@! TF.FilePolarity,Positive*
G04*
G01*
G75*
%ADD170C,0.0500*%
%ADD171C,0.1000*%
D170*
X813250Y830750D02*
G03*
X813250Y830750I-110750J0D01*
G01*
X528150Y641000D02*
X602350Y641000D01*
X528150Y696000D02*
X602350Y696000D01*
X602350Y641000D02*
X602350Y696000D01*
X528150Y641000D02*
X528150Y696000D01*
X906500Y714025D02*
X991500D01*
X906500Y643975D02*
Y714025D01*
Y643975D02*
X991500D01*
Y714025D01*
X188975Y898500D02*
Y983500D01*
Y898500D02*
X259025D01*
Y983500D01*
X188975D02*
X259025D01*
X194500Y776550D02*
Y841500D01*
Y776550D02*
X279500D01*
Y841500D01*
X194500D02*
X279500D01*
X575500Y923500D02*
Y988450D01*
X490500D02*
X575500D01*
X490500Y923500D02*
Y988450D01*
Y923500D02*
X575500D01*
X535563Y348005D02*
X581490Y302078D01*
X475459Y287901D02*
X535563Y348005D01*
X475459Y287901D02*
X521386Y241974D01*
X581490Y302078D01*
X17750Y149500D02*
Y194500D01*
Y149500D02*
X106250D01*
Y194500D01*
X17750D02*
X106250D01*
X368700Y692300D02*
X402700D01*
X368700D02*
Y726300D01*
X402700D01*
Y692300D02*
Y726300D01*
X225100Y372510D02*
Y762510D01*
X87600Y372510D02*
X225100D01*
X87600Y337510D02*
Y372510D01*
X12600Y337510D02*
X87600D01*
X12600D02*
Y372510D01*
X-144900D02*
X12600D01*
X-144900D02*
Y762510D01*
X12600D01*
Y797510D01*
X87600D01*
Y762510D02*
Y797510D01*
Y762510D02*
X225100D01*
X66600Y10350D02*
Y129650D01*
X190000D01*
Y108300D02*
Y129650D01*
Y108300D02*
X249400Y108300D01*
Y31700D02*
Y108300D01*
X190000Y31700D02*
X249400Y31700D01*
X190000Y10350D02*
Y31700D01*
X66600Y10350D02*
X190000D01*
X286150Y255300D02*
X286150Y308600D01*
X185850D02*
X286150D01*
X185850D02*
X185850Y255300D01*
X286150D01*
X289500Y129000D02*
X314500D01*
X289500Y115000D02*
X289500Y129000D01*
X274250Y115000D02*
X289500D01*
X258000Y98750D02*
X274250Y115000D01*
X258000Y27000D02*
Y98750D01*
Y27000D02*
X289500D01*
X289500Y13000D01*
X314500D01*
X314500Y27000D01*
X346000D01*
Y98750D01*
X329750Y115000D02*
X346000Y98750D01*
X314500Y115000D02*
X329750D01*
X314500Y129000D02*
X314500Y115000D01*
X995250Y588700D02*
X995250Y380500D01*
X898050Y588700D02*
X995250D01*
X898050Y380500D02*
Y588700D01*
Y380500D02*
X995250D01*
X864500Y542750D02*
X897500D01*
Y525250D02*
Y542750D01*
X864500Y525250D02*
X897500D01*
X864500D02*
Y542750D01*
X829750Y752050D02*
Y929550D01*
Y752050D02*
X995750D01*
X829750Y929550D02*
X995750D01*
Y786050D02*
Y929550D01*
Y786050D02*
X998250D01*
Y770050D02*
Y786050D01*
X995750Y770050D02*
X998250D01*
X995750Y752050D02*
Y770050D01*
X433200Y355616D02*
X528094Y450510D01*
X338306D02*
X433200Y545404D01*
X528094Y450510D01*
X338306D02*
X433200Y355616D01*
X284150Y646550D02*
X358350D01*
X284150Y701550D02*
X358350D01*
Y646550D02*
Y701550D01*
X284150Y646550D02*
Y701550D01*
X159500Y927250D02*
X177000D01*
Y894250D02*
Y927250D01*
X159500Y894250D02*
X177000D01*
X159500D02*
Y927250D01*
X140100Y934000D02*
X181500D01*
X140100D02*
Y950300D01*
X101900D02*
X140100D01*
X101900Y934000D02*
Y950300D01*
X14500Y934000D02*
X101900D01*
X14500Y808000D02*
Y934000D01*
Y808000D02*
X101900D01*
Y791700D02*
Y808000D01*
Y791700D02*
X140100D01*
Y808000D01*
X181500D01*
Y934000D01*
X146190Y213310D02*
X160690D01*
X146190Y199810D02*
Y213310D01*
X95190Y199810D02*
X146190D01*
X95190D02*
Y213310D01*
X10690D02*
X95190D01*
X10690D02*
Y308310D01*
X160690D01*
Y284310D02*
Y308310D01*
Y213310D02*
Y238310D01*
X166190D01*
Y284310D01*
X160690D02*
X166190D01*
X307153Y486576D02*
X317053Y476676D01*
X294426Y473848D02*
X307153Y486576D01*
X276748Y491526D02*
X294426Y473848D01*
X276748Y491526D02*
X289476Y504254D01*
X279576Y514153D02*
X289476Y504254D01*
X279576Y514153D02*
X363722Y598299D01*
X373622Y588399D01*
X386349Y601127D01*
X404027Y583450D01*
X391299Y570722D02*
X404027Y583450D01*
X391299Y570722D02*
X401199Y560822D01*
X317053Y476676D02*
X401199Y560822D01*
X529000Y52500D02*
Y77500D01*
Y52500D02*
X543000Y52500D01*
Y37250D02*
Y52500D01*
Y37250D02*
X559250Y21000D01*
X631000D01*
Y52500D01*
X645000Y52500D01*
Y77500D01*
X631000Y77500D02*
X645000Y77500D01*
X631000Y77500D02*
Y109000D01*
X559250D02*
X631000D01*
X543000Y92750D02*
X559250Y109000D01*
X543000Y77500D02*
Y92750D01*
X529000Y77500D02*
X543000Y77500D01*
X134500Y159250D02*
Y192250D01*
X117000Y159250D02*
X134500D01*
X117000D02*
Y192250D01*
X134500D01*
X290550Y234500D02*
X344500Y234500D01*
X290550Y234500D02*
Y249000D01*
X173500Y249000D02*
X290550Y249000D01*
X173500Y137000D02*
Y249000D01*
Y137000D02*
X290550D01*
X290550Y151500D01*
X344500D01*
Y234500D01*
X966030Y40840D02*
X966030Y325240D01*
X966030Y40840D02*
X996430D01*
X996430Y325240D02*
X996430Y40840D01*
X966030Y325240D02*
X996430D01*
X685480Y325240D02*
X685480Y40840D01*
X715880D01*
X715880Y325240D01*
X685480D02*
X715880D01*
X176750Y814500D02*
Y847500D01*
X159250D02*
X176750D01*
X159250Y814500D02*
Y847500D01*
Y814500D02*
X176750D01*
X139750Y894000D02*
Y927000D01*
Y894000D02*
X157250D01*
Y927000D01*
X139750D02*
X157250D01*
X160900Y395750D02*
X160900Y434250D01*
X160900Y395750D02*
X195100Y395750D01*
X195100Y434250D01*
X160900Y434250D02*
X195100Y434250D01*
D171*
X697500Y830750D02*
X707500D01*
X702500Y825750D02*
Y835750D01*
M02*
