G04*
G04 #@! TF.GenerationSoftware,Altium Limited,Altium Designer,25.7.1 (20)*
G04*
G04 Layer_Physical_Order=1*
G04 Layer_Color=255*
%FSLAX44Y44*%
%MOMM*%
G71*
G04*
G04 #@! TF.SameCoordinates,E610F868-73EF-4846-AD65-6CABB719E0C8*
G04*
G04*
G04 #@! TF.FilePolarity,Positive*
G04*
G01*
G75*
%ADD10C,0.2000*%
%ADD12C,0.4000*%
%ADD18R,0.4000X0.8000*%
%ADD19R,0.8000X0.4000*%
%ADD20R,0.8000X0.8000*%
%ADD21R,1.2000X1.2000*%
G04:AMPARAMS|DCode=22|XSize=1.58mm|YSize=0.6mm|CornerRadius=0.075mm|HoleSize=0mm|Usage=FLASHONLY|Rotation=180.000|XOffset=0mm|YOffset=0mm|HoleType=Round|Shape=RoundedRectangle|*
%AMROUNDEDRECTD22*
21,1,1.5800,0.4500,0,0,180.0*
21,1,1.4300,0.6000,0,0,180.0*
1,1,0.1500,-0.7150,0.2250*
1,1,0.1500,0.7150,0.2250*
1,1,0.1500,0.7150,-0.2250*
1,1,0.1500,-0.7150,-0.2250*
%
%ADD22ROUNDEDRECTD22*%
G04:AMPARAMS|DCode=23|XSize=1mm|YSize=1.7mm|CornerRadius=0.125mm|HoleSize=0mm|Usage=FLASHONLY|Rotation=270.000|XOffset=0mm|YOffset=0mm|HoleType=Round|Shape=RoundedRectangle|*
%AMROUNDEDRECTD23*
21,1,1.0000,1.4500,0,0,270.0*
21,1,0.7500,1.7000,0,0,270.0*
1,1,0.2500,-0.7250,-0.3750*
1,1,0.2500,-0.7250,0.3750*
1,1,0.2500,0.7250,0.3750*
1,1,0.2500,0.7250,-0.3750*
%
%ADD23ROUNDEDRECTD23*%
G04:AMPARAMS|DCode=24|XSize=1.31mm|YSize=0.93mm|CornerRadius=0.0698mm|HoleSize=0mm|Usage=FLASHONLY|Rotation=90.000|XOffset=0mm|YOffset=0mm|HoleType=Round|Shape=RoundedRectangle|*
%AMROUNDEDRECTD24*
21,1,1.3100,0.7905,0,0,90.0*
21,1,1.1705,0.9300,0,0,90.0*
1,1,0.1395,0.3953,0.5853*
1,1,0.1395,0.3953,-0.5853*
1,1,0.1395,-0.3953,-0.5853*
1,1,0.1395,-0.3953,0.5853*
%
%ADD24ROUNDEDRECTD24*%
%ADD25R,4.0000X2.0000*%
G04:AMPARAMS|DCode=26|XSize=1.4mm|YSize=1.7mm|CornerRadius=0.175mm|HoleSize=0mm|Usage=FLASHONLY|Rotation=180.000|XOffset=0mm|YOffset=0mm|HoleType=Round|Shape=RoundedRectangle|*
%AMROUNDEDRECTD26*
21,1,1.4000,1.3500,0,0,180.0*
21,1,1.0500,1.7000,0,0,180.0*
1,1,0.3500,-0.5250,0.6750*
1,1,0.3500,0.5250,0.6750*
1,1,0.3500,0.5250,-0.6750*
1,1,0.3500,-0.5250,-0.6750*
%
%ADD26ROUNDEDRECTD26*%
G04:AMPARAMS|DCode=27|XSize=1mm|YSize=1.7mm|CornerRadius=0.125mm|HoleSize=0mm|Usage=FLASHONLY|Rotation=180.000|XOffset=0mm|YOffset=0mm|HoleType=Round|Shape=RoundedRectangle|*
%AMROUNDEDRECTD27*
21,1,1.0000,1.4500,0,0,180.0*
21,1,0.7500,1.7000,0,0,180.0*
1,1,0.2500,-0.3750,0.7250*
1,1,0.2500,0.3750,0.7250*
1,1,0.2500,0.3750,-0.7250*
1,1,0.2500,-0.3750,-0.7250*
%
%ADD27ROUNDEDRECTD27*%
%ADD28R,2.8956X5.4102*%
G04:AMPARAMS|DCode=29|XSize=1.31mm|YSize=3.24mm|CornerRadius=0.0983mm|HoleSize=0mm|Usage=FLASHONLY|Rotation=0.000|XOffset=0mm|YOffset=0mm|HoleType=Round|Shape=RoundedRectangle|*
%AMROUNDEDRECTD29*
21,1,1.3100,3.0435,0,0,0.0*
21,1,1.1135,3.2400,0,0,0.0*
1,1,0.1965,0.5568,-1.5218*
1,1,0.1965,-0.5568,-1.5218*
1,1,0.1965,-0.5568,1.5218*
1,1,0.1965,0.5568,1.5218*
%
%ADD29ROUNDEDRECTD29*%
G04:AMPARAMS|DCode=30|XSize=1.31mm|YSize=0.93mm|CornerRadius=0.0698mm|HoleSize=0mm|Usage=FLASHONLY|Rotation=0.000|XOffset=0mm|YOffset=0mm|HoleType=Round|Shape=RoundedRectangle|*
%AMROUNDEDRECTD30*
21,1,1.3100,0.7905,0,0,0.0*
21,1,1.1705,0.9300,0,0,0.0*
1,1,0.1395,0.5853,-0.3953*
1,1,0.1395,-0.5853,-0.3953*
1,1,0.1395,-0.5853,0.3953*
1,1,0.1395,0.5853,0.3953*
%
%ADD30ROUNDEDRECTD30*%
G04:AMPARAMS|DCode=31|XSize=1.31mm|YSize=3.24mm|CornerRadius=0.0983mm|HoleSize=0mm|Usage=FLASHONLY|Rotation=90.000|XOffset=0mm|YOffset=0mm|HoleType=Round|Shape=RoundedRectangle|*
%AMROUNDEDRECTD31*
21,1,1.3100,3.0435,0,0,90.0*
21,1,1.1135,3.2400,0,0,90.0*
1,1,0.1965,1.5218,0.5568*
1,1,0.1965,1.5218,-0.5568*
1,1,0.1965,-1.5218,-0.5568*
1,1,0.1965,-1.5218,0.5568*
%
%ADD31ROUNDEDRECTD31*%
%ADD32R,0.9000X0.8000*%
%ADD33R,3.8100X2.0800*%
G04:AMPARAMS|DCode=34|XSize=1.4mm|YSize=1.7mm|CornerRadius=0.175mm|HoleSize=0mm|Usage=FLASHONLY|Rotation=270.000|XOffset=0mm|YOffset=0mm|HoleType=Round|Shape=RoundedRectangle|*
%AMROUNDEDRECTD34*
21,1,1.4000,1.3500,0,0,270.0*
21,1,1.0500,1.7000,0,0,270.0*
1,1,0.3500,-0.6750,-0.5250*
1,1,0.3500,-0.6750,0.5250*
1,1,0.3500,0.6750,0.5250*
1,1,0.3500,0.6750,-0.5250*
%
%ADD34ROUNDEDRECTD34*%
G04:AMPARAMS|DCode=35|XSize=1.4mm|YSize=1.7mm|CornerRadius=0.175mm|HoleSize=0mm|Usage=FLASHONLY|Rotation=225.000|XOffset=0mm|YOffset=0mm|HoleType=Round|Shape=RoundedRectangle|*
%AMROUNDEDRECTD35*
21,1,1.4000,1.3500,0,0,225.0*
21,1,1.0500,1.7000,0,0,225.0*
1,1,0.3500,-0.8485,0.1061*
1,1,0.3500,-0.1061,0.8485*
1,1,0.3500,0.8485,-0.1061*
1,1,0.3500,0.1061,-0.8485*
%
%ADD35ROUNDEDRECTD35*%
G04:AMPARAMS|DCode=36|XSize=1.56mm|YSize=0.28mm|CornerRadius=0.07mm|HoleSize=0mm|Usage=FLASHONLY|Rotation=315.000|XOffset=0mm|YOffset=0mm|HoleType=Round|Shape=RoundedRectangle|*
%AMROUNDEDRECTD36*
21,1,1.5600,0.1400,0,0,315.0*
21,1,1.4200,0.2800,0,0,315.0*
1,1,0.1400,0.4526,-0.5515*
1,1,0.1400,-0.5515,0.4526*
1,1,0.1400,-0.4526,0.5515*
1,1,0.1400,0.5515,-0.4526*
%
%ADD36ROUNDEDRECTD36*%
G04:AMPARAMS|DCode=37|XSize=1.56mm|YSize=0.28mm|CornerRadius=0.07mm|HoleSize=0mm|Usage=FLASHONLY|Rotation=225.000|XOffset=0mm|YOffset=0mm|HoleType=Round|Shape=RoundedRectangle|*
%AMROUNDEDRECTD37*
21,1,1.5600,0.1400,0,0,225.0*
21,1,1.4200,0.2800,0,0,225.0*
1,1,0.1400,-0.5515,-0.4526*
1,1,0.1400,0.4526,0.5515*
1,1,0.1400,0.5515,0.4526*
1,1,0.1400,-0.4526,-0.5515*
%
%ADD37ROUNDEDRECTD37*%
%ADD38R,2.0000X4.0000*%
%ADD42R,1.8000X1.7000*%
G04:AMPARAMS|DCode=43|XSize=1mm|YSize=1.7mm|CornerRadius=0.125mm|HoleSize=0mm|Usage=FLASHONLY|Rotation=225.000|XOffset=0mm|YOffset=0mm|HoleType=Round|Shape=RoundedRectangle|*
%AMROUNDEDRECTD43*
21,1,1.0000,1.4500,0,0,225.0*
21,1,0.7500,1.7000,0,0,225.0*
1,1,0.2500,-0.7778,0.2475*
1,1,0.2500,-0.2475,0.7778*
1,1,0.2500,0.7778,-0.2475*
1,1,0.2500,0.2475,-0.7778*
%
%ADD43ROUNDEDRECTD43*%
%ADD81C,1.4500*%
%ADD98C,1.3700*%
%ADD99R,0.4000X0.4000*%
%ADD100R,8.8900X11.4300*%
%ADD101R,3.4000X1.0000*%
%ADD102R,0.6000X0.6000*%
%ADD103R,8.6000X10.7000*%
%ADD104R,0.6000X0.6000*%
%ADD105C,0.2500*%
%ADD106C,1.0000*%
%ADD107C,0.3000*%
%ADD108C,0.7500*%
%ADD109C,0.6000*%
%ADD110C,1.2000*%
%ADD111C,0.7000*%
%ADD112C,0.1800*%
%ADD113C,0.5000*%
%ADD114C,1.7000*%
%ADD115C,0.3177*%
%ADD116C,0.3500*%
%ADD117C,1.5748*%
%ADD118R,1.4080X1.4080*%
%ADD119C,1.8000*%
%ADD120C,1.2180*%
%ADD121C,1.9500*%
%ADD122C,1.4980*%
%ADD123R,1.4980X1.4980*%
%ADD124P,2.1185X4X270.0*%
%ADD125C,1.3500*%
%ADD126C,3.3000*%
%ADD127R,1.9500X1.9500*%
%ADD128R,1.2180X1.2180*%
%ADD129O,2.5400X1.2000*%
%ADD130O,4.5000X2.2500*%
%ADD131O,2.5000X5.0000*%
%ADD132C,3.3160*%
%ADD133C,1.4080*%
%ADD134R,1.3700X1.3700*%
%ADD135C,4.0000*%
%ADD136R,2.5400X1.2000*%
%ADD137C,0.9500*%
%ADD138O,2.2500X4.5000*%
%ADD139C,0.7000*%
%ADD140C,1.2700*%
G36*
X257750Y923475D02*
X191000D01*
Y982500D01*
X257750D01*
Y923475D01*
D02*
G37*
G36*
X476000Y934000D02*
Y925000D01*
X475000Y924000D01*
X402000D01*
X400000Y922000D01*
Y916000D01*
X398000Y914000D01*
X390000D01*
X388000Y916000D01*
Y922000D01*
X386000Y924000D01*
X338000D01*
X336000Y922000D01*
Y909000D01*
X334000Y907000D01*
X327000D01*
X325000Y909000D01*
Y933000D01*
X326711Y934711D01*
X475289D01*
X476000Y934000D01*
D02*
G37*
G36*
X424000Y835500D02*
X423370Y834873D01*
X376000Y835130D01*
X376000Y878000D01*
X382000Y884000D01*
X424000Y884000D01*
X424000Y835500D01*
D02*
G37*
G36*
X990000Y646000D02*
X958000D01*
Y672000D01*
X858000D01*
Y691000D01*
X929000D01*
Y712000D01*
X990000D01*
Y646000D01*
D02*
G37*
G36*
X951000Y593000D02*
X929000D01*
Y621000D01*
X914000Y636000D01*
X883000D01*
Y664000D01*
X951000D01*
Y593000D01*
D02*
G37*
G36*
X975000Y526000D02*
X924000D01*
X924000Y541000D01*
X955000Y572000D01*
X955000Y615000D01*
X975000D01*
Y526000D01*
D02*
G37*
G36*
X343000Y165000D02*
Y129000D01*
X378000D01*
Y99000D01*
Y88000D01*
X316000D01*
X312000Y84000D01*
X208000D01*
Y107000D01*
X283000D01*
X290000Y114000D01*
Y129000D01*
X303000D01*
X307000Y133000D01*
Y165000D01*
X343000Y165000D01*
D02*
G37*
G36*
X579000Y155000D02*
X575000Y151000D01*
Y117000D01*
X572000Y114000D01*
Y54000D01*
X493000D01*
X492821Y53821D01*
X492000Y54162D01*
Y108000D01*
X493000Y109000D01*
X523000D01*
Y134000D01*
X562000Y173000D01*
X579000D01*
Y155000D01*
D02*
G37*
G36*
X98000Y179000D02*
Y172000D01*
X101000Y169000D01*
X130250D01*
X132000Y167250D01*
Y142000D01*
X144000Y130000D01*
X160000D01*
Y12000D01*
X158000Y10000D01*
X66000D01*
X64000Y12000D01*
Y131000D01*
X72000D01*
X77000Y136000D01*
Y178000D01*
X82000Y183000D01*
X94000D01*
X98000Y179000D01*
D02*
G37*
D10*
X377126Y474764D02*
X386543Y465347D01*
Y460957D02*
Y465347D01*
Y460957D02*
X387500Y460000D01*
X346196Y434804D02*
Y439439D01*
X345918Y439718D02*
X346196Y439439D01*
Y434804D02*
X356500Y424500D01*
X390000Y360000D02*
Y360782D01*
X361228Y424500D02*
X370055Y433327D01*
X416017Y386800D02*
Y387365D01*
X390000Y360782D02*
X416017Y386800D01*
X356500Y424500D02*
X361228D01*
X380662Y478299D02*
X381228D01*
X388777Y470750D02*
X399750D01*
X381228Y478299D02*
X388777Y470750D01*
X299450Y680400D02*
X301450Y678400D01*
X294550Y680400D02*
X299450D01*
X302622Y676300D02*
X312365D01*
X301450Y677472D02*
X302622Y676300D01*
X312540Y676125D02*
X317375D01*
X312365Y676300D02*
X312540Y676125D01*
X301450Y677472D02*
Y678400D01*
X518100Y675500D02*
X522600Y671000D01*
X530436D01*
X546665D02*
X557250D01*
X530436D02*
X531900Y672465D01*
X545200D02*
X546665Y671000D01*
X557250D02*
X566750Y680500D01*
X531900Y672465D02*
Y673100D01*
X533650Y674850D01*
X538550D01*
X317375Y676125D02*
X322250Y681000D01*
X538550Y674850D02*
X543450D01*
X545200Y672465D02*
Y673100D01*
X543450Y674850D02*
X545200Y673100D01*
X566750Y699500D02*
X580600Y713350D01*
X566750Y680500D02*
Y699500D01*
X570400Y734000D02*
X580600Y723800D01*
Y713350D02*
Y723800D01*
X294550Y667700D02*
X299450D01*
X301450Y669700D02*
Y670629D01*
X299450Y667700D02*
X301450Y669700D01*
Y670629D02*
X302622Y671800D01*
X310501D01*
X310676Y671625D01*
X518100Y661500D02*
X522600Y666000D01*
X531900Y663900D02*
Y664536D01*
Y663900D02*
X533650Y662150D01*
X538550D01*
X543450D01*
X545200Y663900D01*
Y664536D01*
X522600Y666000D02*
X530435D01*
X310676Y671625D02*
X317375D01*
X322250Y666750D02*
Y666893D01*
X317375Y671625D02*
X322107Y666893D01*
X322250D01*
X530435Y666000D02*
X531900Y664536D01*
X545200D02*
X546665Y666000D01*
X559321D01*
X571750Y678429D01*
Y697429D01*
X585600Y711279D01*
Y723800D01*
X595800Y734000D01*
X502079Y466356D02*
X502644D01*
X504843Y464157D02*
X504843D01*
X502644Y466356D02*
X504843Y464157D01*
X504843D02*
X514584Y454416D01*
X499880Y464157D02*
X502079Y466356D01*
X514584Y454416D02*
X514584D01*
X895800Y433800D02*
X935600D01*
X881956Y419956D02*
X895800Y433800D01*
X372000Y378250D02*
X389092Y395342D01*
X326750Y378250D02*
X372000D01*
X242750Y492250D02*
X338750Y396250D01*
X332750Y387250D02*
X371500D01*
X381000Y396750D01*
X370500Y396250D02*
X376968Y402718D01*
X338750Y396250D02*
X370500D01*
X242500Y462500D02*
X326750Y378250D01*
X242490Y477510D02*
X332750Y387250D01*
X376968Y402718D02*
Y404081D01*
X382518Y409631D01*
Y409869D01*
X387733Y415084D01*
Y415650D01*
X389092Y395342D02*
Y402301D01*
X381000Y396750D02*
Y401280D01*
X391269Y411549D01*
X389092Y402301D02*
X394804Y408013D01*
Y408579D01*
X391269Y411549D02*
Y412114D01*
X417328Y795328D02*
X427000Y805000D01*
X417328Y789828D02*
Y795328D01*
X417000Y789500D02*
X417328Y789828D01*
X443293Y804543D02*
X444250Y805500D01*
X443293Y802293D02*
Y804543D01*
X435000Y794000D02*
X443293Y802293D01*
X435000Y790500D02*
Y794000D01*
X434000Y789500D02*
X435000Y790500D01*
X404081Y382500D02*
X412482Y390901D01*
X392500Y382500D02*
X404081D01*
X392700Y683800D02*
X403400D01*
X359500Y693100D02*
X372450Y706050D01*
X378950Y697550D02*
X392700Y683800D01*
X372450Y706050D02*
Y706550D01*
X421414Y663000D02*
X424200D01*
X417664Y666750D02*
Y669536D01*
X372450Y706550D02*
X375200Y709300D01*
X376200D02*
X378950Y706550D01*
X403400Y683800D02*
X417664Y669536D01*
X347950Y693100D02*
X359500D01*
X378950Y697550D02*
Y706550D01*
X417664Y666750D02*
X421414Y663000D01*
X332450Y746000D02*
X372200Y712300D01*
X375700Y709300D01*
X349000Y776000D02*
Y789500D01*
X338222Y655028D02*
X347922D01*
X347950Y655000D01*
X339000Y766000D02*
X349000Y776000D01*
X333000Y660250D02*
X338222Y655028D01*
X333000Y660250D02*
Y695000D01*
X309000Y719000D02*
X333000Y695000D01*
X309000Y719000D02*
Y756000D01*
X319000Y766000D01*
X339000D01*
X281750Y516000D02*
X316500D01*
X170100Y552510D02*
X245240D01*
X281750Y516000D01*
X316500D02*
X347750Y484750D01*
X360069D01*
X373591Y471228D01*
X195100Y477510D02*
X242490D01*
X245490Y537510D02*
X276000Y507000D01*
X195100Y537510D02*
X245490D01*
X276000Y507000D02*
X311500D01*
X342250Y476250D01*
X361498D02*
X370055Y467693D01*
X342250Y476250D02*
X361498D01*
X189750Y462500D02*
X242500D01*
X115100Y477510D02*
X174740D01*
X189750Y462500D01*
X267750Y498000D02*
X306500D01*
X244000Y521750D02*
X267750Y498000D01*
X191609Y521750D02*
X244000D01*
X306500Y498000D02*
X336000Y468500D01*
X365954Y464157D02*
X366520D01*
X361429Y468683D02*
X365954Y464157D01*
X361246Y468500D02*
X361429Y468683D01*
X336000Y468500D02*
X361246D01*
X115100Y537510D02*
X175849D01*
X191609Y521750D01*
X463743Y367942D02*
X466217Y365467D01*
X463743Y367942D02*
Y381077D01*
X453918Y390901D02*
X463743Y381077D01*
X189250Y492250D02*
X242750D01*
X173990Y507510D02*
X189250Y492250D01*
X115100Y507510D02*
X173990D01*
X321250Y525000D02*
X354000Y492250D01*
X373782D01*
X384198Y481835D01*
X285750Y525000D02*
X321250D01*
X243240Y567510D02*
X285750Y525000D01*
X195100Y567510D02*
X243240D01*
X373603Y499500D02*
X387733Y485370D01*
X359500Y499500D02*
X373603D01*
X325000Y534000D02*
X359500Y499500D01*
X240250Y584500D02*
X290750Y534000D01*
X325000D01*
X188000Y584500D02*
X240250D01*
X155404Y597206D02*
X175294D01*
X188000Y584500D01*
X140208Y612402D02*
X155404Y597206D01*
X412062Y477938D02*
Y482254D01*
X398340Y495977D02*
X412062Y482254D01*
Y477938D02*
X412500Y477500D01*
X336466Y777466D02*
X340500Y781500D01*
Y789500D01*
X317809Y777466D02*
X336466D01*
X315596Y779679D02*
X317809Y777466D01*
X311615Y784500D02*
X315596Y780519D01*
Y779679D02*
Y780519D01*
X308250Y784500D02*
X311615D01*
X457000Y877000D02*
X457250Y876750D01*
X469750D01*
X470000Y876500D01*
X325619Y639205D02*
X329600Y635224D01*
X323095Y639205D02*
X325619D01*
X329600Y632700D02*
Y635224D01*
X294550Y655000D02*
X307300D01*
X323095Y639205D01*
X523246Y646279D02*
X526416Y649450D01*
X538550D01*
X519265Y641100D02*
X523246Y645081D01*
Y646279D01*
X515900Y641100D02*
X519265D01*
D12*
X439848Y710598D02*
Y743752D01*
X432102Y702851D02*
X439848Y710598D01*
X437600Y746000D02*
X439848Y743752D01*
X421552Y702851D02*
X432102D01*
X419100Y700400D02*
X421552Y702851D01*
X395700Y699800D02*
X396300Y700400D01*
X419100D01*
X522000Y890500D02*
X544000D01*
X498000D02*
X522000D01*
X295657Y914843D02*
X307157D01*
X320000Y902000D01*
X330000D02*
X348500D01*
X320000D02*
X330000D01*
X258000Y930000D02*
X272500Y915500D01*
X224000Y930000D02*
X258000D01*
X295000Y915500D02*
X295657Y914843D01*
X272500Y915500D02*
X295000D01*
X347950Y667700D02*
X352850D01*
X354726Y665824D01*
X355926D01*
X356500Y665250D01*
X835750Y485750D02*
X856750D01*
X870000Y499000D02*
Y534000D01*
X856750Y485750D02*
X870000Y499000D01*
X296500Y936000D02*
Y975000D01*
D18*
X349000Y789500D02*
D03*
X340500D02*
D03*
X357500D02*
D03*
X366000D02*
D03*
X374500D02*
D03*
X383000D02*
D03*
X391500D02*
D03*
X400000D02*
D03*
X408500D02*
D03*
X425500D02*
D03*
X442500D02*
D03*
X451000D02*
D03*
X459500D02*
D03*
X340500Y929500D02*
D03*
X366000D02*
D03*
X374500D02*
D03*
X349000D02*
D03*
X357500D02*
D03*
X383000D02*
D03*
X391500D02*
D03*
X425500D02*
D03*
X400000D02*
D03*
X417000D02*
D03*
X408500D02*
D03*
X451000D02*
D03*
X434000D02*
D03*
X442500D02*
D03*
X459500D02*
D03*
X434000Y789500D02*
D03*
X417000D02*
D03*
D19*
X330000Y817000D02*
D03*
Y825500D02*
D03*
X470000Y876500D02*
D03*
Y868000D02*
D03*
Y919000D02*
D03*
Y910500D02*
D03*
X330000Y893500D02*
D03*
Y885000D02*
D03*
Y876500D02*
D03*
Y868000D02*
D03*
Y859500D02*
D03*
Y851000D02*
D03*
Y842500D02*
D03*
Y834000D02*
D03*
Y808500D02*
D03*
Y800000D02*
D03*
X470000Y842500D02*
D03*
Y851000D02*
D03*
Y859500D02*
D03*
Y885000D02*
D03*
X330000Y919000D02*
D03*
Y910500D02*
D03*
X470000Y902000D02*
D03*
Y893500D02*
D03*
Y834000D02*
D03*
Y817000D02*
D03*
Y800000D02*
D03*
Y808500D02*
D03*
Y825500D02*
D03*
X330000Y902000D02*
D03*
D20*
Y789500D02*
D03*
Y929500D02*
D03*
X470000D02*
D03*
Y789500D02*
D03*
D21*
X383500Y859500D02*
D03*
Y843000D02*
D03*
X400000Y859500D02*
D03*
Y876000D02*
D03*
Y843000D02*
D03*
X416500D02*
D03*
Y876000D02*
D03*
Y859500D02*
D03*
D22*
X538550Y687550D02*
D03*
Y649450D02*
D03*
X591950Y674850D02*
D03*
X538550Y662150D02*
D03*
X538550Y674850D02*
D03*
X591950Y687550D02*
D03*
X591950Y649450D02*
D03*
X591950Y662150D02*
D03*
X347950Y667700D02*
D03*
X294550Y680400D02*
D03*
Y667700D02*
D03*
X347950Y693100D02*
D03*
Y680400D02*
D03*
X294550Y693100D02*
D03*
Y655000D02*
D03*
X347950D02*
D03*
D23*
X424200Y644000D02*
D03*
X544000Y890500D02*
D03*
X295000Y915500D02*
D03*
X498000Y890500D02*
D03*
X419700Y701000D02*
D03*
X869000Y682500D02*
D03*
X368000Y94500D02*
D03*
X310000Y272500D02*
D03*
X368000Y32500D02*
D03*
X308000Y842000D02*
D03*
X515900Y622100D02*
D03*
X843000Y721500D02*
D03*
X424200Y663000D02*
D03*
X310000Y291500D02*
D03*
X308250Y784500D02*
D03*
X498000Y909500D02*
D03*
X544000D02*
D03*
X419700Y720000D02*
D03*
X515900Y641100D02*
D03*
X368000Y51500D02*
D03*
Y75500D02*
D03*
X308250Y803500D02*
D03*
X308000Y823000D02*
D03*
X869000Y701500D02*
D03*
X843000Y702500D02*
D03*
X295000Y934500D02*
D03*
D24*
X246900Y907550D02*
D03*
X201100D02*
D03*
X224000D02*
D03*
D25*
X551500Y65000D02*
D03*
X622500D02*
D03*
D26*
X570570Y163000D02*
D03*
X864570Y826000D02*
D03*
X864570Y798000D02*
D03*
X396330Y657900D02*
D03*
X593430Y163000D02*
D03*
X870570Y653000D02*
D03*
X887430Y826000D02*
D03*
Y798000D02*
D03*
X373470Y657900D02*
D03*
X893430Y653000D02*
D03*
D27*
X568500Y128000D02*
D03*
X839500Y909250D02*
D03*
Y881000D02*
D03*
Y853000D02*
D03*
Y825000D02*
D03*
X277500Y975000D02*
D03*
X348600Y632700D02*
D03*
X538500Y529000D02*
D03*
X627200Y128200D02*
D03*
X881500Y854000D02*
D03*
X858500Y909250D02*
D03*
X862500Y854000D02*
D03*
X820500Y853000D02*
D03*
Y825000D02*
D03*
X858500Y881000D02*
D03*
X519500Y529000D02*
D03*
X329600Y632700D02*
D03*
X587500Y128000D02*
D03*
X608200Y128200D02*
D03*
X296500Y975000D02*
D03*
D28*
X507530Y81000D02*
D03*
X408470D02*
D03*
D29*
X982450Y679000D02*
D03*
D30*
X915550Y656100D02*
D03*
X915550Y679000D02*
D03*
X915550Y701900D02*
D03*
D31*
X224000Y974450D02*
D03*
D32*
X375700Y709300D02*
D03*
X395700Y718800D02*
D03*
Y699800D02*
D03*
D33*
X227850Y95400D02*
D03*
Y44600D02*
D03*
D34*
X893000Y680570D02*
D03*
X368000Y120570D02*
D03*
Y143430D02*
D03*
X893000Y703430D02*
D03*
D35*
X466436Y554436D02*
D03*
X526918Y433918D02*
D03*
X448182Y575482D02*
D03*
X482600Y570600D02*
D03*
X543082Y450082D02*
D03*
X432018Y559318D02*
D03*
D36*
X499880Y436863D02*
D03*
X377126Y474764D02*
D03*
X380662Y478299D02*
D03*
X496345Y433327D02*
D03*
X492809Y429792D02*
D03*
X482202Y419185D02*
D03*
X478667Y415650D02*
D03*
X475131Y412114D02*
D03*
X471596Y408579D02*
D03*
X468060Y405043D02*
D03*
X457454Y394436D02*
D03*
X394804Y492441D02*
D03*
X398340Y495977D02*
D03*
X401875Y499513D02*
D03*
X405411Y503048D02*
D03*
X408946Y506584D02*
D03*
X412482Y510119D02*
D03*
X416017Y513655D02*
D03*
X446847Y383830D02*
D03*
X366520Y464157D02*
D03*
X464525Y401508D02*
D03*
X370055Y467693D02*
D03*
X384198Y481835D02*
D03*
X460989Y397972D02*
D03*
X373591Y471228D02*
D03*
X453918Y390901D02*
D03*
X387733Y485370D02*
D03*
X450383Y387365D02*
D03*
X391269Y488906D02*
D03*
X489274Y426256D02*
D03*
X485738Y422721D02*
D03*
X419553Y517190D02*
D03*
D37*
Y383830D02*
D03*
X373591Y429792D02*
D03*
X446847Y517190D02*
D03*
X416017Y387365D02*
D03*
X370055Y433327D02*
D03*
X450383Y513655D02*
D03*
X499880Y464157D02*
D03*
X464525Y499512D02*
D03*
X468060Y495977D02*
D03*
X412482Y390901D02*
D03*
X408946Y394436D02*
D03*
X405411Y397972D02*
D03*
X394804Y408579D02*
D03*
X391269Y412114D02*
D03*
X377126Y426256D02*
D03*
X453918Y510119D02*
D03*
X457454Y506584D02*
D03*
X460989Y503048D02*
D03*
X471596Y492441D02*
D03*
X475131Y488906D02*
D03*
X478667Y485370D02*
D03*
X482202Y481835D02*
D03*
X485738Y478299D02*
D03*
X489274Y474764D02*
D03*
X492809Y471228D02*
D03*
X496345Y467693D02*
D03*
X387733Y415650D02*
D03*
X384198Y419185D02*
D03*
X401875Y401507D02*
D03*
X366520Y436863D02*
D03*
X398340Y405043D02*
D03*
X380662Y422721D02*
D03*
D38*
X302000Y35500D02*
D03*
Y106500D02*
D03*
D42*
X414500Y192000D02*
D03*
X373500D02*
D03*
D43*
X485218Y346468D02*
D03*
X452783Y352033D02*
D03*
X466217Y365467D02*
D03*
X471782Y333032D02*
D03*
D81*
X702500Y933250D02*
D03*
Y728250D02*
D03*
D98*
X981230Y157640D02*
D03*
X700680Y132240D02*
D03*
X700680Y157640D02*
D03*
X981230Y208440D02*
D03*
X935600Y484600D02*
D03*
X961000D02*
D03*
Y459200D02*
D03*
X935600D02*
D03*
Y433800D02*
D03*
Y510000D02*
D03*
X961000Y510000D02*
D03*
X961000Y535400D02*
D03*
X935600Y535400D02*
D03*
X700680Y81440D02*
D03*
Y106840D02*
D03*
X981230Y310040D02*
D03*
Y284640D02*
D03*
Y259240D02*
D03*
Y233840D02*
D03*
Y183040D02*
D03*
Y132240D02*
D03*
Y81440D02*
D03*
Y106840D02*
D03*
X700680Y310040D02*
D03*
Y284640D02*
D03*
Y259240D02*
D03*
Y233840D02*
D03*
Y208440D02*
D03*
Y183040D02*
D03*
D99*
X383500Y876000D02*
D03*
D100*
X113550Y70000D02*
D03*
D101*
X325000Y159000D02*
D03*
Y227000D02*
D03*
Y193000D02*
D03*
Y210000D02*
D03*
Y176000D02*
D03*
D102*
X125750Y186750D02*
D03*
Y164750D02*
D03*
D103*
X219000Y193000D02*
D03*
D104*
X870000Y534000D02*
D03*
X892000D02*
D03*
D105*
X287745Y752255D02*
X293843Y746157D01*
Y763354D02*
Y764497D01*
Y745014D02*
Y746157D01*
X287745Y757255D02*
X293843Y763354D01*
X379304Y822750D02*
X383632Y818422D01*
X379000Y822750D02*
X379304D01*
X392946Y822696D02*
X393304D01*
X388672Y818422D02*
X392946Y822696D01*
X401730Y793230D02*
Y796833D01*
X383632Y814931D02*
X397270Y801293D01*
X399358Y806333D02*
X399358D01*
X397270Y801293D02*
X401730Y796833D01*
X406770Y793230D02*
Y798920D01*
Y793230D02*
X408500Y791500D01*
X397270Y801293D02*
X397270D01*
X388672Y817018D02*
X399358Y806333D01*
X399358D02*
X406770Y798920D01*
X388672Y817018D02*
Y818422D01*
X383632Y814931D02*
Y818422D01*
X400000Y789500D02*
Y791500D01*
X408500Y789500D02*
Y791500D01*
X400000D02*
X401730Y793230D01*
X150788Y882524D02*
Y883500D01*
X659400Y949400D02*
Y969000D01*
X649985Y939985D02*
X659400Y949400D01*
X621985Y939985D02*
X649985D01*
X558000Y876000D02*
X621985Y939985D01*
X489112Y931112D02*
X498112D01*
X470152Y919152D02*
X477152D01*
X489112Y931112D01*
X520000Y933500D02*
X536861Y916639D01*
X500500Y933500D02*
X520000D01*
X537854Y913250D02*
Y915646D01*
X536861Y916639D02*
X536861D01*
X537854Y915646D01*
Y913250D02*
X541604Y909500D01*
X544000D01*
X470000Y919000D02*
X470152Y919152D01*
X174145Y876457D02*
X190543D01*
X196615Y870385D01*
Y870385D02*
Y870385D01*
Y870385D02*
X226000Y841000D01*
Y774000D02*
Y841000D01*
X500739Y484261D02*
X503000Y482000D01*
X513000D02*
X526000Y469000D01*
X492150Y484261D02*
X500739D01*
X503000Y482000D02*
X513000D01*
X485738Y478299D02*
X485950D01*
X491153Y483265D02*
X492150Y484261D01*
X485950Y478299D02*
X490916Y483265D01*
X491153D01*
X453250Y535002D02*
X459820Y541572D01*
X453250Y523805D02*
Y535002D01*
X446847Y517402D02*
X453250Y523805D01*
X450383Y513655D02*
X461139Y524411D01*
Y528139D01*
X462000Y529000D01*
X471000Y527413D02*
Y533400D01*
X453918Y510331D02*
X471000Y527413D01*
Y533400D02*
X587050Y649450D01*
X639000Y657000D02*
Y677000D01*
X591950Y687550D02*
X628450D01*
X639000Y677000D01*
X542000Y560000D02*
X639000Y657000D01*
X511082Y560000D02*
X542000D01*
X221000Y771929D02*
X240674Y752255D01*
X287745D01*
X242745Y757255D02*
X287745D01*
X226000Y774000D02*
X242745Y757255D01*
X459820Y541572D02*
X466436Y548187D01*
X459820Y541572D02*
Y541572D01*
X466436Y548187D02*
Y554436D01*
X361111Y417312D02*
X373591Y429792D01*
X361111Y415611D02*
Y417312D01*
X360250Y414750D02*
X361111Y415611D01*
X302000Y35500D02*
X302000Y35500D01*
X496345Y433327D02*
X517672Y412000D01*
X533750D01*
X549000Y427250D01*
Y440747D01*
X543082Y446665D02*
Y450082D01*
Y446665D02*
X549000Y440747D01*
X458218Y897000D02*
X461718Y893500D01*
X470000D01*
X457250Y897000D02*
X458218D01*
X457250D02*
X462250Y902000D01*
X470000D01*
X503000Y407000D02*
Y419601D01*
X492809Y429792D02*
X503000Y419601D01*
X462000Y834000D02*
X470000D01*
X452500Y843500D02*
Y849750D01*
Y843500D02*
X462000Y834000D01*
X188929Y871000D02*
X221000Y838929D01*
X162312Y871000D02*
X188929D01*
X150788Y882524D02*
X162312Y871000D01*
X168000Y882601D02*
Y883500D01*
Y882601D02*
X174145Y876457D01*
X403250Y448000D02*
X410750Y440500D01*
X377657Y448000D02*
X403250D01*
X456750Y430250D02*
X457611Y429389D01*
X465250Y427817D02*
X466500D01*
X457611Y429389D02*
X463678D01*
X465250Y427817D01*
X466500D02*
X478667Y415650D01*
X467533Y419500D02*
X474919Y412114D01*
X452718Y419500D02*
X467533D01*
X449218Y416000D02*
X452718Y419500D01*
X532397Y492250D02*
X544647Y480000D01*
X482415Y481835D02*
X492830Y492250D01*
X532397D01*
X396500Y523800D02*
X432018Y559318D01*
X396500Y512171D02*
X405411Y503260D01*
X396500Y512171D02*
Y523800D01*
X457666Y506584D02*
X511082Y560000D01*
X453918Y510119D02*
Y510331D01*
X587050Y649450D02*
X591950D01*
X475941Y518000D02*
X499000D01*
X460989Y503048D02*
X475941Y518000D01*
X510000Y529000D02*
X519500D01*
X499000Y518000D02*
X510000Y529000D01*
X405411Y503048D02*
Y503260D01*
X432018Y559318D02*
X432018D01*
Y559318D02*
Y559318D01*
X406700Y572000D02*
X419336D01*
X432018Y559318D01*
X576000Y500000D02*
X599000Y477000D01*
X468060Y495977D02*
X468273D01*
X475295Y503000D01*
X484000Y500000D02*
X576000D01*
X475295Y503000D02*
X481000D01*
X484000Y500000D01*
X663000Y119120D02*
X700680Y81440D01*
X663000Y119120D02*
Y345000D01*
X703000Y385000D01*
Y464000D01*
X681250Y485750D02*
X703000Y464000D01*
X657950Y485750D02*
X681250D01*
X599000Y477000D02*
X611000D01*
X631000D02*
X639750Y485750D01*
X657950D01*
X611000Y477000D02*
X631000D01*
X469638Y431750D02*
X482202Y419185D01*
X469000Y439000D02*
X469638Y438362D01*
Y431750D02*
Y438362D01*
X401663Y499513D02*
X401875D01*
X386876Y514300D02*
X401663Y499513D01*
X385700Y514300D02*
X386876D01*
X464525Y499512D02*
X464737D01*
X611000Y502400D02*
X614400D01*
X464737Y499512D02*
X474224Y509000D01*
X601161D01*
X607761Y502400D02*
X611000D01*
X601161Y509000D02*
X607761Y502400D01*
X674000Y133520D02*
X700680Y106840D01*
X674000Y133520D02*
Y335000D01*
X622750Y510750D02*
X657950D01*
X614400Y502400D02*
X622750Y510750D01*
X657950D02*
X686250D01*
X674000Y335000D02*
X724000Y385000D01*
X686250Y510750D02*
X724000Y473000D01*
Y385000D02*
Y473000D01*
X479339Y446939D02*
X480200Y447800D01*
X479339Y429120D02*
X485738Y422721D01*
X479339Y429120D02*
Y446939D01*
X457454Y506584D02*
X457666D01*
X544647Y480000D02*
X545000D01*
X482202Y481835D02*
X482415D01*
X474919Y412114D02*
X475131D01*
X448000Y416000D02*
X449218D01*
X366520Y436863D02*
X377657Y448000D01*
X599000Y389000D02*
X655464Y445465D01*
X493000Y389000D02*
X599000D01*
X655464Y445465D02*
Y458265D01*
X657950Y460750D01*
X503500Y876000D02*
X558000D01*
X495500Y868000D02*
X503500Y876000D01*
X498112Y931112D02*
X500500Y933500D01*
X221000Y771929D02*
Y838929D01*
X470000Y868000D02*
X495500D01*
X357500Y789500D02*
X357675Y789325D01*
Y746175D02*
Y789325D01*
Y746175D02*
X357850Y746000D01*
X497000Y910500D02*
X498000Y909500D01*
X470000Y910500D02*
X497000D01*
X457000Y917000D02*
X458218D01*
X460218Y919000D01*
X470000D01*
X500500Y933500D02*
Y978500D01*
X395200Y718800D02*
X395700D01*
X383250Y730750D02*
X395200Y718800D01*
X383250Y730750D02*
Y746000D01*
X395700Y718800D02*
X396900Y720000D01*
X419700D01*
X591950Y674850D02*
X591975Y674875D01*
X608100Y128100D02*
X608200Y128200D01*
X587500Y128000D02*
X587600Y128100D01*
X330000Y893500D02*
X342500D01*
X349000Y887000D01*
X148000Y883500D02*
X150788D01*
X295000Y934500D02*
X296500Y936000D01*
D106*
X219000Y193000D02*
Y219139D01*
X177329Y260810D02*
X219000Y219139D01*
X150690Y260810D02*
X177329D01*
X219000Y193000D02*
X325000D01*
X839500Y825500D02*
X864070D01*
X864570Y826000D01*
Y825570D02*
Y826000D01*
X864500Y825500D02*
X864570Y825570D01*
X864570Y798000D02*
Y826000D01*
X839500Y825500D02*
Y853000D01*
Y825000D02*
Y825500D01*
X248000Y820000D02*
Y869000D01*
X247000Y870000D02*
X248000Y869000D01*
X247000Y889000D02*
Y907450D01*
X246900Y907550D02*
X247000Y907450D01*
Y870000D02*
Y889000D01*
X243000Y713000D02*
X261000Y725000D01*
X243000Y815000D02*
X248000Y820000D01*
X243000Y790000D02*
Y815000D01*
X739000Y654000D02*
X772000D01*
X772707Y395293D02*
Y654707D01*
X927000Y573000D02*
X940000Y586000D01*
X869000Y573000D02*
X927000D01*
X940000Y586000D02*
Y605000D01*
X156000Y972000D02*
X157225Y973225D01*
X222775D01*
X224000Y974450D01*
X224000Y907550D02*
Y930000D01*
X224000Y907550D02*
X224000Y907550D01*
X839500Y853000D02*
Y881000D01*
Y909250D01*
Y927750D01*
X855750Y944000D01*
X927000D01*
X402142Y335142D02*
X413000Y346000D01*
X657950Y560750D02*
X738957D01*
X913360Y157640D02*
X981230D01*
X700680Y132240D02*
X751240D01*
X845000Y226000D01*
X913360Y157640D01*
X845000Y226000D02*
Y323000D01*
X800500Y682500D02*
X869000D01*
X772707Y395293D02*
X845000Y323000D01*
X772000Y654000D02*
X800500Y682500D01*
X738957Y560750D02*
X771707Y593500D01*
X402142Y300358D02*
Y335142D01*
X473500Y229000D02*
X535000D01*
X402142Y300358D02*
X473500Y229000D01*
X302000Y35500D02*
Y35850D01*
X302000Y35850D02*
Y64000D01*
Y35850D02*
X302000Y35850D01*
X293250Y44600D02*
X302000Y35850D01*
Y35500D02*
Y35850D01*
X302000Y35500D02*
X305000Y32500D01*
X227850Y44600D02*
X293250D01*
X310000Y264000D02*
Y272500D01*
X324000Y228000D02*
Y250000D01*
Y228000D02*
X325000Y227000D01*
X305000Y32500D02*
X368000D01*
X310000Y264000D02*
X324000Y250000D01*
X368000Y143430D02*
Y162000D01*
X414500Y192000D02*
X415000D01*
X418500Y188500D01*
Y175800D02*
X424700Y169600D01*
X418500Y175800D02*
Y188500D01*
X142450Y909750D02*
X195242D01*
X121000Y931200D02*
X142450Y909750D01*
X195892Y909100D02*
X200750D01*
X195242Y909750D02*
X195892Y909100D01*
X200750Y907900D02*
X201100Y907550D01*
X200750Y907900D02*
Y909100D01*
X348600Y632700D02*
Y633830D01*
X355750D02*
X378670D01*
X348600D02*
X355750D01*
X378670D02*
X382500Y630000D01*
X497500Y320000D02*
Y334185D01*
X593430Y163000D02*
X594930Y161500D01*
X485218Y346468D02*
X497500Y334185D01*
X544143Y449022D02*
X546971D01*
X549550Y451600D01*
X538500Y529000D02*
X559750D01*
X560500Y529750D01*
X622500Y65000D02*
X627100Y69600D01*
Y128100D01*
X627200Y128200D01*
X614400Y161500D02*
X627200Y148700D01*
Y128200D02*
Y148700D01*
X594930Y161500D02*
X614400D01*
X549550Y451600D02*
X611000D01*
X448182Y575482D02*
X449243Y574422D01*
X452071D01*
X456900Y579250D01*
X464250D01*
X471507D02*
X480157Y570600D01*
X482600D01*
X464250Y579250D02*
X507100Y622100D01*
X464250Y579250D02*
X471507D01*
X507100Y622100D02*
X515900D01*
X843000Y721500D02*
X883666D01*
X915200Y702250D02*
X915550Y701900D01*
X889524Y705430D02*
Y715642D01*
Y705430D02*
X891524Y703430D01*
X883666Y721500D02*
X889524Y715642D01*
X891524Y703430D02*
X893000D01*
X892680Y702250D02*
X915200D01*
X280000Y282000D02*
X289500Y291500D01*
X310000D01*
X261400Y282000D02*
X280000D01*
Y229000D02*
Y282000D01*
Y229000D02*
X299000Y210000D01*
X325000D01*
X325000Y210000D01*
X236000Y282000D02*
X261400D01*
X587600Y128100D02*
X608100D01*
X325000Y176000D02*
X353941D01*
X366441Y188500D02*
X370000D01*
X353941Y176000D02*
X366441Y188500D01*
X370000D02*
X373500Y192000D01*
X374000D02*
X381250Y184750D01*
X408470Y81000D02*
Y157030D01*
X381250Y184250D02*
X408470Y157030D01*
X381250Y184250D02*
Y184750D01*
X368000Y51500D02*
Y75500D01*
D107*
X417634Y640500D02*
X421134Y644000D01*
X427266D02*
X430766Y640500D01*
X421134Y644000D02*
X427266D01*
X417634Y637434D02*
Y640500D01*
X266000Y655750D02*
Y690000D01*
X488400Y632400D02*
Y746000D01*
X430766Y637434D02*
X448200Y620000D01*
X476000D02*
X488400Y632400D01*
X448200Y620000D02*
X476000D01*
X430766Y637434D02*
Y640500D01*
X266000Y655750D02*
X311750Y610000D01*
X390200D02*
X417634Y637434D01*
X311750Y610000D02*
X390200D01*
X243000Y713000D02*
X266000Y690000D01*
X427000Y438226D02*
X446774Y458000D01*
X427000Y438226D02*
Y497555D01*
X520000Y427000D02*
X526918Y433918D01*
X413000Y346000D02*
Y377277D01*
X419553Y383830D01*
X405226Y460000D02*
X427000Y438226D01*
X387500Y460000D02*
X405226D01*
X509743Y427000D02*
X520000D01*
X499880Y436863D02*
X509743Y427000D01*
X427000Y497555D02*
X446847Y517402D01*
X419553Y383830D02*
Y383926D01*
X427000Y391373D01*
Y438226D01*
X495496Y441247D02*
X499880Y436863D01*
X485000Y458000D02*
X495496Y447504D01*
Y441247D02*
Y447504D01*
X446774Y458000D02*
X485000D01*
X702500Y680000D02*
Y728250D01*
X446152Y543152D02*
X450317D01*
X451082Y543918D01*
X419942Y516942D02*
X446152Y543152D01*
D108*
X125750Y186750D02*
Y208750D01*
X120690Y213810D02*
X125750Y208750D01*
D109*
X285271Y846250D02*
X289521Y842000D01*
X308000D01*
X285000Y846250D02*
X285271D01*
X271750Y954250D02*
Y965985D01*
X275265Y969500D01*
X275500D01*
X277500Y971500D01*
Y975000D01*
X382500Y630000D02*
X396330Y643830D01*
Y657900D01*
X591950Y662150D02*
X611329D01*
X616479Y657000D01*
X465000Y766771D02*
X470000Y771771D01*
X465000Y766500D02*
Y766771D01*
X470000Y771771D02*
Y789500D01*
X616479Y657000D02*
X616750D01*
X308125Y803625D02*
X308250Y803500D01*
X308125Y803625D02*
Y822875D01*
X308000Y823000D02*
X308125Y822875D01*
D110*
X383250Y843250D02*
X383500Y843000D01*
X366750Y843250D02*
X383250D01*
X394000Y876000D02*
Y920000D01*
D111*
X881500Y833430D02*
Y854000D01*
Y833430D02*
X887430Y827500D01*
Y798000D02*
Y826000D01*
Y827500D01*
X881500Y854000D02*
X924250D01*
X930250Y860000D01*
X870570Y628070D02*
Y653000D01*
X860000Y617500D02*
X870570Y628070D01*
D112*
X370262Y405250D02*
X384198Y419185D01*
X242490Y507510D02*
X344750Y405250D01*
X370262D01*
X218490Y657510D02*
X306000Y570000D01*
X353700D01*
X195100Y657510D02*
X218490D01*
X353700Y570000D02*
X387800Y535900D01*
X329500Y543000D02*
X366250Y506250D01*
X373925D02*
X391248Y488927D01*
X366250Y506250D02*
X373925D01*
X240240Y597510D02*
X294750Y543000D01*
X329500D01*
X195100Y597510D02*
X240240D01*
X391248Y488927D02*
Y488927D01*
X195100Y507510D02*
X242490D01*
X216490Y672510D02*
X310250Y578750D01*
X170100Y672510D02*
X216490D01*
X310250Y578750D02*
X365250D01*
X397700Y546300D01*
X314750Y587250D02*
X375500D01*
X214490Y687510D02*
X314750Y587250D01*
X195100Y687510D02*
X214490D01*
X405555Y557195D02*
X407705D01*
X408700Y556200D01*
X375500Y587250D02*
X405555Y557195D01*
X170100Y642510D02*
X220490D01*
X302000Y561000D02*
X341600D01*
X220490Y642510D02*
X302000Y561000D01*
X341600D02*
X376600Y526000D01*
X237490Y612510D02*
X298000Y552000D01*
X335246D01*
X170100Y612510D02*
X237490D01*
X335246Y552000D02*
X394804Y492441D01*
D113*
X892000Y534000D02*
X892500Y534500D01*
X934700D01*
X935600Y535400D01*
X370759Y660611D02*
X373470Y657900D01*
X370759Y660611D02*
Y673900D01*
X364259Y680400D02*
X370759Y673900D01*
X347950Y680400D02*
X364259D01*
X371459Y687600D01*
X372000D01*
X591975Y674875D02*
X592025Y674925D01*
X613925D02*
X614000Y675000D01*
X592025Y674925D02*
X613925D01*
X843000Y702500D02*
X843500Y702000D01*
X868500D01*
X869000Y701500D01*
D114*
X88459Y253389D02*
X91000Y255930D01*
X36600Y224600D02*
X65389Y253389D01*
X36600Y172000D02*
Y224600D01*
X65389Y253389D02*
X88459D01*
X91000Y255930D02*
Y362000D01*
X115100Y386100D01*
Y447510D01*
D115*
X470411Y825911D02*
X478162D01*
X519125Y866875D02*
X567250D01*
X478162Y825911D02*
X519125Y866875D01*
X470000Y825500D02*
X470411Y825911D01*
X511250Y808500D02*
X533375Y830625D01*
X567250D01*
X470000Y808500D02*
X511250D01*
X484500Y800000D02*
X494000Y790500D01*
X470000Y800000D02*
X484500D01*
X545250Y790500D02*
X567250Y812500D01*
X494000Y790500D02*
X545250D01*
X519820Y848750D02*
X567250D01*
X488070Y817000D02*
X519820Y848750D01*
X470000Y817000D02*
X488070D01*
D116*
X452783Y352033D02*
X471782Y333032D01*
X452783Y352033D02*
X452783D01*
D117*
X466650Y652050D02*
D03*
Y677450D02*
D03*
Y702850D02*
D03*
X222600Y869000D02*
D03*
X248000D02*
D03*
X273400D02*
D03*
X488400Y746000D02*
D03*
X914600Y605000D02*
D03*
X463000Y746000D02*
D03*
X437600D02*
D03*
X595800Y734000D02*
D03*
X570400D02*
D03*
X545000D02*
D03*
X611000Y502400D02*
D03*
Y477000D02*
D03*
Y451600D02*
D03*
X940000Y605000D02*
D03*
X965400D02*
D03*
X634000Y969000D02*
D03*
X659400D02*
D03*
X608600D02*
D03*
X611000Y570000D02*
D03*
Y544600D02*
D03*
Y595400D02*
D03*
X332450Y746000D02*
D03*
X357850D02*
D03*
X383250D02*
D03*
D118*
X168000Y858500D02*
D03*
D119*
X261000Y725000D02*
D03*
X156000Y972000D02*
D03*
X95000Y971000D02*
D03*
X739000Y654000D02*
D03*
X869000Y573000D02*
D03*
D120*
X210600Y282000D02*
D03*
X236000D02*
D03*
D121*
X115100Y567510D02*
D03*
X140100Y582510D02*
D03*
X115100Y627510D02*
D03*
Y597510D02*
D03*
X140100Y552510D02*
D03*
Y522510D02*
D03*
X115100Y657510D02*
D03*
Y687510D02*
D03*
X140100Y642510D02*
D03*
X170100Y672510D02*
D03*
X115100Y537510D02*
D03*
X195100Y597510D02*
D03*
Y657510D02*
D03*
X170100Y642510D02*
D03*
Y552510D02*
D03*
X195100Y507510D02*
D03*
Y567510D02*
D03*
Y477510D02*
D03*
X170100Y462510D02*
D03*
X195100Y537510D02*
D03*
Y447510D02*
D03*
X115100Y477510D02*
D03*
X140100Y612510D02*
D03*
X170100D02*
D03*
X115100Y507510D02*
D03*
X195100Y627510D02*
D03*
X170100Y582510D02*
D03*
X140100Y672510D02*
D03*
X170100Y522510D02*
D03*
Y492510D02*
D03*
X140100D02*
D03*
Y462510D02*
D03*
X115100Y447510D02*
D03*
D122*
X269500Y786500D02*
D03*
Y831500D02*
D03*
X204500Y786500D02*
D03*
X500500Y933500D02*
D03*
Y978500D02*
D03*
X565500D02*
D03*
X521386Y256117D02*
D03*
X489566Y287936D02*
D03*
X535528Y333898D02*
D03*
D123*
X204500Y831500D02*
D03*
X565500Y933500D02*
D03*
D124*
X567348Y302078D02*
D03*
D125*
X87400Y172000D02*
D03*
X36600D02*
D03*
D126*
X50100Y375010D02*
D03*
Y760010D02*
D03*
D127*
X195100Y687510D02*
D03*
D128*
X261400Y282000D02*
D03*
D129*
X657950Y560750D02*
D03*
X835750Y485750D02*
D03*
X657950Y535750D02*
D03*
X835750Y510750D02*
D03*
X835750Y535750D02*
D03*
Y560750D02*
D03*
X657950Y460750D02*
D03*
X657950Y510750D02*
D03*
Y485750D02*
D03*
D130*
X120690Y213810D02*
D03*
D131*
X150690Y260810D02*
D03*
D132*
X121000Y810800D02*
D03*
Y931200D02*
D03*
D133*
X148000Y858500D02*
D03*
X168000Y883500D02*
D03*
X148000D02*
D03*
D134*
X961000Y433800D02*
D03*
X981230Y56040D02*
D03*
X700680Y56040D02*
D03*
D135*
X670650Y414300D02*
D03*
X823050Y414300D02*
D03*
X823050Y630200D02*
D03*
X670650D02*
D03*
X34640Y36400D02*
D03*
X965290Y347560D02*
D03*
Y963500D02*
D03*
X34640D02*
D03*
D136*
X657950Y585750D02*
D03*
D137*
X953450Y879550D02*
D03*
Y811550D02*
D03*
D138*
X91000Y257000D02*
D03*
D139*
X293843Y745014D02*
D03*
Y764497D02*
D03*
X379000Y822750D02*
D03*
X393304Y822696D02*
D03*
X188763Y233763D02*
D03*
X213763Y208763D02*
D03*
X240000Y181960D02*
D03*
X214063Y183125D02*
D03*
X313250Y627250D02*
D03*
X306555Y884370D02*
D03*
X864500Y825500D02*
D03*
X817250Y959500D02*
D03*
X778500Y944500D02*
D03*
X247000Y889000D02*
D03*
X243000Y790000D02*
D03*
Y713000D02*
D03*
X462000Y529000D02*
D03*
X633000Y719000D02*
D03*
X540000Y811000D02*
D03*
X245000Y684000D02*
D03*
X606000Y421000D02*
D03*
X564000Y410000D02*
D03*
X578000Y369000D02*
D03*
X932000Y314000D02*
D03*
X917000Y735000D02*
D03*
X879000Y743000D02*
D03*
X927000Y944000D02*
D03*
X522000Y890500D02*
D03*
X348750Y902250D02*
D03*
X224000Y930000D02*
D03*
X413000Y346000D02*
D03*
X535000Y229000D02*
D03*
X387500Y460000D02*
D03*
X360250Y414750D02*
D03*
X302000Y64000D02*
D03*
X40000Y117500D02*
D03*
Y85000D02*
D03*
X152500Y182500D02*
D03*
X186000Y317000D02*
D03*
X33000D02*
D03*
X50000D02*
D03*
X16000D02*
D03*
X32500Y425000D02*
D03*
X135000Y317000D02*
D03*
X152000D02*
D03*
X67000D02*
D03*
X118000D02*
D03*
X60000Y457500D02*
D03*
X27500Y575000D02*
D03*
X60000D02*
D03*
X238000Y317000D02*
D03*
X255000D02*
D03*
X169000D02*
D03*
X221000D02*
D03*
X306000D02*
D03*
X323000D02*
D03*
X272000D02*
D03*
X289000D02*
D03*
X255000Y352500D02*
D03*
X320000D02*
D03*
X324000Y250000D02*
D03*
X340000Y317000D02*
D03*
X364000Y276000D02*
D03*
Y259000D02*
D03*
X352000Y305000D02*
D03*
X364000Y293000D02*
D03*
X368000Y162000D02*
D03*
X424700Y169600D02*
D03*
X376000Y230000D02*
D03*
X364000Y242000D02*
D03*
X410000Y230000D02*
D03*
X422000Y218000D02*
D03*
X393000Y230000D02*
D03*
X345918Y439718D02*
D03*
X390000Y360000D02*
D03*
X399750Y470750D02*
D03*
X27500Y665000D02*
D03*
Y715000D02*
D03*
X60000Y680000D02*
D03*
X87500Y745000D02*
D03*
X157500Y717500D02*
D03*
X200000Y740000D02*
D03*
X292250Y726500D02*
D03*
X268000Y905000D02*
D03*
X285000Y846250D02*
D03*
X271750Y954250D02*
D03*
X355750Y633830D02*
D03*
X330000Y789500D02*
D03*
X382500Y630000D02*
D03*
X420000Y602500D02*
D03*
X356500Y665250D02*
D03*
X366750Y843250D02*
D03*
X394000Y920000D02*
D03*
X465000Y170000D02*
D03*
X469000Y205000D02*
D03*
X435000D02*
D03*
X452000D02*
D03*
X520000D02*
D03*
Y170000D02*
D03*
X486000Y205000D02*
D03*
X503000D02*
D03*
X497500Y320000D02*
D03*
X554000Y205000D02*
D03*
X571000D02*
D03*
X537000D02*
D03*
X588000D02*
D03*
X560500Y529750D02*
D03*
X627100Y106600D02*
D03*
X649000Y127000D02*
D03*
X605000Y205000D02*
D03*
X649000Y161000D02*
D03*
Y144000D02*
D03*
X636000Y191000D02*
D03*
X649000Y178000D02*
D03*
X661000Y47000D02*
D03*
Y81000D02*
D03*
Y64000D02*
D03*
X649000Y93000D02*
D03*
Y110000D02*
D03*
X622000Y205000D02*
D03*
X712500Y535000D02*
D03*
X797500Y510000D02*
D03*
X456500Y596000D02*
D03*
X487500Y602500D02*
D03*
X465000Y766500D02*
D03*
X457000Y897000D02*
D03*
X616750Y657000D02*
D03*
X705000Y587500D02*
D03*
X785000Y727500D02*
D03*
X822500Y735000D02*
D03*
X860000Y617500D02*
D03*
X878250Y721750D02*
D03*
X40000Y510000D02*
D03*
Y630000D02*
D03*
X160000Y150000D02*
D03*
X220000Y390000D02*
D03*
X280000D02*
D03*
X370000Y210000D02*
D03*
X340000Y270000D02*
D03*
X370000Y330000D02*
D03*
X400000Y270000D02*
D03*
X460000D02*
D03*
X520000Y750000D02*
D03*
X580000Y270000D02*
D03*
X610000Y330000D02*
D03*
X640000Y270000D02*
D03*
Y390000D02*
D03*
Y630000D02*
D03*
Y750000D02*
D03*
X670000Y930000D02*
D03*
X730000Y90000D02*
D03*
Y210000D02*
D03*
Y330000D02*
D03*
X700000Y630000D02*
D03*
Y750000D02*
D03*
X730000Y930000D02*
D03*
X790000Y90000D02*
D03*
Y210000D02*
D03*
X760000Y270000D02*
D03*
X790000Y330000D02*
D03*
X760000Y750000D02*
D03*
X820000Y30000D02*
D03*
X850000Y90000D02*
D03*
X820000Y150000D02*
D03*
Y270000D02*
D03*
X880000Y30000D02*
D03*
X910000Y90000D02*
D03*
X880000Y150000D02*
D03*
X910000Y210000D02*
D03*
X880000Y270000D02*
D03*
X940000Y30000D02*
D03*
X970000Y90000D02*
D03*
X940000Y270000D02*
D03*
X740976Y510000D02*
D03*
X741053Y389760D02*
D03*
X738274Y450000D02*
D03*
X850000D02*
D03*
X867088Y347088D02*
D03*
X796024Y570000D02*
D03*
Y450000D02*
D03*
X930250Y860000D02*
D03*
X815375Y874125D02*
D03*
X430000Y683000D02*
D03*
X515750Y722500D02*
D03*
X504000Y695750D02*
D03*
X406750Y760250D02*
D03*
X415000Y742000D02*
D03*
X733000Y957250D02*
D03*
X190000Y210000D02*
D03*
Y185000D02*
D03*
Y160000D02*
D03*
X215000D02*
D03*
X240000D02*
D03*
Y210000D02*
D03*
X276000Y61000D02*
D03*
X340500Y364750D02*
D03*
X518100Y675500D02*
D03*
X322250Y681000D02*
D03*
Y666750D02*
D03*
X518100Y661500D02*
D03*
X514584Y454416D02*
D03*
X881956Y419956D02*
D03*
X503000Y407000D02*
D03*
X859000Y905250D02*
D03*
X567250Y866875D02*
D03*
X863000Y858000D02*
D03*
X567250Y830625D02*
D03*
X427000Y805000D02*
D03*
X820000Y852000D02*
D03*
X567250Y812500D02*
D03*
X821000Y830000D02*
D03*
X444250Y805500D02*
D03*
X858000Y884000D02*
D03*
X567250Y848750D02*
D03*
X452500Y849750D02*
D03*
X410750Y440500D02*
D03*
X456750Y430250D02*
D03*
X372000Y687600D02*
D03*
X526000Y469000D02*
D03*
X387800Y535900D02*
D03*
X406700Y572000D02*
D03*
X392500Y382500D02*
D03*
X469000Y439000D02*
D03*
X397700Y546300D02*
D03*
X385700Y514300D02*
D03*
X480200Y447800D02*
D03*
X408700Y556200D02*
D03*
X702500Y680000D02*
D03*
X451082Y543918D02*
D03*
X545000Y480000D02*
D03*
X448000Y416000D02*
D03*
X376600Y526000D02*
D03*
X493000Y389000D02*
D03*
X412500Y477500D02*
D03*
X614000Y675000D02*
D03*
X457000Y877000D02*
D03*
Y917000D02*
D03*
X349000Y887000D02*
D03*
D140*
X540000Y133000D02*
D03*
M02*
