G04*
G04 #@! TF.GenerationSoftware,Altium Limited,Altium Designer,25.7.1 (20)*
G04*
G04 Layer_Color=16711935*
%FSLAX44Y44*%
%MOMM*%
G71*
G04*
G04 #@! TF.SameCoordinates,E610F868-73EF-4846-AD65-6CABB719E0C8*
G04*
G04*
G04 #@! TF.FilePolarity,Positive*
G04*
G01*
G75*
%ADD10C,0.2000*%
%ADD11C,0.5080*%
%ADD12C,0.4000*%
%ADD13C,0.1270*%
%ADD14C,0.1524*%
%ADD15C,0.1750*%
%ADD16C,0.2540*%
%ADD169C,0.2400*%
%ADD171C,0.1000*%
%ADD172C,0.0000*%
%ADD173C,0.1500*%
G36*
X368000Y185000D02*
X365500D01*
Y198500D01*
X368000D01*
Y185000D01*
D02*
G37*
G36*
X422500D02*
X420000D01*
Y198500D01*
X422500D01*
Y185000D01*
D02*
G37*
D10*
X526500Y687500D02*
G03*
X526500Y687500I-1000J0D01*
G01*
X916500Y711750D02*
G03*
X916500Y711750I-1000J0D01*
G01*
X191500Y908000D02*
G03*
X191500Y908000I-1000J0D01*
G01*
X406700Y697800D02*
G03*
X406700Y697800I-1000J0D01*
G01*
X228850Y28000D02*
G03*
X228850Y28000I-1000J0D01*
G01*
X275100Y282000D02*
G03*
X275100Y282000I-1000J0D01*
G01*
X323000Y119000D02*
G03*
X323000Y119000I-1000J0D01*
G01*
X962000Y376500D02*
G03*
X962000Y376500I-1000J0D01*
G01*
X862000Y534000D02*
G03*
X862000Y534000I-1000J0D01*
G01*
X432432Y505311D02*
G03*
X432432Y505311I-1000J0D01*
G01*
X281750Y693250D02*
G03*
X281750Y693250I-1000J0D01*
G01*
X169250Y930750D02*
G03*
X169250Y930750I-1000J0D01*
G01*
X169000Y803500D02*
G03*
X169000Y803500I-1000J0D01*
G01*
X540000Y85000D02*
G03*
X540000Y85000I-1000J0D01*
G01*
X126750Y195750D02*
G03*
X126750Y195750I-1000J0D01*
G01*
X330000Y146000D02*
G03*
X330000Y146000I-1000J0D01*
G01*
X982230Y36840D02*
G03*
X982230Y36840I-1000J0D01*
G01*
X701680D02*
G03*
X701680Y36840I-1000J0D01*
G01*
X169000Y811000D02*
G03*
X169000Y811000I-1000J0D01*
G01*
X149500Y930500D02*
G03*
X149500Y930500I-1000J0D01*
G01*
X169500Y437500D02*
G03*
X169500Y437500I-1000J0D01*
G01*
X461386Y381850D02*
X466099Y386562D01*
X461386D02*
X466099Y381850D01*
X353000Y59668D02*
Y66332D01*
X349668Y63000D02*
X356332D01*
X600032Y113200D02*
X593368D01*
X596700Y109868D02*
Y116532D01*
X323250Y776332D02*
Y769668D01*
X326582Y773000D02*
X319918D01*
X884000Y674332D02*
Y667668D01*
X887332Y671000D02*
X880668D01*
X310000Y907332D02*
Y900668D01*
X313332Y904000D02*
X306668D01*
D11*
X485700Y648240D02*
G03*
X485700Y655860I0J3810D01*
G01*
D02*
G03*
X485700Y648240I0J-3810D01*
G01*
X226410Y849950D02*
G03*
X218790Y849950I-3810J0D01*
G01*
D02*
G03*
X226410Y849950I3810J0D01*
G01*
X484590Y765050D02*
G03*
X492210Y765050I3810J0D01*
G01*
D02*
G03*
X484590Y765050I-3810J0D01*
G01*
X591990Y753050D02*
G03*
X599610Y753050I3810J0D01*
G01*
D02*
G03*
X591990Y753050I-3810J0D01*
G01*
X591950Y498590D02*
G03*
X591950Y506210I0J3810D01*
G01*
D02*
G03*
X591950Y498590I0J-3810D01*
G01*
X969210Y624050D02*
G03*
X961590Y624050I-3810J0D01*
G01*
D02*
G03*
X969210Y624050I3810J0D01*
G01*
X655590Y988050D02*
G03*
X663210Y988050I3810J0D01*
G01*
D02*
G03*
X655590Y988050I-3810J0D01*
G01*
X630050Y548410D02*
G03*
X630050Y540790I0J-3810D01*
G01*
D02*
G03*
X630050Y548410I0J3810D01*
G01*
X328640Y726950D02*
G03*
X336260Y726950I3810J0D01*
G01*
D02*
G03*
X328640Y726950I-3810J0D01*
G01*
D12*
X206500Y831500D02*
G03*
X206500Y831500I-2000J0D01*
G01*
X567500Y933500D02*
G03*
X567500Y933500I-2000J0D01*
G01*
X569348Y302078D02*
G03*
X569348Y302078I-2000J0D01*
G01*
X197000Y769250D02*
G03*
X197000Y769250I-2000J0D01*
G01*
D13*
X254500Y809000D02*
G03*
X254500Y809000I-17500J0D01*
G01*
X550500Y956000D02*
G03*
X550500Y956000I-17500J0D01*
G01*
X545957Y295007D02*
G03*
X545957Y295007I-17500J0D01*
G01*
X545300Y643500D02*
X585200D01*
X545300Y693500D02*
X585200D01*
Y643500D02*
Y693500D01*
X545300Y643500D02*
Y693500D01*
X931475Y711525D02*
X966525D01*
Y646475D02*
Y711525D01*
X931475Y646475D02*
X966525D01*
X931475D02*
Y711525D01*
X191475Y923475D02*
Y958525D01*
X256525D01*
Y923475D02*
Y958525D01*
X191475Y923475D02*
X256525D01*
X207050Y838950D02*
X266950D01*
Y779050D02*
Y838950D01*
X207050Y779050D02*
X266950D01*
X207050D02*
Y838950D01*
X503050Y926050D02*
X562950D01*
X503050D02*
Y985950D01*
X562950D01*
Y926050D02*
Y985950D01*
X528457Y252652D02*
X570812Y295007D01*
X486101D02*
X528457Y252652D01*
X486101Y295007D02*
X528457Y337363D01*
X570812Y295007D01*
X20250Y192000D02*
X103750D01*
Y152000D02*
Y192000D01*
X20250Y152000D02*
X103750D01*
X20250D02*
Y192000D01*
X379200Y694800D02*
X392200D01*
X379200D02*
Y723800D01*
X392200D01*
Y694800D02*
Y723800D01*
X15100Y340010D02*
Y375010D01*
Y340010D02*
X85100D01*
Y375010D01*
X15100Y760010D02*
Y795010D01*
X85100D01*
Y760010D02*
Y795010D01*
X222600Y375010D02*
Y760010D01*
X85100Y375010D02*
X222600D01*
X-142400D02*
X15100D01*
X-142400D02*
Y760010D01*
X15100D01*
X85100D02*
X222600D01*
X96700Y120800D02*
X187500D01*
Y19200D02*
Y120800D01*
X96700Y19200D02*
X187500D01*
X96700D02*
Y120800D01*
X283650Y257800D02*
Y306100D01*
X188350D02*
X283650D01*
X188350Y257800D02*
Y306100D01*
Y257800D02*
X283650D01*
X328500Y112500D02*
X343500Y97500D01*
X343500Y29500D02*
X343500Y97500D01*
X260500Y29500D02*
X343500D01*
X260500Y97500D02*
X260500Y29500D01*
X260500Y97500D02*
X275500Y112500D01*
X328500D01*
X900550Y586200D02*
X992750D01*
X900550Y383000D02*
Y586200D01*
Y383000D02*
X992750D01*
X992750Y586200D02*
X992750Y383000D01*
X900550Y586200D02*
X992750D01*
X900550Y383000D02*
Y586200D01*
Y383000D02*
X992750D01*
X872500Y540250D02*
X889500D01*
Y527750D02*
Y540250D01*
X872500Y527750D02*
X889500D01*
X872500D02*
Y540250D01*
X433200Y378385D02*
X505325Y450510D01*
X361075D02*
X433200Y522635D01*
X505325Y450510D01*
X361075D02*
X433200Y378385D01*
X301300Y649050D02*
X341200D01*
X301300Y699050D02*
X341200D01*
Y649050D02*
Y699050D01*
X301300Y649050D02*
Y699050D01*
X162000Y919250D02*
X174500D01*
Y902250D02*
Y919250D01*
X162000Y902250D02*
X174500D01*
X162000D02*
Y919250D01*
X13690Y215810D02*
X157690D01*
X13690D02*
Y305810D01*
X157690D01*
Y215810D02*
Y305810D01*
X283112Y514153D02*
X363722Y594763D01*
X397663Y560822D01*
X317053Y480212D02*
X397663Y560822D01*
X283112Y514153D02*
X317053Y480212D01*
X545500Y91500D02*
X560500Y106500D01*
X628500Y106500D01*
Y23500D02*
Y106500D01*
X560500Y23500D02*
X628500Y23500D01*
X545500Y38500D02*
X560500Y23500D01*
X545500Y38500D02*
Y91500D01*
X132000Y167250D02*
Y184250D01*
X119500Y167250D02*
X132000D01*
X119500D02*
Y184250D01*
X132000D01*
X288050Y243800D02*
X288050Y142200D01*
X198800Y243800D02*
X288050D01*
X198800Y142200D02*
Y243800D01*
Y142200D02*
X288050D01*
X174250Y822500D02*
Y839500D01*
X161750D02*
X174250D01*
X161750Y822500D02*
Y839500D01*
Y822500D02*
X174250D01*
X142250Y902000D02*
Y919000D01*
Y902000D02*
X154750D01*
Y919000D01*
X142250D02*
X154750D01*
X163400Y408500D02*
X163400Y421500D01*
X163400Y408500D02*
X192600Y408500D01*
X192600Y421500D01*
X163400Y421500D02*
X192600Y421500D01*
D14*
X454204Y715550D02*
X479096D01*
Y639350D02*
Y715550D01*
X454204Y639350D02*
X479096D01*
X454204D02*
Y715550D01*
X209900Y881446D02*
X286100D01*
X209900Y856554D02*
Y881446D01*
Y856554D02*
X286100D01*
Y881446D01*
X424900Y733554D02*
X501100D01*
Y758446D01*
X424900D02*
X501100D01*
X424900Y733554D02*
Y758446D01*
X532300Y721554D02*
X608500D01*
Y746446D01*
X532300D02*
X608500D01*
X532300Y721554D02*
Y746446D01*
X623446Y438900D02*
Y515100D01*
X598554D02*
X623446D01*
X598554Y438900D02*
Y515100D01*
Y438900D02*
X623446D01*
X901900Y592554D02*
Y617446D01*
X978100D01*
Y592554D02*
Y617446D01*
X901900Y592554D02*
X978100D01*
X595900Y956554D02*
X672100D01*
Y981446D01*
X595900D02*
X672100D01*
X595900Y956554D02*
Y981446D01*
X598554Y531900D02*
Y608100D01*
Y531900D02*
X623446D01*
Y608100D01*
X598554D02*
X623446D01*
X395950Y733554D02*
Y758446D01*
X319750Y733554D02*
X395950D01*
X319750D02*
Y758446D01*
X395950D01*
X519468Y81000D02*
X519468Y142468D01*
X519468Y81000D02*
X519468Y19532D01*
X396532D02*
X519468D01*
X396532D02*
Y142468D01*
X519468D01*
D15*
X455257Y337537D02*
X480713Y362993D01*
X463743Y379963D02*
X480713Y362993D01*
X438287Y354507D02*
X463743Y379963D01*
X438287Y354507D02*
X455257Y337537D01*
X866780Y897820D02*
Y920680D01*
X831220Y897820D02*
X866780D01*
X831220D02*
Y920680D01*
X866780Y920680D01*
X812220Y841570D02*
X847780D01*
Y864430D01*
X812220D02*
X847780D01*
X812220Y841570D02*
Y864430D01*
X454184Y376349D02*
X470349Y360184D01*
X423651Y345816D02*
X454184Y376349D01*
X423651Y345816D02*
X439816Y329651D01*
X470349Y360184D01*
X324151Y397416D02*
X340316Y381251D01*
X370849Y411784D01*
X354684Y427949D02*
X370849Y411784D01*
X324151Y397416D02*
X354684Y427949D01*
X414316Y355401D02*
X444849Y385934D01*
X398151Y371566D02*
X414316Y355401D01*
X398151Y371566D02*
X428684Y402099D01*
X444849Y385934D01*
X457845Y335260D02*
X482990Y360405D01*
X457845Y335260D02*
X474010Y319095D01*
X499155Y344240D01*
X482990Y360405D02*
X499155Y344240D01*
X889780Y842570D02*
Y865430D01*
X854220Y842570D02*
X889780D01*
X854220D02*
Y865430D01*
X889780D01*
X321320Y621270D02*
Y644130D01*
X356880D01*
Y621270D02*
Y644130D01*
X321320Y621270D02*
X356880D01*
X511651Y434816D02*
X542184Y465349D01*
X511651Y434816D02*
X527816Y418651D01*
X558349Y449184D01*
X542184Y465349D02*
X558349Y449184D01*
X288820Y630280D02*
X311680D01*
Y673460D01*
X288820D02*
X311680D01*
X288820Y630280D02*
Y673460D01*
Y717820D02*
X311680D01*
X288820Y674640D02*
Y717820D01*
Y674640D02*
X311680D01*
Y717820D01*
X321910Y702670D02*
Y725530D01*
Y702670D02*
X365090D01*
X365090Y725530D02*
X365090Y702670D01*
X321910Y725530D02*
X365090D01*
X406490Y646470D02*
Y669330D01*
X363310Y646470D02*
X406490D01*
X363310Y669330D02*
X363310Y646470D01*
X363310Y669330D02*
X406490Y669330D01*
X412770Y671280D02*
X435630D01*
X435630Y635720D02*
X435630Y671280D01*
X412770Y635720D02*
X435630D01*
X412770Y671280D02*
X412770Y635720D01*
X435816Y575349D02*
X466349Y544816D01*
X450184Y528651D02*
X466349Y544816D01*
X419651Y559184D02*
X450184Y528651D01*
X419651Y559184D02*
X435816Y575349D01*
X511220Y540430D02*
X546780D01*
X511220Y517570D02*
Y540430D01*
Y517570D02*
X546780D01*
Y540430D01*
X408270Y728280D02*
X431130D01*
Y692720D02*
Y728280D01*
X408270Y692720D02*
X431130D01*
X408270D02*
Y728280D01*
X583070Y637110D02*
X605930Y637110D01*
X605930Y680290D01*
X583070Y680290D02*
X605930Y680290D01*
X583070Y680290D02*
X583070Y637110D01*
X557170Y637010D02*
X580030Y637010D01*
X580030Y680190D01*
X557170Y680190D02*
X580030Y680190D01*
X557170Y637010D02*
X557170Y680190D01*
X531070Y713090D02*
X553930D01*
X531070D02*
X531070Y669910D01*
X553930Y669910D01*
Y713090D01*
X504470Y649380D02*
X527330D01*
Y613820D02*
Y649380D01*
X504470Y613820D02*
X527330D01*
X504470D02*
Y649380D01*
X531070Y623910D02*
X553930D01*
Y667090D01*
X531070D02*
X553930D01*
X531070D02*
X531070Y623910D01*
X380000Y24000D02*
Y60000D01*
X356000Y60000D02*
X380000Y60000D01*
X356000Y24000D02*
Y60000D01*
Y24000D02*
X380000Y24000D01*
X379430Y67220D02*
Y102780D01*
X356570Y102780D02*
X379430Y102780D01*
X356570Y102780D02*
X356570Y67220D01*
X379430D01*
X298570Y264220D02*
X321430D01*
X298570D02*
Y299780D01*
X321430Y299780D01*
X321430Y264220D02*
X321430Y299780D01*
X356570Y110410D02*
Y153590D01*
Y110410D02*
X379430D01*
Y153590D01*
X356570D02*
X379430D01*
X595780Y139430D02*
X595780Y116570D01*
X560220Y116570D02*
X595780Y116570D01*
X560220Y116570D02*
Y139430D01*
X595780Y139430D01*
X635700Y140200D02*
X635700Y116200D01*
X599700D02*
X635700D01*
X599700Y140200D02*
X599700Y116200D01*
X599700Y140200D02*
X635700D01*
X603590Y151570D02*
Y174430D01*
X560410Y151570D02*
X603590D01*
X560410D02*
Y174430D01*
X603590D01*
X330651Y440616D02*
X361184Y471149D01*
X377349Y454984D01*
X346816Y424451D02*
X377349Y454984D01*
X330651Y440616D02*
X346816Y424451D01*
X432916Y544051D02*
X463449Y574584D01*
X447284Y590749D02*
X463449Y574584D01*
X416751Y560216D02*
X447284Y590749D01*
X416751Y560216D02*
X432916Y544051D01*
X460816Y308651D02*
X491349Y339184D01*
X444651Y324816D02*
X460816Y308651D01*
X444651Y324816D02*
X475184Y355349D01*
X491349Y339184D01*
X481702Y585866D02*
X497867Y569702D01*
X467334Y539169D02*
X497867Y569702D01*
X451169Y555334D02*
X467334Y539169D01*
X451169Y555334D02*
X481702Y585866D01*
X292151Y442084D02*
X308316Y458249D01*
X292151Y442084D02*
X322684Y411551D01*
X338849Y427716D01*
X308316Y458249D02*
X338849Y427716D01*
X327110Y441845D02*
X352255Y466990D01*
X310945Y458010D02*
X327110Y441845D01*
X310945Y458010D02*
X336090Y483155D01*
X352255Y466990D01*
X882720Y955430D02*
X918280D01*
Y932570D02*
Y955430D01*
X882720Y932570D02*
X918280D01*
X882720D02*
Y955430D01*
X551510Y233345D02*
X576655Y258490D01*
X535345Y249510D02*
X551510Y233345D01*
X535345Y249510D02*
X560490Y274655D01*
X576655Y258490D01*
X512886Y298656D02*
X529051Y314821D01*
X512886Y298656D02*
X543419Y268123D01*
X559584Y284288D01*
X529051Y314821D02*
X559584Y284288D01*
X804820Y797030D02*
X827680D01*
X804820Y761470D02*
Y797030D01*
Y761470D02*
X827680D01*
Y797030D01*
X812220Y813570D02*
Y836430D01*
X847780Y836430D01*
Y813570D02*
Y836430D01*
X812220Y813570D02*
X847780Y813570D01*
X866780Y869570D02*
Y892430D01*
X831220Y869570D02*
X866780D01*
X831220D02*
Y892430D01*
X866780D01*
X296250Y812000D02*
X320250D01*
Y776000D02*
Y812000D01*
X296250Y776000D02*
X320250D01*
X296250D02*
Y812000D01*
X860410Y641570D02*
Y664430D01*
X903590D01*
Y641570D02*
Y664430D01*
X860410Y641570D02*
X903590D01*
X881570Y670410D02*
Y713590D01*
Y670410D02*
X904430D01*
Y713590D01*
X881570D02*
X904430D01*
X857000Y710000D02*
X881000D01*
Y674000D02*
Y710000D01*
X857000Y674000D02*
X881000D01*
X857000D02*
Y710000D01*
X831570Y694220D02*
Y729780D01*
Y694220D02*
X854430D01*
Y729780D01*
X831570D02*
X854430D01*
X486570Y882220D02*
Y917780D01*
Y882220D02*
X509430D01*
Y917780D01*
X486570D02*
X509430D01*
X532570Y882220D02*
Y917780D01*
Y882220D02*
X555430D01*
Y917780D01*
X532570D02*
X555430D01*
X854410Y809430D02*
X897590D01*
X854410Y786570D02*
Y809430D01*
Y786570D02*
X897590D01*
Y809430D01*
X854410Y837430D02*
X897590D01*
X854410Y814570D02*
Y837430D01*
Y814570D02*
X897590D01*
Y837430D01*
X424570Y922590D02*
X447430D01*
X424570Y879410D02*
Y922590D01*
Y879410D02*
X447430D01*
Y922590D01*
X296570Y814720D02*
X319430D01*
X296570D02*
Y850280D01*
X319430D01*
Y814720D02*
Y850280D01*
X357570Y895590D02*
X380430D01*
X357570Y852410D02*
Y895590D01*
Y852410D02*
X380430D01*
Y895590D01*
X296630Y889810D02*
X339810D01*
X296630D02*
Y912670D01*
X339810D01*
Y889810D02*
Y912670D01*
X296160Y856070D02*
X339340D01*
X296160D02*
Y878930D01*
X339340D01*
Y856070D02*
Y878930D01*
X283000Y907000D02*
Y943000D01*
Y907000D02*
X307000D01*
Y943000D01*
X283000D02*
X307000D01*
X304780Y963570D02*
Y986430D01*
X269220Y963570D02*
X304780D01*
X269220D02*
Y986430D01*
X304780D01*
X280590Y896570D02*
Y919430D01*
X237410D02*
X280590D01*
X237410Y896570D02*
Y919430D01*
Y896570D02*
X280590D01*
X190410D02*
Y919430D01*
Y896570D02*
X233590D01*
Y919430D01*
X190410D02*
X233590D01*
D16*
X369000Y205500D02*
X419000D01*
Y178500D02*
Y205500D01*
X369000Y178500D02*
X419000D01*
X369000D02*
Y205500D01*
D169*
X829650Y813550D02*
G03*
X829650Y813550I-1200J0D01*
G01*
D171*
X810000Y830750D02*
G03*
X810000Y830750I-107500J0D01*
G01*
X993250Y783550D02*
Y916050D01*
X845750D02*
X993250D01*
X845750Y765550D02*
Y916050D01*
X993250Y783550D02*
X995750D01*
Y772550D02*
Y783550D01*
X993250Y772550D02*
X995750D01*
X993250Y765550D02*
Y772550D01*
X845750Y765550D02*
X993250D01*
X17000Y931500D02*
X179000D01*
X17000Y810500D02*
Y931500D01*
Y810500D02*
X179000D01*
Y931500D01*
X968530Y43340D02*
X993930D01*
Y322740D01*
X968530D02*
X993930D01*
X968530Y43340D02*
X968530Y322740D01*
X968530Y43340D02*
X993930D01*
Y322740D01*
X968530D02*
X993930D01*
X687980Y43340D02*
X713380D01*
X713380Y322740D01*
X687980D02*
X713380D01*
X687980D02*
X687980Y43340D01*
X713380D01*
X713380Y322740D01*
X687980D02*
X713380D01*
D172*
X517944Y81000D02*
G03*
X519468Y81000I762J0D01*
G01*
D02*
G03*
X517944Y81000I-762J0D01*
G01*
D173*
X450075Y356394D02*
X457144Y349325D01*
X460678Y352859D01*
Y355216D01*
X455966Y359928D01*
X453609D01*
X450075Y356394D01*
X457144Y363463D02*
X461856Y368175D01*
X463034Y366997D01*
Y357572D01*
X464212Y356394D01*
X861496Y914248D02*
Y904252D01*
X856498D01*
X854831Y905918D01*
Y909250D01*
X856498Y910916D01*
X861496D01*
X858164D02*
X854831Y914248D01*
X851499D02*
X848167D01*
X849833D01*
Y904252D01*
X851499Y905918D01*
X843168D02*
X841502Y904252D01*
X838170D01*
X836504Y905918D01*
Y907584D01*
X838170Y909250D01*
X836504Y910916D01*
Y912582D01*
X838170Y914248D01*
X841502D01*
X843168Y912582D01*
Y910916D01*
X841502Y909250D01*
X843168Y907584D01*
Y905918D01*
X841502Y909250D02*
X838170D01*
X816671Y848002D02*
Y857998D01*
X821669D01*
X823335Y856332D01*
Y853000D01*
X821669Y851334D01*
X816671D01*
X820003D02*
X823335Y848002D01*
X833332D02*
X826668D01*
X833332Y854666D01*
Y856332D01*
X831666Y857998D01*
X828334D01*
X826668Y856332D01*
X836665D02*
X838331Y857998D01*
X841663D01*
X843329Y856332D01*
Y849668D01*
X841663Y848002D01*
X838331D01*
X836665Y849668D01*
Y856332D01*
X445822Y356534D02*
Y358891D01*
X448178Y361247D01*
X450534D01*
X455247Y356534D01*
Y354178D01*
X452891Y351822D01*
X450534D01*
X437575Y350644D02*
X441109Y351822D01*
X445822D01*
X448178Y349466D01*
Y347109D01*
X445822Y344753D01*
X443466D01*
X442287Y345931D01*
X442287Y348288D01*
X445822Y351822D01*
X348678Y401066D02*
Y398709D01*
X346322Y396353D01*
X343966D01*
X339253Y401066D01*
Y403422D01*
X341609Y405778D01*
X343966D01*
X351034Y403422D02*
X353391D01*
X355747Y405778D01*
X355747Y408134D01*
X354569Y409313D01*
X352212D01*
X352212Y411669D01*
X351034Y412847D01*
X348678D01*
X346322Y410491D01*
Y408134D01*
X347500Y406956D01*
X349856D01*
X349856Y404600D01*
X351034Y403422D01*
X349856Y406956D02*
X352212Y409313D01*
X423267Y385230D02*
Y387586D01*
X425624Y389942D01*
X427980D01*
X432692Y385230D01*
Y382873D01*
X430336Y380517D01*
X427980D01*
X426802Y376983D02*
X424445Y374627D01*
X425624Y375805D01*
X418555Y382873D01*
X420911D01*
X416198Y366380D02*
X420911Y371092D01*
X411486D01*
X410308Y372270D01*
X410308Y374627D01*
X412664Y376983D01*
X415020D01*
X480856Y349175D02*
X487925Y342106D01*
X484391Y338572D01*
X482034D01*
X479678Y340928D01*
Y343284D01*
X483212Y346819D01*
X480856Y344463D02*
X476144D01*
Y330325D02*
X477322Y333859D01*
Y338572D01*
X474966Y340928D01*
X472609D01*
X470253Y338572D01*
Y336216D01*
X471431Y335037D01*
X473787Y335037D01*
X477322Y338572D01*
X885329Y858998D02*
Y849002D01*
X880331D01*
X878664Y850668D01*
Y854000D01*
X880331Y855666D01*
X885329D01*
X881997D02*
X878664Y858998D01*
X868668D02*
X875332D01*
X868668Y852334D01*
Y850668D01*
X870334Y849002D01*
X873666D01*
X875332Y850668D01*
X858671Y858998D02*
X865335D01*
X858671Y852334D01*
Y850668D01*
X860337Y849002D01*
X863669D01*
X865335Y850668D01*
X330769Y627702D02*
Y637698D01*
X335768D01*
X337434Y636032D01*
Y632700D01*
X335768Y631034D01*
X330769D01*
X334102D02*
X337434Y627702D01*
X340766Y636032D02*
X342432Y637698D01*
X345765D01*
X347431Y636032D01*
Y634366D01*
X345765Y632700D01*
X344098D01*
X345765D01*
X347431Y631034D01*
Y629368D01*
X345765Y627702D01*
X342432D01*
X340766Y629368D01*
X541480Y443767D02*
X543836D01*
X546192Y446124D01*
Y448480D01*
X541480Y453192D01*
X539123D01*
X536767Y450836D01*
Y448480D01*
X533233Y447302D02*
X530877Y444945D01*
X532055Y446124D01*
X539123Y439055D01*
Y441411D01*
X533233Y435520D02*
Y433164D01*
X530877Y430808D01*
X528520Y430808D01*
X523808Y435520D01*
X523808Y437877D01*
X526164Y440233D01*
X528520D01*
X533233Y435520D01*
X303582Y645206D02*
X305248Y643539D01*
Y640207D01*
X303582Y638541D01*
X296918D01*
X295252Y640207D01*
Y643539D01*
X296918Y645206D01*
X295252Y655202D02*
Y648538D01*
X301916Y655202D01*
X303582D01*
X305248Y653536D01*
Y650204D01*
X303582Y648538D01*
X305248Y665199D02*
X303582Y661867D01*
X300250Y658534D01*
X296918D01*
X295252Y660201D01*
Y663533D01*
X296918Y665199D01*
X298584D01*
X300250Y663533D01*
Y658534D01*
X296918Y702895D02*
X295252Y704561D01*
Y707893D01*
X296918Y709559D01*
X303582D01*
X305248Y707893D01*
Y704561D01*
X303582Y702895D01*
X305248Y692898D02*
Y699562D01*
X298584Y692898D01*
X296918D01*
X295252Y694564D01*
Y697896D01*
X296918Y699562D01*
X295252Y689566D02*
Y682901D01*
X296918D01*
X303582Y689566D01*
X305248D01*
X336835Y710768D02*
X335169Y709102D01*
X331837D01*
X330171Y710768D01*
Y717432D01*
X331837Y719098D01*
X335169D01*
X336835Y717432D01*
X346832Y719098D02*
X340168D01*
X346832Y712434D01*
Y710768D01*
X345166Y709102D01*
X341834D01*
X340168Y710768D01*
X350164D02*
X351831Y709102D01*
X355163D01*
X356829Y710768D01*
Y717432D01*
X355163Y719098D01*
X351831D01*
X350164Y717432D01*
Y710768D01*
X389898Y654568D02*
X391564Y652902D01*
X394897D01*
X396563Y654568D01*
Y661232D01*
X394897Y662898D01*
X391564D01*
X389898Y661232D01*
X379902Y662898D02*
X386566D01*
X379902Y656234D01*
Y654568D01*
X381568Y652902D01*
X384900D01*
X386566Y654568D01*
X376569Y662898D02*
X373237D01*
X374903D01*
Y652902D01*
X376569Y654568D01*
X419202Y664330D02*
X429198D01*
Y659331D01*
X427532Y657665D01*
X424200D01*
X422534Y659331D01*
Y664330D01*
Y660997D02*
X419202Y657665D01*
Y654333D02*
Y651001D01*
Y652667D01*
X429198D01*
X427532Y654333D01*
X419202Y646002D02*
Y642670D01*
Y644336D01*
X429198D01*
X427532Y646002D01*
X435931Y554356D02*
X433575D01*
X431219Y556712D01*
Y559069D01*
X435931Y563781D01*
X438288D01*
X440644Y561425D01*
Y559069D01*
X438288Y552000D02*
Y549644D01*
X440644Y547287D01*
X443000Y547287D01*
X444178Y548466D01*
Y550822D01*
X443000Y552000D01*
X444178Y550822D01*
X446534Y550822D01*
X447713Y552000D01*
Y554356D01*
X445356Y556712D01*
X443000D01*
X454781Y547287D02*
X447713Y540219D01*
Y547287D01*
X452425Y542575D01*
X537331Y533998D02*
Y524002D01*
X532332D01*
X530666Y525668D01*
Y529000D01*
X532332Y530666D01*
X537331D01*
X533998D02*
X530666Y533998D01*
X520669Y524002D02*
X527334D01*
Y529000D01*
X524002Y527334D01*
X522336D01*
X520669Y529000D01*
Y532332D01*
X522336Y533998D01*
X525668D01*
X527334Y532332D01*
X414702Y718831D02*
X424698D01*
Y713832D01*
X423032Y712166D01*
X419700D01*
X418034Y713832D01*
Y718831D01*
Y715498D02*
X414702Y712166D01*
Y703835D02*
X424698D01*
X419700Y708834D01*
Y702169D01*
X597832Y652036D02*
X599498Y650369D01*
Y647037D01*
X597832Y645371D01*
X591168D01*
X589502Y647037D01*
Y650369D01*
X591168Y652036D01*
X589502Y662032D02*
Y655368D01*
X596166Y662032D01*
X597832D01*
X599498Y660366D01*
Y657034D01*
X597832Y655368D01*
X589502Y672029D02*
Y665365D01*
X596166Y672029D01*
X597832D01*
X599498Y670363D01*
Y667031D01*
X597832Y665365D01*
X571932Y651936D02*
X573598Y650269D01*
Y646937D01*
X571932Y645271D01*
X565268D01*
X563601Y646937D01*
Y650269D01*
X565268Y651936D01*
X563601Y661932D02*
Y655268D01*
X570266Y661932D01*
X571932D01*
X573598Y660266D01*
Y656934D01*
X571932Y655268D01*
Y665265D02*
X573598Y666931D01*
Y670263D01*
X571932Y671929D01*
X570266D01*
X568600Y670263D01*
Y668597D01*
Y670263D01*
X566934Y671929D01*
X565268D01*
X563601Y670263D01*
Y666931D01*
X565268Y665265D01*
X539168Y698165D02*
X537502Y699831D01*
Y703163D01*
X539168Y704829D01*
X545832D01*
X547498Y703163D01*
Y699831D01*
X545832Y698165D01*
X547498Y688168D02*
Y694832D01*
X540834Y688168D01*
X539168D01*
X537502Y689834D01*
Y693166D01*
X539168Y694832D01*
X545832Y684836D02*
X547498Y683169D01*
Y679837D01*
X545832Y678171D01*
X539168D01*
X537502Y679837D01*
Y683169D01*
X539168Y684836D01*
X540834D01*
X542500Y683169D01*
Y678171D01*
X510902Y644096D02*
X520898D01*
Y639098D01*
X519232Y637431D01*
X515900D01*
X514234Y639098D01*
Y644096D01*
Y640764D02*
X510902Y637431D01*
Y634099D02*
Y630767D01*
Y632433D01*
X520898D01*
X519232Y634099D01*
X520898Y619104D02*
Y625769D01*
X515900D01*
X517566Y622436D01*
Y620770D01*
X515900Y619104D01*
X512568D01*
X510902Y620770D01*
Y624102D01*
X512568Y625769D01*
X545832Y638835D02*
X547498Y637169D01*
Y633837D01*
X545832Y632171D01*
X539168D01*
X537502Y633837D01*
Y637169D01*
X539168Y638835D01*
X537502Y648832D02*
Y642168D01*
X544166Y648832D01*
X545832D01*
X547498Y647166D01*
Y643834D01*
X545832Y642168D01*
Y652165D02*
X547498Y653831D01*
Y657163D01*
X545832Y658829D01*
X544166D01*
X542500Y657163D01*
X540834Y658829D01*
X539168D01*
X537502Y657163D01*
Y653831D01*
X539168Y652165D01*
X540834D01*
X542500Y653831D01*
X544166Y652165D01*
X545832D01*
X542500Y653831D02*
Y657163D01*
X363002Y29504D02*
X372998D01*
Y34502D01*
X371332Y36168D01*
X364668D01*
X363002Y34502D01*
Y29504D01*
X372998Y39501D02*
Y42833D01*
Y41167D01*
X363002D01*
X364668Y39501D01*
X372998Y52830D02*
X363002D01*
X368000Y47832D01*
Y54496D01*
X372998Y72504D02*
X363002D01*
Y77502D01*
X364668Y79169D01*
X368000D01*
X369666Y77502D01*
Y72504D01*
Y75836D02*
X372998Y79169D01*
Y82501D02*
Y85833D01*
Y84167D01*
X363002D01*
X364668Y82501D01*
X372998Y95830D02*
X363002D01*
X368000Y90831D01*
Y97496D01*
X314998Y268671D02*
X305002D01*
Y273669D01*
X306668Y275336D01*
X310000D01*
X311666Y273669D01*
Y268671D01*
Y272003D02*
X314998Y275336D01*
Y285332D02*
Y278668D01*
X308334Y285332D01*
X306668D01*
X305002Y283666D01*
Y280334D01*
X306668Y278668D01*
Y288664D02*
X305002Y290331D01*
Y293663D01*
X306668Y295329D01*
X308334D01*
X310000Y293663D01*
Y291997D01*
Y293663D01*
X311666Y295329D01*
X313332D01*
X314998Y293663D01*
Y290331D01*
X313332Y288664D01*
X371332Y138665D02*
X372998Y140331D01*
Y143663D01*
X371332Y145329D01*
X364668D01*
X363002Y143663D01*
Y140331D01*
X364668Y138665D01*
X371332Y135332D02*
X372998Y133666D01*
Y130334D01*
X371332Y128668D01*
X369666D01*
X368000Y130334D01*
Y132000D01*
Y130334D01*
X366334Y128668D01*
X364668D01*
X363002Y130334D01*
Y133666D01*
X364668Y135332D01*
X371332Y125335D02*
X372998Y123669D01*
Y120337D01*
X371332Y118671D01*
X369666D01*
X368000Y120337D01*
Y122003D01*
Y120337D01*
X366334Y118671D01*
X364668D01*
X363002Y120337D01*
Y123669D01*
X364668Y125335D01*
X590496Y132998D02*
Y123002D01*
X585498D01*
X583831Y124668D01*
Y128000D01*
X585498Y129666D01*
X590496D01*
X587164D02*
X583831Y132998D01*
X580499D02*
X577167D01*
X578833D01*
Y123002D01*
X580499Y124668D01*
X565504Y132998D02*
X572169D01*
X565504Y126334D01*
Y124668D01*
X567170Y123002D01*
X570502D01*
X572169Y124668D01*
X628530Y123202D02*
Y133198D01*
X623531D01*
X621865Y131532D01*
Y124868D01*
X623531Y123202D01*
X628530D01*
X618533Y133198D02*
X615201D01*
X616867D01*
Y123202D01*
X618533Y124868D01*
X610202Y133198D02*
X606870D01*
X608536D01*
Y123202D01*
X610202Y124868D01*
X588665Y159668D02*
X590331Y158002D01*
X593663D01*
X595329Y159668D01*
Y166332D01*
X593663Y167998D01*
X590331D01*
X588665Y166332D01*
X585332Y159668D02*
X583666Y158002D01*
X580334D01*
X578668Y159668D01*
Y161334D01*
X580334Y163000D01*
X582000D01*
X580334D01*
X578668Y164666D01*
Y166332D01*
X580334Y167998D01*
X583666D01*
X585332Y166332D01*
X568671Y167998D02*
X575336D01*
X568671Y161334D01*
Y159668D01*
X570337Y158002D01*
X573669D01*
X575336Y159668D01*
X355178Y444266D02*
Y441909D01*
X352822Y439553D01*
X350466D01*
X345753Y444266D01*
Y446622D01*
X348109Y448978D01*
X350466D01*
X352822Y451334D02*
Y453691D01*
X355178Y456047D01*
X357534D01*
X362247Y451334D01*
X362247Y448978D01*
X359891Y446622D01*
X357534D01*
X356356Y447800D01*
X356356Y450156D01*
X359891Y453691D01*
X433620Y565633D02*
X431264D01*
X428908Y563276D01*
Y560920D01*
X433620Y556208D01*
X435976D01*
X438333Y558564D01*
Y560920D01*
X441867Y562098D02*
X444224Y564455D01*
X443045Y563276D01*
X435976Y570345D01*
Y567989D01*
X445402Y579770D02*
X440689Y575058D01*
X444224Y571524D01*
X445402Y575058D01*
X446580Y576236D01*
X448936D01*
X451292Y573880D01*
X451292Y571524D01*
X448936Y569167D01*
X446580D01*
X468589Y337302D02*
Y339658D01*
X470945Y342014D01*
X473302D01*
X478014Y337302D01*
Y334945D01*
X475658Y332589D01*
X473302D01*
X472123Y329055D02*
X469767Y326698D01*
X470945Y327877D01*
X463876Y334945D01*
X466233D01*
Y323164D02*
X463876Y320808D01*
X465055Y321986D01*
X457986Y329055D01*
X460342D01*
X478052Y561340D02*
X480408D01*
X482765Y563696D01*
Y566052D01*
X478052Y570765D01*
X475696D01*
X473340Y568408D01*
Y566052D01*
X476874Y557805D02*
X472161Y553093D01*
X470983Y554271D01*
Y563696D01*
X469805Y564874D01*
X309020Y436667D02*
X306664D01*
X304308Y439024D01*
Y441380D01*
X309020Y446092D01*
X311376D01*
X313733Y443736D01*
Y441380D01*
X317267Y440202D02*
X319624Y437845D01*
X318445Y439024D01*
X311376Y431955D01*
Y434311D01*
X320802Y422530D02*
X319624Y426064D01*
Y430776D01*
X321980Y433133D01*
X324336D01*
X326692Y430776D01*
X326692Y428420D01*
X325514Y427242D01*
X323158Y427242D01*
X319624Y430776D01*
X341025Y464856D02*
X333956Y471925D01*
X330422Y468391D01*
Y466034D01*
X332778Y463678D01*
X335134D01*
X338669Y467212D01*
X336312Y464856D02*
Y460144D01*
X332778Y458966D02*
Y456609D01*
X330422Y454253D01*
X328066D01*
X323353Y458966D01*
X323353Y461322D01*
X325709Y463678D01*
X328066D01*
X329244Y462500D01*
X329244Y460144D01*
X325709Y456609D01*
X888837Y948998D02*
Y939002D01*
X893836D01*
X895502Y940668D01*
Y944000D01*
X893836Y945666D01*
X888837D01*
X892169D02*
X895502Y948998D01*
X905498D02*
X898834D01*
X905498Y942334D01*
Y940668D01*
X903832Y939002D01*
X900500D01*
X898834Y940668D01*
X908831Y948998D02*
X912163D01*
X910497D01*
Y939002D01*
X908831Y940668D01*
X568370Y259302D02*
X561302Y266370D01*
X557767Y262836D01*
Y260480D01*
X560123Y258123D01*
X562480D01*
X566014Y261658D01*
X563658Y259302D02*
Y254589D01*
X561302Y252233D02*
X558945Y249876D01*
X560123Y251055D01*
X553055Y258123D01*
X555411D01*
X549520Y252233D02*
X547164D01*
X544808Y249876D01*
X544808Y247520D01*
X549520Y242808D01*
X551876Y242808D01*
X554233Y245164D01*
Y247520D01*
X549520Y252233D01*
X529755Y293239D02*
X527399D01*
X525043Y295595D01*
Y297952D01*
X529755Y302664D01*
X532112D01*
X534468Y300308D01*
Y297952D01*
X538002Y296773D02*
X540358Y294417D01*
X539180Y295595D01*
X532112Y288526D01*
Y290883D01*
X542715Y289705D02*
X545071D01*
X547427Y287348D01*
X547427Y284992D01*
X542715Y280280D01*
X540358Y280280D01*
X538002Y282636D01*
Y284992D01*
X539180Y286170D01*
X541536Y286170D01*
X545071Y282636D01*
X821248Y791746D02*
X811252D01*
Y786748D01*
X812918Y785081D01*
X816250D01*
X817916Y786748D01*
Y791746D01*
Y788414D02*
X821248Y785081D01*
Y781749D02*
Y778417D01*
Y780083D01*
X811252D01*
X812918Y781749D01*
X811252Y773419D02*
Y766754D01*
X812918D01*
X819582Y773419D01*
X821248D01*
X817504Y820002D02*
Y829998D01*
X822502D01*
X824168Y828332D01*
Y825000D01*
X822502Y823334D01*
X817504D01*
X820836D02*
X824168Y820002D01*
X827501D02*
X830833D01*
X829167D01*
Y829998D01*
X827501Y828332D01*
X842496Y829998D02*
X839164Y828332D01*
X835832Y825000D01*
Y821668D01*
X837498Y820002D01*
X840830D01*
X842496Y821668D01*
Y823334D01*
X840830Y825000D01*
X835832D01*
X861496Y885998D02*
Y876002D01*
X856498D01*
X854831Y877668D01*
Y881000D01*
X856498Y882666D01*
X861496D01*
X858164D02*
X854831Y885998D01*
X851499D02*
X848167D01*
X849833D01*
Y876002D01*
X851499Y877668D01*
X843168Y884332D02*
X841502Y885998D01*
X838170D01*
X836504Y884332D01*
Y877668D01*
X838170Y876002D01*
X841502D01*
X843168Y877668D01*
Y879334D01*
X841502Y881000D01*
X836504D01*
X313248Y802331D02*
X303252D01*
Y797332D01*
X304918Y795666D01*
X311582D01*
X313248Y797332D01*
Y802331D01*
X311582Y792334D02*
X313248Y790668D01*
Y787336D01*
X311582Y785669D01*
X309916D01*
X308250Y787336D01*
X306584Y785669D01*
X304918D01*
X303252Y787336D01*
Y790668D01*
X304918Y792334D01*
X306584D01*
X308250Y790668D01*
X309916Y792334D01*
X311582D01*
X308250Y790668D02*
Y787336D01*
X882000Y656332D02*
X880334Y657998D01*
X877002D01*
X875335Y656332D01*
Y649668D01*
X877002Y648002D01*
X880334D01*
X882000Y649668D01*
X885332Y648002D02*
X888664D01*
X886998D01*
Y657998D01*
X885332Y656332D01*
X896332Y693666D02*
X897998Y695332D01*
Y698664D01*
X896332Y700331D01*
X889668D01*
X888002Y698664D01*
Y695332D01*
X889668Y693666D01*
X888002Y683669D02*
Y690334D01*
X894666Y683669D01*
X896332D01*
X897998Y685335D01*
Y688668D01*
X896332Y690334D01*
X873998Y698664D02*
X864002D01*
Y693666D01*
X865668Y692000D01*
X872332D01*
X873998Y693666D01*
Y698664D01*
X864002Y688668D02*
Y685335D01*
Y687002D01*
X873998D01*
X872332Y688668D01*
X838002Y718664D02*
X847998D01*
Y713666D01*
X846332Y712000D01*
X843000D01*
X841334Y713666D01*
Y718664D01*
Y715332D02*
X838002Y712000D01*
Y708668D02*
Y705335D01*
Y707002D01*
X847998D01*
X846332Y708668D01*
X493002Y908331D02*
X502998D01*
Y903332D01*
X501332Y901666D01*
X498000D01*
X496334Y903332D01*
Y908331D01*
Y904998D02*
X493002Y901666D01*
X502998Y898334D02*
Y891669D01*
X501332D01*
X494668Y898334D01*
X493002D01*
X539002Y908331D02*
X548998D01*
Y903332D01*
X547332Y901666D01*
X544000D01*
X542334Y903332D01*
Y908331D01*
Y904998D02*
X539002Y901666D01*
X547332Y898334D02*
X548998Y896668D01*
Y893335D01*
X547332Y891669D01*
X545666D01*
X544000Y893335D01*
X542334Y891669D01*
X540668D01*
X539002Y893335D01*
Y896668D01*
X540668Y898334D01*
X542334D01*
X544000Y896668D01*
X545666Y898334D01*
X547332D01*
X544000Y896668D02*
Y893335D01*
X882664Y794668D02*
X884331Y793002D01*
X887663D01*
X889329Y794668D01*
Y801332D01*
X887663Y802998D01*
X884331D01*
X882664Y801332D01*
X872668Y802998D02*
X879332D01*
X872668Y796334D01*
Y794668D01*
X874334Y793002D01*
X877666D01*
X879332Y794668D01*
X862671Y793002D02*
X869335D01*
Y798000D01*
X866003Y796334D01*
X864337D01*
X862671Y798000D01*
Y801332D01*
X864337Y802998D01*
X867669D01*
X869335Y801332D01*
X882664Y822668D02*
X884331Y821002D01*
X887663D01*
X889329Y822668D01*
Y829332D01*
X887663Y830998D01*
X884331D01*
X882664Y829332D01*
X872668Y830998D02*
X879332D01*
X872668Y824334D01*
Y822668D01*
X874334Y821002D01*
X877666D01*
X879332Y822668D01*
X864337Y830998D02*
Y821002D01*
X869335Y826000D01*
X862671D01*
X432668Y906831D02*
X431002Y908497D01*
Y911830D01*
X432668Y913496D01*
X439332D01*
X440998Y911830D01*
Y908497D01*
X439332Y906831D01*
X440998Y903499D02*
Y900167D01*
Y901833D01*
X431002D01*
X432668Y903499D01*
X431002Y895169D02*
Y888504D01*
X432668D01*
X439332Y895169D01*
X440998D01*
X312998Y820004D02*
X303002D01*
Y825002D01*
X304668Y826668D01*
X308000D01*
X309666Y825002D01*
Y820004D01*
Y823336D02*
X312998Y826668D01*
Y830001D02*
Y833333D01*
Y831667D01*
X303002D01*
X304668Y830001D01*
Y838331D02*
X303002Y839998D01*
Y843330D01*
X304668Y844996D01*
X306334D01*
X308000Y843330D01*
Y841664D01*
Y843330D01*
X309666Y844996D01*
X311332D01*
X312998Y843330D01*
Y839998D01*
X311332Y838331D01*
X365668Y879831D02*
X364002Y881498D01*
Y884830D01*
X365668Y886496D01*
X372332D01*
X373998Y884830D01*
Y881498D01*
X372332Y879831D01*
X373998Y876499D02*
Y873167D01*
Y874833D01*
X364002D01*
X365668Y876499D01*
Y868168D02*
X364002Y866502D01*
Y863170D01*
X365668Y861504D01*
X367334D01*
X369000Y863170D01*
X370666Y861504D01*
X372332D01*
X373998Y863170D01*
Y866502D01*
X372332Y868168D01*
X370666D01*
X369000Y866502D01*
X367334Y868168D01*
X365668D01*
X369000Y866502D02*
Y863170D01*
X324052Y904572D02*
X325718Y906238D01*
X329050D01*
X330716Y904572D01*
Y897908D01*
X329050Y896242D01*
X325718D01*
X324052Y897908D01*
X320719Y896242D02*
X317387D01*
X319053D01*
Y906238D01*
X320719Y904572D01*
X312389D02*
X310723Y906238D01*
X307390D01*
X305724Y904572D01*
Y902906D01*
X307390Y901240D01*
X309056D01*
X307390D01*
X305724Y899574D01*
Y897908D01*
X307390Y896242D01*
X310723D01*
X312389Y897908D01*
X323582Y870832D02*
X325248Y872498D01*
X328580D01*
X330246Y870832D01*
Y864168D01*
X328580Y862502D01*
X325248D01*
X323582Y864168D01*
X320249Y862502D02*
X316917D01*
X318583D01*
Y872498D01*
X320249Y870832D01*
X306920Y862502D02*
Y872498D01*
X311919Y867500D01*
X305254D01*
X299998Y933331D02*
X290002D01*
Y928332D01*
X291668Y926666D01*
X298332D01*
X299998Y928332D01*
Y933331D01*
X290002Y916669D02*
Y923334D01*
X296666Y916669D01*
X298332D01*
X299998Y918335D01*
Y921668D01*
X298332Y923334D01*
X295331Y979998D02*
Y970002D01*
X290332D01*
X288666Y971668D01*
Y975000D01*
X290332Y976666D01*
X295331D01*
X291998D02*
X288666Y979998D01*
X278669D02*
X285334D01*
X278669Y973334D01*
Y971668D01*
X280335Y970002D01*
X283668D01*
X285334Y971668D01*
X260666Y911332D02*
X262332Y912998D01*
X265665D01*
X267331Y911332D01*
Y904668D01*
X265665Y903002D01*
X262332D01*
X260666Y904668D01*
X257334Y911332D02*
X255668Y912998D01*
X252335D01*
X250669Y911332D01*
Y909666D01*
X252335Y908000D01*
X254002D01*
X252335D01*
X250669Y906334D01*
Y904668D01*
X252335Y903002D01*
X255668D01*
X257334Y904668D01*
X210334D02*
X208668Y903002D01*
X205336D01*
X203669Y904668D01*
Y911332D01*
X205336Y912998D01*
X208668D01*
X210334Y911332D01*
X218664Y912998D02*
Y903002D01*
X213666Y908000D01*
X220331D01*
M02*
