G04*
G04 #@! TF.GenerationSoftware,Altium Limited,Altium Designer,25.7.1 (20)*
G04*
G04 Layer_Color=8421504*
%FSLAX44Y44*%
%MOMM*%
G71*
G04*
G04 #@! TF.SameCoordinates,E610F868-73EF-4846-AD65-6CABB719E0C8*
G04*
G04*
G04 #@! TF.FilePolarity,Positive*
G04*
G01*
G75*
%ADD18R,0.4000X0.8000*%
%ADD19R,0.8000X0.4000*%
%ADD20R,0.8000X0.8000*%
%ADD21R,1.2000X1.2000*%
G04:AMPARAMS|DCode=22|XSize=1.58mm|YSize=0.6mm|CornerRadius=0.075mm|HoleSize=0mm|Usage=FLASHONLY|Rotation=180.000|XOffset=0mm|YOffset=0mm|HoleType=Round|Shape=RoundedRectangle|*
%AMROUNDEDRECTD22*
21,1,1.5800,0.4500,0,0,180.0*
21,1,1.4300,0.6000,0,0,180.0*
1,1,0.1500,-0.7150,0.2250*
1,1,0.1500,0.7150,0.2250*
1,1,0.1500,0.7150,-0.2250*
1,1,0.1500,-0.7150,-0.2250*
%
%ADD22ROUNDEDRECTD22*%
G04:AMPARAMS|DCode=23|XSize=1mm|YSize=1.7mm|CornerRadius=0.125mm|HoleSize=0mm|Usage=FLASHONLY|Rotation=270.000|XOffset=0mm|YOffset=0mm|HoleType=Round|Shape=RoundedRectangle|*
%AMROUNDEDRECTD23*
21,1,1.0000,1.4500,0,0,270.0*
21,1,0.7500,1.7000,0,0,270.0*
1,1,0.2500,-0.7250,-0.3750*
1,1,0.2500,-0.7250,0.3750*
1,1,0.2500,0.7250,0.3750*
1,1,0.2500,0.7250,-0.3750*
%
%ADD23ROUNDEDRECTD23*%
G04:AMPARAMS|DCode=24|XSize=1.31mm|YSize=0.93mm|CornerRadius=0.0698mm|HoleSize=0mm|Usage=FLASHONLY|Rotation=90.000|XOffset=0mm|YOffset=0mm|HoleType=Round|Shape=RoundedRectangle|*
%AMROUNDEDRECTD24*
21,1,1.3100,0.7905,0,0,90.0*
21,1,1.1705,0.9300,0,0,90.0*
1,1,0.1395,0.3953,0.5853*
1,1,0.1395,0.3953,-0.5853*
1,1,0.1395,-0.3953,-0.5853*
1,1,0.1395,-0.3953,0.5853*
%
%ADD24ROUNDEDRECTD24*%
%ADD25R,4.0000X2.0000*%
G04:AMPARAMS|DCode=26|XSize=1.4mm|YSize=1.7mm|CornerRadius=0.175mm|HoleSize=0mm|Usage=FLASHONLY|Rotation=180.000|XOffset=0mm|YOffset=0mm|HoleType=Round|Shape=RoundedRectangle|*
%AMROUNDEDRECTD26*
21,1,1.4000,1.3500,0,0,180.0*
21,1,1.0500,1.7000,0,0,180.0*
1,1,0.3500,-0.5250,0.6750*
1,1,0.3500,0.5250,0.6750*
1,1,0.3500,0.5250,-0.6750*
1,1,0.3500,-0.5250,-0.6750*
%
%ADD26ROUNDEDRECTD26*%
G04:AMPARAMS|DCode=27|XSize=1mm|YSize=1.7mm|CornerRadius=0.125mm|HoleSize=0mm|Usage=FLASHONLY|Rotation=180.000|XOffset=0mm|YOffset=0mm|HoleType=Round|Shape=RoundedRectangle|*
%AMROUNDEDRECTD27*
21,1,1.0000,1.4500,0,0,180.0*
21,1,0.7500,1.7000,0,0,180.0*
1,1,0.2500,-0.3750,0.7250*
1,1,0.2500,0.3750,0.7250*
1,1,0.2500,0.3750,-0.7250*
1,1,0.2500,-0.3750,-0.7250*
%
%ADD27ROUNDEDRECTD27*%
%ADD28R,2.8956X5.4102*%
G04:AMPARAMS|DCode=29|XSize=1.31mm|YSize=3.24mm|CornerRadius=0.0983mm|HoleSize=0mm|Usage=FLASHONLY|Rotation=0.000|XOffset=0mm|YOffset=0mm|HoleType=Round|Shape=RoundedRectangle|*
%AMROUNDEDRECTD29*
21,1,1.3100,3.0435,0,0,0.0*
21,1,1.1135,3.2400,0,0,0.0*
1,1,0.1965,0.5568,-1.5218*
1,1,0.1965,-0.5568,-1.5218*
1,1,0.1965,-0.5568,1.5218*
1,1,0.1965,0.5568,1.5218*
%
%ADD29ROUNDEDRECTD29*%
G04:AMPARAMS|DCode=30|XSize=1.31mm|YSize=0.93mm|CornerRadius=0.0698mm|HoleSize=0mm|Usage=FLASHONLY|Rotation=0.000|XOffset=0mm|YOffset=0mm|HoleType=Round|Shape=RoundedRectangle|*
%AMROUNDEDRECTD30*
21,1,1.3100,0.7905,0,0,0.0*
21,1,1.1705,0.9300,0,0,0.0*
1,1,0.1395,0.5853,-0.3953*
1,1,0.1395,-0.5853,-0.3953*
1,1,0.1395,-0.5853,0.3953*
1,1,0.1395,0.5853,0.3953*
%
%ADD30ROUNDEDRECTD30*%
G04:AMPARAMS|DCode=31|XSize=1.31mm|YSize=3.24mm|CornerRadius=0.0983mm|HoleSize=0mm|Usage=FLASHONLY|Rotation=90.000|XOffset=0mm|YOffset=0mm|HoleType=Round|Shape=RoundedRectangle|*
%AMROUNDEDRECTD31*
21,1,1.3100,3.0435,0,0,90.0*
21,1,1.1135,3.2400,0,0,90.0*
1,1,0.1965,1.5218,0.5568*
1,1,0.1965,1.5218,-0.5568*
1,1,0.1965,-1.5218,-0.5568*
1,1,0.1965,-1.5218,0.5568*
%
%ADD31ROUNDEDRECTD31*%
%ADD32R,0.9000X0.8000*%
%ADD33R,3.8100X2.0800*%
G04:AMPARAMS|DCode=34|XSize=1.4mm|YSize=1.7mm|CornerRadius=0.175mm|HoleSize=0mm|Usage=FLASHONLY|Rotation=270.000|XOffset=0mm|YOffset=0mm|HoleType=Round|Shape=RoundedRectangle|*
%AMROUNDEDRECTD34*
21,1,1.4000,1.3500,0,0,270.0*
21,1,1.0500,1.7000,0,0,270.0*
1,1,0.3500,-0.6750,-0.5250*
1,1,0.3500,-0.6750,0.5250*
1,1,0.3500,0.6750,0.5250*
1,1,0.3500,0.6750,-0.5250*
%
%ADD34ROUNDEDRECTD34*%
G04:AMPARAMS|DCode=35|XSize=1.4mm|YSize=1.7mm|CornerRadius=0.175mm|HoleSize=0mm|Usage=FLASHONLY|Rotation=225.000|XOffset=0mm|YOffset=0mm|HoleType=Round|Shape=RoundedRectangle|*
%AMROUNDEDRECTD35*
21,1,1.4000,1.3500,0,0,225.0*
21,1,1.0500,1.7000,0,0,225.0*
1,1,0.3500,-0.8485,0.1061*
1,1,0.3500,-0.1061,0.8485*
1,1,0.3500,0.8485,-0.1061*
1,1,0.3500,0.1061,-0.8485*
%
%ADD35ROUNDEDRECTD35*%
G04:AMPARAMS|DCode=36|XSize=1.56mm|YSize=0.28mm|CornerRadius=0.07mm|HoleSize=0mm|Usage=FLASHONLY|Rotation=315.000|XOffset=0mm|YOffset=0mm|HoleType=Round|Shape=RoundedRectangle|*
%AMROUNDEDRECTD36*
21,1,1.5600,0.1400,0,0,315.0*
21,1,1.4200,0.2800,0,0,315.0*
1,1,0.1400,0.4526,-0.5515*
1,1,0.1400,-0.5515,0.4526*
1,1,0.1400,-0.4526,0.5515*
1,1,0.1400,0.5515,-0.4526*
%
%ADD36ROUNDEDRECTD36*%
G04:AMPARAMS|DCode=37|XSize=1.56mm|YSize=0.28mm|CornerRadius=0.07mm|HoleSize=0mm|Usage=FLASHONLY|Rotation=225.000|XOffset=0mm|YOffset=0mm|HoleType=Round|Shape=RoundedRectangle|*
%AMROUNDEDRECTD37*
21,1,1.5600,0.1400,0,0,225.0*
21,1,1.4200,0.2800,0,0,225.0*
1,1,0.1400,-0.5515,-0.4526*
1,1,0.1400,0.4526,0.5515*
1,1,0.1400,0.5515,0.4526*
1,1,0.1400,-0.4526,-0.5515*
%
%ADD37ROUNDEDRECTD37*%
%ADD38R,2.0000X4.0000*%
%ADD39R,3.3000X0.9000*%
%ADD40R,0.5000X0.5000*%
%ADD41R,8.5000X10.6000*%
%ADD42R,1.8000X1.7000*%
G04:AMPARAMS|DCode=43|XSize=1mm|YSize=1.7mm|CornerRadius=0.125mm|HoleSize=0mm|Usage=FLASHONLY|Rotation=225.000|XOffset=0mm|YOffset=0mm|HoleType=Round|Shape=RoundedRectangle|*
%AMROUNDEDRECTD43*
21,1,1.0000,1.4500,0,0,225.0*
21,1,0.7500,1.7000,0,0,225.0*
1,1,0.2500,-0.7778,0.2475*
1,1,0.2500,-0.2475,0.7778*
1,1,0.2500,0.7778,-0.2475*
1,1,0.2500,0.2475,-0.7778*
%
%ADD43ROUNDEDRECTD43*%
%ADD44R,0.5000X0.5000*%
G36*
X108950Y53950D02*
X95850D01*
Y66950D01*
X108950D01*
Y53950D01*
D02*
G37*
G36*
X86650D02*
X73550D01*
Y66950D01*
X86650D01*
Y53950D01*
D02*
G37*
G36*
X108950Y34850D02*
X95850D01*
Y47850D01*
X108950D01*
Y34850D01*
D02*
G37*
G36*
X86650D02*
X73550D01*
Y47850D01*
X86650D01*
Y34850D01*
D02*
G37*
G36*
X108950Y15750D02*
X95850D01*
Y28750D01*
X108950D01*
Y15750D01*
D02*
G37*
G36*
X86650D02*
X73550D01*
Y28750D01*
X86650D01*
Y15750D01*
D02*
G37*
G36*
X153550Y53950D02*
X140450D01*
Y66950D01*
X153550D01*
Y53950D01*
D02*
G37*
G36*
X131250D02*
X118150D01*
Y66950D01*
X131250D01*
Y53950D01*
D02*
G37*
G36*
X153550Y34850D02*
X140450D01*
Y47850D01*
X153550D01*
Y34850D01*
D02*
G37*
G36*
X131250Y34850D02*
X118150D01*
Y47850D01*
X131250D01*
Y34850D01*
D02*
G37*
G36*
X153550Y15750D02*
X140450D01*
Y28750D01*
X153550D01*
Y15750D01*
D02*
G37*
G36*
X131250D02*
X118150D01*
Y28750D01*
X131250D01*
Y15750D01*
D02*
G37*
G36*
X389500Y870000D02*
X377500D01*
Y876000D01*
X383500Y882000D01*
X389500D01*
Y870000D01*
D02*
G37*
G36*
X153550Y111250D02*
X140450D01*
Y124250D01*
X153550D01*
Y111250D01*
D02*
G37*
G36*
X131250D02*
X118150D01*
Y124250D01*
X131250D01*
Y111250D01*
D02*
G37*
G36*
X108950D02*
X95850D01*
Y124250D01*
X108950D01*
Y111250D01*
D02*
G37*
G36*
X86650D02*
X73550D01*
Y124250D01*
X86650D01*
Y111250D01*
D02*
G37*
G36*
X153550Y92150D02*
X140450D01*
Y105150D01*
X153550D01*
Y92150D01*
D02*
G37*
G36*
X131250D02*
X118150D01*
Y105150D01*
X131250D01*
Y92150D01*
D02*
G37*
G36*
X108950D02*
X95850D01*
Y105150D01*
X108950D01*
Y92150D01*
D02*
G37*
G36*
X86650D02*
X73550D01*
Y105150D01*
X86650D01*
Y92150D01*
D02*
G37*
G36*
X153550Y73050D02*
X140450D01*
Y86050D01*
X153550D01*
Y73050D01*
D02*
G37*
G36*
X131250D02*
X118150D01*
Y86050D01*
X131250D01*
Y73050D01*
D02*
G37*
G36*
X108950D02*
X95850D01*
Y86050D01*
X108950D01*
Y73050D01*
D02*
G37*
G36*
X86650D02*
X73550D01*
Y86050D01*
X86650D01*
Y73050D01*
D02*
G37*
D18*
X349000Y789500D02*
D03*
X340500D02*
D03*
X357500D02*
D03*
X366000D02*
D03*
X374500D02*
D03*
X383000D02*
D03*
X391500D02*
D03*
X400000D02*
D03*
X408500D02*
D03*
X425500D02*
D03*
X442500D02*
D03*
X451000D02*
D03*
X459500D02*
D03*
X340500Y929500D02*
D03*
X366000D02*
D03*
X374500D02*
D03*
X349000D02*
D03*
X357500D02*
D03*
X383000D02*
D03*
X391500D02*
D03*
X425500D02*
D03*
X400000D02*
D03*
X417000D02*
D03*
X408500D02*
D03*
X451000D02*
D03*
X434000D02*
D03*
X442500D02*
D03*
X459500D02*
D03*
X434000Y789500D02*
D03*
X417000D02*
D03*
D19*
X330000Y817000D02*
D03*
Y825500D02*
D03*
X470000Y876500D02*
D03*
Y868000D02*
D03*
Y919000D02*
D03*
Y910500D02*
D03*
X330000Y893500D02*
D03*
Y885000D02*
D03*
Y876500D02*
D03*
Y868000D02*
D03*
Y859500D02*
D03*
Y851000D02*
D03*
Y842500D02*
D03*
Y834000D02*
D03*
Y808500D02*
D03*
Y800000D02*
D03*
X470000Y842500D02*
D03*
Y851000D02*
D03*
Y859500D02*
D03*
Y885000D02*
D03*
X330000Y919000D02*
D03*
Y910500D02*
D03*
X470000Y902000D02*
D03*
Y893500D02*
D03*
Y834000D02*
D03*
Y817000D02*
D03*
Y800000D02*
D03*
Y808500D02*
D03*
Y825500D02*
D03*
X330000Y902000D02*
D03*
D20*
Y789500D02*
D03*
Y929500D02*
D03*
X470000D02*
D03*
Y789500D02*
D03*
D21*
X383500Y859500D02*
D03*
Y843000D02*
D03*
X400000Y859500D02*
D03*
Y876000D02*
D03*
Y843000D02*
D03*
X416500D02*
D03*
Y876000D02*
D03*
Y859500D02*
D03*
D22*
X538550Y687550D02*
D03*
Y649450D02*
D03*
X591950Y674850D02*
D03*
X538550Y662150D02*
D03*
X538550Y674850D02*
D03*
X591950Y687550D02*
D03*
X591950Y649450D02*
D03*
X591950Y662150D02*
D03*
X347950Y667700D02*
D03*
X294550Y680400D02*
D03*
Y667700D02*
D03*
X347950Y693100D02*
D03*
Y680400D02*
D03*
X294550Y693100D02*
D03*
Y655000D02*
D03*
X347950D02*
D03*
D23*
X424200Y644000D02*
D03*
X544000Y890500D02*
D03*
X295000Y915500D02*
D03*
X498000Y890500D02*
D03*
X419700Y701000D02*
D03*
X869000Y682500D02*
D03*
X368000Y94500D02*
D03*
X310000Y272500D02*
D03*
X368000Y32500D02*
D03*
X308000Y842000D02*
D03*
X515900Y622100D02*
D03*
X843000Y721500D02*
D03*
X424200Y663000D02*
D03*
X310000Y291500D02*
D03*
X308250Y784500D02*
D03*
X498000Y909500D02*
D03*
X544000D02*
D03*
X419700Y720000D02*
D03*
X515900Y641100D02*
D03*
X368000Y51500D02*
D03*
Y75500D02*
D03*
X308250Y803500D02*
D03*
X308000Y823000D02*
D03*
X869000Y701500D02*
D03*
X843000Y702500D02*
D03*
X295000Y934500D02*
D03*
D24*
X246900Y907550D02*
D03*
X201100D02*
D03*
X224000D02*
D03*
D25*
X551500Y65000D02*
D03*
X622500D02*
D03*
D26*
X570570Y163000D02*
D03*
X864570Y826000D02*
D03*
X864570Y798000D02*
D03*
X396330Y657900D02*
D03*
X593430Y163000D02*
D03*
X870570Y653000D02*
D03*
X887430Y826000D02*
D03*
Y798000D02*
D03*
X373470Y657900D02*
D03*
X893430Y653000D02*
D03*
D27*
X568500Y128000D02*
D03*
X839500Y909250D02*
D03*
Y881000D02*
D03*
Y853000D02*
D03*
Y825000D02*
D03*
X277500Y975000D02*
D03*
X348600Y632700D02*
D03*
X538500Y529000D02*
D03*
X627200Y128200D02*
D03*
X881500Y854000D02*
D03*
X858500Y909250D02*
D03*
X862500Y854000D02*
D03*
X820500Y853000D02*
D03*
Y825000D02*
D03*
X858500Y881000D02*
D03*
X519500Y529000D02*
D03*
X329600Y632700D02*
D03*
X587500Y128000D02*
D03*
X608200Y128200D02*
D03*
X296500Y975000D02*
D03*
D28*
X507530Y81000D02*
D03*
X408470D02*
D03*
D29*
X982450Y679000D02*
D03*
D30*
X915550Y656100D02*
D03*
X915550Y679000D02*
D03*
X915550Y701900D02*
D03*
D31*
X224000Y974450D02*
D03*
D32*
X375700Y709300D02*
D03*
X395700Y718800D02*
D03*
Y699800D02*
D03*
D33*
X227850Y95400D02*
D03*
Y44600D02*
D03*
D34*
X893000Y680570D02*
D03*
X368000Y120570D02*
D03*
Y143430D02*
D03*
X893000Y703430D02*
D03*
D35*
X466436Y554436D02*
D03*
X526918Y433918D02*
D03*
X448182Y575482D02*
D03*
X482600Y570600D02*
D03*
X543082Y450082D02*
D03*
X432018Y559318D02*
D03*
D36*
X499880Y436863D02*
D03*
X377126Y474764D02*
D03*
X380662Y478299D02*
D03*
X496345Y433327D02*
D03*
X492809Y429792D02*
D03*
X482202Y419185D02*
D03*
X478667Y415650D02*
D03*
X475131Y412114D02*
D03*
X471596Y408579D02*
D03*
X468060Y405043D02*
D03*
X457454Y394436D02*
D03*
X394804Y492441D02*
D03*
X398340Y495977D02*
D03*
X401875Y499513D02*
D03*
X405411Y503048D02*
D03*
X408946Y506584D02*
D03*
X412482Y510119D02*
D03*
X416017Y513655D02*
D03*
X446847Y383830D02*
D03*
X366520Y464157D02*
D03*
X464525Y401508D02*
D03*
X370055Y467693D02*
D03*
X384198Y481835D02*
D03*
X460989Y397972D02*
D03*
X373591Y471228D02*
D03*
X453918Y390901D02*
D03*
X387733Y485370D02*
D03*
X450383Y387365D02*
D03*
X391269Y488906D02*
D03*
X489274Y426256D02*
D03*
X485738Y422721D02*
D03*
X419553Y517190D02*
D03*
D37*
Y383830D02*
D03*
X373591Y429792D02*
D03*
X446847Y517190D02*
D03*
X416017Y387365D02*
D03*
X370055Y433327D02*
D03*
X450383Y513655D02*
D03*
X499880Y464157D02*
D03*
X464525Y499512D02*
D03*
X468060Y495977D02*
D03*
X412482Y390901D02*
D03*
X408946Y394436D02*
D03*
X405411Y397972D02*
D03*
X394804Y408579D02*
D03*
X391269Y412114D02*
D03*
X377126Y426256D02*
D03*
X453918Y510119D02*
D03*
X457454Y506584D02*
D03*
X460989Y503048D02*
D03*
X471596Y492441D02*
D03*
X475131Y488906D02*
D03*
X478667Y485370D02*
D03*
X482202Y481835D02*
D03*
X485738Y478299D02*
D03*
X489274Y474764D02*
D03*
X492809Y471228D02*
D03*
X496345Y467693D02*
D03*
X387733Y415650D02*
D03*
X384198Y419185D02*
D03*
X401875Y401507D02*
D03*
X366520Y436863D02*
D03*
X398340Y405043D02*
D03*
X380662Y422721D02*
D03*
D38*
X302000Y35500D02*
D03*
Y106500D02*
D03*
D39*
X325000Y159000D02*
D03*
Y227000D02*
D03*
Y193000D02*
D03*
Y210000D02*
D03*
Y176000D02*
D03*
D40*
X125750Y186750D02*
D03*
Y164750D02*
D03*
D41*
X219000Y193000D02*
D03*
D42*
X414500Y192000D02*
D03*
X373500D02*
D03*
D43*
X485218Y346468D02*
D03*
X452783Y352033D02*
D03*
X466217Y365467D02*
D03*
X471782Y333032D02*
D03*
D44*
X870000Y534000D02*
D03*
X892000D02*
D03*
M02*
