G04*
G04 #@! TF.GenerationSoftware,Altium Limited,Altium Designer,25.7.1 (20)*
G04*
G04 Layer_Color=32768*
%FSLAX25Y25*%
%MOIN*%
G70*
G04*
G04 #@! TF.SameCoordinates,69DFDAC3-22A4-47A1-A04F-D62CACA854CE*
G04*
G04*
G04 #@! TF.FilePolarity,Positive*
G04*
G01*
G75*
%ADD169C,0.00394*%
%ADD172C,0.00197*%
D169*
X274606Y324803D02*
Y328740D01*
X272638Y326772D02*
X276575D01*
D172*
X318209D02*
G03*
X318209Y326772I-43602J0D01*
G01*
X141634Y313386D02*
Y417717D01*
X218406D01*
Y313386D02*
Y417717D01*
X141634Y313386D02*
X218406D01*
X208268Y30512D02*
X213779Y30512D01*
Y36516D01*
X220177Y42913D01*
X248425D01*
Y30512D02*
Y42913D01*
Y30512D02*
X253937Y30512D01*
Y20669D02*
Y30512D01*
X248425Y20669D02*
X253937Y20669D01*
X248425Y8268D02*
Y20669D01*
X220177Y8268D02*
X248425D01*
X213779Y14665D02*
X220177Y8268D01*
X213779Y14665D02*
Y20669D01*
X208268Y20669D02*
X213779Y20669D01*
X208268Y20669D02*
Y30512D01*
X76575Y331299D02*
X110039D01*
Y305728D02*
Y331299D01*
X76575Y305728D02*
X110039D01*
X76575D02*
Y331299D01*
X390354Y253534D02*
Y281112D01*
X356890Y253534D02*
X390354D01*
X356890D02*
Y281112D01*
X390354D01*
X34488Y300201D02*
X88622D01*
X34488D02*
Y313980D01*
X4961D02*
X34488D01*
X4961Y300201D02*
Y313980D01*
X-57047Y300201D02*
X4961D01*
X-57047Y146658D02*
Y300201D01*
Y146658D02*
X4961D01*
Y132878D02*
Y146658D01*
Y132878D02*
X34488D01*
Y146658D01*
X88622D01*
Y300201D01*
X135630Y59646D02*
Y92323D01*
X114390Y59646D02*
X135630D01*
X114390Y53937D02*
X114390Y59646D01*
X68307Y53937D02*
X114390D01*
X68307D02*
Y98032D01*
X114390Y98032D01*
Y92323D02*
Y98032D01*
Y92323D02*
X135630Y92323D01*
X262000Y128047D02*
X273969D01*
X273969Y16079D02*
X273969Y128047D01*
X262000Y16079D02*
X273969D01*
X262000Y128047D02*
X262000Y16079D01*
X199173Y241114D02*
X199173Y262768D01*
X228386Y241114D02*
X228386Y262768D01*
X199173Y262768D02*
X228386Y262768D01*
X199173Y241114D02*
X228386Y241114D01*
X111870Y254547D02*
Y276201D01*
X141083Y254547D02*
Y276201D01*
X111870D02*
X141083D01*
X111870Y254547D02*
X141083D01*
X244882Y358268D02*
Y391732D01*
X219311Y358268D02*
X244882D01*
X219311Y391732D02*
X219311Y358268D01*
X219311Y391732D02*
X244882D01*
X74400Y353740D02*
Y387205D01*
Y353740D02*
X101978D01*
Y387205D01*
X74400D02*
X101978D01*
X210852Y137010D02*
X228933Y118929D01*
X187189Y113347D02*
X210852Y137010D01*
X187189Y113347D02*
X205270Y95266D01*
X228933Y118929D01*
X6988Y58858D02*
Y76575D01*
Y58858D02*
X41831D01*
Y76575D01*
X6988D02*
X41831D01*
X145158Y272559D02*
X158543D01*
X145158D02*
Y285945D01*
X158543D01*
Y272559D02*
Y285945D01*
X26221Y4075D02*
Y51043D01*
X74803D01*
Y42638D02*
Y51043D01*
Y42638D02*
X98189Y42638D01*
Y12480D02*
Y42638D01*
X74803Y12480D02*
X98189Y12480D01*
X74803Y4075D02*
Y12480D01*
X26221Y4075D02*
X74803D01*
X112657Y100512D02*
X112657Y121496D01*
X73169D02*
X112657D01*
X73169D02*
X73169Y100512D01*
X112657D01*
X113976Y50787D02*
X123819D01*
X113976Y45276D02*
X113976Y50787D01*
X107972Y45276D02*
X113976D01*
X101575Y38878D02*
X107972Y45276D01*
X101575Y10630D02*
Y38878D01*
Y10630D02*
X113976D01*
X113976Y5118D01*
X123819D01*
X123819Y10630D01*
X136221D01*
Y38878D01*
X129823Y45276D02*
X136221Y38878D01*
X123819Y45276D02*
X129823D01*
X123819Y50787D02*
X123819Y45276D01*
X391831Y231772D02*
X391831Y149803D01*
X353563Y231772D02*
X391831D01*
X353563Y149803D02*
Y231772D01*
Y149803D02*
X391831D01*
X340354Y213681D02*
X353346D01*
Y206791D02*
Y213681D01*
X340354Y206791D02*
X353346D01*
X340354D02*
Y213681D01*
X326673Y296083D02*
Y365965D01*
Y296083D02*
X392028D01*
X326673Y365965D02*
X392028D01*
Y309469D02*
Y365965D01*
Y309469D02*
X393012D01*
Y303169D02*
Y309469D01*
X392028Y303169D02*
X393012D01*
X392028Y296083D02*
Y303169D01*
X170551Y140006D02*
X207911Y177366D01*
X133192D02*
X170551Y214726D01*
X207911Y177366D01*
X133192D02*
X170551Y140006D01*
X62795Y365059D02*
X69685D01*
Y352067D02*
Y365059D01*
X62795Y352067D02*
X69685D01*
X62795D02*
Y365059D01*
X55158Y367717D02*
X71457D01*
X55158D02*
Y374134D01*
X40118D02*
X55158D01*
X40118Y367717D02*
Y374134D01*
X5709Y367717D02*
X40118D01*
X5709Y318110D02*
Y367717D01*
Y318110D02*
X40118D01*
Y311693D02*
Y318110D01*
Y311693D02*
X55158D01*
Y318110D01*
X71457D01*
Y367717D01*
X57555Y83980D02*
X63264D01*
X57555Y78665D02*
Y83980D01*
X37476Y78665D02*
X57555D01*
X37476D02*
Y83980D01*
X4209D02*
X37476D01*
X4209D02*
Y121382D01*
X63264D01*
Y111933D02*
Y121382D01*
Y83980D02*
Y93823D01*
X65429D01*
Y111933D01*
X63264D02*
X65429D01*
X120927Y191565D02*
X124824Y187668D01*
X115916Y186554D02*
X120927Y191565D01*
X108956Y193514D02*
X115916Y186554D01*
X108956Y193514D02*
X113967Y198525D01*
X110069Y202422D02*
X113967Y198525D01*
X110069Y202422D02*
X143198Y235551D01*
X147095Y231653D01*
X152106Y236664D01*
X159066Y229704D01*
X154055Y224694D02*
X159066Y229704D01*
X154055Y224694D02*
X157952Y220796D01*
X124824Y187668D02*
X157952Y220796D01*
X52953Y62697D02*
Y75689D01*
X46063Y62697D02*
X52953D01*
X46063D02*
Y75689D01*
X52953D01*
X380327Y16079D02*
X380327Y128047D01*
X380327Y16079D02*
X392295D01*
X392295Y128047D02*
X392295Y16079D01*
X380327Y128047D02*
X392295D01*
X69587Y320669D02*
Y333661D01*
X62697D02*
X69587D01*
X62697Y320669D02*
Y333661D01*
Y320669D02*
X69587D01*
X55020Y351969D02*
Y364961D01*
Y351969D02*
X61910D01*
Y364961D01*
X55020D02*
X61910D01*
X63346Y155807D02*
X63346Y170965D01*
X63346Y155807D02*
X76811Y155807D01*
X76811Y170965D01*
X63346Y170965D02*
X76811Y170965D01*
M02*
