G04*
G04 #@! TF.GenerationSoftware,Altium Limited,Altium Designer,25.7.1 (20)*
G04*
G04 Layer_Color=255*
%FSLAX25Y25*%
%MOIN*%
G70*
G04*
G04 #@! TF.SameCoordinates,69DFDAC3-22A4-47A1-A04F-D62CACA854CE*
G04*
G04*
G04 #@! TF.FilePolarity,Positive*
G04*
G01*
G75*
%ADD18R,0.05906X0.03543*%
%ADD19R,0.03543X0.05906*%
%ADD20R,0.03543X0.03543*%
%ADD21R,0.15748X0.07874*%
G04:AMPARAMS|DCode=22|XSize=51.58mil|YSize=127.56mil|CornerRadius=3.87mil|HoleSize=0mil|Usage=FLASHONLY|Rotation=0.000|XOffset=0mil|YOffset=0mil|HoleType=Round|Shape=RoundedRectangle|*
%AMROUNDEDRECTD22*
21,1,0.05158,0.11982,0,0,0.0*
21,1,0.04384,0.12756,0,0,0.0*
1,1,0.00774,0.02192,-0.05991*
1,1,0.00774,-0.02192,-0.05991*
1,1,0.00774,-0.02192,0.05991*
1,1,0.00774,0.02192,0.05991*
%
%ADD22ROUNDEDRECTD22*%
G04:AMPARAMS|DCode=23|XSize=51.58mil|YSize=36.61mil|CornerRadius=2.75mil|HoleSize=0mil|Usage=FLASHONLY|Rotation=0.000|XOffset=0mil|YOffset=0mil|HoleType=Round|Shape=RoundedRectangle|*
%AMROUNDEDRECTD23*
21,1,0.05158,0.03112,0,0,0.0*
21,1,0.04608,0.03661,0,0,0.0*
1,1,0.00549,0.02304,-0.01556*
1,1,0.00549,-0.02304,-0.01556*
1,1,0.00549,-0.02304,0.01556*
1,1,0.00549,0.02304,0.01556*
%
%ADD23ROUNDEDRECTD23*%
%ADD24R,0.15000X0.08189*%
%ADD26R,0.07874X0.15748*%
G04:AMPARAMS|DCode=29|XSize=39.37mil|YSize=66.93mil|CornerRadius=4.92mil|HoleSize=0mil|Usage=FLASHONLY|Rotation=90.000|XOffset=0mil|YOffset=0mil|HoleType=Round|Shape=RoundedRectangle|*
%AMROUNDEDRECTD29*
21,1,0.03937,0.05709,0,0,90.0*
21,1,0.02953,0.06693,0,0,90.0*
1,1,0.00984,0.02854,0.01476*
1,1,0.00984,0.02854,-0.01476*
1,1,0.00984,-0.02854,-0.01476*
1,1,0.00984,-0.02854,0.01476*
%
%ADD29ROUNDEDRECTD29*%
G04:AMPARAMS|DCode=30|XSize=55.12mil|YSize=66.93mil|CornerRadius=6.89mil|HoleSize=0mil|Usage=FLASHONLY|Rotation=270.000|XOffset=0mil|YOffset=0mil|HoleType=Round|Shape=RoundedRectangle|*
%AMROUNDEDRECTD30*
21,1,0.05512,0.05315,0,0,270.0*
21,1,0.04134,0.06693,0,0,270.0*
1,1,0.01378,-0.02657,-0.02067*
1,1,0.01378,-0.02657,0.02067*
1,1,0.01378,0.02657,0.02067*
1,1,0.01378,0.02657,-0.02067*
%
%ADD30ROUNDEDRECTD30*%
%ADD31R,0.07087X0.06693*%
G04:AMPARAMS|DCode=32|XSize=61.42mil|YSize=11.02mil|CornerRadius=2.76mil|HoleSize=0mil|Usage=FLASHONLY|Rotation=225.000|XOffset=0mil|YOffset=0mil|HoleType=Round|Shape=RoundedRectangle|*
%AMROUNDEDRECTD32*
21,1,0.06142,0.00551,0,0,225.0*
21,1,0.05591,0.01102,0,0,225.0*
1,1,0.00551,-0.02171,-0.01782*
1,1,0.00551,0.01782,0.02171*
1,1,0.00551,0.02171,0.01782*
1,1,0.00551,-0.01782,-0.02171*
%
%ADD32ROUNDEDRECTD32*%
G04:AMPARAMS|DCode=33|XSize=51.58mil|YSize=36.61mil|CornerRadius=2.75mil|HoleSize=0mil|Usage=FLASHONLY|Rotation=90.000|XOffset=0mil|YOffset=0mil|HoleType=Round|Shape=RoundedRectangle|*
%AMROUNDEDRECTD33*
21,1,0.05158,0.03112,0,0,90.0*
21,1,0.04608,0.03661,0,0,90.0*
1,1,0.00549,0.01556,0.02304*
1,1,0.00549,0.01556,-0.02304*
1,1,0.00549,-0.01556,-0.02304*
1,1,0.00549,-0.01556,0.02304*
%
%ADD33ROUNDEDRECTD33*%
G04:AMPARAMS|DCode=34|XSize=39.37mil|YSize=66.93mil|CornerRadius=4.92mil|HoleSize=0mil|Usage=FLASHONLY|Rotation=180.000|XOffset=0mil|YOffset=0mil|HoleType=Round|Shape=RoundedRectangle|*
%AMROUNDEDRECTD34*
21,1,0.03937,0.05709,0,0,180.0*
21,1,0.02953,0.06693,0,0,180.0*
1,1,0.00984,-0.01476,0.02854*
1,1,0.00984,0.01476,0.02854*
1,1,0.00984,0.01476,-0.02854*
1,1,0.00984,-0.01476,-0.02854*
%
%ADD34ROUNDEDRECTD34*%
G04:AMPARAMS|DCode=35|XSize=62.21mil|YSize=23.62mil|CornerRadius=2.95mil|HoleSize=0mil|Usage=FLASHONLY|Rotation=180.000|XOffset=0mil|YOffset=0mil|HoleType=Round|Shape=RoundedRectangle|*
%AMROUNDEDRECTD35*
21,1,0.06221,0.01772,0,0,180.0*
21,1,0.05630,0.02362,0,0,180.0*
1,1,0.00591,-0.02815,0.00886*
1,1,0.00591,0.02815,0.00886*
1,1,0.00591,0.02815,-0.00886*
1,1,0.00591,-0.02815,-0.00886*
%
%ADD35ROUNDEDRECTD35*%
G04:AMPARAMS|DCode=36|XSize=61.42mil|YSize=11.02mil|CornerRadius=2.76mil|HoleSize=0mil|Usage=FLASHONLY|Rotation=135.000|XOffset=0mil|YOffset=0mil|HoleType=Round|Shape=RoundedRectangle|*
%AMROUNDEDRECTD36*
21,1,0.06142,0.00551,0,0,135.0*
21,1,0.05591,0.01102,0,0,135.0*
1,1,0.00551,-0.01782,0.02171*
1,1,0.00551,0.02171,-0.01782*
1,1,0.00551,0.01782,-0.02171*
1,1,0.00551,-0.02171,0.01782*
%
%ADD36ROUNDEDRECTD36*%
G04:AMPARAMS|DCode=37|XSize=55.12mil|YSize=66.93mil|CornerRadius=6.89mil|HoleSize=0mil|Usage=FLASHONLY|Rotation=180.000|XOffset=0mil|YOffset=0mil|HoleType=Round|Shape=RoundedRectangle|*
%AMROUNDEDRECTD37*
21,1,0.05512,0.05315,0,0,180.0*
21,1,0.04134,0.06693,0,0,180.0*
1,1,0.01378,-0.02067,0.02657*
1,1,0.01378,0.02067,0.02657*
1,1,0.01378,0.02067,-0.02657*
1,1,0.01378,-0.02067,-0.02657*
%
%ADD37ROUNDEDRECTD37*%
G04:AMPARAMS|DCode=38|XSize=55.12mil|YSize=66.93mil|CornerRadius=6.89mil|HoleSize=0mil|Usage=FLASHONLY|Rotation=45.000|XOffset=0mil|YOffset=0mil|HoleType=Round|Shape=RoundedRectangle|*
%AMROUNDEDRECTD38*
21,1,0.05512,0.05315,0,0,45.0*
21,1,0.04134,0.06693,0,0,45.0*
1,1,0.01378,0.03341,-0.00418*
1,1,0.01378,0.00418,-0.03341*
1,1,0.01378,-0.03341,0.00418*
1,1,0.01378,-0.00418,0.03341*
%
%ADD38ROUNDEDRECTD38*%
G04:AMPARAMS|DCode=39|XSize=39.37mil|YSize=66.93mil|CornerRadius=4.92mil|HoleSize=0mil|Usage=FLASHONLY|Rotation=225.000|XOffset=0mil|YOffset=0mil|HoleType=Round|Shape=RoundedRectangle|*
%AMROUNDEDRECTD39*
21,1,0.03937,0.05709,0,0,225.0*
21,1,0.02953,0.06693,0,0,225.0*
1,1,0.00984,-0.03062,0.00974*
1,1,0.00984,-0.00974,0.03062*
1,1,0.00984,0.03062,-0.00974*
1,1,0.00984,0.00974,-0.03062*
%
%ADD39ROUNDEDRECTD39*%
G04:AMPARAMS|DCode=40|XSize=55.12mil|YSize=66.93mil|CornerRadius=6.89mil|HoleSize=0mil|Usage=FLASHONLY|Rotation=135.000|XOffset=0mil|YOffset=0mil|HoleType=Round|Shape=RoundedRectangle|*
%AMROUNDEDRECTD40*
21,1,0.05512,0.05315,0,0,135.0*
21,1,0.04134,0.06693,0,0,135.0*
1,1,0.01378,0.00418,0.03341*
1,1,0.01378,0.03341,0.00418*
1,1,0.01378,-0.00418,-0.03341*
1,1,0.01378,-0.03341,-0.00418*
%
%ADD40ROUNDEDRECTD40*%
%ADD42R,0.11400X0.21300*%
%ADD43R,0.03543X0.03150*%
G04:AMPARAMS|DCode=44|XSize=51.58mil|YSize=127.56mil|CornerRadius=3.87mil|HoleSize=0mil|Usage=FLASHONLY|Rotation=90.000|XOffset=0mil|YOffset=0mil|HoleType=Round|Shape=RoundedRectangle|*
%AMROUNDEDRECTD44*
21,1,0.05158,0.11982,0,0,90.0*
21,1,0.04384,0.12756,0,0,90.0*
1,1,0.00774,0.05991,0.02192*
1,1,0.00774,0.05991,-0.02192*
1,1,0.00774,-0.05991,-0.02192*
1,1,0.00774,-0.05991,0.02192*
%
%ADD44ROUNDEDRECTD44*%
%ADD91C,0.05709*%
%ADD99C,0.05394*%
%ADD100R,0.02362X0.02362*%
%ADD101R,0.33858X0.42126*%
%ADD102R,0.13386X0.03937*%
%ADD103R,0.02362X0.02362*%
%ADD104R,0.35000X0.45000*%
%ADD119C,0.07087*%
%ADD120C,0.05898*%
%ADD121R,0.05898X0.05898*%
%ADD122O,0.17717X0.08858*%
%ADD123O,0.09843X0.19685*%
%ADD124C,0.07677*%
%ADD125C,0.13055*%
%ADD126C,0.05543*%
%ADD127P,0.08341X4X270.0*%
%ADD128C,0.06200*%
%ADD129O,0.10000X0.04724*%
%ADD130R,0.05898X0.05898*%
%ADD131R,0.07677X0.07677*%
%ADD132C,0.12992*%
%ADD133C,0.04795*%
%ADD134O,0.08858X0.17717*%
%ADD135C,0.05315*%
%ADD136R,0.04795X0.04795*%
%ADD137R,0.05394X0.05394*%
%ADD138R,0.10000X0.04724*%
%ADD139C,0.15748*%
%ADD140R,0.05543X0.05543*%
%ADD141C,0.03740*%
D18*
X145571Y382244D02*
D03*
Y377244D02*
D03*
Y372244D02*
D03*
Y367244D02*
D03*
Y362244D02*
D03*
Y357244D02*
D03*
Y352244D02*
D03*
Y347244D02*
D03*
Y342244D02*
D03*
Y337244D02*
D03*
Y332244D02*
D03*
Y327244D02*
D03*
Y322244D02*
D03*
X214469D02*
D03*
Y327244D02*
D03*
Y332244D02*
D03*
Y337244D02*
D03*
Y342244D02*
D03*
Y347244D02*
D03*
Y352244D02*
D03*
Y357244D02*
D03*
Y362244D02*
D03*
Y367244D02*
D03*
Y372244D02*
D03*
Y377244D02*
D03*
Y382244D02*
D03*
Y387244D02*
D03*
X145571D02*
D03*
D19*
X152520Y317323D02*
D03*
X157520D02*
D03*
X162520D02*
D03*
X167520D02*
D03*
X172520D02*
D03*
X177520D02*
D03*
X182520D02*
D03*
X187520D02*
D03*
X192520D02*
D03*
X197520D02*
D03*
X202520D02*
D03*
X207520D02*
D03*
D20*
X179626Y362362D02*
D03*
Y356850D02*
D03*
X174114Y362362D02*
D03*
Y356850D02*
D03*
X179626Y351339D02*
D03*
X174114D02*
D03*
X168602Y362362D02*
D03*
Y356850D02*
D03*
Y351339D02*
D03*
D21*
X217126Y25591D02*
D03*
X245079D02*
D03*
D22*
X386791Y267323D02*
D03*
D23*
X360453Y258307D02*
D03*
X360453Y267323D02*
D03*
X360453Y276339D02*
D03*
D24*
X89705Y17559D02*
D03*
Y37559D02*
D03*
D26*
X118898Y13976D02*
D03*
Y41929D02*
D03*
D29*
X144882Y12795D02*
D03*
X122047Y107283D02*
D03*
X121653Y346850D02*
D03*
X331890Y284055D02*
D03*
X342126Y268701D02*
D03*
X144882Y37205D02*
D03*
X122047Y114764D02*
D03*
X165236Y275984D02*
D03*
X116142Y360433D02*
D03*
X121752Y324213D02*
D03*
X116142Y367913D02*
D03*
X165650Y244882D02*
D03*
Y252362D02*
D03*
X165236Y283465D02*
D03*
X144882Y20276D02*
D03*
Y29724D02*
D03*
X121752Y331693D02*
D03*
X121653Y339370D02*
D03*
X342126Y276181D02*
D03*
X331890Y276575D02*
D03*
D30*
X144882Y56468D02*
D03*
X351575Y276941D02*
D03*
Y267941D02*
D03*
X144882Y47469D02*
D03*
D31*
X163189Y75590D02*
D03*
X147047D02*
D03*
D32*
X145691Y170601D02*
D03*
X163786Y152506D02*
D03*
X177316Y202226D02*
D03*
X165178Y151114D02*
D03*
X147083Y169209D02*
D03*
X175924Y203618D02*
D03*
X154043Y162250D02*
D03*
X151259Y165033D02*
D03*
X155435Y160858D02*
D03*
X152651Y163642D02*
D03*
X185668Y193875D02*
D03*
X188452Y191091D02*
D03*
X187060Y192483D02*
D03*
X144299Y171993D02*
D03*
X184276Y195266D02*
D03*
X182884Y196659D02*
D03*
X180100Y199442D02*
D03*
X178708Y200834D02*
D03*
X181492Y198050D02*
D03*
X196803Y182739D02*
D03*
X162394Y153898D02*
D03*
X161003Y155290D02*
D03*
X159610Y156682D02*
D03*
X148475Y167817D02*
D03*
X189843Y189699D02*
D03*
X191235Y188307D02*
D03*
X192627Y186915D02*
D03*
X194019Y185523D02*
D03*
X195411Y184131D02*
D03*
X158219Y158074D02*
D03*
X156827Y159466D02*
D03*
X149867Y166426D02*
D03*
D33*
X79173Y357303D02*
D03*
X88189D02*
D03*
X97205D02*
D03*
D34*
X109252Y383858D02*
D03*
X137244Y249095D02*
D03*
X246929Y50472D02*
D03*
X188583Y239469D02*
D03*
X347047Y336221D02*
D03*
X223819Y50394D02*
D03*
X339567Y336221D02*
D03*
X337992Y357972D02*
D03*
X330512D02*
D03*
Y346850D02*
D03*
Y335827D02*
D03*
Y324803D02*
D03*
X323031Y335827D02*
D03*
X337992Y346850D02*
D03*
X323031Y324803D02*
D03*
X196063Y239469D02*
D03*
X129764Y249095D02*
D03*
X231299Y50394D02*
D03*
X239449Y50472D02*
D03*
X116732Y383858D02*
D03*
D35*
X136988Y262874D02*
D03*
X224291Y249441D02*
D03*
Y254441D02*
D03*
X115965Y262874D02*
D03*
X203268Y249441D02*
D03*
X115965Y267874D02*
D03*
X203268Y254441D02*
D03*
X136988Y257874D02*
D03*
X224291Y244441D02*
D03*
X224291Y259441D02*
D03*
X203268Y244441D02*
D03*
Y259441D02*
D03*
X115965Y257874D02*
D03*
Y272874D02*
D03*
X136988Y267874D02*
D03*
Y272874D02*
D03*
D36*
X149867Y188307D02*
D03*
X195411Y170601D02*
D03*
X148475Y186915D02*
D03*
X196803Y171993D02*
D03*
X144299Y182739D02*
D03*
X189843Y165033D02*
D03*
X154043Y192483D02*
D03*
X191235Y166426D02*
D03*
X151259Y189699D02*
D03*
X187060Y162250D02*
D03*
X152651Y191091D02*
D03*
X147083Y185523D02*
D03*
X145691Y184131D02*
D03*
X188452Y163642D02*
D03*
X155435Y193875D02*
D03*
X180100Y155290D02*
D03*
X165178Y203618D02*
D03*
X194019Y169209D02*
D03*
X185668Y160858D02*
D03*
X184276Y159466D02*
D03*
X156827Y195266D02*
D03*
X158219Y196659D02*
D03*
X159610Y198050D02*
D03*
X161003Y199442D02*
D03*
X162394Y200834D02*
D03*
X163786Y202226D02*
D03*
X175924Y151114D02*
D03*
X182884Y158074D02*
D03*
X181492Y156682D02*
D03*
X178708Y153898D02*
D03*
X177316Y152506D02*
D03*
X192627Y167817D02*
D03*
D37*
X162150Y263976D02*
D03*
X233634Y64173D02*
D03*
X342744Y257087D02*
D03*
X349382Y314173D02*
D03*
Y325197D02*
D03*
X351744Y257087D02*
D03*
X224634Y64173D02*
D03*
X340382Y325197D02*
D03*
X340382Y314173D02*
D03*
X153150Y263976D02*
D03*
D38*
X176450Y226568D02*
D03*
X190000Y224646D02*
D03*
X183636Y218282D02*
D03*
X170086Y220204D02*
D03*
D39*
X191031Y136405D02*
D03*
X219341Y226468D02*
D03*
X214051Y221179D02*
D03*
X178261Y138595D02*
D03*
X183550Y143885D02*
D03*
X185741Y131115D02*
D03*
D40*
X214533Y161746D02*
D03*
X208169Y168110D02*
D03*
D42*
X199815Y31890D02*
D03*
X160815D02*
D03*
D43*
X155787Y275512D02*
D03*
X147913Y279252D02*
D03*
X155787Y282992D02*
D03*
D44*
X88189Y383642D02*
D03*
D91*
X274606Y367126D02*
D03*
Y286417D02*
D03*
D99*
X386311Y82063D02*
D03*
X368347Y190787D02*
D03*
X378346D02*
D03*
X267984Y62063D02*
D03*
X386311D02*
D03*
X267984Y52063D02*
D03*
Y72063D02*
D03*
Y82063D02*
D03*
Y92063D02*
D03*
Y102063D02*
D03*
Y112063D02*
D03*
Y122063D02*
D03*
Y42063D02*
D03*
Y32063D02*
D03*
X378346Y180787D02*
D03*
X368347D02*
D03*
Y170787D02*
D03*
Y200787D02*
D03*
X378346Y200787D02*
D03*
X378346Y210787D02*
D03*
X368347Y210787D02*
D03*
X386311Y122063D02*
D03*
Y112063D02*
D03*
Y102063D02*
D03*
Y92063D02*
D03*
Y72063D02*
D03*
Y52063D02*
D03*
Y32063D02*
D03*
Y42063D02*
D03*
D100*
X49508Y73524D02*
D03*
Y64862D02*
D03*
D101*
X86221Y75984D02*
D03*
D102*
X127953Y89370D02*
D03*
Y75984D02*
D03*
Y69291D02*
D03*
Y82677D02*
D03*
Y62598D02*
D03*
D103*
X342520Y210236D02*
D03*
X351181D02*
D03*
D104*
X44705Y27559D02*
D03*
D119*
X61417Y382677D02*
D03*
X37402Y382283D02*
D03*
X303740Y266732D02*
D03*
X342126Y225590D02*
D03*
X96285Y280930D02*
D03*
D120*
X106102Y309646D02*
D03*
Y327362D02*
D03*
X80512Y309646D02*
D03*
X210838Y131456D02*
D03*
X223228Y387795D02*
D03*
X240945Y362205D02*
D03*
X223228D02*
D03*
X205270Y100833D02*
D03*
X192743Y113361D02*
D03*
D121*
X80512Y327362D02*
D03*
D122*
X47516Y84177D02*
D03*
D123*
X59327Y102681D02*
D03*
D124*
X55158Y182091D02*
D03*
Y193902D02*
D03*
Y264768D02*
D03*
X66969Y205713D02*
D03*
Y229335D02*
D03*
Y193902D02*
D03*
X76811Y247051D02*
D03*
X45315Y176185D02*
D03*
Y199807D02*
D03*
X66969Y241146D02*
D03*
X55158D02*
D03*
X45315Y187996D02*
D03*
X76811Y211618D02*
D03*
Y187996D02*
D03*
Y223429D02*
D03*
Y199807D02*
D03*
X66969Y217524D02*
D03*
Y252957D02*
D03*
X76811Y258862D02*
D03*
Y235240D02*
D03*
X45315Y211618D02*
D03*
X66969Y264768D02*
D03*
X55158Y252957D02*
D03*
X45315Y270673D02*
D03*
Y258862D02*
D03*
X55158Y205713D02*
D03*
Y217524D02*
D03*
X45315Y235240D02*
D03*
Y247051D02*
D03*
X55158Y229335D02*
D03*
X45315Y223429D02*
D03*
X66969Y182091D02*
D03*
X76811Y176185D02*
D03*
D125*
X47638Y319213D02*
D03*
Y366614D02*
D03*
D126*
X58268Y337992D02*
D03*
X66142Y347835D02*
D03*
X58268D02*
D03*
D127*
X223365Y118929D02*
D03*
D128*
X240551Y177795D02*
D03*
X183721Y276713D02*
D03*
X216476Y275354D02*
D03*
X240551Y234409D02*
D03*
X325197Y379429D02*
D03*
X370079Y238189D02*
D03*
X183721Y256713D02*
D03*
X236476Y275354D02*
D03*
X360079Y238189D02*
D03*
X107638Y342126D02*
D03*
X183721Y266713D02*
D03*
X226476Y275354D02*
D03*
X315197Y379429D02*
D03*
X305197D02*
D03*
X172283Y293701D02*
D03*
X140886D02*
D03*
X240551Y187795D02*
D03*
Y197795D02*
D03*
X182283Y293701D02*
D03*
X87638Y342126D02*
D03*
X97638D02*
D03*
X192283Y293701D02*
D03*
X380079Y238189D02*
D03*
X240551Y224410D02*
D03*
Y214409D02*
D03*
X130886Y293701D02*
D03*
X150886D02*
D03*
D129*
X259035Y210925D02*
D03*
X329035Y191240D02*
D03*
X259035Y220768D02*
D03*
X259035Y191240D02*
D03*
Y201083D02*
D03*
X259035Y181398D02*
D03*
X329035Y220768D02*
D03*
Y210925D02*
D03*
X329035Y201083D02*
D03*
D130*
X240945Y387795D02*
D03*
D131*
X76811Y270673D02*
D03*
D132*
X19724Y299217D02*
D03*
Y147642D02*
D03*
D133*
X82913Y111024D02*
D03*
X92913D02*
D03*
D134*
X35827Y101181D02*
D03*
D135*
X14409Y67716D02*
D03*
X34409D02*
D03*
D136*
X102913Y111024D02*
D03*
D137*
X267984Y22063D02*
D03*
X378346Y170787D02*
D03*
X386311Y22063D02*
D03*
D138*
X259035Y230610D02*
D03*
D139*
X264035Y248110D02*
D03*
X324035D02*
D03*
X324036Y163110D02*
D03*
X264035Y163110D02*
D03*
X13638Y14331D02*
D03*
X380035Y136835D02*
D03*
Y379331D02*
D03*
X13638D02*
D03*
D140*
X66142Y337992D02*
D03*
D141*
X375374Y346280D02*
D03*
Y319508D02*
D03*
M02*
