M48
;Layer_Color=9474304
;FILE_FORMAT=2:4
INCH,TZ
;TYPE=PLATED
T01F00S00C0.0118
T02F00S00C0.0280
T03F00S00C0.0354
T04F00S00C0.0390
T05F00S00C0.0394
T07F00S00C0.0402
T08F00S00C0.0420
T09F00S00C0.0433
T10F00S00C0.0512
T11F00S00C0.0906
T12F00S00C0.0984
T13F00S00C0.1299
;TYPE=NON_PLATED
T14F00S00C0.0374
T15F00S00C0.1299
%
T01
X1575Y3346
Y4626
X6299Y5906
X7480Y6299
X8465
X8428Y7210
X7480Y7283
Y8268
X8416Y8219
X9449Y8268
Y7164
Y6299
X6004Y7185
X7432Y9203
X14331Y9528
X14803Y9055
X15472
X16142
X14567Y8268
X14488Y6378
X11890Y2520
X10866Y2402
X16720Y6677
X18307Y6693
X18465Y8071
X17795
X17126
X16614Y8583
X19134Y8071
X19803
X20472
X21142
X21811
X22480
X23150
X23907Y7746
X24459Y7195
X24970Y6683
X25335Y5866
X25551Y5000
Y4331
Y3661
X25591Y2963
Y2313
X25610Y1624
X24689Y4197
X28740Y3543
X31102
Y8268
X28907Y9213
X21063Y9016
X20472Y6693
X32283Y5906
X34646
X35827Y3543
X38189
X37008Y1181
X34646
X32283
X33180Y3543
X35827Y8268
X34646Y10630
X32283
X37008
X36693Y12362
X34137Y13665
X34723Y16534
X33465Y17717
X33858Y24311
X31340Y22441
X31398Y20079
X31340Y17717
X31102Y12992
X29921Y10630
X28898Y10472
X25197Y10630
X22835
X24016Y12992
X23524Y14419
X22559Y14813
X22028Y15807
X23150Y15827
X23573Y16181
X24006Y16565
X24429Y16870
X21407Y18524
X20689Y18337
X20259Y17890
X18906Y17630
X18465Y17283
X17982Y16939
X17638Y16378
X19803Y16024
X19409Y15315
X19587Y12598
X18110Y10630
X18189Y20827
X17759Y21414
X17972Y23465
X16535Y23720
X19488Y24918
X23198Y24826
X24927Y24570
X27559Y24803
X27756Y23130
X27687Y21112
X22126Y23150
X16012Y22520
X16091Y21898
X15657Y21508
X15268Y21098
X14827Y20709
X15185Y20248
X15256Y18110
X15738Y18533
X16240Y18799
X16171Y17343
X13619Y17312
X14183Y16329
X15453Y15059
X15354Y14173
X16260Y13622
X14567Y12992
X14331Y11535
Y10866
Y10197
X13386Y10630
X12756Y9843
X12717Y12480
X12047
X11378
X10709
X10039
X9370
X8701
X7323
X6654
X5984
X5315
X4646
X2638
X1969
X1299
X1280Y16732
X2362Y18012
X1575Y20079
X1083Y22638
X2362
X1575Y24803
X12333Y24695
X15207Y25187
X13406Y14360
X12598Y13878
X13386Y12480
X13858Y12008
X15748Y10630
X10039Y13878
X11024Y15354
X8661
X630Y12480
X1083Y26181
X2362Y26772
X1083Y28150
X3445Y29331
X6201Y28248
X7874Y29134
X9567Y31102
X11378Y31988
X13002Y32451
X15650Y32667
X15217Y33209
X15187Y33780
X12580Y35462
X10551Y35630
X9724Y35000
X8819Y36614
X10699Y37569
X13553Y37362
X14557Y38724
X16014Y37598
Y29931
X14646Y27071
X12687Y26811
Y26250
X11506Y28602
X9646Y26929
X4331Y33071
Y35433
X2756Y34252
X1181Y35433
Y33071
X16575Y32776
X18201Y32451
X18758
X19315
X19872
X20561Y32569
X22411Y32768
Y33538
Y34309
X22431Y35079
X22421Y31998
X22402Y31260
X21850Y30433
X18307Y30177
X16339Y29213
X19902Y28051
Y27392
X19774Y26565
X19488Y25470
X23357Y25365
X25226Y28219
X25605Y28664
X25915Y29114
X26289Y29488
X27559Y29528
X29921
X30906Y28642
X29380Y26929
X29045Y26014
X28583Y25699
X28022Y25659
X28740Y36614
X26378
X20472Y36398
X17963Y36236
Y35134
X16860
Y36236
X17411Y35685
X21447Y38724
X32101Y34414
X32283Y33543
X32323Y32677
X34035Y32500
X33976Y33780
X33780Y34803
X33819Y35640
X36496Y37165
X36624Y33858
X36102Y28937
X34606Y29252
X34577Y28415
X32382Y28937
T02
X21260Y5236
X10291Y11102
X9291
X8291
X15550Y38275
T03
X1441Y6772
X3441
X32904Y19124
X32904Y20108
X32904Y21093
Y22077
X25904
Y21093
X25904Y20108
Y19124
X25904Y18140
Y23061
X6614Y33799
X5827
Y34783
X6614
T04
X20527Y10083
X19274Y11336
X21084Y13146
X22337Y11893
X10610Y30965
Y32736
X8051
Y30965
X22323Y36220
X24094
X24094Y38780
X22323Y38780
T05
X34213Y22559
X9628Y28093
X6142Y38268
X3740Y38228
X30374Y26673
T07
X26798Y2206
Y3206
Y4206
Y5206
X26798Y6206
X26798Y7206
Y8206
Y9206
X38631Y9206
Y8206
Y7206
Y6206
Y5206
Y4206
Y3206
Y2206
Y10206
Y11206
Y12206
X37835Y17079
Y18079
Y19079
X36835
Y18079
Y17079
Y20079
Y21079
X37835Y21079
X37835Y20079
X26798Y12206
Y11206
Y10206
T08
X36008Y23819
X37008
X38008
X24055Y23441
Y22441
Y21441
Y19780
Y18780
Y17780
X15089Y29370
X14089
X13089
X10764Y34213
X9764
X8764
X17228Y29370
X18228
X19228
X18372Y27671
Y26671
Y25671
X21648Y27535
X22648
X23648
X30520Y37943
X31520
X32520
T09
X27461Y28642
Y36713
T10
X4532Y17618
Y18800
Y19981
Y21162
Y22343
Y23524
Y24705
X5516Y24115
X6697
Y25296
X5516
Y22933
X6697
Y21752
X5516
Y20571
Y19390
Y18209
X6697
Y19390
Y20571
X7681Y19981
Y18800
Y17618
Y21162
Y22343
Y23524
Y24705
Y25886
Y27067
X6697Y26477
X5516
X4532Y27067
Y25886
T11
X4764Y31921
Y36661
T12
X32404Y16311
X32404Y24811
X26404
Y16311
T13
X1364Y1433
X38004Y13683
X1364Y37933
X38004
T14
X37537Y31951
Y34628
T15
X1972Y14764
Y29922
M30
