G04*
G04 #@! TF.GenerationSoftware,Altium Limited,Altium Designer,25.7.1 (20)*
G04*
G04 Layer_Color=128*
%FSLAX44Y44*%
%MOMM*%
G71*
G04*
G04 #@! TF.SameCoordinates,E610F868-73EF-4846-AD65-6CABB719E0C8*
G04*
G04*
G04 #@! TF.FilePolarity,Positive*
G04*
G01*
G75*
%ADD13C,0.1270*%
D13*
X461316Y652050D02*
X471984D01*
X466650Y646716D02*
Y657384D01*
X461316Y677450D02*
X471984D01*
X466650Y672116D02*
Y682784D01*
X461316Y702850D02*
X471984D01*
X466650Y697516D02*
Y708184D01*
X217266Y869000D02*
X227934D01*
X222600Y863666D02*
Y874334D01*
X242666Y869000D02*
X253334D01*
X248000Y863666D02*
Y874334D01*
X268066Y869000D02*
X278734D01*
X273400Y863666D02*
Y874334D01*
X163500Y858500D02*
X172500D01*
X168000Y854000D02*
Y863000D01*
X483066Y746000D02*
X493734D01*
X488400Y740666D02*
Y751334D01*
X256000Y725000D02*
X266000D01*
X261000Y720000D02*
Y730000D01*
X207050Y282000D02*
X214150D01*
X210600Y278450D02*
Y285550D01*
X909266Y605000D02*
X919934D01*
X914600Y599666D02*
Y610334D01*
X108600Y567510D02*
X121600D01*
X115100Y561010D02*
Y574010D01*
X133600Y582510D02*
X146600D01*
X140100Y576010D02*
Y589010D01*
X108600Y627510D02*
X121600D01*
X115100Y621010D02*
Y634010D01*
X108600Y597510D02*
X121600D01*
X115100Y591010D02*
Y604010D01*
X133600Y552510D02*
X146600D01*
X140100Y546010D02*
Y559010D01*
X133600Y522510D02*
X146600D01*
X140100Y516010D02*
Y529010D01*
X151000Y972000D02*
X161000D01*
X156000Y967000D02*
Y977000D01*
X90000Y971000D02*
X100000D01*
X95000Y966000D02*
Y976000D01*
X734000Y654000D02*
X744000D01*
X739000Y649000D02*
Y659000D01*
X864000Y573000D02*
X874000D01*
X869000Y568000D02*
Y578000D01*
X457666Y746000D02*
X468334D01*
X463000Y740666D02*
Y751334D01*
X432266Y746000D02*
X442934D01*
X437600Y740666D02*
Y751334D01*
X590466Y734000D02*
X601134D01*
X595800Y728666D02*
Y739334D01*
X565066Y734000D02*
X575734D01*
X570400Y728666D02*
Y739334D01*
X539666Y734000D02*
X550334D01*
X545000Y728666D02*
Y739334D01*
X264550Y786500D02*
X274450D01*
X269500Y781550D02*
Y791450D01*
X264550Y831500D02*
X274450D01*
X269500Y826550D02*
Y836450D01*
X199550Y786500D02*
X209450D01*
X204500Y781550D02*
Y791450D01*
X199550Y831500D02*
X209450D01*
X204500Y826550D02*
Y836450D01*
X495550Y933500D02*
X505450D01*
X500500Y928550D02*
Y938450D01*
X495550Y978500D02*
X505450D01*
X500500Y973550D02*
Y983450D01*
X560550Y978500D02*
X570450D01*
X565500Y973550D02*
Y983450D01*
X560550Y933500D02*
X570450D01*
X565500Y928550D02*
Y938450D01*
X605666Y502400D02*
X616334D01*
X611000Y497066D02*
Y507734D01*
X605666Y477000D02*
X616334D01*
X611000Y471666D02*
Y482334D01*
X605666Y451600D02*
X616334D01*
X611000Y446266D02*
Y456934D01*
X934666Y605000D02*
X945334D01*
X940000Y599666D02*
Y610334D01*
X960066Y605000D02*
X970734D01*
X965400Y599666D02*
Y610334D01*
X516436Y256117D02*
X526336D01*
X521386Y251166D02*
Y261066D01*
X484616Y287936D02*
X494516D01*
X489566Y282986D02*
Y292886D01*
X562398Y302078D02*
X572298D01*
X567348Y297129D02*
Y307029D01*
X530578Y333898D02*
X540478D01*
X535528Y328948D02*
Y338848D01*
X628666Y969000D02*
X639334D01*
X634000Y963666D02*
Y974334D01*
X654066Y969000D02*
X664734D01*
X659400Y963666D02*
Y974334D01*
X603266Y969000D02*
X613934D01*
X608600Y963666D02*
Y974334D01*
X605666Y570000D02*
X616334D01*
X611000Y564666D02*
Y575334D01*
X605666Y544600D02*
X616334D01*
X611000Y539266D02*
Y549934D01*
X605666Y595400D02*
X616334D01*
X611000Y590066D02*
Y600734D01*
X82900Y172000D02*
X91900D01*
X87400Y167500D02*
Y176500D01*
X32100Y172000D02*
X41100D01*
X36600Y167500D02*
Y176500D01*
X33600Y375010D02*
X66600D01*
X50100Y358510D02*
Y391510D01*
X33600Y760010D02*
X66600D01*
X50100Y743510D02*
Y776510D01*
X108600Y657510D02*
X121600D01*
X115100Y651010D02*
Y664010D01*
X108600Y687510D02*
X121600D01*
X115100Y681010D02*
Y694010D01*
X133600Y642510D02*
X146600D01*
X140100Y636010D02*
Y649010D01*
X163600Y672510D02*
X176600D01*
X170100Y666010D02*
Y679010D01*
X108600Y537510D02*
X121600D01*
X115100Y531010D02*
Y544010D01*
X188600Y597510D02*
X201600D01*
X195100Y591010D02*
Y604010D01*
X188600Y657510D02*
X201600D01*
X195100Y651010D02*
Y664010D01*
X188600Y687510D02*
X201600D01*
X195100Y681010D02*
Y694010D01*
X163600Y642510D02*
X176600D01*
X170100Y636010D02*
Y649010D01*
X163600Y552510D02*
X176600D01*
X170100Y546010D02*
Y559010D01*
X188600Y507510D02*
X201600D01*
X195100Y501010D02*
Y514010D01*
X188600Y567510D02*
X201600D01*
X195100Y561010D02*
Y574010D01*
X188600Y477510D02*
X201600D01*
X195100Y471010D02*
Y484010D01*
X163600Y462510D02*
X176600D01*
X170100Y456010D02*
Y469010D01*
X188600Y537510D02*
X201600D01*
X195100Y531010D02*
Y544010D01*
X188600Y447510D02*
X201600D01*
X195100Y441010D02*
Y454010D01*
X108600Y477510D02*
X121600D01*
X115100Y471010D02*
Y484010D01*
X133600Y612510D02*
X146600D01*
X140100Y606010D02*
Y619010D01*
X163600Y612510D02*
X176600D01*
X170100Y606010D02*
Y619010D01*
X108600Y507510D02*
X121600D01*
X115100Y501010D02*
Y514010D01*
X188600Y627510D02*
X201600D01*
X195100Y621010D02*
Y634010D01*
X163600Y582510D02*
X176600D01*
X170100Y576010D02*
Y589010D01*
X133600Y672510D02*
X146600D01*
X140100Y666010D02*
Y679010D01*
X163600Y522510D02*
X176600D01*
X170100Y516010D02*
Y529010D01*
X163600Y492510D02*
X176600D01*
X170100Y486010D02*
Y499010D01*
X133600Y492510D02*
X146600D01*
X140100Y486010D02*
Y499010D01*
X133600Y462510D02*
X146600D01*
X140100Y456010D02*
Y469010D01*
X108600Y447510D02*
X121600D01*
X115100Y441010D02*
Y454010D01*
X257850Y282000D02*
X264950D01*
X261400Y278450D02*
Y285550D01*
X232450Y282000D02*
X239550D01*
X236000Y278450D02*
Y285550D01*
X976130Y157640D02*
X986330D01*
X981230Y152540D02*
Y162740D01*
X695580Y132240D02*
X705780D01*
X700680Y127140D02*
Y137340D01*
X653450Y560750D02*
X662450D01*
X657950Y556250D02*
Y565250D01*
X115690Y213810D02*
X125690D01*
X120690Y208810D02*
Y218810D01*
X145690Y260810D02*
X155690D01*
X150690Y255810D02*
Y265810D01*
X109500Y810800D02*
X132500D01*
X121000Y799300D02*
Y822300D01*
X143500Y858500D02*
X152500D01*
X148000Y854000D02*
Y863000D01*
X109500Y931200D02*
X132500D01*
X121000Y919700D02*
Y942700D01*
X695580Y157640D02*
X705780D01*
X700680Y152540D02*
Y162740D01*
X976130Y208440D02*
X986330D01*
X981230Y203340D02*
Y213540D01*
X697000Y933250D02*
X708000D01*
X702500Y927750D02*
Y938750D01*
X930500Y484600D02*
X940700D01*
X935600Y479500D02*
Y489700D01*
X955900Y484600D02*
X966100D01*
X961000Y479500D02*
Y489700D01*
X831250Y485750D02*
X840250D01*
X835750Y481250D02*
Y490250D01*
X653450Y535750D02*
X662450D01*
X657950Y531250D02*
Y540250D01*
X955900Y459200D02*
X966100D01*
X961000Y454100D02*
Y464300D01*
X930500Y459200D02*
X940700D01*
X935600Y454100D02*
Y464300D01*
X930500Y433800D02*
X940700D01*
X935600Y428700D02*
Y438900D01*
X930500Y510000D02*
X940700D01*
X935600Y504900D02*
Y515100D01*
X955900Y510000D02*
X966100D01*
X961000Y504900D02*
Y515100D01*
X955900Y433800D02*
X966100D01*
X961000Y428700D02*
Y438900D01*
X955900Y535400D02*
X966100D01*
X961000Y530300D02*
Y540500D01*
X930500Y535400D02*
X940700D01*
X935600Y530300D02*
Y540500D01*
X658150Y414300D02*
X683150D01*
X670650Y401800D02*
Y426800D01*
X810550Y414300D02*
X835550D01*
X823050Y401800D02*
Y426800D01*
X810550Y630200D02*
X835550D01*
X823050Y617700D02*
Y642700D01*
X658150Y630200D02*
X683150D01*
X670650Y617700D02*
Y642700D01*
X831250Y510750D02*
X840250D01*
X835750Y506250D02*
Y515250D01*
X831250Y535750D02*
X840250D01*
X835750Y531250D02*
Y540250D01*
X831250Y560750D02*
X840250D01*
X835750Y556250D02*
Y565250D01*
X653450Y585750D02*
X662450D01*
X657950Y581250D02*
Y590250D01*
X653450Y460750D02*
X662450D01*
X657950Y456250D02*
Y465250D01*
X653450Y510750D02*
X662450D01*
X657950Y506250D02*
Y515250D01*
X653450Y485750D02*
X662450D01*
X657950Y481250D02*
Y490250D01*
X948700Y879550D02*
X958200D01*
X953450Y874800D02*
Y884300D01*
X948700Y811550D02*
X958200D01*
X953450Y806800D02*
Y816300D01*
X327116Y746000D02*
X337784D01*
X332450Y740666D02*
Y751334D01*
X695580Y81440D02*
X705780D01*
X700680Y76340D02*
Y86540D01*
X695580Y106840D02*
X705780D01*
X700680Y101740D02*
Y111940D01*
X697000Y728250D02*
X708000D01*
X702500Y722750D02*
Y733750D01*
X163500Y883500D02*
X172500D01*
X168000Y879000D02*
Y888000D01*
X143500Y883500D02*
X152500D01*
X148000Y879000D02*
Y888000D01*
X86000Y257000D02*
X96000D01*
X91000Y252000D02*
Y262000D01*
X352516Y746000D02*
X363184D01*
X357850Y740666D02*
Y751334D01*
X377916Y746000D02*
X388584D01*
X383250Y740666D02*
Y751334D01*
X976130Y310040D02*
X986330D01*
X981230Y304940D02*
Y315140D01*
X976130Y284640D02*
X986330D01*
X981230Y279540D02*
Y289740D01*
X976130Y259240D02*
X986330D01*
X981230Y254140D02*
Y264340D01*
X976130Y233840D02*
X986330D01*
X981230Y228740D02*
Y238940D01*
X976130Y183040D02*
X986330D01*
X981230Y177940D02*
Y188140D01*
X976130Y132240D02*
X986330D01*
X981230Y127140D02*
Y137340D01*
X976130Y56040D02*
X986330D01*
X981230Y50940D02*
Y61140D01*
X976130Y81440D02*
X986330D01*
X981230Y76340D02*
Y86540D01*
X976130Y106840D02*
X986330D01*
X981230Y101740D02*
Y111940D01*
X695580Y310040D02*
X705780D01*
X700680Y304940D02*
Y315140D01*
X695580Y284640D02*
X705780D01*
X700680Y279540D02*
Y289740D01*
X695580Y259240D02*
X705780D01*
X700680Y254140D02*
Y264340D01*
X695580Y233840D02*
X705780D01*
X700680Y228740D02*
Y238940D01*
X695580Y208440D02*
X705780D01*
X700680Y203340D02*
Y213540D01*
X695580Y183040D02*
X705780D01*
X700680Y177940D02*
Y188140D01*
X695580Y56040D02*
X705780D01*
X700680Y50940D02*
Y61140D01*
X18140Y36400D02*
X51140D01*
X34640Y19900D02*
Y52900D01*
X948790Y347560D02*
X981790D01*
X965290Y331060D02*
Y364060D01*
X948790Y963500D02*
X981790D01*
X965290Y947000D02*
Y980000D01*
X18140Y963500D02*
X51140D01*
X34640Y947000D02*
Y980000D01*
X292343Y745014D02*
X295343D01*
X293843Y743513D02*
Y746514D01*
X292343Y764497D02*
X295343D01*
X293843Y762997D02*
Y765997D01*
X377500Y822750D02*
X380500D01*
X379000Y821250D02*
Y824250D01*
X391804Y822696D02*
X394804D01*
X393304Y821196D02*
Y824196D01*
X187263Y233763D02*
X190263D01*
X188763Y232263D02*
Y235263D01*
X212263Y208763D02*
X215263D01*
X213763Y207263D02*
Y210263D01*
X238500Y181960D02*
X241500D01*
X240000Y180460D02*
Y183460D01*
X212563Y183125D02*
X215563D01*
X214063Y181625D02*
Y184625D01*
X311750Y627250D02*
X314750D01*
X313250Y625750D02*
Y628750D01*
X305055Y884370D02*
X308055D01*
X306555Y882870D02*
Y885870D01*
X863000Y825500D02*
X866000D01*
X864500Y824000D02*
Y827000D01*
X815750Y959500D02*
X818750D01*
X817250Y958000D02*
Y961000D01*
X777000Y944500D02*
X780000D01*
X778500Y943000D02*
Y946000D01*
X245500Y889000D02*
X248500D01*
X247000Y887500D02*
Y890500D01*
X241500Y790000D02*
X244500D01*
X243000Y788500D02*
Y791500D01*
X241500Y713000D02*
X244500D01*
X243000Y711500D02*
Y714500D01*
X536444Y133000D02*
X543556D01*
X540000Y129444D02*
Y136556D01*
X460500Y529000D02*
X463500D01*
X462000Y527500D02*
Y530500D01*
X631500Y719000D02*
X634500D01*
X633000Y717500D02*
Y720500D01*
X538500Y811000D02*
X541500D01*
X540000Y809500D02*
Y812500D01*
X243500Y684000D02*
X246500D01*
X245000Y682500D02*
Y685500D01*
X604500Y421000D02*
X607500D01*
X606000Y419500D02*
Y422500D01*
X562500Y410000D02*
X565500D01*
X564000Y408500D02*
Y411500D01*
X576500Y369000D02*
X579500D01*
X578000Y367500D02*
Y370500D01*
X930500Y314000D02*
X933500D01*
X932000Y312500D02*
Y315500D01*
X915500Y735000D02*
X918500D01*
X917000Y733500D02*
Y736500D01*
X877500Y743000D02*
X880500D01*
X879000Y741500D02*
Y744500D01*
X925500Y944000D02*
X928500D01*
X927000Y942500D02*
Y945500D01*
X520500Y890500D02*
X523500D01*
X522000Y889000D02*
Y892000D01*
X347250Y902250D02*
X350250D01*
X348750Y900750D02*
Y903750D01*
X222500Y930000D02*
X225500D01*
X224000Y928500D02*
Y931500D01*
X411500Y346000D02*
X414500D01*
X413000Y344500D02*
Y347500D01*
X533500Y229000D02*
X536500D01*
X535000Y227500D02*
Y230500D01*
X386000Y460000D02*
X389000D01*
X387500Y458500D02*
Y461500D01*
X358750Y414750D02*
X361750D01*
X360250Y413250D02*
Y416250D01*
X300500Y64000D02*
X303500D01*
X302000Y62500D02*
Y65500D01*
X38500Y117500D02*
X41500D01*
X40000Y116000D02*
Y119000D01*
X38500Y85000D02*
X41500D01*
X40000Y83500D02*
Y86500D01*
X151000Y182500D02*
X154000D01*
X152500Y181000D02*
Y184000D01*
X184500Y317000D02*
X187500D01*
X186000Y315500D02*
Y318500D01*
X31500Y317000D02*
X34500D01*
X33000Y315500D02*
Y318500D01*
X48500Y317000D02*
X51500D01*
X50000Y315500D02*
Y318500D01*
X14500Y317000D02*
X17500D01*
X16000Y315500D02*
Y318500D01*
X31000Y425000D02*
X34000D01*
X32500Y423500D02*
Y426500D01*
X133500Y317000D02*
X136500D01*
X135000Y315500D02*
Y318500D01*
X150500Y317000D02*
X153500D01*
X152000Y315500D02*
Y318500D01*
X65500Y317000D02*
X68500D01*
X67000Y315500D02*
Y318500D01*
X116500Y317000D02*
X119500D01*
X118000Y315500D02*
Y318500D01*
X58500Y457500D02*
X61500D01*
X60000Y456000D02*
Y459000D01*
X26000Y575000D02*
X29000D01*
X27500Y573500D02*
Y576500D01*
X58500Y575000D02*
X61500D01*
X60000Y573500D02*
Y576500D01*
X236500Y317000D02*
X239500D01*
X238000Y315500D02*
Y318500D01*
X253500Y317000D02*
X256500D01*
X255000Y315500D02*
Y318500D01*
X167500Y317000D02*
X170500D01*
X169000Y315500D02*
Y318500D01*
X219500Y317000D02*
X222500D01*
X221000Y315500D02*
Y318500D01*
X304500Y317000D02*
X307500D01*
X306000Y315500D02*
Y318500D01*
X321500Y317000D02*
X324500D01*
X323000Y315500D02*
Y318500D01*
X270500Y317000D02*
X273500D01*
X272000Y315500D02*
Y318500D01*
X287500Y317000D02*
X290500D01*
X289000Y315500D02*
Y318500D01*
X253500Y352500D02*
X256500D01*
X255000Y351000D02*
Y354000D01*
X318500Y352500D02*
X321500D01*
X320000Y351000D02*
Y354000D01*
X322500Y250000D02*
X325500D01*
X324000Y248500D02*
Y251500D01*
X338500Y317000D02*
X341500D01*
X340000Y315500D02*
Y318500D01*
X362500Y276000D02*
X365500D01*
X364000Y274500D02*
Y277500D01*
X362500Y259000D02*
X365500D01*
X364000Y257500D02*
Y260500D01*
X350500Y305000D02*
X353500D01*
X352000Y303500D02*
Y306500D01*
X362500Y293000D02*
X365500D01*
X364000Y291500D02*
Y294500D01*
X366500Y162000D02*
X369500D01*
X368000Y160500D02*
Y163500D01*
X423200Y169600D02*
X426200D01*
X424700Y168100D02*
Y171100D01*
X374500Y230000D02*
X377500D01*
X376000Y228500D02*
Y231500D01*
X362500Y242000D02*
X365500D01*
X364000Y240500D02*
Y243500D01*
X408500Y230000D02*
X411500D01*
X410000Y228500D02*
Y231500D01*
X420500Y218000D02*
X423500D01*
X422000Y216500D02*
Y219500D01*
X391500Y230000D02*
X394500D01*
X393000Y228500D02*
Y231500D01*
X344418Y439718D02*
X347418D01*
X345918Y438218D02*
Y441218D01*
X388500Y360000D02*
X391500D01*
X390000Y358500D02*
Y361500D01*
X398250Y470750D02*
X401250D01*
X399750Y469250D02*
Y472250D01*
X26000Y665000D02*
X29000D01*
X27500Y663500D02*
Y666500D01*
X26000Y715000D02*
X29000D01*
X27500Y713500D02*
Y716500D01*
X58500Y680000D02*
X61500D01*
X60000Y678500D02*
Y681500D01*
X86000Y745000D02*
X89000D01*
X87500Y743500D02*
Y746500D01*
X156000Y717500D02*
X159000D01*
X157500Y716000D02*
Y719000D01*
X198500Y740000D02*
X201500D01*
X200000Y738500D02*
Y741500D01*
X290750Y726500D02*
X293750D01*
X292250Y725000D02*
Y728000D01*
X266500Y905000D02*
X269500D01*
X268000Y903500D02*
Y906500D01*
X283500Y846250D02*
X286500D01*
X285000Y844750D02*
Y847750D01*
X270250Y954250D02*
X273250D01*
X271750Y952750D02*
Y955750D01*
X354250Y633830D02*
X357250D01*
X355750Y632330D02*
Y635330D01*
X328500Y789500D02*
X331500D01*
X330000Y788000D02*
Y791000D01*
X381000Y630000D02*
X384000D01*
X382500Y628500D02*
Y631500D01*
X418500Y602500D02*
X421500D01*
X420000Y601000D02*
Y604000D01*
X355000Y665250D02*
X358000D01*
X356500Y663750D02*
Y666750D01*
X365250Y843250D02*
X368250D01*
X366750Y841750D02*
Y844750D01*
X392500Y920000D02*
X395500D01*
X394000Y918500D02*
Y921500D01*
X463500Y170000D02*
X466500D01*
X465000Y168500D02*
Y171500D01*
X467500Y205000D02*
X470500D01*
X469000Y203500D02*
Y206500D01*
X433500Y205000D02*
X436500D01*
X435000Y203500D02*
Y206500D01*
X450500Y205000D02*
X453500D01*
X452000Y203500D02*
Y206500D01*
X518500Y205000D02*
X521500D01*
X520000Y203500D02*
Y206500D01*
X518500Y170000D02*
X521500D01*
X520000Y168500D02*
Y171500D01*
X484500Y205000D02*
X487500D01*
X486000Y203500D02*
Y206500D01*
X501500Y205000D02*
X504500D01*
X503000Y203500D02*
Y206500D01*
X496000Y320000D02*
X499000D01*
X497500Y318500D02*
Y321500D01*
X552500Y205000D02*
X555500D01*
X554000Y203500D02*
Y206500D01*
X569500Y205000D02*
X572500D01*
X571000Y203500D02*
Y206500D01*
X535500Y205000D02*
X538500D01*
X537000Y203500D02*
Y206500D01*
X586500Y205000D02*
X589500D01*
X588000Y203500D02*
Y206500D01*
X559000Y529750D02*
X562000D01*
X560500Y528250D02*
Y531250D01*
X625600Y106600D02*
X628600D01*
X627100Y105100D02*
Y108100D01*
X647500Y127000D02*
X650500D01*
X649000Y125500D02*
Y128500D01*
X603500Y205000D02*
X606500D01*
X605000Y203500D02*
Y206500D01*
X647500Y161000D02*
X650500D01*
X649000Y159500D02*
Y162500D01*
X647500Y144000D02*
X650500D01*
X649000Y142500D02*
Y145500D01*
X634500Y191000D02*
X637500D01*
X636000Y189500D02*
Y192500D01*
X647500Y178000D02*
X650500D01*
X649000Y176500D02*
Y179500D01*
X659500Y47000D02*
X662500D01*
X661000Y45500D02*
Y48500D01*
X659500Y81000D02*
X662500D01*
X661000Y79500D02*
Y82500D01*
X659500Y64000D02*
X662500D01*
X661000Y62500D02*
Y65500D01*
X647500Y93000D02*
X650500D01*
X649000Y91500D02*
Y94500D01*
X647500Y110000D02*
X650500D01*
X649000Y108500D02*
Y111500D01*
X620500Y205000D02*
X623500D01*
X622000Y203500D02*
Y206500D01*
X711000Y535000D02*
X714000D01*
X712500Y533500D02*
Y536500D01*
X796000Y510000D02*
X799000D01*
X797500Y508500D02*
Y511500D01*
X455000Y596000D02*
X458000D01*
X456500Y594500D02*
Y597500D01*
X486000Y602500D02*
X489000D01*
X487500Y601000D02*
Y604000D01*
X463500Y766500D02*
X466500D01*
X465000Y765000D02*
Y768000D01*
X455500Y897000D02*
X458500D01*
X457000Y895500D02*
Y898500D01*
X615250Y657000D02*
X618250D01*
X616750Y655500D02*
Y658500D01*
X703500Y587500D02*
X706500D01*
X705000Y586000D02*
Y589000D01*
X783500Y727500D02*
X786500D01*
X785000Y726000D02*
Y729000D01*
X821000Y735000D02*
X824000D01*
X822500Y733500D02*
Y736500D01*
X858500Y617500D02*
X861500D01*
X860000Y616000D02*
Y619000D01*
X876750Y721750D02*
X879750D01*
X878250Y720250D02*
Y723250D01*
X38500Y510000D02*
X41500D01*
X40000Y508500D02*
Y511500D01*
X38500Y630000D02*
X41500D01*
X40000Y628500D02*
Y631500D01*
X158500Y150000D02*
X161500D01*
X160000Y148500D02*
Y151500D01*
X218500Y390000D02*
X221500D01*
X220000Y388500D02*
Y391500D01*
X278500Y390000D02*
X281500D01*
X280000Y388500D02*
Y391500D01*
X368500Y210000D02*
X371500D01*
X370000Y208500D02*
Y211500D01*
X338500Y270000D02*
X341500D01*
X340000Y268500D02*
Y271500D01*
X368500Y330000D02*
X371500D01*
X370000Y328500D02*
Y331500D01*
X398500Y270000D02*
X401500D01*
X400000Y268500D02*
Y271500D01*
X458500Y270000D02*
X461500D01*
X460000Y268500D02*
Y271500D01*
X518500Y750000D02*
X521500D01*
X520000Y748500D02*
Y751500D01*
X578500Y270000D02*
X581500D01*
X580000Y268500D02*
Y271500D01*
X608500Y330000D02*
X611500D01*
X610000Y328500D02*
Y331500D01*
X638500Y270000D02*
X641500D01*
X640000Y268500D02*
Y271500D01*
X638500Y390000D02*
X641500D01*
X640000Y388500D02*
Y391500D01*
X638500Y630000D02*
X641500D01*
X640000Y628500D02*
Y631500D01*
X638500Y750000D02*
X641500D01*
X640000Y748500D02*
Y751500D01*
X668500Y930000D02*
X671500D01*
X670000Y928500D02*
Y931500D01*
X728500Y90000D02*
X731500D01*
X730000Y88500D02*
Y91500D01*
X728500Y210000D02*
X731500D01*
X730000Y208500D02*
Y211500D01*
X728500Y330000D02*
X731500D01*
X730000Y328500D02*
Y331500D01*
X698500Y630000D02*
X701500D01*
X700000Y628500D02*
Y631500D01*
X698500Y750000D02*
X701500D01*
X700000Y748500D02*
Y751500D01*
X728500Y930000D02*
X731500D01*
X730000Y928500D02*
Y931500D01*
X788500Y90000D02*
X791500D01*
X790000Y88500D02*
Y91500D01*
X788500Y210000D02*
X791500D01*
X790000Y208500D02*
Y211500D01*
X758500Y270000D02*
X761500D01*
X760000Y268500D02*
Y271500D01*
X788500Y330000D02*
X791500D01*
X790000Y328500D02*
Y331500D01*
X758500Y750000D02*
X761500D01*
X760000Y748500D02*
Y751500D01*
X818500Y30000D02*
X821500D01*
X820000Y28500D02*
Y31500D01*
X848500Y90000D02*
X851500D01*
X850000Y88500D02*
Y91500D01*
X818500Y150000D02*
X821500D01*
X820000Y148500D02*
Y151500D01*
X818500Y270000D02*
X821500D01*
X820000Y268500D02*
Y271500D01*
X878500Y30000D02*
X881500D01*
X880000Y28500D02*
Y31500D01*
X908500Y90000D02*
X911500D01*
X910000Y88500D02*
Y91500D01*
X878500Y150000D02*
X881500D01*
X880000Y148500D02*
Y151500D01*
X908500Y210000D02*
X911500D01*
X910000Y208500D02*
Y211500D01*
X878500Y270000D02*
X881500D01*
X880000Y268500D02*
Y271500D01*
X938500Y30000D02*
X941500D01*
X940000Y28500D02*
Y31500D01*
X968500Y90000D02*
X971500D01*
X970000Y88500D02*
Y91500D01*
X938500Y270000D02*
X941500D01*
X940000Y268500D02*
Y271500D01*
X739476Y510000D02*
X742476D01*
X740976Y508500D02*
Y511500D01*
X739553Y389760D02*
X742553D01*
X741053Y388260D02*
Y391260D01*
X736774Y450000D02*
X739774D01*
X738274Y448500D02*
Y451500D01*
X848500Y450000D02*
X851500D01*
X850000Y448500D02*
Y451500D01*
X865588Y347088D02*
X868588D01*
X867088Y345588D02*
Y348588D01*
X794524Y570000D02*
X797524D01*
X796024Y568500D02*
Y571500D01*
X794524Y450000D02*
X797524D01*
X796024Y448500D02*
Y451500D01*
X928750Y860000D02*
X931750D01*
X930250Y858500D02*
Y861500D01*
X813875Y874125D02*
X816875D01*
X815375Y872625D02*
Y875625D01*
X428500Y683000D02*
X431500D01*
X430000Y681500D02*
Y684500D01*
X514250Y722500D02*
X517250D01*
X515750Y721000D02*
Y724000D01*
X502500Y695750D02*
X505500D01*
X504000Y694250D02*
Y697250D01*
X405250Y760250D02*
X408250D01*
X406750Y758750D02*
Y761750D01*
X413500Y742000D02*
X416500D01*
X415000Y740500D02*
Y743500D01*
X731500Y957250D02*
X734500D01*
X733000Y955750D02*
Y958750D01*
X188500Y210000D02*
X191500D01*
X190000Y208500D02*
Y211500D01*
X188500Y185000D02*
X191500D01*
X190000Y183500D02*
Y186500D01*
X188500Y160000D02*
X191500D01*
X190000Y158500D02*
Y161500D01*
X213500Y160000D02*
X216500D01*
X215000Y158500D02*
Y161500D01*
X238500Y160000D02*
X241500D01*
X240000Y158500D02*
Y161500D01*
X238500Y210000D02*
X241500D01*
X240000Y208500D02*
Y211500D01*
X274500Y61000D02*
X277500D01*
X276000Y59500D02*
Y62500D01*
X339000Y364750D02*
X342000D01*
X340500Y363250D02*
Y366250D01*
X516600Y675500D02*
X519600D01*
X518100Y674000D02*
Y677000D01*
X320750Y681000D02*
X323750D01*
X322250Y679500D02*
Y682500D01*
X320750Y666750D02*
X323750D01*
X322250Y665250D02*
Y668250D01*
X516600Y661500D02*
X519600D01*
X518100Y660000D02*
Y663000D01*
X513084Y454416D02*
X516084D01*
X514584Y452916D02*
Y455916D01*
X880456Y419956D02*
X883456D01*
X881956Y418456D02*
Y421456D01*
X501500Y407000D02*
X504500D01*
X503000Y405500D02*
Y408500D01*
X857500Y905250D02*
X860500D01*
X859000Y903750D02*
Y906750D01*
X565750Y866875D02*
X568750D01*
X567250Y865375D02*
Y868375D01*
X861500Y858000D02*
X864500D01*
X863000Y856500D02*
Y859500D01*
X565750Y830625D02*
X568750D01*
X567250Y829125D02*
Y832125D01*
X425500Y805000D02*
X428500D01*
X427000Y803500D02*
Y806500D01*
X818500Y852000D02*
X821500D01*
X820000Y850500D02*
Y853500D01*
X565750Y812500D02*
X568750D01*
X567250Y811000D02*
Y814000D01*
X819500Y830000D02*
X822500D01*
X821000Y828500D02*
Y831500D01*
X442750Y805500D02*
X445750D01*
X444250Y804000D02*
Y807000D01*
X856500Y884000D02*
X859500D01*
X858000Y882500D02*
Y885500D01*
X565750Y848750D02*
X568750D01*
X567250Y847250D02*
Y850250D01*
X451000Y849750D02*
X454000D01*
X452500Y848250D02*
Y851250D01*
X409250Y440500D02*
X412250D01*
X410750Y439000D02*
Y442000D01*
X455250Y430250D02*
X458250D01*
X456750Y428750D02*
Y431750D01*
X370500Y687600D02*
X373500D01*
X372000Y686100D02*
Y689100D01*
X524500Y469000D02*
X527500D01*
X526000Y467500D02*
Y470500D01*
X386300Y535900D02*
X389300D01*
X387800Y534400D02*
Y537400D01*
X405200Y572000D02*
X408200D01*
X406700Y570500D02*
Y573500D01*
X391000Y382500D02*
X394000D01*
X392500Y381000D02*
Y384000D01*
X467500Y439000D02*
X470500D01*
X469000Y437500D02*
Y440500D01*
X396200Y546300D02*
X399200D01*
X397700Y544800D02*
Y547800D01*
X384200Y514300D02*
X387200D01*
X385700Y512800D02*
Y515800D01*
X478700Y447800D02*
X481700D01*
X480200Y446300D02*
Y449300D01*
X407200Y556200D02*
X410200D01*
X408700Y554700D02*
Y557700D01*
X701000Y680000D02*
X704000D01*
X702500Y678500D02*
Y681500D01*
X449582Y543918D02*
X452582D01*
X451082Y542418D02*
Y545418D01*
X543500Y480000D02*
X546500D01*
X545000Y478500D02*
Y481500D01*
X446500Y416000D02*
X449500D01*
X448000Y414500D02*
Y417500D01*
X375100Y526000D02*
X378100D01*
X376600Y524500D02*
Y527500D01*
X491500Y389000D02*
X494500D01*
X493000Y387500D02*
Y390500D01*
X411000Y477500D02*
X414000D01*
X412500Y476000D02*
Y479000D01*
X612500Y675000D02*
X615500D01*
X614000Y673500D02*
Y676500D01*
X455500Y877000D02*
X458500D01*
X457000Y875500D02*
Y878500D01*
X455500Y917000D02*
X458500D01*
X457000Y915500D02*
Y918500D01*
X347500Y887000D02*
X350500D01*
X349000Y885500D02*
Y888500D01*
M02*
