G04*
G04 #@! TF.GenerationSoftware,Altium Limited,Altium Designer,25.7.1 (20)*
G04*
G04 Layer_Physical_Order=4*
G04 Layer_Color=16711680*
%FSLAX25Y25*%
%MOIN*%
G70*
G04*
G04 #@! TF.SameCoordinates,2BE7CE8E-90D8-463F-AC12-6E4C0CB6A4A3*
G04*
G04*
G04 #@! TF.FilePolarity,Positive*
G04*
G01*
G75*
%ADD10C,0.00787*%
%ADD12C,0.01575*%
G04:AMPARAMS|DCode=23|XSize=39.37mil|YSize=66.93mil|CornerRadius=4.92mil|HoleSize=0mil|Usage=FLASHONLY|Rotation=270.000|XOffset=0mil|YOffset=0mil|HoleType=Round|Shape=RoundedRectangle|*
%AMROUNDEDRECTD23*
21,1,0.03937,0.05709,0,0,270.0*
21,1,0.02953,0.06693,0,0,270.0*
1,1,0.00984,-0.02854,-0.01476*
1,1,0.00984,-0.02854,0.01476*
1,1,0.00984,0.02854,0.01476*
1,1,0.00984,0.02854,-0.01476*
%
%ADD23ROUNDEDRECTD23*%
G04:AMPARAMS|DCode=26|XSize=55.12mil|YSize=66.93mil|CornerRadius=6.89mil|HoleSize=0mil|Usage=FLASHONLY|Rotation=180.000|XOffset=0mil|YOffset=0mil|HoleType=Round|Shape=RoundedRectangle|*
%AMROUNDEDRECTD26*
21,1,0.05512,0.05315,0,0,180.0*
21,1,0.04134,0.06693,0,0,180.0*
1,1,0.01378,-0.02067,0.02657*
1,1,0.01378,0.02067,0.02657*
1,1,0.01378,0.02067,-0.02657*
1,1,0.01378,-0.02067,-0.02657*
%
%ADD26ROUNDEDRECTD26*%
G04:AMPARAMS|DCode=27|XSize=39.37mil|YSize=66.93mil|CornerRadius=4.92mil|HoleSize=0mil|Usage=FLASHONLY|Rotation=180.000|XOffset=0mil|YOffset=0mil|HoleType=Round|Shape=RoundedRectangle|*
%AMROUNDEDRECTD27*
21,1,0.03937,0.05709,0,0,180.0*
21,1,0.02953,0.06693,0,0,180.0*
1,1,0.00984,-0.01476,0.02854*
1,1,0.00984,0.01476,0.02854*
1,1,0.00984,0.01476,-0.02854*
1,1,0.00984,-0.01476,-0.02854*
%
%ADD27ROUNDEDRECTD27*%
G04:AMPARAMS|DCode=34|XSize=55.12mil|YSize=66.93mil|CornerRadius=6.89mil|HoleSize=0mil|Usage=FLASHONLY|Rotation=270.000|XOffset=0mil|YOffset=0mil|HoleType=Round|Shape=RoundedRectangle|*
%AMROUNDEDRECTD34*
21,1,0.05512,0.05315,0,0,270.0*
21,1,0.04134,0.06693,0,0,270.0*
1,1,0.01378,-0.02657,-0.02067*
1,1,0.01378,-0.02657,0.02067*
1,1,0.01378,0.02657,0.02067*
1,1,0.01378,0.02657,-0.02067*
%
%ADD34ROUNDEDRECTD34*%
G04:AMPARAMS|DCode=35|XSize=55.12mil|YSize=66.93mil|CornerRadius=6.89mil|HoleSize=0mil|Usage=FLASHONLY|Rotation=225.000|XOffset=0mil|YOffset=0mil|HoleType=Round|Shape=RoundedRectangle|*
%AMROUNDEDRECTD35*
21,1,0.05512,0.05315,0,0,225.0*
21,1,0.04134,0.06693,0,0,225.0*
1,1,0.01378,-0.03341,0.00418*
1,1,0.01378,-0.00418,0.03341*
1,1,0.01378,0.03341,-0.00418*
1,1,0.01378,0.00418,-0.03341*
%
%ADD35ROUNDEDRECTD35*%
G04:AMPARAMS|DCode=43|XSize=39.37mil|YSize=66.93mil|CornerRadius=4.92mil|HoleSize=0mil|Usage=FLASHONLY|Rotation=225.000|XOffset=0mil|YOffset=0mil|HoleType=Round|Shape=RoundedRectangle|*
%AMROUNDEDRECTD43*
21,1,0.03937,0.05709,0,0,225.0*
21,1,0.02953,0.06693,0,0,225.0*
1,1,0.00984,-0.03062,0.00974*
1,1,0.00984,-0.00974,0.03062*
1,1,0.00984,0.03062,-0.00974*
1,1,0.00984,0.00974,-0.03062*
%
%ADD43ROUNDEDRECTD43*%
%ADD81C,0.05709*%
%ADD98C,0.05394*%
%ADD102R,0.02362X0.02362*%
%ADD105C,0.00984*%
%ADD106C,0.03937*%
%ADD107C,0.01181*%
%ADD109C,0.02362*%
%ADD110C,0.04724*%
%ADD113C,0.01968*%
%ADD115C,0.01251*%
%ADD117C,0.06200*%
%ADD118R,0.05543X0.05543*%
%ADD119C,0.07087*%
%ADD120C,0.04795*%
%ADD121C,0.07677*%
%ADD122C,0.05898*%
%ADD123R,0.05898X0.05898*%
%ADD124P,0.08341X4X270.0*%
%ADD125C,0.05315*%
%ADD126C,0.12992*%
%ADD127R,0.07677X0.07677*%
%ADD128R,0.04795X0.04795*%
%ADD129O,0.10000X0.04724*%
%ADD130O,0.17717X0.08858*%
%ADD131O,0.09843X0.19685*%
%ADD132C,0.13055*%
%ADD133C,0.05543*%
%ADD134R,0.05394X0.05394*%
%ADD135C,0.15748*%
%ADD136R,0.10000X0.04724*%
%ADD137C,0.03740*%
%ADD138O,0.08858X0.17717*%
%ADD139C,0.02756*%
%ADD140C,0.05000*%
%ADD156R,0.05512X0.02441*%
%ADD157R,0.02323X0.04882*%
G04:AMPARAMS|DCode=158|XSize=55.12mil|YSize=66.93mil|CornerRadius=6.89mil|HoleSize=0mil|Usage=FLASHONLY|Rotation=315.000|XOffset=0mil|YOffset=0mil|HoleType=Round|Shape=RoundedRectangle|*
%AMROUNDEDRECTD158*
21,1,0.05512,0.05315,0,0,315.0*
21,1,0.04134,0.06693,0,0,315.0*
1,1,0.01378,-0.00418,-0.03341*
1,1,0.01378,-0.03341,-0.00418*
1,1,0.01378,0.00418,0.03341*
1,1,0.01378,0.03341,0.00418*
%
%ADD158ROUNDEDRECTD158*%
%ADD159R,0.09449X0.04331*%
G04:AMPARAMS|DCode=160|XSize=216.54mil|YSize=78.74mil|CornerRadius=0mil|HoleSize=0mil|Usage=FLASHONLY|Rotation=45.000|XOffset=0mil|YOffset=0mil|HoleType=Round|Shape=Rectangle|*
%AMROTATEDRECTD160*
4,1,4,-0.04872,-0.10440,-0.10440,-0.04872,0.04872,0.10440,0.10440,0.04872,-0.04872,-0.10440,0.0*
%
%ADD160ROTATEDRECTD160*%

%ADD161C,0.00800*%
%ADD162C,0.03150*%
%ADD163C,0.01252*%
G36*
X50039Y249291D02*
Y235512D01*
X51535Y234016D01*
X58031D01*
X59882Y232165D01*
Y202598D01*
X57874Y200591D01*
X52480D01*
X50276Y202795D01*
X50394Y202913D01*
Y217480D01*
X48976Y218898D01*
X33988D01*
X33741Y219145D01*
X33819Y252228D01*
X33858Y252244D01*
X47087D01*
X50039Y249291D01*
D02*
G37*
G36*
X92126Y334646D02*
X70866D01*
Y329134D01*
X62598D01*
Y341732D01*
X74016D01*
Y346457D01*
X92126D01*
Y334646D01*
D02*
G37*
D10*
X106102Y327362D02*
X128839D01*
X137402Y335925D02*
Y349213D01*
X128839Y327362D02*
X137402Y335925D01*
X133847Y267135D02*
X149217D01*
X134581Y265364D02*
X148726D01*
X151688Y262402D01*
X132903Y266191D02*
X133847Y267135D01*
X128789Y264419D02*
X133637D01*
X134581Y265364D01*
X128789Y266191D02*
X132903D01*
X188583Y262205D02*
X202205D01*
X188288Y264173D02*
X191957D01*
X73574Y167784D02*
X74063Y167295D01*
X126337Y268110D02*
X127331D01*
Y267649D02*
Y268110D01*
X121848Y266634D02*
X124861D01*
X118876Y269606D02*
X121848Y266634D01*
X118209Y269606D02*
X118876D01*
X191957Y264173D02*
X191957Y264173D01*
X202205D01*
X203976Y265945D01*
X205748Y264173D02*
X210182D01*
X203976Y265945D02*
X205748Y264173D01*
X210182D02*
X210850Y264841D01*
Y265495D01*
X124861Y266634D02*
X126337Y268110D01*
X210850Y265495D02*
X213099Y267744D01*
X213583D01*
X117524Y269606D02*
X118209D01*
X114453Y266535D02*
X117524Y269606D01*
X105905Y266535D02*
X111065D01*
X111065Y266535D02*
X114453D01*
X111065Y266535D02*
X111065Y266535D01*
X74063Y163330D02*
Y167295D01*
Y163330D02*
X80903D01*
X96457Y178883D02*
Y257087D01*
X105905Y266535D01*
X80903Y163330D02*
X96457Y178883D01*
X127331Y267649D02*
X128789Y266191D01*
X75846Y177150D02*
X76811Y176185D01*
X70872Y168246D02*
Y169305D01*
X71334Y167784D02*
X73574D01*
X70872Y168246D02*
X71334Y167784D01*
X70872Y169305D02*
X70957Y169390D01*
Y176268D01*
X71839Y177150D01*
X75846D01*
X66339Y166260D02*
X67106Y165492D01*
X66339Y166260D02*
Y167539D01*
X118209Y261142D02*
X118639D01*
X120979Y263481D01*
Y263888D01*
X121953Y264862D01*
X124508D01*
X203976Y260433D02*
X205748Y262205D01*
X202205D02*
X203976Y260433D01*
X210850Y260883D02*
X213099Y258634D01*
X213583D01*
X210182Y262205D02*
X210850Y261537D01*
Y260883D02*
Y261537D01*
X124508Y264862D02*
X126870Y262500D01*
X205748Y262205D02*
X210182D01*
X115256Y263664D02*
Y263912D01*
X117725Y261142D02*
X118209D01*
X117725D02*
Y261195D01*
X114404Y264764D02*
X115256Y263912D01*
Y263664D02*
X117725Y261195D01*
X110331Y264764D02*
X110331Y264764D01*
X114404D01*
X106639Y264764D02*
X110331D01*
X67106Y165492D02*
X69395D01*
X73330Y161558D01*
X67106Y165492D02*
Y165492D01*
X73330Y161558D02*
X81637D01*
X98228Y256353D02*
X106639Y264764D01*
X98228Y178150D02*
Y256353D01*
X81637Y161558D02*
X98228Y178150D01*
X126870Y262500D02*
X128789Y264419D01*
X66339Y167539D02*
X66584Y167784D01*
X68824D02*
X69285Y168246D01*
X66584Y167784D02*
X68824D01*
X66969Y180501D02*
X69285Y178184D01*
Y168246D02*
Y178184D01*
X66969Y180501D02*
Y182091D01*
X207874Y173622D02*
X220866D01*
X247638Y146850D01*
X202592Y178904D02*
X207874Y173622D01*
X328740Y146850D02*
X347227Y165337D01*
X247638Y146850D02*
X328740D01*
X360039Y172480D02*
X368347Y180787D01*
X360039Y165551D02*
Y172480D01*
X332283Y137795D02*
X360039Y165551D01*
X220472Y137795D02*
X332283D01*
X198031Y160236D02*
X220472Y137795D01*
X146457Y270709D02*
X159291D01*
X139736Y274043D02*
X143071Y270709D01*
X146457D01*
X139736Y274043D02*
Y281142D01*
X159291Y270709D02*
X182283Y293701D01*
X162402Y181693D02*
Y187992D01*
X157087Y176378D02*
X162402Y181693D01*
X241732Y373622D02*
X249606Y381496D01*
X195669Y354724D02*
X214567Y373622D01*
X241732D01*
X214298Y109889D02*
Y111571D01*
X192743Y113361D02*
X197836Y108268D01*
X214298Y109889D02*
X221542Y102645D01*
X173253Y113361D02*
X192743D01*
X147244Y139370D02*
X173253Y113361D01*
X147244Y139370D02*
Y152362D01*
X205270Y100833D02*
X214298Y109861D01*
X147244Y152362D02*
X157087Y162205D01*
X197836Y108268D02*
X204415Y101688D01*
X205270Y100833D01*
X157087Y162205D02*
Y176378D01*
X106102Y309646D02*
Y327362D01*
X189370Y354724D02*
X195669D01*
X179921Y345276D02*
X189370Y354724D01*
X137402Y349213D02*
X144658D01*
X145276Y348594D01*
D12*
X161132Y304853D02*
X172283Y293701D01*
X161132Y304853D02*
Y328061D01*
X358268Y371654D02*
X364961D01*
X161132Y328061D02*
X172835Y339764D01*
X358661Y372081D02*
Y377953D01*
X352756Y383858D02*
X358661Y377953D01*
X274016Y383858D02*
X352756D01*
X247638Y357480D02*
X274016Y383858D01*
X212402Y357480D02*
X247638D01*
X205512Y350590D02*
X212402Y357480D01*
X194685Y339764D02*
X205512Y350590D01*
X137303Y355217D02*
X154626D01*
X130181D02*
X137303D01*
X162205Y339764D02*
X172835D01*
X194685D01*
X158268Y343701D02*
X162205Y339764D01*
X154626Y355217D02*
X158268Y351575D01*
Y343701D02*
Y351575D01*
X140059Y249539D02*
X140207Y249687D01*
Y261762D01*
X140354Y261910D01*
X171653Y350224D02*
X172339Y350910D01*
X177362D01*
X179602Y353150D01*
X179921D01*
D23*
X321358Y303051D02*
D03*
Y310531D02*
D03*
D26*
X97469Y357480D02*
D03*
X129783Y354819D02*
D03*
X87965Y357480D02*
D03*
X129598Y341535D02*
D03*
X78965Y357480D02*
D03*
X106468D02*
D03*
X130736Y281142D02*
D03*
X120783Y354819D02*
D03*
X120598Y341535D02*
D03*
X139736Y281142D02*
D03*
D27*
X358268Y371654D02*
D03*
X350787D02*
D03*
D34*
X118209Y252142D02*
D03*
Y278606D02*
D03*
X145276Y339595D02*
D03*
X213583Y249634D02*
D03*
X223858Y254791D02*
D03*
X234055Y254831D02*
D03*
X171653Y350224D02*
D03*
X213583Y276744D02*
D03*
X118209Y269606D02*
D03*
X213583Y267744D02*
D03*
X118209Y261142D02*
D03*
X213583Y258634D02*
D03*
X171653Y359224D02*
D03*
X234055Y263831D02*
D03*
X223858Y263791D02*
D03*
X145276Y348594D02*
D03*
D35*
X142552Y179481D02*
D03*
X181070Y127527D02*
D03*
X139993Y162473D02*
D03*
X172802Y135794D02*
D03*
X133629Y156109D02*
D03*
X136188Y173117D02*
D03*
X169127Y152296D02*
D03*
X187434Y133891D02*
D03*
X179166Y142158D02*
D03*
X162763Y145932D02*
D03*
D43*
X216253Y97355D02*
D03*
X133196Y184731D02*
D03*
X221542Y102645D02*
D03*
X127907Y179442D02*
D03*
D81*
X276575Y367421D02*
D03*
Y286713D02*
D03*
D98*
X386311Y62063D02*
D03*
X275858Y52063D02*
D03*
X275858Y62063D02*
D03*
X386311Y82063D02*
D03*
X368347Y190787D02*
D03*
X378346D02*
D03*
Y180787D02*
D03*
X368347D02*
D03*
Y170787D02*
D03*
Y200787D02*
D03*
X378346Y200787D02*
D03*
X378346Y210787D02*
D03*
X368347Y210787D02*
D03*
X275858Y32063D02*
D03*
Y42063D02*
D03*
X386311Y122063D02*
D03*
Y112063D02*
D03*
Y102063D02*
D03*
Y92063D02*
D03*
Y72063D02*
D03*
Y52063D02*
D03*
Y32063D02*
D03*
Y42063D02*
D03*
X275858Y122063D02*
D03*
Y112063D02*
D03*
Y102063D02*
D03*
Y92063D02*
D03*
Y82063D02*
D03*
Y72063D02*
D03*
D102*
X66142Y331496D02*
D03*
Y322835D02*
D03*
X58465Y362795D02*
D03*
X66240Y362894D02*
D03*
Y354232D02*
D03*
X58465Y354134D02*
D03*
D105*
X115686Y300504D02*
Y300983D01*
Y300504D02*
X116969Y299221D01*
Y298986D02*
Y299221D01*
Y295074D02*
Y295309D01*
X117815Y296156D01*
X115686Y293792D02*
X116969Y295074D01*
Y298986D02*
X117815Y298140D01*
X120235D01*
X115686Y293312D02*
Y293792D01*
X117815Y296156D02*
X121057D01*
X125492Y300590D01*
X120235Y298140D02*
X124670Y302575D01*
X132079D01*
X125492Y300590D02*
X132901D01*
X153474Y321164D01*
X132079Y302575D02*
X151041Y321537D01*
X149213Y323917D02*
X151041Y322089D01*
X153474Y322126D02*
X154844Y323496D01*
X153474Y321164D02*
Y322126D01*
X151041Y321537D02*
Y322089D01*
X154844Y323496D02*
Y323896D01*
X127907Y179442D02*
Y180765D01*
X125591Y183081D02*
Y193583D01*
Y183081D02*
X127907Y180765D01*
X120787Y198386D02*
X125591Y193583D01*
X120787Y198386D02*
Y198386D01*
X320866Y343996D02*
X321014Y344144D01*
X330561D01*
X330709Y344291D01*
X326969Y331299D02*
X330709D01*
X321260Y361417D02*
X326575D01*
X330709Y357283D01*
X321260Y361417D02*
X331496Y371654D01*
X259252Y361417D02*
X321260D01*
X331496Y371654D02*
X350787D01*
X249803Y351969D02*
X259252Y361417D01*
X206594Y334547D02*
X224016Y351969D01*
X249803D01*
X178150Y334547D02*
X206594D01*
X163587Y169878D02*
Y171263D01*
X161713Y173137D02*
Y173425D01*
Y173137D02*
X163587Y171263D01*
Y169878D02*
X180315Y153150D01*
X175492Y165145D02*
X176378Y164259D01*
X154709Y206748D02*
X175492Y185965D01*
X176378Y163779D02*
Y164259D01*
X175492Y165145D02*
Y185965D01*
X156417Y210984D02*
X179823Y187579D01*
Y169390D02*
Y187579D01*
X226772Y224410D02*
X240551D01*
X214567Y212205D02*
X226772Y224410D01*
X214567Y188976D02*
Y212205D01*
X207087Y182283D02*
X209055Y180315D01*
X220079D01*
X207087Y182283D02*
Y184646D01*
X220079Y180315D02*
X224016Y184252D01*
Y203937D01*
X234949Y214870D01*
X240090D02*
X240551Y214409D01*
X234949Y214870D02*
X240090D01*
X152677Y210984D02*
X156417D01*
X152106Y229704D02*
X155610D01*
X147234Y224833D02*
X152106Y229704D01*
X155610D02*
X160118Y225197D01*
Y225197D02*
Y225197D01*
X184646Y172835D02*
Y188150D01*
X158055Y214740D02*
X184646Y188150D01*
X156914Y214740D02*
X158055D01*
X156575Y215079D02*
X156914Y214740D01*
X133196Y184731D02*
X134101D01*
X151850Y202480D01*
X189055Y176299D02*
Y190827D01*
X160906Y218976D02*
X189055Y190827D01*
X148607Y206748D02*
X154709D01*
X148268Y207087D02*
X148607Y206748D01*
X180315Y153150D02*
X194095D01*
X126432Y179442D02*
X127907D01*
X121392Y174402D02*
X126432Y179442D01*
X121031Y174402D02*
X121392D01*
X179483Y361024D02*
X179921D01*
X177684Y359224D02*
X179483Y361024D01*
X171653Y359224D02*
X177684D01*
X58268Y347835D02*
X58366Y347933D01*
Y354035D01*
X58465Y354134D01*
X66191Y347884D02*
Y354183D01*
X66142Y347835D02*
X66191Y347884D01*
Y354183D02*
X66240Y354232D01*
D106*
X120598Y341535D02*
X120691Y341628D01*
Y354726D01*
X120783Y354819D01*
X129691Y354726D02*
X130181Y355217D01*
X129691Y341628D02*
Y354726D01*
X129598Y341535D02*
X129691Y341628D01*
X97244Y350000D02*
Y357256D01*
X95669Y280709D02*
Y311024D01*
X35827Y279528D02*
X74016Y317717D01*
X35827Y173898D02*
X79921Y129803D01*
X35827Y173898D02*
Y279528D01*
X74016Y317717D02*
X84646D01*
X107638Y341514D02*
Y342126D01*
X106506Y340382D02*
X107638Y341514D01*
X106506Y339577D02*
Y340382D01*
X84646Y317717D02*
X106506Y339577D01*
X79921Y114248D02*
Y129803D01*
Y114248D02*
X82913Y111256D01*
Y111024D02*
Y111256D01*
X212598Y52362D02*
X255118Y9843D01*
X360079Y232520D02*
Y238189D01*
Y232520D02*
X367126Y225472D01*
X379921D01*
X297638Y9843D02*
X335748Y47953D01*
Y112244D01*
X255118Y9843D02*
X297638D01*
X82913Y111024D02*
X83078Y110859D01*
X141575Y52362D02*
X212598D01*
X126909Y67028D02*
X141575Y52362D01*
X126909Y67028D02*
Y67972D01*
X100394Y94488D02*
X126909Y67972D01*
X89567Y94488D02*
X100394D01*
X83078Y100978D02*
Y110859D01*
Y100978D02*
X89567Y94488D01*
X387008Y163504D02*
Y218386D01*
X335748Y112244D02*
X387008Y163504D01*
X379921Y225472D02*
X387008Y218386D01*
X88189Y357705D02*
Y366142D01*
X87965Y357480D02*
X88189Y357705D01*
X147638Y170118D02*
Y174395D01*
X142552Y179481D02*
X147638Y174395D01*
X263779Y64142D02*
Y75197D01*
Y64142D02*
X275858Y52063D01*
X217839Y95769D02*
X217839D01*
X172802Y135794D02*
X181070Y127527D01*
X221482Y92126D02*
X246850D01*
X263779Y75197D01*
X217839Y95769D02*
X221482Y92126D01*
X210630Y90158D02*
X217040Y96568D01*
X215279Y98330D02*
X216253Y97355D01*
X217040Y96568D01*
X217839Y95769D01*
X141319Y163799D02*
X147638Y170118D01*
X115059Y281756D02*
X116831Y279984D01*
Y279394D02*
Y279984D01*
X118209Y252142D02*
X118799D01*
X115059Y281756D02*
Y286024D01*
X171228Y220505D02*
X179724Y229002D01*
Y234646D01*
X213583Y249634D02*
X214370Y250421D01*
X218898D01*
X223268Y254791D02*
X223858D01*
X218898Y250421D02*
X223268Y254791D01*
X223858D02*
X223878Y254811D01*
X234035D02*
X234055Y254831D01*
X223878Y254811D02*
X234035D01*
X213583Y276744D02*
X213779D01*
X214567Y277532D01*
Y288976D01*
X242089Y265748D02*
X252817Y276476D01*
X345177D02*
X370079Y251575D01*
X252817Y276476D02*
X345177D01*
X370079Y238189D02*
Y251575D01*
X223878Y263811D02*
X235284D01*
X240602Y264618D02*
X241732Y265748D01*
X235433Y264618D02*
X240602D01*
X241732Y265748D02*
X242089D01*
X235433Y263960D02*
Y264618D01*
X235284Y263811D02*
X235433Y263960D01*
X223858Y263791D02*
X223878Y263811D01*
D107*
X340382Y317547D02*
Y324972D01*
Y325028D02*
Y330878D01*
X340354Y325000D02*
X340382Y324972D01*
X340354Y325000D02*
X340382Y325028D01*
X325886Y303051D02*
X340382Y317547D01*
X335630Y335630D02*
X340382Y330878D01*
X330709Y335630D02*
X335630D01*
X321358Y303051D02*
X325886D01*
X162598Y136221D02*
X162603Y136216D01*
X172380D01*
X172770Y135827D01*
X142552Y179481D02*
X144734D01*
X146355Y181102D02*
X152559D01*
X144734Y179481D02*
X146355Y181102D01*
X162308Y146387D02*
X162763Y145932D01*
X158731Y146387D02*
X162308D01*
X154528Y150591D02*
X158731Y146387D01*
X270276Y261417D02*
X276575Y267717D01*
X220866Y226378D02*
X255906Y261417D01*
X270276D01*
X191917Y226378D02*
X220866D01*
X179679Y214141D02*
X191917Y226378D01*
X177591Y214141D02*
X179679D01*
D109*
X123251Y247024D02*
Y247690D01*
X118799Y252142D02*
X123251Y247690D01*
Y247024D02*
X123327Y246949D01*
X58563Y362894D02*
X69291D01*
X58465Y362795D02*
X58563Y362894D01*
X70079Y155512D02*
X72047Y153543D01*
X86614D01*
X70079Y155512D02*
Y159232D01*
X48821Y320396D02*
X57709D01*
X47638Y319213D02*
X48821Y320396D01*
X60148Y322835D02*
X66142D01*
X57709Y320396D02*
X60148Y322835D01*
X119587Y279394D02*
X121335Y281142D01*
X116831Y279394D02*
X119587D01*
X69291Y362894D02*
X74049Y358136D01*
X78309D01*
X48893Y365359D02*
X55901D01*
X58465Y362795D01*
X47638Y366614D02*
X48893Y365359D01*
X78309Y358136D02*
X78965Y357480D01*
X121335Y281142D02*
X130736D01*
X235630Y256405D02*
X240453D01*
X234055Y254831D02*
X235630Y256405D01*
X240453D02*
X242708Y258661D01*
X242815D01*
D110*
X144390Y339201D02*
X144783Y339595D01*
X144390Y331988D02*
Y339201D01*
X144783Y339595D02*
X145276D01*
D113*
X338583Y299134D02*
X371457D01*
X374016D01*
X371457Y362717D02*
X374016D01*
X366240Y357500D02*
X371457Y362717D01*
X338583Y362717D02*
X371457D01*
X366240Y304350D02*
X371457Y299134D01*
X366240Y338583D02*
Y357500D01*
Y304350D02*
Y338583D01*
D115*
X250991Y344587D02*
G03*
X249366Y342961I0J-1625D01*
G01*
X247740Y341281D02*
G03*
X249366Y342906I0J1625D01*
G01*
X246115Y345191D02*
G03*
X244490Y346817I-1625J0D01*
G01*
X246115Y342906D02*
G03*
X247740Y341281I1625J0D01*
G01*
X239613Y345191D02*
G03*
X237988Y346817I-1625J0D01*
G01*
X237988D02*
G03*
X236363Y345191I0J-1625D01*
G01*
X244490Y346817D02*
G03*
X242864Y345191I0J-1625D01*
G01*
X233112Y342961D02*
G03*
X231486Y344587I-1625J0D01*
G01*
X234737Y341281D02*
G03*
X236363Y342906I0J1625D01*
G01*
X239613D02*
G03*
X241239Y341281I1625J0D01*
G01*
X233112Y342906D02*
G03*
X234737Y341281I1625J0D01*
G01*
X241239D02*
G03*
X242864Y342906I0J1625D01*
G01*
X262363Y328642D02*
G03*
X260737Y327016I0J-1625D01*
G01*
X250985Y328644D02*
G03*
X249360Y330269I-1625J0D01*
G01*
X249360D02*
G03*
X247734Y328644I0J-1625D01*
G01*
X257487Y328642D02*
G03*
X255861Y330267I-1625J0D01*
G01*
X255861D02*
G03*
X254236Y328642I0J-1625D01*
G01*
X257487Y327016D02*
G03*
X259112Y325391I1625J0D01*
G01*
X259112D02*
G03*
X260737Y327016I0J1625D01*
G01*
X252610Y325230D02*
G03*
X254236Y326855I0J1625D01*
G01*
X250985D02*
G03*
X252610Y325230I1625J0D01*
G01*
X244483Y328644D02*
G03*
X242858Y330269I-1625J0D01*
G01*
X242858D02*
G03*
X241233Y328644I0J-1625D01*
G01*
X237982Y327016D02*
G03*
X236357Y328642I-1625J0D01*
G01*
X239607Y325120D02*
G03*
X241233Y326745I0J1625D01*
G01*
X244483D02*
G03*
X246109Y325120I1625J0D01*
G01*
X237982Y326745D02*
G03*
X239607Y325120I1625J0D01*
G01*
X246109D02*
G03*
X247734Y326745I0J1625D01*
G01*
X295668Y329518D02*
G03*
X297293Y327892I1625J0D01*
G01*
X295668Y329674D02*
G03*
X294043Y331299I-1625J0D01*
G01*
X297293Y327892D02*
G03*
X298919Y329518I0J1625D01*
G01*
X302169D02*
G03*
X303795Y327892I1625J0D01*
G01*
X300544Y332878D02*
G03*
X298919Y331253I0J-1625D01*
G01*
X302169D02*
G03*
X300544Y332878I-1625J0D01*
G01*
X303795Y327892D02*
G03*
X305420Y329518I0J1625D01*
G01*
X308671Y329626D02*
G03*
X310297Y328000I1625J0D01*
G01*
X310297D02*
G03*
X311922Y329626I0J1625D01*
G01*
X315173Y329674D02*
G03*
X316798Y328048I1625J0D01*
G01*
X316798D02*
G03*
X318424Y329674I0J1625D01*
G01*
X313547Y332878D02*
G03*
X311922Y331253I0J-1625D01*
G01*
X307046Y332878D02*
G03*
X305420Y331253I0J-1625D01*
G01*
X308671D02*
G03*
X307046Y332878I-1625J0D01*
G01*
X320049Y331299D02*
G03*
X318424Y329674I0J-1625D01*
G01*
X315173Y331253D02*
G03*
X313547Y332878I-1625J0D01*
G01*
X256880Y312955D02*
G03*
X255254Y314580I-1625J0D01*
G01*
X256880Y312452D02*
G03*
X258505Y310827I1625J0D01*
G01*
X255254Y314580D02*
G03*
X253629Y312955I0J-1625D01*
G01*
X252003Y310827D02*
G03*
X253629Y312452I0J1625D01*
G01*
X303741Y348710D02*
G03*
X302116Y350335I-1625J0D01*
G01*
X302116D02*
G03*
X300490Y348710I0J-1625D01*
G01*
X308617Y348031D02*
G03*
X306992Y346406I0J-1625D01*
G01*
X305366Y344683D02*
G03*
X306992Y346308I0J1625D01*
G01*
X298865Y344683D02*
G03*
X300490Y346308I0J1625D01*
G01*
X303741D02*
G03*
X305366Y344683I1625J0D01*
G01*
X297239Y348710D02*
G03*
X295614Y350335I-1625J0D01*
G01*
X295614D02*
G03*
X293989Y348710I0J-1625D01*
G01*
X290738Y346406D02*
G03*
X289112Y348031I-1625J0D01*
G01*
X290738Y346308D02*
G03*
X292363Y344683I1625J0D01*
G01*
X292363D02*
G03*
X293989Y346308I0J1625D01*
G01*
X297239D02*
G03*
X298865Y344683I1625J0D01*
G01*
X335236Y352953D02*
X338189Y355906D01*
X330709Y352953D02*
X335236D01*
X270625Y355566D02*
X326020D01*
X328038Y353548D01*
X262500Y347441D02*
X270625Y355566D01*
X330114Y353548D02*
X330709Y352953D01*
X328038Y353548D02*
X330114D01*
X250991Y344587D02*
X259646D01*
X262500Y347441D01*
X249366Y342906D02*
Y342961D01*
X247740Y341281D02*
X247740D01*
X244490Y346817D02*
X244490D01*
X242864Y342906D02*
Y345191D01*
X246115Y342906D02*
Y345191D01*
X237988Y346817D02*
X237988D01*
X239613Y342906D02*
Y345191D01*
X236363Y342906D02*
Y345191D01*
X226624Y344587D02*
X227610D01*
X231486D01*
X223327Y341289D02*
X226624Y344587D01*
X233112Y342906D02*
Y342961D01*
X241239Y341281D02*
X241239D01*
X234737D02*
X234737D01*
X339492Y337795D02*
X339764D01*
X337327Y339961D02*
X339492Y337795D01*
X283071Y339961D02*
X337327D01*
X223327Y327018D02*
X230856D01*
X232480Y328642D01*
X271752D02*
X283071Y339961D01*
X262363Y328642D02*
X266716D01*
X271752D01*
X249360Y330269D02*
X249360D01*
X255861Y330267D02*
X255861D01*
X260737Y327016D02*
Y327016D01*
X259112Y325391D02*
X259112D01*
X257487Y327016D02*
Y328642D01*
X254236Y326855D02*
Y328642D01*
X250985Y326855D02*
Y328644D01*
X252610Y325230D02*
X252610D01*
X242858Y330269D02*
X242858D01*
X244483Y326745D02*
Y328644D01*
X247734Y326745D02*
Y328644D01*
X241233Y326745D02*
Y328644D01*
X232480Y328642D02*
X236357D01*
X237982Y326745D02*
Y327016D01*
X246109Y325120D02*
X246109D01*
X239607D02*
X239607D01*
X330709Y322638D02*
X330709Y322638D01*
X322736Y310531D02*
X330709Y318504D01*
Y322638D01*
X321358Y310531D02*
X322736D01*
X321260Y310433D02*
X321358Y310531D01*
X300295Y310433D02*
X321260D01*
X291929Y302067D02*
X300295Y310433D01*
X200394Y302067D02*
X291929D01*
X179035Y306004D02*
X196457D01*
X168110Y316929D02*
X179035Y306004D01*
X196457D02*
X200394Y302067D01*
X278051Y319882D02*
X289469Y331299D01*
X295668Y329518D02*
Y329674D01*
X297293Y327892D02*
X297293D01*
X289469Y331299D02*
X290166D01*
X294043D01*
X302169Y329518D02*
Y331253D01*
X298919Y329518D02*
Y331253D01*
X300544Y332878D02*
X300544D01*
X303795Y327892D02*
X303795D01*
X310297Y328000D02*
X310297D01*
X305420Y329518D02*
Y331253D01*
X311922Y329626D02*
Y331253D01*
X316798Y328048D02*
X316798D01*
X308671Y329626D02*
Y331253D01*
X313547Y332878D02*
X313547D01*
X307046D02*
X307046D01*
X315173Y329674D02*
Y331253D01*
X318424Y329674D02*
Y329674D01*
X322835Y331299D02*
X330709D01*
X320049D02*
X322835D01*
X223327Y319882D02*
X278051D01*
X294390Y320177D02*
X316634D01*
X323425Y326969D02*
X329173D01*
X316634Y320177D02*
X323425Y326969D01*
X329173D02*
X330709D01*
X285039Y310827D02*
X294390Y320177D01*
X282579Y310827D02*
X285039D01*
X256880Y312452D02*
Y312955D01*
X258505Y310827D02*
X282579D01*
X174902Y317126D02*
X179921D01*
X255254Y314580D02*
X255254D01*
X253629Y312452D02*
Y312955D01*
X179921Y317126D02*
X186221Y310827D01*
X251378D02*
X252003D01*
X186221D02*
X251378D01*
X331299Y348031D02*
X337795D01*
X330709Y348622D02*
X331299Y348031D01*
X330118Y348031D02*
X330709Y348622D01*
X302116Y350335D02*
X302116D01*
X316339Y348031D02*
X330118D01*
X308617D02*
X316339D01*
X306992Y346308D02*
Y346406D01*
X305366Y344683D02*
X305366D01*
X300490Y346308D02*
Y348710D01*
X303741Y346308D02*
Y348710D01*
X298865Y344683D02*
X298865D01*
X295614Y350335D02*
X295614D01*
X293989Y346308D02*
Y348710D01*
X297239Y346308D02*
Y348710D01*
X292363Y344683D02*
X292363D01*
X285236Y348031D02*
X289112D01*
X277461D02*
X285236D01*
X290738Y346308D02*
Y346406D01*
X264961Y335531D02*
X277461Y348031D01*
X224812Y335531D02*
X264961D01*
X223434Y334154D02*
X224812Y335531D01*
X223327Y334154D02*
X223434D01*
D117*
X183721Y256713D02*
D03*
Y266713D02*
D03*
Y276713D02*
D03*
X87638Y342126D02*
D03*
X97638D02*
D03*
X107638D02*
D03*
X192283Y293701D02*
D03*
X360079Y238189D02*
D03*
X182283Y293701D02*
D03*
X172283D02*
D03*
X234567Y288976D02*
D03*
X224567D02*
D03*
X214567D02*
D03*
X240551Y197795D02*
D03*
Y187795D02*
D03*
Y177795D02*
D03*
X370079Y238189D02*
D03*
X380079D02*
D03*
X249606Y381496D02*
D03*
X259606D02*
D03*
X239606D02*
D03*
X240551Y224410D02*
D03*
Y214409D02*
D03*
Y234409D02*
D03*
X130886Y293701D02*
D03*
X140886D02*
D03*
X150886D02*
D03*
D118*
X66142Y337992D02*
D03*
D119*
X102756Y285433D02*
D03*
X61417Y382677D02*
D03*
X37402Y382283D02*
D03*
X290945Y257480D02*
D03*
X342126Y225590D02*
D03*
D120*
X82913Y111024D02*
D03*
X92913D02*
D03*
D121*
X45315Y223429D02*
D03*
X55158Y229335D02*
D03*
X45315Y247051D02*
D03*
Y235240D02*
D03*
X55158Y217524D02*
D03*
Y205713D02*
D03*
X45315Y258862D02*
D03*
Y270673D02*
D03*
X55158Y252957D02*
D03*
X66969Y264768D02*
D03*
X45315Y211618D02*
D03*
X76811Y235240D02*
D03*
Y258862D02*
D03*
X66969Y252957D02*
D03*
Y217524D02*
D03*
X76811Y199807D02*
D03*
Y223429D02*
D03*
Y187996D02*
D03*
X66969Y182091D02*
D03*
X76811Y211618D02*
D03*
Y176185D02*
D03*
X45315Y187996D02*
D03*
X55158Y241146D02*
D03*
X66969D02*
D03*
X45315Y199807D02*
D03*
X76811Y247051D02*
D03*
X66969Y229335D02*
D03*
X55158Y264768D02*
D03*
X66969Y205713D02*
D03*
Y193902D02*
D03*
X55158D02*
D03*
Y182091D02*
D03*
X45315Y176185D02*
D03*
D122*
X106102Y309646D02*
D03*
Y327362D02*
D03*
X80512Y309646D02*
D03*
X197047Y367520D02*
D03*
Y385236D02*
D03*
X222638D02*
D03*
X205270Y100833D02*
D03*
X192743Y113361D02*
D03*
X210838Y131456D02*
D03*
D123*
X80512Y327362D02*
D03*
X222638Y367520D02*
D03*
D124*
X223365Y118929D02*
D03*
D125*
X34409Y67716D02*
D03*
X14409D02*
D03*
D126*
X19724Y147642D02*
D03*
Y299217D02*
D03*
D127*
X76811Y270673D02*
D03*
D128*
X102913Y111024D02*
D03*
D129*
X259035Y220768D02*
D03*
X329035Y191240D02*
D03*
X259035Y210925D02*
D03*
X329035Y201083D02*
D03*
X329035Y210925D02*
D03*
Y220768D02*
D03*
X259035Y181398D02*
D03*
X259035Y201083D02*
D03*
Y191240D02*
D03*
D130*
X47516Y84177D02*
D03*
D131*
X59327Y102681D02*
D03*
D132*
X47638Y319213D02*
D03*
Y366614D02*
D03*
D133*
X58268Y337992D02*
D03*
X66142Y347835D02*
D03*
X58268D02*
D03*
D134*
X378346Y170787D02*
D03*
X386311Y22063D02*
D03*
X275858Y22063D02*
D03*
D135*
X264035Y163110D02*
D03*
X324036Y163110D02*
D03*
X324035Y248110D02*
D03*
X264035D02*
D03*
X13638Y14331D02*
D03*
X380035Y136835D02*
D03*
Y379331D02*
D03*
X13638D02*
D03*
D136*
X259035Y230610D02*
D03*
D137*
X375374Y346280D02*
D03*
Y319508D02*
D03*
D138*
X35827Y101181D02*
D03*
D139*
X115686Y293312D02*
D03*
Y300983D02*
D03*
X149213Y323917D02*
D03*
X154844Y323896D02*
D03*
X74316Y92033D02*
D03*
X84159Y82190D02*
D03*
X94488Y71638D02*
D03*
X84277Y72097D02*
D03*
X123327Y246949D02*
D03*
X120691Y348177D02*
D03*
X340354Y325000D02*
D03*
X321752Y377756D02*
D03*
X306496Y371850D02*
D03*
X97244Y350000D02*
D03*
X95669Y311024D02*
D03*
Y280709D02*
D03*
X181890Y208268D02*
D03*
X249213Y283071D02*
D03*
X212598Y319291D02*
D03*
X96457Y269291D02*
D03*
X238583Y165748D02*
D03*
X222047Y161417D02*
D03*
X227559Y145276D02*
D03*
X366929Y123622D02*
D03*
X361024Y289370D02*
D03*
X346063Y292520D02*
D03*
X364961Y371654D02*
D03*
X205512Y350590D02*
D03*
X137303Y355217D02*
D03*
X88189Y366142D02*
D03*
X162598Y136221D02*
D03*
X210630Y90158D02*
D03*
X152559Y181102D02*
D03*
X141831Y163287D02*
D03*
X118898Y25197D02*
D03*
X15748Y46260D02*
D03*
Y33465D02*
D03*
X60039Y71850D02*
D03*
X73228Y124803D02*
D03*
X12992D02*
D03*
X19685D02*
D03*
X6299D02*
D03*
X12795Y167323D02*
D03*
X53150Y124803D02*
D03*
X59842D02*
D03*
X26378D02*
D03*
X46457D02*
D03*
X23622Y180118D02*
D03*
X10827Y226378D02*
D03*
X23622D02*
D03*
X93701Y124803D02*
D03*
X100394D02*
D03*
X66535D02*
D03*
X87008D02*
D03*
X120472D02*
D03*
X127165D02*
D03*
X107087D02*
D03*
X113779D02*
D03*
X100394Y138779D02*
D03*
X125984D02*
D03*
X127559Y98425D02*
D03*
X133858Y124803D02*
D03*
X143307Y108661D02*
D03*
Y101969D02*
D03*
X138583Y120079D02*
D03*
X143307Y115354D02*
D03*
X144882Y63779D02*
D03*
X167205Y66772D02*
D03*
X148031Y90551D02*
D03*
X143307Y95276D02*
D03*
X161417Y90551D02*
D03*
X166142Y85827D02*
D03*
X154724Y90551D02*
D03*
X136188Y173117D02*
D03*
X153543Y141732D02*
D03*
X157382Y185335D02*
D03*
X10827Y261811D02*
D03*
Y281496D02*
D03*
X23622Y267717D02*
D03*
X34449Y293307D02*
D03*
X62008Y282480D02*
D03*
X78740Y291339D02*
D03*
X115059Y286024D02*
D03*
X105512Y356299D02*
D03*
X112205Y333169D02*
D03*
X106988Y375689D02*
D03*
X140059Y249539D02*
D03*
X129921Y310827D02*
D03*
X150591Y248031D02*
D03*
X165354Y237205D02*
D03*
X140354Y261910D02*
D03*
X144390Y331988D02*
D03*
X155118Y362205D02*
D03*
X183071Y66929D02*
D03*
X184646Y80709D02*
D03*
X171260D02*
D03*
X177953D02*
D03*
X204724D02*
D03*
Y66929D02*
D03*
X191339Y80709D02*
D03*
X198031D02*
D03*
X195866Y125984D02*
D03*
X218110Y80709D02*
D03*
X224803D02*
D03*
X211417D02*
D03*
X231496D02*
D03*
X220669Y208563D02*
D03*
X246890Y41969D02*
D03*
X255512Y50000D02*
D03*
X238189Y80709D02*
D03*
X255512Y63386D02*
D03*
Y56693D02*
D03*
X250394Y75197D02*
D03*
X255512Y70079D02*
D03*
X260236Y18504D02*
D03*
Y31890D02*
D03*
Y25197D02*
D03*
X255512Y36614D02*
D03*
Y43307D02*
D03*
X244882Y80709D02*
D03*
X280512Y210630D02*
D03*
X313976Y200787D02*
D03*
X179724Y234646D02*
D03*
X191929Y237205D02*
D03*
X183071Y301772D02*
D03*
X179921Y353150D02*
D03*
X242815Y258661D02*
D03*
X277559Y231299D02*
D03*
X309055Y286417D02*
D03*
X323819Y289370D02*
D03*
X338583Y243110D02*
D03*
X345768Y284154D02*
D03*
X15748Y200787D02*
D03*
Y248031D02*
D03*
X62992Y59055D02*
D03*
X86614Y153543D02*
D03*
X110236D02*
D03*
X145669Y82677D02*
D03*
X133858Y106299D02*
D03*
X145669Y129921D02*
D03*
X157480Y106299D02*
D03*
X181102D02*
D03*
X204725Y295276D02*
D03*
X228346Y106299D02*
D03*
X240158Y129921D02*
D03*
X251969Y106299D02*
D03*
Y153543D02*
D03*
Y248031D02*
D03*
Y295276D02*
D03*
X263780Y366142D02*
D03*
X287402Y35433D02*
D03*
Y82677D02*
D03*
Y129921D02*
D03*
X275591Y248031D02*
D03*
Y295276D02*
D03*
X287402Y366142D02*
D03*
X311024Y35433D02*
D03*
Y82677D02*
D03*
X299213Y106299D02*
D03*
X311024Y129921D02*
D03*
X299213Y295276D02*
D03*
X322835Y11811D02*
D03*
X334646Y35433D02*
D03*
X322835Y59055D02*
D03*
Y106299D02*
D03*
X346457Y11811D02*
D03*
X358268Y35433D02*
D03*
X346457Y59055D02*
D03*
X358268Y82677D02*
D03*
X346457Y106299D02*
D03*
X370079Y11811D02*
D03*
X381890Y35433D02*
D03*
X370079Y106299D02*
D03*
X291723Y200787D02*
D03*
X291753Y153449D02*
D03*
X290659Y177165D02*
D03*
X334646D02*
D03*
X341373Y136649D02*
D03*
X313395Y224410D02*
D03*
Y177165D02*
D03*
X366240Y338583D02*
D03*
X321014Y344144D02*
D03*
X169291Y268898D02*
D03*
X203051Y284449D02*
D03*
X198425Y273917D02*
D03*
X160138Y299311D02*
D03*
X163386Y292126D02*
D03*
X288583Y376870D02*
D03*
X74803Y82677D02*
D03*
Y72835D02*
D03*
Y62992D02*
D03*
X84646D02*
D03*
X94488D02*
D03*
Y82677D02*
D03*
X108661Y24016D02*
D03*
X134055Y143602D02*
D03*
X203976Y265945D02*
D03*
X126870Y268110D02*
D03*
Y262500D02*
D03*
X203976Y260433D02*
D03*
X202592Y178904D02*
D03*
X347227Y165337D02*
D03*
X198031Y160236D02*
D03*
X338189Y356398D02*
D03*
X223327Y341289D02*
D03*
X339764Y337795D02*
D03*
X223327Y327018D02*
D03*
X168110Y316929D02*
D03*
X322835Y335433D02*
D03*
X223327Y319882D02*
D03*
X323228Y326772D02*
D03*
X174902Y317126D02*
D03*
X337795Y348031D02*
D03*
X223327Y334154D02*
D03*
X178150Y334547D02*
D03*
X161713Y173425D02*
D03*
X179823Y169390D02*
D03*
X146457Y270709D02*
D03*
X207087Y184646D02*
D03*
X152677Y210984D02*
D03*
X160118Y225197D02*
D03*
X154528Y150591D02*
D03*
X184646Y172835D02*
D03*
X156575Y215079D02*
D03*
X151850Y202480D02*
D03*
X189055Y176299D02*
D03*
X160906Y218976D02*
D03*
X276575Y267717D02*
D03*
X177591Y214141D02*
D03*
X214567Y188976D02*
D03*
X176378Y163779D02*
D03*
X148268Y207087D02*
D03*
X194095Y153150D02*
D03*
X162402Y187992D02*
D03*
X241732Y265748D02*
D03*
X179921Y345276D02*
D03*
Y361024D02*
D03*
X137402Y349213D02*
D03*
D140*
X212598Y52362D02*
D03*
D156*
X330413Y335728D02*
D03*
X330413Y344390D02*
D03*
X330413Y353051D02*
D03*
X330413Y340059D02*
D03*
Y357382D02*
D03*
Y348721D02*
D03*
Y327067D02*
D03*
Y331398D02*
D03*
Y322736D02*
D03*
D157*
X70079Y159232D02*
D03*
X73819Y167539D02*
D03*
X66339Y167539D02*
D03*
D158*
X127395Y168038D02*
D03*
X171228Y220505D02*
D03*
X207934Y117935D02*
D03*
X177591Y214141D02*
D03*
X214298Y111571D02*
D03*
X121031Y174402D02*
D03*
D159*
X373721Y362815D02*
D03*
Y299232D02*
D03*
X338287Y362815D02*
D03*
Y299232D02*
D03*
D160*
X147234Y224833D02*
D03*
X120787Y198386D02*
D03*
D161*
X149217Y267135D02*
X153840Y262513D01*
X181842D01*
X151688Y262402D02*
X153177Y260913D01*
X181842D01*
X185328D02*
X187291D01*
X188583Y262205D01*
X184754Y260338D02*
X185328Y260913D01*
X184754Y257746D02*
Y260338D01*
X183721Y256713D02*
X184754Y257746D01*
Y263087D02*
Y265679D01*
X183721Y266713D02*
X184754Y265679D01*
X185328Y262513D02*
X186628D01*
X188288Y264173D01*
X184754Y263087D02*
X185328Y262513D01*
X182687Y257746D02*
X183721Y256713D01*
X182687Y257746D02*
Y260068D01*
X181842Y260913D02*
X182687Y260068D01*
X181842Y262513D02*
X182687Y263358D01*
Y265679D02*
X183721Y266713D01*
X182687Y263358D02*
Y265679D01*
D162*
X126977Y162761D02*
Y167621D01*
X127395Y168038D01*
X127812Y168456D02*
X131527D01*
X136188Y173117D01*
X136188D01*
X169127Y152247D02*
Y152296D01*
X187434Y133891D02*
X187960D01*
X195866Y125984D01*
X207934Y117935D02*
X209605D01*
X207934D02*
X212205Y122205D01*
X209605Y117935D02*
X212536Y120866D01*
X212205Y122205D02*
Y129345D01*
X210838Y130712D02*
Y131456D01*
Y130712D02*
X212205Y129345D01*
X219484Y120866D02*
X221422Y118929D01*
X223365D01*
X212536Y120866D02*
X219484D01*
X169127Y152247D02*
X179166Y142208D01*
Y142158D02*
Y142208D01*
Y142158D02*
X187434Y133891D01*
X134047Y143611D02*
Y155692D01*
X126977Y162761D02*
X134047Y155692D01*
Y143611D02*
X134055Y143602D01*
D163*
X322835Y335433D02*
X326969Y331299D01*
M02*
