M48
;Layer_Color=9474304
;FILE_FORMAT=2:4
INCH,TZ
;TYPE=PLATED
T01F00S00C0.0118
T02F00S00C0.0280
T03F00S00C0.0354
T04F00S00C0.0390
T05F00S00C0.0394
T07F00S00C0.0402
T08F00S00C0.0420
T09F00S00C0.0433
T10F00S00C0.0512
T11F00S00C0.0906
T12F00S00C0.0984
T13F00S00C0.1299
;TYPE=NON_PLATED
T14F00S00C0.0374
T15F00S00C0.1299
%
T01
X1575Y3346
Y4626
X6299Y5906
X7480Y6299
Y7283
Y8268
X7432Y9203
X8416Y8219
X8428Y7210
X8465Y6299
X9449
Y7164
Y8268
X6004Y7185
X14488Y6378
X14567Y8268
X14803Y9055
X15472
X16142
X14331Y9528
X11890Y2520
X10866Y2402
X16720Y6677
X18307Y6693
X18465Y8071
X17795
X17126
X16614Y8583
X19134Y8071
X19803
X20472
X21142
X21811
X22480
X23150
X23819
X24488
X25039Y7520
X25551Y7008
Y6339
Y5669
Y5000
Y4331
Y3661
X26024Y3189
Y2520
Y1850
X24689Y4197
X28740Y3543
X31102
Y8268
X28740
X21063Y9016
X20472Y6693
X32283Y5906
X34646
X35827Y3543
X33465
X32283Y1181
X34646
X37008
X38189Y3543
X35827Y8268
X34646Y10630
X32283
X37008
X36693Y12362
X34137Y13665
X34723Y16534
X33465Y17717
X33858Y24311
X31340Y22441
X31398Y20079
X29172Y20079
X28051Y21063
X27756Y23130
X27559Y24803
X25197
X22067Y20856
X21457Y18898
X20709Y18465
X20259Y17890
X18906Y17630
X18465Y17283
X17982Y16939
X17638Y16378
X19803Y16024
X19409Y15315
X19587Y12598
X18110Y10630
X22835
X25197
X24016Y12992
X22756Y14528
X22205Y16142
X23858Y16575
X25197Y15354
X29175Y15345
X29066Y17717
X31340
X31102Y12992
X28740
X29921Y10630
X18189Y20827
X17759Y21414
X17972Y23465
X19193Y23720
X16535
X16012Y22520
X16091Y21898
X15657Y21508
X15268Y21098
X14827Y20709
X15185Y20248
X15256Y18110
X15738Y18533
X16240Y18799
X16171Y17343
X13619Y17312
X14183Y16329
X15453Y15059
X15354Y14173
X16260Y13622
X14567Y12992
X13386Y12480
X12717
X12047
X11378
X10709
X10039
X9370
X8701
X7323
X6654
X5984
X5315
X4646
X2638
X1969
X1299
X1280Y16732
X2362Y18012
X1575Y20079
X1083Y22638
X2362
X1575Y24803
X12333Y24695
X14006Y24954
X15059Y24803
X13406Y14360
X12598Y13878
X10039
X11024Y15354
X8661
X13858Y12008
X14331Y11535
Y10866
Y10197
X13386Y10630
X12756Y9843
X15748Y10630
X630Y12480
X1083Y26181
X2362Y26772
X1083Y28150
X3445Y29331
X6201Y28248
X7874Y29134
X9567Y28071
X9646Y26929
X12687Y26811
Y26250
X14035Y26191
X14646Y27071
X16014Y29931
X15484Y32390
X14921Y32392
X14439Y33199
X13740Y34921
X13730Y35522
X12069Y34818
X10551Y35630
X9724Y35000
X8819Y36614
X10699Y37569
X11220Y33317
X11569Y30098
Y29331
X11506Y28602
X12992Y31083
X9567Y31102
X15512Y36220
X17992Y36102
Y35315
Y34528
X17815Y33455
X17490Y31713
X16811Y31693
X16339Y29213
X16929Y26890
X19843Y27392
X20398Y26594
X20398Y26043
X20305Y28445
X20472Y29528
X18307Y30177
X21260Y31929
X22333Y31988
Y32702
Y33415
Y34129
X20551Y35059
X26378Y36614
X28740
X28858Y37687
X30650Y37185
X29921Y29528
X30906Y28642
X27559Y29528
X25197
X24921Y28307
X24173Y26575
X24281Y25866
X27657Y26772
X32382Y28937
X34606Y29252
X34577Y28415
X36102Y28937
X36624Y33858
X33976Y33780
X33780Y34803
X33819Y35640
X32101Y34414
X32283Y33543
X32323Y32677
X34035Y32500
X36496Y37165
X32175Y37776
T02
X21260Y5236
X10291Y11102
X9291
X8291
T03
X1441Y6772
X3441
X32904Y19124
X32904Y20108
X32904Y21093
Y22077
X25904
Y21093
X25904Y20108
Y19124
X25904Y18140
Y23061
X6614Y33799
X5827
Y34783
X6614
T04
X20527Y10083
X19274Y11336
X21084Y13146
X22337Y11893
X10610Y30965
Y32736
X8051
Y30965
X19705Y36752
Y38524
X22264
Y36752
T05
X34213Y22559
X10276Y28543
X6142Y38268
X3740Y38228
X29094Y25748
T07
X27586Y2206
Y3206
Y4206
Y5206
X27586Y6206
X27586Y7206
Y8206
Y9206
X38631Y9206
Y8206
Y7206
Y6206
Y5206
Y4206
Y3206
Y2206
Y10206
Y11206
Y12206
X37835Y17079
Y18079
Y19079
X36835
Y18079
Y17079
Y20079
Y21079
X37835Y21079
X37835Y20079
X27586Y12206
Y11206
Y10206
T08
X36008Y23819
X37008
X38008
X24055Y23441
Y22441
Y21441
Y19780
Y18780
Y17780
X15089Y29370
X14089
X13089
X10764Y34213
X9764
X8764
X17228Y29370
X18228
X19228
X18372Y27671
Y26671
Y25671
X21457Y28898
X22457
X23457
X23961Y38150
X24961
X25961
T09
X27657Y28671
Y36742
T10
X4532Y17618
Y18800
Y19981
Y21162
Y22343
Y23524
Y24705
X5516Y25296
X6697
Y24115
X5516
Y22933
Y21752
X6697
Y22933
X7681Y23524
Y22343
Y21162
Y19981
Y18800
Y17618
X6697Y18209
Y19390
Y20571
X5516
Y19390
Y18209
X7681Y24705
Y25886
Y27067
X6697Y26477
X5516
X4532Y25886
Y27067
T11
X4764Y31921
Y36661
T12
X32404Y16311
X32404Y24811
X26404
Y16311
T13
X1364Y1433
X38004Y13683
X1364Y37933
X38004
T14
X37537Y31951
Y34628
T15
X1972Y14764
Y29922
M30
