G04*
G04 #@! TF.GenerationSoftware,Altium Limited,Altium Designer,25.7.1 (20)*
G04*
G04 Layer_Color=128*
%FSLAX25Y25*%
%MOIN*%
G70*
G04*
G04 #@! TF.SameCoordinates,2BE7CE8E-90D8-463F-AC12-6E4C0CB6A4A3*
G04*
G04*
G04 #@! TF.FilePolarity,Positive*
G04*
G01*
G75*
G04:AMPARAMS|DCode=23|XSize=39.37mil|YSize=66.93mil|CornerRadius=4.92mil|HoleSize=0mil|Usage=FLASHONLY|Rotation=270.000|XOffset=0mil|YOffset=0mil|HoleType=Round|Shape=RoundedRectangle|*
%AMROUNDEDRECTD23*
21,1,0.03937,0.05709,0,0,270.0*
21,1,0.02953,0.06693,0,0,270.0*
1,1,0.00984,-0.02854,-0.01476*
1,1,0.00984,-0.02854,0.01476*
1,1,0.00984,0.02854,0.01476*
1,1,0.00984,0.02854,-0.01476*
%
%ADD23ROUNDEDRECTD23*%
G04:AMPARAMS|DCode=26|XSize=55.12mil|YSize=66.93mil|CornerRadius=6.89mil|HoleSize=0mil|Usage=FLASHONLY|Rotation=180.000|XOffset=0mil|YOffset=0mil|HoleType=Round|Shape=RoundedRectangle|*
%AMROUNDEDRECTD26*
21,1,0.05512,0.05315,0,0,180.0*
21,1,0.04134,0.06693,0,0,180.0*
1,1,0.01378,-0.02067,0.02657*
1,1,0.01378,0.02067,0.02657*
1,1,0.01378,0.02067,-0.02657*
1,1,0.01378,-0.02067,-0.02657*
%
%ADD26ROUNDEDRECTD26*%
G04:AMPARAMS|DCode=27|XSize=39.37mil|YSize=66.93mil|CornerRadius=4.92mil|HoleSize=0mil|Usage=FLASHONLY|Rotation=180.000|XOffset=0mil|YOffset=0mil|HoleType=Round|Shape=RoundedRectangle|*
%AMROUNDEDRECTD27*
21,1,0.03937,0.05709,0,0,180.0*
21,1,0.02953,0.06693,0,0,180.0*
1,1,0.00984,-0.01476,0.02854*
1,1,0.00984,0.01476,0.02854*
1,1,0.00984,0.01476,-0.02854*
1,1,0.00984,-0.01476,-0.02854*
%
%ADD27ROUNDEDRECTD27*%
G04:AMPARAMS|DCode=34|XSize=55.12mil|YSize=66.93mil|CornerRadius=6.89mil|HoleSize=0mil|Usage=FLASHONLY|Rotation=270.000|XOffset=0mil|YOffset=0mil|HoleType=Round|Shape=RoundedRectangle|*
%AMROUNDEDRECTD34*
21,1,0.05512,0.05315,0,0,270.0*
21,1,0.04134,0.06693,0,0,270.0*
1,1,0.01378,-0.02657,-0.02067*
1,1,0.01378,-0.02657,0.02067*
1,1,0.01378,0.02657,0.02067*
1,1,0.01378,0.02657,-0.02067*
%
%ADD34ROUNDEDRECTD34*%
G04:AMPARAMS|DCode=35|XSize=55.12mil|YSize=66.93mil|CornerRadius=6.89mil|HoleSize=0mil|Usage=FLASHONLY|Rotation=225.000|XOffset=0mil|YOffset=0mil|HoleType=Round|Shape=RoundedRectangle|*
%AMROUNDEDRECTD35*
21,1,0.05512,0.05315,0,0,225.0*
21,1,0.04134,0.06693,0,0,225.0*
1,1,0.01378,-0.03341,0.00418*
1,1,0.01378,-0.00418,0.03341*
1,1,0.01378,0.03341,-0.00418*
1,1,0.01378,0.00418,-0.03341*
%
%ADD35ROUNDEDRECTD35*%
%ADD40R,0.01968X0.01968*%
G04:AMPARAMS|DCode=43|XSize=39.37mil|YSize=66.93mil|CornerRadius=4.92mil|HoleSize=0mil|Usage=FLASHONLY|Rotation=225.000|XOffset=0mil|YOffset=0mil|HoleType=Round|Shape=RoundedRectangle|*
%AMROUNDEDRECTD43*
21,1,0.03937,0.05709,0,0,225.0*
21,1,0.02953,0.06693,0,0,225.0*
1,1,0.00984,-0.03062,0.00974*
1,1,0.00984,-0.00974,0.03062*
1,1,0.00984,0.03062,-0.00974*
1,1,0.00984,0.00974,-0.03062*
%
%ADD43ROUNDEDRECTD43*%
%ADD156R,0.05512X0.02441*%
%ADD157R,0.02323X0.04882*%
G04:AMPARAMS|DCode=158|XSize=55.12mil|YSize=66.93mil|CornerRadius=6.89mil|HoleSize=0mil|Usage=FLASHONLY|Rotation=315.000|XOffset=0mil|YOffset=0mil|HoleType=Round|Shape=RoundedRectangle|*
%AMROUNDEDRECTD158*
21,1,0.05512,0.05315,0,0,315.0*
21,1,0.04134,0.06693,0,0,315.0*
1,1,0.01378,-0.00418,-0.03341*
1,1,0.01378,-0.03341,-0.00418*
1,1,0.01378,0.00418,0.03341*
1,1,0.01378,0.03341,0.00418*
%
%ADD158ROUNDEDRECTD158*%
%ADD159R,0.09449X0.04331*%
G04:AMPARAMS|DCode=160|XSize=216.54mil|YSize=78.74mil|CornerRadius=0mil|HoleSize=0mil|Usage=FLASHONLY|Rotation=45.000|XOffset=0mil|YOffset=0mil|HoleType=Round|Shape=Rectangle|*
%AMROTATEDRECTD160*
4,1,4,-0.04872,-0.10440,-0.10440,-0.04872,0.04872,0.10440,0.10440,0.04872,-0.04872,-0.10440,0.0*
%
%ADD160ROTATEDRECTD160*%

D23*
X321358Y303051D02*
D03*
Y310531D02*
D03*
D26*
X97469Y357480D02*
D03*
X129783Y354819D02*
D03*
X87965Y357480D02*
D03*
X129598Y341535D02*
D03*
X78965Y357480D02*
D03*
X106468D02*
D03*
X130736Y281142D02*
D03*
X120783Y354819D02*
D03*
X120598Y341535D02*
D03*
X139736Y281142D02*
D03*
D27*
X358268Y371654D02*
D03*
X350787D02*
D03*
D34*
X118209Y252142D02*
D03*
Y278606D02*
D03*
X145276Y339595D02*
D03*
X213583Y249634D02*
D03*
X223858Y254791D02*
D03*
X234055Y254831D02*
D03*
X171653Y350224D02*
D03*
X213583Y276744D02*
D03*
X118209Y269606D02*
D03*
X213583Y267744D02*
D03*
X118209Y261142D02*
D03*
X213583Y258634D02*
D03*
X171653Y359224D02*
D03*
X234055Y263831D02*
D03*
X223858Y263791D02*
D03*
X145276Y348594D02*
D03*
D35*
X142552Y179481D02*
D03*
X181070Y127527D02*
D03*
X139993Y162473D02*
D03*
X172802Y135794D02*
D03*
X133629Y156109D02*
D03*
X136188Y173117D02*
D03*
X169127Y152296D02*
D03*
X187434Y133891D02*
D03*
X179166Y142158D02*
D03*
X162763Y145932D02*
D03*
D40*
X66142Y331496D02*
D03*
Y322835D02*
D03*
X58465Y362795D02*
D03*
X66240Y362894D02*
D03*
Y354232D02*
D03*
X58465Y354134D02*
D03*
D43*
X216253Y97355D02*
D03*
X133196Y184731D02*
D03*
X221542Y102645D02*
D03*
X127907Y179442D02*
D03*
D156*
X330413Y335728D02*
D03*
X330413Y344390D02*
D03*
X330413Y353051D02*
D03*
X330413Y340059D02*
D03*
Y357382D02*
D03*
Y348721D02*
D03*
Y327067D02*
D03*
Y331398D02*
D03*
Y322736D02*
D03*
D157*
X70079Y159232D02*
D03*
X73819Y167539D02*
D03*
X66339Y167539D02*
D03*
D158*
X127395Y168038D02*
D03*
X171228Y220505D02*
D03*
X207934Y117935D02*
D03*
X177591Y214141D02*
D03*
X214298Y111571D02*
D03*
X121031Y174402D02*
D03*
D159*
X373721Y362815D02*
D03*
Y299232D02*
D03*
X338287Y362815D02*
D03*
Y299232D02*
D03*
D160*
X147234Y224833D02*
D03*
X120787Y198386D02*
D03*
M02*
