G04*
G04 #@! TF.GenerationSoftware,Altium Limited,Altium Designer,25.7.1 (20)*
G04*
G04 Layer_Color=16711935*
%FSLAX25Y25*%
%MOIN*%
G70*
G04*
G04 #@! TF.SameCoordinates,2BE7CE8E-90D8-463F-AC12-6E4C0CB6A4A3*
G04*
G04*
G04 #@! TF.FilePolarity,Positive*
G04*
G01*
G75*
%ADD10C,0.00787*%
%ADD11C,0.02000*%
%ADD12C,0.01575*%
%ADD13C,0.00500*%
%ADD14C,0.00600*%
%ADD15C,0.00689*%
%ADD16C,0.01000*%
%ADD169C,0.00945*%
%ADD171C,0.00394*%
%ADD172C,0.00000*%
%ADD173C,0.00591*%
G36*
X144882Y72835D02*
X143898D01*
Y78150D01*
X144882D01*
Y72835D01*
D02*
G37*
G36*
X166339D02*
X165354D01*
Y78150D01*
X166339D01*
Y72835D01*
D02*
G37*
D10*
X207283Y270669D02*
G03*
X207283Y270669I-394J0D01*
G01*
X360827Y280217D02*
G03*
X360827Y280217I-394J0D01*
G01*
X75394Y357480D02*
G03*
X75394Y357480I-394J0D01*
G01*
X160118Y274724D02*
G03*
X160118Y274724I-394J0D01*
G01*
X90098Y11024D02*
G03*
X90098Y11024I-394J0D01*
G01*
X108307Y111024D02*
G03*
X108307Y111024I-394J0D01*
G01*
X127165Y46850D02*
G03*
X127165Y46850I-394J0D01*
G01*
X378740Y148228D02*
G03*
X378740Y148228I-394J0D01*
G01*
X339370Y210236D02*
G03*
X339370Y210236I-394J0D01*
G01*
X170249Y198941D02*
G03*
X170249Y198941I-394J0D01*
G01*
X110925Y272933D02*
G03*
X110925Y272933I-394J0D01*
G01*
X66634Y366437D02*
G03*
X66634Y366437I-394J0D01*
G01*
X66535Y316339D02*
G03*
X66535Y316339I-394J0D01*
G01*
X212598Y33465D02*
G03*
X212598Y33465I-394J0D01*
G01*
X49902Y77067D02*
G03*
X49902Y77067I-394J0D01*
G01*
X129921Y57480D02*
G03*
X129921Y57480I-394J0D01*
G01*
X386705Y14504D02*
G03*
X386705Y14504I-394J0D01*
G01*
X276252D02*
G03*
X276252Y14504I-394J0D01*
G01*
X66535Y319291D02*
G03*
X66535Y319291I-394J0D01*
G01*
X58858Y366339D02*
G03*
X58858Y366339I-394J0D01*
G01*
X66732Y172244D02*
G03*
X66732Y172244I-394J0D01*
G01*
X181648Y150335D02*
X183503Y152190D01*
X181648D02*
X183503Y150335D01*
X138976Y23491D02*
Y26115D01*
X137664Y24803D02*
X140288D01*
X236233Y44567D02*
X233609D01*
X234921Y43255D02*
Y45879D01*
X127264Y305643D02*
Y303019D01*
X128576Y304331D02*
X125952D01*
X348031Y265485D02*
Y262861D01*
X349343Y264173D02*
X346720D01*
X122047Y357217D02*
Y354594D01*
X123359Y355906D02*
X120735D01*
D11*
X191220Y255213D02*
G03*
X191220Y258213I0J1500D01*
G01*
D02*
G03*
X191220Y255213I0J-1500D01*
G01*
X89138Y334626D02*
G03*
X86138Y334626I-1500J0D01*
G01*
D02*
G03*
X89138Y334626I1500J0D01*
G01*
X190783Y301201D02*
G03*
X193783Y301201I1500J0D01*
G01*
D02*
G03*
X190783Y301201I-1500J0D01*
G01*
X233067Y296476D02*
G03*
X236067Y296476I1500J0D01*
G01*
D02*
G03*
X233067Y296476I-1500J0D01*
G01*
X233051Y196295D02*
G03*
X233051Y199295I0J1500D01*
G01*
D02*
G03*
X233051Y196295I0J-1500D01*
G01*
X381579Y245689D02*
G03*
X378579Y245689I-1500J0D01*
G01*
D02*
G03*
X381579Y245689I1500J0D01*
G01*
X258106Y388996D02*
G03*
X261106Y388996I1500J0D01*
G01*
D02*
G03*
X258106Y388996I-1500J0D01*
G01*
X248051Y215910D02*
G03*
X248051Y212910I0J-1500D01*
G01*
D02*
G03*
X248051Y215910I0J1500D01*
G01*
X129386Y286201D02*
G03*
X132386Y286201I1500J0D01*
G01*
D02*
G03*
X129386Y286201I-1500J0D01*
G01*
D12*
X81299Y327362D02*
G03*
X81299Y327362I-787J0D01*
G01*
X223425Y367520D02*
G03*
X223425Y367520I-787J0D01*
G01*
X224153Y118929D02*
G03*
X224153Y118929I-787J0D01*
G01*
X77559Y302854D02*
G03*
X77559Y302854I-787J0D01*
G01*
D13*
X100197Y318504D02*
G03*
X100197Y318504I-6890J0D01*
G01*
X216732Y376378D02*
G03*
X216732Y376378I-6890J0D01*
G01*
X214944Y116145D02*
G03*
X214944Y116145I-6890J0D01*
G01*
X214685Y253346D02*
X230394D01*
X214685Y273031D02*
X230394D01*
Y253346D02*
Y273031D01*
X214685Y253346D02*
Y273031D01*
X366722Y280128D02*
X380522D01*
Y254518D02*
Y280128D01*
X366722Y254518D02*
X380522D01*
X366722D02*
Y280128D01*
X75384Y363573D02*
Y377372D01*
X100994D01*
Y363573D02*
Y377372D01*
X75384Y363573D02*
X100994D01*
X81516Y330295D02*
X105098D01*
Y306713D02*
Y330295D01*
X81516Y306713D02*
X105098D01*
X81516D02*
Y330295D01*
X198051Y364587D02*
X221634D01*
X198051D02*
Y388169D01*
X221634D01*
Y364587D02*
Y388169D01*
X208054Y99469D02*
X224729Y116145D01*
X191378D02*
X208054Y99469D01*
X191378Y116145D02*
X208054Y132820D01*
X224729Y116145D01*
X7972Y75590D02*
X40846D01*
Y59842D02*
Y75590D01*
X7972Y59842D02*
X40846D01*
X7972D02*
Y75590D01*
X149291Y273543D02*
X154409D01*
X149291D02*
Y284961D01*
X154409D01*
Y273543D02*
Y284961D01*
X5945Y133862D02*
Y147642D01*
Y133862D02*
X33504D01*
Y147642D01*
X5945Y299217D02*
Y312996D01*
X33504D01*
Y299217D02*
Y312996D01*
X87638Y147642D02*
Y299217D01*
X33504Y147642D02*
X87638D01*
X-56063D02*
X5945D01*
X-56063D02*
Y299217D01*
X5945D01*
X33504D02*
X87638D01*
X38071Y47559D02*
X73819D01*
Y7559D02*
Y47559D01*
X38071Y7559D02*
X73819D01*
X38071D02*
Y47559D01*
X111673Y101496D02*
Y120512D01*
X74154D02*
X111673D01*
X74154Y101496D02*
Y120512D01*
Y101496D02*
X111673D01*
X129331Y44291D02*
X135236Y38386D01*
X135236Y11614D02*
X135236Y38386D01*
X102559Y11614D02*
X135236D01*
X102559Y38386D02*
X102559Y11614D01*
X102559Y38386D02*
X108465Y44291D01*
X129331D01*
X354547Y230787D02*
X390846D01*
X354547Y150787D02*
Y230787D01*
Y150787D02*
X390846D01*
X390846Y230787D02*
X390846Y150787D01*
X354547Y230787D02*
X390846D01*
X354547Y150787D02*
Y230787D01*
Y150787D02*
X390846D01*
X343504Y212697D02*
X350197D01*
Y207776D02*
Y212697D01*
X343504Y207776D02*
X350197D01*
X343504D02*
Y212697D01*
X170551Y148970D02*
X198947Y177366D01*
X142156D02*
X170551Y205762D01*
X198947Y177366D01*
X142156D02*
X170551Y148970D01*
X118622Y255532D02*
X134331D01*
X118622Y275217D02*
X134331D01*
Y255532D02*
Y275217D01*
X118622Y255532D02*
Y275217D01*
X63779Y361910D02*
X68701D01*
Y355217D02*
Y361910D01*
X63779Y355217D02*
X68701D01*
X63779D02*
Y361910D01*
X5390Y84965D02*
X62083D01*
X5390D02*
Y120398D01*
X62083D01*
Y84965D02*
Y120398D01*
X111461Y202422D02*
X143198Y234159D01*
X156560Y220796D01*
X124824Y189060D02*
X156560Y220796D01*
X111461Y202422D02*
X124824Y189060D01*
X214764Y36024D02*
X220669Y41929D01*
X247441Y41929D01*
Y9252D02*
Y41929D01*
X220669Y9252D02*
X247441Y9252D01*
X214764Y15157D02*
X220669Y9252D01*
X214764Y15157D02*
Y36024D01*
X51968Y65847D02*
Y72539D01*
X47047Y65847D02*
X51968D01*
X47047D02*
Y72539D01*
X51968D01*
X113406Y95984D02*
X113406Y55984D01*
X78268Y95984D02*
X113406D01*
X78268Y55984D02*
Y95984D01*
Y55984D02*
X113406D01*
X68602Y323819D02*
Y330512D01*
X63681D02*
X68602D01*
X63681Y323819D02*
Y330512D01*
Y323819D02*
X68602D01*
X56004Y355118D02*
Y361811D01*
Y355118D02*
X60925D01*
Y361811D01*
X56004D02*
X60925D01*
X64331Y160827D02*
X64331Y165945D01*
X64331Y160827D02*
X75827Y160827D01*
X75827Y165945D01*
X64331Y165945D02*
X75827Y165945D01*
D14*
X178821Y281713D02*
X188620D01*
Y251713D02*
Y281713D01*
X178821Y251713D02*
X188620D01*
X178821D02*
Y281713D01*
X82638Y347026D02*
X112638D01*
X82638Y337226D02*
Y347026D01*
Y337226D02*
X112638D01*
Y347026D01*
X167283Y288801D02*
X197283D01*
Y298601D01*
X167283D02*
X197283D01*
X167283Y288801D02*
Y298601D01*
X209567Y284076D02*
X239567D01*
Y293876D01*
X209567D02*
X239567D01*
X209567Y284076D02*
Y293876D01*
X245451Y172795D02*
Y202795D01*
X235651D02*
X245451D01*
X235651Y172795D02*
Y202795D01*
Y172795D02*
X245451D01*
X355079Y233289D02*
Y243089D01*
X385079D01*
Y233289D02*
Y243089D01*
X355079Y233289D02*
X385079D01*
X234606Y376596D02*
X264606D01*
Y386396D01*
X234606D02*
X264606D01*
X234606Y376596D02*
Y386396D01*
X235651Y209409D02*
Y239409D01*
Y209409D02*
X245451D01*
Y239409D01*
X235651D02*
X245451D01*
X155886Y288801D02*
Y298601D01*
X125886Y288801D02*
X155886D01*
X125886D02*
Y298601D01*
X155886D01*
X204515Y31890D02*
X204515Y56090D01*
X204515Y31890D02*
X204515Y7690D01*
X156115D02*
X204515D01*
X156115D02*
Y56090D01*
X204515D01*
D15*
X179235Y132888D02*
X189257Y142911D01*
X182576Y149592D02*
X189257Y142911D01*
X172554Y139570D02*
X182576Y149592D01*
X172554Y139570D02*
X179235Y132888D01*
X341252Y353472D02*
Y362472D01*
X327252Y353472D02*
X341252D01*
X327252D02*
Y362472D01*
X341252Y362472D01*
X319772Y331327D02*
X333772D01*
Y340327D01*
X319772D02*
X333772D01*
X319772Y331327D02*
Y340327D01*
X178813Y148169D02*
X185177Y141805D01*
X166792Y136148D02*
X178813Y148169D01*
X166792Y136148D02*
X173156Y129784D01*
X185177Y141805D01*
X127619Y156463D02*
X133983Y150099D01*
X146003Y162120D01*
X139639Y168484D02*
X146003Y162120D01*
X127619Y156463D02*
X139639Y168484D01*
X163117Y139922D02*
X175137Y151943D01*
X156753Y146286D02*
X163117Y139922D01*
X156753Y146286D02*
X168773Y158307D01*
X175137Y151943D01*
X180254Y131992D02*
X190154Y141892D01*
X180254Y131992D02*
X186618Y125628D01*
X196518Y135528D01*
X190154Y141892D02*
X196518Y135528D01*
X350307Y331720D02*
Y340721D01*
X336307Y331720D02*
X350307D01*
X336307D02*
Y340721D01*
X350307D01*
X126504Y244595D02*
Y253594D01*
X140504D01*
Y244595D02*
Y253594D01*
X126504Y244595D02*
X140504D01*
X201437Y171187D02*
X213458Y183208D01*
X201437Y171187D02*
X207802Y164823D01*
X219822Y176844D01*
X213458Y183208D02*
X219822Y176844D01*
X113709Y248142D02*
X122709D01*
Y265142D01*
X113709D02*
X122709D01*
X113709Y248142D02*
Y265142D01*
Y282606D02*
X122709D01*
X113709Y265606D02*
Y282606D01*
Y265606D02*
X122709D01*
Y282606D01*
X126736Y276642D02*
Y285642D01*
Y276642D02*
X143736D01*
X143736Y285642D02*
X143736Y276642D01*
X126736Y285642D02*
X143736D01*
X160035Y254516D02*
Y263516D01*
X143035Y254516D02*
X160035D01*
X143035Y263516D02*
X143035Y254516D01*
X143035Y263516D02*
X160035Y263516D01*
X162508Y264283D02*
X171508D01*
X171508Y250284D02*
X171508Y264283D01*
X162508Y250284D02*
X171508D01*
X162508Y264283D02*
X162508Y250284D01*
X171581Y226515D02*
X183602Y214494D01*
X177238Y208130D02*
X183602Y214494D01*
X165217Y220151D02*
X177238Y208130D01*
X165217Y220151D02*
X171581Y226515D01*
X201268Y212768D02*
X215268D01*
X201268Y203768D02*
Y212768D01*
Y203768D02*
X215268D01*
Y212768D01*
X160736Y286724D02*
X169736D01*
Y272724D02*
Y286724D01*
X160736Y272724D02*
X169736D01*
X160736D02*
Y286724D01*
X229555Y250831D02*
X238555Y250831D01*
X238555Y267831D01*
X229555Y267831D02*
X238555Y267831D01*
X229555Y267831D02*
X229555Y250831D01*
X219358Y250791D02*
X228358Y250791D01*
X228358Y267791D01*
X219358Y267791D02*
X228358Y267791D01*
X219358Y250791D02*
X219358Y267791D01*
X209083Y280744D02*
X218083D01*
X209083D02*
X209083Y263744D01*
X218083Y263744D01*
Y280744D01*
X198610Y255661D02*
X207610D01*
Y241661D02*
Y255661D01*
X198610Y241661D02*
X207610D01*
X198610D02*
Y255661D01*
X209083Y245634D02*
X218083D01*
Y262634D01*
X209083D02*
X218083D01*
X209083D02*
X209083Y245634D01*
X149606Y9449D02*
Y23622D01*
X140157Y23622D02*
X149606Y23622D01*
X140157Y9449D02*
Y23622D01*
Y9449D02*
X149606Y9449D01*
X149382Y26465D02*
Y40465D01*
X140382Y40465D02*
X149382Y40465D01*
X140382Y40465D02*
X140382Y26465D01*
X149382D01*
X117547Y104024D02*
X126547D01*
X117547D02*
Y118024D01*
X126547Y118024D01*
X126547Y104024D02*
X126547Y118024D01*
X140382Y43468D02*
Y60469D01*
Y43468D02*
X149382D01*
Y60469D01*
X140382D02*
X149382D01*
X234559Y54894D02*
X234559Y45894D01*
X220559Y45894D02*
X234559Y45894D01*
X220559Y45894D02*
Y54894D01*
X234559Y54894D01*
X250276Y55197D02*
X250276Y45748D01*
X236102D02*
X250276D01*
X236102Y55197D02*
X236102Y45748D01*
X236102Y55197D02*
X250276D01*
X237634Y59673D02*
Y68673D01*
X220634Y59673D02*
X237634D01*
X220634D02*
Y68673D01*
X237634D01*
X130178Y173471D02*
X142199Y185492D01*
X148563Y179128D01*
X136542Y167107D02*
X148563Y179128D01*
X130178Y173471D02*
X136542Y167107D01*
X170439Y214193D02*
X182460Y226214D01*
X176096Y232578D02*
X182460Y226214D01*
X164075Y220557D02*
X176096Y232578D01*
X164075Y220557D02*
X170439Y214193D01*
X181423Y121516D02*
X193444Y133537D01*
X175060Y127880D02*
X181423Y121516D01*
X175060Y127880D02*
X187080Y139901D01*
X193444Y133537D01*
X189646Y230656D02*
X196010Y224292D01*
X183990Y212271D02*
X196010Y224292D01*
X177626Y218635D02*
X183990Y212271D01*
X177626Y218635D02*
X189646Y230656D01*
X115020Y174049D02*
X121384Y180413D01*
X115020Y174049D02*
X127041Y162028D01*
X133405Y168392D01*
X121384Y180413D02*
X133405Y168392D01*
X128783Y173955D02*
X138683Y183854D01*
X122419Y180319D02*
X128783Y173955D01*
X122419Y180319D02*
X132319Y190218D01*
X138683Y183854D01*
X347528Y376153D02*
X361528D01*
Y367154D02*
Y376153D01*
X347528Y367154D02*
X361528D01*
X347528D02*
Y376153D01*
X217130Y91868D02*
X227029Y101768D01*
X210766Y98232D02*
X217130Y91868D01*
X210766Y98232D02*
X220665Y108132D01*
X227029Y101768D01*
X201924Y117581D02*
X208288Y123945D01*
X201924Y117581D02*
X213945Y105560D01*
X220308Y111924D01*
X208288Y123945D02*
X220308Y111924D01*
X316858Y313791D02*
X325858D01*
X316858Y299791D02*
Y313791D01*
Y299791D02*
X325858D01*
Y313791D01*
X319772Y320303D02*
Y329303D01*
X333772Y329303D01*
Y320303D02*
Y329303D01*
X319772Y320303D02*
X333772Y320303D01*
X341252Y342350D02*
Y351350D01*
X327252Y342350D02*
X341252D01*
X327252D02*
Y351350D01*
X341252D01*
X116634Y319685D02*
X126083D01*
Y305512D02*
Y319685D01*
X116634Y305512D02*
X126083D01*
X116634D02*
Y319685D01*
X338744Y252587D02*
Y261587D01*
X355744D01*
Y252587D02*
Y261587D01*
X338744Y252587D02*
X355744D01*
X347075Y263941D02*
Y280941D01*
Y263941D02*
X356075D01*
Y280941D01*
X347075D02*
X356075D01*
X337402Y279528D02*
X346850D01*
Y265354D02*
Y279528D01*
X337402Y265354D02*
X346850D01*
X337402D02*
Y279528D01*
X327390Y273315D02*
Y287315D01*
Y273315D02*
X336390D01*
Y287315D01*
X327390D02*
X336390D01*
X191563Y347331D02*
Y361331D01*
Y347331D02*
X200563D01*
Y361331D01*
X191563D02*
X200563D01*
X209673Y347331D02*
Y361331D01*
Y347331D02*
X218673D01*
Y361331D01*
X209673D02*
X218673D01*
X336382Y318673D02*
X353382D01*
X336382Y309673D02*
Y318673D01*
Y309673D02*
X353382D01*
Y318673D01*
X336382Y329697D02*
X353382D01*
X336382Y320697D02*
Y329697D01*
Y320697D02*
X353382D01*
Y329697D01*
X167154Y363224D02*
X176154D01*
X167154Y346224D02*
Y363224D01*
Y346224D02*
X176154D01*
Y363224D01*
X116760Y320756D02*
X125760D01*
X116760D02*
Y334756D01*
X125760D01*
Y320756D02*
Y334756D01*
X140776Y352594D02*
X149776D01*
X140776Y335595D02*
Y352594D01*
Y335595D02*
X149776D01*
Y352594D01*
X116783Y350319D02*
X133783D01*
X116783D02*
Y359319D01*
X133783D01*
Y350319D02*
Y359319D01*
X116598Y337035D02*
X133598D01*
X116598D02*
Y346035D01*
X133598D01*
Y337035D02*
Y346035D01*
X111417Y357087D02*
Y371260D01*
Y357087D02*
X120866D01*
Y371260D01*
X111417D02*
X120866D01*
X119992Y379358D02*
Y388358D01*
X105992Y379358D02*
X119992D01*
X105992D02*
Y388358D01*
X119992D01*
X110468Y352980D02*
Y361980D01*
X93468D02*
X110468D01*
X93468Y352980D02*
Y361980D01*
Y352980D02*
X110468D01*
X74965D02*
Y361980D01*
Y352980D02*
X91965D01*
Y361980D01*
X74965D02*
X91965D01*
D16*
X145276Y80905D02*
X164961D01*
Y70276D02*
Y80905D01*
X145276Y70276D02*
X164961D01*
X145276D02*
Y80905D01*
D169*
X326634Y320295D02*
G03*
X326634Y320295I-472J0D01*
G01*
D171*
X318898Y327067D02*
G03*
X318898Y327067I-42323J0D01*
G01*
X391043Y308484D02*
Y360650D01*
X332972D02*
X391043D01*
X332972Y301398D02*
Y360650D01*
X391043Y308484D02*
X392028D01*
Y304153D02*
Y308484D01*
X391043Y304153D02*
X392028D01*
X391043Y301398D02*
Y304153D01*
X332972Y301398D02*
X391043D01*
X6693Y366732D02*
X70473D01*
X6693Y319094D02*
Y366732D01*
Y319094D02*
X70473D01*
Y366732D01*
X381311Y17063D02*
X391311D01*
Y127063D01*
X381311D02*
X391311D01*
X381311Y17063D02*
X381311Y127063D01*
X381311Y17063D02*
X391311D01*
Y127063D01*
X381311D02*
X391311D01*
X270858Y17063D02*
X280858D01*
X280858Y127063D01*
X270858D02*
X280858D01*
X270858D02*
X270858Y17063D01*
X280858D01*
X280858Y127063D01*
X270858D02*
X280858D01*
D172*
X203915Y31890D02*
G03*
X204515Y31890I300J0D01*
G01*
D02*
G03*
X203915Y31890I-300J0D01*
G01*
D173*
X177195Y140313D02*
X179978Y137530D01*
X181369Y138921D01*
Y139849D01*
X179514Y141704D01*
X178586D01*
X177195Y140313D01*
X179978Y143096D02*
X181833Y144951D01*
X182297Y144487D01*
Y140776D01*
X182761Y140313D01*
X339172Y359940D02*
Y356005D01*
X337204D01*
X336548Y356661D01*
Y357972D01*
X337204Y358628D01*
X339172D01*
X337860D02*
X336548Y359940D01*
X335236D02*
X333924D01*
X334580D01*
Y356005D01*
X335236Y356661D01*
X331956D02*
X331300Y356005D01*
X329988D01*
X329332Y356661D01*
Y357316D01*
X329988Y357972D01*
X329332Y358628D01*
Y359284D01*
X329988Y359940D01*
X331300D01*
X331956Y359284D01*
Y358628D01*
X331300Y357972D01*
X331956Y357316D01*
Y356661D01*
X331300Y357972D02*
X329988D01*
X321524Y333859D02*
Y337795D01*
X323492D01*
X324148Y337139D01*
Y335827D01*
X323492Y335171D01*
X321524D01*
X322836D02*
X324148Y333859D01*
X328084D02*
X325460D01*
X328084Y336483D01*
Y337139D01*
X327428Y337795D01*
X326116D01*
X325460Y337139D01*
X329396D02*
X330051Y337795D01*
X331363D01*
X332019Y337139D01*
Y334515D01*
X331363Y333859D01*
X330051D01*
X329396Y334515D01*
Y337139D01*
X175520Y140368D02*
Y141296D01*
X176448Y142223D01*
X177376D01*
X179231Y140368D01*
Y139440D01*
X178303Y138513D01*
X177376D01*
X172274Y138049D02*
X173665Y138513D01*
X175520D01*
X176448Y137585D01*
Y136657D01*
X175520Y135730D01*
X174593D01*
X174129Y136193D01*
X174129Y137121D01*
X175520Y138513D01*
X137275Y157900D02*
Y156972D01*
X136347Y156044D01*
X135419D01*
X133564Y157900D01*
Y158827D01*
X134492Y159755D01*
X135419D01*
X138203Y158827D02*
X139130D01*
X140058Y159755D01*
X140058Y160683D01*
X139594Y161147D01*
X138666D01*
X138666Y162074D01*
X138203Y162538D01*
X137275D01*
X136347Y161610D01*
Y160683D01*
X136811Y160219D01*
X137739D01*
X137739Y159291D01*
X138203Y158827D01*
X137739Y160219D02*
X138666Y161147D01*
X166641Y151665D02*
Y152593D01*
X167568Y153521D01*
X168496D01*
X170351Y151665D01*
Y150738D01*
X169424Y149810D01*
X168496D01*
X168032Y148418D02*
X167104Y147491D01*
X167568Y147955D01*
X164785Y150738D01*
X165713D01*
X163858Y144244D02*
X165713Y146099D01*
X162002D01*
X161539Y146563D01*
X161539Y147491D01*
X162466Y148418D01*
X163394D01*
X189313Y137470D02*
X192096Y134687D01*
X190705Y133296D01*
X189777D01*
X188850Y134224D01*
Y135151D01*
X190241Y136543D01*
X189313Y135615D02*
X187458D01*
Y130049D02*
X187922Y131441D01*
Y133296D01*
X186994Y134224D01*
X186067D01*
X185139Y133296D01*
Y132368D01*
X185603Y131904D01*
X186530Y131904D01*
X187922Y133296D01*
X348555Y338188D02*
Y334253D01*
X346587D01*
X345931Y334909D01*
Y336221D01*
X346587Y336876D01*
X348555D01*
X347243D02*
X345931Y338188D01*
X341995D02*
X344619D01*
X341995Y335564D01*
Y334909D01*
X342651Y334253D01*
X343963D01*
X344619Y334909D01*
X338059Y338188D02*
X340683D01*
X338059Y335564D01*
Y334909D01*
X338715Y334253D01*
X340027D01*
X340683Y334909D01*
X130224Y247127D02*
Y251062D01*
X132192D01*
X132848Y250406D01*
Y249095D01*
X132192Y248439D01*
X130224D01*
X131536D02*
X132848Y247127D01*
X134160Y250406D02*
X134816Y251062D01*
X136128D01*
X136784Y250406D01*
Y249750D01*
X136128Y249095D01*
X135472D01*
X136128D01*
X136784Y248439D01*
Y247783D01*
X136128Y247127D01*
X134816D01*
X134160Y247783D01*
X213181Y174712D02*
X214109D01*
X215036Y175639D01*
Y176567D01*
X213181Y178422D01*
X212253D01*
X211326Y177495D01*
Y176567D01*
X209934Y176103D02*
X209007Y175175D01*
X209470Y175639D01*
X212253Y172856D01*
Y173784D01*
X209934Y171465D02*
Y170537D01*
X209007Y169609D01*
X208079Y169609D01*
X206224Y171465D01*
X206224Y172392D01*
X207151Y173320D01*
X208079D01*
X209934Y171465D01*
X119521Y254018D02*
X120176Y253362D01*
Y252050D01*
X119521Y251394D01*
X116897D01*
X116241Y252050D01*
Y253362D01*
X116897Y254018D01*
X116241Y257954D02*
Y255330D01*
X118865Y257954D01*
X119521D01*
X120176Y257298D01*
Y255986D01*
X119521Y255330D01*
X120176Y261889D02*
X119521Y260578D01*
X118209Y259266D01*
X116897D01*
X116241Y259922D01*
Y261233D01*
X116897Y261889D01*
X117553D01*
X118209Y261233D01*
Y259266D01*
X116897Y276730D02*
X116241Y277386D01*
Y278698D01*
X116897Y279354D01*
X119521D01*
X120176Y278698D01*
Y277386D01*
X119521Y276730D01*
X120176Y272794D02*
Y275418D01*
X117553Y272794D01*
X116897D01*
X116241Y273450D01*
Y274762D01*
X116897Y275418D01*
X116241Y271482D02*
Y268859D01*
X116897D01*
X119521Y271482D01*
X120176D01*
X132612Y279830D02*
X131956Y279174D01*
X130645D01*
X129989Y279830D01*
Y282454D01*
X130645Y283110D01*
X131956D01*
X132612Y282454D01*
X136548Y283110D02*
X133924D01*
X136548Y280486D01*
Y279830D01*
X135892Y279174D01*
X134580D01*
X133924Y279830D01*
X137860D02*
X138516Y279174D01*
X139828D01*
X140484Y279830D01*
Y282454D01*
X139828Y283110D01*
X138516D01*
X137860Y282454D01*
Y279830D01*
X153503Y257704D02*
X154159Y257048D01*
X155471D01*
X156127Y257704D01*
Y260328D01*
X155471Y260984D01*
X154159D01*
X153503Y260328D01*
X149568Y260984D02*
X152191D01*
X149568Y258360D01*
Y257704D01*
X150224Y257048D01*
X151535D01*
X152191Y257704D01*
X148256Y260984D02*
X146944D01*
X147600D01*
Y257048D01*
X148256Y257704D01*
X165040Y261547D02*
X168976D01*
Y259579D01*
X168320Y258923D01*
X167008D01*
X166352Y259579D01*
Y261547D01*
Y260235D02*
X165040Y258923D01*
Y257611D02*
Y256299D01*
Y256956D01*
X168976D01*
X168320Y257611D01*
X165040Y254332D02*
Y253020D01*
Y253676D01*
X168976D01*
X168320Y254332D01*
X171626Y218250D02*
X170699D01*
X169771Y219178D01*
Y220106D01*
X171626Y221961D01*
X172554D01*
X173482Y221034D01*
Y220106D01*
X172554Y217323D02*
Y216395D01*
X173482Y215468D01*
X174409Y215468D01*
X174873Y215931D01*
Y216859D01*
X174409Y217323D01*
X174873Y216859D01*
X175801Y216859D01*
X176265Y217323D01*
Y218250D01*
X175337Y219178D01*
X174409D01*
X179048Y215468D02*
X176265Y212684D01*
Y215468D01*
X178120Y213612D01*
X211547Y210236D02*
Y206300D01*
X209580D01*
X208924Y206956D01*
Y208268D01*
X209580Y208924D01*
X211547D01*
X210236D02*
X208924Y210236D01*
X204988Y206300D02*
X207612D01*
Y208268D01*
X206300Y207612D01*
X205644D01*
X204988Y208268D01*
Y209580D01*
X205644Y210236D01*
X206956D01*
X207612Y209580D01*
X163268Y283004D02*
X167204D01*
Y281036D01*
X166548Y280380D01*
X165236D01*
X164580Y281036D01*
Y283004D01*
Y281692D02*
X163268Y280380D01*
Y277101D02*
X167204D01*
X165236Y279068D01*
Y276445D01*
X235367Y256707D02*
X236023Y256051D01*
Y254739D01*
X235367Y254083D01*
X232743D01*
X232087Y254739D01*
Y256051D01*
X232743Y256707D01*
X232087Y260643D02*
Y258019D01*
X234711Y260643D01*
X235367D01*
X236023Y259987D01*
Y258675D01*
X235367Y258019D01*
X232087Y264578D02*
Y261954D01*
X234711Y264578D01*
X235367D01*
X236023Y263922D01*
Y262611D01*
X235367Y261954D01*
X225170Y256667D02*
X225826Y256012D01*
Y254700D01*
X225170Y254044D01*
X222546D01*
X221890Y254700D01*
Y256012D01*
X222546Y256667D01*
X221890Y260603D02*
Y257979D01*
X224514Y260603D01*
X225170D01*
X225826Y259947D01*
Y258635D01*
X225170Y257979D01*
Y261915D02*
X225826Y262571D01*
Y263883D01*
X225170Y264539D01*
X224514D01*
X223858Y263883D01*
Y263227D01*
Y263883D01*
X223202Y264539D01*
X222546D01*
X221890Y263883D01*
Y262571D01*
X222546Y261915D01*
X212271Y274868D02*
X211615Y275524D01*
Y276836D01*
X212271Y277492D01*
X214895D01*
X215551Y276836D01*
Y275524D01*
X214895Y274868D01*
X215551Y270932D02*
Y273556D01*
X212927Y270932D01*
X212271D01*
X211615Y271588D01*
Y272900D01*
X212271Y273556D01*
X214895Y269620D02*
X215551Y268964D01*
Y267652D01*
X214895Y266996D01*
X212271D01*
X211615Y267652D01*
Y268964D01*
X212271Y269620D01*
X212927D01*
X213583Y268964D01*
Y266996D01*
X201142Y253581D02*
X205078D01*
Y251613D01*
X204422Y250957D01*
X203110D01*
X202454Y251613D01*
Y253581D01*
Y252269D02*
X201142Y250957D01*
Y249645D02*
Y248333D01*
Y248989D01*
X205078D01*
X204422Y249645D01*
X205078Y243742D02*
Y246365D01*
X203110D01*
X203766Y245054D01*
Y244398D01*
X203110Y243742D01*
X201798D01*
X201142Y244398D01*
Y245710D01*
X201798Y246365D01*
X214895Y251510D02*
X215551Y250854D01*
Y249542D01*
X214895Y248886D01*
X212271D01*
X211615Y249542D01*
Y250854D01*
X212271Y251510D01*
X211615Y255446D02*
Y252822D01*
X214239Y255446D01*
X214895D01*
X215551Y254790D01*
Y253478D01*
X214895Y252822D01*
Y256758D02*
X215551Y257414D01*
Y258726D01*
X214895Y259382D01*
X214239D01*
X213583Y258726D01*
X212927Y259382D01*
X212271D01*
X211615Y258726D01*
Y257414D01*
X212271Y256758D01*
X212927D01*
X213583Y257414D01*
X214239Y256758D01*
X214895D01*
X213583Y257414D02*
Y258726D01*
X142914Y11616D02*
X146850D01*
Y13584D01*
X146194Y14240D01*
X143570D01*
X142914Y13584D01*
Y11616D01*
X146850Y15552D02*
Y16863D01*
Y16207D01*
X142914D01*
X143570Y15552D01*
X146850Y20799D02*
X142914D01*
X144882Y18831D01*
Y21455D01*
X146850Y28545D02*
X142914D01*
Y30513D01*
X143570Y31169D01*
X144882D01*
X145538Y30513D01*
Y28545D01*
Y29857D02*
X146850Y31169D01*
Y32481D02*
Y33792D01*
Y33137D01*
X142914D01*
X143570Y32481D01*
X146850Y37728D02*
X142914D01*
X144882Y35760D01*
Y38384D01*
X124015Y105776D02*
X120079D01*
Y107744D01*
X120735Y108400D01*
X122047D01*
X122703Y107744D01*
Y105776D01*
Y107088D02*
X124015Y108400D01*
Y112336D02*
Y109712D01*
X121391Y112336D01*
X120735D01*
X120079Y111680D01*
Y110368D01*
X120735Y109712D01*
Y113647D02*
X120079Y114303D01*
Y115615D01*
X120735Y116271D01*
X121391D01*
X122047Y115615D01*
Y114959D01*
Y115615D01*
X122703Y116271D01*
X123359D01*
X124015Y115615D01*
Y114303D01*
X123359Y113647D01*
X146194Y54592D02*
X146850Y55248D01*
Y56560D01*
X146194Y57216D01*
X143570D01*
X142914Y56560D01*
Y55248D01*
X143570Y54592D01*
X146194Y53280D02*
X146850Y52624D01*
Y51313D01*
X146194Y50657D01*
X145538D01*
X144882Y51313D01*
Y51968D01*
Y51313D01*
X144226Y50657D01*
X143570D01*
X142914Y51313D01*
Y52624D01*
X143570Y53280D01*
X146194Y49345D02*
X146850Y48689D01*
Y47377D01*
X146194Y46721D01*
X145538D01*
X144882Y47377D01*
Y48033D01*
Y47377D01*
X144226Y46721D01*
X143570D01*
X142914Y47377D01*
Y48689D01*
X143570Y49345D01*
X232479Y52362D02*
Y48426D01*
X230511D01*
X229855Y49082D01*
Y50394D01*
X230511Y51050D01*
X232479D01*
X231167D02*
X229855Y52362D01*
X228543D02*
X227231D01*
X227887D01*
Y48426D01*
X228543Y49082D01*
X222639Y52362D02*
X225263D01*
X222639Y49738D01*
Y49082D01*
X223295Y48426D01*
X224607D01*
X225263Y49082D01*
X247453Y48505D02*
Y52440D01*
X245485D01*
X244829Y51784D01*
Y49161D01*
X245485Y48505D01*
X247453D01*
X243517Y52440D02*
X242205D01*
X242861D01*
Y48505D01*
X243517Y49161D01*
X240237Y52440D02*
X238925D01*
X239581D01*
Y48505D01*
X240237Y49161D01*
X231758Y62861D02*
X232414Y62205D01*
X233726D01*
X234382Y62861D01*
Y65485D01*
X233726Y66141D01*
X232414D01*
X231758Y65485D01*
X230446Y62861D02*
X229790Y62205D01*
X228478D01*
X227822Y62861D01*
Y63517D01*
X228478Y64173D01*
X229134D01*
X228478D01*
X227822Y64829D01*
Y65485D01*
X228478Y66141D01*
X229790D01*
X230446Y65485D01*
X223886Y66141D02*
X226510D01*
X223886Y63517D01*
Y62861D01*
X224542Y62205D01*
X225854D01*
X226510Y62861D01*
X139834Y174908D02*
Y173980D01*
X138906Y173052D01*
X137979D01*
X136123Y174908D01*
Y175835D01*
X137051Y176763D01*
X137979D01*
X138906Y177691D02*
Y178618D01*
X139834Y179546D01*
X140762D01*
X142617Y177691D01*
X142617Y176763D01*
X141689Y175835D01*
X140762D01*
X140298Y176299D01*
X140298Y177227D01*
X141689Y178618D01*
X170717Y222690D02*
X169789D01*
X168861Y221762D01*
Y220835D01*
X170717Y218979D01*
X171644D01*
X172572Y219907D01*
Y220835D01*
X173963Y221299D02*
X174891Y222226D01*
X174427Y221762D01*
X171644Y224545D01*
Y223618D01*
X175355Y228256D02*
X173500Y226401D01*
X174891Y225009D01*
X175355Y226401D01*
X175819Y226865D01*
X176746D01*
X177674Y225937D01*
X177674Y225009D01*
X176746Y224082D01*
X175819D01*
X184484Y132796D02*
Y133724D01*
X185412Y134651D01*
X186339D01*
X188195Y132796D01*
Y131868D01*
X187267Y130941D01*
X186339D01*
X185875Y129549D02*
X184948Y128621D01*
X185412Y129085D01*
X182629Y131868D01*
X183556D01*
Y127230D02*
X182629Y126302D01*
X183092Y126766D01*
X180309Y129549D01*
X181237D01*
X188209Y221000D02*
X189137D01*
X190065Y221927D01*
Y222855D01*
X188209Y224710D01*
X187282D01*
X186354Y223783D01*
Y222855D01*
X187746Y219608D02*
X185890Y217753D01*
X185426Y218217D01*
Y221927D01*
X184963Y222391D01*
X121661Y171916D02*
X120734D01*
X119806Y172844D01*
Y173772D01*
X121661Y175627D01*
X122589D01*
X123517Y174699D01*
Y173772D01*
X124908Y173308D02*
X125836Y172380D01*
X125372Y172844D01*
X122589Y170061D01*
Y170989D01*
X126300Y166350D02*
X125836Y167742D01*
Y169597D01*
X126764Y170525D01*
X127691D01*
X128619Y169597D01*
X128619Y168669D01*
X128155Y168206D01*
X127227Y168206D01*
X125836Y169597D01*
X134262Y183014D02*
X131479Y185797D01*
X130087Y184406D01*
Y183478D01*
X131015Y182550D01*
X131943D01*
X133334Y183942D01*
X132406Y183014D02*
Y181159D01*
X131015Y180695D02*
Y179768D01*
X130087Y178840D01*
X129160D01*
X127304Y180695D01*
X127304Y181623D01*
X128232Y182550D01*
X129160D01*
X129623Y182087D01*
X129623Y181159D01*
X128232Y179768D01*
X349936Y373621D02*
Y369686D01*
X351904D01*
X352560Y370342D01*
Y371654D01*
X351904Y372309D01*
X349936D01*
X351248D02*
X352560Y373621D01*
X356495D02*
X353872D01*
X356495Y370998D01*
Y370342D01*
X355839Y369686D01*
X354528D01*
X353872Y370342D01*
X357807Y373621D02*
X359119D01*
X358463D01*
Y369686D01*
X357807Y370342D01*
X223768Y102087D02*
X220985Y104870D01*
X219593Y103479D01*
Y102551D01*
X220521Y101623D01*
X221449D01*
X222840Y103015D01*
X221913Y102087D02*
Y100232D01*
X220985Y99304D02*
X220057Y98377D01*
X220521Y98840D01*
X217738Y101623D01*
X218666D01*
X216347Y99304D02*
X215419D01*
X214491Y98377D01*
X214491Y97449D01*
X216347Y95594D01*
X217274Y95594D01*
X218202Y96521D01*
Y97449D01*
X216347Y99304D01*
X208565Y115448D02*
X207637D01*
X206710Y116376D01*
Y117304D01*
X208565Y119159D01*
X209493D01*
X210420Y118231D01*
Y117304D01*
X211812Y116840D02*
X212739Y115912D01*
X212276Y116376D01*
X209493Y113593D01*
Y114521D01*
X213667Y114057D02*
X214595D01*
X215523Y113129D01*
X215523Y112202D01*
X213667Y110346D01*
X212739Y110346D01*
X211812Y111274D01*
Y112202D01*
X212276Y112665D01*
X213203Y112665D01*
X214595Y111274D01*
X323326Y311711D02*
X319390D01*
Y309743D01*
X320046Y309087D01*
X321358D01*
X322014Y309743D01*
Y311711D01*
Y310399D02*
X323326Y309087D01*
Y307775D02*
Y306463D01*
Y307119D01*
X319390D01*
X320046Y307775D01*
X319390Y304496D02*
Y301872D01*
X320046D01*
X322670Y304496D01*
X323326D01*
X321852Y322835D02*
Y326771D01*
X323820D01*
X324476Y326115D01*
Y324803D01*
X323820Y324147D01*
X321852D01*
X323164D02*
X324476Y322835D01*
X325788D02*
X327100D01*
X326444D01*
Y326771D01*
X325788Y326115D01*
X331691Y326771D02*
X330379Y326115D01*
X329067Y324803D01*
Y323491D01*
X329724Y322835D01*
X331035D01*
X331691Y323491D01*
Y324147D01*
X331035Y324803D01*
X329067D01*
X339172Y348818D02*
Y344882D01*
X337204D01*
X336548Y345538D01*
Y346850D01*
X337204Y347506D01*
X339172D01*
X337860D02*
X336548Y348818D01*
X335236D02*
X333924D01*
X334580D01*
Y344882D01*
X335236Y345538D01*
X331956Y348162D02*
X331300Y348818D01*
X329988D01*
X329332Y348162D01*
Y345538D01*
X329988Y344882D01*
X331300D01*
X331956Y345538D01*
Y346194D01*
X331300Y346850D01*
X329332D01*
X123326Y315878D02*
X119390D01*
Y313910D01*
X120046Y313254D01*
X122670D01*
X123326Y313910D01*
Y315878D01*
X122670Y311943D02*
X123326Y311286D01*
Y309975D01*
X122670Y309319D01*
X122014D01*
X121358Y309975D01*
X120702Y309319D01*
X120046D01*
X119390Y309975D01*
Y311286D01*
X120046Y311943D01*
X120702D01*
X121358Y311286D01*
X122014Y311943D01*
X122670D01*
X121358Y311286D02*
Y309975D01*
X347244Y258399D02*
X346588Y259054D01*
X345276D01*
X344620Y258399D01*
Y255775D01*
X345276Y255119D01*
X346588D01*
X347244Y255775D01*
X348556Y255119D02*
X349868D01*
X349212D01*
Y259054D01*
X348556Y258399D01*
X352887Y273097D02*
X353543Y273753D01*
Y275065D01*
X352887Y275721D01*
X350263D01*
X349607Y275065D01*
Y273753D01*
X350263Y273097D01*
X349607Y269161D02*
Y271785D01*
X352231Y269161D01*
X352887D01*
X353543Y269817D01*
Y271129D01*
X352887Y271785D01*
X344094Y275065D02*
X340158D01*
Y273097D01*
X340814Y272441D01*
X343438D01*
X344094Y273097D01*
Y275065D01*
X340158Y271129D02*
Y269817D01*
Y270473D01*
X344094D01*
X343438Y271129D01*
X329922Y282939D02*
X333858D01*
Y280971D01*
X333202Y280315D01*
X331890D01*
X331234Y280971D01*
Y282939D01*
Y281627D02*
X329922Y280315D01*
Y279003D02*
Y277691D01*
Y278347D01*
X333858D01*
X333202Y279003D01*
X194095Y357611D02*
X198031D01*
Y355643D01*
X197375Y354987D01*
X196063D01*
X195407Y355643D01*
Y357611D01*
Y356299D02*
X194095Y354987D01*
X198031Y353675D02*
Y351051D01*
X197375D01*
X194751Y353675D01*
X194095D01*
X212205Y357611D02*
X216141D01*
Y355643D01*
X215485Y354987D01*
X214173D01*
X213517Y355643D01*
Y357611D01*
Y356299D02*
X212205Y354987D01*
X215485Y353675D02*
X216141Y353019D01*
Y351707D01*
X215485Y351051D01*
X214829D01*
X214173Y351707D01*
X213517Y351051D01*
X212861D01*
X212205Y351707D01*
Y353019D01*
X212861Y353675D01*
X213517D01*
X214173Y353019D01*
X214829Y353675D01*
X215485D01*
X214173Y353019D02*
Y351707D01*
X347506Y312861D02*
X348162Y312205D01*
X349474D01*
X350130Y312861D01*
Y315485D01*
X349474Y316141D01*
X348162D01*
X347506Y315485D01*
X343570Y316141D02*
X346194D01*
X343570Y313517D01*
Y312861D01*
X344226Y312205D01*
X345538D01*
X346194Y312861D01*
X339634Y312205D02*
X342258D01*
Y314173D01*
X340946Y313517D01*
X340290D01*
X339634Y314173D01*
Y315485D01*
X340290Y316141D01*
X341602D01*
X342258Y315485D01*
X347506Y323885D02*
X348162Y323229D01*
X349474D01*
X350130Y323885D01*
Y326509D01*
X349474Y327165D01*
X348162D01*
X347506Y326509D01*
X343570Y327165D02*
X346194D01*
X343570Y324541D01*
Y323885D01*
X344226Y323229D01*
X345538D01*
X346194Y323885D01*
X340290Y327165D02*
Y323229D01*
X342258Y325197D01*
X339634D01*
X170342Y357020D02*
X169686Y357676D01*
Y358988D01*
X170342Y359644D01*
X172965D01*
X173621Y358988D01*
Y357676D01*
X172965Y357020D01*
X173621Y355708D02*
Y354396D01*
Y355052D01*
X169686D01*
X170342Y355708D01*
X169686Y352429D02*
Y349805D01*
X170342D01*
X172965Y352429D01*
X173621D01*
X123228Y322836D02*
X119292D01*
Y324804D01*
X119948Y325460D01*
X121260D01*
X121916Y324804D01*
Y322836D01*
Y324148D02*
X123228Y325460D01*
Y326772D02*
Y328084D01*
Y327428D01*
X119292D01*
X119948Y326772D01*
Y330052D02*
X119292Y330708D01*
Y332020D01*
X119948Y332676D01*
X120604D01*
X121260Y332020D01*
Y331364D01*
Y332020D01*
X121916Y332676D01*
X122572D01*
X123228Y332020D01*
Y330708D01*
X122572Y330052D01*
X143964Y346390D02*
X143308Y347046D01*
Y348358D01*
X143964Y349014D01*
X146588D01*
X147243Y348358D01*
Y347046D01*
X146588Y346390D01*
X147243Y345078D02*
Y343766D01*
Y344423D01*
X143308D01*
X143964Y345078D01*
Y341799D02*
X143308Y341143D01*
Y339831D01*
X143964Y339175D01*
X144620D01*
X145276Y339831D01*
X145931Y339175D01*
X146588D01*
X147243Y339831D01*
Y341143D01*
X146588Y341799D01*
X145931D01*
X145276Y341143D01*
X144620Y341799D01*
X143964D01*
X145276Y341143D02*
Y339831D01*
X127579Y356131D02*
X128235Y356787D01*
X129547D01*
X130203Y356131D01*
Y353507D01*
X129547Y352851D01*
X128235D01*
X127579Y353507D01*
X126267Y352851D02*
X124955D01*
X125611D01*
Y356787D01*
X126267Y356131D01*
X122988D02*
X122332Y356787D01*
X121020D01*
X120364Y356131D01*
Y355475D01*
X121020Y354819D01*
X121676D01*
X121020D01*
X120364Y354163D01*
Y353507D01*
X121020Y352851D01*
X122332D01*
X122988Y353507D01*
X127394Y342847D02*
X128050Y343503D01*
X129362D01*
X130018Y342847D01*
Y340224D01*
X129362Y339568D01*
X128050D01*
X127394Y340224D01*
X126082Y339568D02*
X124770D01*
X125426D01*
Y343503D01*
X126082Y342847D01*
X120835Y339568D02*
Y343503D01*
X122803Y341535D01*
X120179D01*
X118110Y367453D02*
X114174D01*
Y365485D01*
X114830Y364829D01*
X117454D01*
X118110Y365485D01*
Y367453D01*
X114174Y360893D02*
Y363517D01*
X116798Y360893D01*
X117454D01*
X118110Y361549D01*
Y362861D01*
X117454Y363517D01*
X116272Y385826D02*
Y381890D01*
X114304D01*
X113648Y382546D01*
Y383858D01*
X114304Y384514D01*
X116272D01*
X114960D02*
X113648Y385826D01*
X109712D02*
X112336D01*
X109712Y383202D01*
Y382546D01*
X110368Y381890D01*
X111680D01*
X112336Y382546D01*
X102624Y358792D02*
X103280Y359448D01*
X104592D01*
X105248Y358792D01*
Y356168D01*
X104592Y355512D01*
X103280D01*
X102624Y356168D01*
X101312Y358792D02*
X100657Y359448D01*
X99345D01*
X98689Y358792D01*
Y358136D01*
X99345Y357480D01*
X100001D01*
X99345D01*
X98689Y356824D01*
Y356168D01*
X99345Y355512D01*
X100657D01*
X101312Y356168D01*
X82809D02*
X82153Y355512D01*
X80841D01*
X80185Y356168D01*
Y358792D01*
X80841Y359448D01*
X82153D01*
X82809Y358792D01*
X86088Y359448D02*
Y355512D01*
X84121Y357480D01*
X86744D01*
M02*
