G04*
G04 #@! TF.GenerationSoftware,Altium Limited,Altium Designer,25.7.1 (20)*
G04*
G04 Layer_Physical_Order=1*
G04 Layer_Color=255*
%FSLAX25Y25*%
%MOIN*%
G70*
G04*
G04 #@! TF.SameCoordinates,2BE7CE8E-90D8-463F-AC12-6E4C0CB6A4A3*
G04*
G04*
G04 #@! TF.FilePolarity,Positive*
G04*
G01*
G75*
%ADD10C,0.00787*%
%ADD12C,0.01575*%
%ADD18R,0.01575X0.03150*%
%ADD19R,0.03150X0.01575*%
%ADD20R,0.03150X0.03150*%
%ADD21R,0.04724X0.04724*%
G04:AMPARAMS|DCode=22|XSize=62.21mil|YSize=23.62mil|CornerRadius=2.95mil|HoleSize=0mil|Usage=FLASHONLY|Rotation=180.000|XOffset=0mil|YOffset=0mil|HoleType=Round|Shape=RoundedRectangle|*
%AMROUNDEDRECTD22*
21,1,0.06221,0.01772,0,0,180.0*
21,1,0.05630,0.02362,0,0,180.0*
1,1,0.00591,-0.02815,0.00886*
1,1,0.00591,0.02815,0.00886*
1,1,0.00591,0.02815,-0.00886*
1,1,0.00591,-0.02815,-0.00886*
%
%ADD22ROUNDEDRECTD22*%
G04:AMPARAMS|DCode=23|XSize=39.37mil|YSize=66.93mil|CornerRadius=4.92mil|HoleSize=0mil|Usage=FLASHONLY|Rotation=270.000|XOffset=0mil|YOffset=0mil|HoleType=Round|Shape=RoundedRectangle|*
%AMROUNDEDRECTD23*
21,1,0.03937,0.05709,0,0,270.0*
21,1,0.02953,0.06693,0,0,270.0*
1,1,0.00984,-0.02854,-0.01476*
1,1,0.00984,-0.02854,0.01476*
1,1,0.00984,0.02854,0.01476*
1,1,0.00984,0.02854,-0.01476*
%
%ADD23ROUNDEDRECTD23*%
G04:AMPARAMS|DCode=24|XSize=51.58mil|YSize=36.61mil|CornerRadius=2.75mil|HoleSize=0mil|Usage=FLASHONLY|Rotation=90.000|XOffset=0mil|YOffset=0mil|HoleType=Round|Shape=RoundedRectangle|*
%AMROUNDEDRECTD24*
21,1,0.05158,0.03112,0,0,90.0*
21,1,0.04608,0.03661,0,0,90.0*
1,1,0.00549,0.01556,0.02304*
1,1,0.00549,0.01556,-0.02304*
1,1,0.00549,-0.01556,-0.02304*
1,1,0.00549,-0.01556,0.02304*
%
%ADD24ROUNDEDRECTD24*%
%ADD25R,0.15748X0.07874*%
G04:AMPARAMS|DCode=26|XSize=55.12mil|YSize=66.93mil|CornerRadius=6.89mil|HoleSize=0mil|Usage=FLASHONLY|Rotation=180.000|XOffset=0mil|YOffset=0mil|HoleType=Round|Shape=RoundedRectangle|*
%AMROUNDEDRECTD26*
21,1,0.05512,0.05315,0,0,180.0*
21,1,0.04134,0.06693,0,0,180.0*
1,1,0.01378,-0.02067,0.02657*
1,1,0.01378,0.02067,0.02657*
1,1,0.01378,0.02067,-0.02657*
1,1,0.01378,-0.02067,-0.02657*
%
%ADD26ROUNDEDRECTD26*%
G04:AMPARAMS|DCode=27|XSize=39.37mil|YSize=66.93mil|CornerRadius=4.92mil|HoleSize=0mil|Usage=FLASHONLY|Rotation=180.000|XOffset=0mil|YOffset=0mil|HoleType=Round|Shape=RoundedRectangle|*
%AMROUNDEDRECTD27*
21,1,0.03937,0.05709,0,0,180.0*
21,1,0.02953,0.06693,0,0,180.0*
1,1,0.00984,-0.01476,0.02854*
1,1,0.00984,0.01476,0.02854*
1,1,0.00984,0.01476,-0.02854*
1,1,0.00984,-0.01476,-0.02854*
%
%ADD27ROUNDEDRECTD27*%
%ADD28R,0.11400X0.21300*%
G04:AMPARAMS|DCode=29|XSize=51.58mil|YSize=127.56mil|CornerRadius=3.87mil|HoleSize=0mil|Usage=FLASHONLY|Rotation=0.000|XOffset=0mil|YOffset=0mil|HoleType=Round|Shape=RoundedRectangle|*
%AMROUNDEDRECTD29*
21,1,0.05158,0.11982,0,0,0.0*
21,1,0.04384,0.12756,0,0,0.0*
1,1,0.00774,0.02192,-0.05991*
1,1,0.00774,-0.02192,-0.05991*
1,1,0.00774,-0.02192,0.05991*
1,1,0.00774,0.02192,0.05991*
%
%ADD29ROUNDEDRECTD29*%
G04:AMPARAMS|DCode=30|XSize=51.58mil|YSize=36.61mil|CornerRadius=2.75mil|HoleSize=0mil|Usage=FLASHONLY|Rotation=0.000|XOffset=0mil|YOffset=0mil|HoleType=Round|Shape=RoundedRectangle|*
%AMROUNDEDRECTD30*
21,1,0.05158,0.03112,0,0,0.0*
21,1,0.04608,0.03661,0,0,0.0*
1,1,0.00549,0.02304,-0.01556*
1,1,0.00549,-0.02304,-0.01556*
1,1,0.00549,-0.02304,0.01556*
1,1,0.00549,0.02304,0.01556*
%
%ADD30ROUNDEDRECTD30*%
G04:AMPARAMS|DCode=31|XSize=51.58mil|YSize=127.56mil|CornerRadius=3.87mil|HoleSize=0mil|Usage=FLASHONLY|Rotation=90.000|XOffset=0mil|YOffset=0mil|HoleType=Round|Shape=RoundedRectangle|*
%AMROUNDEDRECTD31*
21,1,0.05158,0.11982,0,0,90.0*
21,1,0.04384,0.12756,0,0,90.0*
1,1,0.00774,0.05991,0.02192*
1,1,0.00774,0.05991,-0.02192*
1,1,0.00774,-0.05991,-0.02192*
1,1,0.00774,-0.05991,0.02192*
%
%ADD31ROUNDEDRECTD31*%
%ADD32R,0.03543X0.03150*%
%ADD33R,0.15000X0.08189*%
G04:AMPARAMS|DCode=34|XSize=55.12mil|YSize=66.93mil|CornerRadius=6.89mil|HoleSize=0mil|Usage=FLASHONLY|Rotation=270.000|XOffset=0mil|YOffset=0mil|HoleType=Round|Shape=RoundedRectangle|*
%AMROUNDEDRECTD34*
21,1,0.05512,0.05315,0,0,270.0*
21,1,0.04134,0.06693,0,0,270.0*
1,1,0.01378,-0.02657,-0.02067*
1,1,0.01378,-0.02657,0.02067*
1,1,0.01378,0.02657,0.02067*
1,1,0.01378,0.02657,-0.02067*
%
%ADD34ROUNDEDRECTD34*%
G04:AMPARAMS|DCode=35|XSize=55.12mil|YSize=66.93mil|CornerRadius=6.89mil|HoleSize=0mil|Usage=FLASHONLY|Rotation=225.000|XOffset=0mil|YOffset=0mil|HoleType=Round|Shape=RoundedRectangle|*
%AMROUNDEDRECTD35*
21,1,0.05512,0.05315,0,0,225.0*
21,1,0.04134,0.06693,0,0,225.0*
1,1,0.01378,-0.03341,0.00418*
1,1,0.01378,-0.00418,0.03341*
1,1,0.01378,0.03341,-0.00418*
1,1,0.01378,0.00418,-0.03341*
%
%ADD35ROUNDEDRECTD35*%
G04:AMPARAMS|DCode=36|XSize=61.42mil|YSize=11.02mil|CornerRadius=2.76mil|HoleSize=0mil|Usage=FLASHONLY|Rotation=315.000|XOffset=0mil|YOffset=0mil|HoleType=Round|Shape=RoundedRectangle|*
%AMROUNDEDRECTD36*
21,1,0.06142,0.00551,0,0,315.0*
21,1,0.05591,0.01102,0,0,315.0*
1,1,0.00551,0.01782,-0.02171*
1,1,0.00551,-0.02171,0.01782*
1,1,0.00551,-0.01782,0.02171*
1,1,0.00551,0.02171,-0.01782*
%
%ADD36ROUNDEDRECTD36*%
G04:AMPARAMS|DCode=37|XSize=61.42mil|YSize=11.02mil|CornerRadius=2.76mil|HoleSize=0mil|Usage=FLASHONLY|Rotation=225.000|XOffset=0mil|YOffset=0mil|HoleType=Round|Shape=RoundedRectangle|*
%AMROUNDEDRECTD37*
21,1,0.06142,0.00551,0,0,225.0*
21,1,0.05591,0.01102,0,0,225.0*
1,1,0.00551,-0.02171,-0.01782*
1,1,0.00551,0.01782,0.02171*
1,1,0.00551,0.02171,0.01782*
1,1,0.00551,-0.01782,-0.02171*
%
%ADD37ROUNDEDRECTD37*%
%ADD38R,0.07874X0.15748*%
%ADD42R,0.07087X0.06693*%
G04:AMPARAMS|DCode=43|XSize=39.37mil|YSize=66.93mil|CornerRadius=4.92mil|HoleSize=0mil|Usage=FLASHONLY|Rotation=225.000|XOffset=0mil|YOffset=0mil|HoleType=Round|Shape=RoundedRectangle|*
%AMROUNDEDRECTD43*
21,1,0.03937,0.05709,0,0,225.0*
21,1,0.02953,0.06693,0,0,225.0*
1,1,0.00984,-0.03062,0.00974*
1,1,0.00984,-0.00974,0.03062*
1,1,0.00984,0.03062,-0.00974*
1,1,0.00984,0.00974,-0.03062*
%
%ADD43ROUNDEDRECTD43*%
%ADD81C,0.05709*%
%ADD98C,0.05394*%
%ADD99R,0.01575X0.01575*%
%ADD100R,0.35000X0.45000*%
%ADD101R,0.13386X0.03937*%
%ADD102R,0.02362X0.02362*%
%ADD103R,0.33858X0.42126*%
%ADD104R,0.02362X0.02362*%
%ADD105C,0.00984*%
%ADD106C,0.03937*%
%ADD107C,0.01181*%
%ADD108C,0.02953*%
%ADD109C,0.02362*%
%ADD110C,0.04724*%
%ADD111C,0.02756*%
%ADD112C,0.00709*%
%ADD113C,0.01968*%
%ADD114C,0.06693*%
%ADD115C,0.01251*%
%ADD116C,0.01378*%
%ADD117C,0.06200*%
%ADD118R,0.05543X0.05543*%
%ADD119C,0.07087*%
%ADD120C,0.04795*%
%ADD121C,0.07677*%
%ADD122C,0.05898*%
%ADD123R,0.05898X0.05898*%
%ADD124P,0.08341X4X270.0*%
%ADD125C,0.05315*%
%ADD126C,0.12992*%
%ADD127R,0.07677X0.07677*%
%ADD128R,0.04795X0.04795*%
%ADD129O,0.10000X0.04724*%
%ADD130O,0.17717X0.08858*%
%ADD131O,0.09843X0.19685*%
%ADD132C,0.13055*%
%ADD133C,0.05543*%
%ADD134R,0.05394X0.05394*%
%ADD135C,0.15748*%
%ADD136R,0.10000X0.04724*%
%ADD137C,0.03740*%
%ADD138O,0.08858X0.17717*%
%ADD139C,0.02756*%
%ADD140C,0.05000*%
G36*
X101476Y363573D02*
X75197D01*
Y386811D01*
X101476D01*
Y363573D01*
D02*
G37*
G36*
X187402Y367717D02*
Y364173D01*
X187008Y363779D01*
X158268D01*
X157480Y362992D01*
Y360630D01*
X156693Y359842D01*
X153543D01*
X152756Y360630D01*
Y362992D01*
X151969Y363779D01*
X133071D01*
X132283Y362992D01*
Y357874D01*
X131496Y357087D01*
X128740D01*
X127953Y357874D01*
Y367323D01*
X128626Y367996D01*
X187122D01*
X187402Y367717D01*
D02*
G37*
G36*
X166929Y328937D02*
X166681Y328690D01*
X148031Y328791D01*
X148031Y345669D01*
X150394Y348031D01*
X166929Y348031D01*
X166929Y328937D01*
D02*
G37*
G36*
X389764Y254331D02*
X377165D01*
Y264567D01*
X337795D01*
Y272047D01*
X365748D01*
Y280315D01*
X389764D01*
Y254331D01*
D02*
G37*
G36*
X374410Y233465D02*
X365748D01*
Y244488D01*
X359842Y250394D01*
X347638D01*
Y261417D01*
X374410D01*
Y233465D01*
D02*
G37*
G36*
X383858Y207087D02*
X363779D01*
X363779Y212992D01*
X375984Y225197D01*
X375984Y242126D01*
X383858D01*
Y207087D01*
D02*
G37*
G36*
X135039Y64961D02*
Y50787D01*
X148819D01*
Y38976D01*
Y34646D01*
X124409D01*
X122835Y33071D01*
X81890D01*
Y42126D01*
X111417D01*
X114173Y44882D01*
Y50787D01*
X119291D01*
X120866Y52362D01*
Y64961D01*
X135039Y64961D01*
D02*
G37*
G36*
X227953Y61024D02*
X226378Y59449D01*
Y46063D01*
X225197Y44882D01*
Y21260D01*
X194095D01*
X194024Y21190D01*
X193701Y21323D01*
Y42520D01*
X194095Y42913D01*
X205906D01*
Y52756D01*
X221260Y68110D01*
X227953D01*
Y61024D01*
D02*
G37*
G36*
X38583Y70472D02*
Y67716D01*
X39764Y66535D01*
X51279D01*
X51968Y65847D01*
Y55905D01*
X56693Y51181D01*
X62992D01*
Y4724D01*
X62205Y3937D01*
X25984D01*
X25197Y4724D01*
Y51575D01*
X28346D01*
X30315Y53543D01*
Y70079D01*
X32283Y72047D01*
X37008D01*
X38583Y70472D01*
D02*
G37*
D10*
X148475Y186915D02*
X152182Y183207D01*
Y181479D02*
Y183207D01*
Y181479D02*
X152559Y181102D01*
X136298Y171183D02*
Y173008D01*
X136188Y173117D02*
X136298Y173008D01*
Y171183D02*
X140354Y167126D01*
X153543Y141732D02*
Y142040D01*
X142216Y167126D02*
X145691Y170601D01*
X163786Y152283D02*
Y152506D01*
X153543Y142040D02*
X163786Y152283D01*
X140354Y167126D02*
X142216D01*
X149867Y188307D02*
X150090D01*
X153062Y185335D02*
X157382D01*
X150090Y188307D02*
X153062Y185335D01*
X117894Y267874D02*
X118681Y267087D01*
X115965Y267874D02*
X117894D01*
X119142Y266260D02*
X122978D01*
X118681Y266721D02*
X119142Y266260D01*
X123047Y266191D02*
X124951D01*
X122978Y266260D02*
X123047Y266191D01*
X118681Y266721D02*
Y267087D01*
X203976Y265945D02*
X205748Y264173D01*
X208833D01*
X215222D02*
X219390D01*
X208833D02*
X209409Y264750D01*
X214646D02*
X215222Y264173D01*
X219390D02*
X223130Y267913D01*
X209409Y264750D02*
Y265000D01*
X210099Y265689D01*
X212028D01*
X124951Y266191D02*
X126870Y268110D01*
X212028Y265689D02*
X213957D01*
X214646Y264750D02*
Y265000D01*
X213957Y265689D02*
X214646Y265000D01*
X223130Y275394D02*
X228583Y280847D01*
X223130Y267913D02*
Y275394D01*
X224567Y288976D02*
X228583Y284961D01*
Y280847D02*
Y284961D01*
X115965Y262874D02*
X117894D01*
X118681Y263661D02*
Y264027D01*
X117894Y262874D02*
X118681Y263661D01*
Y264027D02*
X119142Y264488D01*
X122245D01*
X122313Y264419D01*
X203976Y260433D02*
X205748Y262205D01*
X209409Y261378D02*
Y261628D01*
Y261378D02*
X210098Y260689D01*
X212028D01*
X213957D01*
X214646Y261378D01*
Y261628D01*
X205748Y262205D02*
X208833D01*
X122313Y264419D02*
X124951D01*
X126870Y262500D02*
Y262556D01*
X124951Y264419D02*
X126814Y262556D01*
X126870D01*
X208833Y262205D02*
X209409Y261628D01*
X214646D02*
X215222Y262205D01*
X220205D01*
X225098Y267098D01*
Y274578D01*
X230551Y280031D01*
Y284961D01*
X234567Y288976D01*
X197669Y183605D02*
X197891D01*
X198757Y182739D02*
X198757D01*
X197891Y183605D02*
X198757Y182739D01*
X198757D02*
X202592Y178904D01*
X196803Y182739D02*
X197669Y183605D01*
X202592Y178904D02*
X202592D01*
X352677Y170787D02*
X368347D01*
X347227Y165337D02*
X352677Y170787D01*
X146457Y148917D02*
X153186Y155647D01*
X128642Y148917D02*
X146457D01*
X95571Y193799D02*
X133366Y156004D01*
X131004Y152461D02*
X146260D01*
X150000Y156201D01*
X145866Y156004D02*
X148413Y158550D01*
X133366Y156004D02*
X145866D01*
X95472Y182087D02*
X128642Y148917D01*
X95468Y187996D02*
X131004Y152461D01*
X148413Y158550D02*
Y159087D01*
X150598Y161272D01*
Y161366D01*
X152651Y163419D01*
Y163642D01*
X153186Y155647D02*
Y158386D01*
X150000Y156201D02*
Y157984D01*
X154043Y162027D01*
X153186Y158386D02*
X155435Y160635D01*
Y160858D01*
X154043Y162027D02*
Y162250D01*
X164303Y313121D02*
X168110Y316929D01*
X164303Y310956D02*
Y313121D01*
X164173Y310827D02*
X164303Y310956D01*
X174525Y316749D02*
X174902Y317126D01*
X174525Y315863D02*
Y316749D01*
X171260Y312598D02*
X174525Y315863D01*
X171260Y311221D02*
Y312598D01*
X170866Y310827D02*
X171260Y311221D01*
X159087Y150591D02*
X162394Y153898D01*
X154528Y150591D02*
X159087D01*
X154606Y269213D02*
X158819D01*
X141535Y272874D02*
X146634Y277972D01*
X149193Y274626D02*
X154606Y269213D01*
X146634Y277972D02*
Y278169D01*
X165911Y261024D02*
X167008D01*
X164435Y262500D02*
Y263597D01*
X146634Y278169D02*
X147716Y279252D01*
X148110D02*
X149193Y278169D01*
X158819Y269213D02*
X164435Y263597D01*
X136988Y272874D02*
X141535D01*
X149193Y274626D02*
Y278169D01*
X164435Y262500D02*
X165911Y261024D01*
X130886Y293701D02*
X146535Y280433D01*
X147913Y279252D01*
X137402Y305512D02*
Y310827D01*
X133158Y257885D02*
X136977D01*
X136988Y257874D01*
X133465Y301575D02*
X137402Y305512D01*
X131102Y259941D02*
X133158Y257885D01*
X131102Y259941D02*
Y273622D01*
X121653Y283071D02*
X131102Y273622D01*
X121653Y283071D02*
Y297638D01*
X125591Y301575D01*
X133465D01*
X110925Y203150D02*
X124606D01*
X66969Y217524D02*
X96551D01*
X110925Y203150D01*
X124606D02*
X136909Y190847D01*
X141760D01*
X147083Y185523D01*
X76811Y187996D02*
X95468D01*
X96650Y211618D02*
X108661Y199606D01*
X76811Y211618D02*
X96650D01*
X108661Y199606D02*
X122638D01*
X134744Y187500D01*
X142322D02*
X145691Y184131D01*
X134744Y187500D02*
X142322D01*
X74705Y182087D02*
X95472D01*
X45315Y187996D02*
X68795D01*
X74705Y182087D01*
X105413Y196063D02*
X120669D01*
X96063Y205413D02*
X105413Y196063D01*
X75437Y205413D02*
X96063D01*
X120669Y196063D02*
X132283Y184449D01*
X144076Y182739D02*
X144299D01*
X142295Y184521D02*
X144076Y182739D01*
X142223Y184449D02*
X142295Y184521D01*
X132283Y184449D02*
X142223D01*
X45315Y211618D02*
X69232D01*
X75437Y205413D01*
X182576Y144859D02*
X183550Y143885D01*
X182576Y144859D02*
Y150030D01*
X178708Y153898D02*
X182576Y150030D01*
X74508Y193799D02*
X95571D01*
X68500Y199807D02*
X74508Y193799D01*
X45315Y199807D02*
X68500D01*
X126476Y206693D02*
X139370Y193799D01*
X147158D01*
X151259Y189699D01*
X112500Y206693D02*
X126476D01*
X95764Y223429D02*
X112500Y206693D01*
X76811Y223429D02*
X95764D01*
X147088Y196653D02*
X152651Y191091D01*
X141535Y196653D02*
X147088D01*
X127953Y210236D02*
X141535Y196653D01*
X94587Y230118D02*
X114469Y210236D01*
X127953D01*
X74016Y230118D02*
X94587D01*
X61183Y235120D02*
X69014D01*
X74016Y230118D01*
X55200Y241103D02*
X61183Y235120D01*
X162229Y188164D02*
Y189864D01*
X156827Y195266D02*
X162229Y189864D01*
Y188164D02*
X162402Y187992D01*
X132467Y306089D02*
X134055Y307677D01*
Y310827D01*
X125121Y306089D02*
X132467D01*
X124250Y306960D02*
X125121Y306089D01*
X122683Y308858D02*
X124250Y307291D01*
Y306960D02*
Y307291D01*
X121358Y308858D02*
X122683D01*
X179921Y345276D02*
X180020Y345177D01*
X184941D01*
X185039Y345079D01*
X128197Y251656D02*
X129764Y250088D01*
X127203Y251656D02*
X128197D01*
X129764Y249095D02*
Y250088D01*
X115965Y257874D02*
X120984D01*
X127203Y251656D01*
X206002Y254441D02*
X207250Y255689D01*
X212028D01*
X204435Y252402D02*
X206002Y253969D01*
Y254441D01*
X203110Y252402D02*
X204435D01*
D12*
X173169Y279763D02*
Y292816D01*
X170119Y276713D02*
X173169Y279763D01*
X172283Y293701D02*
X173169Y292816D01*
X165965Y276713D02*
X170119D01*
X165000Y275748D02*
X165965Y276713D01*
X155787Y275512D02*
X156024Y275748D01*
X165000D01*
X205512Y350590D02*
X214173D01*
X196063D02*
X205512D01*
X116400Y360174D02*
X120928D01*
X125984Y355118D01*
X129921D02*
X137205D01*
X125984D02*
X129921D01*
X101575Y366142D02*
X107283Y360433D01*
X88189Y366142D02*
X101575D01*
X116142Y360433D02*
X116400Y360174D01*
X107283Y360433D02*
X116142D01*
X136988Y262874D02*
X138917D01*
X139656Y262135D01*
X140128D01*
X140354Y261910D01*
X329035Y191240D02*
X337303D01*
X342520Y196457D02*
Y210236D01*
X337303Y191240D02*
X342520Y196457D01*
X116732Y368504D02*
Y383858D01*
D18*
X137402Y310827D02*
D03*
X134055D02*
D03*
X140748D02*
D03*
X144095D02*
D03*
X147441D02*
D03*
X150787D02*
D03*
X154134D02*
D03*
X157480D02*
D03*
X160827D02*
D03*
X167520D02*
D03*
X174213D02*
D03*
X177559D02*
D03*
X180905D02*
D03*
X134055Y365945D02*
D03*
X144095D02*
D03*
X147441D02*
D03*
X137402D02*
D03*
X140748D02*
D03*
X150787D02*
D03*
X154134D02*
D03*
X167520D02*
D03*
X157480D02*
D03*
X164173D02*
D03*
X160827D02*
D03*
X177559D02*
D03*
X170866D02*
D03*
X174213D02*
D03*
X180905D02*
D03*
X170866Y310827D02*
D03*
X164173D02*
D03*
D19*
X129921Y321654D02*
D03*
Y325000D02*
D03*
X185039Y345079D02*
D03*
Y341732D02*
D03*
Y361811D02*
D03*
Y358465D02*
D03*
X129921Y351772D02*
D03*
Y348425D02*
D03*
Y345079D02*
D03*
Y341732D02*
D03*
Y338386D02*
D03*
Y335039D02*
D03*
Y331693D02*
D03*
Y328346D02*
D03*
Y318307D02*
D03*
Y314961D02*
D03*
X185039Y331693D02*
D03*
Y335039D02*
D03*
Y338386D02*
D03*
Y348425D02*
D03*
X129921Y361811D02*
D03*
Y358465D02*
D03*
X185039Y355118D02*
D03*
Y351772D02*
D03*
Y328346D02*
D03*
Y321654D02*
D03*
Y314961D02*
D03*
Y318307D02*
D03*
Y325000D02*
D03*
X129921Y355118D02*
D03*
D20*
Y310827D02*
D03*
Y365945D02*
D03*
X185039D02*
D03*
Y310827D02*
D03*
D21*
X150984Y338386D02*
D03*
Y331890D02*
D03*
X157480Y338386D02*
D03*
Y344882D02*
D03*
Y331890D02*
D03*
X163976D02*
D03*
Y344882D02*
D03*
Y338386D02*
D03*
D22*
X212028Y270689D02*
D03*
Y255689D02*
D03*
X233051Y265689D02*
D03*
X212028Y260689D02*
D03*
X212028Y265689D02*
D03*
X233051Y270689D02*
D03*
X233051Y255689D02*
D03*
X233051Y260689D02*
D03*
X136988Y262874D02*
D03*
X115965Y267874D02*
D03*
Y262874D02*
D03*
X136988Y272874D02*
D03*
Y267874D02*
D03*
X115965Y272874D02*
D03*
Y257874D02*
D03*
X136988D02*
D03*
D23*
X167008Y253543D02*
D03*
X214173Y350590D02*
D03*
X116142Y360433D02*
D03*
X196063Y350590D02*
D03*
X165236Y275984D02*
D03*
X342126Y268701D02*
D03*
X144882Y37205D02*
D03*
X122047Y107283D02*
D03*
X144882Y12795D02*
D03*
X121260Y331496D02*
D03*
X203110Y244921D02*
D03*
X331890Y284055D02*
D03*
X167008Y261024D02*
D03*
X122047Y114764D02*
D03*
X121358Y308858D02*
D03*
X196063Y358071D02*
D03*
X214173D02*
D03*
X165236Y283465D02*
D03*
X203110Y252402D02*
D03*
X144882Y20276D02*
D03*
Y29724D02*
D03*
X121358Y316339D02*
D03*
X121260Y324016D02*
D03*
X342126Y276181D02*
D03*
X331890Y276575D02*
D03*
X116142Y367913D02*
D03*
D24*
X97205Y357303D02*
D03*
X79173D02*
D03*
X88189D02*
D03*
D25*
X217126Y25591D02*
D03*
X245079D02*
D03*
D26*
X224634Y64173D02*
D03*
X340382Y325197D02*
D03*
X340382Y314173D02*
D03*
X156035Y259016D02*
D03*
X233634Y64173D02*
D03*
X342744Y257087D02*
D03*
X349382Y325197D02*
D03*
Y314173D02*
D03*
X147035Y259016D02*
D03*
X351744Y257087D02*
D03*
D27*
X223819Y50394D02*
D03*
X330512Y357972D02*
D03*
Y346850D02*
D03*
Y335827D02*
D03*
Y324803D02*
D03*
X109252Y383858D02*
D03*
X137244Y249095D02*
D03*
X212008Y208268D02*
D03*
X246929Y50472D02*
D03*
X347047Y336221D02*
D03*
X337992Y357972D02*
D03*
X339567Y336221D02*
D03*
X323031Y335827D02*
D03*
Y324803D02*
D03*
X337992Y346850D02*
D03*
X204527Y208268D02*
D03*
X129764Y249095D02*
D03*
X231299Y50394D02*
D03*
X239449Y50472D02*
D03*
X116732Y383858D02*
D03*
D28*
X199815Y31890D02*
D03*
X160815D02*
D03*
D29*
X386791Y267323D02*
D03*
D30*
X360453Y258307D02*
D03*
X360453Y267323D02*
D03*
X360453Y276339D02*
D03*
D31*
X88189Y383642D02*
D03*
D32*
X147913Y279252D02*
D03*
X155787Y282992D02*
D03*
Y275512D02*
D03*
D33*
X89705Y37559D02*
D03*
Y17559D02*
D03*
D34*
X351575Y267941D02*
D03*
X144882Y47469D02*
D03*
Y56468D02*
D03*
X351575Y276941D02*
D03*
D35*
X183636Y218282D02*
D03*
X207448Y170834D02*
D03*
X176450Y226568D02*
D03*
X190000Y224646D02*
D03*
X213812Y177198D02*
D03*
X170086Y220204D02*
D03*
D36*
X196803Y171993D02*
D03*
X148475Y186915D02*
D03*
X149867Y188307D02*
D03*
X195411Y170601D02*
D03*
X194019Y169209D02*
D03*
X189843Y165033D02*
D03*
X188452Y163642D02*
D03*
X187060Y162250D02*
D03*
X185668Y160858D02*
D03*
X184276Y159466D02*
D03*
X180100Y155290D02*
D03*
X155435Y193875D02*
D03*
X156827Y195266D02*
D03*
X158219Y196659D02*
D03*
X159610Y198050D02*
D03*
X161003Y199442D02*
D03*
X162394Y200834D02*
D03*
X163786Y202226D02*
D03*
X175924Y151114D02*
D03*
X144299Y182739D02*
D03*
X182884Y158074D02*
D03*
X145691Y184131D02*
D03*
X151259Y189699D02*
D03*
X181492Y156682D02*
D03*
X147083Y185523D02*
D03*
X178708Y153898D02*
D03*
X152651Y191091D02*
D03*
X177316Y152506D02*
D03*
X154043Y192483D02*
D03*
X192627Y167817D02*
D03*
X191235Y166426D02*
D03*
X165178Y203618D02*
D03*
D37*
Y151114D02*
D03*
X147083Y169209D02*
D03*
X175924Y203618D02*
D03*
X163786Y152506D02*
D03*
X145691Y170601D02*
D03*
X177316Y202226D02*
D03*
X196803Y182739D02*
D03*
X182884Y196659D02*
D03*
X184276Y195266D02*
D03*
X162394Y153898D02*
D03*
X161003Y155290D02*
D03*
X159610Y156682D02*
D03*
X155435Y160858D02*
D03*
X154043Y162250D02*
D03*
X148475Y167817D02*
D03*
X178708Y200834D02*
D03*
X180100Y199442D02*
D03*
X181492Y198050D02*
D03*
X185668Y193875D02*
D03*
X187060Y192483D02*
D03*
X188452Y191091D02*
D03*
X189843Y189699D02*
D03*
X191235Y188307D02*
D03*
X192627Y186915D02*
D03*
X194019Y185523D02*
D03*
X195411Y184131D02*
D03*
X152651Y163642D02*
D03*
X151259Y165033D02*
D03*
X158219Y158074D02*
D03*
X144299Y171993D02*
D03*
X156827Y159466D02*
D03*
X149867Y166426D02*
D03*
D38*
X118898Y13976D02*
D03*
Y41929D02*
D03*
D42*
X163189Y75590D02*
D03*
X147047D02*
D03*
D43*
X191031Y136405D02*
D03*
X178261Y138595D02*
D03*
X183550Y143885D02*
D03*
X185741Y131115D02*
D03*
D81*
X276575Y367421D02*
D03*
Y286713D02*
D03*
D98*
X386311Y62063D02*
D03*
X275858Y52063D02*
D03*
X275858Y62063D02*
D03*
X386311Y82063D02*
D03*
X368347Y190787D02*
D03*
X378346D02*
D03*
Y180787D02*
D03*
X368347D02*
D03*
Y170787D02*
D03*
Y200787D02*
D03*
X378346Y200787D02*
D03*
X378346Y210787D02*
D03*
X368347Y210787D02*
D03*
X275858Y32063D02*
D03*
Y42063D02*
D03*
X386311Y122063D02*
D03*
Y112063D02*
D03*
Y102063D02*
D03*
Y92063D02*
D03*
Y72063D02*
D03*
Y52063D02*
D03*
Y32063D02*
D03*
Y42063D02*
D03*
X275858Y122063D02*
D03*
Y112063D02*
D03*
Y102063D02*
D03*
Y92063D02*
D03*
Y82063D02*
D03*
Y72063D02*
D03*
D99*
X150984Y344882D02*
D03*
D100*
X44705Y27559D02*
D03*
D101*
X127953Y62598D02*
D03*
Y89370D02*
D03*
Y75984D02*
D03*
Y82677D02*
D03*
Y69291D02*
D03*
D102*
X49508Y73524D02*
D03*
Y64862D02*
D03*
D103*
X86221Y75984D02*
D03*
D104*
X342520Y210236D02*
D03*
X351181D02*
D03*
D105*
X113285Y296164D02*
X115686Y293762D01*
Y300533D02*
Y300983D01*
Y293312D02*
Y293762D01*
X113285Y298132D02*
X115686Y300533D01*
X149332Y323917D02*
X151036Y322213D01*
X149213Y323917D02*
X149332D01*
X154703Y323896D02*
X154844D01*
X153021Y322213D02*
X154703Y323896D01*
X158161Y312295D02*
Y313714D01*
X151036Y320839D02*
X156405Y315470D01*
X157227Y317454D02*
X157227D01*
X156405Y315470D02*
X158161Y313714D01*
X160146Y312295D02*
Y314536D01*
Y312295D02*
X160827Y311614D01*
X156405Y315470D02*
X156405D01*
X153021Y321661D02*
X157227Y317454D01*
X157227D02*
X160146Y314536D01*
X153021Y321661D02*
Y322213D01*
X151036Y320839D02*
Y322213D01*
X157480Y310827D02*
Y311614D01*
X160827Y310827D02*
Y311614D01*
X157480D02*
X158161Y312295D01*
X59365Y347450D02*
Y347835D01*
X259606Y373780D02*
Y381496D01*
X255900Y370073D02*
X259606Y373780D01*
X244876Y370073D02*
X255900D01*
X219685Y344882D02*
X244876Y370073D01*
X192564Y366580D02*
X196107D01*
X185099Y361871D02*
X187855D01*
X192564Y366580D01*
X204724Y367520D02*
X211363Y360881D01*
X197047Y367520D02*
X204724D01*
X211753Y359547D02*
Y360491D01*
X211363Y360881D02*
X211363D01*
X211753Y360491D01*
Y359547D02*
X213230Y358071D01*
X214173D01*
X185039Y361811D02*
X185099Y361871D01*
X68561Y345062D02*
X75017D01*
X77407Y342671D01*
Y342671D02*
Y342671D01*
Y342671D02*
X88976Y331102D01*
Y304724D02*
Y331102D01*
X197141Y190654D02*
X198031Y189764D01*
X201969D02*
X207087Y184646D01*
X193760Y190654D02*
X197141D01*
X198031Y189764D02*
X201969D01*
X191235Y188307D02*
X191319D01*
X193367Y190262D02*
X193760Y190654D01*
X191319Y188307D02*
X193274Y190262D01*
X193367D01*
X178445Y210631D02*
X181031Y213217D01*
X178445Y206223D02*
Y210631D01*
X175924Y203702D02*
X178445Y206223D01*
X177316Y202226D02*
X181551Y206461D01*
Y207929D01*
X181890Y208268D01*
X185433Y207643D02*
Y210000D01*
X178708Y200918D02*
X185433Y207643D01*
Y210000D02*
X231122Y255689D01*
X251575Y258661D02*
Y266535D01*
X233051Y270689D02*
X247421D01*
X251575Y266535D01*
X213386Y220472D02*
X251575Y258661D01*
X201214Y220472D02*
X213386D01*
X87008Y303909D02*
X94753Y296164D01*
X113285D01*
X95569Y298132D02*
X113285D01*
X88976Y304724D02*
X95569Y298132D01*
X181031Y213217D02*
X183636Y215822D01*
X181031Y213217D02*
Y213217D01*
X183636Y215822D02*
Y218282D01*
X142170Y164296D02*
X147083Y169209D01*
X142170Y163626D02*
Y164296D01*
X141831Y163287D02*
X142170Y163626D01*
X118898Y13976D02*
X118898Y13976D01*
X195411Y170601D02*
X203808Y162205D01*
X210138D01*
X216142Y168209D01*
Y173522D01*
X213812Y175852D02*
Y177198D01*
Y175852D02*
X216142Y173522D01*
X180401Y353150D02*
X181779Y351772D01*
X185039D01*
X180020Y353150D02*
X180401D01*
X180020D02*
X181988Y355118D01*
X185039D01*
X198031Y160236D02*
Y165197D01*
X194019Y169209D02*
X198031Y165197D01*
X181890Y328346D02*
X185039D01*
X178150Y332087D02*
Y334547D01*
Y332087D02*
X181890Y328346D01*
X74382Y342913D02*
X87008Y330287D01*
X63902Y342913D02*
X74382D01*
X59365Y347450D02*
X63902Y342913D01*
X66142Y347481D02*
Y347835D01*
Y347481D02*
X68561Y345062D01*
X158760Y176378D02*
X161713Y173425D01*
X148684Y176378D02*
X158760D01*
X179823Y169390D02*
X180162Y169051D01*
X183169Y168432D02*
X183661D01*
X180162Y169051D02*
X182550D01*
X183169Y168432D01*
X183661D02*
X188452Y163642D01*
X184068Y165157D02*
X186976Y162250D01*
X178235Y165157D02*
X184068D01*
X176857Y163779D02*
X178235Y165157D01*
X209605Y193799D02*
X214428Y188976D01*
X189927Y189699D02*
X194027Y193799D01*
X209605D01*
X156102Y206221D02*
X170086Y220204D01*
X156102Y201642D02*
X159610Y198134D01*
X156102Y201642D02*
Y206221D01*
X180183Y199442D02*
X201214Y220472D01*
X178708Y200834D02*
Y200918D01*
X231122Y255689D02*
X233051D01*
X187378Y203937D02*
X196457D01*
X181492Y198050D02*
X187378Y203937D01*
X200787Y208268D02*
X204527D01*
X196457Y203937D02*
X200787Y208268D01*
X159610Y198050D02*
Y198134D01*
X170086Y220204D02*
X170086D01*
Y220204D02*
Y220204D01*
X160118Y225197D02*
X165093D01*
X170086Y220204D01*
X226772Y196850D02*
X235827Y187795D01*
X184276Y195266D02*
X184359D01*
X187124Y198031D01*
X190551Y196850D02*
X226772D01*
X187124Y198031D02*
X189370D01*
X190551Y196850D01*
X261024Y46898D02*
X275858Y32063D01*
X261024Y46898D02*
Y135827D01*
X276772Y151575D01*
Y182677D01*
X268209Y191240D02*
X276772Y182677D01*
X259035Y191240D02*
X268209D01*
X235827Y187795D02*
X240551D01*
X248425D02*
X251870Y191240D01*
X259035D01*
X240551Y187795D02*
X248425D01*
X184897Y169980D02*
X189843Y165033D01*
X184646Y172835D02*
X184897Y172584D01*
Y169980D02*
Y172584D01*
X158135Y196659D02*
X158219D01*
X152313Y202480D02*
X158135Y196659D01*
X151850Y202480D02*
X152313D01*
X182884Y196659D02*
X182967D01*
X240551Y197795D02*
X241890D01*
X182967Y196659D02*
X186703Y200394D01*
X236678D01*
X239276Y197795D02*
X240551D01*
X236678Y200394D02*
X239276Y197795D01*
X265354Y52567D02*
X275858Y42063D01*
X265354Y52567D02*
Y131890D01*
X245177Y201083D02*
X259035D01*
X241890Y197795D02*
X245177Y201083D01*
X259035D02*
X270177D01*
X265354Y131890D02*
X285039Y151575D01*
X270177Y201083D02*
X285039Y186221D01*
Y151575D02*
Y186221D01*
X188716Y175960D02*
X189055Y176299D01*
X188716Y168945D02*
X191235Y166426D01*
X188716Y168945D02*
Y175960D01*
X180100Y199442D02*
X180183D01*
X214428Y188976D02*
X214567D01*
X189843Y189699D02*
X189927D01*
X186976Y162250D02*
X187060D01*
X176378Y163779D02*
X176857D01*
X144299Y171993D02*
X148684Y176378D01*
X235827Y153150D02*
X258057Y175380D01*
X194095Y153150D02*
X235827D01*
X258057Y175380D02*
Y180419D01*
X259035Y181398D01*
X198228Y344882D02*
X219685D01*
X195079Y341732D02*
X198228Y344882D01*
X196107Y366580D02*
X197047Y367520D01*
X87008Y303909D02*
Y330287D01*
X185039Y341732D02*
X195079D01*
X140748Y310827D02*
X140817Y310758D01*
Y293770D02*
Y310758D01*
Y293770D02*
X140886Y293701D01*
X195669Y358465D02*
X196063Y358071D01*
X185039Y358465D02*
X195669D01*
X179921Y361024D02*
X180401D01*
X181188Y361811D01*
X185039D01*
X197047Y367520D02*
Y385236D01*
X155591Y282992D02*
X155787D01*
X150886Y287697D02*
X155591Y282992D01*
X150886Y287697D02*
Y293701D01*
X155787Y282992D02*
X156260Y283465D01*
X165236D01*
X233051Y265689D02*
X233061Y265699D01*
X239409Y50433D02*
X239449Y50472D01*
X231299Y50394D02*
X231339Y50433D01*
X129921Y351772D02*
X134843D01*
X137402Y349213D01*
X58268Y347835D02*
X59365D01*
X116142Y367913D02*
X116732Y368504D01*
D106*
X86221Y75984D02*
Y86275D01*
X69815Y102681D02*
X86221Y86275D01*
X59327Y102681D02*
X69815D01*
X86221Y75984D02*
X127953D01*
X330512Y325000D02*
X340185D01*
X340382Y325197D01*
Y325028D02*
Y325197D01*
X340354Y325000D02*
X340382Y325028D01*
X340382Y314173D02*
Y325197D01*
X330512Y325000D02*
Y335827D01*
Y324803D02*
Y325000D01*
X97638Y322835D02*
Y342126D01*
X97244Y342520D02*
X97638Y342126D01*
X97244Y350000D02*
Y357264D01*
X97205Y357303D02*
X97244Y357264D01*
Y342520D02*
Y350000D01*
X95669Y280709D02*
X102756Y285433D01*
X95669Y320866D02*
X97638Y322835D01*
X95669Y311024D02*
Y320866D01*
X290945Y257480D02*
X303937D01*
X304215Y155627D02*
Y257759D01*
X364961Y225590D02*
X370079Y230709D01*
X342126Y225590D02*
X364961D01*
X370079Y230709D02*
Y238189D01*
X61417Y382677D02*
X61900Y383159D01*
X87707D01*
X88189Y383642D01*
X88189Y357303D02*
Y366142D01*
X88189Y357303D02*
X88189Y357303D01*
X330512Y335827D02*
Y346850D01*
Y357972D01*
Y365256D01*
X336910Y371654D01*
X364961D01*
X158324Y131946D02*
X162598Y136221D01*
X259035Y220768D02*
X290928D01*
X359591Y62063D02*
X386311D01*
X275858Y52063D02*
X295764D01*
X332677Y88976D01*
X359591Y62063D01*
X332677Y88976D02*
Y127165D01*
X315158Y268701D02*
X342126D01*
X304215Y155627D02*
X332677Y127165D01*
X303937Y257480D02*
X315158Y268701D01*
X290928Y220768D02*
X303822Y233661D01*
X158324Y118251D02*
Y131946D01*
X186417Y90158D02*
X210630D01*
X158324Y118251D02*
X186417Y90158D01*
X118898Y13976D02*
Y14114D01*
X118898Y14114D02*
Y25197D01*
Y14114D02*
X118898Y14114D01*
X115453Y17559D02*
X118898Y14114D01*
Y13976D02*
Y14114D01*
X118898Y13976D02*
X120079Y12795D01*
X89705Y17559D02*
X115453D01*
X122047Y103937D02*
Y107283D01*
X127559Y89764D02*
Y98425D01*
Y89764D02*
X127953Y89370D01*
X120079Y12795D02*
X144882D01*
X122047Y103937D02*
X127559Y98425D01*
X144882Y56468D02*
Y63779D01*
X163189Y75590D02*
X163386D01*
X164764Y74213D01*
Y69213D02*
X167205Y66772D01*
X164764Y69213D02*
Y74213D01*
X56083Y358169D02*
X76867D01*
X47638Y366614D02*
X56083Y358169D01*
X77123Y357913D02*
X79035D01*
X76867Y358169D02*
X77123Y357913D01*
X79035Y357441D02*
X79173Y357303D01*
X79035Y357441D02*
Y357913D01*
X137244Y249095D02*
Y249539D01*
X140059D02*
X149083D01*
X137244D02*
X140059D01*
X149083D02*
X150591Y248031D01*
X195866Y125984D02*
Y131569D01*
X233634Y64173D02*
X234224Y63583D01*
X191031Y136405D02*
X195866Y131569D01*
X214229Y176780D02*
X215343D01*
X216358Y177795D01*
X212008Y208268D02*
X220374D01*
X220669Y208563D01*
X245079Y25591D02*
X246890Y27402D01*
Y50433D01*
X246929Y50472D01*
X241890Y63583D02*
X246929Y58543D01*
Y50472D02*
Y58543D01*
X234224Y63583D02*
X241890D01*
X216358Y177795D02*
X240551D01*
X176450Y226568D02*
X176867Y226150D01*
X177981D01*
X179882Y228051D01*
X182776D01*
X185633D02*
X189038Y224646D01*
X190000D01*
X182776Y228051D02*
X199646Y244921D01*
X182776Y228051D02*
X185633D01*
X199646Y244921D02*
X203110D01*
X331890Y284055D02*
X347900D01*
X360315Y276476D02*
X360453Y276339D01*
X350206Y277728D02*
Y281749D01*
Y277728D02*
X350994Y276941D01*
X347900Y284055D02*
X350206Y281749D01*
X350994Y276941D02*
X351575D01*
X351449Y276476D02*
X360315D01*
X110236Y111024D02*
X113976Y114764D01*
X122047D01*
X102913Y111024D02*
X110236D01*
Y90158D02*
Y111024D01*
Y90158D02*
X117717Y82677D01*
X127953D01*
X127953Y82677D01*
X92913Y111024D02*
X102913D01*
X231339Y50433D02*
X239409D01*
X127953Y69291D02*
X139347D01*
X144268Y74213D02*
X145669D01*
X139347Y69291D02*
X144268Y74213D01*
X145669D02*
X147047Y75590D01*
X147244D02*
X150098Y72736D01*
X160815Y31890D02*
Y61823D01*
X150098Y72539D02*
X160815Y61823D01*
X150098Y72539D02*
Y72736D01*
X144882Y20276D02*
Y29724D01*
D107*
X164423Y252165D02*
X165801Y253543D01*
X168215D02*
X169593Y252165D01*
X165801Y253543D02*
X168215D01*
X164423Y250958D02*
Y252165D01*
X104724Y258169D02*
Y271654D01*
X192283Y248976D02*
Y293701D01*
X169593Y250958D02*
X176457Y244094D01*
X187402D02*
X192283Y248976D01*
X176457Y244094D02*
X187402D01*
X169593Y250958D02*
Y252165D01*
X104724Y258169D02*
X122736Y240158D01*
X153622D02*
X164423Y250958D01*
X122736Y240158D02*
X153622D01*
X95669Y280709D02*
X104724Y271654D01*
X168110Y172530D02*
X175895Y180315D01*
X168110Y172530D02*
Y195888D01*
X204724Y168110D02*
X207448Y170834D01*
X162598Y136221D02*
Y148534D01*
X165178Y151114D01*
X159538Y181102D02*
X168110Y172530D01*
X152559Y181102D02*
X159538D01*
X200686Y168110D02*
X204724D01*
X196803Y171993D02*
X200686Y168110D01*
X168110Y195888D02*
X175924Y203702D01*
X165178Y151114D02*
Y151152D01*
X168110Y154084D01*
Y172530D01*
X195077Y173719D02*
X196803Y171993D01*
X190945Y180315D02*
X195077Y176183D01*
Y173719D02*
Y176183D01*
X175895Y180315D02*
X190945D01*
X276575Y267717D02*
Y286713D01*
X175651Y213840D02*
X177290D01*
X177591Y214141D01*
X165332Y203521D02*
X175651Y213840D01*
D108*
X49508Y73524D02*
Y82185D01*
X47516Y84177D02*
X49508Y82185D01*
D109*
X112311Y333169D02*
X113985Y331496D01*
X121260D01*
X112205Y333169D02*
X112311D01*
X106988Y375689D02*
Y380309D01*
X108372Y381693D01*
X108465D01*
X109252Y382480D01*
Y383858D01*
X150591Y248031D02*
X156035Y253476D01*
Y259016D01*
X233051Y260689D02*
X240681D01*
X242708Y258661D01*
X183071Y301878D02*
X185039Y303847D01*
X183071Y301772D02*
Y301878D01*
X185039Y303847D02*
Y310827D01*
X242708Y258661D02*
X242815D01*
X121309Y316388D02*
X121358Y316339D01*
X121309Y316388D02*
Y323967D01*
X121260Y324016D02*
X121309Y323967D01*
D110*
X150886Y331988D02*
X150984Y331890D01*
X144390Y331988D02*
X150886D01*
X155118Y344882D02*
Y362205D01*
D111*
X347047Y328122D02*
Y336221D01*
Y328122D02*
X349382Y325787D01*
Y314173D02*
Y325197D01*
Y325787D01*
X347047Y336221D02*
X363878D01*
X366240Y338583D01*
X342744Y247272D02*
Y257087D01*
X338583Y243110D02*
X342744Y247272D01*
D112*
X145773Y159547D02*
X151259Y165033D01*
X95468Y199807D02*
X135728Y159547D01*
X145773D01*
X86020Y258862D02*
X120473Y224410D01*
X139252D01*
X76811Y258862D02*
X86020D01*
X139252Y224410D02*
X152677Y210984D01*
X129724Y213779D02*
X144193Y199311D01*
X147214D02*
X154034Y192491D01*
X144193Y199311D02*
X147214D01*
X94583Y235240D02*
X116043Y213779D01*
X129724D01*
X76811Y235240D02*
X94583D01*
X154034Y192491D02*
Y192491D01*
X76811Y199807D02*
X95468D01*
X85232Y264768D02*
X122146Y227854D01*
X66969Y264768D02*
X85232D01*
X122146Y227854D02*
X143799D01*
X156575Y215079D01*
X123917Y231201D02*
X147835D01*
X84445Y270673D02*
X123917Y231201D01*
X76811Y270673D02*
X84445D01*
X159667Y219368D02*
X160514D01*
X160906Y218976D01*
X147835Y231201D02*
X159667Y219368D01*
X66969Y252957D02*
X86807D01*
X118898Y220866D02*
X134488D01*
X86807Y252957D02*
X118898Y220866D01*
X134488D02*
X148268Y207087D01*
X93500Y241146D02*
X117323Y217323D01*
X131986D01*
X66969Y241146D02*
X93500D01*
X131986Y217323D02*
X155435Y193875D01*
D113*
X351181Y210236D02*
X351378Y210433D01*
X367992D01*
X368347Y210787D01*
X145968Y260083D02*
X147035Y259016D01*
X145968Y260083D02*
Y265315D01*
X143409Y267874D02*
X145968Y265315D01*
X136988Y267874D02*
X143409D01*
X146244Y270709D01*
X146457D01*
X233061Y265699D02*
X233081Y265719D01*
X241703D02*
X241732Y265748D01*
X233081Y265719D02*
X241703D01*
X331890Y276575D02*
X332087Y276378D01*
X341929D01*
X342126Y276181D01*
D114*
X34826Y99759D02*
X35827Y100760D01*
X14409Y88425D02*
X25744Y99759D01*
X14409Y67716D02*
Y88425D01*
X25744Y99759D02*
X34826D01*
X35827Y100760D02*
Y142520D01*
X45315Y152008D01*
Y176185D01*
D115*
X185201Y325162D02*
X188252D01*
X204380Y341289D02*
X223327D01*
X188252Y325162D02*
X204380Y341289D01*
X185039Y325000D02*
X185201Y325162D01*
X201279Y318307D02*
X209990Y327018D01*
X223327D01*
X185039Y318307D02*
X201279D01*
X190748Y314961D02*
X194488Y311221D01*
X185039Y314961D02*
X190748D01*
X214665Y311221D02*
X223327Y319882D01*
X194488Y311221D02*
X214665D01*
X204654Y334154D02*
X223327D01*
X192154Y321654D02*
X204654Y334154D01*
X185039Y321654D02*
X192154D01*
D116*
X178261Y138595D02*
X185741Y131115D01*
X178261Y138595D02*
X178261D01*
D117*
X183721Y256713D02*
D03*
Y266713D02*
D03*
Y276713D02*
D03*
X87638Y342126D02*
D03*
X97638D02*
D03*
X107638D02*
D03*
X192283Y293701D02*
D03*
X360079Y238189D02*
D03*
X182283Y293701D02*
D03*
X172283D02*
D03*
X234567Y288976D02*
D03*
X224567D02*
D03*
X214567D02*
D03*
X240551Y197795D02*
D03*
Y187795D02*
D03*
Y177795D02*
D03*
X370079Y238189D02*
D03*
X380079D02*
D03*
X249606Y381496D02*
D03*
X259606D02*
D03*
X239606D02*
D03*
X240551Y224410D02*
D03*
Y214409D02*
D03*
Y234409D02*
D03*
X130886Y293701D02*
D03*
X140886D02*
D03*
X150886D02*
D03*
D118*
X66142Y337992D02*
D03*
D119*
X102756Y285433D02*
D03*
X61417Y382677D02*
D03*
X37402Y382283D02*
D03*
X290945Y257480D02*
D03*
X342126Y225590D02*
D03*
D120*
X82913Y111024D02*
D03*
X92913D02*
D03*
D121*
X45315Y223429D02*
D03*
X55158Y229335D02*
D03*
X45315Y247051D02*
D03*
Y235240D02*
D03*
X55158Y217524D02*
D03*
Y205713D02*
D03*
X45315Y258862D02*
D03*
Y270673D02*
D03*
X55158Y252957D02*
D03*
X66969Y264768D02*
D03*
X45315Y211618D02*
D03*
X76811Y235240D02*
D03*
Y258862D02*
D03*
X66969Y252957D02*
D03*
Y217524D02*
D03*
X76811Y199807D02*
D03*
Y223429D02*
D03*
Y187996D02*
D03*
X66969Y182091D02*
D03*
X76811Y211618D02*
D03*
Y176185D02*
D03*
X45315Y187996D02*
D03*
X55158Y241146D02*
D03*
X66969D02*
D03*
X45315Y199807D02*
D03*
X76811Y247051D02*
D03*
X66969Y229335D02*
D03*
X55158Y264768D02*
D03*
X66969Y205713D02*
D03*
Y193902D02*
D03*
X55158D02*
D03*
Y182091D02*
D03*
X45315Y176185D02*
D03*
D122*
X106102Y309646D02*
D03*
Y327362D02*
D03*
X80512Y309646D02*
D03*
X197047Y367520D02*
D03*
Y385236D02*
D03*
X222638D02*
D03*
X205270Y100833D02*
D03*
X192743Y113361D02*
D03*
X210838Y131456D02*
D03*
D123*
X80512Y327362D02*
D03*
X222638Y367520D02*
D03*
D124*
X223365Y118929D02*
D03*
D125*
X34409Y67716D02*
D03*
X14409D02*
D03*
D126*
X19724Y147642D02*
D03*
Y299217D02*
D03*
D127*
X76811Y270673D02*
D03*
D128*
X102913Y111024D02*
D03*
D129*
X259035Y220768D02*
D03*
X329035Y191240D02*
D03*
X259035Y210925D02*
D03*
X329035Y201083D02*
D03*
X329035Y210925D02*
D03*
Y220768D02*
D03*
X259035Y181398D02*
D03*
X259035Y201083D02*
D03*
Y191240D02*
D03*
D130*
X47516Y84177D02*
D03*
D131*
X59327Y102681D02*
D03*
D132*
X47638Y319213D02*
D03*
Y366614D02*
D03*
D133*
X58268Y337992D02*
D03*
X66142Y347835D02*
D03*
X58268D02*
D03*
D134*
X378346Y170787D02*
D03*
X386311Y22063D02*
D03*
X275858Y22063D02*
D03*
D135*
X264035Y163110D02*
D03*
X324036Y163110D02*
D03*
X324035Y248110D02*
D03*
X264035D02*
D03*
X13638Y14331D02*
D03*
X380035Y136835D02*
D03*
Y379331D02*
D03*
X13638D02*
D03*
D136*
X259035Y230610D02*
D03*
D137*
X375374Y346280D02*
D03*
Y319508D02*
D03*
D138*
X35827Y101181D02*
D03*
D139*
X115686Y293312D02*
D03*
Y300983D02*
D03*
X149213Y323917D02*
D03*
X154844Y323896D02*
D03*
X74316Y92033D02*
D03*
X84159Y82190D02*
D03*
X94488Y71638D02*
D03*
X84277Y72097D02*
D03*
X123327Y246949D02*
D03*
X120691Y348177D02*
D03*
X340354Y325000D02*
D03*
X321752Y377756D02*
D03*
X306496Y371850D02*
D03*
X97244Y350000D02*
D03*
X95669Y311024D02*
D03*
Y280709D02*
D03*
X181890Y208268D02*
D03*
X249213Y283071D02*
D03*
X212598Y319291D02*
D03*
X96457Y269291D02*
D03*
X238583Y165748D02*
D03*
X222047Y161417D02*
D03*
X227559Y145276D02*
D03*
X366929Y123622D02*
D03*
X361024Y289370D02*
D03*
X346063Y292520D02*
D03*
X364961Y371654D02*
D03*
X205512Y350590D02*
D03*
X137303Y355217D02*
D03*
X88189Y366142D02*
D03*
X162598Y136221D02*
D03*
X210630Y90158D02*
D03*
X152559Y181102D02*
D03*
X141831Y163287D02*
D03*
X118898Y25197D02*
D03*
X15748Y46260D02*
D03*
Y33465D02*
D03*
X60039Y71850D02*
D03*
X73228Y124803D02*
D03*
X12992D02*
D03*
X19685D02*
D03*
X6299D02*
D03*
X12795Y167323D02*
D03*
X53150Y124803D02*
D03*
X59842D02*
D03*
X26378D02*
D03*
X46457D02*
D03*
X23622Y180118D02*
D03*
X10827Y226378D02*
D03*
X23622D02*
D03*
X93701Y124803D02*
D03*
X100394D02*
D03*
X66535D02*
D03*
X87008D02*
D03*
X120472D02*
D03*
X127165D02*
D03*
X107087D02*
D03*
X113779D02*
D03*
X100394Y138779D02*
D03*
X125984D02*
D03*
X127559Y98425D02*
D03*
X133858Y124803D02*
D03*
X143307Y108661D02*
D03*
Y101969D02*
D03*
X138583Y120079D02*
D03*
X143307Y115354D02*
D03*
X144882Y63779D02*
D03*
X167205Y66772D02*
D03*
X148031Y90551D02*
D03*
X143307Y95276D02*
D03*
X161417Y90551D02*
D03*
X166142Y85827D02*
D03*
X154724Y90551D02*
D03*
X136188Y173117D02*
D03*
X153543Y141732D02*
D03*
X157382Y185335D02*
D03*
X10827Y261811D02*
D03*
Y281496D02*
D03*
X23622Y267717D02*
D03*
X34449Y293307D02*
D03*
X62008Y282480D02*
D03*
X78740Y291339D02*
D03*
X115059Y286024D02*
D03*
X105512Y356299D02*
D03*
X112205Y333169D02*
D03*
X106988Y375689D02*
D03*
X140059Y249539D02*
D03*
X129921Y310827D02*
D03*
X150591Y248031D02*
D03*
X165354Y237205D02*
D03*
X140354Y261910D02*
D03*
X144390Y331988D02*
D03*
X155118Y362205D02*
D03*
X183071Y66929D02*
D03*
X184646Y80709D02*
D03*
X171260D02*
D03*
X177953D02*
D03*
X204724D02*
D03*
Y66929D02*
D03*
X191339Y80709D02*
D03*
X198031D02*
D03*
X195866Y125984D02*
D03*
X218110Y80709D02*
D03*
X224803D02*
D03*
X211417D02*
D03*
X231496D02*
D03*
X220669Y208563D02*
D03*
X246890Y41969D02*
D03*
X255512Y50000D02*
D03*
X238189Y80709D02*
D03*
X255512Y63386D02*
D03*
Y56693D02*
D03*
X250394Y75197D02*
D03*
X255512Y70079D02*
D03*
X260236Y18504D02*
D03*
Y31890D02*
D03*
Y25197D02*
D03*
X255512Y36614D02*
D03*
Y43307D02*
D03*
X244882Y80709D02*
D03*
X280512Y210630D02*
D03*
X313976Y200787D02*
D03*
X179724Y234646D02*
D03*
X191929Y237205D02*
D03*
X183071Y301772D02*
D03*
X179921Y353150D02*
D03*
X242815Y258661D02*
D03*
X277559Y231299D02*
D03*
X309055Y286417D02*
D03*
X323819Y289370D02*
D03*
X338583Y243110D02*
D03*
X345768Y284154D02*
D03*
X15748Y200787D02*
D03*
Y248031D02*
D03*
X62992Y59055D02*
D03*
X86614Y153543D02*
D03*
X110236D02*
D03*
X145669Y82677D02*
D03*
X133858Y106299D02*
D03*
X145669Y129921D02*
D03*
X157480Y106299D02*
D03*
X181102D02*
D03*
X204725Y295276D02*
D03*
X228346Y106299D02*
D03*
X240158Y129921D02*
D03*
X251969Y106299D02*
D03*
Y153543D02*
D03*
Y248031D02*
D03*
Y295276D02*
D03*
X263780Y366142D02*
D03*
X287402Y35433D02*
D03*
Y82677D02*
D03*
Y129921D02*
D03*
X275591Y248031D02*
D03*
Y295276D02*
D03*
X287402Y366142D02*
D03*
X311024Y35433D02*
D03*
Y82677D02*
D03*
X299213Y106299D02*
D03*
X311024Y129921D02*
D03*
X299213Y295276D02*
D03*
X322835Y11811D02*
D03*
X334646Y35433D02*
D03*
X322835Y59055D02*
D03*
Y106299D02*
D03*
X346457Y11811D02*
D03*
X358268Y35433D02*
D03*
X346457Y59055D02*
D03*
X358268Y82677D02*
D03*
X346457Y106299D02*
D03*
X370079Y11811D02*
D03*
X381890Y35433D02*
D03*
X370079Y106299D02*
D03*
X291723Y200787D02*
D03*
X291753Y153449D02*
D03*
X290659Y177165D02*
D03*
X334646D02*
D03*
X341373Y136649D02*
D03*
X313395Y224410D02*
D03*
Y177165D02*
D03*
X366240Y338583D02*
D03*
X321014Y344144D02*
D03*
X169291Y268898D02*
D03*
X203051Y284449D02*
D03*
X198425Y273917D02*
D03*
X160138Y299311D02*
D03*
X163386Y292126D02*
D03*
X288583Y376870D02*
D03*
X74803Y82677D02*
D03*
Y72835D02*
D03*
Y62992D02*
D03*
X84646D02*
D03*
X94488D02*
D03*
Y82677D02*
D03*
X108661Y24016D02*
D03*
X134055Y143602D02*
D03*
X203976Y265945D02*
D03*
X126870Y268110D02*
D03*
Y262500D02*
D03*
X203976Y260433D02*
D03*
X202592Y178904D02*
D03*
X347227Y165337D02*
D03*
X198031Y160236D02*
D03*
X338189Y356398D02*
D03*
X223327Y341289D02*
D03*
X339764Y337795D02*
D03*
X223327Y327018D02*
D03*
X168110Y316929D02*
D03*
X322835Y335433D02*
D03*
X223327Y319882D02*
D03*
X323228Y326772D02*
D03*
X174902Y317126D02*
D03*
X337795Y348031D02*
D03*
X223327Y334154D02*
D03*
X178150Y334547D02*
D03*
X161713Y173425D02*
D03*
X179823Y169390D02*
D03*
X146457Y270709D02*
D03*
X207087Y184646D02*
D03*
X152677Y210984D02*
D03*
X160118Y225197D02*
D03*
X154528Y150591D02*
D03*
X184646Y172835D02*
D03*
X156575Y215079D02*
D03*
X151850Y202480D02*
D03*
X189055Y176299D02*
D03*
X160906Y218976D02*
D03*
X276575Y267717D02*
D03*
X177591Y214141D02*
D03*
X214567Y188976D02*
D03*
X176378Y163779D02*
D03*
X148268Y207087D02*
D03*
X194095Y153150D02*
D03*
X162402Y187992D02*
D03*
X241732Y265748D02*
D03*
X179921Y345276D02*
D03*
Y361024D02*
D03*
X137402Y349213D02*
D03*
D140*
X212598Y52362D02*
D03*
M02*
