G04*
G04 #@! TF.GenerationSoftware,Altium Limited,Altium Designer,25.7.1 (20)*
G04*
G04 Layer_Color=128*
%FSLAX25Y25*%
%MOIN*%
G70*
G04*
G04 #@! TF.SameCoordinates,2BE7CE8E-90D8-463F-AC12-6E4C0CB6A4A3*
G04*
G04*
G04 #@! TF.FilePolarity,Positive*
G04*
G01*
G75*
%ADD13C,0.00500*%
D13*
X181621Y256713D02*
X185820D01*
X183721Y254613D02*
Y258813D01*
X181621Y266713D02*
X185820D01*
X183721Y264613D02*
Y268813D01*
X181621Y276713D02*
X185820D01*
X183721Y274613D02*
Y278813D01*
X85538Y342126D02*
X89738D01*
X87638Y340026D02*
Y344226D01*
X95538Y342126D02*
X99738D01*
X97638Y340026D02*
Y344226D01*
X105538Y342126D02*
X109738D01*
X107638Y340026D02*
Y344226D01*
X64370Y337992D02*
X67913D01*
X66142Y336221D02*
Y339764D01*
X190183Y293701D02*
X194384D01*
X192283Y291601D02*
Y295801D01*
X100787Y285433D02*
X104724D01*
X102756Y283465D02*
Y287402D01*
X81516Y111024D02*
X84311D01*
X82913Y109626D02*
Y112421D01*
X357979Y238189D02*
X362179D01*
X360079Y236089D02*
Y240289D01*
X42756Y223429D02*
X47874D01*
X45315Y220870D02*
Y225988D01*
X52598Y229335D02*
X57717D01*
X55158Y226776D02*
Y231894D01*
X42756Y247051D02*
X47874D01*
X45315Y244492D02*
Y249610D01*
X42756Y235240D02*
X47874D01*
X45315Y232681D02*
Y237799D01*
X52598Y217524D02*
X57717D01*
X55158Y214965D02*
Y220083D01*
X52598Y205713D02*
X57717D01*
X55158Y203153D02*
Y208272D01*
X59449Y382677D02*
X63386D01*
X61417Y380709D02*
Y384646D01*
X35433Y382283D02*
X39370D01*
X37402Y380315D02*
Y384252D01*
X288976Y257480D02*
X292913D01*
X290945Y255512D02*
Y259449D01*
X340158Y225590D02*
X344094D01*
X342126Y223622D02*
Y227559D01*
X180183Y293701D02*
X184383D01*
X182283Y291601D02*
Y295801D01*
X170184Y293701D02*
X174383D01*
X172283Y291601D02*
Y295801D01*
X232467Y288976D02*
X236667D01*
X234567Y286876D02*
Y291076D01*
X222467Y288976D02*
X226667D01*
X224567Y286876D02*
Y291076D01*
X212467Y288976D02*
X216667D01*
X214567Y286876D02*
Y291076D01*
X104154Y309646D02*
X108051D01*
X106102Y307697D02*
Y311595D01*
X104154Y327362D02*
X108051D01*
X106102Y325413D02*
Y329311D01*
X78563Y309646D02*
X82461D01*
X80512Y307697D02*
Y311595D01*
X78563Y327362D02*
X82461D01*
X80512Y325413D02*
Y329311D01*
X195098Y367520D02*
X198996D01*
X197047Y365571D02*
Y369468D01*
X195098Y385236D02*
X198996D01*
X197047Y383287D02*
Y387185D01*
X220689Y385236D02*
X224587D01*
X222638Y383287D02*
Y387185D01*
X220689Y367520D02*
X224587D01*
X222638Y365571D02*
Y369468D01*
X238451Y197795D02*
X242651D01*
X240551Y195695D02*
Y199895D01*
X238451Y187795D02*
X242651D01*
X240551Y185695D02*
Y189895D01*
X238451Y177795D02*
X242651D01*
X240551Y175695D02*
Y179895D01*
X367979Y238189D02*
X372179D01*
X370079Y236089D02*
Y240289D01*
X377979Y238189D02*
X382179D01*
X380079Y236089D02*
Y240289D01*
X203321Y100833D02*
X207219D01*
X205270Y98884D02*
Y102782D01*
X190794Y113361D02*
X194691D01*
X192743Y111412D02*
Y115310D01*
X221416Y118929D02*
X225314D01*
X223365Y116980D02*
Y120877D01*
X208889Y131456D02*
X212787D01*
X210838Y129507D02*
Y133405D01*
X247506Y381496D02*
X251706D01*
X249606Y379396D02*
Y383596D01*
X257506Y381496D02*
X261706D01*
X259606Y379396D02*
Y383596D01*
X237506Y381496D02*
X241706D01*
X239606Y379396D02*
Y383596D01*
X238451Y224410D02*
X242651D01*
X240551Y222309D02*
Y226509D01*
X238451Y214409D02*
X242651D01*
X240551Y212309D02*
Y216509D01*
X238451Y234409D02*
X242651D01*
X240551Y232310D02*
Y236509D01*
X32638Y67716D02*
X36181D01*
X34409Y65945D02*
Y69488D01*
X12638Y67716D02*
X16181D01*
X14409Y65945D02*
Y69488D01*
X13228Y147642D02*
X26221D01*
X19724Y141146D02*
Y154138D01*
X13228Y299217D02*
X26221D01*
X19724Y292721D02*
Y305713D01*
X42756Y258862D02*
X47874D01*
X45315Y256303D02*
Y261421D01*
X42756Y270673D02*
X47874D01*
X45315Y268114D02*
Y273232D01*
X52598Y252957D02*
X57717D01*
X55158Y250398D02*
Y255516D01*
X64410Y264768D02*
X69528D01*
X66969Y262209D02*
Y267327D01*
X42756Y211618D02*
X47874D01*
X45315Y209059D02*
Y214177D01*
X74252Y235240D02*
X79370D01*
X76811Y232681D02*
Y237799D01*
X74252Y258862D02*
X79370D01*
X76811Y256303D02*
Y261421D01*
X74252Y270673D02*
X79370D01*
X76811Y268114D02*
Y273232D01*
X64410Y252957D02*
X69528D01*
X66969Y250398D02*
Y255516D01*
X64410Y217524D02*
X69528D01*
X66969Y214965D02*
Y220083D01*
X74252Y199807D02*
X79370D01*
X76811Y197248D02*
Y202366D01*
X74252Y223429D02*
X79370D01*
X76811Y220870D02*
Y225988D01*
X74252Y187996D02*
X79370D01*
X76811Y185437D02*
Y190555D01*
X64410Y182091D02*
X69528D01*
X66969Y179532D02*
Y184650D01*
X74252Y211618D02*
X79370D01*
X76811Y209059D02*
Y214177D01*
X74252Y176185D02*
X79370D01*
X76811Y173626D02*
Y178744D01*
X42756Y187996D02*
X47874D01*
X45315Y185437D02*
Y190555D01*
X52598Y241146D02*
X57717D01*
X55158Y238587D02*
Y243705D01*
X64410Y241146D02*
X69528D01*
X66969Y238587D02*
Y243705D01*
X42756Y199807D02*
X47874D01*
X45315Y197248D02*
Y202366D01*
X74252Y247051D02*
X79370D01*
X76811Y244492D02*
Y249610D01*
X64410Y229335D02*
X69528D01*
X66969Y226776D02*
Y231894D01*
X52598Y264768D02*
X57717D01*
X55158Y262209D02*
Y267327D01*
X64410Y205713D02*
X69528D01*
X66969Y203153D02*
Y208272D01*
X64410Y193902D02*
X69528D01*
X66969Y191342D02*
Y196461D01*
X52598Y193902D02*
X57717D01*
X55158Y191342D02*
Y196461D01*
X52598Y182091D02*
X57717D01*
X55158Y179532D02*
Y184650D01*
X42756Y176185D02*
X47874D01*
X45315Y173626D02*
Y178744D01*
X101516Y111024D02*
X104311D01*
X102913Y109626D02*
Y112421D01*
X91516Y111024D02*
X94311D01*
X92913Y109626D02*
Y112421D01*
X384303Y62063D02*
X388319D01*
X386311Y60055D02*
Y64071D01*
X273850Y52063D02*
X277866D01*
X275858Y50055D02*
Y54071D01*
X257264Y220768D02*
X260807D01*
X259035Y218996D02*
Y222539D01*
X45547Y84177D02*
X49484D01*
X47516Y82209D02*
Y86146D01*
X57358Y102681D02*
X61295D01*
X59327Y100713D02*
Y104650D01*
X43110Y319213D02*
X52165D01*
X47638Y314685D02*
Y323740D01*
X56496Y337992D02*
X60039D01*
X58268Y336221D02*
Y339764D01*
X43110Y366614D02*
X52165D01*
X47638Y362087D02*
Y371142D01*
X273850Y62063D02*
X277866D01*
X275858Y60055D02*
Y64071D01*
X384303Y82063D02*
X388319D01*
X386311Y80055D02*
Y84071D01*
X274410Y367421D02*
X278740D01*
X276575Y365256D02*
Y369587D01*
X366339Y190787D02*
X370354D01*
X368347Y188779D02*
Y192795D01*
X376339Y190787D02*
X380354D01*
X378346Y188779D02*
Y192795D01*
X327264Y191240D02*
X330807D01*
X329035Y189469D02*
Y193012D01*
X257264Y210925D02*
X260807D01*
X259035Y209154D02*
Y212697D01*
X376339Y180787D02*
X380354D01*
X378346Y178779D02*
Y182795D01*
X366339Y180787D02*
X370354D01*
X368347Y178779D02*
Y182795D01*
X366339Y170787D02*
X370354D01*
X368347Y168780D02*
Y172795D01*
X366339Y200787D02*
X370354D01*
X368347Y198779D02*
Y202795D01*
X376339Y200787D02*
X380354D01*
X378346Y198779D02*
Y202795D01*
X376339Y170787D02*
X380354D01*
X378346Y168780D02*
Y172795D01*
X376339Y210787D02*
X380354D01*
X378346Y208780D02*
Y212795D01*
X366339Y210787D02*
X370354D01*
X368347Y208780D02*
Y212795D01*
X259114Y163110D02*
X268957D01*
X264035Y158189D02*
Y168032D01*
X319114Y163110D02*
X328957D01*
X324036Y158189D02*
Y168032D01*
X319114Y248110D02*
X328957D01*
X324035Y243189D02*
Y253031D01*
X259114Y248110D02*
X268957D01*
X264035Y243189D02*
Y253031D01*
X327264Y201083D02*
X330807D01*
X329035Y199311D02*
Y202854D01*
X327264Y210925D02*
X330807D01*
X329035Y209154D02*
Y212697D01*
X327264Y220768D02*
X330807D01*
X329035Y218996D02*
Y222539D01*
X257264Y230610D02*
X260807D01*
X259035Y228839D02*
Y232382D01*
X257264Y181398D02*
X260807D01*
X259035Y179626D02*
Y183169D01*
X257264Y201083D02*
X260807D01*
X259035Y199311D02*
Y202854D01*
X257264Y191240D02*
X260807D01*
X259035Y189469D02*
Y193012D01*
X373504Y346280D02*
X377244D01*
X375374Y344409D02*
Y348150D01*
X373504Y319508D02*
X377244D01*
X375374Y317638D02*
Y321378D01*
X128786Y293701D02*
X132986D01*
X130886Y291601D02*
Y295801D01*
X273850Y32063D02*
X277866D01*
X275858Y30055D02*
Y34071D01*
X273850Y42063D02*
X277866D01*
X275858Y40055D02*
Y44071D01*
X274410Y286713D02*
X278740D01*
X276575Y284547D02*
Y288878D01*
X64370Y347835D02*
X67913D01*
X66142Y346063D02*
Y349606D01*
X56496Y347835D02*
X60039D01*
X58268Y346063D02*
Y349606D01*
X33858Y101181D02*
X37795D01*
X35827Y99213D02*
Y103150D01*
X138786Y293701D02*
X142986D01*
X140886Y291601D02*
Y295801D01*
X148786Y293701D02*
X152986D01*
X150886Y291601D02*
Y295801D01*
X384303Y122063D02*
X388319D01*
X386311Y120055D02*
Y124071D01*
X384303Y112063D02*
X388319D01*
X386311Y110055D02*
Y114071D01*
X384303Y102063D02*
X388319D01*
X386311Y100055D02*
Y104071D01*
X384303Y92063D02*
X388319D01*
X386311Y90055D02*
Y94071D01*
X384303Y72063D02*
X388319D01*
X386311Y70055D02*
Y74071D01*
X384303Y52063D02*
X388319D01*
X386311Y50055D02*
Y54071D01*
X384303Y22063D02*
X388319D01*
X386311Y20055D02*
Y24071D01*
X384303Y32063D02*
X388319D01*
X386311Y30055D02*
Y34071D01*
X384303Y42063D02*
X388319D01*
X386311Y40055D02*
Y44071D01*
X273850Y122063D02*
X277866D01*
X275858Y120055D02*
Y124071D01*
X273850Y112063D02*
X277866D01*
X275858Y110055D02*
Y114071D01*
X273850Y102063D02*
X277866D01*
X275858Y100055D02*
Y104071D01*
X273850Y92063D02*
X277866D01*
X275858Y90055D02*
Y94071D01*
X273850Y82063D02*
X277866D01*
X275858Y80055D02*
Y84071D01*
X273850Y72063D02*
X277866D01*
X275858Y70055D02*
Y74071D01*
X273850Y22063D02*
X277866D01*
X275858Y20055D02*
Y24071D01*
X7142Y14331D02*
X20134D01*
X13638Y7835D02*
Y20827D01*
X373539Y136835D02*
X386531D01*
X380035Y130339D02*
Y143331D01*
X373539Y379331D02*
X386531D01*
X380035Y372835D02*
Y385827D01*
X7142Y379331D02*
X20134D01*
X13638Y372835D02*
Y385827D01*
X115096Y293312D02*
X116277D01*
X115686Y292722D02*
Y293903D01*
X115096Y300983D02*
X116277D01*
X115686Y300393D02*
Y301574D01*
X148622Y323917D02*
X149803D01*
X149213Y323327D02*
Y324508D01*
X154254Y323896D02*
X155435D01*
X154844Y323305D02*
Y324486D01*
X73726Y92033D02*
X74907D01*
X74316Y91442D02*
Y92623D01*
X83568Y82190D02*
X84749D01*
X84159Y81600D02*
Y82781D01*
X93898Y71638D02*
X95079D01*
X94488Y71047D02*
Y72228D01*
X83686Y72097D02*
X84867D01*
X84277Y71506D02*
Y72687D01*
X122736Y246949D02*
X123917D01*
X123327Y246358D02*
Y247539D01*
X120100Y348177D02*
X121282D01*
X120691Y347587D02*
Y348768D01*
X339764Y325000D02*
X340945D01*
X340354Y324410D02*
Y325590D01*
X321161Y377756D02*
X322342D01*
X321752Y377165D02*
Y378346D01*
X305906Y371850D02*
X307087D01*
X306496Y371260D02*
Y372441D01*
X96653Y350000D02*
X97835D01*
X97244Y349410D02*
Y350590D01*
X95079Y311024D02*
X96260D01*
X95669Y310433D02*
Y311614D01*
X95079Y280709D02*
X96260D01*
X95669Y280118D02*
Y281299D01*
X211198Y52362D02*
X213998D01*
X212598Y50962D02*
Y53762D01*
X181299Y208268D02*
X182480D01*
X181890Y207677D02*
Y208858D01*
X248622Y283071D02*
X249803D01*
X249213Y282480D02*
Y283661D01*
X212008Y319291D02*
X213189D01*
X212598Y318701D02*
Y319882D01*
X95866Y269291D02*
X97047D01*
X96457Y268701D02*
Y269882D01*
X237992Y165748D02*
X239173D01*
X238583Y165157D02*
Y166339D01*
X221457Y161417D02*
X222638D01*
X222047Y160827D02*
Y162008D01*
X226969Y145276D02*
X228150D01*
X227559Y144685D02*
Y145866D01*
X366339Y123622D02*
X367520D01*
X366929Y123031D02*
Y124213D01*
X360433Y289370D02*
X361614D01*
X361024Y288779D02*
Y289961D01*
X345472Y292520D02*
X346654D01*
X346063Y291929D02*
Y293110D01*
X364370Y371654D02*
X365551D01*
X364961Y371063D02*
Y372244D01*
X204921Y350590D02*
X206102D01*
X205512Y350000D02*
Y351181D01*
X136713Y355217D02*
X137894D01*
X137303Y354626D02*
Y355807D01*
X87598Y366142D02*
X88779D01*
X88189Y365551D02*
Y366732D01*
X162008Y136221D02*
X163189D01*
X162598Y135630D02*
Y136811D01*
X210039Y90158D02*
X211221D01*
X210630Y89567D02*
Y90748D01*
X151969Y181102D02*
X153150D01*
X152559Y180512D02*
Y181693D01*
X141240Y163287D02*
X142421D01*
X141831Y162697D02*
Y163878D01*
X118307Y25197D02*
X119488D01*
X118898Y24606D02*
Y25787D01*
X15157Y46260D02*
X16339D01*
X15748Y45669D02*
Y46850D01*
X15157Y33465D02*
X16339D01*
X15748Y32874D02*
Y34055D01*
X59449Y71850D02*
X60630D01*
X60039Y71260D02*
Y72441D01*
X72638Y124803D02*
X73819D01*
X73228Y124213D02*
Y125394D01*
X12402Y124803D02*
X13583D01*
X12992Y124213D02*
Y125394D01*
X19094Y124803D02*
X20276D01*
X19685Y124213D02*
Y125394D01*
X5709Y124803D02*
X6890D01*
X6299Y124213D02*
Y125394D01*
X12205Y167323D02*
X13386D01*
X12795Y166732D02*
Y167913D01*
X52559Y124803D02*
X53740D01*
X53150Y124213D02*
Y125394D01*
X59252Y124803D02*
X60433D01*
X59842Y124213D02*
Y125394D01*
X25787Y124803D02*
X26969D01*
X26378Y124213D02*
Y125394D01*
X45866Y124803D02*
X47047D01*
X46457Y124213D02*
Y125394D01*
X23031Y180118D02*
X24213D01*
X23622Y179528D02*
Y180709D01*
X10236Y226378D02*
X11417D01*
X10827Y225787D02*
Y226969D01*
X23031Y226378D02*
X24213D01*
X23622Y225787D02*
Y226969D01*
X93110Y124803D02*
X94291D01*
X93701Y124213D02*
Y125394D01*
X99803Y124803D02*
X100984D01*
X100394Y124213D02*
Y125394D01*
X65945Y124803D02*
X67126D01*
X66535Y124213D02*
Y125394D01*
X86417Y124803D02*
X87598D01*
X87008Y124213D02*
Y125394D01*
X119882Y124803D02*
X121063D01*
X120472Y124213D02*
Y125394D01*
X126575Y124803D02*
X127756D01*
X127165Y124213D02*
Y125394D01*
X106496Y124803D02*
X107677D01*
X107087Y124213D02*
Y125394D01*
X113189Y124803D02*
X114370D01*
X113779Y124213D02*
Y125394D01*
X99803Y138779D02*
X100984D01*
X100394Y138189D02*
Y139370D01*
X125394Y138779D02*
X126575D01*
X125984Y138189D02*
Y139370D01*
X126969Y98425D02*
X128150D01*
X127559Y97835D02*
Y99016D01*
X133268Y124803D02*
X134449D01*
X133858Y124213D02*
Y125394D01*
X142717Y108661D02*
X143898D01*
X143307Y108071D02*
Y109252D01*
X142717Y101969D02*
X143898D01*
X143307Y101378D02*
Y102559D01*
X137992Y120079D02*
X139173D01*
X138583Y119488D02*
Y120669D01*
X142717Y115354D02*
X143898D01*
X143307Y114764D02*
Y115945D01*
X144291Y63779D02*
X145472D01*
X144882Y63189D02*
Y64370D01*
X166614Y66772D02*
X167795D01*
X167205Y66181D02*
Y67362D01*
X147441Y90551D02*
X148622D01*
X148031Y89961D02*
Y91142D01*
X142717Y95276D02*
X143898D01*
X143307Y94685D02*
Y95866D01*
X160827Y90551D02*
X162008D01*
X161417Y89961D02*
Y91142D01*
X165551Y85827D02*
X166732D01*
X166142Y85236D02*
Y86417D01*
X154134Y90551D02*
X155315D01*
X154724Y89961D02*
Y91142D01*
X135598Y173117D02*
X136779D01*
X136188Y172527D02*
Y173708D01*
X152953Y141732D02*
X154134D01*
X153543Y141142D02*
Y142323D01*
X156791Y185335D02*
X157972D01*
X157382Y184744D02*
Y185925D01*
X10236Y261811D02*
X11417D01*
X10827Y261221D02*
Y262402D01*
X10236Y281496D02*
X11417D01*
X10827Y280906D02*
Y282087D01*
X23031Y267717D02*
X24213D01*
X23622Y267126D02*
Y268307D01*
X33858Y293307D02*
X35039D01*
X34449Y292717D02*
Y293898D01*
X61417Y282480D02*
X62598D01*
X62008Y281890D02*
Y283071D01*
X78150Y291339D02*
X79331D01*
X78740Y290748D02*
Y291929D01*
X114469Y286024D02*
X115650D01*
X115059Y285433D02*
Y286614D01*
X104921Y356299D02*
X106102D01*
X105512Y355709D02*
Y356890D01*
X111614Y333169D02*
X112795D01*
X112205Y332579D02*
Y333760D01*
X106398Y375689D02*
X107579D01*
X106988Y375098D02*
Y376279D01*
X139469Y249539D02*
X140650D01*
X140059Y248949D02*
Y250130D01*
X129331Y310827D02*
X130512D01*
X129921Y310236D02*
Y311417D01*
X150000Y248031D02*
X151181D01*
X150591Y247441D02*
Y248622D01*
X164764Y237205D02*
X165945D01*
X165354Y236614D02*
Y237795D01*
X139764Y261910D02*
X140945D01*
X140354Y261319D02*
Y262500D01*
X143799Y331988D02*
X144980D01*
X144390Y331398D02*
Y332579D01*
X154528Y362205D02*
X155709D01*
X155118Y361614D02*
Y362795D01*
X182480Y66929D02*
X183661D01*
X183071Y66339D02*
Y67520D01*
X184055Y80709D02*
X185236D01*
X184646Y80118D02*
Y81299D01*
X170669Y80709D02*
X171850D01*
X171260Y80118D02*
Y81299D01*
X177362Y80709D02*
X178543D01*
X177953Y80118D02*
Y81299D01*
X204134Y80709D02*
X205315D01*
X204724Y80118D02*
Y81299D01*
X204134Y66929D02*
X205315D01*
X204724Y66339D02*
Y67520D01*
X190748Y80709D02*
X191929D01*
X191339Y80118D02*
Y81299D01*
X197441Y80709D02*
X198622D01*
X198031Y80118D02*
Y81299D01*
X195276Y125984D02*
X196457D01*
X195866Y125394D02*
Y126575D01*
X217520Y80709D02*
X218701D01*
X218110Y80118D02*
Y81299D01*
X224213Y80709D02*
X225394D01*
X224803Y80118D02*
Y81299D01*
X210827Y80709D02*
X212008D01*
X211417Y80118D02*
Y81299D01*
X230906Y80709D02*
X232087D01*
X231496Y80118D02*
Y81299D01*
X220079Y208563D02*
X221260D01*
X220669Y207972D02*
Y209154D01*
X246299Y41969D02*
X247480D01*
X246890Y41378D02*
Y42559D01*
X254921Y50000D02*
X256102D01*
X255512Y49409D02*
Y50591D01*
X237598Y80709D02*
X238779D01*
X238189Y80118D02*
Y81299D01*
X254921Y63386D02*
X256102D01*
X255512Y62795D02*
Y63976D01*
X254921Y56693D02*
X256102D01*
X255512Y56102D02*
Y57284D01*
X249803Y75197D02*
X250984D01*
X250394Y74606D02*
Y75787D01*
X254921Y70079D02*
X256102D01*
X255512Y69488D02*
Y70669D01*
X259646Y18504D02*
X260827D01*
X260236Y17913D02*
Y19094D01*
X259646Y31890D02*
X260827D01*
X260236Y31299D02*
Y32480D01*
X259646Y25197D02*
X260827D01*
X260236Y24606D02*
Y25787D01*
X254921Y36614D02*
X256102D01*
X255512Y36024D02*
Y37205D01*
X254921Y43307D02*
X256102D01*
X255512Y42717D02*
Y43898D01*
X244291Y80709D02*
X245472D01*
X244882Y80118D02*
Y81299D01*
X279921Y210630D02*
X281102D01*
X280512Y210039D02*
Y211221D01*
X313386Y200787D02*
X314567D01*
X313976Y200197D02*
Y201378D01*
X179134Y234646D02*
X180315D01*
X179724Y234055D02*
Y235236D01*
X191339Y237205D02*
X192520D01*
X191929Y236614D02*
Y237795D01*
X182480Y301772D02*
X183661D01*
X183071Y301181D02*
Y302362D01*
X179331Y353150D02*
X180512D01*
X179921Y352559D02*
Y353740D01*
X242224Y258661D02*
X243406D01*
X242815Y258071D02*
Y259252D01*
X276969Y231299D02*
X278150D01*
X277559Y230709D02*
Y231890D01*
X308465Y286417D02*
X309646D01*
X309055Y285827D02*
Y287008D01*
X323228Y289370D02*
X324410D01*
X323819Y288779D02*
Y289961D01*
X337992Y243110D02*
X339173D01*
X338583Y242520D02*
Y243701D01*
X345177Y284154D02*
X346358D01*
X345768Y283563D02*
Y284744D01*
X15157Y200787D02*
X16339D01*
X15748Y200197D02*
Y201378D01*
X15157Y248031D02*
X16339D01*
X15748Y247441D02*
Y248622D01*
X62402Y59055D02*
X63583D01*
X62992Y58465D02*
Y59646D01*
X86024Y153543D02*
X87205D01*
X86614Y152953D02*
Y154134D01*
X109646Y153543D02*
X110827D01*
X110236Y152953D02*
Y154134D01*
X145079Y82677D02*
X146260D01*
X145669Y82087D02*
Y83268D01*
X133268Y106299D02*
X134449D01*
X133858Y105709D02*
Y106890D01*
X145079Y129921D02*
X146260D01*
X145669Y129331D02*
Y130512D01*
X156890Y106299D02*
X158071D01*
X157480Y105709D02*
Y106890D01*
X180512Y106299D02*
X181693D01*
X181102Y105709D02*
Y106890D01*
X204134Y295276D02*
X205315D01*
X204725Y294685D02*
Y295866D01*
X227756Y106299D02*
X228937D01*
X228346Y105709D02*
Y106890D01*
X239567Y129921D02*
X240748D01*
X240158Y129331D02*
Y130512D01*
X251378Y106299D02*
X252559D01*
X251969Y105709D02*
Y106890D01*
X251378Y153543D02*
X252559D01*
X251969Y152953D02*
Y154134D01*
X251378Y248031D02*
X252559D01*
X251969Y247441D02*
Y248622D01*
X251378Y295276D02*
X252559D01*
X251969Y294685D02*
Y295866D01*
X263189Y366142D02*
X264370D01*
X263780Y365551D02*
Y366732D01*
X286811Y35433D02*
X287992D01*
X287402Y34843D02*
Y36024D01*
X286811Y82677D02*
X287992D01*
X287402Y82087D02*
Y83268D01*
X286811Y129921D02*
X287992D01*
X287402Y129331D02*
Y130512D01*
X275000Y248031D02*
X276181D01*
X275591Y247441D02*
Y248622D01*
X275000Y295276D02*
X276181D01*
X275591Y294685D02*
Y295866D01*
X286811Y366142D02*
X287992D01*
X287402Y365551D02*
Y366732D01*
X310433Y35433D02*
X311614D01*
X311024Y34843D02*
Y36024D01*
X310433Y82677D02*
X311614D01*
X311024Y82087D02*
Y83268D01*
X298622Y106299D02*
X299803D01*
X299213Y105709D02*
Y106890D01*
X310433Y129921D02*
X311614D01*
X311024Y129331D02*
Y130512D01*
X298622Y295276D02*
X299803D01*
X299213Y294685D02*
Y295866D01*
X322244Y11811D02*
X323425D01*
X322835Y11220D02*
Y12402D01*
X334055Y35433D02*
X335236D01*
X334646Y34843D02*
Y36024D01*
X322244Y59055D02*
X323425D01*
X322835Y58465D02*
Y59646D01*
X322244Y106299D02*
X323425D01*
X322835Y105709D02*
Y106890D01*
X345866Y11811D02*
X347047D01*
X346457Y11220D02*
Y12402D01*
X357677Y35433D02*
X358858D01*
X358268Y34843D02*
Y36024D01*
X345866Y59055D02*
X347047D01*
X346457Y58465D02*
Y59646D01*
X357677Y82677D02*
X358858D01*
X358268Y82087D02*
Y83268D01*
X345866Y106299D02*
X347047D01*
X346457Y105709D02*
Y106890D01*
X369488Y11811D02*
X370669D01*
X370079Y11220D02*
Y12402D01*
X381299Y35433D02*
X382480D01*
X381890Y34843D02*
Y36024D01*
X369488Y106299D02*
X370669D01*
X370079Y105709D02*
Y106890D01*
X291132Y200787D02*
X292313D01*
X291723Y200197D02*
Y201378D01*
X291163Y153449D02*
X292344D01*
X291753Y152858D02*
Y154040D01*
X290069Y177165D02*
X291250D01*
X290659Y176575D02*
Y177756D01*
X334055Y177165D02*
X335236D01*
X334646Y176575D02*
Y177756D01*
X340783Y136649D02*
X341964D01*
X341373Y136058D02*
Y137239D01*
X312805Y224410D02*
X313986D01*
X313395Y223819D02*
Y225000D01*
X312805Y177165D02*
X313986D01*
X313395Y176575D02*
Y177756D01*
X365650Y338583D02*
X366831D01*
X366240Y337992D02*
Y339173D01*
X320423Y344144D02*
X321604D01*
X321014Y343553D02*
Y344734D01*
X168701Y268898D02*
X169882D01*
X169291Y268307D02*
Y269488D01*
X202461Y284449D02*
X203642D01*
X203051Y283858D02*
Y285039D01*
X197835Y273917D02*
X199016D01*
X198425Y273327D02*
Y274508D01*
X159547Y299311D02*
X160728D01*
X160138Y298721D02*
Y299902D01*
X162795Y292126D02*
X163976D01*
X163386Y291535D02*
Y292717D01*
X287992Y376870D02*
X289173D01*
X288583Y376279D02*
Y377461D01*
X74213Y82677D02*
X75394D01*
X74803Y82087D02*
Y83268D01*
X74213Y72835D02*
X75394D01*
X74803Y72244D02*
Y73425D01*
X74213Y62992D02*
X75394D01*
X74803Y62402D02*
Y63583D01*
X84055Y62992D02*
X85236D01*
X84646Y62402D02*
Y63583D01*
X93898Y62992D02*
X95079D01*
X94488Y62402D02*
Y63583D01*
X93898Y82677D02*
X95079D01*
X94488Y82087D02*
Y83268D01*
X108071Y24016D02*
X109252D01*
X108661Y23425D02*
Y24606D01*
X133465Y143602D02*
X134646D01*
X134055Y143012D02*
Y144193D01*
X203386Y265945D02*
X204567D01*
X203976Y265354D02*
Y266535D01*
X126279Y268110D02*
X127461D01*
X126870Y267520D02*
Y268701D01*
X126279Y262500D02*
X127461D01*
X126870Y261910D02*
Y263090D01*
X203386Y260433D02*
X204567D01*
X203976Y259842D02*
Y261024D01*
X202002Y178904D02*
X203183D01*
X202592Y178314D02*
Y179495D01*
X346636Y165337D02*
X347817D01*
X347227Y164746D02*
Y165928D01*
X197441Y160236D02*
X198622D01*
X198031Y159646D02*
Y160827D01*
X337598Y356398D02*
X338779D01*
X338189Y355807D02*
Y356988D01*
X222736Y341289D02*
X223917D01*
X223327Y340699D02*
Y341880D01*
X339173Y337795D02*
X340354D01*
X339764Y337205D02*
Y338386D01*
X222736Y327018D02*
X223917D01*
X223327Y326427D02*
Y327608D01*
X167520Y316929D02*
X168701D01*
X168110Y316339D02*
Y317520D01*
X322244Y335433D02*
X323425D01*
X322835Y334842D02*
Y336024D01*
X222736Y319882D02*
X223917D01*
X223327Y319291D02*
Y320472D01*
X322638Y326772D02*
X323819D01*
X323228Y326181D02*
Y327362D01*
X174311Y317126D02*
X175492D01*
X174902Y316535D02*
Y317717D01*
X337205Y348031D02*
X338386D01*
X337795Y347441D02*
Y348622D01*
X222736Y334154D02*
X223917D01*
X223327Y333563D02*
Y334744D01*
X177559Y334547D02*
X178740D01*
X178150Y333957D02*
Y335138D01*
X161122Y173425D02*
X162303D01*
X161713Y172835D02*
Y174016D01*
X179232Y169390D02*
X180413D01*
X179823Y168799D02*
Y169980D01*
X145866Y270709D02*
X147047D01*
X146457Y270118D02*
Y271299D01*
X206496Y184646D02*
X207677D01*
X207087Y184055D02*
Y185236D01*
X152087Y210984D02*
X153268D01*
X152677Y210394D02*
Y211575D01*
X159528Y225197D02*
X160709D01*
X160118Y224606D02*
Y225787D01*
X153937Y150591D02*
X155118D01*
X154528Y150000D02*
Y151181D01*
X184055Y172835D02*
X185236D01*
X184646Y172244D02*
Y173425D01*
X155984Y215079D02*
X157165D01*
X156575Y214488D02*
Y215669D01*
X151260Y202480D02*
X152441D01*
X151850Y201890D02*
Y203071D01*
X188465Y176299D02*
X189646D01*
X189055Y175709D02*
Y176890D01*
X160315Y218976D02*
X161496D01*
X160906Y218386D02*
Y219567D01*
X275984Y267717D02*
X277165D01*
X276575Y267126D02*
Y268307D01*
X177001Y214141D02*
X178182D01*
X177591Y213550D02*
Y214731D01*
X213976Y188976D02*
X215158D01*
X214567Y188386D02*
Y189567D01*
X175787Y163779D02*
X176969D01*
X176378Y163189D02*
Y164370D01*
X147677Y207087D02*
X148858D01*
X148268Y206496D02*
Y207677D01*
X193504Y153150D02*
X194685D01*
X194095Y152559D02*
Y153740D01*
X161811Y187992D02*
X162992D01*
X162402Y187402D02*
Y188583D01*
X241142Y265748D02*
X242323D01*
X241732Y265158D02*
Y266339D01*
X179331Y345276D02*
X180512D01*
X179921Y344685D02*
Y345866D01*
X179331Y361024D02*
X180512D01*
X179921Y360433D02*
Y361614D01*
X136811Y349213D02*
X137992D01*
X137402Y348622D02*
Y349803D01*
M02*
