G04*
G04 #@! TF.GenerationSoftware,Altium Limited,Altium Designer,25.7.1 (20)*
G04*
G04 Layer_Color=8421504*
%FSLAX25Y25*%
%MOIN*%
G70*
G04*
G04 #@! TF.SameCoordinates,2BE7CE8E-90D8-463F-AC12-6E4C0CB6A4A3*
G04*
G04*
G04 #@! TF.FilePolarity,Positive*
G04*
G01*
G75*
%ADD18R,0.01575X0.03150*%
%ADD19R,0.03150X0.01575*%
%ADD20R,0.03150X0.03150*%
%ADD21R,0.04724X0.04724*%
G04:AMPARAMS|DCode=22|XSize=62.21mil|YSize=23.62mil|CornerRadius=2.95mil|HoleSize=0mil|Usage=FLASHONLY|Rotation=180.000|XOffset=0mil|YOffset=0mil|HoleType=Round|Shape=RoundedRectangle|*
%AMROUNDEDRECTD22*
21,1,0.06221,0.01772,0,0,180.0*
21,1,0.05630,0.02362,0,0,180.0*
1,1,0.00591,-0.02815,0.00886*
1,1,0.00591,0.02815,0.00886*
1,1,0.00591,0.02815,-0.00886*
1,1,0.00591,-0.02815,-0.00886*
%
%ADD22ROUNDEDRECTD22*%
G04:AMPARAMS|DCode=23|XSize=39.37mil|YSize=66.93mil|CornerRadius=4.92mil|HoleSize=0mil|Usage=FLASHONLY|Rotation=270.000|XOffset=0mil|YOffset=0mil|HoleType=Round|Shape=RoundedRectangle|*
%AMROUNDEDRECTD23*
21,1,0.03937,0.05709,0,0,270.0*
21,1,0.02953,0.06693,0,0,270.0*
1,1,0.00984,-0.02854,-0.01476*
1,1,0.00984,-0.02854,0.01476*
1,1,0.00984,0.02854,0.01476*
1,1,0.00984,0.02854,-0.01476*
%
%ADD23ROUNDEDRECTD23*%
G04:AMPARAMS|DCode=24|XSize=51.58mil|YSize=36.61mil|CornerRadius=2.75mil|HoleSize=0mil|Usage=FLASHONLY|Rotation=90.000|XOffset=0mil|YOffset=0mil|HoleType=Round|Shape=RoundedRectangle|*
%AMROUNDEDRECTD24*
21,1,0.05158,0.03112,0,0,90.0*
21,1,0.04608,0.03661,0,0,90.0*
1,1,0.00549,0.01556,0.02304*
1,1,0.00549,0.01556,-0.02304*
1,1,0.00549,-0.01556,-0.02304*
1,1,0.00549,-0.01556,0.02304*
%
%ADD24ROUNDEDRECTD24*%
%ADD25R,0.15748X0.07874*%
G04:AMPARAMS|DCode=26|XSize=55.12mil|YSize=66.93mil|CornerRadius=6.89mil|HoleSize=0mil|Usage=FLASHONLY|Rotation=180.000|XOffset=0mil|YOffset=0mil|HoleType=Round|Shape=RoundedRectangle|*
%AMROUNDEDRECTD26*
21,1,0.05512,0.05315,0,0,180.0*
21,1,0.04134,0.06693,0,0,180.0*
1,1,0.01378,-0.02067,0.02657*
1,1,0.01378,0.02067,0.02657*
1,1,0.01378,0.02067,-0.02657*
1,1,0.01378,-0.02067,-0.02657*
%
%ADD26ROUNDEDRECTD26*%
G04:AMPARAMS|DCode=27|XSize=39.37mil|YSize=66.93mil|CornerRadius=4.92mil|HoleSize=0mil|Usage=FLASHONLY|Rotation=180.000|XOffset=0mil|YOffset=0mil|HoleType=Round|Shape=RoundedRectangle|*
%AMROUNDEDRECTD27*
21,1,0.03937,0.05709,0,0,180.0*
21,1,0.02953,0.06693,0,0,180.0*
1,1,0.00984,-0.01476,0.02854*
1,1,0.00984,0.01476,0.02854*
1,1,0.00984,0.01476,-0.02854*
1,1,0.00984,-0.01476,-0.02854*
%
%ADD27ROUNDEDRECTD27*%
%ADD28R,0.11400X0.21300*%
G04:AMPARAMS|DCode=29|XSize=51.58mil|YSize=127.56mil|CornerRadius=3.87mil|HoleSize=0mil|Usage=FLASHONLY|Rotation=0.000|XOffset=0mil|YOffset=0mil|HoleType=Round|Shape=RoundedRectangle|*
%AMROUNDEDRECTD29*
21,1,0.05158,0.11982,0,0,0.0*
21,1,0.04384,0.12756,0,0,0.0*
1,1,0.00774,0.02192,-0.05991*
1,1,0.00774,-0.02192,-0.05991*
1,1,0.00774,-0.02192,0.05991*
1,1,0.00774,0.02192,0.05991*
%
%ADD29ROUNDEDRECTD29*%
G04:AMPARAMS|DCode=30|XSize=51.58mil|YSize=36.61mil|CornerRadius=2.75mil|HoleSize=0mil|Usage=FLASHONLY|Rotation=0.000|XOffset=0mil|YOffset=0mil|HoleType=Round|Shape=RoundedRectangle|*
%AMROUNDEDRECTD30*
21,1,0.05158,0.03112,0,0,0.0*
21,1,0.04608,0.03661,0,0,0.0*
1,1,0.00549,0.02304,-0.01556*
1,1,0.00549,-0.02304,-0.01556*
1,1,0.00549,-0.02304,0.01556*
1,1,0.00549,0.02304,0.01556*
%
%ADD30ROUNDEDRECTD30*%
G04:AMPARAMS|DCode=31|XSize=51.58mil|YSize=127.56mil|CornerRadius=3.87mil|HoleSize=0mil|Usage=FLASHONLY|Rotation=90.000|XOffset=0mil|YOffset=0mil|HoleType=Round|Shape=RoundedRectangle|*
%AMROUNDEDRECTD31*
21,1,0.05158,0.11982,0,0,90.0*
21,1,0.04384,0.12756,0,0,90.0*
1,1,0.00774,0.05991,0.02192*
1,1,0.00774,0.05991,-0.02192*
1,1,0.00774,-0.05991,-0.02192*
1,1,0.00774,-0.05991,0.02192*
%
%ADD31ROUNDEDRECTD31*%
%ADD32R,0.03543X0.03150*%
%ADD33R,0.15000X0.08189*%
G04:AMPARAMS|DCode=34|XSize=55.12mil|YSize=66.93mil|CornerRadius=6.89mil|HoleSize=0mil|Usage=FLASHONLY|Rotation=270.000|XOffset=0mil|YOffset=0mil|HoleType=Round|Shape=RoundedRectangle|*
%AMROUNDEDRECTD34*
21,1,0.05512,0.05315,0,0,270.0*
21,1,0.04134,0.06693,0,0,270.0*
1,1,0.01378,-0.02657,-0.02067*
1,1,0.01378,-0.02657,0.02067*
1,1,0.01378,0.02657,0.02067*
1,1,0.01378,0.02657,-0.02067*
%
%ADD34ROUNDEDRECTD34*%
G04:AMPARAMS|DCode=35|XSize=55.12mil|YSize=66.93mil|CornerRadius=6.89mil|HoleSize=0mil|Usage=FLASHONLY|Rotation=225.000|XOffset=0mil|YOffset=0mil|HoleType=Round|Shape=RoundedRectangle|*
%AMROUNDEDRECTD35*
21,1,0.05512,0.05315,0,0,225.0*
21,1,0.04134,0.06693,0,0,225.0*
1,1,0.01378,-0.03341,0.00418*
1,1,0.01378,-0.00418,0.03341*
1,1,0.01378,0.03341,-0.00418*
1,1,0.01378,0.00418,-0.03341*
%
%ADD35ROUNDEDRECTD35*%
G04:AMPARAMS|DCode=36|XSize=61.42mil|YSize=11.02mil|CornerRadius=2.76mil|HoleSize=0mil|Usage=FLASHONLY|Rotation=315.000|XOffset=0mil|YOffset=0mil|HoleType=Round|Shape=RoundedRectangle|*
%AMROUNDEDRECTD36*
21,1,0.06142,0.00551,0,0,315.0*
21,1,0.05591,0.01102,0,0,315.0*
1,1,0.00551,0.01782,-0.02171*
1,1,0.00551,-0.02171,0.01782*
1,1,0.00551,-0.01782,0.02171*
1,1,0.00551,0.02171,-0.01782*
%
%ADD36ROUNDEDRECTD36*%
G04:AMPARAMS|DCode=37|XSize=61.42mil|YSize=11.02mil|CornerRadius=2.76mil|HoleSize=0mil|Usage=FLASHONLY|Rotation=225.000|XOffset=0mil|YOffset=0mil|HoleType=Round|Shape=RoundedRectangle|*
%AMROUNDEDRECTD37*
21,1,0.06142,0.00551,0,0,225.0*
21,1,0.05591,0.01102,0,0,225.0*
1,1,0.00551,-0.02171,-0.01782*
1,1,0.00551,0.01782,0.02171*
1,1,0.00551,0.02171,0.01782*
1,1,0.00551,-0.01782,-0.02171*
%
%ADD37ROUNDEDRECTD37*%
%ADD38R,0.07874X0.15748*%
%ADD39R,0.12992X0.03543*%
%ADD40R,0.01968X0.01968*%
%ADD41R,0.33465X0.41732*%
%ADD42R,0.07087X0.06693*%
G04:AMPARAMS|DCode=43|XSize=39.37mil|YSize=66.93mil|CornerRadius=4.92mil|HoleSize=0mil|Usage=FLASHONLY|Rotation=225.000|XOffset=0mil|YOffset=0mil|HoleType=Round|Shape=RoundedRectangle|*
%AMROUNDEDRECTD43*
21,1,0.03937,0.05709,0,0,225.0*
21,1,0.02953,0.06693,0,0,225.0*
1,1,0.00984,-0.03062,0.00974*
1,1,0.00984,-0.00974,0.03062*
1,1,0.00984,0.03062,-0.00974*
1,1,0.00984,0.00974,-0.03062*
%
%ADD43ROUNDEDRECTD43*%
%ADD44R,0.01968X0.01968*%
G36*
X42894Y21240D02*
X37736D01*
Y26358D01*
X42894D01*
Y21240D01*
D02*
G37*
G36*
X34114D02*
X28957D01*
Y26358D01*
X34114D01*
Y21240D01*
D02*
G37*
G36*
X42894Y13721D02*
X37736D01*
Y18839D01*
X42894D01*
Y13721D01*
D02*
G37*
G36*
X34114D02*
X28957D01*
Y18839D01*
X34114D01*
Y13721D01*
D02*
G37*
G36*
X42894Y6201D02*
X37736D01*
Y11319D01*
X42894D01*
Y6201D01*
D02*
G37*
G36*
X34114D02*
X28957D01*
Y11319D01*
X34114D01*
Y6201D01*
D02*
G37*
G36*
X60453Y21240D02*
X55295D01*
Y26358D01*
X60453D01*
Y21240D01*
D02*
G37*
G36*
X51673D02*
X46516D01*
Y26358D01*
X51673D01*
Y21240D01*
D02*
G37*
G36*
X60453Y13721D02*
X55295D01*
Y18839D01*
X60453D01*
Y13721D01*
D02*
G37*
G36*
X51673Y13721D02*
X46516D01*
Y18839D01*
X51673D01*
Y13721D01*
D02*
G37*
G36*
X60453Y6201D02*
X55295D01*
Y11319D01*
X60453D01*
Y6201D01*
D02*
G37*
G36*
X51673D02*
X46516D01*
Y11319D01*
X51673D01*
Y6201D01*
D02*
G37*
G36*
X153347Y342520D02*
X148622D01*
Y344882D01*
X150984Y347244D01*
X153347D01*
Y342520D01*
D02*
G37*
G36*
X60453Y43799D02*
X55295D01*
Y48917D01*
X60453D01*
Y43799D01*
D02*
G37*
G36*
X51673D02*
X46516D01*
Y48917D01*
X51673D01*
Y43799D01*
D02*
G37*
G36*
X42894D02*
X37736D01*
Y48917D01*
X42894D01*
Y43799D01*
D02*
G37*
G36*
X34114D02*
X28957D01*
Y48917D01*
X34114D01*
Y43799D01*
D02*
G37*
G36*
X60453Y36279D02*
X55295D01*
Y41398D01*
X60453D01*
Y36279D01*
D02*
G37*
G36*
X51673D02*
X46516D01*
Y41398D01*
X51673D01*
Y36279D01*
D02*
G37*
G36*
X42894D02*
X37736D01*
Y41398D01*
X42894D01*
Y36279D01*
D02*
G37*
G36*
X34114D02*
X28957D01*
Y41398D01*
X34114D01*
Y36279D01*
D02*
G37*
G36*
X60453Y28760D02*
X55295D01*
Y33878D01*
X60453D01*
Y28760D01*
D02*
G37*
G36*
X51673D02*
X46516D01*
Y33878D01*
X51673D01*
Y28760D01*
D02*
G37*
G36*
X42894D02*
X37736D01*
Y33878D01*
X42894D01*
Y28760D01*
D02*
G37*
G36*
X34114D02*
X28957D01*
Y33878D01*
X34114D01*
Y28760D01*
D02*
G37*
D18*
X137402Y310827D02*
D03*
X134055D02*
D03*
X140748D02*
D03*
X144095D02*
D03*
X147441D02*
D03*
X150787D02*
D03*
X154134D02*
D03*
X157480D02*
D03*
X160827D02*
D03*
X167520D02*
D03*
X174213D02*
D03*
X177559D02*
D03*
X180905D02*
D03*
X134055Y365945D02*
D03*
X144095D02*
D03*
X147441D02*
D03*
X137402D02*
D03*
X140748D02*
D03*
X150787D02*
D03*
X154134D02*
D03*
X167520D02*
D03*
X157480D02*
D03*
X164173D02*
D03*
X160827D02*
D03*
X177559D02*
D03*
X170866D02*
D03*
X174213D02*
D03*
X180905D02*
D03*
X170866Y310827D02*
D03*
X164173D02*
D03*
D19*
X129921Y321654D02*
D03*
Y325000D02*
D03*
X185039Y345079D02*
D03*
Y341732D02*
D03*
Y361811D02*
D03*
Y358465D02*
D03*
X129921Y351772D02*
D03*
Y348425D02*
D03*
Y345079D02*
D03*
Y341732D02*
D03*
Y338386D02*
D03*
Y335039D02*
D03*
Y331693D02*
D03*
Y328346D02*
D03*
Y318307D02*
D03*
Y314961D02*
D03*
X185039Y331693D02*
D03*
Y335039D02*
D03*
Y338386D02*
D03*
Y348425D02*
D03*
X129921Y361811D02*
D03*
Y358465D02*
D03*
X185039Y355118D02*
D03*
Y351772D02*
D03*
Y328346D02*
D03*
Y321654D02*
D03*
Y314961D02*
D03*
Y318307D02*
D03*
Y325000D02*
D03*
X129921Y355118D02*
D03*
D20*
Y310827D02*
D03*
Y365945D02*
D03*
X185039D02*
D03*
Y310827D02*
D03*
D21*
X150984Y338386D02*
D03*
Y331890D02*
D03*
X157480Y338386D02*
D03*
Y344882D02*
D03*
Y331890D02*
D03*
X163976D02*
D03*
Y344882D02*
D03*
Y338386D02*
D03*
D22*
X212028Y270689D02*
D03*
Y255689D02*
D03*
X233051Y265689D02*
D03*
X212028Y260689D02*
D03*
X212028Y265689D02*
D03*
X233051Y270689D02*
D03*
X233051Y255689D02*
D03*
X233051Y260689D02*
D03*
X136988Y262874D02*
D03*
X115965Y267874D02*
D03*
Y262874D02*
D03*
X136988Y272874D02*
D03*
Y267874D02*
D03*
X115965Y272874D02*
D03*
Y257874D02*
D03*
X136988D02*
D03*
D23*
X167008Y253543D02*
D03*
X214173Y350590D02*
D03*
X116142Y360433D02*
D03*
X196063Y350590D02*
D03*
X165236Y275984D02*
D03*
X342126Y268701D02*
D03*
X144882Y37205D02*
D03*
X122047Y107283D02*
D03*
X144882Y12795D02*
D03*
X121260Y331496D02*
D03*
X203110Y244921D02*
D03*
X331890Y284055D02*
D03*
X167008Y261024D02*
D03*
X122047Y114764D02*
D03*
X121358Y308858D02*
D03*
X196063Y358071D02*
D03*
X214173D02*
D03*
X165236Y283465D02*
D03*
X203110Y252402D02*
D03*
X144882Y20276D02*
D03*
Y29724D02*
D03*
X121358Y316339D02*
D03*
X121260Y324016D02*
D03*
X342126Y276181D02*
D03*
X331890Y276575D02*
D03*
X116142Y367913D02*
D03*
D24*
X97205Y357303D02*
D03*
X79173D02*
D03*
X88189D02*
D03*
D25*
X217126Y25591D02*
D03*
X245079D02*
D03*
D26*
X224634Y64173D02*
D03*
X340382Y325197D02*
D03*
X340382Y314173D02*
D03*
X156035Y259016D02*
D03*
X233634Y64173D02*
D03*
X342744Y257087D02*
D03*
X349382Y325197D02*
D03*
Y314173D02*
D03*
X147035Y259016D02*
D03*
X351744Y257087D02*
D03*
D27*
X223819Y50394D02*
D03*
X330512Y357972D02*
D03*
Y346850D02*
D03*
Y335827D02*
D03*
Y324803D02*
D03*
X109252Y383858D02*
D03*
X137244Y249095D02*
D03*
X212008Y208268D02*
D03*
X246929Y50472D02*
D03*
X347047Y336221D02*
D03*
X337992Y357972D02*
D03*
X339567Y336221D02*
D03*
X323031Y335827D02*
D03*
Y324803D02*
D03*
X337992Y346850D02*
D03*
X204527Y208268D02*
D03*
X129764Y249095D02*
D03*
X231299Y50394D02*
D03*
X239449Y50472D02*
D03*
X116732Y383858D02*
D03*
D28*
X199815Y31890D02*
D03*
X160815D02*
D03*
D29*
X386791Y267323D02*
D03*
D30*
X360453Y258307D02*
D03*
X360453Y267323D02*
D03*
X360453Y276339D02*
D03*
D31*
X88189Y383642D02*
D03*
D32*
X147913Y279252D02*
D03*
X155787Y282992D02*
D03*
Y275512D02*
D03*
D33*
X89705Y37559D02*
D03*
Y17559D02*
D03*
D34*
X351575Y267941D02*
D03*
X144882Y47469D02*
D03*
Y56468D02*
D03*
X351575Y276941D02*
D03*
D35*
X183636Y218282D02*
D03*
X207448Y170834D02*
D03*
X176450Y226568D02*
D03*
X190000Y224646D02*
D03*
X213812Y177198D02*
D03*
X170086Y220204D02*
D03*
D36*
X196803Y171993D02*
D03*
X148475Y186915D02*
D03*
X149867Y188307D02*
D03*
X195411Y170601D02*
D03*
X194019Y169209D02*
D03*
X189843Y165033D02*
D03*
X188452Y163642D02*
D03*
X187060Y162250D02*
D03*
X185668Y160858D02*
D03*
X184276Y159466D02*
D03*
X180100Y155290D02*
D03*
X155435Y193875D02*
D03*
X156827Y195266D02*
D03*
X158219Y196659D02*
D03*
X159610Y198050D02*
D03*
X161003Y199442D02*
D03*
X162394Y200834D02*
D03*
X163786Y202226D02*
D03*
X175924Y151114D02*
D03*
X144299Y182739D02*
D03*
X182884Y158074D02*
D03*
X145691Y184131D02*
D03*
X151259Y189699D02*
D03*
X181492Y156682D02*
D03*
X147083Y185523D02*
D03*
X178708Y153898D02*
D03*
X152651Y191091D02*
D03*
X177316Y152506D02*
D03*
X154043Y192483D02*
D03*
X192627Y167817D02*
D03*
X191235Y166426D02*
D03*
X165178Y203618D02*
D03*
D37*
Y151114D02*
D03*
X147083Y169209D02*
D03*
X175924Y203618D02*
D03*
X163786Y152506D02*
D03*
X145691Y170601D02*
D03*
X177316Y202226D02*
D03*
X196803Y182739D02*
D03*
X182884Y196659D02*
D03*
X184276Y195266D02*
D03*
X162394Y153898D02*
D03*
X161003Y155290D02*
D03*
X159610Y156682D02*
D03*
X155435Y160858D02*
D03*
X154043Y162250D02*
D03*
X148475Y167817D02*
D03*
X178708Y200834D02*
D03*
X180100Y199442D02*
D03*
X181492Y198050D02*
D03*
X185668Y193875D02*
D03*
X187060Y192483D02*
D03*
X188452Y191091D02*
D03*
X189843Y189699D02*
D03*
X191235Y188307D02*
D03*
X192627Y186915D02*
D03*
X194019Y185523D02*
D03*
X195411Y184131D02*
D03*
X152651Y163642D02*
D03*
X151259Y165033D02*
D03*
X158219Y158074D02*
D03*
X144299Y171993D02*
D03*
X156827Y159466D02*
D03*
X149867Y166426D02*
D03*
D38*
X118898Y13976D02*
D03*
Y41929D02*
D03*
D39*
X127953Y62598D02*
D03*
Y89370D02*
D03*
Y75984D02*
D03*
Y82677D02*
D03*
Y69291D02*
D03*
D40*
X49508Y73524D02*
D03*
Y64862D02*
D03*
D41*
X86221Y75984D02*
D03*
D42*
X163189Y75590D02*
D03*
X147047D02*
D03*
D43*
X191031Y136405D02*
D03*
X178261Y138595D02*
D03*
X183550Y143885D02*
D03*
X185741Y131115D02*
D03*
D44*
X342520Y210236D02*
D03*
X351181D02*
D03*
M02*
