G04*
G04 #@! TF.GenerationSoftware,Altium Limited,Altium Designer,25.7.1 (20)*
G04*
G04 Layer_Color=16711935*
%FSLAX25Y25*%
%MOIN*%
G70*
G04*
G04 #@! TF.SameCoordinates,2BE7CE8E-90D8-463F-AC12-6E4C0CB6A4A3*
G04*
G04*
G04 #@! TF.FilePolarity,Negative*
G04*
G01*
G75*
G04:AMPARAMS|DCode=50|XSize=43.31mil|YSize=70.87mil|CornerRadius=6.89mil|HoleSize=0mil|Usage=FLASHONLY|Rotation=270.000|XOffset=0mil|YOffset=0mil|HoleType=Round|Shape=RoundedRectangle|*
%AMROUNDEDRECTD50*
21,1,0.04331,0.05709,0,0,270.0*
21,1,0.02953,0.07087,0,0,270.0*
1,1,0.01378,-0.02854,-0.01476*
1,1,0.01378,-0.02854,0.01476*
1,1,0.01378,0.02854,0.01476*
1,1,0.01378,0.02854,-0.01476*
%
%ADD50ROUNDEDRECTD50*%
G04:AMPARAMS|DCode=53|XSize=59.06mil|YSize=70.87mil|CornerRadius=8.86mil|HoleSize=0mil|Usage=FLASHONLY|Rotation=180.000|XOffset=0mil|YOffset=0mil|HoleType=Round|Shape=RoundedRectangle|*
%AMROUNDEDRECTD53*
21,1,0.05906,0.05315,0,0,180.0*
21,1,0.04134,0.07087,0,0,180.0*
1,1,0.01772,-0.02067,0.02657*
1,1,0.01772,0.02067,0.02657*
1,1,0.01772,0.02067,-0.02657*
1,1,0.01772,-0.02067,-0.02657*
%
%ADD53ROUNDEDRECTD53*%
G04:AMPARAMS|DCode=54|XSize=43.31mil|YSize=70.87mil|CornerRadius=6.89mil|HoleSize=0mil|Usage=FLASHONLY|Rotation=180.000|XOffset=0mil|YOffset=0mil|HoleType=Round|Shape=RoundedRectangle|*
%AMROUNDEDRECTD54*
21,1,0.04331,0.05709,0,0,180.0*
21,1,0.02953,0.07087,0,0,180.0*
1,1,0.01378,-0.01476,0.02854*
1,1,0.01378,0.01476,0.02854*
1,1,0.01378,0.01476,-0.02854*
1,1,0.01378,-0.01476,-0.02854*
%
%ADD54ROUNDEDRECTD54*%
G04:AMPARAMS|DCode=62|XSize=59.06mil|YSize=70.87mil|CornerRadius=8.86mil|HoleSize=0mil|Usage=FLASHONLY|Rotation=270.000|XOffset=0mil|YOffset=0mil|HoleType=Round|Shape=RoundedRectangle|*
%AMROUNDEDRECTD62*
21,1,0.05906,0.05315,0,0,270.0*
21,1,0.04134,0.07087,0,0,270.0*
1,1,0.01772,-0.02657,-0.02067*
1,1,0.01772,-0.02657,0.02067*
1,1,0.01772,0.02657,0.02067*
1,1,0.01772,0.02657,-0.02067*
%
%ADD62ROUNDEDRECTD62*%
G04:AMPARAMS|DCode=63|XSize=59.06mil|YSize=70.87mil|CornerRadius=8.86mil|HoleSize=0mil|Usage=FLASHONLY|Rotation=225.000|XOffset=0mil|YOffset=0mil|HoleType=Round|Shape=RoundedRectangle|*
%AMROUNDEDRECTD63*
21,1,0.05906,0.05315,0,0,225.0*
21,1,0.04134,0.07087,0,0,225.0*
1,1,0.01772,-0.03341,0.00418*
1,1,0.01772,-0.00418,0.03341*
1,1,0.01772,0.03341,-0.00418*
1,1,0.01772,0.00418,-0.03341*
%
%ADD63ROUNDEDRECTD63*%
%ADD68R,0.02756X0.02756*%
G04:AMPARAMS|DCode=71|XSize=43.31mil|YSize=70.87mil|CornerRadius=6.89mil|HoleSize=0mil|Usage=FLASHONLY|Rotation=225.000|XOffset=0mil|YOffset=0mil|HoleType=Round|Shape=RoundedRectangle|*
%AMROUNDEDRECTD71*
21,1,0.04331,0.05709,0,0,225.0*
21,1,0.02953,0.07087,0,0,225.0*
1,1,0.01378,-0.03062,0.00974*
1,1,0.01378,-0.00974,0.03062*
1,1,0.01378,0.03062,-0.00974*
1,1,0.01378,0.00974,-0.03062*
%
%ADD71ROUNDEDRECTD71*%
%ADD73C,0.06594*%
%ADD74R,0.05937X0.05937*%
%ADD75C,0.07480*%
%ADD76C,0.05189*%
%ADD77C,0.08071*%
%ADD78C,0.06291*%
%ADD79R,0.06291X0.06291*%
%ADD80P,0.08897X4X270.0*%
%ADD81C,0.05709*%
%ADD82C,0.13386*%
%ADD83R,0.08071X0.08071*%
%ADD84R,0.05189X0.05189*%
%ADD85C,0.05787*%
%ADD86O,0.10394X0.05118*%
%ADD87O,0.18110X0.09252*%
%ADD88O,0.10236X0.20079*%
%ADD89C,0.13449*%
%ADD90C,0.05937*%
%ADD91C,0.06102*%
%ADD92R,0.05787X0.05787*%
%ADD93C,0.16142*%
%ADD94R,0.10394X0.05118*%
%ADD95C,0.04134*%
%ADD96O,0.09252X0.18110*%
%ADD97C,0.03150*%
%ADD98C,0.05394*%
%ADD164R,0.05906X0.02835*%
%ADD165R,0.02717X0.05276*%
G04:AMPARAMS|DCode=166|XSize=59.06mil|YSize=70.87mil|CornerRadius=8.86mil|HoleSize=0mil|Usage=FLASHONLY|Rotation=315.000|XOffset=0mil|YOffset=0mil|HoleType=Round|Shape=RoundedRectangle|*
%AMROUNDEDRECTD166*
21,1,0.05906,0.05315,0,0,315.0*
21,1,0.04134,0.07087,0,0,315.0*
1,1,0.01772,-0.00418,-0.03341*
1,1,0.01772,-0.03341,-0.00418*
1,1,0.01772,0.00418,0.03341*
1,1,0.01772,0.03341,0.00418*
%
%ADD166ROUNDEDRECTD166*%
%ADD167R,0.09843X0.04724*%
G04:AMPARAMS|DCode=168|XSize=220.47mil|YSize=82.68mil|CornerRadius=0mil|HoleSize=0mil|Usage=FLASHONLY|Rotation=45.000|XOffset=0mil|YOffset=0mil|HoleType=Round|Shape=Rectangle|*
%AMROTATEDRECTD168*
4,1,4,-0.04872,-0.10718,-0.10718,-0.04872,0.04872,0.10718,0.10718,0.04872,-0.04872,-0.10718,0.0*
%
%ADD168ROTATEDRECTD168*%

D50*
X321358Y303051D02*
D03*
Y310531D02*
D03*
D53*
X97469Y357480D02*
D03*
X129783Y354819D02*
D03*
X87965Y357480D02*
D03*
X129598Y341535D02*
D03*
X78965Y357480D02*
D03*
X106468D02*
D03*
X130736Y281142D02*
D03*
X120783Y354819D02*
D03*
X120598Y341535D02*
D03*
X139736Y281142D02*
D03*
D54*
X358268Y371654D02*
D03*
X350787D02*
D03*
D62*
X118209Y252142D02*
D03*
Y278606D02*
D03*
X145276Y339595D02*
D03*
X213583Y249634D02*
D03*
X223858Y254791D02*
D03*
X234055Y254831D02*
D03*
X171653Y350224D02*
D03*
X213583Y276744D02*
D03*
X118209Y269606D02*
D03*
X213583Y267744D02*
D03*
X118209Y261142D02*
D03*
X213583Y258634D02*
D03*
X171653Y359224D02*
D03*
X234055Y263831D02*
D03*
X223858Y263791D02*
D03*
X145276Y348594D02*
D03*
D63*
X142552Y179481D02*
D03*
X181070Y127527D02*
D03*
X139993Y162473D02*
D03*
X172802Y135794D02*
D03*
X133629Y156109D02*
D03*
X136188Y173117D02*
D03*
X169127Y152296D02*
D03*
X187434Y133891D02*
D03*
X179166Y142158D02*
D03*
X162763Y145932D02*
D03*
D68*
X66142Y331496D02*
D03*
Y322835D02*
D03*
X58465Y362795D02*
D03*
X66240Y362894D02*
D03*
Y354232D02*
D03*
X58465Y354134D02*
D03*
D71*
X216253Y97355D02*
D03*
X133196Y184731D02*
D03*
X221542Y102645D02*
D03*
X127907Y179442D02*
D03*
D73*
X183721Y256713D02*
D03*
Y266713D02*
D03*
Y276713D02*
D03*
X87638Y342126D02*
D03*
X97638D02*
D03*
X107638D02*
D03*
X192283Y293701D02*
D03*
X360079Y238189D02*
D03*
X182283Y293701D02*
D03*
X172283D02*
D03*
X234567Y288976D02*
D03*
X224567D02*
D03*
X214567D02*
D03*
X240551Y197795D02*
D03*
Y187795D02*
D03*
Y177795D02*
D03*
X370079Y238189D02*
D03*
X380079D02*
D03*
X249606Y381496D02*
D03*
X259606D02*
D03*
X239606D02*
D03*
X240551Y224410D02*
D03*
Y214409D02*
D03*
Y234409D02*
D03*
X130886Y293701D02*
D03*
X140886D02*
D03*
X150886D02*
D03*
D74*
X66142Y337992D02*
D03*
D75*
X102756Y285433D02*
D03*
X61417Y382677D02*
D03*
X37402Y382283D02*
D03*
X290945Y257480D02*
D03*
X342126Y225590D02*
D03*
D76*
X82913Y111024D02*
D03*
X92913D02*
D03*
D77*
X45315Y223429D02*
D03*
X55158Y229335D02*
D03*
X45315Y247051D02*
D03*
Y235240D02*
D03*
X55158Y217524D02*
D03*
Y205713D02*
D03*
X45315Y258862D02*
D03*
Y270673D02*
D03*
X55158Y252957D02*
D03*
X66969Y264768D02*
D03*
X45315Y211618D02*
D03*
X76811Y235240D02*
D03*
Y258862D02*
D03*
X66969Y252957D02*
D03*
Y217524D02*
D03*
X76811Y199807D02*
D03*
Y223429D02*
D03*
Y187996D02*
D03*
X66969Y182091D02*
D03*
X76811Y211618D02*
D03*
Y176185D02*
D03*
X45315Y187996D02*
D03*
X55158Y241146D02*
D03*
X66969D02*
D03*
X45315Y199807D02*
D03*
X76811Y247051D02*
D03*
X66969Y229335D02*
D03*
X55158Y264768D02*
D03*
X66969Y205713D02*
D03*
Y193902D02*
D03*
X55158D02*
D03*
Y182091D02*
D03*
X45315Y176185D02*
D03*
D78*
X106102Y309646D02*
D03*
Y327362D02*
D03*
X80512Y309646D02*
D03*
X197047Y367520D02*
D03*
Y385236D02*
D03*
X222638D02*
D03*
X205270Y100833D02*
D03*
X192743Y113361D02*
D03*
X210838Y131456D02*
D03*
D79*
X80512Y327362D02*
D03*
X222638Y367520D02*
D03*
D80*
X223365Y118929D02*
D03*
D81*
X34409Y67716D02*
D03*
X14409D02*
D03*
D82*
X19724Y147642D02*
D03*
Y299217D02*
D03*
D83*
X76811Y270673D02*
D03*
D84*
X102913Y111024D02*
D03*
D85*
X386311Y62063D02*
D03*
X275858Y52063D02*
D03*
X275858Y62063D02*
D03*
X386311Y82063D02*
D03*
X368347Y190787D02*
D03*
X378346D02*
D03*
Y180787D02*
D03*
X368347D02*
D03*
Y170787D02*
D03*
Y200787D02*
D03*
X378346Y200787D02*
D03*
X378346Y210787D02*
D03*
X368347Y210787D02*
D03*
X275858Y32063D02*
D03*
Y42063D02*
D03*
X386311Y122063D02*
D03*
Y112063D02*
D03*
Y102063D02*
D03*
Y92063D02*
D03*
Y72063D02*
D03*
Y52063D02*
D03*
Y32063D02*
D03*
Y42063D02*
D03*
X275858Y122063D02*
D03*
Y112063D02*
D03*
Y102063D02*
D03*
Y92063D02*
D03*
Y82063D02*
D03*
Y72063D02*
D03*
D86*
X259035Y220768D02*
D03*
X329035Y191240D02*
D03*
X259035Y210925D02*
D03*
X329035Y201083D02*
D03*
X329035Y210925D02*
D03*
Y220768D02*
D03*
X259035Y181398D02*
D03*
X259035Y201083D02*
D03*
Y191240D02*
D03*
D87*
X47516Y84177D02*
D03*
D88*
X59327Y102681D02*
D03*
D89*
X47638Y319213D02*
D03*
Y366614D02*
D03*
D90*
X58268Y337992D02*
D03*
X66142Y347835D02*
D03*
X58268D02*
D03*
D91*
X276575Y367421D02*
D03*
Y286713D02*
D03*
D92*
X378346Y170787D02*
D03*
X386311Y22063D02*
D03*
X275858Y22063D02*
D03*
D93*
X264035Y163110D02*
D03*
X324036Y163110D02*
D03*
X324035Y248110D02*
D03*
X264035D02*
D03*
X13638Y14331D02*
D03*
X380035Y136835D02*
D03*
Y379331D02*
D03*
X13638D02*
D03*
D94*
X259035Y230610D02*
D03*
D95*
X375374Y346280D02*
D03*
Y319508D02*
D03*
D96*
X35827Y101181D02*
D03*
D97*
X115686Y293312D02*
D03*
Y300983D02*
D03*
X149213Y323917D02*
D03*
X154844Y323896D02*
D03*
X74316Y92033D02*
D03*
X84159Y82190D02*
D03*
X94488Y71638D02*
D03*
X84277Y72097D02*
D03*
X123327Y246949D02*
D03*
X120691Y348177D02*
D03*
X340354Y325000D02*
D03*
X321752Y377756D02*
D03*
X306496Y371850D02*
D03*
X97244Y350000D02*
D03*
X95669Y311024D02*
D03*
Y280709D02*
D03*
X181890Y208268D02*
D03*
X249213Y283071D02*
D03*
X212598Y319291D02*
D03*
X96457Y269291D02*
D03*
X238583Y165748D02*
D03*
X222047Y161417D02*
D03*
X227559Y145276D02*
D03*
X366929Y123622D02*
D03*
X361024Y289370D02*
D03*
X346063Y292520D02*
D03*
X364961Y371654D02*
D03*
X205512Y350590D02*
D03*
X137303Y355217D02*
D03*
X88189Y366142D02*
D03*
X162598Y136221D02*
D03*
X210630Y90158D02*
D03*
X152559Y181102D02*
D03*
X141831Y163287D02*
D03*
X118898Y25197D02*
D03*
X15748Y46260D02*
D03*
Y33465D02*
D03*
X60039Y71850D02*
D03*
X73228Y124803D02*
D03*
X12992D02*
D03*
X19685D02*
D03*
X6299D02*
D03*
X12795Y167323D02*
D03*
X53150Y124803D02*
D03*
X59842D02*
D03*
X26378D02*
D03*
X46457D02*
D03*
X23622Y180118D02*
D03*
X10827Y226378D02*
D03*
X23622D02*
D03*
X93701Y124803D02*
D03*
X100394D02*
D03*
X66535D02*
D03*
X87008D02*
D03*
X120472D02*
D03*
X127165D02*
D03*
X107087D02*
D03*
X113779D02*
D03*
X100394Y138779D02*
D03*
X125984D02*
D03*
X127559Y98425D02*
D03*
X133858Y124803D02*
D03*
X143307Y108661D02*
D03*
Y101969D02*
D03*
X138583Y120079D02*
D03*
X143307Y115354D02*
D03*
X144882Y63779D02*
D03*
X167205Y66772D02*
D03*
X148031Y90551D02*
D03*
X143307Y95276D02*
D03*
X161417Y90551D02*
D03*
X166142Y85827D02*
D03*
X154724Y90551D02*
D03*
X136188Y173117D02*
D03*
X153543Y141732D02*
D03*
X157382Y185335D02*
D03*
X10827Y261811D02*
D03*
Y281496D02*
D03*
X23622Y267717D02*
D03*
X34449Y293307D02*
D03*
X62008Y282480D02*
D03*
X78740Y291339D02*
D03*
X115059Y286024D02*
D03*
X105512Y356299D02*
D03*
X112205Y333169D02*
D03*
X106988Y375689D02*
D03*
X140059Y249539D02*
D03*
X129921Y310827D02*
D03*
X150591Y248031D02*
D03*
X165354Y237205D02*
D03*
X140354Y261910D02*
D03*
X144390Y331988D02*
D03*
X155118Y362205D02*
D03*
X183071Y66929D02*
D03*
X184646Y80709D02*
D03*
X171260D02*
D03*
X177953D02*
D03*
X204724D02*
D03*
Y66929D02*
D03*
X191339Y80709D02*
D03*
X198031D02*
D03*
X195866Y125984D02*
D03*
X218110Y80709D02*
D03*
X224803D02*
D03*
X211417D02*
D03*
X231496D02*
D03*
X220669Y208563D02*
D03*
X246890Y41969D02*
D03*
X255512Y50000D02*
D03*
X238189Y80709D02*
D03*
X255512Y63386D02*
D03*
Y56693D02*
D03*
X250394Y75197D02*
D03*
X255512Y70079D02*
D03*
X260236Y18504D02*
D03*
Y31890D02*
D03*
Y25197D02*
D03*
X255512Y36614D02*
D03*
Y43307D02*
D03*
X244882Y80709D02*
D03*
X280512Y210630D02*
D03*
X313976Y200787D02*
D03*
X179724Y234646D02*
D03*
X191929Y237205D02*
D03*
X183071Y301772D02*
D03*
X179921Y353150D02*
D03*
X242815Y258661D02*
D03*
X277559Y231299D02*
D03*
X309055Y286417D02*
D03*
X323819Y289370D02*
D03*
X338583Y243110D02*
D03*
X345768Y284154D02*
D03*
X15748Y200787D02*
D03*
Y248031D02*
D03*
X62992Y59055D02*
D03*
X86614Y153543D02*
D03*
X110236D02*
D03*
X145669Y82677D02*
D03*
X133858Y106299D02*
D03*
X145669Y129921D02*
D03*
X157480Y106299D02*
D03*
X181102D02*
D03*
X204725Y295276D02*
D03*
X228346Y106299D02*
D03*
X240158Y129921D02*
D03*
X251969Y106299D02*
D03*
Y153543D02*
D03*
Y248031D02*
D03*
Y295276D02*
D03*
X263780Y366142D02*
D03*
X287402Y35433D02*
D03*
Y82677D02*
D03*
Y129921D02*
D03*
X275591Y248031D02*
D03*
Y295276D02*
D03*
X287402Y366142D02*
D03*
X311024Y35433D02*
D03*
Y82677D02*
D03*
X299213Y106299D02*
D03*
X311024Y129921D02*
D03*
X299213Y295276D02*
D03*
X322835Y11811D02*
D03*
X334646Y35433D02*
D03*
X322835Y59055D02*
D03*
Y106299D02*
D03*
X346457Y11811D02*
D03*
X358268Y35433D02*
D03*
X346457Y59055D02*
D03*
X358268Y82677D02*
D03*
X346457Y106299D02*
D03*
X370079Y11811D02*
D03*
X381890Y35433D02*
D03*
X370079Y106299D02*
D03*
X291723Y200787D02*
D03*
X291753Y153449D02*
D03*
X290659Y177165D02*
D03*
X334646D02*
D03*
X341373Y136649D02*
D03*
X313395Y224410D02*
D03*
Y177165D02*
D03*
X366240Y338583D02*
D03*
X321014Y344144D02*
D03*
X169291Y268898D02*
D03*
X203051Y284449D02*
D03*
X198425Y273917D02*
D03*
X160138Y299311D02*
D03*
X163386Y292126D02*
D03*
X288583Y376870D02*
D03*
X74803Y82677D02*
D03*
Y72835D02*
D03*
Y62992D02*
D03*
X84646D02*
D03*
X94488D02*
D03*
Y82677D02*
D03*
X108661Y24016D02*
D03*
X134055Y143602D02*
D03*
X203976Y265945D02*
D03*
X126870Y268110D02*
D03*
Y262500D02*
D03*
X203976Y260433D02*
D03*
X202592Y178904D02*
D03*
X347227Y165337D02*
D03*
X198031Y160236D02*
D03*
X338189Y356398D02*
D03*
X223327Y341289D02*
D03*
X339764Y337795D02*
D03*
X223327Y327018D02*
D03*
X168110Y316929D02*
D03*
X322835Y335433D02*
D03*
X223327Y319882D02*
D03*
X323228Y326772D02*
D03*
X174902Y317126D02*
D03*
X337795Y348031D02*
D03*
X223327Y334154D02*
D03*
X178150Y334547D02*
D03*
X161713Y173425D02*
D03*
X179823Y169390D02*
D03*
X146457Y270709D02*
D03*
X207087Y184646D02*
D03*
X152677Y210984D02*
D03*
X160118Y225197D02*
D03*
X154528Y150591D02*
D03*
X184646Y172835D02*
D03*
X156575Y215079D02*
D03*
X151850Y202480D02*
D03*
X189055Y176299D02*
D03*
X160906Y218976D02*
D03*
X276575Y267717D02*
D03*
X177591Y214141D02*
D03*
X214567Y188976D02*
D03*
X176378Y163779D02*
D03*
X148268Y207087D02*
D03*
X194095Y153150D02*
D03*
X162402Y187992D02*
D03*
X241732Y265748D02*
D03*
X179921Y345276D02*
D03*
Y361024D02*
D03*
X137402Y349213D02*
D03*
D98*
X212598Y52362D02*
D03*
D164*
X330413Y335728D02*
D03*
X330413Y344390D02*
D03*
X330413Y353051D02*
D03*
X330413Y340059D02*
D03*
Y357382D02*
D03*
Y348721D02*
D03*
Y327067D02*
D03*
Y331398D02*
D03*
Y322736D02*
D03*
D165*
X70079Y159232D02*
D03*
X73819Y167539D02*
D03*
X66339Y167539D02*
D03*
D166*
X127395Y168038D02*
D03*
X171228Y220505D02*
D03*
X207934Y117935D02*
D03*
X177591Y214141D02*
D03*
X214298Y111571D02*
D03*
X121031Y174402D02*
D03*
D167*
X373721Y362815D02*
D03*
Y299232D02*
D03*
X338287Y362815D02*
D03*
Y299232D02*
D03*
D168*
X147234Y224833D02*
D03*
X120787Y198386D02*
D03*
M02*
