G04*
G04 #@! TF.GenerationSoftware,Altium Limited,Altium Designer,25.7.1 (20)*
G04*
G04 Layer_Color=255*
%FSLAX25Y25*%
%MOIN*%
G70*
G04*
G04 #@! TF.SameCoordinates,2BE7CE8E-90D8-463F-AC12-6E4C0CB6A4A3*
G04*
G04*
G04 #@! TF.FilePolarity,Positive*
G04*
G01*
G75*
%ADD18R,0.01575X0.03150*%
%ADD19R,0.03150X0.01575*%
%ADD20R,0.03150X0.03150*%
%ADD21R,0.04724X0.04724*%
G04:AMPARAMS|DCode=22|XSize=62.21mil|YSize=23.62mil|CornerRadius=2.95mil|HoleSize=0mil|Usage=FLASHONLY|Rotation=180.000|XOffset=0mil|YOffset=0mil|HoleType=Round|Shape=RoundedRectangle|*
%AMROUNDEDRECTD22*
21,1,0.06221,0.01772,0,0,180.0*
21,1,0.05630,0.02362,0,0,180.0*
1,1,0.00591,-0.02815,0.00886*
1,1,0.00591,0.02815,0.00886*
1,1,0.00591,0.02815,-0.00886*
1,1,0.00591,-0.02815,-0.00886*
%
%ADD22ROUNDEDRECTD22*%
G04:AMPARAMS|DCode=23|XSize=39.37mil|YSize=66.93mil|CornerRadius=4.92mil|HoleSize=0mil|Usage=FLASHONLY|Rotation=270.000|XOffset=0mil|YOffset=0mil|HoleType=Round|Shape=RoundedRectangle|*
%AMROUNDEDRECTD23*
21,1,0.03937,0.05709,0,0,270.0*
21,1,0.02953,0.06693,0,0,270.0*
1,1,0.00984,-0.02854,-0.01476*
1,1,0.00984,-0.02854,0.01476*
1,1,0.00984,0.02854,0.01476*
1,1,0.00984,0.02854,-0.01476*
%
%ADD23ROUNDEDRECTD23*%
G04:AMPARAMS|DCode=24|XSize=51.58mil|YSize=36.61mil|CornerRadius=2.75mil|HoleSize=0mil|Usage=FLASHONLY|Rotation=90.000|XOffset=0mil|YOffset=0mil|HoleType=Round|Shape=RoundedRectangle|*
%AMROUNDEDRECTD24*
21,1,0.05158,0.03112,0,0,90.0*
21,1,0.04608,0.03661,0,0,90.0*
1,1,0.00549,0.01556,0.02304*
1,1,0.00549,0.01556,-0.02304*
1,1,0.00549,-0.01556,-0.02304*
1,1,0.00549,-0.01556,0.02304*
%
%ADD24ROUNDEDRECTD24*%
%ADD25R,0.15748X0.07874*%
G04:AMPARAMS|DCode=26|XSize=55.12mil|YSize=66.93mil|CornerRadius=6.89mil|HoleSize=0mil|Usage=FLASHONLY|Rotation=180.000|XOffset=0mil|YOffset=0mil|HoleType=Round|Shape=RoundedRectangle|*
%AMROUNDEDRECTD26*
21,1,0.05512,0.05315,0,0,180.0*
21,1,0.04134,0.06693,0,0,180.0*
1,1,0.01378,-0.02067,0.02657*
1,1,0.01378,0.02067,0.02657*
1,1,0.01378,0.02067,-0.02657*
1,1,0.01378,-0.02067,-0.02657*
%
%ADD26ROUNDEDRECTD26*%
G04:AMPARAMS|DCode=27|XSize=39.37mil|YSize=66.93mil|CornerRadius=4.92mil|HoleSize=0mil|Usage=FLASHONLY|Rotation=180.000|XOffset=0mil|YOffset=0mil|HoleType=Round|Shape=RoundedRectangle|*
%AMROUNDEDRECTD27*
21,1,0.03937,0.05709,0,0,180.0*
21,1,0.02953,0.06693,0,0,180.0*
1,1,0.00984,-0.01476,0.02854*
1,1,0.00984,0.01476,0.02854*
1,1,0.00984,0.01476,-0.02854*
1,1,0.00984,-0.01476,-0.02854*
%
%ADD27ROUNDEDRECTD27*%
%ADD28R,0.11400X0.21300*%
G04:AMPARAMS|DCode=29|XSize=51.58mil|YSize=127.56mil|CornerRadius=3.87mil|HoleSize=0mil|Usage=FLASHONLY|Rotation=0.000|XOffset=0mil|YOffset=0mil|HoleType=Round|Shape=RoundedRectangle|*
%AMROUNDEDRECTD29*
21,1,0.05158,0.11982,0,0,0.0*
21,1,0.04384,0.12756,0,0,0.0*
1,1,0.00774,0.02192,-0.05991*
1,1,0.00774,-0.02192,-0.05991*
1,1,0.00774,-0.02192,0.05991*
1,1,0.00774,0.02192,0.05991*
%
%ADD29ROUNDEDRECTD29*%
G04:AMPARAMS|DCode=30|XSize=51.58mil|YSize=36.61mil|CornerRadius=2.75mil|HoleSize=0mil|Usage=FLASHONLY|Rotation=0.000|XOffset=0mil|YOffset=0mil|HoleType=Round|Shape=RoundedRectangle|*
%AMROUNDEDRECTD30*
21,1,0.05158,0.03112,0,0,0.0*
21,1,0.04608,0.03661,0,0,0.0*
1,1,0.00549,0.02304,-0.01556*
1,1,0.00549,-0.02304,-0.01556*
1,1,0.00549,-0.02304,0.01556*
1,1,0.00549,0.02304,0.01556*
%
%ADD30ROUNDEDRECTD30*%
G04:AMPARAMS|DCode=31|XSize=51.58mil|YSize=127.56mil|CornerRadius=3.87mil|HoleSize=0mil|Usage=FLASHONLY|Rotation=90.000|XOffset=0mil|YOffset=0mil|HoleType=Round|Shape=RoundedRectangle|*
%AMROUNDEDRECTD31*
21,1,0.05158,0.11982,0,0,90.0*
21,1,0.04384,0.12756,0,0,90.0*
1,1,0.00774,0.05991,0.02192*
1,1,0.00774,0.05991,-0.02192*
1,1,0.00774,-0.05991,-0.02192*
1,1,0.00774,-0.05991,0.02192*
%
%ADD31ROUNDEDRECTD31*%
%ADD32R,0.03543X0.03150*%
%ADD33R,0.15000X0.08189*%
G04:AMPARAMS|DCode=34|XSize=55.12mil|YSize=66.93mil|CornerRadius=6.89mil|HoleSize=0mil|Usage=FLASHONLY|Rotation=270.000|XOffset=0mil|YOffset=0mil|HoleType=Round|Shape=RoundedRectangle|*
%AMROUNDEDRECTD34*
21,1,0.05512,0.05315,0,0,270.0*
21,1,0.04134,0.06693,0,0,270.0*
1,1,0.01378,-0.02657,-0.02067*
1,1,0.01378,-0.02657,0.02067*
1,1,0.01378,0.02657,0.02067*
1,1,0.01378,0.02657,-0.02067*
%
%ADD34ROUNDEDRECTD34*%
G04:AMPARAMS|DCode=35|XSize=55.12mil|YSize=66.93mil|CornerRadius=6.89mil|HoleSize=0mil|Usage=FLASHONLY|Rotation=225.000|XOffset=0mil|YOffset=0mil|HoleType=Round|Shape=RoundedRectangle|*
%AMROUNDEDRECTD35*
21,1,0.05512,0.05315,0,0,225.0*
21,1,0.04134,0.06693,0,0,225.0*
1,1,0.01378,-0.03341,0.00418*
1,1,0.01378,-0.00418,0.03341*
1,1,0.01378,0.03341,-0.00418*
1,1,0.01378,0.00418,-0.03341*
%
%ADD35ROUNDEDRECTD35*%
G04:AMPARAMS|DCode=36|XSize=61.42mil|YSize=11.02mil|CornerRadius=2.76mil|HoleSize=0mil|Usage=FLASHONLY|Rotation=315.000|XOffset=0mil|YOffset=0mil|HoleType=Round|Shape=RoundedRectangle|*
%AMROUNDEDRECTD36*
21,1,0.06142,0.00551,0,0,315.0*
21,1,0.05591,0.01102,0,0,315.0*
1,1,0.00551,0.01782,-0.02171*
1,1,0.00551,-0.02171,0.01782*
1,1,0.00551,-0.01782,0.02171*
1,1,0.00551,0.02171,-0.01782*
%
%ADD36ROUNDEDRECTD36*%
G04:AMPARAMS|DCode=37|XSize=61.42mil|YSize=11.02mil|CornerRadius=2.76mil|HoleSize=0mil|Usage=FLASHONLY|Rotation=225.000|XOffset=0mil|YOffset=0mil|HoleType=Round|Shape=RoundedRectangle|*
%AMROUNDEDRECTD37*
21,1,0.06142,0.00551,0,0,225.0*
21,1,0.05591,0.01102,0,0,225.0*
1,1,0.00551,-0.02171,-0.01782*
1,1,0.00551,0.01782,0.02171*
1,1,0.00551,0.02171,0.01782*
1,1,0.00551,-0.01782,-0.02171*
%
%ADD37ROUNDEDRECTD37*%
%ADD38R,0.07874X0.15748*%
%ADD42R,0.07087X0.06693*%
G04:AMPARAMS|DCode=43|XSize=39.37mil|YSize=66.93mil|CornerRadius=4.92mil|HoleSize=0mil|Usage=FLASHONLY|Rotation=225.000|XOffset=0mil|YOffset=0mil|HoleType=Round|Shape=RoundedRectangle|*
%AMROUNDEDRECTD43*
21,1,0.03937,0.05709,0,0,225.0*
21,1,0.02953,0.06693,0,0,225.0*
1,1,0.00984,-0.03062,0.00974*
1,1,0.00984,-0.00974,0.03062*
1,1,0.00984,0.03062,-0.00974*
1,1,0.00984,0.00974,-0.03062*
%
%ADD43ROUNDEDRECTD43*%
%ADD81C,0.05709*%
%ADD98C,0.05394*%
%ADD99R,0.01575X0.01575*%
%ADD100R,0.35000X0.45000*%
%ADD101R,0.13386X0.03937*%
%ADD102R,0.02362X0.02362*%
%ADD103R,0.33858X0.42126*%
%ADD104R,0.02362X0.02362*%
%ADD117C,0.06200*%
%ADD118R,0.05543X0.05543*%
%ADD119C,0.07087*%
%ADD120C,0.04795*%
%ADD121C,0.07677*%
%ADD122C,0.05898*%
%ADD123R,0.05898X0.05898*%
%ADD124P,0.08341X4X270.0*%
%ADD125C,0.05315*%
%ADD126C,0.12992*%
%ADD127R,0.07677X0.07677*%
%ADD128R,0.04795X0.04795*%
%ADD129O,0.10000X0.04724*%
%ADD130O,0.17717X0.08858*%
%ADD131O,0.09843X0.19685*%
%ADD132C,0.13055*%
%ADD133C,0.05543*%
%ADD134R,0.05394X0.05394*%
%ADD135C,0.15748*%
%ADD136R,0.10000X0.04724*%
%ADD137C,0.03740*%
%ADD138O,0.08858X0.17717*%
D18*
X137402Y310827D02*
D03*
X134055D02*
D03*
X140748D02*
D03*
X144095D02*
D03*
X147441D02*
D03*
X150787D02*
D03*
X154134D02*
D03*
X157480D02*
D03*
X160827D02*
D03*
X167520D02*
D03*
X174213D02*
D03*
X177559D02*
D03*
X180905D02*
D03*
X134055Y365945D02*
D03*
X144095D02*
D03*
X147441D02*
D03*
X137402D02*
D03*
X140748D02*
D03*
X150787D02*
D03*
X154134D02*
D03*
X167520D02*
D03*
X157480D02*
D03*
X164173D02*
D03*
X160827D02*
D03*
X177559D02*
D03*
X170866D02*
D03*
X174213D02*
D03*
X180905D02*
D03*
X170866Y310827D02*
D03*
X164173D02*
D03*
D19*
X129921Y321654D02*
D03*
Y325000D02*
D03*
X185039Y345079D02*
D03*
Y341732D02*
D03*
Y361811D02*
D03*
Y358465D02*
D03*
X129921Y351772D02*
D03*
Y348425D02*
D03*
Y345079D02*
D03*
Y341732D02*
D03*
Y338386D02*
D03*
Y335039D02*
D03*
Y331693D02*
D03*
Y328346D02*
D03*
Y318307D02*
D03*
Y314961D02*
D03*
X185039Y331693D02*
D03*
Y335039D02*
D03*
Y338386D02*
D03*
Y348425D02*
D03*
X129921Y361811D02*
D03*
Y358465D02*
D03*
X185039Y355118D02*
D03*
Y351772D02*
D03*
Y328346D02*
D03*
Y321654D02*
D03*
Y314961D02*
D03*
Y318307D02*
D03*
Y325000D02*
D03*
X129921Y355118D02*
D03*
D20*
Y310827D02*
D03*
Y365945D02*
D03*
X185039D02*
D03*
Y310827D02*
D03*
D21*
X150984Y338386D02*
D03*
Y331890D02*
D03*
X157480Y338386D02*
D03*
Y344882D02*
D03*
Y331890D02*
D03*
X163976D02*
D03*
Y344882D02*
D03*
Y338386D02*
D03*
D22*
X212028Y270689D02*
D03*
Y255689D02*
D03*
X233051Y265689D02*
D03*
X212028Y260689D02*
D03*
X212028Y265689D02*
D03*
X233051Y270689D02*
D03*
X233051Y255689D02*
D03*
X233051Y260689D02*
D03*
X136988Y262874D02*
D03*
X115965Y267874D02*
D03*
Y262874D02*
D03*
X136988Y272874D02*
D03*
Y267874D02*
D03*
X115965Y272874D02*
D03*
Y257874D02*
D03*
X136988D02*
D03*
D23*
X167008Y253543D02*
D03*
X214173Y350590D02*
D03*
X116142Y360433D02*
D03*
X196063Y350590D02*
D03*
X165236Y275984D02*
D03*
X342126Y268701D02*
D03*
X144882Y37205D02*
D03*
X122047Y107283D02*
D03*
X144882Y12795D02*
D03*
X121260Y331496D02*
D03*
X203110Y244921D02*
D03*
X331890Y284055D02*
D03*
X167008Y261024D02*
D03*
X122047Y114764D02*
D03*
X121358Y308858D02*
D03*
X196063Y358071D02*
D03*
X214173D02*
D03*
X165236Y283465D02*
D03*
X203110Y252402D02*
D03*
X144882Y20276D02*
D03*
Y29724D02*
D03*
X121358Y316339D02*
D03*
X121260Y324016D02*
D03*
X342126Y276181D02*
D03*
X331890Y276575D02*
D03*
X116142Y367913D02*
D03*
D24*
X97205Y357303D02*
D03*
X79173D02*
D03*
X88189D02*
D03*
D25*
X217126Y25591D02*
D03*
X245079D02*
D03*
D26*
X224634Y64173D02*
D03*
X340382Y325197D02*
D03*
X340382Y314173D02*
D03*
X156035Y259016D02*
D03*
X233634Y64173D02*
D03*
X342744Y257087D02*
D03*
X349382Y325197D02*
D03*
Y314173D02*
D03*
X147035Y259016D02*
D03*
X351744Y257087D02*
D03*
D27*
X223819Y50394D02*
D03*
X330512Y357972D02*
D03*
Y346850D02*
D03*
Y335827D02*
D03*
Y324803D02*
D03*
X109252Y383858D02*
D03*
X137244Y249095D02*
D03*
X212008Y208268D02*
D03*
X246929Y50472D02*
D03*
X347047Y336221D02*
D03*
X337992Y357972D02*
D03*
X339567Y336221D02*
D03*
X323031Y335827D02*
D03*
Y324803D02*
D03*
X337992Y346850D02*
D03*
X204527Y208268D02*
D03*
X129764Y249095D02*
D03*
X231299Y50394D02*
D03*
X239449Y50472D02*
D03*
X116732Y383858D02*
D03*
D28*
X199815Y31890D02*
D03*
X160815D02*
D03*
D29*
X386791Y267323D02*
D03*
D30*
X360453Y258307D02*
D03*
X360453Y267323D02*
D03*
X360453Y276339D02*
D03*
D31*
X88189Y383642D02*
D03*
D32*
X147913Y279252D02*
D03*
X155787Y282992D02*
D03*
Y275512D02*
D03*
D33*
X89705Y37559D02*
D03*
Y17559D02*
D03*
D34*
X351575Y267941D02*
D03*
X144882Y47469D02*
D03*
Y56468D02*
D03*
X351575Y276941D02*
D03*
D35*
X183636Y218282D02*
D03*
X207448Y170834D02*
D03*
X176450Y226568D02*
D03*
X190000Y224646D02*
D03*
X213812Y177198D02*
D03*
X170086Y220204D02*
D03*
D36*
X196803Y171993D02*
D03*
X148475Y186915D02*
D03*
X149867Y188307D02*
D03*
X195411Y170601D02*
D03*
X194019Y169209D02*
D03*
X189843Y165033D02*
D03*
X188452Y163642D02*
D03*
X187060Y162250D02*
D03*
X185668Y160858D02*
D03*
X184276Y159466D02*
D03*
X180100Y155290D02*
D03*
X155435Y193875D02*
D03*
X156827Y195266D02*
D03*
X158219Y196659D02*
D03*
X159610Y198050D02*
D03*
X161003Y199442D02*
D03*
X162394Y200834D02*
D03*
X163786Y202226D02*
D03*
X175924Y151114D02*
D03*
X144299Y182739D02*
D03*
X182884Y158074D02*
D03*
X145691Y184131D02*
D03*
X151259Y189699D02*
D03*
X181492Y156682D02*
D03*
X147083Y185523D02*
D03*
X178708Y153898D02*
D03*
X152651Y191091D02*
D03*
X177316Y152506D02*
D03*
X154043Y192483D02*
D03*
X192627Y167817D02*
D03*
X191235Y166426D02*
D03*
X165178Y203618D02*
D03*
D37*
Y151114D02*
D03*
X147083Y169209D02*
D03*
X175924Y203618D02*
D03*
X163786Y152506D02*
D03*
X145691Y170601D02*
D03*
X177316Y202226D02*
D03*
X196803Y182739D02*
D03*
X182884Y196659D02*
D03*
X184276Y195266D02*
D03*
X162394Y153898D02*
D03*
X161003Y155290D02*
D03*
X159610Y156682D02*
D03*
X155435Y160858D02*
D03*
X154043Y162250D02*
D03*
X148475Y167817D02*
D03*
X178708Y200834D02*
D03*
X180100Y199442D02*
D03*
X181492Y198050D02*
D03*
X185668Y193875D02*
D03*
X187060Y192483D02*
D03*
X188452Y191091D02*
D03*
X189843Y189699D02*
D03*
X191235Y188307D02*
D03*
X192627Y186915D02*
D03*
X194019Y185523D02*
D03*
X195411Y184131D02*
D03*
X152651Y163642D02*
D03*
X151259Y165033D02*
D03*
X158219Y158074D02*
D03*
X144299Y171993D02*
D03*
X156827Y159466D02*
D03*
X149867Y166426D02*
D03*
D38*
X118898Y13976D02*
D03*
Y41929D02*
D03*
D42*
X163189Y75590D02*
D03*
X147047D02*
D03*
D43*
X191031Y136405D02*
D03*
X178261Y138595D02*
D03*
X183550Y143885D02*
D03*
X185741Y131115D02*
D03*
D81*
X276575Y367421D02*
D03*
Y286713D02*
D03*
D98*
X386311Y62063D02*
D03*
X275858Y52063D02*
D03*
X275858Y62063D02*
D03*
X386311Y82063D02*
D03*
X368347Y190787D02*
D03*
X378346D02*
D03*
Y180787D02*
D03*
X368347D02*
D03*
Y170787D02*
D03*
Y200787D02*
D03*
X378346Y200787D02*
D03*
X378346Y210787D02*
D03*
X368347Y210787D02*
D03*
X275858Y32063D02*
D03*
Y42063D02*
D03*
X386311Y122063D02*
D03*
Y112063D02*
D03*
Y102063D02*
D03*
Y92063D02*
D03*
Y72063D02*
D03*
Y52063D02*
D03*
Y32063D02*
D03*
Y42063D02*
D03*
X275858Y122063D02*
D03*
Y112063D02*
D03*
Y102063D02*
D03*
Y92063D02*
D03*
Y82063D02*
D03*
Y72063D02*
D03*
D99*
X150984Y344882D02*
D03*
D100*
X44705Y27559D02*
D03*
D101*
X127953Y62598D02*
D03*
Y89370D02*
D03*
Y75984D02*
D03*
Y82677D02*
D03*
Y69291D02*
D03*
D102*
X49508Y73524D02*
D03*
Y64862D02*
D03*
D103*
X86221Y75984D02*
D03*
D104*
X342520Y210236D02*
D03*
X351181D02*
D03*
D117*
X183721Y256713D02*
D03*
Y266713D02*
D03*
Y276713D02*
D03*
X87638Y342126D02*
D03*
X97638D02*
D03*
X107638D02*
D03*
X192283Y293701D02*
D03*
X360079Y238189D02*
D03*
X182283Y293701D02*
D03*
X172283D02*
D03*
X234567Y288976D02*
D03*
X224567D02*
D03*
X214567D02*
D03*
X240551Y197795D02*
D03*
Y187795D02*
D03*
Y177795D02*
D03*
X370079Y238189D02*
D03*
X380079D02*
D03*
X249606Y381496D02*
D03*
X259606D02*
D03*
X239606D02*
D03*
X240551Y224410D02*
D03*
Y214409D02*
D03*
Y234409D02*
D03*
X130886Y293701D02*
D03*
X140886D02*
D03*
X150886D02*
D03*
D118*
X66142Y337992D02*
D03*
D119*
X102756Y285433D02*
D03*
X61417Y382677D02*
D03*
X37402Y382283D02*
D03*
X290945Y257480D02*
D03*
X342126Y225590D02*
D03*
D120*
X82913Y111024D02*
D03*
X92913D02*
D03*
D121*
X45315Y223429D02*
D03*
X55158Y229335D02*
D03*
X45315Y247051D02*
D03*
Y235240D02*
D03*
X55158Y217524D02*
D03*
Y205713D02*
D03*
X45315Y258862D02*
D03*
Y270673D02*
D03*
X55158Y252957D02*
D03*
X66969Y264768D02*
D03*
X45315Y211618D02*
D03*
X76811Y235240D02*
D03*
Y258862D02*
D03*
X66969Y252957D02*
D03*
Y217524D02*
D03*
X76811Y199807D02*
D03*
Y223429D02*
D03*
Y187996D02*
D03*
X66969Y182091D02*
D03*
X76811Y211618D02*
D03*
Y176185D02*
D03*
X45315Y187996D02*
D03*
X55158Y241146D02*
D03*
X66969D02*
D03*
X45315Y199807D02*
D03*
X76811Y247051D02*
D03*
X66969Y229335D02*
D03*
X55158Y264768D02*
D03*
X66969Y205713D02*
D03*
Y193902D02*
D03*
X55158D02*
D03*
Y182091D02*
D03*
X45315Y176185D02*
D03*
D122*
X106102Y309646D02*
D03*
Y327362D02*
D03*
X80512Y309646D02*
D03*
X197047Y367520D02*
D03*
Y385236D02*
D03*
X222638D02*
D03*
X205270Y100833D02*
D03*
X192743Y113361D02*
D03*
X210838Y131456D02*
D03*
D123*
X80512Y327362D02*
D03*
X222638Y367520D02*
D03*
D124*
X223365Y118929D02*
D03*
D125*
X34409Y67716D02*
D03*
X14409D02*
D03*
D126*
X19724Y147642D02*
D03*
Y299217D02*
D03*
D127*
X76811Y270673D02*
D03*
D128*
X102913Y111024D02*
D03*
D129*
X259035Y220768D02*
D03*
X329035Y191240D02*
D03*
X259035Y210925D02*
D03*
X329035Y201083D02*
D03*
X329035Y210925D02*
D03*
Y220768D02*
D03*
X259035Y181398D02*
D03*
X259035Y201083D02*
D03*
Y191240D02*
D03*
D130*
X47516Y84177D02*
D03*
D131*
X59327Y102681D02*
D03*
D132*
X47638Y319213D02*
D03*
Y366614D02*
D03*
D133*
X58268Y337992D02*
D03*
X66142Y347835D02*
D03*
X58268D02*
D03*
D134*
X378346Y170787D02*
D03*
X386311Y22063D02*
D03*
X275858Y22063D02*
D03*
D135*
X264035Y163110D02*
D03*
X324036Y163110D02*
D03*
X324035Y248110D02*
D03*
X264035D02*
D03*
X13638Y14331D02*
D03*
X380035Y136835D02*
D03*
Y379331D02*
D03*
X13638D02*
D03*
D136*
X259035Y230610D02*
D03*
D137*
X375374Y346280D02*
D03*
Y319508D02*
D03*
D138*
X35827Y101181D02*
D03*
M02*
